<svg xmlns="http://www.w3.org/2000/svg" xmlns:xlink="http://www.w3.org/1999/xlink" width="837" height="157" viewBox="0 0 837 157">
  <defs>
    <filter id="Rectángulo_44571" x="0" y="0" width="192" height="157" filterUnits="userSpaceOnUse">
      <feOffset dy="3" input="SourceAlpha"/>
      <feGaussianBlur stdDeviation="3" result="blur"/>
      <feFlood flood-opacity="0.161"/>
      <feComposite operator="in" in2="blur"/>
      <feComposite in="SourceGraphic"/>
    </filter>
    <linearGradient id="linear-gradient" x1="0.5" x2="0.5" y2="1" gradientUnits="objectBoundingBox">
      <stop offset="0" stop-color="#039be5"/>
      <stop offset="1" stop-color="#027fbc"/>
    </linearGradient>
    <filter id="Rectángulo_44571-2" x="211" y="0" width="192" height="157" filterUnits="userSpaceOnUse">
      <feOffset dy="3" input="SourceAlpha"/>
      <feGaussianBlur stdDeviation="3" result="blur-2"/>
      <feFlood flood-opacity="0.161"/>
      <feComposite operator="in" in2="blur-2"/>
      <feComposite in="SourceGraphic"/>
    </filter>
    <filter id="Rectángulo_44571-3" x="427" y="0" width="192" height="157" filterUnits="userSpaceOnUse">
      <feOffset dy="3" input="SourceAlpha"/>
      <feGaussianBlur stdDeviation="3" result="blur-3"/>
      <feFlood flood-opacity="0.161"/>
      <feComposite operator="in" in2="blur-3"/>
      <feComposite in="SourceGraphic"/>
    </filter>
    <filter id="Rectángulo_44571-4" x="645" y="0" width="192" height="157" filterUnits="userSpaceOnUse">
      <feOffset dy="3" input="SourceAlpha"/>
      <feGaussianBlur stdDeviation="3" result="blur-4"/>
      <feFlood flood-opacity="0.161"/>
      <feComposite operator="in" in2="blur-4"/>
      <feComposite in="SourceGraphic"/>
    </filter>
  </defs>
  <g id="Grupo_712080" data-name="Grupo 712080" transform="translate(-171 -8933.963)">
    <g id="Grupo_710367" data-name="Grupo 710367" transform="translate(179 8939.963)">
      <g transform="matrix(1, 0, 0, 1, -8, -6)" filter="url(#Rectángulo_44571)">
        <rect id="Rectángulo_44571-5" data-name="Rectángulo 44571" width="174" height="139" rx="10" transform="translate(9 6)" fill="#fff"/>
      </g>
      <path id="Trazado_468372" data-name="Trazado 468372" d="M49.992,13.211A4.025,4.025,0,0,1,48.637,16.1a4.76,4.76,0,0,1-3.223,1.055,4.28,4.28,0,0,1-3.441-1.473,6.038,6.038,0,0,1-1.254-4.043v-.7A6.819,6.819,0,0,1,41.3,8.055a4.332,4.332,0,0,1,1.652-1.918,5.164,5.164,0,0,1,5.668.387,4.326,4.326,0,0,1,1.391,2.961H47.664a2.376,2.376,0,0,0-.613-1.6,2.271,2.271,0,0,0-1.605-.5,1.991,1.991,0,0,0-1.754.84,4.707,4.707,0,0,0-.6,2.605V11.7a5.038,5.038,0,0,0,.559,2.7,1.954,1.954,0,0,0,1.762.852,2.314,2.314,0,0,0,1.621-.5,2.241,2.241,0,0,0,.613-1.535Zm1.039-.516a5.013,5.013,0,0,1,.484-2.242A3.546,3.546,0,0,1,52.91,8.93a4.069,4.069,0,0,1,2.113-.539,3.849,3.849,0,0,1,2.793,1.047,4.2,4.2,0,0,1,1.207,2.844l.016.578a4.418,4.418,0,0,1-1.086,3.121,4.209,4.209,0,0,1-5.832,0,4.5,4.5,0,0,1-1.09-3.187Zm2.258.16a3.16,3.16,0,0,0,.453,1.843,1.628,1.628,0,0,0,2.578.008,3.457,3.457,0,0,0,.461-2.015,3.128,3.128,0,0,0-.461-1.831,1.5,1.5,0,0,0-1.3-.649,1.474,1.474,0,0,0-1.281.646A3.516,3.516,0,0,0,53.289,12.856Zm9.258-4.309.07.945a2.971,2.971,0,0,1,2.43-1.1A2.255,2.255,0,0,1,67.289,9.68a2.9,2.9,0,0,1,2.539-1.289,2.521,2.521,0,0,1,2.047.8,3.681,3.681,0,0,1,.672,2.41V17H70.281V11.609A1.61,1.61,0,0,0,70,10.559a1.246,1.246,0,0,0-.992-.332A1.409,1.409,0,0,0,67.6,11.2l.008,5.8H65.352V11.617a1.59,1.59,0,0,0-.289-1.062,1.259,1.259,0,0,0-.984-.328,1.463,1.463,0,0,0-1.391.8V17H60.43V8.547Zm19.344,4.3A5.07,5.07,0,0,1,81,15.98a2.843,2.843,0,0,1-2.395,1.176,2.633,2.633,0,0,1-2.07-.891V20.25H74.281V8.547h2.094l.078.828a2.654,2.654,0,0,1,2.141-.984,2.862,2.862,0,0,1,2.43,1.156,5.207,5.207,0,0,1,.867,3.188Zm-2.258-.164a3.327,3.327,0,0,0-.418-1.82A1.361,1.361,0,0,0,78,10.227a1.478,1.478,0,0,0-1.461.813V14.5a1.5,1.5,0,0,0,1.477.836Q79.633,15.336,79.633,12.688Zm8.719,3.453a2.831,2.831,0,0,1-2.312,1.016,2.67,2.67,0,0,1-2.074-.781,3.335,3.335,0,0,1-.73-2.289V8.547h2.258v5.467q0,1.322,1.2,1.322a1.63,1.63,0,0,0,1.578-.8V8.547h2.266V17H88.414Zm6.594-9.672V8.547h1.445V10.2H94.945v4.219a1.007,1.007,0,0,0,.18.672.9.9,0,0,0,.688.2,3.6,3.6,0,0,0,.664-.055v1.711a4.648,4.648,0,0,1-1.367.2,2.156,2.156,0,0,1-2.422-2.4V10.2H91.453V8.547h1.234V6.469ZM102.547,17a2.507,2.507,0,0,1-.227-.758,2.732,2.732,0,0,1-2.133.914,3,3,0,0,1-2.059-.719,2.312,2.312,0,0,1-.816-1.812,2.389,2.389,0,0,1,1-2.062,4.915,4.915,0,0,1,2.879-.727h1.039v-.484a1.393,1.393,0,0,0-.3-.937,1.183,1.183,0,0,0-.949-.352,1.345,1.345,0,0,0-.895.273.929.929,0,0,0-.324.75H97.5a2.268,2.268,0,0,1,.453-1.359,3,3,0,0,1,1.281-.98,4.669,4.669,0,0,1,1.859-.355,3.689,3.689,0,0,1,2.48.785,2.747,2.747,0,0,1,.918,2.207v3.664a4.041,4.041,0,0,0,.336,1.82V17Zm-1.867-1.57a1.945,1.945,0,0,0,.922-.223,1.462,1.462,0,0,0,.625-.6V13.156h-.844q-1.7,0-1.8,1.172l-.008.133a.9.9,0,0,0,.3.7A1.153,1.153,0,0,0,100.68,15.43Zm9.063-.094a1.481,1.481,0,0,0,1.016-.344,1.2,1.2,0,0,0,.406-.914h2.117a2.9,2.9,0,0,1-.469,1.574,3.093,3.093,0,0,1-1.262,1.109,3.949,3.949,0,0,1-1.77.395A3.67,3.67,0,0,1,106.922,16a4.56,4.56,0,0,1-1.047-3.184v-.148a4.508,4.508,0,0,1,1.039-3.117,3.627,3.627,0,0,1,2.852-1.164,3.555,3.555,0,0,1,2.543.9,3.2,3.2,0,0,1,.973,2.4h-2.117a1.551,1.551,0,0,0-.406-1.072,1.51,1.51,0,0,0-2.223.163,3.333,3.333,0,0,0-.4,1.866v.235a3.375,3.375,0,0,0,.4,1.878A1.377,1.377,0,0,0,109.742,15.336ZM116.953,17h-2.266V8.547h2.266Zm-2.4-10.641a1.112,1.112,0,0,1,.34-.836,1.465,1.465,0,0,1,1.848,0,1.105,1.105,0,0,1,.344.836,1.108,1.108,0,0,1-.348.844,1.448,1.448,0,0,1-1.836,0A1.108,1.108,0,0,1,114.555,6.359Zm3.906,6.336a5.013,5.013,0,0,1,.484-2.242A3.546,3.546,0,0,1,120.34,8.93a4.069,4.069,0,0,1,2.113-.539,3.849,3.849,0,0,1,2.793,1.047,4.2,4.2,0,0,1,1.207,2.844l.016.578a4.418,4.418,0,0,1-1.086,3.121,4.209,4.209,0,0,1-5.832,0,4.5,4.5,0,0,1-1.09-3.187Zm2.258.16a3.16,3.16,0,0,0,.453,1.843,1.628,1.628,0,0,0,2.578.008,3.457,3.457,0,0,0,.461-2.015,3.128,3.128,0,0,0-.461-1.831,1.5,1.5,0,0,0-1.3-.649,1.474,1.474,0,0,0-1.281.646A3.516,3.516,0,0,0,120.719,12.856ZM122.9,5h2.461L123.2,7.422h-1.836Zm7.039,3.547.07.977a2.951,2.951,0,0,1,2.43-1.133,2.453,2.453,0,0,1,2,.789,3.682,3.682,0,0,1,.672,2.359V17h-2.258V11.594a1.465,1.465,0,0,0-.312-1.043,1.4,1.4,0,0,0-1.039-.324,1.553,1.553,0,0,0-1.43.813V17h-2.258V8.547Z" transform="translate(0 87)" fill="#12263f"/>
      <g id="Grupo_151277" data-name="Grupo 151277" transform="translate(61 21)">
        <ellipse id="Elipse_4775" data-name="Elipse 4775" cx="27.5" cy="27" rx="27.5" ry="27" fill="url(#linear-gradient)"/>
        <g id="Hi6H32.tif" transform="translate(-4223.086 -491.735)">
          <g id="Grupo_143033" data-name="Grupo 143033" transform="translate(4236.086 503.735)">
            <path id="Trazado_184074" data-name="Trazado 184074" d="M4475.8,509.281c-.342.329-.678.664-1.027.986a.973.973,0,0,0-.028,1.267c.246.234.488.474.738.7a.549.549,0,0,1,.148.689c-.215.485-.433.968-.646,1.454a.516.516,0,0,1-.554.337,5.605,5.605,0,0,1-.73-.056,1,1,0,0,0-1.066.364.643.643,0,0,0-.2.5c.028.338.029.679.04,1.019a.553.553,0,0,1-.391.588q-.745.279-1.483.571a.533.533,0,0,1-.654-.176,7.925,7.925,0,0,1-.534-.633.882.882,0,0,0-.832-.4.74.74,0,0,0-.634.264c-.207.255-.451.479-.676.719a.527.527,0,0,1-.64.128c-.5-.214-.987-.44-1.482-.658a.516.516,0,0,1-.329-.56c.028-.381.061-.762.079-1.144a1.053,1.053,0,0,0-.831-.841c-.34.009-.679.02-1.019.037a.593.593,0,0,1-.658-.429c-.171-.479-.36-.952-.548-1.425a.546.546,0,0,1,.176-.681,4.529,4.529,0,0,1,.536-.449.983.983,0,0,0,.481-1.077.68.68,0,0,0-.152-.354c-.247-.263-.513-.508-.78-.751a.562.562,0,0,1-.152-.715c.214-.473.427-.948.632-1.425a.528.528,0,0,1,.578-.35c.36.028.72.057,1.081.077a1,1,0,0,0,.9-.868c-.01-.329-.02-.658-.037-.987a.591.591,0,0,1,.435-.653c.516-.19,1.021-.407,1.531-.613h.254c.336.35.676.695,1,1.05a1.006,1.006,0,0,0,1.224.032c.242-.253.488-.5.724-.761a.56.56,0,0,1,.716-.142c.463.209.927.417,1.4.617a.557.557,0,0,1,.37.628c-.032.338-.042.678-.079,1.015a.666.666,0,0,0,.182.509.955.955,0,0,0,1.012.409,4.115,4.115,0,0,1,.635-.029c.411-.008.542.081.694.464l.6,1.5Zm-12.4-1.464c-.1.234-.187.453-.3.658-.09.168-.086.3.079.4a1.932,1.932,0,0,1,.859,2.194c-.01.052.009.113-.011.158a1.767,1.767,0,0,1-.247.489,4.487,4.487,0,0,1-.672.583.306.306,0,0,0-.105.456.781.781,0,0,1,.094.236c.061.355.269.416.606.4,1.221-.051.879-.135,1.73.686a1.468,1.468,0,0,1,.492,1.351c-.09.734-.058.744.641,1.012a.369.369,0,0,0,.316-.06c.243-.221.45-.481.693-.7a.749.749,0,0,1,.41-.206c.929-.063,1.842-.061,2.355.934a.429.429,0,0,0,.1.12c.038.032.1.083.129.072a3.875,3.875,0,0,0,.816-.339c.082-.053.061-.319.032-.478a1.5,1.5,0,0,1,.674-1.646c.13-.089.218-.245.353-.319a1.443,1.443,0,0,1,.6-.213,10.894,10.894,0,0,1,1.137.066,3.372,3.372,0,0,1,.21-.451c.2-.312.128-.516-.143-.771-.884-.83-.717-.474-.729-1.745a1.4,1.4,0,0,1,.6-1.24c.619-.474.6-.5.264-1.2a.35.35,0,0,0-.254-.161c-.307-.011-.619.047-.921.01a1.23,1.23,0,0,1-.61-.257,4.865,4.865,0,0,1-.744-.784,1.071,1.071,0,0,1-.206-.566c-.017-.315.052-.635.054-.952a.371.371,0,0,0-.166-.278c-.682-.348-.684-.342-1.219.215a2.594,2.594,0,0,1-.222.228c-.129.1-.269.278-.406.279-.846.01-1.773.227-2.306-.749a1.276,1.276,0,0,0-.228-.265c-.042-.042-.114-.108-.149-.1a3.757,3.757,0,0,0-.816.338c-.082.053-.057.316-.034.477a1.454,1.454,0,0,1-.6,1.582c-.166.109-.279.3-.446.405a1.136,1.136,0,0,1-.54.194C4464.19,507.9,4463.809,507.846,4463.4,507.817Z" transform="translate(-4447.375 -503.735)" fill="#fff"/>
            <path id="Trazado_184075" data-name="Trazado 184075" d="M4243.919,589.035l1.081-2.528h-1.449q-2.391,0-4.78,0a2.552,2.552,0,0,1-2.683-2.681q0-7.777,0-15.553a2.546,2.546,0,0,1,2.656-2.675q5.4,0,10.8,0h.292v1.02h-11.01a1.548,1.548,0,0,0-1.722,1.708q0,6.358,0,12.717v.341h24.469V575.3h1.028v.329q0,4.08,0,8.159a2.557,2.557,0,0,1-2.714,2.714q-2.9,0-5.8,0h-.4l1.09,2.55c.711,0,1.412,0,2.112,0a1.532,1.532,0,1,1,0,3.059q-7.553,0-15.1,0a1.532,1.532,0,1,1,0-3.059c.68,0,1.36,0,2.04,0A.514.514,0,0,0,4243.919,589.035Zm-6.813-6.6v1.338a1.549,1.549,0,0,0,1.721,1.709h10.963q5.084,0,10.167,0a1.483,1.483,0,0,0,1.588-1.266,14.92,14.92,0,0,0,.014-1.781Zm7.923,6.6h8.631c-.35-.819-.684-1.609-1.031-2.392a.315.315,0,0,0-.242-.131q-3.042-.011-6.084,0a.314.314,0,0,0-.242.131C4245.713,587.427,4245.38,588.216,4245.03,589.036Zm4.284,2.061h7.425a1.766,1.766,0,0,0,.317-.008.506.506,0,0,0,0-1,1.59,1.59,0,0,0-.286-.008h-14.851a1.594,1.594,0,0,0-.286.008.506.506,0,0,0,0,1,1.783,1.783,0,0,0,.318.008Z" transform="translate(-4236.086 -561.644)" fill="#fff"/>
            <path id="Trazado_184076" data-name="Trazado 184076" d="M4308.172,782.386V781.4h15.258v.983Z" transform="translate(-4303.567 -763.664)" fill="#fff"/>
            <path id="Trazado_184077" data-name="Trazado 184077" d="M4321.041,749.558v.983h-12.708v-.983Z" transform="translate(-4303.717 -733.854)" fill="#fff"/>
            <path id="Trazado_184078" data-name="Trazado 184078" d="M4319.517,717.632v.982h-11.178v-.982Z" transform="translate(-4303.723 -703.967)" fill="#fff"/>
            <path id="Trazado_184079" data-name="Trazado 184079" d="M4317.887,685.591v.984h-9.656v-.984Z" transform="translate(-4303.622 -673.973)" fill="#fff"/>
            <path id="Trazado_184080" data-name="Trazado 184080" d="M4277.017,609.922l1.234,1.139-.737.728c-.515-.51-1.035-1.01-1.535-1.528a.462.462,0,0,1,.013-.689c.494-.51,1-1.008,1.519-1.526l.675.747Z" transform="translate(-4273.292 -601.383)" fill="#fff"/>
            <path id="Trazado_184081" data-name="Trazado 184081" d="M4367.075,610.829l-1.232-1.133.769-.695c.486.475,1.017.977,1.527,1.5a.435.435,0,0,1,0,.637c-.51.522-1.04,1.024-1.572,1.544l-.687-.725Z" transform="translate(-4357.553 -602.276)" fill="#fff"/>
            <path id="Trazado_184082" data-name="Trazado 184082" d="M4325.2,608.05l-.986-.255,1.019-4.07.989.245Z" transform="translate(-4318.585 -597.337)" fill="#fff"/>
            <path id="Trazado_184083" data-name="Trazado 184083" d="M4276.209,686.617v-.978h.992v.978Z" transform="translate(-4273.646 -674.018)" fill="#fff"/>
            <path id="Trazado_184084" data-name="Trazado 184084" d="M4276.243,717.482h.984v.99h-.984Z" transform="translate(-4273.678 -703.827)" fill="#fff"/>
            <path id="Trazado_184085" data-name="Trazado 184085" d="M4277.341,750.519h-.98v-.986h.98Z" transform="translate(-4273.788 -733.83)" fill="#fff"/>
            <path id="Trazado_184086" data-name="Trazado 184086" d="M4524.8,750.549h-.969v-.992h.969Z" transform="translate(-4505.448 -733.853)" fill="#fff"/>
            <path id="Trazado_184087" data-name="Trazado 184087" d="M4556.728,750.549h-.969v-.992h.969Z" transform="translate(-4535.337 -733.853)" fill="#fff"/>
            <path id="Trazado_184088" data-name="Trazado 184088" d="M4277.268,782.386h-.979v-.992h.979Z" transform="translate(-4273.72 -763.656)" fill="#fff"/>
            <path id="Trazado_184089" data-name="Trazado 184089" d="M4563.452,782.526v-.975h.992v.975Z" transform="translate(-4542.538 -763.803)" fill="#fff"/>
            <path id="Trazado_184090" data-name="Trazado 184090" d="M4596.637,782.463h-.979v-.984h.979Z" transform="translate(-4572.687 -763.735)" fill="#fff"/>
            <path id="Trazado_184091" data-name="Trazado 184091" d="M4521.785,560.345a3.63,3.63,0,1,1-3.616-3.645A3.638,3.638,0,0,1,4521.785,560.345Zm-1.021-.02a2.61,2.61,0,1,0-2.615,2.615A2.617,2.617,0,0,0,4520.764,560.325Z" transform="translate(-4496.736 -553.317)" fill="#fff"/>
            <path id="Trazado_184092" data-name="Trazado 184092" d="M4437,846.329h-.979v-.984H4437Z" transform="translate(-4423.244 -823.521)" fill="#fff"/>
          </g>
        </g>
      </g>
    </g>
    <g id="Grupo_710371" data-name="Grupo 710371" transform="translate(390 8939.963)">
      <g transform="matrix(1, 0, 0, 1, -219, -6)" filter="url(#Rectángulo_44571-2)">
        <rect id="Rectángulo_44571-6" data-name="Rectángulo 44571" width="174" height="139" rx="10" transform="translate(220 6)" fill="#fff"/>
      </g>
      <path id="Trazado_468373" data-name="Trazado 468373" d="M79.289,12.836H77.422V17H75.078V5.625H79.3a4.778,4.778,0,0,1,3.109.9,3.1,3.1,0,0,1,1.094,2.539A3.5,3.5,0,0,1,83,11a3.437,3.437,0,0,1-1.527,1.238l2.461,4.648V17H81.422Zm-1.867-1.9h1.891a1.936,1.936,0,0,0,1.367-.449,1.606,1.606,0,0,0,.484-1.238,1.719,1.719,0,0,0-.457-1.266,1.9,1.9,0,0,0-1.4-.461H77.422Zm11.609,6.219A4.15,4.15,0,0,1,86,16.016a4.054,4.054,0,0,1-1.168-3.039v-.219a5.106,5.106,0,0,1,.492-2.277,3.612,3.612,0,0,1,1.395-1.547,3.914,3.914,0,0,1,2.059-.543,3.508,3.508,0,0,1,2.73,1.094,4.444,4.444,0,0,1,1,3.1v.922H87.125a2.1,2.1,0,0,0,.66,1.328,2,2,0,0,0,1.395.5,2.437,2.437,0,0,0,2.039-.945l1.109,1.242a3.389,3.389,0,0,1-1.375,1.121A4.511,4.511,0,0,1,89.031,17.156Zm-.258-6.945a1.411,1.411,0,0,0-1.09.455,2.357,2.357,0,0,0-.535,1.3h3.141v-.181a1.681,1.681,0,0,0-.406-1.165A1.456,1.456,0,0,0,88.773,10.211Zm4.664,2.5a5.094,5.094,0,0,1,.887-3.148A2.877,2.877,0,0,1,96.75,8.391a2.589,2.589,0,0,1,2.039.922V5h2.266V17H99.016l-.109-.9a2.657,2.657,0,0,1-2.172,1.055A2.869,2.869,0,0,1,94.34,15.98,5.258,5.258,0,0,1,93.438,12.711Zm2.258.168a3.337,3.337,0,0,0,.414,1.823,1.349,1.349,0,0,0,1.2.634,1.511,1.511,0,0,0,1.477-.884V11.111a1.489,1.489,0,0,0-1.461-.884Q95.7,10.227,95.7,12.879Z" transform="translate(0 87)" fill="#12263f"/>
      <g id="Grupo_151277-2" data-name="Grupo 151277" transform="translate(61 21)">
        <ellipse id="Elipse_4775-2" data-name="Elipse 4775" cx="27.5" cy="27" rx="27.5" ry="27" fill="url(#linear-gradient)"/>
        <g id="PUSzgc.tif" transform="translate(8.917 8.288)">
          <g id="Grupo_151947" data-name="Grupo 151947" transform="translate(0 0)">
            <path id="Trazado_194443" data-name="Trazado 194443" d="M751.525,366.874l2.213,2.21c.41.41.815.826,1.234,1.226a.566.566,0,0,0,.344.161c1.245.011,2.491.007,3.738.007a5.815,5.815,0,0,1,.306-.637,2.273,2.273,0,0,1,2.361-1.12,2.335,2.335,0,0,1,1.956,1.7,1.071,1.071,0,0,0,.364.5c.859.6,1.733,1.177,2.613,1.746a1.067,1.067,0,0,0,.541.171c1.937.012,3.874,0,5.811.012a.432.432,0,0,0,.458-.26,1.735,1.735,0,0,1,1.969-.885,1.784,1.784,0,0,1,0,3.467,1.74,1.74,0,0,1-1.967-.892.431.431,0,0,0-.461-.256c-2.023.007-4.047.012-6.07-.006a1.5,1.5,0,0,1-.749-.229c-.874-.553-1.728-1.139-2.616-1.731a2.4,2.4,0,0,1-4.49-.4h-.646c-1.123,0-2.245-.01-3.368,0a.963.963,0,0,1-.752-.31c-1.136-1.15-2.282-2.289-3.425-3.432-.094-.094-.193-.185-.3-.29-.273.2-.528.385-.79.564a12.75,12.75,0,0,1-7.18,2.275c-.568.008-.761-.184-.761-.742q0-2.517,0-5.034c0-.5.126-.646.622-.739a.591.591,0,0,0-.007-1.18c-.489-.086-.618-.241-.618-.743q0-8.439,0-16.879c0-.542.195-.741.729-.737a12.861,12.861,0,0,1,7.671,2.6c.1.073.2.148.324.244.1-.093.2-.18.29-.273,1.143-1.142,2.29-2.281,3.425-3.432a1,1,0,0,1,.782-.328c1.331.014,2.663.006,3.989.006a2.411,2.411,0,0,1,4.515-.4c.861-.574,1.71-1.16,2.583-1.708a1.649,1.649,0,0,1,.816-.247c2.011-.02,4.022-.014,6.033-.006a.432.432,0,0,0,.457-.263,1.775,1.775,0,1,1,.011,1.721.461.461,0,0,0-.479-.287c-1.937.011-3.874,0-5.811.012a.929.929,0,0,0-.477.137q-1.379.9-2.738,1.825a.622.622,0,0,0-.265.325,2.379,2.379,0,0,1-4.585.2c-.014-.034-.031-.067-.059-.128-1.258,0-2.527,0-3.8,0a.354.354,0,0,0-.226.093c-1.182,1.171-2.36,2.347-3.525,3.51.527.641,1.035,1.254,1.537,1.872a2.032,2.032,0,0,1,.332.488c.2.49.549.574,1.043.562,1.529-.035,3.059-.019,4.589-.011a.736.736,0,0,0,.581-.236c1.188-1.2,2.39-2.391,3.578-3.593a1,1,0,0,1,.782-.328c.937.017,1.874.006,2.819.006a2.366,2.366,0,0,1,1.893-1.738,2.367,2.367,0,1,1,.506,4.7,2.277,2.277,0,0,1-2.291-1.536.309.309,0,0,0-.344-.24c-.765.009-1.53-.007-2.294.013a.718.718,0,0,0-.434.207q-1.818,1.794-3.614,3.61a1.006,1.006,0,0,1-.783.326c-1.542-.013-3.084-.006-4.626-.006h-.43l.645,1.779h2.541c2.467,0,4.935,0,7.4.005a.736.736,0,0,0,.579-.241c.978-.993,1.975-1.969,2.948-2.966a1.094,1.094,0,0,1,.881-.358c.826.021,1.653,0,2.48.01a.4.4,0,0,0,.434-.237,1.774,1.774,0,1,1,0,1.655.405.405,0,0,0-.433-.24c-.715.007-1.431.01-2.146,0a.722.722,0,0,0-.581.236c-1,1.011-2.007,2.006-3,3.017a.972.972,0,0,1-.752.31q-4.83-.011-9.66,0h-.412l.206,1.776c.376,0,.744.011,1.11-.008a.367.367,0,0,0,.231-.178,1.785,1.785,0,0,1,3.2-.025.54.54,0,0,0,.4.2c1.887.014,3.775.011,5.663.012,2.085,0,4.17,0,6.255,0a.423.423,0,0,0,.484-.309,2.363,2.363,0,1,1,2.742,3.191,2.31,2.31,0,0,1-2.693-1.3.584.584,0,0,0-.651-.406q-5.866.018-11.732,0a.526.526,0,0,0-.544.3,1.745,1.745,0,0,1-3.06-.023.449.449,0,0,0-.483-.281c-.3.021-.611.005-.911.005l-.329,2.372h.441c3.4,0,6.81.006,10.215-.008a1.23,1.23,0,0,1,.972.41c.77.8,1.559,1.581,2.356,2.354a.772.772,0,0,0,.475.2c.74.021,1.48,0,2.22.013a.405.405,0,0,0,.426-.252,1.776,1.776,0,1,1,.021,1.721.483.483,0,0,0-.514-.295c-.826.01-1.653-.01-2.479.009a1.021,1.021,0,0,1-.813-.343q-1.19-1.218-2.411-2.4a.8.8,0,0,0-.5-.211c-3.479-.011-6.958,0-10.437-.011a.393.393,0,0,0-.453.3c-.168.485-.384.954-.6,1.477h.558c1.591,0,3.183.01,4.774-.007a.972.972,0,0,1,.822.39q1.505,1.781,3.04,3.538a.7.7,0,0,0,.46.215c.937.02,1.875,0,2.813.016a.381.381,0,0,0,.39-.248,1.778,1.778,0,1,1,0,1.658.382.382,0,0,0-.4-.237c-1.049.01-2.1-.009-3.146.012a1,1,0,0,1-.857-.4q-1.492-1.767-3.014-3.509a.74.74,0,0,0-.489-.23c-1.789-.017-3.578-.008-5.366-.019a.536.536,0,0,0-.484.246C752.65,365.485,752.1,366.161,751.525,366.874Zm.341-2.285a11.617,11.617,0,0,0,2.369-6.532h-4.654c-.086.9-.136,1.784-.265,2.657s-.344,1.734-.5,2.6a.336.336,0,0,0,.173.271C749.923,363.925,750.864,364.244,751.867,364.589Zm-.025-14.318c-.609.239-1.173.482-1.754.678-.342.115-.628.229-.684.643a.682.682,0,0,1-.21.382c-.233.209-.189.438-.143.7.131.737.256,1.477.348,2.22.08.643.113,1.291.166,1.929h4.67A11.679,11.679,0,0,0,751.842,350.271Zm-3.435,7.794h-5.375c0,1.16,0,2.292.008,3.425,0,.092.1.193.177.273.279.3.562.6.853.887a.625.625,0,0,0,.3.2c.962.131,1.927.239,2.89.368.231.031.331-.027.377-.264.091-.47.249-.929.318-1.4C748.125,360.4,748.257,359.243,748.407,358.065Zm-.5-5.345a1.74,1.74,0,0,1-1.44-.6.609.609,0,0,0-.639-.222c-.513.058-1.028.1-1.543.147-.413.035-.826.06-1.231.089v4.7h5.34Zm-4.858-1.783c.807-.064,1.589-.144,2.372-.18.407-.019.67-.139.739-.573a.507.507,0,0,1,.189-.31c.509-.346.331-.719.076-1.111-.161-.248-.295-.513-.459-.758a5.619,5.619,0,0,0-2.14-2.043c-.243-.12-.508-.2-.778-.3Zm-.019,18.259c1.6-.279,3.757-2.811,4.1-4.821-.843-.1-1.684-.2-2.524-.313-.306-.04-.573-.069-.711.308a.688.688,0,0,1-.344.372c-.558.217-.554.653-.525,1.134.025.417.008.837.008,1.256C743.034,367.819,743.034,368.5,743.034,369.2Zm3.1-.572a10.457,10.457,0,0,0,4.846-3.092l-2.572-.888A12,12,0,0,1,746.131,368.624Zm4.907-19.3a11.461,11.461,0,0,0-4.868-3.061,12.747,12.747,0,0,1,1.724,2.751.3.3,0,0,0,.179.155,2.049,2.049,0,0,1,1.217.81Zm18.061-.767a1.181,1.181,0,0,0-.023-2.362,1.181,1.181,0,1,0,.023,2.362Zm-6.528-4.735a1.181,1.181,0,1,0-1.178,1.183A1.2,1.2,0,0,0,762.57,343.822Zm13.623,13.634A1.183,1.183,0,1,0,775,358.63,1.212,1.212,0,0,0,776.193,357.456Zm-13.623,13.606a1.207,1.207,0,0,0-1.188-1.174,1.181,1.181,0,1,0,.015,2.363A1.209,1.209,0,0,0,762.571,371.062Zm13.025-29.6a.587.587,0,1,0-.6.584A.618.618,0,0,0,775.6,341.458Zm-27.237,9.464a.589.589,0,1,0-.579.6A.616.616,0,0,0,748.359,350.922Zm25.469-.576a.588.588,0,1,0,.587.6A.615.615,0,0,0,773.828,350.346Zm-14.811,7.078a.589.589,0,1,0-.58.61A.625.625,0,0,0,759.017,357.424Zm15.4,6.528a.587.587,0,1,0-.586.6A.618.618,0,0,0,774.415,363.952Zm-5.333,4.158a.587.587,0,1,0-.6.583A.619.619,0,0,0,769.082,368.11ZM775,372.848a.59.59,0,1,0,.6.579A.616.616,0,0,0,775,372.848Z" transform="translate(-741.847 -339.67)" fill="#fff"/>
          </g>
        </g>
      </g>
    </g>
    <g id="Grupo_710372" data-name="Grupo 710372" transform="translate(606 8939.963)">
      <g transform="matrix(1, 0, 0, 1, -435, -6)" filter="url(#Rectángulo_44571-3)">
        <rect id="Rectángulo_44571-7" data-name="Rectángulo 44571" width="174" height="139" rx="10" transform="translate(436 6)" fill="#fff"/>
      </g>
      <path id="Trazado_468374" data-name="Trazado 468374" d="M34.492,14.656H30.383L29.6,17H27.109L31.344,5.625h2.172L37.773,17H35.281Zm-3.477-1.9h2.844L32.43,8.5ZM41.07,17H38.8V5H41.07Zm3.977-8.453.07.945a2.971,2.971,0,0,1,2.43-1.1A2.255,2.255,0,0,1,49.789,9.68a2.9,2.9,0,0,1,2.539-1.289,2.521,2.521,0,0,1,2.047.8,3.681,3.681,0,0,1,.672,2.41V17H52.781V11.609a1.61,1.61,0,0,0-.281-1.051,1.246,1.246,0,0,0-.992-.332A1.409,1.409,0,0,0,50.1,11.2l.008,5.8H47.852V11.617a1.59,1.59,0,0,0-.289-1.062,1.259,1.259,0,0,0-.984-.328,1.463,1.463,0,0,0-1.391.8V17H42.93V8.547ZM61.68,17a2.507,2.507,0,0,1-.227-.758,2.732,2.732,0,0,1-2.133.914,3,3,0,0,1-2.059-.719,2.312,2.312,0,0,1-.816-1.812,2.389,2.389,0,0,1,1-2.062,4.915,4.915,0,0,1,2.879-.727h1.039v-.484a1.393,1.393,0,0,0-.3-.937,1.183,1.183,0,0,0-.949-.352,1.345,1.345,0,0,0-.895.273.929.929,0,0,0-.324.75H56.633a2.268,2.268,0,0,1,.453-1.359,3,3,0,0,1,1.281-.98,4.669,4.669,0,0,1,1.859-.355,3.689,3.689,0,0,1,2.48.785,2.747,2.747,0,0,1,.918,2.207v3.664a4.041,4.041,0,0,0,.336,1.82V17Zm-1.867-1.57a1.945,1.945,0,0,0,.922-.223,1.462,1.462,0,0,0,.625-.6V13.156h-.844q-1.7,0-1.8,1.172l-.008.133a.9.9,0,0,0,.3.7A1.153,1.153,0,0,0,59.813,15.43Zm9.063-.094a1.481,1.481,0,0,0,1.016-.344,1.2,1.2,0,0,0,.406-.914h2.117a2.9,2.9,0,0,1-.469,1.574,3.093,3.093,0,0,1-1.262,1.109,3.949,3.949,0,0,1-1.77.395A3.67,3.67,0,0,1,66.055,16a4.56,4.56,0,0,1-1.047-3.184v-.148a4.508,4.508,0,0,1,1.039-3.117A3.627,3.627,0,0,1,68.9,8.391a3.555,3.555,0,0,1,2.543.9,3.2,3.2,0,0,1,.973,2.4H70.3a1.551,1.551,0,0,0-.406-1.072,1.51,1.51,0,0,0-2.223.163,3.333,3.333,0,0,0-.4,1.866v.235a3.375,3.375,0,0,0,.4,1.878A1.377,1.377,0,0,0,68.875,15.336Zm8.719,1.82a4.15,4.15,0,0,1-3.027-1.141A4.054,4.054,0,0,1,73.4,12.977v-.219a5.106,5.106,0,0,1,.492-2.277,3.612,3.612,0,0,1,1.395-1.547,3.914,3.914,0,0,1,2.059-.543,3.508,3.508,0,0,1,2.73,1.094,4.444,4.444,0,0,1,1,3.1v.922H75.688a2.1,2.1,0,0,0,.66,1.328,2,2,0,0,0,1.395.5,2.437,2.437,0,0,0,2.039-.945l1.109,1.242a3.389,3.389,0,0,1-1.375,1.121A4.511,4.511,0,0,1,77.594,17.156Zm-.258-6.945a1.411,1.411,0,0,0-1.09.455,2.357,2.357,0,0,0-.535,1.3h3.141v-.181a1.681,1.681,0,0,0-.406-1.165A1.456,1.456,0,0,0,77.336,10.211ZM84.43,8.547l.07.977a2.951,2.951,0,0,1,2.43-1.133,2.453,2.453,0,0,1,2,.789,3.682,3.682,0,0,1,.672,2.359V17H87.344V11.594a1.465,1.465,0,0,0-.312-1.043,1.4,1.4,0,0,0-1.039-.324,1.553,1.553,0,0,0-1.43.813V17H82.3V8.547ZM96.211,17a2.507,2.507,0,0,1-.227-.758,2.732,2.732,0,0,1-2.133.914,3,3,0,0,1-2.059-.719,2.312,2.312,0,0,1-.816-1.812,2.389,2.389,0,0,1,1-2.062,4.915,4.915,0,0,1,2.879-.727h1.039v-.484a1.393,1.393,0,0,0-.3-.937,1.183,1.183,0,0,0-.949-.352,1.345,1.345,0,0,0-.895.273.929.929,0,0,0-.324.75H91.164a2.268,2.268,0,0,1,.453-1.359,3,3,0,0,1,1.281-.98,4.669,4.669,0,0,1,1.859-.355,3.689,3.689,0,0,1,2.48.785,2.747,2.747,0,0,1,.918,2.207v3.664a4.041,4.041,0,0,0,.336,1.82V17Zm-1.867-1.57a1.945,1.945,0,0,0,.922-.223,1.462,1.462,0,0,0,.625-.6V13.156h-.844q-1.7,0-1.8,1.172l-.008.133a.9.9,0,0,0,.3.7A1.153,1.153,0,0,0,94.344,15.43Zm7.664-6.883.07.945a2.971,2.971,0,0,1,2.43-1.1A2.255,2.255,0,0,1,106.75,9.68a2.9,2.9,0,0,1,2.539-1.289,2.521,2.521,0,0,1,2.047.8,3.681,3.681,0,0,1,.672,2.41V17h-2.266V11.609a1.61,1.61,0,0,0-.281-1.051,1.246,1.246,0,0,0-.992-.332,1.409,1.409,0,0,0-1.406.969l.008,5.8h-2.258V11.617a1.59,1.59,0,0,0-.289-1.062,1.259,1.259,0,0,0-.984-.328,1.463,1.463,0,0,0-1.391.8V17H99.891V8.547ZM116.125,17h-2.266V8.547h2.266Zm-2.4-10.641a1.112,1.112,0,0,1,.34-.836,1.465,1.465,0,0,1,1.848,0,1.105,1.105,0,0,1,.344.836,1.108,1.108,0,0,1-.348.844,1.448,1.448,0,0,1-1.836,0A1.108,1.108,0,0,1,113.727,6.359Zm8.148,10.8a4.15,4.15,0,0,1-3.027-1.141,4.054,4.054,0,0,1-1.168-3.039v-.219a5.106,5.106,0,0,1,.492-2.277,3.612,3.612,0,0,1,1.395-1.547,3.914,3.914,0,0,1,2.059-.543,3.508,3.508,0,0,1,2.73,1.094,4.444,4.444,0,0,1,1,3.1v.922h-5.383a2.1,2.1,0,0,0,.66,1.328,2,2,0,0,0,1.395.5,2.437,2.437,0,0,0,2.039-.945l1.109,1.242a3.389,3.389,0,0,1-1.375,1.121A4.511,4.511,0,0,1,121.875,17.156Zm-.258-6.945a1.411,1.411,0,0,0-1.09.455,2.357,2.357,0,0,0-.535,1.3h3.141v-.181a1.681,1.681,0,0,0-.406-1.165A1.456,1.456,0,0,0,121.617,10.211Zm7.094-1.664.07.977a2.951,2.951,0,0,1,2.43-1.133,2.453,2.453,0,0,1,2,.789,3.682,3.682,0,0,1,.672,2.359V17h-2.258V11.594a1.465,1.465,0,0,0-.312-1.043,1.4,1.4,0,0,0-1.039-.324,1.553,1.553,0,0,0-1.43.813V17h-2.258V8.547ZM138.3,6.469V8.547h1.445V10.2H138.3v4.219a1.007,1.007,0,0,0,.18.672.9.9,0,0,0,.688.2,3.6,3.6,0,0,0,.664-.055v1.711a4.648,4.648,0,0,1-1.367.2,2.156,2.156,0,0,1-2.422-2.4V10.2H134.8V8.547h1.234V6.469Zm2.117,6.227a5.013,5.013,0,0,1,.484-2.242,3.546,3.546,0,0,1,1.395-1.523,4.069,4.069,0,0,1,2.113-.539A3.849,3.849,0,0,1,147.2,9.438a4.2,4.2,0,0,1,1.207,2.844l.016.578a4.418,4.418,0,0,1-1.086,3.121,4.209,4.209,0,0,1-5.832,0,4.5,4.5,0,0,1-1.09-3.187Zm2.258.16a3.16,3.16,0,0,0,.453,1.843,1.628,1.628,0,0,0,2.578.008,3.457,3.457,0,0,0,.461-2.015,3.128,3.128,0,0,0-.461-1.831,1.5,1.5,0,0,0-1.3-.649,1.474,1.474,0,0,0-1.281.646A3.516,3.516,0,0,0,142.672,12.856Z" transform="translate(0 87)" fill="#12263f"/>
      <g id="Grupo_151277-3" data-name="Grupo 151277" transform="translate(61 21)">
        <ellipse id="Elipse_4775-3" data-name="Elipse 4775" cx="27.5" cy="27" rx="27.5" ry="27" fill="url(#linear-gradient)"/>
        <g id="_6f03q8" data-name="6f03q8" transform="translate(-702.55 -199.899)">
          <g id="Grupo_151946" data-name="Grupo 151946" transform="translate(714.551 211.899)">
            <path id="Trazado_194429" data-name="Trazado 194429" d="M758.809,291.081c0,2.394-.018,4.789.01,7.183.01.838-.29,1.182-1.16,1.176q-6.474-.041-12.948,0c-.884.006-1.168-.39-1.166-1.2q.014-7.136,0-14.272c0-.875.327-1.232,1.234-1.225,4.253.031,8.506.01,12.759.016,1.171,0,1.272.117,1.274,1.325Q758.813,287.584,758.809,291.081Zm-13.955-1.871v3.954h12.69V289.21Zm12.679-1.336v-3.9H744.857v3.9Zm-12.679,6.64v3.649h12.668v-3.649Z" transform="translate(-738.054 -269.337)" fill="#fff"/>
            <path id="Trazado_194430" data-name="Trazado 194430" d="M744.554,227.78l-.821-.581a14.977,14.977,0,0,0,.686-2.739,5.381,5.381,0,0,0-4.878-6,51.923,51.923,0,0,0-6.068-.044l-.109.992-1.033.048a6.655,6.655,0,0,0-4.183-5.89,5.978,5.978,0,0,0-4.514-.026c-3.468,1.337-4.879,4.739-3.58,8.747l-.981.566-.588-1.269a3.212,3.212,0,0,0-2.692,2.9c-.138,2.052.636,2.986,3.342,4.01v1.16a12.709,12.709,0,0,1-2.247-.756,4.622,4.622,0,0,1,.643-8.336c.554-.207.778-.418.783-1.043a7.547,7.547,0,0,1,14.423-3.158,1.219,1.219,0,0,0,1.332.858c1.8-.042,3.6-.1,5.388.023A6.369,6.369,0,0,1,745,221.073,6.634,6.634,0,0,1,744.554,227.78Z" transform="translate(-714.551 -211.899)" fill="#fff"/>
            <path id="Trazado_194431" data-name="Trazado 194431" d="M829.837,285.51l-1.934,2.155-.938-1.135c.842-.793,1.651-1.629,2.552-2.351a1.145,1.145,0,0,1,1.106.049c1.449,1.354,2.844,2.767,4.219,4.2a1.069,1.069,0,0,1,.261.906c-.085.219-.519.35-.822.425a5.713,5.713,0,0,1-1.049.064l-.1,1.881h-1.11v-3.059l.883-.079Z" transform="translate(-805.688 -270.402)" fill="#fff"/>
            <path id="Trazado_194432" data-name="Trazado 194432" d="M835.917,319.376h1.1c0,.373,0,.708,0,1.043C835.867,320.7,835.777,320.625,835.917,319.376Z" transform="translate(-812.906 -299.034)" fill="#fff"/>
            <path id="Trazado_194433" data-name="Trazado 194433" d="M835.868,333.346h1.086v1.092C835.719,334.611,835.695,334.587,835.868,333.346Z" transform="translate(-812.844 -310.36)" fill="#fff"/>
            <path id="Trazado_194434" data-name="Trazado 194434" d="M854.845,334.267c-.176.025-.3.051-.417.056-.185.008-.371,0-.629,0V333.14l1.046-.048Z" transform="translate(-827.444 -310.154)" fill="#fff"/>
            <path id="Trazado_194435" data-name="Trazado 194435" d="M835.866,347.245h1.1v1.092C835.77,348.555,835.737,348.525,835.866,347.245Z" transform="translate(-812.864 -321.628)" fill="#fff"/>
            <path id="Trazado_194436" data-name="Trazado 194436" d="M853.746,347.194h1.072v1.167l-1.072.053Z" transform="translate(-827.401 -321.587)" fill="#fff"/>
            <path id="Trazado_194437" data-name="Trazado 194437" d="M836.834,362.553c-1.017.251-1.352-.1-1.1-1.083h1.1Z" transform="translate(-812.731 -333.161)" fill="#fff"/>
            <path id="Trazado_194438" data-name="Trazado 194438" d="M853.581,362.531v-1.184h1.1v1.132Z" transform="translate(-827.267 -333.062)" fill="#fff"/>
            <path id="Trazado_194439" data-name="Trazado 194439" d="M763.067,353.513v-1.128h-1.214v1.128Zm2.243-1.159.051,1.146h1.192v-1.146Zm4.715.028h-1.176V353.5h1.176Z" transform="translate(-752.9 -325.77)" fill="#fff"/>
            <path id="Trazado_194440" data-name="Trazado 194440" d="M763.067,353.642h-1.214v-1.128h1.214Z" transform="translate(-752.9 -325.9)" fill="#fff"/>
            <path id="Trazado_194441" data-name="Trazado 194441" d="M780.117,352.354h1.243V353.5h-1.192Z" transform="translate(-767.707 -325.77)" fill="#fff"/>
            <path id="Trazado_194442" data-name="Trazado 194442" d="M799.995,352.5v1.122h-1.176V352.5Z" transform="translate(-782.87 -325.892)" fill="#fff"/>
          </g>
        </g>
      </g>
    </g>
    <g id="Grupo_710373" data-name="Grupo 710373" transform="translate(824 8939.963)">
      <g transform="matrix(1, 0, 0, 1, -653, -6)" filter="url(#Rectángulo_44571-4)">
        <rect id="Rectángulo_44571-8" data-name="Rectángulo 44571" width="174" height="139" rx="10" transform="translate(654 6)" fill="#fff"/>
      </g>
      <path id="Trazado_468375" data-name="Trazado 468375" d="M47.488,13.211A4.025,4.025,0,0,1,46.133,16.1a4.76,4.76,0,0,1-3.223,1.055,4.28,4.28,0,0,1-3.441-1.473,6.038,6.038,0,0,1-1.254-4.043v-.7a6.819,6.819,0,0,1,.578-2.891,4.332,4.332,0,0,1,1.652-1.918,5.164,5.164,0,0,1,5.668.387A4.326,4.326,0,0,1,47.5,9.484H45.16a2.376,2.376,0,0,0-.613-1.6,2.271,2.271,0,0,0-1.605-.5,1.991,1.991,0,0,0-1.754.84,4.707,4.707,0,0,0-.6,2.605V11.7a5.038,5.038,0,0,0,.559,2.7,1.954,1.954,0,0,0,1.762.852,2.314,2.314,0,0,0,1.621-.5,2.241,2.241,0,0,0,.613-1.535Zm1.039-.516a5.013,5.013,0,0,1,.484-2.242A3.546,3.546,0,0,1,50.406,8.93a4.069,4.069,0,0,1,2.113-.539,3.849,3.849,0,0,1,2.793,1.047,4.2,4.2,0,0,1,1.207,2.844l.016.578a4.418,4.418,0,0,1-1.086,3.121,4.209,4.209,0,0,1-5.832,0,4.5,4.5,0,0,1-1.09-3.187Zm2.258.16a3.16,3.16,0,0,0,.453,1.843,1.628,1.628,0,0,0,2.578.008,3.457,3.457,0,0,0,.461-2.015,3.128,3.128,0,0,0-.461-1.831,1.5,1.5,0,0,0-1.3-.649,1.474,1.474,0,0,0-1.281.646A3.516,3.516,0,0,0,50.785,12.856ZM60,8.547l.07.977A2.951,2.951,0,0,1,62.5,8.391a2.453,2.453,0,0,1,2,.789,3.682,3.682,0,0,1,.672,2.359V17H62.918V11.594a1.465,1.465,0,0,0-.312-1.043,1.4,1.4,0,0,0-1.039-.324,1.553,1.553,0,0,0-1.43.813V17H57.879V8.547ZM69.59,6.469V8.547h1.445V10.2H69.59v4.219a1.007,1.007,0,0,0,.18.672.9.9,0,0,0,.688.2,3.6,3.6,0,0,0,.664-.055v1.711a4.648,4.648,0,0,1-1.367.2,2.156,2.156,0,0,1-2.422-2.4V10.2H66.1V8.547h1.234V6.469Zm6.594,10.688a4.15,4.15,0,0,1-3.027-1.141,4.054,4.054,0,0,1-1.168-3.039v-.219a5.106,5.106,0,0,1,.492-2.277,3.612,3.612,0,0,1,1.395-1.547,3.914,3.914,0,0,1,2.059-.543,3.508,3.508,0,0,1,2.73,1.094,4.444,4.444,0,0,1,1,3.1v.922H74.277a2.1,2.1,0,0,0,.66,1.328,2,2,0,0,0,1.395.5,2.437,2.437,0,0,0,2.039-.945l1.109,1.242a3.389,3.389,0,0,1-1.375,1.121A4.511,4.511,0,0,1,76.184,17.156Zm-.258-6.945a1.411,1.411,0,0,0-1.09.455,2.357,2.357,0,0,0-.535,1.3h3.141v-.181a1.681,1.681,0,0,0-.406-1.165A1.456,1.456,0,0,0,75.926,10.211ZM83.02,8.547l.07.977a2.951,2.951,0,0,1,2.43-1.133,2.453,2.453,0,0,1,2,.789,3.682,3.682,0,0,1,.672,2.359V17H85.934V11.594a1.465,1.465,0,0,0-.312-1.043,1.4,1.4,0,0,0-1.039-.324,1.553,1.553,0,0,0-1.43.813V17H80.895V8.547Zm10.773,8.609a4.15,4.15,0,0,1-3.027-1.141A4.054,4.054,0,0,1,89.6,12.977v-.219a5.106,5.106,0,0,1,.492-2.277,3.612,3.612,0,0,1,1.395-1.547,3.914,3.914,0,0,1,2.059-.543,3.508,3.508,0,0,1,2.73,1.094,4.444,4.444,0,0,1,1,3.1v.922H91.887a2.1,2.1,0,0,0,.66,1.328,2,2,0,0,0,1.395.5,2.437,2.437,0,0,0,2.039-.945l1.109,1.242a3.389,3.389,0,0,1-1.375,1.121A4.511,4.511,0,0,1,93.793,17.156Zm-.258-6.945a1.411,1.411,0,0,0-1.09.455,2.357,2.357,0,0,0-.535,1.3h3.141v-.181a1.681,1.681,0,0,0-.406-1.165A1.456,1.456,0,0,0,93.535,10.211Zm4.664,2.5a5.094,5.094,0,0,1,.887-3.148,2.877,2.877,0,0,1,2.426-1.172,2.589,2.589,0,0,1,2.039.922V5h2.266V17h-2.039l-.109-.9a2.657,2.657,0,0,1-2.172,1.055A2.869,2.869,0,0,1,99.1,15.98,5.258,5.258,0,0,1,98.2,12.711Zm2.258.168a3.337,3.337,0,0,0,.414,1.823,1.349,1.349,0,0,0,1.2.634,1.511,1.511,0,0,0,1.477-.884V11.111a1.489,1.489,0,0,0-1.461-.884Q100.457,10.227,100.457,12.879Zm6.758-.184a5.013,5.013,0,0,1,.484-2.242,3.546,3.546,0,0,1,1.395-1.523,4.069,4.069,0,0,1,2.113-.539A3.849,3.849,0,0,1,114,9.438a4.2,4.2,0,0,1,1.207,2.844l.016.578a4.418,4.418,0,0,1-1.086,3.121,4.209,4.209,0,0,1-5.832,0,4.5,4.5,0,0,1-1.09-3.187Zm2.258.16a3.16,3.16,0,0,0,.453,1.843,1.628,1.628,0,0,0,2.578.008,3.457,3.457,0,0,0,.461-2.015,3.128,3.128,0,0,0-.461-1.831,1.5,1.5,0,0,0-1.3-.649,1.474,1.474,0,0,0-1.281.646A3.516,3.516,0,0,0,109.473,12.856Zm11.891-2.192a6.134,6.134,0,0,0-.812-.062,1.654,1.654,0,0,0-1.68.867V17h-2.258V8.547h2.133l.063,1.008a2.092,2.092,0,0,1,1.883-1.164,2.366,2.366,0,0,1,.7.1Zm4.977,6.492a4.15,4.15,0,0,1-3.027-1.141,4.054,4.054,0,0,1-1.168-3.039v-.219a5.106,5.106,0,0,1,.492-2.277,3.612,3.612,0,0,1,1.395-1.547,3.914,3.914,0,0,1,2.059-.543,3.508,3.508,0,0,1,2.73,1.094,4.444,4.444,0,0,1,1,3.1v.922h-5.383a2.1,2.1,0,0,0,.66,1.328,2,2,0,0,0,1.395.5,2.437,2.437,0,0,0,2.039-.945l1.109,1.242a3.389,3.389,0,0,1-1.375,1.121A4.511,4.511,0,0,1,126.34,17.156Zm-.258-6.945a1.411,1.411,0,0,0-1.09.455,2.357,2.357,0,0,0-.535,1.3H127.6v-.181a1.681,1.681,0,0,0-.406-1.165A1.456,1.456,0,0,0,126.082,10.211Zm9.594,4.453a.727.727,0,0,0-.41-.652,4.659,4.659,0,0,0-1.316-.426q-3.016-.633-3.016-2.562a2.323,2.323,0,0,1,.934-1.879,3.766,3.766,0,0,1,2.441-.754,4.053,4.053,0,0,1,2.574.758,2.388,2.388,0,0,1,.965,1.969H135.59a1.092,1.092,0,0,0-.312-.8A1.322,1.322,0,0,0,134.3,10a1.351,1.351,0,0,0-.883.258.814.814,0,0,0-.312.656.7.7,0,0,0,.355.605,3.657,3.657,0,0,0,1.2.4,9.8,9.8,0,0,1,1.422.379,2.336,2.336,0,0,1,1.789,2.273,2.205,2.205,0,0,1-.992,1.871,4.28,4.28,0,0,1-2.562.715,4.47,4.47,0,0,1-1.887-.379,3.166,3.166,0,0,1-1.293-1.039,2.414,2.414,0,0,1-.469-1.426h2.141a1.179,1.179,0,0,0,.445.922,1.766,1.766,0,0,0,1.109.32,1.635,1.635,0,0,0,.98-.246A.766.766,0,0,0,135.676,14.664Z" transform="translate(0 87)" fill="#12263f"/>
      <g id="Grupo_151277-4" data-name="Grupo 151277" transform="translate(61 21)">
        <ellipse id="Elipse_4775-4" data-name="Elipse 4775" cx="27.5" cy="27" rx="27.5" ry="27" fill="url(#linear-gradient)"/>
        <g id="NfefVv" transform="translate(-151.901 50.551)">
          <g id="Grupo_145853" data-name="Grupo 145853" transform="translate(167.901 -41.551)">
            <path id="Trazado_189394" data-name="Trazado 189394" d="M188.849,365.535c0,.466.006.933,0,1.4a.3.3,0,0,0,.178.31c.817.463,1.627.938,2.443,1.4a.482.482,0,0,1,.269.46q0,1.593,0,3.186a.465.465,0,0,1-.272.434c-.791.45-1.573.915-2.367,1.359a.414.414,0,0,0-.252.422c.012.9,0,1.807.008,2.71a.52.52,0,0,1-.286.514c-.924.523-1.841,1.059-2.761,1.589a.373.373,0,0,1-.41,0c-.842-.489-1.691-.967-2.533-1.456a.273.273,0,0,0-.317,0c-.811.474-1.628.936-2.436,1.413a.516.516,0,0,1-.587,0c-.8-.473-1.613-.931-2.417-1.4a.289.289,0,0,0-.337,0c-.809.475-1.625.938-2.434,1.413a.49.49,0,0,1-.55.011c-.9-.525-1.8-1.048-2.7-1.56a.519.519,0,0,1-.294-.509c.007-.925,0-1.85.007-2.775a.323.323,0,0,0-.187-.327c-.816-.464-1.625-.941-2.442-1.4a.474.474,0,0,1-.261-.461c0-1.023.008-2.047,0-3.07a.578.578,0,0,1,.329-.579c.776-.432,1.536-.892,2.313-1.322a.43.43,0,0,0,.251-.446c-.011-.9,0-1.792-.006-2.688a.536.536,0,0,1,.3-.527c.837-.467,1.668-.946,2.5-1.42a.891.891,0,0,0,.148-.093.433.433,0,0,1,.56-.031c.805.466,1.618.918,2.421,1.389a.368.368,0,0,0,.433,0c.771-.456,1.552-.893,2.321-1.352a.6.6,0,0,1,.687,0c.788.469,1.588.919,2.379,1.382a.273.273,0,0,0,.316.005c.768-.444,1.548-.869,2.308-1.325a.7.7,0,0,1,.849,0c.813.508,1.656.969,2.5,1.432a.585.585,0,0,1,.342.6c-.016.444,0,.889,0,1.333Zm-14.42,12.812c.1-.053.17-.087.237-.125.574-.331,1.144-.667,1.722-.99a.3.3,0,0,0,.178-.31c-.007-.663,0-1.325,0-1.988,0-.077-.008-.153-.013-.237a.466.466,0,0,0-.088.024c-.643.37-1.287.738-1.925,1.117a.285.285,0,0,0-.1.21c-.01.429,0,.859,0,1.289Zm2.134-13.676c-.716.414-1.384.8-2.045,1.19a.3.3,0,0,0-.084.22c-.007.59,0,1.179,0,1.769v.48a.425.425,0,0,0,.091-.02c.643-.37,1.288-.737,1.926-1.116a.314.314,0,0,0,.112-.229c.012-.342.005-.684.005-1.026Zm-.048,8.669c.026-.037.04-.049.041-.06.009-.755.019-1.511.018-2.266a.258.258,0,0,0-.118-.181c-.483-.283-.971-.556-1.458-.832l-.568-.319c0,.813,0,1.584,0,2.354a.212.212,0,0,0,.093.151C175.185,372.573,175.847,372.954,176.516,373.34Zm-1.706-4.324c.659.389,1.281.749,1.9,1.121a.429.429,0,0,0,.5-.023c.56-.338,1.126-.664,1.69-1,.047-.028.09-.063.155-.109-.689-.4-1.355-.785-2.025-1.165a.213.213,0,0,0-.178,0C176.176,368.224,175.51,368.611,174.809,369.016Zm10,.019a.455.455,0,0,0-.065-.067c-.642-.372-1.282-.746-1.929-1.107a.309.309,0,0,0-.251.015c-.32.171-.633.358-.947.54l-1.035.6c.1.059.161.1.228.142.578.335,1.16.662,1.731,1.009a.273.273,0,0,0,.332.009c.435-.264.873-.522,1.312-.78C184.388,369.275,184.595,369.159,184.808,369.036Zm-5.345.613c-.741.433-1.418.825-2.089,1.227a.269.269,0,0,0-.08.2c0,.647.011,1.294.018,1.941,0,.1,0,.2,0,.327.08-.039.132-.06.18-.088.587-.337,1.169-.683,1.762-1.009a.359.359,0,0,0,.2-.367c0-.32,0-.639,0-.959C179.464,370.518,179.464,370.114,179.464,369.648Zm4-5.627c.094.058.159.1.226.138.44.255.9.478,1.316.773a.874.874,0,0,0,1.16,0c.479-.337,1.01-.6,1.524-.9-.025-.031-.035-.054-.052-.064-.659-.382-1.318-.764-1.98-1.14a.208.208,0,0,0-.172.01c-.235.13-.463.271-.7.406C184.357,363.5,183.924,363.754,183.463,364.021Zm-11.542,0c.7.408,1.369.8,2.041,1.175a.294.294,0,0,0,.235-.033c.6-.336,1.187-.68,1.779-1.023.058-.034.111-.074.192-.129-.7-.4-1.362-.788-2.032-1.166a.245.245,0,0,0-.2.013c-.231.121-.455.254-.68.385Zm5.767,9.992c.7.408,1.364.793,2.03,1.167a.282.282,0,0,0,.232-.018c.628-.353,1.251-.715,1.875-1.076a.67.67,0,0,0,.1-.091c-.66-.381-1.305-.747-1.943-1.126a.279.279,0,0,0-.335.007c-.317.194-.641.374-.962.56Zm-5.769,0c.715.414,1.386.805,2.063,1.187a.246.246,0,0,0,.193-.033c.582-.33,1.161-.666,1.741-1,.078-.045.154-.094.258-.158-.708-.409-1.381-.8-2.056-1.183a.164.164,0,0,0-.138,0C173.306,373.214,172.633,373.6,171.919,374.016Zm1.346-4.98c-.027-.033-.037-.054-.054-.064-.648-.375-1.295-.753-1.948-1.119a.291.291,0,0,0-.233.019c-.239.124-.468.265-.7.4l-1.266.733c.027.033.038.054.055.064.648.376,1.295.753,1.948,1.12a.287.287,0,0,0,.234-.019c.345-.188.682-.388,1.022-.585Zm17.339-.016c-.708-.409-1.373-.8-2.045-1.174a.293.293,0,0,0-.234.032c-.5.281-1,.57-1.494.858-.152.088-.3.181-.482.289.64.369,1.251.705,1.844,1.072a.462.462,0,0,0,.566,0C189.351,369.729,189.961,369.391,190.6,369.02Zm-7.146,5c.709.41,1.375.8,2.046,1.177a.261.261,0,0,0,.212-.025c.614-.348,1.224-.7,1.835-1.057.046-.027.088-.062.149-.105-.534-.309-1.066-.572-1.546-.91a.866.866,0,0,0-1.14,0C184.533,373.435,184,373.7,183.458,374.017Zm-1.542-9.976c-.019-.029-.024-.046-.035-.052-.654-.379-1.306-.761-1.965-1.132a.293.293,0,0,0-.235.021c-.251.132-.493.28-.738.422l-1.228.711c.031.034.042.054.06.064.642.371,1.282.745,1.93,1.106a.333.333,0,0,0,.272-.019c.408-.223.808-.461,1.211-.695Zm.389,9.309a1.434,1.434,0,0,0,.02-.151c.006-.717.016-1.434.011-2.151a.329.329,0,0,0-.141-.232c-.376-.232-.762-.45-1.147-.668-.269-.152-.544-.3-.855-.466,0,.678.028,1.321-.01,1.96a.673.673,0,0,0,.483.766,2.647,2.647,0,0,1,.359.205Zm2.9-3.677c-.714.412-1.382.793-2.042,1.186a.314.314,0,0,0-.1.236c0,.6.01,1.206.017,1.809,0,.135,0,.27,0,.449.121-.065.2-.106.281-.152a12.535,12.535,0,0,1,1.213-.686.917.917,0,0,0,.638-1.12,3.747,3.747,0,0,1-.006-.653Zm-7.894,5c0,.823,0,1.594.007,2.364,0,.063.085.144.15.183.519.308,1.043.608,1.566.909.123.071.247.141.395.224,0-.093.01-.15.01-.207,0-.531-.037-1.067.013-1.593a.86.86,0,0,0-.568-.989C178.356,375.317,177.864,374.988,177.314,374.671Zm-5.771,0c0,.822,0,1.592.006,2.361a.269.269,0,0,0,.13.173c.336.2.677.4,1.017.592l.939.537c.019-.036.032-.048.032-.061,0-.756.006-1.513,0-2.269a.268.268,0,0,0-.122-.179c-.221-.14-.45-.266-.677-.4Zm-2.862-4.984a.839.839,0,0,0-.02.112c0,.735-.005,1.47,0,2.2a.307.307,0,0,0,.139.212c.506.3,1.019.591,1.529.885l.453.261c0-.817,0-1.587-.007-2.357,0-.064-.083-.146-.148-.186-.329-.2-.664-.39-1-.583Zm4.991,0c-.083.043-.134.067-.183.095-.592.341-1.182.687-1.778,1.022a.284.284,0,0,0-.171.289c.008.691,0,1.383,0,2.074,0,.053.012.106.021.187.692-.4,1.359-.781,2.02-1.175a.3.3,0,0,0,.083-.223c.007-.626,0-1.252,0-1.878Zm3.664-4.978a.388.388,0,0,0-.021.078c0,.742-.006,1.484,0,2.227a.307.307,0,0,0,.142.209c.613.363,1.231.717,1.849,1.072a.844.844,0,0,0,.133.046c0-.793,0-1.563-.007-2.333,0-.063-.085-.146-.15-.185-.589-.347-1.182-.686-1.774-1.027C177.457,364.76,177.4,364.736,177.336,364.706Zm-3.69,3.642a.781.781,0,0,0,.025-.126c0-.728.006-1.457,0-2.185a.31.31,0,0,0-.142-.213c-.607-.36-1.22-.71-1.832-1.062a1.019,1.019,0,0,0-.148-.054c0,.789,0,1.553.006,2.317a.288.288,0,0,0,.137.191c.386.234.778.457,1.169.682C173.113,368.046,173.371,368.191,173.646,368.348Zm14.447,6.332c-.088.045-.134.066-.176.09-.591.342-1.179.69-1.776,1.022a.3.3,0,0,0-.179.308c.005.684,0,1.367,0,2.051,0,.055.01.11.017.187.07-.035.121-.059.169-.087.46-.265.9-.567,1.383-.785a.858.858,0,0,0,.57-.987C188.054,375.9,188.093,375.306,188.093,374.681Zm-2.126-6.347a.534.534,0,0,0,.1-.025c.637-.366,1.276-.73,1.907-1.107a.331.331,0,0,0,.118-.245c.009-.692.005-1.384,0-2.076,0-.054-.01-.108-.019-.192-.691.4-1.357.782-2.021,1.171a.191.191,0,0,0-.082.137C185.965,366.768,185.966,367.54,185.966,368.334Zm-2.883-3.654c0,.822,0,1.593.006,2.365,0,.059.074.136.134.171.6.351,1.2.694,1.8,1.039.052.03.108.054.19.094,0-.6-.044-1.176.013-1.738a.926.926,0,0,0-.62-1.072C184.089,365.3,183.616,364.986,183.083,364.68Zm-2.887,3.687c.718-.414,1.386-.794,2.046-1.187.053-.032.079-.148.08-.225.006-.683,0-1.367,0-2.05,0-.061-.009-.123-.015-.192a.38.38,0,0,0-.079.021c-.642.369-1.286.736-1.923,1.114a.31.31,0,0,0-.108.229c-.01.436-.005.872-.005,1.309C180.2,367.7,180.2,368.006,180.2,368.367Zm7.874,4.981a.655.655,0,0,0,.023-.107c0-.734,0-1.469-.006-2.2a.3.3,0,0,0-.135-.212c-.429-.259-.866-.5-1.3-.755l-.686-.4c0,.82,0,1.589.006,2.358a.27.27,0,0,0,.128.176c.253.157.514.3.772.45Zm-7.857,4.966c.028,0,.045.005.055,0,.649-.372,1.3-.742,1.943-1.124a.308.308,0,0,0,.11-.229c.008-.705,0-1.411,0-2.116a1.182,1.182,0,0,0-.025-.16c-.69.4-1.357.78-2.019,1.171a.24.24,0,0,0-.081.18c-.006.72,0,1.44,0,2.16A.825.825,0,0,0,180.213,378.313Zm4.966.024a.4.4,0,0,0,.027-.084c0-.743.007-1.486,0-2.229a.308.308,0,0,0-.144-.208c-.569-.339-1.144-.668-1.717-1-.073-.042-.15-.079-.231-.122a.322.322,0,0,0-.027.078c0,.743-.005,1.486,0,2.229a.311.311,0,0,0,.142.209c.322.2.652.384.98.573S184.851,378.15,185.179,378.337Zm3.671-4.994c.076-.034.123-.051.165-.075.611-.351,1.224-.7,1.828-1.06a.353.353,0,0,0,.129-.261c.011-.69.006-1.381.005-2.072a1.616,1.616,0,0,0-.018-.168.418.418,0,0,0-.078.023c-.636.366-1.274.728-1.9,1.1a.332.332,0,0,0-.122.244c-.011.567-.006,1.134-.006,1.7Z" transform="translate(-167.901 -344.354)" fill="#fff"/>
            <path id="Trazado_189395" data-name="Trazado 189395" d="M330.637-26.6c.346-.316.7-.652,1.07-.967a.572.572,0,0,1,.382-.137.378.378,0,0,1,.266.235.5.5,0,0,1-.1.389c-.379.423-.782.824-1.176,1.233-.167.173-.332.347-.5.519a.4.4,0,0,1-.643.008q-.845-.869-1.684-1.745a.378.378,0,0,1-.019-.563.4.4,0,0,1,.564.047c.361.337.727.668,1.075.988,0,0,.007-.072.007-.14,0-1.093,0-2.186,0-3.278a.286.286,0,0,0-.167-.29c-1.382-.791-2.756-1.6-4.141-2.381a.627.627,0,0,1-.36-.627c.012-1.683.009-3.366,0-5.049a.538.538,0,0,1,.3-.529q2.246-1.285,4.482-2.586a.461.461,0,0,1,.51,0q2.257,1.309,4.52,2.609a.49.49,0,0,1,.262.482c-.005,1.712-.008,3.424,0,5.136a.552.552,0,0,1-.316.541q-2.093,1.2-4.176,2.412a.327.327,0,0,0-.157.22c-.01,1.158-.007,2.317-.006,3.475C330.638-26.58,330.648-26.56,330.637-26.6Zm3.5-11.882a.61.61,0,0,0-.078-.07c-1.227-.71-2.454-1.422-3.686-2.124a.325.325,0,0,0-.27.016c-1.187.678-2.37,1.364-3.553,2.049-.057.033-.113.07-.189.117.064.041.093.061.124.079,1.209.7,2.42,1.4,3.625,2.1a.272.272,0,0,0,.316-.019q1.094-.636,2.191-1.267Zm-8.134.666c-.019.033-.031.045-.031.057q0,2.162,0,4.323a.215.215,0,0,0,.088.154q.519.321,1.048.626c.628.362,1.259.719,1.889,1.078l.864.49a1.288,1.288,0,0,0,.018-.134c.007-.566.018-1.131.017-1.7,0-.822-.016-1.644-.015-2.466a.308.308,0,0,0-.18-.308c-1.061-.606-2.117-1.22-3.175-1.831C326.356-37.622,326.18-37.718,326.005-37.815Zm8.533-.01c-.085.042-.137.064-.185.092q-1.787,1.03-3.574,2.058a.26.26,0,0,0-.149.259c0,1.126-.005,2.252-.009,3.377,0,.307,0,.613,0,.938a.74.74,0,0,0,.114-.032q1.84-1.062,3.676-2.13a.3.3,0,0,0,.121-.22c.011-.488.006-.976.006-1.463Z" transform="translate(-318.338 41.551)" fill="#fff"/>
          </g>
        </g>
      </g>
    </g>
  </g>
</svg>
