<svg id="Grupo_151277" data-name="Grupo 151277" xmlns="http://www.w3.org/2000/svg" xmlns:xlink="http://www.w3.org/1999/xlink" width="55" height="54" viewBox="0 0 55 54">
  <defs>
    <linearGradient id="linear-gradient" x1="0.5" x2="0.5" y2="1" gradientUnits="objectBoundingBox">
      <stop offset="0" stop-color="#039be5"/>
      <stop offset="1" stop-color="#027fbc"/>
    </linearGradient>
  </defs>
  <ellipse id="Elipse_4775" data-name="Elipse 4775" cx="27.5" cy="27" rx="27.5" ry="27" fill="url(#linear-gradient)"/>
  <g id="Hi6H32.tif" transform="translate(-4223.086 -491.735)">
    <g id="Grupo_143033" data-name="Grupo 143033" transform="translate(4236.086 503.735)">
      <path id="Trazado_184074" data-name="Trazado 184074" d="M4475.8,509.281c-.342.329-.678.664-1.027.986a.973.973,0,0,0-.028,1.267c.246.234.488.474.738.7a.549.549,0,0,1,.148.689c-.215.485-.433.968-.646,1.454a.516.516,0,0,1-.554.337,5.605,5.605,0,0,1-.73-.056,1,1,0,0,0-1.066.364.643.643,0,0,0-.2.5c.028.338.029.679.04,1.019a.553.553,0,0,1-.391.588q-.745.279-1.483.571a.533.533,0,0,1-.654-.176,7.925,7.925,0,0,1-.534-.633.882.882,0,0,0-.832-.4.74.74,0,0,0-.634.264c-.207.255-.451.479-.676.719a.527.527,0,0,1-.64.128c-.5-.214-.987-.44-1.482-.658a.516.516,0,0,1-.329-.56c.028-.381.061-.762.079-1.144a1.053,1.053,0,0,0-.831-.841c-.34.009-.679.02-1.019.037a.593.593,0,0,1-.658-.429c-.171-.479-.36-.952-.548-1.425a.546.546,0,0,1,.176-.681,4.529,4.529,0,0,1,.536-.449.983.983,0,0,0,.481-1.077.68.68,0,0,0-.152-.354c-.247-.263-.513-.508-.78-.751a.562.562,0,0,1-.152-.715c.214-.473.427-.948.632-1.425a.528.528,0,0,1,.578-.35c.36.028.72.057,1.081.077a1,1,0,0,0,.9-.868c-.01-.329-.02-.658-.037-.987a.591.591,0,0,1,.435-.653c.516-.19,1.021-.407,1.531-.613h.254c.336.35.676.695,1,1.05a1.006,1.006,0,0,0,1.224.032c.242-.253.488-.5.724-.761a.56.56,0,0,1,.716-.142c.463.209.927.417,1.4.617a.557.557,0,0,1,.37.628c-.032.338-.042.678-.079,1.015a.666.666,0,0,0,.182.509.955.955,0,0,0,1.012.409,4.115,4.115,0,0,1,.635-.029c.411-.008.542.081.694.464l.6,1.5Zm-12.4-1.464c-.1.234-.187.453-.3.658-.09.168-.086.3.079.4a1.932,1.932,0,0,1,.859,2.194c-.01.052.009.113-.011.158a1.767,1.767,0,0,1-.247.489,4.487,4.487,0,0,1-.672.583.306.306,0,0,0-.105.456.781.781,0,0,1,.094.236c.061.355.269.416.606.4,1.221-.051.879-.135,1.73.686a1.468,1.468,0,0,1,.492,1.351c-.09.734-.058.744.641,1.012a.369.369,0,0,0,.316-.06c.243-.221.45-.481.693-.7a.749.749,0,0,1,.41-.206c.929-.063,1.842-.061,2.355.934a.429.429,0,0,0,.1.12c.038.032.1.083.129.072a3.875,3.875,0,0,0,.816-.339c.082-.053.061-.319.032-.478a1.5,1.5,0,0,1,.674-1.646c.13-.089.218-.245.353-.319a1.443,1.443,0,0,1,.6-.213,10.894,10.894,0,0,1,1.137.066,3.372,3.372,0,0,1,.21-.451c.2-.312.128-.516-.143-.771-.884-.83-.717-.474-.729-1.745a1.4,1.4,0,0,1,.6-1.24c.619-.474.6-.5.264-1.2a.35.35,0,0,0-.254-.161c-.307-.011-.619.047-.921.01a1.23,1.23,0,0,1-.61-.257,4.865,4.865,0,0,1-.744-.784,1.071,1.071,0,0,1-.206-.566c-.017-.315.052-.635.054-.952a.371.371,0,0,0-.166-.278c-.682-.348-.684-.342-1.219.215a2.594,2.594,0,0,1-.222.228c-.129.1-.269.278-.406.279-.846.01-1.773.227-2.306-.749a1.276,1.276,0,0,0-.228-.265c-.042-.042-.114-.108-.149-.1a3.757,3.757,0,0,0-.816.338c-.082.053-.057.316-.034.477a1.454,1.454,0,0,1-.6,1.582c-.166.109-.279.3-.446.405a1.136,1.136,0,0,1-.54.194C4464.19,507.9,4463.809,507.846,4463.4,507.817Z" transform="translate(-4447.375 -503.735)" fill="#fff"/>
      <path id="Trazado_184075" data-name="Trazado 184075" d="M4243.919,589.035l1.081-2.528h-1.449q-2.391,0-4.78,0a2.552,2.552,0,0,1-2.683-2.681q0-7.777,0-15.553a2.546,2.546,0,0,1,2.656-2.675q5.4,0,10.8,0h.292v1.02h-11.01a1.548,1.548,0,0,0-1.722,1.708q0,6.358,0,12.717v.341h24.469V575.3h1.028v.329q0,4.08,0,8.159a2.557,2.557,0,0,1-2.714,2.714q-2.9,0-5.8,0h-.4l1.09,2.55c.711,0,1.412,0,2.112,0a1.532,1.532,0,1,1,0,3.059q-7.553,0-15.1,0a1.532,1.532,0,1,1,0-3.059c.68,0,1.36,0,2.04,0A.514.514,0,0,0,4243.919,589.035Zm-6.813-6.6v1.338a1.549,1.549,0,0,0,1.721,1.709h10.963q5.084,0,10.167,0a1.483,1.483,0,0,0,1.588-1.266,14.92,14.92,0,0,0,.014-1.781Zm7.923,6.6h8.631c-.35-.819-.684-1.609-1.031-2.392a.315.315,0,0,0-.242-.131q-3.042-.011-6.084,0a.314.314,0,0,0-.242.131C4245.713,587.427,4245.38,588.216,4245.03,589.036Zm4.284,2.061h7.425a1.766,1.766,0,0,0,.317-.008.506.506,0,0,0,0-1,1.59,1.59,0,0,0-.286-.008h-14.851a1.594,1.594,0,0,0-.286.008.506.506,0,0,0,0,1,1.783,1.783,0,0,0,.318.008Z" transform="translate(-4236.086 -561.644)" fill="#fff"/>
      <path id="Trazado_184076" data-name="Trazado 184076" d="M4308.172,782.386V781.4h15.258v.983Z" transform="translate(-4303.567 -763.664)" fill="#fff"/>
      <path id="Trazado_184077" data-name="Trazado 184077" d="M4321.041,749.558v.983h-12.708v-.983Z" transform="translate(-4303.717 -733.854)" fill="#fff"/>
      <path id="Trazado_184078" data-name="Trazado 184078" d="M4319.517,717.632v.982h-11.178v-.982Z" transform="translate(-4303.723 -703.967)" fill="#fff"/>
      <path id="Trazado_184079" data-name="Trazado 184079" d="M4317.887,685.591v.984h-9.656v-.984Z" transform="translate(-4303.622 -673.973)" fill="#fff"/>
      <path id="Trazado_184080" data-name="Trazado 184080" d="M4277.017,609.922l1.234,1.139-.737.728c-.515-.51-1.035-1.01-1.535-1.528a.462.462,0,0,1,.013-.689c.494-.51,1-1.008,1.519-1.526l.675.747Z" transform="translate(-4273.292 -601.383)" fill="#fff"/>
      <path id="Trazado_184081" data-name="Trazado 184081" d="M4367.075,610.829l-1.232-1.133.769-.695c.486.475,1.017.977,1.527,1.5a.435.435,0,0,1,0,.637c-.51.522-1.04,1.024-1.572,1.544l-.687-.725Z" transform="translate(-4357.553 -602.276)" fill="#fff"/>
      <path id="Trazado_184082" data-name="Trazado 184082" d="M4325.2,608.05l-.986-.255,1.019-4.07.989.245Z" transform="translate(-4318.585 -597.337)" fill="#fff"/>
      <path id="Trazado_184083" data-name="Trazado 184083" d="M4276.209,686.617v-.978h.992v.978Z" transform="translate(-4273.646 -674.018)" fill="#fff"/>
      <path id="Trazado_184084" data-name="Trazado 184084" d="M4276.243,717.482h.984v.99h-.984Z" transform="translate(-4273.678 -703.827)" fill="#fff"/>
      <path id="Trazado_184085" data-name="Trazado 184085" d="M4277.341,750.519h-.98v-.986h.98Z" transform="translate(-4273.788 -733.83)" fill="#fff"/>
      <path id="Trazado_184086" data-name="Trazado 184086" d="M4524.8,750.549h-.969v-.992h.969Z" transform="translate(-4505.448 -733.853)" fill="#fff"/>
      <path id="Trazado_184087" data-name="Trazado 184087" d="M4556.728,750.549h-.969v-.992h.969Z" transform="translate(-4535.337 -733.853)" fill="#fff"/>
      <path id="Trazado_184088" data-name="Trazado 184088" d="M4277.268,782.386h-.979v-.992h.979Z" transform="translate(-4273.72 -763.656)" fill="#fff"/>
      <path id="Trazado_184089" data-name="Trazado 184089" d="M4563.452,782.526v-.975h.992v.975Z" transform="translate(-4542.538 -763.803)" fill="#fff"/>
      <path id="Trazado_184090" data-name="Trazado 184090" d="M4596.637,782.463h-.979v-.984h.979Z" transform="translate(-4572.687 -763.735)" fill="#fff"/>
      <path id="Trazado_184091" data-name="Trazado 184091" d="M4521.785,560.345a3.63,3.63,0,1,1-3.616-3.645A3.638,3.638,0,0,1,4521.785,560.345Zm-1.021-.02a2.61,2.61,0,1,0-2.615,2.615A2.617,2.617,0,0,0,4520.764,560.325Z" transform="translate(-4496.736 -553.317)" fill="#fff"/>
      <path id="Trazado_184092" data-name="Trazado 184092" d="M4437,846.329h-.979v-.984H4437Z" transform="translate(-4423.244 -823.521)" fill="#fff"/>
    </g>
  </g>
</svg>
