<svg id="Grupo_151277" data-name="Grupo 151277" xmlns="http://www.w3.org/2000/svg" xmlns:xlink="http://www.w3.org/1999/xlink" width="55" height="54" viewBox="0 0 55 54">
  <defs>
    <linearGradient id="linear-gradient" x1="0.5" x2="0.5" y2="1" gradientUnits="objectBoundingBox">
      <stop offset="0" stop-color="#039be5"/>
      <stop offset="1" stop-color="#027fbc"/>
    </linearGradient>
  </defs>
  <ellipse id="Elipse_4775" data-name="Elipse 4775" cx="27.5" cy="27" rx="27.5" ry="27" fill="url(#linear-gradient)"/>
  <g id="NfefVv" transform="translate(-151.901 50.551)">
    <g id="Grupo_145853" data-name="Grupo 145853" transform="translate(167.901 -41.551)">
      <path id="Trazado_189394" data-name="Trazado 189394" d="M188.849,365.535c0,.466.006.933,0,1.4a.3.3,0,0,0,.178.31c.817.463,1.627.938,2.443,1.4a.482.482,0,0,1,.269.46q0,1.593,0,3.186a.465.465,0,0,1-.272.434c-.791.45-1.573.915-2.367,1.359a.414.414,0,0,0-.252.422c.012.9,0,1.807.008,2.71a.52.52,0,0,1-.286.514c-.924.523-1.841,1.059-2.761,1.589a.373.373,0,0,1-.41,0c-.842-.489-1.691-.967-2.533-1.456a.273.273,0,0,0-.317,0c-.811.474-1.628.936-2.436,1.413a.516.516,0,0,1-.587,0c-.8-.473-1.613-.931-2.417-1.4a.289.289,0,0,0-.337,0c-.809.475-1.625.938-2.434,1.413a.49.49,0,0,1-.55.011c-.9-.525-1.8-1.048-2.7-1.56a.519.519,0,0,1-.294-.509c.007-.925,0-1.85.007-2.775a.323.323,0,0,0-.187-.327c-.816-.464-1.625-.941-2.442-1.4a.474.474,0,0,1-.261-.461c0-1.023.008-2.047,0-3.07a.578.578,0,0,1,.329-.579c.776-.432,1.536-.892,2.313-1.322a.43.43,0,0,0,.251-.446c-.011-.9,0-1.792-.006-2.688a.536.536,0,0,1,.3-.527c.837-.467,1.668-.946,2.5-1.42a.891.891,0,0,0,.148-.093.433.433,0,0,1,.56-.031c.805.466,1.618.918,2.421,1.389a.368.368,0,0,0,.433,0c.771-.456,1.552-.893,2.321-1.352a.6.6,0,0,1,.687,0c.788.469,1.588.919,2.379,1.382a.273.273,0,0,0,.316.005c.768-.444,1.548-.869,2.308-1.325a.7.7,0,0,1,.849,0c.813.508,1.656.969,2.5,1.432a.585.585,0,0,1,.342.6c-.016.444,0,.889,0,1.333Zm-14.42,12.812c.1-.053.17-.087.237-.125.574-.331,1.144-.667,1.722-.99a.3.3,0,0,0,.178-.31c-.007-.663,0-1.325,0-1.988,0-.077-.008-.153-.013-.237a.466.466,0,0,0-.088.024c-.643.37-1.287.738-1.925,1.117a.285.285,0,0,0-.1.21c-.01.429,0,.859,0,1.289Zm2.134-13.676c-.716.414-1.384.8-2.045,1.19a.3.3,0,0,0-.084.22c-.007.59,0,1.179,0,1.769v.48a.425.425,0,0,0,.091-.02c.643-.37,1.288-.737,1.926-1.116a.314.314,0,0,0,.112-.229c.012-.342.005-.684.005-1.026Zm-.048,8.669c.026-.037.04-.049.041-.06.009-.755.019-1.511.018-2.266a.258.258,0,0,0-.118-.181c-.483-.283-.971-.556-1.458-.832l-.568-.319c0,.813,0,1.584,0,2.354a.212.212,0,0,0,.093.151C175.185,372.573,175.847,372.954,176.516,373.34Zm-1.706-4.324c.659.389,1.281.749,1.9,1.121a.429.429,0,0,0,.5-.023c.56-.338,1.126-.664,1.69-1,.047-.028.09-.063.155-.109-.689-.4-1.355-.785-2.025-1.165a.213.213,0,0,0-.178,0C176.176,368.224,175.51,368.611,174.809,369.016Zm10,.019a.455.455,0,0,0-.065-.067c-.642-.372-1.282-.746-1.929-1.107a.309.309,0,0,0-.251.015c-.32.171-.633.358-.947.54l-1.035.6c.1.059.161.1.228.142.578.335,1.16.662,1.731,1.009a.273.273,0,0,0,.332.009c.435-.264.873-.522,1.312-.78C184.388,369.275,184.595,369.159,184.808,369.036Zm-5.345.613c-.741.433-1.418.825-2.089,1.227a.269.269,0,0,0-.08.2c0,.647.011,1.294.018,1.941,0,.1,0,.2,0,.327.08-.039.132-.06.18-.088.587-.337,1.169-.683,1.762-1.009a.359.359,0,0,0,.2-.367c0-.32,0-.639,0-.959C179.464,370.518,179.464,370.114,179.464,369.648Zm4-5.627c.094.058.159.1.226.138.44.255.9.478,1.316.773a.874.874,0,0,0,1.16,0c.479-.337,1.01-.6,1.524-.9-.025-.031-.035-.054-.052-.064-.659-.382-1.318-.764-1.98-1.14a.208.208,0,0,0-.172.01c-.235.13-.463.271-.7.406C184.357,363.5,183.924,363.754,183.463,364.021Zm-11.542,0c.7.408,1.369.8,2.041,1.175a.294.294,0,0,0,.235-.033c.6-.336,1.187-.68,1.779-1.023.058-.034.111-.074.192-.129-.7-.4-1.362-.788-2.032-1.166a.245.245,0,0,0-.2.013c-.231.121-.455.254-.68.385Zm5.767,9.992c.7.408,1.364.793,2.03,1.167a.282.282,0,0,0,.232-.018c.628-.353,1.251-.715,1.875-1.076a.67.67,0,0,0,.1-.091c-.66-.381-1.305-.747-1.943-1.126a.279.279,0,0,0-.335.007c-.317.194-.641.374-.962.56Zm-5.769,0c.715.414,1.386.805,2.063,1.187a.246.246,0,0,0,.193-.033c.582-.33,1.161-.666,1.741-1,.078-.045.154-.094.258-.158-.708-.409-1.381-.8-2.056-1.183a.164.164,0,0,0-.138,0C173.306,373.214,172.633,373.6,171.919,374.016Zm1.346-4.98c-.027-.033-.037-.054-.054-.064-.648-.375-1.295-.753-1.948-1.119a.291.291,0,0,0-.233.019c-.239.124-.468.265-.7.4l-1.266.733c.027.033.038.054.055.064.648.376,1.295.753,1.948,1.12a.287.287,0,0,0,.234-.019c.345-.188.682-.388,1.022-.585Zm17.339-.016c-.708-.409-1.373-.8-2.045-1.174a.293.293,0,0,0-.234.032c-.5.281-1,.57-1.494.858-.152.088-.3.181-.482.289.64.369,1.251.705,1.844,1.072a.462.462,0,0,0,.566,0C189.351,369.729,189.961,369.391,190.6,369.02Zm-7.146,5c.709.41,1.375.8,2.046,1.177a.261.261,0,0,0,.212-.025c.614-.348,1.224-.7,1.835-1.057.046-.027.088-.062.149-.105-.534-.309-1.066-.572-1.546-.91a.866.866,0,0,0-1.14,0C184.533,373.435,184,373.7,183.458,374.017Zm-1.542-9.976c-.019-.029-.024-.046-.035-.052-.654-.379-1.306-.761-1.965-1.132a.293.293,0,0,0-.235.021c-.251.132-.493.28-.738.422l-1.228.711c.031.034.042.054.06.064.642.371,1.282.745,1.93,1.106a.333.333,0,0,0,.272-.019c.408-.223.808-.461,1.211-.695Zm.389,9.309a1.434,1.434,0,0,0,.02-.151c.006-.717.016-1.434.011-2.151a.329.329,0,0,0-.141-.232c-.376-.232-.762-.45-1.147-.668-.269-.152-.544-.3-.855-.466,0,.678.028,1.321-.01,1.96a.673.673,0,0,0,.483.766,2.647,2.647,0,0,1,.359.205Zm2.9-3.677c-.714.412-1.382.793-2.042,1.186a.314.314,0,0,0-.1.236c0,.6.01,1.206.017,1.809,0,.135,0,.27,0,.449.121-.065.2-.106.281-.152a12.535,12.535,0,0,1,1.213-.686.917.917,0,0,0,.638-1.12,3.747,3.747,0,0,1-.006-.653Zm-7.894,5c0,.823,0,1.594.007,2.364,0,.063.085.144.15.183.519.308,1.043.608,1.566.909.123.071.247.141.395.224,0-.093.01-.15.01-.207,0-.531-.037-1.067.013-1.593a.86.86,0,0,0-.568-.989C178.356,375.317,177.864,374.988,177.314,374.671Zm-5.771,0c0,.822,0,1.592.006,2.361a.269.269,0,0,0,.13.173c.336.2.677.4,1.017.592l.939.537c.019-.036.032-.048.032-.061,0-.756.006-1.513,0-2.269a.268.268,0,0,0-.122-.179c-.221-.14-.45-.266-.677-.4Zm-2.862-4.984a.839.839,0,0,0-.02.112c0,.735-.005,1.47,0,2.2a.307.307,0,0,0,.139.212c.506.3,1.019.591,1.529.885l.453.261c0-.817,0-1.587-.007-2.357,0-.064-.083-.146-.148-.186-.329-.2-.664-.39-1-.583Zm4.991,0c-.083.043-.134.067-.183.095-.592.341-1.182.687-1.778,1.022a.284.284,0,0,0-.171.289c.008.691,0,1.383,0,2.074,0,.053.012.106.021.187.692-.4,1.359-.781,2.02-1.175a.3.3,0,0,0,.083-.223c.007-.626,0-1.252,0-1.878Zm3.664-4.978a.388.388,0,0,0-.021.078c0,.742-.006,1.484,0,2.227a.307.307,0,0,0,.142.209c.613.363,1.231.717,1.849,1.072a.844.844,0,0,0,.133.046c0-.793,0-1.563-.007-2.333,0-.063-.085-.146-.15-.185-.589-.347-1.182-.686-1.774-1.027C177.457,364.76,177.4,364.736,177.336,364.706Zm-3.69,3.642a.781.781,0,0,0,.025-.126c0-.728.006-1.457,0-2.185a.31.31,0,0,0-.142-.213c-.607-.36-1.22-.71-1.832-1.062a1.019,1.019,0,0,0-.148-.054c0,.789,0,1.553.006,2.317a.288.288,0,0,0,.137.191c.386.234.778.457,1.169.682C173.113,368.046,173.371,368.191,173.646,368.348Zm14.447,6.332c-.088.045-.134.066-.176.09-.591.342-1.179.69-1.776,1.022a.3.3,0,0,0-.179.308c.005.684,0,1.367,0,2.051,0,.055.01.11.017.187.07-.035.121-.059.169-.087.46-.265.9-.567,1.383-.785a.858.858,0,0,0,.57-.987C188.054,375.9,188.093,375.306,188.093,374.681Zm-2.126-6.347a.534.534,0,0,0,.1-.025c.637-.366,1.276-.73,1.907-1.107a.331.331,0,0,0,.118-.245c.009-.692.005-1.384,0-2.076,0-.054-.01-.108-.019-.192-.691.4-1.357.782-2.021,1.171a.191.191,0,0,0-.082.137C185.965,366.768,185.966,367.54,185.966,368.334Zm-2.883-3.654c0,.822,0,1.593.006,2.365,0,.059.074.136.134.171.6.351,1.2.694,1.8,1.039.052.03.108.054.19.094,0-.6-.044-1.176.013-1.738a.926.926,0,0,0-.62-1.072C184.089,365.3,183.616,364.986,183.083,364.68Zm-2.887,3.687c.718-.414,1.386-.794,2.046-1.187.053-.032.079-.148.08-.225.006-.683,0-1.367,0-2.05,0-.061-.009-.123-.015-.192a.38.38,0,0,0-.079.021c-.642.369-1.286.736-1.923,1.114a.31.31,0,0,0-.108.229c-.01.436-.005.872-.005,1.309C180.2,367.7,180.2,368.006,180.2,368.367Zm7.874,4.981a.655.655,0,0,0,.023-.107c0-.734,0-1.469-.006-2.2a.3.3,0,0,0-.135-.212c-.429-.259-.866-.5-1.3-.755l-.686-.4c0,.82,0,1.589.006,2.358a.27.27,0,0,0,.128.176c.253.157.514.3.772.45Zm-7.857,4.966c.028,0,.045.005.055,0,.649-.372,1.3-.742,1.943-1.124a.308.308,0,0,0,.11-.229c.008-.705,0-1.411,0-2.116a1.182,1.182,0,0,0-.025-.16c-.69.4-1.357.78-2.019,1.171a.24.24,0,0,0-.081.18c-.006.72,0,1.44,0,2.16A.825.825,0,0,0,180.213,378.313Zm4.966.024a.4.4,0,0,0,.027-.084c0-.743.007-1.486,0-2.229a.308.308,0,0,0-.144-.208c-.569-.339-1.144-.668-1.717-1-.073-.042-.15-.079-.231-.122a.322.322,0,0,0-.027.078c0,.743-.005,1.486,0,2.229a.311.311,0,0,0,.142.209c.322.2.652.384.98.573S184.851,378.15,185.179,378.337Zm3.671-4.994c.076-.034.123-.051.165-.075.611-.351,1.224-.7,1.828-1.06a.353.353,0,0,0,.129-.261c.011-.69.006-1.381.005-2.072a1.616,1.616,0,0,0-.018-.168.418.418,0,0,0-.078.023c-.636.366-1.274.728-1.9,1.1a.332.332,0,0,0-.122.244c-.011.567-.006,1.134-.006,1.7Z" transform="translate(-167.901 -344.354)" fill="#fff"/>
      <path id="Trazado_189395" data-name="Trazado 189395" d="M330.637-26.6c.346-.316.7-.652,1.07-.967a.572.572,0,0,1,.382-.137.378.378,0,0,1,.266.235.5.5,0,0,1-.1.389c-.379.423-.782.824-1.176,1.233-.167.173-.332.347-.5.519a.4.4,0,0,1-.643.008q-.845-.869-1.684-1.745a.378.378,0,0,1-.019-.563.4.4,0,0,1,.564.047c.361.337.727.668,1.075.988,0,0,.007-.072.007-.14,0-1.093,0-2.186,0-3.278a.286.286,0,0,0-.167-.29c-1.382-.791-2.756-1.6-4.141-2.381a.627.627,0,0,1-.36-.627c.012-1.683.009-3.366,0-5.049a.538.538,0,0,1,.3-.529q2.246-1.285,4.482-2.586a.461.461,0,0,1,.51,0q2.257,1.309,4.52,2.609a.49.49,0,0,1,.262.482c-.005,1.712-.008,3.424,0,5.136a.552.552,0,0,1-.316.541q-2.093,1.2-4.176,2.412a.327.327,0,0,0-.157.22c-.01,1.158-.007,2.317-.006,3.475C330.638-26.58,330.648-26.56,330.637-26.6Zm3.5-11.882a.61.61,0,0,0-.078-.07c-1.227-.71-2.454-1.422-3.686-2.124a.325.325,0,0,0-.27.016c-1.187.678-2.37,1.364-3.553,2.049-.057.033-.113.07-.189.117.064.041.093.061.124.079,1.209.7,2.42,1.4,3.625,2.1a.272.272,0,0,0,.316-.019q1.094-.636,2.191-1.267Zm-8.134.666c-.019.033-.031.045-.031.057q0,2.162,0,4.323a.215.215,0,0,0,.088.154q.519.321,1.048.626c.628.362,1.259.719,1.889,1.078l.864.49a1.288,1.288,0,0,0,.018-.134c.007-.566.018-1.131.017-1.7,0-.822-.016-1.644-.015-2.466a.308.308,0,0,0-.18-.308c-1.061-.606-2.117-1.22-3.175-1.831C326.356-37.622,326.18-37.718,326.005-37.815Zm8.533-.01c-.085.042-.137.064-.185.092q-1.787,1.03-3.574,2.058a.26.26,0,0,0-.149.259c0,1.126-.005,2.252-.009,3.377,0,.307,0,.613,0,.938a.74.74,0,0,0,.114-.032q1.84-1.062,3.676-2.13a.3.3,0,0,0,.121-.22c.011-.488.006-.976.006-1.463Z" transform="translate(-318.338 41.551)" fill="#fff"/>
    </g>
  </g>
</svg>
