<svg xmlns="http://www.w3.org/2000/svg" width="245.906" height="254.287" viewBox="0 0 245.906 254.287">
  <g id="Grupo_710235" data-name="Grupo 710235" transform="translate(-250.151 -43.389)">
    <g id="Grupo_168869" data-name="Grupo 168869" transform="translate(316.689 75.491)">
      <g id="Grupo_168865" data-name="Grupo 168865">
        <path id="Trazado_232851" data-name="Trazado 232851" d="M355.869,179.49l11.85-6.841-11.85-6.841-11.85,6.841h0L332.17,179.49l11.849,6.841h0l11.85,6.841,11.85-6.841-11.85-6.841Z" transform="translate(-332.17 -98.597)" fill="#d4ecff"/>
        <path id="Trazado_232852" data-name="Trazado 232852" d="M361.383,148.4V98.234l11.85-6.841v50.17Z" transform="translate(-337.683 -84.551)" fill="#173d7a"/>
        <path id="Trazado_232853" data-name="Trazado 232853" d="M358.626,98.234l-11.85-6.841v50.17l11.85,6.841Z" transform="translate(-334.927 -84.551)" fill="#396caa"/>
        <path id="Trazado_232854" data-name="Trazado 232854" d="M370.475,89.8l-11.85-6.841L346.776,89.8l11.85,6.841Z" transform="translate(-334.927 -82.96)" fill="#d4ecff"/>
      </g>
      <g id="Grupo_168866" data-name="Grupo 168866" transform="translate(23.699 59.291)">
        <path id="Trazado_232855" data-name="Trazado 232855" d="M373.232,162.887l-11.85-6.841v4.561l11.85,6.841Z" transform="translate(-361.383 -156.046)" fill="#95d359"/>
      </g>
      <g id="Grupo_168867" data-name="Grupo 168867" transform="translate(0 20.524)">
        <path id="Trazado_232856" data-name="Trazado 232856" d="M346.776,160.02V123.533l11.85-6.841v36.487Z" transform="translate(-334.927 -109.85)" fill="#c13d1a"/>
        <path id="Trazado_232857" data-name="Trazado 232857" d="M344.019,123.533l-11.849-6.841v36.487l11.849,6.841Z" transform="translate(-332.17 -109.85)" fill="#db5126"/>
        <path id="Trazado_232858" data-name="Trazado 232858" d="M355.869,115.1l-11.85-6.841L332.17,115.1l11.849,6.841Z" transform="translate(-332.17 -108.258)" fill="#ef602e"/>
        <path id="Trazado_232859" data-name="Trazado 232859" d="M346.776,160.02V123.533l11.85-6.841v36.487Z" transform="translate(-334.927 -109.85)" fill="#396caa"/>
        <path id="Trazado_232860" data-name="Trazado 232860" d="M344.019,123.533l-11.849-6.841v36.487l11.849,6.841Z" transform="translate(-332.17 -109.85)" fill="#5793ce"/>
        <path id="Trazado_232861" data-name="Trazado 232861" d="M355.869,115.1l-11.85-6.841L332.17,115.1l11.849,6.841Z" transform="translate(-332.17 -108.258)" fill="#d4ecff"/>
      </g>
      <g id="Grupo_168868" data-name="Grupo 168868" transform="translate(11.85 43.328)">
        <path id="Trazado_232862" data-name="Trazado 232862" d="M361.383,172.167V151.643l11.85-6.841v20.524Z" transform="translate(-349.533 -137.96)" fill="#173d7a"/>
        <path id="Trazado_232863" data-name="Trazado 232863" d="M358.626,151.643l-11.85-6.841v20.524l11.85,6.841Z" transform="translate(-346.776 -137.96)" fill="#396caa"/>
        <path id="Trazado_232864" data-name="Trazado 232864" d="M370.475,143.21l-11.85-6.841-11.85,6.841,11.85,6.841Z" transform="translate(-346.776 -136.368)" fill="#d4ecff"/>
      </g>
    </g>
    <g id="Grupo_168870" data-name="Grupo 168870" transform="translate(485.397 178.305)">
      <rect id="Rectángulo_50066" data-name="Rectángulo 50066" width="1.42" height="4.124" transform="translate(10.108 0) rotate(75.627)" fill="#5793ce"/>
      <rect id="Rectángulo_50067" data-name="Rectángulo 50067" width="1.42" height="4.124" transform="translate(8.07 1.988) rotate(75.624)" fill="#5793ce"/>
      <rect id="Rectángulo_50068" data-name="Rectángulo 50068" width="1.42" height="4.124" transform="translate(6.033 3.976) rotate(75.624)" fill="#5793ce"/>
      <rect id="Rectángulo_50069" data-name="Rectángulo 50069" width="1.42" height="4.124" transform="translate(3.995 5.964) rotate(75.627)" fill="#5793ce"/>
    </g>
    <g id="Grupo_168876" data-name="Grupo 168876" transform="translate(298.962 84.737)">
      <g id="Grupo_168873" data-name="Grupo 168873" transform="translate(0 0)">
        <path id="Trazado_232865" data-name="Trazado 232865" d="M401.517,314.12l-89.49-51.667c-2.531-1.461-2.214-4.014.71-5.7l60.936-35.17c2.923-1.687,7.345-1.871,9.876-.409l89.49,51.666c2.532,1.462,2.215,4.015-.709,5.7l-60.936,35.17C408.47,315.4,404.048,315.582,401.517,314.12Z" transform="translate(-310.318 -118.106)" fill="#d4ecff"/>
        <g id="Grupo_168871" data-name="Grupo 168871" transform="translate(66.906)">
          <path id="Trazado_232866" data-name="Trazado 232866" d="M492.357,147.455,401.391,94.98a3.485,3.485,0,0,0-3.114-.419l0-.011-.149.069c-.011.006-.024.011-.036.017l-2.962,1.394,3.215,1.6c0,.061-.007.117-.007.178l.028,74.715c0,3.739,2.315,8.1,5.169,9.75l88.54,51.077.5,4.167,3.233-1.542c1.065-.626,1.74-2.04,1.739-4.055l-.028-74.714C497.525,153.467,495.21,149.1,492.357,147.455Z" transform="translate(-393.232 -94.357)" fill="#173d7a"/>
          <path id="Trazado_232867" data-name="Trazado 232867" d="M492.357,147.455,401.391,94.98a3.485,3.485,0,0,0-3.114-.419l0-.011-.149.069c-.011.006-.024.011-.036.017l-2.962,1.394,3.215,1.6c0,.061-.007.117-.007.178l.019,49.242,41.4,32.71,56.21-28.288A10.206,10.206,0,0,0,492.357,147.455Z" transform="translate(-393.232 -94.357)" fill="#396caa"/>
          <path id="Trazado_232868" data-name="Trazado 232868" d="M514.776,161.258l-8.915,3.75,6.731,5.186,5.62-2.393A13.082,13.082,0,0,0,514.776,161.258Z" transform="translate(-414.132 -106.984)" fill="#274f89"/>
          <path id="Trazado_232869" data-name="Trazado 232869" d="M488.953,237.448l-90.966-52.476c-2.853-1.645-5.168-6.011-5.169-9.75l-.028-74.714c0-3.739,2.31-5.436,5.164-3.79l90.967,52.475c2.853,1.646,5.167,6.011,5.168,9.75l.028,74.714C494.118,237.4,491.806,239.094,488.953,237.448Z" transform="translate(-392.79 -94.684)" fill="#d4ecff"/>
          <path id="Trazado_232870" data-name="Trazado 232870" d="M486.724,233.165,401.766,184.18c-2.611-1.507-4.729-5.5-4.73-8.923l-.026-68.369c0-3.422,2.115-4.975,4.726-3.468l84.958,48.986c2.611,1.506,4.729,5.5,4.73,8.922l.026,68.369C491.45,233.119,489.334,234.671,486.724,233.165Z" transform="translate(-393.586 -95.958)" fill="#fff"/>
          <path id="Trazado_232871" data-name="Trazado 232871" d="M486.724,233.165,401.766,184.18c-2.611-1.507-4.729-5.5-4.73-8.923l-.026-68.369c0-3.422,2.115-4.975,4.726-3.468l84.958,48.986c2.611,1.506,4.729,5.5,4.73,8.922l.026,68.369C491.45,233.119,489.334,234.671,486.724,233.165Z" transform="translate(-393.586 -95.958)" fill="#fff"/>
        </g>
        <path id="Trazado_232872" data-name="Trazado 232872" d="M474.746,261.984l-12.233-1.615-78.964-45.59c-2.531-1.461-6.953-1.278-9.876.41l-55.954,32.293-7.4-.977v4.2h.007a2.881,2.881,0,0,0,1.7,2.593l89.49,51.666c2.531,1.462,6.953,1.279,9.876-.409l60.936-35.169c1.644-.95,2.465-2.173,2.417-3.322h0Z" transform="translate(-310.318 -116.899)" fill="#173d7a"/>
        <path id="Trazado_232873" data-name="Trazado 232873" d="M415.415,236.933l-5.61-3.239h-61.68l-30.407,17.543-7.4-.977v4.2h.007a2.881,2.881,0,0,0,1.7,2.593l89.49,51.666a9.259,9.259,0,0,0,5.1.956Z" transform="translate(-310.318 -120.656)" fill="#396caa"/>
        <path id="Trazado_232874" data-name="Trazado 232874" d="M313.6,254.549l-3.282-.434v4.2h.007a2.881,2.881,0,0,0,1.7,2.593l1.577.91Z" transform="translate(-310.318 -124.51)" fill="#5793ce"/>
        <path id="Trazado_232875" data-name="Trazado 232875" d="M423.846,324.39a11.459,11.459,0,0,0,8.392-.521v-9.361h-8.392Z" transform="translate(-331.745 -135.909)" fill="#274f89"/>
        <path id="Trazado_232876" data-name="Trazado 232876" d="M401.517,299.151l-89.49-51.667c-2.531-1.461-2.214-4.014.71-5.7l60.936-35.17c2.923-1.687,7.345-1.871,9.876-.409l89.49,51.666c2.532,1.462,2.215,4.015-.709,5.7l-60.936,35.17C408.47,300.43,404.048,300.613,401.517,299.151Z" transform="translate(-310.318 -115.281)" fill="#d4ecff"/>
        <path id="Trazado_232877" data-name="Trazado 232877" d="M472.33,271.117l-60.936,35.17c-2.923,1.687-7.345,1.871-9.876.41l-89.49-51.667a3.334,3.334,0,0,1-1.574-1.722c-.4,1.2.109,2.408,1.574,3.255l89.49,51.666c2.531,1.462,6.953,1.279,9.876-.409l60.936-35.17c1.965-1.134,2.747-2.658,2.283-3.981A4.757,4.757,0,0,1,472.33,271.117Z" transform="translate(-310.319 -124.358)" fill="#fff"/>
        <g id="Grupo_168872" data-name="Grupo 168872" transform="translate(35.502 93.117)">
          <path id="Trazado_232878" data-name="Trazado 232878" d="M358.348,234.836,354.3,232.5c-.325-.187-.285-.515.091-.732l4.779-2.76a1.409,1.409,0,0,1,1.269-.052l4.049,2.337c.325.188.284.516-.091.733l-4.78,2.759A1.41,1.41,0,0,1,358.348,234.836Z" transform="translate(-354.079 -212.854)" fill="#173d7a"/>
          <path id="Trazado_232879" data-name="Trazado 232879" d="M366.056,239.286l-4.049-2.338c-.325-.187-.285-.515.091-.732l4.779-2.76a1.409,1.409,0,0,1,1.269-.052l4.049,2.337c.324.188.284.516-.092.733l-4.779,2.759A1.41,1.41,0,0,1,366.056,239.286Z" transform="translate(-355.534 -213.694)" fill="#173d7a"/>
          <path id="Trazado_232880" data-name="Trazado 232880" d="M373.763,243.736l-4.049-2.337c-.325-.188-.284-.516.092-.733l4.779-2.759a1.405,1.405,0,0,1,1.268-.053l4.049,2.337c.325.188.285.516-.091.733l-4.779,2.759A1.409,1.409,0,0,1,373.763,243.736Z" transform="translate(-356.989 -214.534)" fill="#173d7a"/>
          <path id="Trazado_232881" data-name="Trazado 232881" d="M384.424,240.164l-4.049-2.338c-.325-.187-.285-.515.091-.732l4.012-2.316a1.407,1.407,0,0,1,1.269-.053l4.049,2.337c.325.188.284.516-.092.733l-4.012,2.316A1.41,1.41,0,0,1,384.424,240.164Z" transform="translate(-359.001 -213.944)" fill="#173d7a"/>
          <path id="Trazado_232882" data-name="Trazado 232882" d="M392.131,244.614l-4.049-2.337c-.324-.188-.284-.516.092-.733l4.012-2.316a1.41,1.41,0,0,1,1.268-.053l4.049,2.338c.325.187.285.515-.091.732l-4.012,2.316A1.409,1.409,0,0,1,392.131,244.614Z" transform="translate(-360.456 -214.784)" fill="#173d7a"/>
          <path id="Trazado_232883" data-name="Trazado 232883" d="M399.839,249.064l-4.049-2.337c-.325-.188-.284-.516.091-.733l4.012-2.316a1.41,1.41,0,0,1,1.268-.053l4.049,2.338c.325.187.285.515-.091.732l-4.012,2.316A1.407,1.407,0,0,1,399.839,249.064Z" transform="translate(-361.91 -215.624)" fill="#173d7a"/>
          <path id="Trazado_232884" data-name="Trazado 232884" d="M407.547,253.514l-4.049-2.337c-.325-.188-.285-.516.091-.733l4.012-2.316a1.412,1.412,0,0,1,1.269-.053l4.049,2.338c.325.187.284.515-.091.732l-4.013,2.317A1.407,1.407,0,0,1,407.547,253.514Z" transform="translate(-363.365 -216.464)" fill="#173d7a"/>
          <path id="Trazado_232885" data-name="Trazado 232885" d="M415.255,257.964l-4.049-2.337c-.325-.188-.285-.516.091-.733l4.012-2.316a1.412,1.412,0,0,1,1.269-.053l4.049,2.338c.325.187.284.515-.091.732l-4.012,2.317A1.408,1.408,0,0,1,415.255,257.964Z" transform="translate(-364.82 -217.303)" fill="#173d7a"/>
          <path id="Trazado_232886" data-name="Trazado 232886" d="M422.962,262.415l-4.049-2.338c-.324-.188-.284-.516.092-.733l4.012-2.316a1.41,1.41,0,0,1,1.268-.053l4.05,2.338c.325.187.284.515-.092.732l-4.012,2.317A1.412,1.412,0,0,1,422.962,262.415Z" transform="translate(-366.275 -218.143)" fill="#173d7a"/>
          <path id="Trazado_232887" data-name="Trazado 232887" d="M430.67,266.864l-4.049-2.337c-.325-.187-.284-.516.091-.733l4.012-2.316a1.41,1.41,0,0,1,1.268-.053l4.049,2.338c.325.187.285.515-.091.732l-4.012,2.317A1.409,1.409,0,0,1,430.67,266.864Z" transform="translate(-367.73 -218.983)" fill="#173d7a"/>
          <path id="Trazado_232888" data-name="Trazado 232888" d="M438.378,271.315l-4.049-2.338c-.325-.187-.285-.516.091-.733l4.012-2.316a1.412,1.412,0,0,1,1.269-.053l4.049,2.338c.325.187.285.515-.091.733l-4.013,2.316A1.41,1.41,0,0,1,438.378,271.315Z" transform="translate(-369.184 -219.823)" fill="#173d7a"/>
          <path id="Trazado_232889" data-name="Trazado 232889" d="M446.086,275.765l-4.049-2.338c-.325-.187-.285-.515.091-.733l4.012-2.316a1.412,1.412,0,0,1,1.269-.053l4.049,2.338c.325.187.284.516-.091.733l-4.012,2.316A1.411,1.411,0,0,1,446.086,275.765Z" transform="translate(-370.639 -220.663)" fill="#173d7a"/>
          <path id="Trazado_232890" data-name="Trazado 232890" d="M453.793,280.215l-4.049-2.338c-.325-.187-.284-.515.092-.732l4.012-2.317a1.408,1.408,0,0,1,1.268-.052l4.05,2.337c.324.187.284.516-.092.733l-4.012,2.316A1.412,1.412,0,0,1,453.793,280.215Z" transform="translate(-372.094 -221.503)" fill="#173d7a"/>
          <path id="Trazado_232891" data-name="Trazado 232891" d="M395.781,238.057l-4.05-2.337c-.325-.188-.284-.516.092-.733l4.012-2.316a1.412,1.412,0,0,1,1.269-.053l4.049,2.338c.325.187.284.515-.092.732L397.049,238A1.405,1.405,0,0,1,395.781,238.057Z" transform="translate(-361.144 -213.546)" fill="#396caa"/>
          <path id="Trazado_232892" data-name="Trazado 232892" d="M387.958,233.541l-4.049-2.338c-.325-.187-.285-.515.091-.732l4.012-2.317a1.412,1.412,0,0,1,1.269-.053l4.049,2.338c.325.187.284.516-.091.733l-4.012,2.316A1.41,1.41,0,0,1,387.958,233.541Z" transform="translate(-359.668 -212.694)" fill="#396caa"/>
          <path id="Trazado_232893" data-name="Trazado 232893" d="M379.035,228.39l-8.72-5.035c-.325-.188-.285-.516.091-.733l4.012-2.316a1.412,1.412,0,0,1,1.269-.053l8.72,5.035c.325.188.285.516-.091.733l-4.012,2.316A1.412,1.412,0,0,1,379.035,228.39Z" transform="translate(-357.102 -211.212)" fill="#173d7a"/>
          <path id="Trazado_232894" data-name="Trazado 232894" d="M384.894,223.109l-7.077-4.085c-.325-.188-.285-.516.091-.733l4.012-2.316a1.412,1.412,0,0,1,1.269-.053l7.077,4.086c.325.187.285.515-.091.732l-4.012,2.317A1.409,1.409,0,0,1,384.894,223.109Z" transform="translate(-358.518 -210.395)" fill="#173d7a"/>
          <path id="Trazado_232895" data-name="Trazado 232895" d="M403.488,242.507l-4.049-2.337c-.325-.188-.284-.516.091-.733l4.012-2.316a1.41,1.41,0,0,1,1.268-.053l4.049,2.338c.325.187.285.515-.091.732l-4.012,2.316A1.407,1.407,0,0,1,403.488,242.507Z" transform="translate(-362.599 -214.386)" fill="#396caa"/>
          <path id="Trazado_232896" data-name="Trazado 232896" d="M411.2,246.957l-4.049-2.337c-.325-.188-.284-.516.091-.733l4.012-2.316a1.41,1.41,0,0,1,1.268-.053l4.049,2.338c.325.187.285.515-.091.732l-4.012,2.317A1.409,1.409,0,0,1,411.2,246.957Z" transform="translate(-364.054 -215.226)" fill="#173d7a"/>
          <path id="Trazado_232897" data-name="Trazado 232897" d="M418.9,251.407l-4.049-2.337c-.325-.187-.285-.516.091-.733l4.012-2.316a1.412,1.412,0,0,1,1.269-.053l4.049,2.338c.325.187.284.515-.091.733l-4.012,2.316A1.408,1.408,0,0,1,418.9,251.407Z" transform="translate(-365.509 -216.066)" fill="#173d7a"/>
          <path id="Trazado_232898" data-name="Trazado 232898" d="M426.612,255.858l-4.05-2.338c-.324-.187-.284-.516.092-.733l4.012-2.316a1.412,1.412,0,0,1,1.269-.053l4.049,2.338c.324.187.284.515-.092.733l-4.012,2.316A1.41,1.41,0,0,1,426.612,255.858Z" transform="translate(-366.964 -216.906)" fill="#173d7a"/>
          <path id="Trazado_232899" data-name="Trazado 232899" d="M434.319,260.308l-4.049-2.338c-.325-.187-.284-.515.092-.733l4.012-2.316a1.41,1.41,0,0,1,1.268-.053l4.049,2.338c.325.187.285.515-.091.733l-4.012,2.316A1.412,1.412,0,0,1,434.319,260.308Z" transform="translate(-368.418 -217.746)" fill="#173d7a"/>
          <path id="Trazado_232900" data-name="Trazado 232900" d="M442.027,264.758l-4.049-2.338c-.325-.187-.284-.515.091-.733l4.012-2.316a1.41,1.41,0,0,1,1.268-.053l4.049,2.338c.325.187.285.515-.091.733l-4.012,2.316A1.412,1.412,0,0,1,442.027,264.758Z" transform="translate(-369.873 -218.586)" fill="#173d7a"/>
          <path id="Trazado_232901" data-name="Trazado 232901" d="M449.735,269.208l-4.049-2.338c-.325-.187-.285-.515.091-.733l4.012-2.316a1.409,1.409,0,0,1,1.269-.052l4.049,2.337c.325.188.284.516-.091.733L451,269.155A1.411,1.411,0,0,1,449.735,269.208Z" transform="translate(-371.328 -219.426)" fill="#173d7a"/>
          <path id="Trazado_232902" data-name="Trazado 232902" d="M457.443,273.658l-4.049-2.338c-.325-.187-.285-.515.091-.732l4.012-2.317a1.409,1.409,0,0,1,1.269-.052l4.049,2.337c.325.187.284.516-.092.733l-4.012,2.316A1.41,1.41,0,0,1,457.443,273.658Z" transform="translate(-372.783 -220.265)" fill="#173d7a"/>
          <path id="Trazado_232903" data-name="Trazado 232903" d="M465.15,278.108,461.1,275.77c-.324-.187-.284-.515.092-.732l4.012-2.316a1.405,1.405,0,0,1,1.268-.053l4.049,2.337c.325.188.285.516-.091.733l-4.012,2.316A1.412,1.412,0,0,1,465.15,278.108Z" transform="translate(-374.238 -221.105)" fill="#173d7a"/>
          <path id="Trazado_232904" data-name="Trazado 232904" d="M477.739,285.376l-8.835-5.1c-.325-.188-.285-.516.091-.733l4.012-2.316a1.41,1.41,0,0,1,1.268-.053l8.835,5.1c.325.187.285.515-.091.732l-4.012,2.316A1.409,1.409,0,0,1,477.739,285.376Z" transform="translate(-375.71 -221.956)" fill="#173d7a"/>
          <path id="Trazado_232905" data-name="Trazado 232905" d="M493.066,276.9l-7.457-4.3c-.325-.188-.284-.516.092-.733l4.012-2.316a1.411,1.411,0,0,1,1.268-.053l7.457,4.305c.325.187.285.515-.091.732l-4.012,2.317A1.409,1.409,0,0,1,493.066,276.9Z" transform="translate(-378.863 -220.506)" fill="#173d7a"/>
          <path id="Trazado_232906" data-name="Trazado 232906" d="M416.986,241.637l-4.049-2.338c-.325-.187-.284-.516.091-.733l4.012-2.316a1.41,1.41,0,0,1,1.268-.053l4.049,2.338c.325.187.285.515-.091.733l-4.012,2.316A1.412,1.412,0,0,1,416.986,241.637Z" transform="translate(-365.147 -214.222)" fill="#173d7a"/>
          <path id="Trazado_232907" data-name="Trazado 232907" d="M409.087,237.076l-4.049-2.338c-.325-.187-.285-.515.091-.732l4.012-2.317a1.409,1.409,0,0,1,1.269-.052l4.049,2.337c.325.188.284.516-.091.733l-4.012,2.316A1.41,1.41,0,0,1,409.087,237.076Z" transform="translate(-363.656 -213.361)" fill="#173d7a"/>
          <path id="Trazado_232908" data-name="Trazado 232908" d="M401.187,232.515l-4.049-2.337c-.325-.188-.284-.516.091-.733l4.012-2.316a1.405,1.405,0,0,1,1.268-.053l4.049,2.337c.325.188.285.516-.091.733l-4.012,2.316A1.412,1.412,0,0,1,401.187,232.515Z" transform="translate(-362.165 -212.5)" fill="#396caa"/>
          <path id="Trazado_232909" data-name="Trazado 232909" d="M393.288,227.954l-4.049-2.337c-.325-.188-.285-.516.091-.733l4.012-2.316a1.412,1.412,0,0,1,1.269-.053l4.049,2.338c.325.187.284.515-.091.732l-4.012,2.316A1.405,1.405,0,0,1,393.288,227.954Z" transform="translate(-360.674 -211.639)" fill="#173d7a"/>
          <path id="Trazado_232910" data-name="Trazado 232910" d="M424.694,246.087l-4.049-2.338c-.325-.187-.285-.515.091-.733l4.012-2.316a1.41,1.41,0,0,1,1.268-.053l4.049,2.338c.325.187.285.515-.091.733l-4.012,2.316A1.41,1.41,0,0,1,424.694,246.087Z" transform="translate(-366.602 -215.062)" fill="#173d7a"/>
          <path id="Trazado_232911" data-name="Trazado 232911" d="M432.4,250.537l-4.049-2.338c-.325-.187-.285-.515.091-.732l4.012-2.317a1.409,1.409,0,0,1,1.269-.052l4.049,2.337c.325.187.284.516-.091.733l-4.012,2.316A1.41,1.41,0,0,1,432.4,250.537Z" transform="translate(-368.056 -215.902)" fill="#173d7a"/>
          <path id="Trazado_232912" data-name="Trazado 232912" d="M440.11,254.987l-4.05-2.338c-.325-.187-.284-.515.092-.732l4.012-2.317a1.409,1.409,0,0,1,1.269-.052l4.049,2.337c.325.188.284.516-.092.733l-4.012,2.316A1.41,1.41,0,0,1,440.11,254.987Z" transform="translate(-369.511 -216.741)" fill="#173d7a"/>
          <path id="Trazado_232913" data-name="Trazado 232913" d="M447.817,259.437l-4.049-2.338c-.325-.187-.284-.515.091-.732l4.012-2.317a1.408,1.408,0,0,1,1.268-.052l4.049,2.337c.325.188.285.516-.091.733l-4.012,2.316A1.412,1.412,0,0,1,447.817,259.437Z" transform="translate(-370.966 -217.581)" fill="#173d7a"/>
          <path id="Trazado_232914" data-name="Trazado 232914" d="M455.525,263.887l-4.049-2.338c-.325-.187-.285-.515.091-.732l4.012-2.317a1.408,1.408,0,0,1,1.268-.052l4.049,2.337c.325.188.285.516-.091.733l-4.012,2.316A1.412,1.412,0,0,1,455.525,263.887Z" transform="translate(-372.421 -218.421)" fill="#173d7a"/>
          <path id="Trazado_232915" data-name="Trazado 232915" d="M463.233,268.337,459.184,266c-.325-.188-.285-.516.091-.733l4.012-2.316a1.407,1.407,0,0,1,1.269-.053l4.049,2.337c.325.188.284.516-.091.733l-4.012,2.316A1.41,1.41,0,0,1,463.233,268.337Z" transform="translate(-373.876 -219.261)" fill="#173d7a"/>
          <path id="Trazado_232916" data-name="Trazado 232916" d="M470.941,272.787l-4.05-2.338c-.324-.187-.284-.515.092-.732l4.012-2.316a1.41,1.41,0,0,1,1.269-.053l4.049,2.338c.324.187.284.515-.092.732l-4.012,2.316A1.408,1.408,0,0,1,470.941,272.787Z" transform="translate(-375.33 -220.101)" fill="#173d7a"/>
          <path id="Trazado_232917" data-name="Trazado 232917" d="M478.648,277.237,474.6,274.9c-.325-.188-.284-.516.091-.733l4.012-2.316a1.41,1.41,0,0,1,1.268-.053l4.049,2.338c.325.187.285.515-.091.732l-4.012,2.316A1.407,1.407,0,0,1,478.648,277.237Z" transform="translate(-376.785 -220.941)" fill="#173d7a"/>
          <path id="Trazado_232918" data-name="Trazado 232918" d="M486.356,281.687l-4.049-2.337c-.325-.188-.284-.516.091-.733l4.012-2.316a1.41,1.41,0,0,1,1.268-.053l4.049,2.338c.325.187.285.515-.091.732l-4.012,2.316A1.407,1.407,0,0,1,486.356,281.687Z" transform="translate(-378.24 -221.781)" fill="#173d7a"/>
          <path id="Trazado_232919" data-name="Trazado 232919" d="M412.928,230.63l-4.049-2.338c-.325-.187-.285-.515.091-.733l4.012-2.316a1.412,1.412,0,0,1,1.269-.053l4.049,2.338c.325.187.284.515-.092.733l-4.012,2.316A1.41,1.41,0,0,1,412.928,230.63Z" transform="translate(-364.381 -212.144)" fill="#173d7a"/>
          <path id="Trazado_232920" data-name="Trazado 232920" d="M405.258,226.2l-4.049-2.338c-.325-.187-.284-.515.091-.733l4.012-2.316a1.41,1.41,0,0,1,1.268-.053l4.049,2.338c.325.187.285.515-.091.733l-4.012,2.316A1.412,1.412,0,0,1,405.258,226.2Z" transform="translate(-362.933 -211.308)" fill="#173d7a"/>
          <path id="Trazado_232921" data-name="Trazado 232921" d="M397.589,221.774l-4.049-2.338c-.325-.187-.285-.515.091-.733l4.012-2.316a1.412,1.412,0,0,1,1.269-.053l4.049,2.338c.325.188.284.516-.091.733l-4.012,2.316A1.41,1.41,0,0,1,397.589,221.774Z" transform="translate(-361.486 -210.473)" fill="#173d7a"/>
          <path id="Trazado_232922" data-name="Trazado 232922" d="M389.919,217.346l-4.049-2.338c-.325-.187-.284-.515.092-.733l4.012-2.316a1.41,1.41,0,0,1,1.268-.053l4.049,2.338c.325.188.285.516-.091.733l-4.012,2.316A1.412,1.412,0,0,1,389.919,217.346Z" transform="translate(-360.038 -209.637)" fill="#173d7a"/>
          <path id="Trazado_232923" data-name="Trazado 232923" d="M397.806,213.154l-4.049-2.338c-.325-.187-.285-.516.091-.733l1.326-.766a1.408,1.408,0,0,1,1.268-.052l4.049,2.337c.325.188.285.516-.091.733l-1.326.766A1.41,1.41,0,0,1,397.806,213.154Z" transform="translate(-361.527 -209.138)" fill="#173d7a"/>
          <path id="Trazado_232924" data-name="Trazado 232924" d="M407.814,218.932l-4.049-2.338c-.324-.187-.284-.515.092-.732l1.326-.766a1.412,1.412,0,0,1,1.269-.053l4.049,2.338c.325.187.284.515-.091.732l-1.326.766A1.412,1.412,0,0,1,407.814,218.932Z" transform="translate(-363.416 -210.229)" fill="#173d7a"/>
          <path id="Trazado_232925" data-name="Trazado 232925" d="M415.452,223.341,411.4,221c-.325-.187-.285-.516.091-.733l1.326-.766a1.408,1.408,0,0,1,1.268-.052l4.049,2.337c.325.187.285.516-.091.733l-1.326.766A1.408,1.408,0,0,1,415.452,223.341Z" transform="translate(-364.857 -211.061)" fill="#173d7a"/>
          <path id="Trazado_232926" data-name="Trazado 232926" d="M423.089,227.751l-4.049-2.338c-.324-.187-.284-.515.092-.732l1.326-.766a1.412,1.412,0,0,1,1.269-.053l4.049,2.338c.325.187.284.515-.091.732l-1.326.766A1.412,1.412,0,0,1,423.089,227.751Z" transform="translate(-366.299 -211.893)" fill="#173d7a"/>
          <path id="Trazado_232927" data-name="Trazado 232927" d="M430.727,232.16l-4.049-2.337c-.325-.188-.285-.516.091-.733l1.326-.766a1.408,1.408,0,0,1,1.268-.052l4.049,2.337c.325.187.285.516-.091.733l-1.326.766A1.407,1.407,0,0,1,430.727,232.16Z" transform="translate(-367.74 -212.726)" fill="#173d7a"/>
          <path id="Trazado_232928" data-name="Trazado 232928" d="M473.366,256.778l-4.05-2.338c-.324-.187-.284-.515.092-.732l1.326-.766A1.41,1.41,0,0,1,472,252.89l4.049,2.338c.325.187.285.515-.091.732l-1.326.766A1.41,1.41,0,0,1,473.366,256.778Z" transform="translate(-375.788 -217.372)" fill="#173d7a"/>
          <path id="Trazado_232929" data-name="Trazado 232929" d="M481,261.187l-4.049-2.337c-.325-.188-.285-.516.091-.733l1.326-.766a1.41,1.41,0,0,1,1.268-.053l4.05,2.338c.324.188.284.516-.092.733l-1.326.766A1.407,1.407,0,0,1,481,261.187Z" transform="translate(-377.23 -218.204)" fill="#173d7a"/>
          <path id="Trazado_232930" data-name="Trazado 232930" d="M488.64,265.6l-4.049-2.338c-.324-.187-.284-.515.092-.732l1.326-.766a1.412,1.412,0,0,1,1.269-.053l4.049,2.338c.325.187.284.515-.091.732l-1.326.766A1.412,1.412,0,0,1,488.64,265.6Z" transform="translate(-378.671 -219.037)" fill="#173d7a"/>
          <path id="Trazado_232931" data-name="Trazado 232931" d="M496.278,270.006l-4.049-2.337c-.325-.188-.285-.516.091-.733l1.326-.766a1.41,1.41,0,0,1,1.268-.053l4.049,2.338c.325.188.285.516-.091.733l-1.326.766A1.408,1.408,0,0,1,496.278,270.006Z" transform="translate(-380.113 -219.869)" fill="#173d7a"/>
          <path id="Trazado_232932" data-name="Trazado 232932" d="M420.635,235.08l-4.049-2.338c-.324-.187-.284-.515.092-.733l4.012-2.316a1.41,1.41,0,0,1,1.268-.053l4.049,2.338c.325.187.285.516-.091.733l-4.012,2.316A1.412,1.412,0,0,1,420.635,235.08Z" transform="translate(-365.836 -212.984)" fill="#173d7a"/>
          <path id="Trazado_232933" data-name="Trazado 232933" d="M428.343,239.53l-4.049-2.338c-.325-.187-.284-.515.091-.733l4.013-2.316a1.407,1.407,0,0,1,1.268-.052l4.049,2.337c.325.188.285.516-.091.733l-4.012,2.316A1.412,1.412,0,0,1,428.343,239.53Z" transform="translate(-367.29 -213.824)" fill="#173d7a"/>
          <path id="Trazado_232934" data-name="Trazado 232934" d="M436.051,243.98,432,241.642c-.325-.187-.285-.515.091-.732l4.012-2.317a1.409,1.409,0,0,1,1.269-.052l4.049,2.337c.325.188.284.516-.091.733l-4.012,2.316A1.41,1.41,0,0,1,436.051,243.98Z" transform="translate(-368.745 -214.664)" fill="#173d7a"/>
          <path id="Trazado_232935" data-name="Trazado 232935" d="M443.759,248.43l-4.049-2.338c-.325-.187-.285-.515.091-.732l4.012-2.316a1.407,1.407,0,0,1,1.269-.053l4.049,2.337c.325.188.284.516-.092.733l-4.012,2.316A1.41,1.41,0,0,1,443.759,248.43Z" transform="translate(-370.2 -215.504)" fill="#173d7a"/>
          <path id="Trazado_232936" data-name="Trazado 232936" d="M451.466,252.88l-4.049-2.338c-.325-.187-.284-.515.092-.732l4.012-2.317a1.408,1.408,0,0,1,1.268-.052l4.05,2.337c.324.188.284.516-.092.733l-4.012,2.316A1.412,1.412,0,0,1,451.466,252.88Z" transform="translate(-371.655 -216.344)" fill="#173d7a"/>
          <path id="Trazado_232937" data-name="Trazado 232937" d="M459.174,257.33l-4.049-2.337c-.325-.188-.284-.516.091-.733l4.013-2.316a1.405,1.405,0,0,1,1.268-.053l4.049,2.337c.325.188.285.516-.091.733l-4.012,2.316A1.412,1.412,0,0,1,459.174,257.33Z" transform="translate(-373.11 -217.184)" fill="#173d7a"/>
          <path id="Trazado_232938" data-name="Trazado 232938" d="M466.882,261.78l-4.049-2.337c-.325-.188-.285-.516.091-.733l4.012-2.316a1.409,1.409,0,0,1,1.269-.053l4.049,2.338c.325.187.285.515-.091.732l-4.012,2.316A1.408,1.408,0,0,1,466.882,261.78Z" transform="translate(-374.564 -218.024)" fill="#173d7a"/>
          <path id="Trazado_232939" data-name="Trazado 232939" d="M474.59,266.23l-4.049-2.337c-.325-.188-.285-.516.091-.733l4.012-2.316a1.412,1.412,0,0,1,1.269-.053l4.049,2.338c.325.187.284.515-.091.732l-4.012,2.316A1.405,1.405,0,0,1,474.59,266.23Z" transform="translate(-376.019 -218.864)" fill="#173d7a"/>
          <path id="Trazado_232940" data-name="Trazado 232940" d="M482.3,270.68l-4.049-2.337c-.325-.188-.284-.516.092-.733l4.012-2.316a1.41,1.41,0,0,1,1.268-.053l4.05,2.338c.325.187.284.515-.092.732l-4.012,2.316A1.407,1.407,0,0,1,482.3,270.68Z" transform="translate(-377.474 -219.704)" fill="#173d7a"/>
          <path id="Trazado_232941" data-name="Trazado 232941" d="M374.737,234.571l-11.925-6.884c-.325-.188-.285-.516.091-.733l4.012-2.316a1.41,1.41,0,0,1,1.269-.053l11.925,6.885c.325.187.284.515-.091.732L376,234.519A1.405,1.405,0,0,1,374.737,234.571Z" transform="translate(-355.686 -212.03)" fill="#173d7a"/>
          <path id="Trazado_232942" data-name="Trazado 232942" d="M469.428,289.241,457.5,282.357c-.325-.188-.284-.516.092-.733l4.012-2.316a1.41,1.41,0,0,1,1.268-.053l11.925,6.885c.324.187.284.515-.092.732l-4.012,2.317A1.408,1.408,0,0,1,469.428,289.241Z" transform="translate(-373.558 -222.349)" fill="#173d7a"/>
          <path id="Trazado_232943" data-name="Trazado 232943" d="M440.436,282.23l-4.049-2.338c-.325-.187-.284-.516.091-.733l4.78-2.759a1.41,1.41,0,0,1,1.268-.053l4.049,2.338c.325.187.285.515-.091.733l-4.779,2.759A1.412,1.412,0,0,1,440.436,282.23Z" transform="translate(-369.573 -221.8)" fill="#173d7a"/>
          <path id="Trazado_232944" data-name="Trazado 232944" d="M383.9,249.587l-6.475-3.738c-.325-.188-.284-.516.091-.733l4.78-2.759a1.405,1.405,0,0,1,1.268-.053l6.475,3.738c.325.188.285.516-.091.733l-4.779,2.759A1.412,1.412,0,0,1,383.9,249.587Z" transform="translate(-358.444 -215.374)" fill="#173d7a"/>
          <path id="Trazado_232945" data-name="Trazado 232945" d="M432.445,277.616l-6.476-3.739c-.324-.187-.284-.515.092-.732l4.779-2.76a1.408,1.408,0,0,1,1.268-.052l6.476,3.738c.324.187.284.516-.092.733l-4.779,2.759A1.41,1.41,0,0,1,432.445,277.616Z" transform="translate(-367.607 -220.664)" fill="#173d7a"/>
          <path id="Trazado_232946" data-name="Trazado 232946" d="M395.018,256.008l-6.475-3.739c-.325-.187-.285-.515.091-.733l4.779-2.759a1.412,1.412,0,0,1,1.269-.053l6.475,3.739c.325.187.284.515-.091.733l-4.78,2.759A1.41,1.41,0,0,1,395.018,256.008Z" transform="translate(-360.543 -216.586)" fill="#173d7a"/>
          <path id="Trazado_232947" data-name="Trazado 232947" d="M394.787,248.786l28.154,16.254a.385.385,0,0,1,0,.73l-4.874,2.814a1.4,1.4,0,0,1-1.265,0L388.648,252.33Z" transform="translate(-360.604 -216.622)" fill="#173d7a"/>
          <path id="Trazado_232948" data-name="Trazado 232948" d="M462.215,291.672l4.511,2.6c.266.154.233.423-.075.6L464.7,296a1.155,1.155,0,0,1-1.04.043l-4.51-2.6c-.267-.153-.234-.422.075-.6l1.955-1.129A1.154,1.154,0,0,1,462.215,291.672Z" transform="translate(-373.876 -224.696)" fill="#173d7a"/>
          <path id="Trazado_232949" data-name="Trazado 232949" d="M454.443,287.185l4.511,2.6c.266.154.233.423-.075.6l-1.955,1.128a1.153,1.153,0,0,1-1.039.043l-4.511-2.6c-.266-.154-.233-.423.075-.6l1.955-1.129A1.156,1.156,0,0,1,454.443,287.185Z" transform="translate(-372.409 -223.849)" fill="#173d7a"/>
          <path id="Trazado_232950" data-name="Trazado 232950" d="M446.736,282.735l4.51,2.6c.267.154.234.423-.075.6l-1.955,1.128a1.154,1.154,0,0,1-1.039.043l-4.511-2.6c-.266-.153-.233-.422.075-.6l1.955-1.129A1.155,1.155,0,0,1,446.736,282.735Z" transform="translate(-370.954 -223.009)" fill="#173d7a"/>
          <path id="Trazado_232951" data-name="Trazado 232951" d="M458.7,284.728l4.51,2.6c.267.153.234.422-.075.6l-1.955,1.129a1.154,1.154,0,0,1-1.039.043l-4.511-2.6c-.266-.154-.233-.423.075-.6l1.955-1.128A1.155,1.155,0,0,1,458.7,284.728Z" transform="translate(-373.212 -223.386)" fill="#173d7a"/>
        </g>
      </g>
      <g id="Grupo_168875" data-name="Grupo 168875" transform="translate(113.939 56.177)">
        <g id="Grupo_168874" data-name="Grupo 168874">
          <path id="Trazado_232952" data-name="Trazado 232952" d="M466.674,174.229l-3.872-2.236a1.6,1.6,0,0,1-.665-1.249h0c-.007-.483.277-.706.637-.5l3.872,2.236a1.6,1.6,0,0,1,.665,1.249h0C467.318,174.214,467.034,174.437,466.674,174.229Z" transform="translate(-452.912 -164.842)" fill="#d4ecff"/>
          <path id="Trazado_232953" data-name="Trazado 232953" d="M477.618,180.547l-5.71-3.3a1.6,1.6,0,0,1-.664-1.249h0c-.008-.482.277-.7.636-.5l5.71,3.3a1.6,1.6,0,0,1,.665,1.249h0C478.262,180.532,477.977,180.755,477.618,180.547Z" transform="translate(-454.631 -165.835)" fill="#d4ecff"/>
          <path id="Trazado_232954" data-name="Trazado 232954" d="M464.309,199.685l-3.873-2.236a1.6,1.6,0,0,1-.664-1.249h0c-.008-.483.277-.706.637-.5l3.872,2.236a1.6,1.6,0,0,1,.665,1.249h0C464.953,199.67,464.669,199.893,464.309,199.685Z" transform="translate(-452.466 -169.647)" fill="#d4ecff"/>
          <path id="Trazado_232955" data-name="Trazado 232955" d="M474.018,205.29l-5.71-3.3a1.6,1.6,0,0,1-.664-1.249h0c-.008-.482.277-.7.637-.5l5.71,3.3a1.6,1.6,0,0,1,.665,1.249h0C474.662,205.275,474.377,205.5,474.018,205.29Z" transform="translate(-453.951 -170.505)" fill="#d4ecff"/>
          <path id="Trazado_232956" data-name="Trazado 232956" d="M453.923,171.338l-2.419-1.4a1.6,1.6,0,0,1-.665-1.249h0c-.007-.482.277-.705.637-.5l2.419,1.4a1.6,1.6,0,0,1,.664,1.249h0C454.568,171.322,454.283,171.545,453.923,171.338Z" transform="translate(-450.78 -164.455)" fill="#d4ecff"/>
          <path id="Trazado_232957" data-name="Trazado 232957" d="M462.95,181.02l-7.391-4.268a1.6,1.6,0,0,1-.664-1.249h0c-.008-.482.277-.7.636-.5l7.391,4.267a1.6,1.6,0,0,1,.665,1.249h0C463.594,181,463.309,181.226,462.95,181.02Z" transform="translate(-451.545 -165.741)" fill="#d4ecff"/>
          <path id="Trazado_232958" data-name="Trazado 232958" d="M458.124,187.173l-2.419-1.4a1.6,1.6,0,0,1-.664-1.249h0c-.008-.482.277-.7.636-.5l2.419,1.4a1.6,1.6,0,0,1,.665,1.249h0C458.768,187.158,458.483,187.381,458.124,187.173Z" transform="translate(-451.573 -167.444)" fill="#d4ecff"/>
          <path id="Trazado_232959" data-name="Trazado 232959" d="M477.363,216.162l-6.462-3.731a1.6,1.6,0,0,1-.664-1.249h0c-.008-.482.277-.7.636-.5l6.462,3.731a1.6,1.6,0,0,1,.664,1.249h0C478.007,216.147,477.722,216.37,477.363,216.162Z" transform="translate(-454.441 -172.475)" fill="#d4ecff"/>
          <path id="Trazado_232960" data-name="Trazado 232960" d="M457.4,195.7l-1.554-.9a1.6,1.6,0,0,1-.664-1.249h0c-.008-.482.277-.7.637-.5l1.553.9a1.6,1.6,0,0,1,.664,1.249h0C458.048,195.682,457.763,195.906,457.4,195.7Z" transform="translate(-451.6 -169.147)" fill="#d4ecff"/>
          <path id="Trazado_232961" data-name="Trazado 232961" d="M457.926,204.94,456,203.826a1.6,1.6,0,0,1-.665-1.249h0c-.007-.482.277-.7.637-.5l1.928,1.114a1.6,1.6,0,0,1,.664,1.249h0C458.57,204.924,458.285,205.147,457.926,204.94Z" transform="translate(-451.628 -170.851)" fill="#d4ecff"/>
          <path id="Trazado_232962" data-name="Trazado 232962" d="M466.439,209.855l-5.085-2.936a1.6,1.6,0,0,1-.664-1.249h0c-.008-.483.277-.706.636-.5l5.085,2.935a1.6,1.6,0,0,1,.664,1.249h0C467.083,209.84,466.8,210.062,466.439,209.855Z" transform="translate(-452.639 -171.435)" fill="#d4ecff"/>
          <path id="Trazado_232963" data-name="Trazado 232963" d="M459.726,210.449l-3.655-2.11a1.6,1.6,0,0,1-.664-1.249h0c-.008-.483.277-.706.636-.5L459.7,208.7a1.6,1.6,0,0,1,.664,1.249h0C460.37,210.434,460.085,210.657,459.726,210.449Z" transform="translate(-451.642 -171.702)" fill="#d4ecff"/>
          <path id="Trazado_232964" data-name="Trazado 232964" d="M485.158,220.682l-2.348-1.356a1.6,1.6,0,0,1-.664-1.249h0c-.008-.483.277-.706.636-.5l2.348,1.356a1.6,1.6,0,0,1,.665,1.249h0C485.8,220.667,485.518,220.89,485.158,220.682Z" transform="translate(-456.689 -173.776)" fill="#d4ecff"/>
          <path id="Trazado_232965" data-name="Trazado 232965" d="M468.276,193.035l-6.462-3.73a1.6,1.6,0,0,1-.664-1.249h0c-.008-.483.277-.706.636-.5l6.462,3.731a1.6,1.6,0,0,1,.664,1.249h0C468.92,193.019,468.635,193.242,468.276,193.035Z" transform="translate(-452.726 -168.11)" fill="#d4ecff"/>
          <path id="Trazado_232966" data-name="Trazado 232966" d="M466.893,187.766l-11.262-6.5a1.6,1.6,0,0,1-.664-1.249h0c-.008-.483.277-.706.636-.5l11.262,6.5a1.6,1.6,0,0,1,.664,1.249h0C467.537,187.75,467.253,187.973,466.893,187.766Z" transform="translate(-451.559 -166.592)" fill="#d4ecff"/>
          <path id="Trazado_232967" data-name="Trazado 232967" d="M462.239,194.02l-6.462-3.73a1.6,1.6,0,0,1-.664-1.249h0c-.008-.483.277-.706.636-.5l6.462,3.731a1.6,1.6,0,0,1,.665,1.249h0C462.883,194,462.6,194.227,462.239,194.02Z" transform="translate(-451.586 -168.296)" fill="#d4ecff"/>
          <path id="Trazado_232968" data-name="Trazado 232968" d="M475.274,197.075l-2.348-1.356a1.6,1.6,0,0,1-.664-1.249h0c-.008-.483.277-.706.636-.5l2.348,1.356a1.6,1.6,0,0,1,.665,1.249h0C475.918,197.06,475.634,197.283,475.274,197.075Z" transform="translate(-454.823 -169.321)" fill="#d4ecff"/>
          <path id="Trazado_232969" data-name="Trazado 232969" d="M497.181,191.842l-13.9-8.027a1.6,1.6,0,0,1-.664-1.249h0c-.008-.482.277-.7.636-.5l13.9,8.027a1.6,1.6,0,0,1,.665,1.249h0C497.825,191.827,497.54,192.05,497.181,191.842Z" transform="translate(-456.777 -167.074)" fill="#d4ecff"/>
          <path id="Trazado_232970" data-name="Trazado 232970" d="M463.691,203.8l-7.767-4.484a1.6,1.6,0,0,1-.665-1.249h0c-.007-.483.277-.706.637-.5l7.767,4.485a1.6,1.6,0,0,1,.664,1.249h0C464.335,203.783,464.051,204.006,463.691,203.8Z" transform="translate(-451.614 -169.999)" fill="#d4ecff"/>
          <path id="Trazado_232971" data-name="Trazado 232971" d="M457.142,168.725l-5.71-3.3a1.6,1.6,0,0,1-.665-1.249h0c-.007-.483.277-.706.637-.5l5.71,3.3a1.6,1.6,0,0,1,.664,1.249h0C457.786,168.71,457.5,168.932,457.142,168.725Z" transform="translate(-450.766 -163.603)" fill="#d4ecff"/>
          <path id="Trazado_232972" data-name="Trazado 232972" d="M458.776,214.371l-6.613-3.818a1.6,1.6,0,0,1-.664-1.249h0c-.008-.483.277-.706.636-.5l6.613,3.819a1.6,1.6,0,0,1,.665,1.249h0C459.42,214.356,459.135,214.579,458.776,214.371Z" transform="translate(-450.904 -172.12)" fill="#d4ecff"/>
        </g>
      </g>
    </g>
    <g id="Grupo_168883" data-name="Grupo 168883" transform="translate(251.487 43.389)">
      <g id="Grupo_168877" data-name="Grupo 168877">
        <path id="Trazado_232973" data-name="Trazado 232973" d="M251.985,217.355l34.065-19.834c6.748-3.9,13.112-4.513,17.921-1.739s7.455,8.6,7.455,16.387v2.5c-.242.163-.493.322-.751.479V212.17c0-7.511-2.515-13.1-7.079-15.737s-10.663-2.018-17.169,1.739l-34.065,19.834a.376.376,0,0,1-.376-.651Z" transform="translate(-251.798 -71.829)" fill="#d4ecff"/>
        <path id="Trazado_232974" data-name="Trazado 232974" d="M379.044,165.287V88.52c0-15.365,10.827-34.118,24.135-41.8,6.517-3.763,12.665-4.359,17.309-1.678s7.2,8.3,7.2,15.828v5.353l-.751.751v-6.1c0-7.246-2.424-12.636-6.826-15.177s-10.282-1.945-16.558,1.677C390.453,54.933,379.8,73.393,379.8,88.52v76.767c0,12.737-7.494,27.811-17.657,36.882v-1.008C371.9,192.191,379.044,177.624,379.044,165.287Z" transform="translate(-272.624 -43.389)" fill="#d4ecff"/>
        <path id="Trazado_232975" data-name="Trazado 232975" d="M442.765,72.648h0a30.15,30.15,0,0,1,15.378-7.528c9.505-1.453,13.434,9.663,13.434,9.663a61.278,61.278,0,0,1,1.06,9.192c-.039,3.417-.284,15.828-.284,15.828L442.221,82.443v0a.373.373,0,0,1-.207-.331V73.3C442.265,73.047,442.515,72.9,442.765,72.648Z" transform="translate(-287.7 -47.466)" fill="#173d7a"/>
      </g>
      <g id="Grupo_168881" data-name="Grupo 168881" transform="translate(0.145 0.14)">
        <g id="Grupo_168879" data-name="Grupo 168879">
          <path id="Trazado_232976" data-name="Trazado 232976" d="M449.031,61.539,420.47,45.073l.112.41c-4.4-2.843-11.055-3.15-19.954,3.376-17.676,12.962-19.8,31.008-20.7,34.389s-.531,24.8-.531,24.8-.059,51.671-.118,57.681-1.808,12.752-5.185,20.032-12.049,16.114-12.049,16.114V212.4c1.384,11.371,6.216,14.023,13.4,14.672,5.8.522,11.982-3.666,16.921-8.231-.182.19-.3.311-.3.311v10.517c1.385,11.371,6.216,14.022,13.4,14.671s14.961-5.936,20.229-11.509,9.709-14.083,12.176-21.76,1.65-17.6,1.65-17.6.059-56.483.118-67.618.413-9.192,4.065-20.386,13.336-19.031,13.336-19.031l23.235-6.919Z" transform="translate(-272.751 -43.561)" fill="#d4ecff"/>
          <path id="Trazado_232977" data-name="Trazado 232977" d="M392.2,275.933c-.392-.532-5.481-3.945-6.777-9.954a46.905,46.905,0,0,1-.648-8.426s.021-2.826.089-5.4c.057-.05.115-.1.172-.147V251c-.047.043-.095.081-.141.123.019-.58.041-1.124.067-1.586.148-2.671-1.826-8.366-1.826-8.366s-2.8-7.63-11.136-7.924c-7.4-.262-15.193,5.063-16.851,6.263v-3.445c-.109.075-.229.146-.342.219.009-.462.02-.934.032-1.4.057-.049.115-.1.172-.146v-1.008c-.046.042-.095.081-.141.123.02-.58.041-1.124.067-1.586.147-2.671-1.827-8.367-1.827-8.367s-2.8-7.631-11.135-7.925c-7.4-.261-15.193,5.064-16.851,6.264V218.8c-.242.163-.493.322-.751.479v6.032c0,7.309,2.435,12.8,6.856,15.528l.018.02.154.089c.041.024.08.053.122.077s.056.025.083.041l30.57,17.6c-.007-.011-.028-.028-.039-.041Z" transform="translate(-265.64 -76.103)" fill="#173d7a"/>
          <g id="Grupo_168878" data-name="Grupo 168878" transform="translate(0 122.426)">
            <path id="Trazado_232978" data-name="Trazado 232978" d="M334.03,213.125s-.23-.118-.633-.282c-.124-.06-.244-.13-.37-.187L304,195.857a15.577,15.577,0,0,0-11.783-.441c-6.449,2.361-40.246,22.636-40.246,22.636l30.193,17.394.006,0a.337.337,0,0,0,.08.022l29.94,17.249s16.938-10.494,28.657-17.264l.751-.433c4.791-2.755,8.6-4.812,9.79-5.129,7.225-1.915,12.252.419,13.561,1.137Z" transform="translate(-251.976 -194.47)" fill="#d4ecff"/>
            <path id="Trazado_232979" data-name="Trazado 232979" d="M391.239,239.529l.35.2S391.46,239.651,391.239,239.529Z" transform="translate(-278.261 -202.975)" fill="#d4ecff"/>
          </g>
        </g>
        <path id="Trazado_232980" data-name="Trazado 232980" d="M479.777,93.933h0A30.15,30.15,0,0,1,495.155,86.4c9.505-1.453,13.434,9.663,13.434,9.663a61.39,61.39,0,0,1,1.06,9.192c-.04,3.417-.284,15.828-.284,15.828l-30.132-17.358v0a.372.372,0,0,1-.207-.331v-8.81C479.276,94.332,479.526,94.184,479.777,93.933Z" transform="translate(-294.83 -51.623)" fill="#173d7a"/>
        <g id="Grupo_168880" data-name="Grupo 168880" transform="translate(60.026 34.492)">
          <path id="Trazado_232981" data-name="Trazado 232981" d="M398.373,252.782a21.967,21.967,0,0,0,10.805-3.307c13.212-7.627,23.96-26.245,23.96-41.5V131.21c0-15.127,10.658-33.587,23.76-41.152,6.276-3.621,12.155-4.219,16.557-1.678s6.826,7.932,6.826,15.179V120.72a.376.376,0,0,0,.751,0V103.559c0-7.526-2.557-13.147-7.2-15.828s-10.791-2.085-17.308,1.678c-13.309,7.683-24.136,26.436-24.136,41.8v76.767c0,15.016-10.58,33.34-23.584,40.849-6.227,3.595-12.064,4.188-16.434,1.665s-6.775-7.872-6.775-15.064v-9.007c0-7.792-2.647-13.612-7.455-16.387s-11.171-2.158-17.92,1.739L326.155,231.6a.375.375,0,0,0,.376.65L360.6,212.421c6.505-3.756,12.6-4.374,17.169-1.739s7.079,8.225,7.079,15.737v9.007c0,7.472,2.539,13.052,7.15,15.715A12.6,12.6,0,0,0,398.373,252.782Z" transform="translate(-325.968 -86.078)" fill="#396caa"/>
        </g>
      </g>
      <path id="Trazado_232982" data-name="Trazado 232982" d="M416.744,163.674l-5.035-2.908a2.081,2.081,0,0,1-.865-1.625h0c-.01-.627.361-.917.828-.647l5.035,2.908a2.078,2.078,0,0,1,.864,1.624h0C417.582,163.654,417.211,163.944,416.744,163.674Z" transform="translate(-281.817 -65.095)" fill="#5793ce"/>
      <path id="Trazado_232983" data-name="Trazado 232983" d="M429.369,170.963l-7.425-4.288a2.078,2.078,0,0,1-.864-1.624h0c-.011-.628.36-.918.828-.648l7.425,4.287a2.077,2.077,0,0,1,.864,1.624h0C430.207,170.943,429.837,171.233,429.369,170.963Z" transform="translate(-283.749 -66.211)" fill="#5793ce"/>
      <path id="Trazado_232984" data-name="Trazado 232984" d="M414.977,139.4l-9.612-5.55a2.076,2.076,0,0,1-.864-1.624h0c-.011-.627.36-.918.827-.647l9.612,5.549a2.078,2.078,0,0,1,.864,1.625h0C415.815,139.382,415.444,139.671,414.977,139.4Z" transform="translate(-280.62 -60.015)" fill="#5793ce"/>
      <path id="Trazado_232985" data-name="Trazado 232985" d="M408.7,147.4l-3.146-1.816a2.082,2.082,0,0,1-.864-1.624h0c-.01-.628.36-.918.827-.648l3.146,1.816a2.078,2.078,0,0,1,.864,1.625h0C409.539,147.384,409.168,147.674,408.7,147.4Z" transform="translate(-280.655 -62.23)" fill="#5793ce"/>
      <path id="Trazado_232986" data-name="Trazado 232986" d="M407.765,158.49l-2.019-1.166a2.081,2.081,0,0,1-.865-1.625h0c-.01-.627.36-.917.827-.647l2.019,1.166a2.081,2.081,0,0,1,.865,1.625h0C408.6,158.469,408.232,158.759,407.765,158.49Z" transform="translate(-280.691 -64.445)" fill="#5793ce"/>
      <path id="Trazado_232987" data-name="Trazado 232987" d="M421.9,155.026l-8.4-4.851a2.08,2.08,0,0,1-.865-1.624h0c-.01-.627.36-.918.828-.647l8.4,4.85a2.081,2.081,0,0,1,.865,1.625h0C422.74,155.006,422.37,155.3,421.9,155.026Z" transform="translate(-282.155 -63.096)" fill="#5793ce"/>
      <path id="Trazado_232988" data-name="Trazado 232988" d="M420.1,148.175,405.46,139.72a2.076,2.076,0,0,1-.864-1.624h0c-.011-.628.36-.918.827-.647l14.644,8.455a2.08,2.08,0,0,1,.865,1.624h0C420.942,148.155,420.572,148.445,420.1,148.175Z" transform="translate(-280.638 -61.123)" fill="#5793ce"/>
      <path id="Trazado_232989" data-name="Trazado 232989" d="M414.053,156.307l-8.4-4.851a2.081,2.081,0,0,1-.865-1.624h0c-.01-.628.36-.918.828-.648l8.4,4.851a2.081,2.081,0,0,1,.865,1.624h0C414.89,156.287,414.52,156.577,414.053,156.307Z" transform="translate(-280.673 -63.338)" fill="#5793ce"/>
      <path id="Trazado_232990" data-name="Trazado 232990" d="M431,160.28l-3.053-1.762a2.078,2.078,0,0,1-.864-1.625h0c-.01-.627.36-.917.827-.647l3.053,1.763a2.076,2.076,0,0,1,.864,1.624h0C431.841,160.26,431.47,160.55,431,160.28Z" transform="translate(-284.882 -64.671)" fill="#5793ce"/>
      <g id="Grupo_168882" data-name="Grupo 168882" transform="translate(119.527 59.519)">
        <path id="Trazado_232991" data-name="Trazado 232991" d="M419.82,130.572l-5.035-2.908a2.081,2.081,0,0,1-.865-1.625h0c-.01-.627.36-.917.828-.647l5.036,2.908a2.078,2.078,0,0,1,.864,1.625h0C420.658,130.552,420.287,130.842,419.82,130.572Z" transform="translate(-401.924 -118.366)" fill="#5793ce"/>
        <path id="Trazado_232992" data-name="Trazado 232992" d="M434.05,138.788l-7.425-4.287a2.077,2.077,0,0,1-.864-1.624h0c-.01-.628.36-.918.828-.647l7.425,4.287a2.078,2.078,0,0,1,.864,1.624h0C434.888,138.768,434.518,139.058,434.05,138.788Z" transform="translate(-404.159 -119.657)" fill="#5793ce"/>
        <path id="Trazado_232993" data-name="Trazado 232993" d="M416.744,163.674l-5.035-2.908a2.081,2.081,0,0,1-.865-1.625h0c-.01-.627.361-.917.828-.647l5.035,2.908a2.078,2.078,0,0,1,.864,1.624h0C417.582,163.654,417.211,163.944,416.744,163.674Z" transform="translate(-401.344 -124.614)" fill="#5793ce"/>
        <path id="Trazado_232994" data-name="Trazado 232994" d="M429.369,170.963l-7.425-4.288a2.078,2.078,0,0,1-.864-1.624h0c-.011-.628.36-.918.828-.648l7.425,4.287a2.077,2.077,0,0,1,.864,1.624h0C430.207,170.943,429.837,171.233,429.369,170.963Z" transform="translate(-403.276 -125.729)" fill="#5793ce"/>
        <path id="Trazado_232995" data-name="Trazado 232995" d="M403.239,126.812,400.093,125a2.083,2.083,0,0,1-.864-1.625h0c-.011-.627.36-.917.828-.647l3.146,1.816a2.078,2.078,0,0,1,.864,1.624h0C404.077,126.792,403.706,127.082,403.239,126.812Z" transform="translate(-399.152 -117.862)" fill="#5793ce"/>
        <path id="Trazado_232996" data-name="Trazado 232996" d="M414.977,139.4l-9.612-5.55a2.076,2.076,0,0,1-.864-1.624h0c-.011-.627.36-.918.827-.647l9.612,5.549a2.078,2.078,0,0,1,.864,1.625h0C415.815,139.382,415.444,139.671,414.977,139.4Z" transform="translate(-400.147 -119.534)" fill="#5793ce"/>
        <path id="Trazado_232997" data-name="Trazado 232997" d="M408.7,147.4l-3.146-1.816a2.082,2.082,0,0,1-.864-1.624h0c-.01-.628.36-.918.827-.648l3.146,1.816a2.078,2.078,0,0,1,.864,1.625h0C409.539,147.384,409.168,147.674,408.7,147.4Z" transform="translate(-400.183 -121.749)" fill="#5793ce"/>
        <path id="Trazado_232998" data-name="Trazado 232998" d="M433.719,185.1l-8.4-4.851a2.081,2.081,0,0,1-.865-1.624h0c-.01-.628.36-.918.827-.647l8.4,4.85a2.081,2.081,0,0,1,.865,1.625h0C434.556,185.08,434.186,185.37,433.719,185.1Z" transform="translate(-403.912 -128.291)" fill="#5793ce"/>
        <path id="Trazado_232999" data-name="Trazado 232999" d="M407.765,158.49l-2.019-1.166a2.081,2.081,0,0,1-.865-1.625h0c-.01-.627.36-.917.827-.647l2.019,1.166a2.081,2.081,0,0,1,.865,1.625h0C408.6,158.469,408.232,158.759,407.765,158.49Z" transform="translate(-400.218 -123.964)" fill="#5793ce"/>
        <path id="Trazado_233000" data-name="Trazado 233000" d="M408.443,170.507l-2.508-1.448a2.08,2.08,0,0,1-.865-1.624h0c-.01-.627.361-.918.827-.647l2.508,1.448a2.078,2.078,0,0,1,.864,1.624h0C409.281,170.487,408.911,170.777,408.443,170.507Z" transform="translate(-400.254 -126.179)" fill="#5793ce"/>
        <path id="Trazado_233001" data-name="Trazado 233001" d="M419.514,176.9l-6.611-3.817a2.081,2.081,0,0,1-.865-1.625h0c-.01-.627.36-.917.827-.647l6.612,3.817a2.078,2.078,0,0,1,.864,1.625h0C420.352,176.879,419.981,177.168,419.514,176.9Z" transform="translate(-401.569 -126.938)" fill="#5793ce"/>
        <path id="Trazado_233002" data-name="Trazado 233002" d="M410.784,177.671l-4.753-2.744a2.08,2.08,0,0,1-.865-1.624h0c-.01-.628.361-.918.828-.647l4.753,2.744a2.08,2.08,0,0,1,.865,1.624h0C411.622,177.651,411.251,177.942,410.784,177.671Z" transform="translate(-400.272 -127.287)" fill="#5793ce"/>
        <path id="Trazado_233003" data-name="Trazado 233003" d="M421.9,155.026l-8.4-4.851a2.08,2.08,0,0,1-.865-1.624h0c-.01-.627.36-.918.828-.647l8.4,4.85a2.081,2.081,0,0,1,.865,1.625h0C422.74,155.006,422.37,155.3,421.9,155.026Z" transform="translate(-401.682 -122.615)" fill="#5793ce"/>
        <path id="Trazado_233004" data-name="Trazado 233004" d="M420.1,148.175,405.46,139.72a2.076,2.076,0,0,1-.864-1.624h0c-.011-.628.36-.918.827-.647l14.644,8.455a2.08,2.08,0,0,1,.865,1.624h0C420.942,148.155,420.572,148.445,420.1,148.175Z" transform="translate(-400.165 -120.642)" fill="#5793ce"/>
        <path id="Trazado_233005" data-name="Trazado 233005" d="M414.053,156.307l-8.4-4.851a2.081,2.081,0,0,1-.865-1.624h0c-.01-.628.36-.918.828-.648l8.4,4.851a2.081,2.081,0,0,1,.865,1.624h0C414.89,156.287,414.52,156.577,414.053,156.307Z" transform="translate(-400.201 -122.857)" fill="#5793ce"/>
        <path id="Trazado_233006" data-name="Trazado 233006" d="M431,160.28l-3.053-1.762a2.078,2.078,0,0,1-.864-1.625h0c-.01-.627.36-.917.827-.647l3.053,1.763a2.076,2.076,0,0,1,.864,1.624h0C431.841,160.26,431.47,160.55,431,160.28Z" transform="translate(-404.409 -124.19)" fill="#5793ce"/>
        <path id="Trazado_233007" data-name="Trazado 233007" d="M415.941,169.023l-10.1-5.831a2.081,2.081,0,0,1-.865-1.625h0c-.01-.627.36-.918.827-.647l10.1,5.831a2.081,2.081,0,0,1,.865,1.624h0C416.778,169,416.408,169.292,415.941,169.023Z" transform="translate(-400.236 -125.072)" fill="#5793ce"/>
        <path id="Trazado_233008" data-name="Trazado 233008" d="M407.423,123.415,400,119.128a2.078,2.078,0,0,1-.864-1.625h0c-.011-.627.36-.917.827-.647l7.425,4.287a2.077,2.077,0,0,1,.864,1.624h0C408.261,123.4,407.891,123.685,407.423,123.415Z" transform="translate(-399.134 -116.755)" fill="#5793ce"/>
        <path id="Trazado_233009" data-name="Trazado 233009" d="M409.549,182.772l-8.6-4.966a2.077,2.077,0,0,1-.864-1.624h0c-.011-.627.36-.918.827-.647l8.6,4.965a2.078,2.078,0,0,1,.864,1.625h0C410.387,182.751,410.016,183.041,409.549,182.772Z" transform="translate(-399.313 -127.83)" fill="#5793ce"/>
      </g>
      <path id="Trazado_233010" data-name="Trazado 233010" d="M415.285,219.358l-5.036-2.908a2.08,2.08,0,0,1-.865-1.624h0c-.01-.628.361-.918.827-.648l5.036,2.908a2.078,2.078,0,0,1,.864,1.625h0C416.123,219.338,415.753,219.628,415.285,219.358Z" transform="translate(-281.541 -75.605)" fill="#5793ce"/>
      <path id="Trazado_233011" data-name="Trazado 233011" d="M427.91,226.647l-7.425-4.288a2.079,2.079,0,0,1-.865-1.624h0c-.01-.627.361-.918.828-.647l7.425,4.287a2.083,2.083,0,0,1,.864,1.625h0C428.748,226.627,428.377,226.918,427.91,226.647Z" transform="translate(-283.473 -76.721)" fill="#5793ce"/>
      <path id="Trazado_233012" data-name="Trazado 233012" d="M413.518,195.086l-9.612-5.549a2.078,2.078,0,0,1-.864-1.625h0c-.01-.627.36-.917.828-.647l9.612,5.55a2.076,2.076,0,0,1,.864,1.624h0C414.356,195.066,413.985,195.356,413.518,195.086Z" transform="translate(-280.344 -70.525)" fill="#5793ce"/>
      <path id="Trazado_233013" data-name="Trazado 233013" d="M407.242,203.088l-3.146-1.816a2.076,2.076,0,0,1-.864-1.624h0c-.011-.627.36-.918.827-.647l3.146,1.816a2.077,2.077,0,0,1,.864,1.624h0C408.08,203.068,407.709,203.359,407.242,203.088Z" transform="translate(-280.38 -72.74)" fill="#5793ce"/>
      <path id="Trazado_233014" data-name="Trazado 233014" d="M406.306,214.174l-2.02-1.166a2.081,2.081,0,0,1-.864-1.624h0c-.011-.628.36-.918.827-.647l2.019,1.166a2.079,2.079,0,0,1,.865,1.624h0C407.143,214.153,406.772,214.444,406.306,214.174Z" transform="translate(-280.416 -74.956)" fill="#5793ce"/>
      <path id="Trazado_233015" data-name="Trazado 233015" d="M420.444,210.71l-8.4-4.851a2.078,2.078,0,0,1-.864-1.625h0c-.011-.627.36-.917.828-.647l8.4,4.851a2.079,2.079,0,0,1,.865,1.624h0C421.281,210.691,420.91,210.981,420.444,210.71Z" transform="translate(-281.88 -73.606)" fill="#5793ce"/>
      <path id="Trazado_233016" data-name="Trazado 233016" d="M418.645,203.86,404,195.4a2.078,2.078,0,0,1-.864-1.625h0c-.011-.627.36-.917.828-.647l14.644,8.455a2.081,2.081,0,0,1,.865,1.624h0C419.483,203.84,419.112,204.129,418.645,203.86Z" transform="translate(-280.362 -71.633)" fill="#5793ce"/>
      <path id="Trazado_233017" data-name="Trazado 233017" d="M412.594,211.991l-8.4-4.851a2.077,2.077,0,0,1-.864-1.624h0c-.011-.628.36-.918.827-.647l8.4,4.851a2.08,2.08,0,0,1,.865,1.624h0C413.431,211.971,413.06,212.261,412.594,211.991Z" transform="translate(-280.398 -73.848)" fill="#5793ce"/>
      <path id="Trazado_233018" data-name="Trazado 233018" d="M429.544,215.965l-3.053-1.763a2.08,2.08,0,0,1-.865-1.624h0c-.01-.627.361-.918.828-.647l3.053,1.762a2.078,2.078,0,0,1,.864,1.625h0C430.382,215.945,430.011,216.234,429.544,215.965Z" transform="translate(-284.607 -75.181)" fill="#5793ce"/>
    </g>
    <g id="Grupo_168889" data-name="Grupo 168889" transform="translate(422.045 219.143)">
      <path id="Trazado_233019" data-name="Trazado 233019" d="M462.037,348.948l9.327-5.385,9.327,5.385-9.327,5.385Z" transform="translate(-462.037 -275.799)" fill="#d4ecff"/>
      <path id="Trazado_233020" data-name="Trazado 233020" d="M486.441,334.669l9.327-5.385,9.327,5.385-9.327,5.385Z" transform="translate(-466.643 -273.104)" fill="#d4ecff"/>
      <path id="Trazado_233021" data-name="Trazado 233021" d="M510.77,320.732l9.327-5.385,9.327,5.385-9.327,5.385Z" transform="translate(-471.235 -270.474)" fill="#d4ecff"/>
      <g id="Grupo_168888" data-name="Grupo 168888">
        <g id="Grupo_168887" data-name="Grupo 168887">
          <g id="Grupo_168884" data-name="Grupo 168884" transform="translate(19.798 27.461)">
            <path id="Trazado_233022" data-name="Trazado 233022" d="M495.767,327.988V299.269l-9.327-5.385V322.6Z" transform="translate(-486.441 -293.884)" fill="#c13d1a"/>
            <path id="Trazado_233023" data-name="Trazado 233023" d="M497.937,299.269l9.327-5.385V322.6l-9.327,5.385Z" transform="translate(-488.611 -293.884)" fill="#d3008d"/>
            <path id="Trazado_233024" data-name="Trazado 233024" d="M495.767,327.988V299.269l-9.327-5.385V322.6Z" transform="translate(-486.441 -293.884)" fill="#d3008d"/>
          </g>
          <g id="Grupo_168885" data-name="Grupo 168885" transform="translate(0 46.224)">
            <path id="Trazado_233025" data-name="Trazado 233025" d="M471.364,345.189V329.035l-9.327-5.385V339.8Z" transform="translate(-462.037 -318.265)" fill="#d3008d"/>
            <path id="Trazado_233026" data-name="Trazado 233026" d="M473.534,329.035l9.327-5.385V339.8l-9.327,5.385Z" transform="translate(-464.207 -318.265)" fill="#d3008d"/>
            <path id="Trazado_233027" data-name="Trazado 233027" d="M462.037,322.4l9.327-5.385,9.327,5.385-9.327,5.385Z" transform="translate(-462.037 -317.012)" fill="#ff2c9c"/>
          </g>
          <g id="Grupo_168886" data-name="Grupo 168886" transform="translate(39.535)">
            <path id="Trazado_233028" data-name="Trazado 233028" d="M520.1,311.545V272.056l-9.327-5.385V306.16Z" transform="translate(-510.77 -261.286)" fill="#d3008d"/>
            <path id="Trazado_233029" data-name="Trazado 233029" d="M522.267,272.056l9.327-5.385V306.16l-9.327,5.385Z" transform="translate(-512.94 -261.286)" fill="#d3008d"/>
            <path id="Trazado_233030" data-name="Trazado 233030" d="M510.77,265.418l9.327-5.385,9.327,5.385L520.1,270.8Z" transform="translate(-510.77 -260.034)" fill="#ff2c9c"/>
          </g>
        </g>
        <path id="Trazado_233031" data-name="Trazado 233031" d="M486.441,292.631l9.327-5.385,9.327,5.385-9.327,5.385Z" transform="translate(-466.643 -265.17)" fill="#ff2c9c"/>
      </g>
    </g>
    <g id="Grupo_168895" data-name="Grupo 168895" transform="translate(267.287 118.632)">
      <g id="Grupo_168894" data-name="Grupo 168894">
        <g id="Grupo_168891" data-name="Grupo 168891" transform="translate(2.168)">
          <path id="Trazado_233032" data-name="Trazado 233032" d="M296.377,283.677s-2.879-1.452-4.648.71-4.3,7.266-4.373,10.714,2.729,3.216,4.4,2.4,6.544-7.888,6.839-9.273a4.812,4.812,0,0,0-.817-3.626C297.306,284.235,296.377,283.677,296.377,283.677Z" transform="translate(-276.477 -163.895)" fill="#5793ce"/>
          <path id="Trazado_233033" data-name="Trazado 233033" d="M297.982,282.773l.133,2.983a1.69,1.69,0,0,1-.843,1.551,3.315,3.315,0,0,1-2.22.346c-2.169-.349-2.362-.968-2.517-3.95S297.982,282.773,297.982,282.773Z" transform="translate(-277.454 -163.684)" fill="#d4ecff"/>
          <g id="Grupo_168890" data-name="Grupo 168890" transform="translate(0 52.918)">
            <path id="Trazado_233034" data-name="Trazado 233034" d="M283.386,276.608s-2.879-1.452-4.647.71-4.3,7.266-4.374,10.714,2.729,3.215,4.4,2.4,6.544-7.887,6.839-9.273a4.808,4.808,0,0,0-.817-3.626C284.315,277.166,283.386,276.608,283.386,276.608Z" transform="translate(-274.025 -215.479)" fill="#5793ce"/>
            <path id="Trazado_233035" data-name="Trazado 233035" d="M284.991,275.7l.134,2.983a1.692,1.692,0,0,1-.843,1.552,3.322,3.322,0,0,1-2.221.346c-2.169-.349-2.362-.969-2.517-3.951S284.991,275.7,284.991,275.7Z" transform="translate(-275.002 -215.268)" fill="#d4ecff"/>
            <path id="Trazado_233036" data-name="Trazado 233036" d="M309.625,207.042c-.853-13.864-15.016,2.04-15.016,2.04l-9.693,9.5-8.729,9.589a8.6,8.6,0,0,0-2.168,6.912l3.531,26.887a2.643,2.643,0,0,0,2.65,2.3,9.053,9.053,0,0,0,1.309-.114,3.285,3.285,0,0,0,2.917-3.486l-.646-25.147,18.331-11.05S310.477,220.906,309.625,207.042Z" transform="translate(-273.946 -201.368)" fill="#173d7a"/>
          </g>
          <path id="Trazado_233037" data-name="Trazado 233037" d="M322.615,213.553c-.852-13.864-15.015,2.04-15.015,2.04l-9.694,9.5-8.728,9.589a8.6,8.6,0,0,0-2.168,6.912l3.531,26.887a2.643,2.643,0,0,0,2.65,2.3,8.953,8.953,0,0,0,1.308-.115,3.285,3.285,0,0,0,2.918-3.485l-.646-25.147L315.1,230.98S323.467,227.418,322.615,213.553Z" transform="translate(-276.398 -149.678)" fill="#173d7a"/>
          <path id="Trazado_233038" data-name="Trazado 233038" d="M315.768,159.654c10.738,4.452,10.522,10.8,10.522,10.8s-2.1,23.269-1.385,38.81c.3,6.5-34.516,6.992-29.324-10.339,6.123-20.436,3.827-36.979,6.694-39.474S312.991,158.5,315.768,159.654Z" transform="translate(-277.93 -140.285)" fill="#5793ce"/>
          <path id="Trazado_233039" data-name="Trazado 233039" d="M322.328,165.655c-.561,2.181-3.418,3.329-6.38,2.567s-4.908-3.149-4.346-5.329,3.418-3.329,6.38-2.566S322.889,163.476,322.328,165.655Z" transform="translate(-281.035 -140.659)" fill="#ffc2b0"/>
          <path id="Trazado_233040" data-name="Trazado 233040" d="M317.641,168.85a7.778,7.778,0,0,1-1.94-.25,7.141,7.141,0,0,1-3.764-2.306,4.105,4.105,0,0,1-.951-3.648c.631-2.452,3.773-3.769,7.005-2.934a7.143,7.143,0,0,1,3.764,2.3,4.106,4.106,0,0,1,.951,3.648h0C322.2,167.617,320.106,168.85,317.641,168.85Zm-1.617-8.365c-1.994,0-3.661.927-4.045,2.418a3.109,3.109,0,0,0,.753,2.743,6.114,6.114,0,0,0,3.225,1.961c2.68.69,5.264-.3,5.755-2.2h0a3.11,3.11,0,0,0-.753-2.743,6.125,6.125,0,0,0-3.225-1.961A6.89,6.89,0,0,0,316.024,160.485Z" transform="translate(-280.916 -140.54)" fill="#fff"/>
          <path id="Trazado_233041" data-name="Trazado 233041" d="M315.259,158.918a26.532,26.532,0,0,1-.093,3.833c-.058,1.07,3.687,2.069,4.656,1.1s.581-1.975.813-5.616S315.259,158.918,315.259,158.918Z" transform="translate(-281.726 -140.033)" fill="#ffc2b0"/>
          <path id="Trazado_233042" data-name="Trazado 233042" d="M320.635,158.576s-.922,3.376-5.469,4.67l.069-3.068Z" transform="translate(-281.726 -140.373)" fill="#ea9c92"/>
          <circle id="Elipse_11687" data-name="Elipse 11687" cx="8.265" cy="8.265" r="8.265" transform="translate(22.488 14.691) rotate(-59.844)" fill="#ffc2b0"/>
          <path id="Trazado_233043" data-name="Trazado 233043" d="M315.555,150.464s-4.55,1.949-7.7,1.971-2.457-2.616-2.457-2.616l9.354-1.352Z" transform="translate(-279.87 -138.465)" fill="#ea9c92"/>
          <path id="Trazado_233044" data-name="Trazado 233044" d="M306.079,148.651s3.964-1.683,7.442-.981a3.644,3.644,0,0,1,2.1,1.249,1.239,1.239,0,0,0,.636.46c.617.14,1.627-2.418,2.825-2.477s2,.79,1.016,2.363-.651,3.335-.2,3.587,5.249-3.421,1.018-11.8-14.977-3.867-16.649-2.168c0,0-1.761,1.534-3.193.169C301.075,139.05,299.47,151.075,306.079,148.651Z" transform="translate(-279.034 -136.137)" fill="#ff2c9c"/>
          <path id="Trazado_233045" data-name="Trazado 233045" d="M322.933,193.447v6.288a2.561,2.561,0,0,1-.836,1.893L309.181,213.4l1.468,2.244,17.058-12.371a3.469,3.469,0,0,0,1.412-2.444l1.153-10.965Z" transform="translate(-280.597 -146.279)" fill="#ffc2b0"/>
          <path id="Trazado_233046" data-name="Trazado 233046" d="M331.029,169.449s3.918,5.893,5.378,21.4c0,0-6.694,2.165-10.493.936S331.029,169.449,331.029,169.449Z" transform="translate(-283.577 -142.425)" fill="#5793ce"/>
          <path id="Trazado_233047" data-name="Trazado 233047" d="M324.875,178.634a109.156,109.156,0,0,0-1.622,12.069,2.464,2.464,0,0,0,1.622,2.379h0Z" transform="translate(-283.253 -144.158)" fill="#396caa"/>
        </g>
        <g id="Grupo_168892" data-name="Grupo 168892" transform="translate(2.065 62.431)">
          <path id="Trazado_233048" data-name="Trazado 233048" d="M312.193,226.341l-2.855-.377-18.428-10.64a2.561,2.561,0,0,0-2.3.1l-13.059,7.537-1.726-.228v1.718h0a.672.672,0,0,0,.4.605L295.1,237.11a2.561,2.561,0,0,0,2.3-.095l14.221-8.208a.932.932,0,0,0,.564-.775h0Z" transform="translate(-273.82 -213.471)" fill="#5793ce"/>
          <path id="Trazado_233049" data-name="Trazado 233049" d="M298.347,220.5l-1.309-.756H282.642l-7.1,4.094-1.726-.228v1.718h0a.672.672,0,0,0,.4.605L295.1,237.987a2.155,2.155,0,0,0,1.189.223Z" transform="translate(-273.82 -214.347)" fill="#396caa"/>
          <path id="Trazado_233050" data-name="Trazado 233050" d="M274.586,224.606l-.766-.1v1.718h0a.672.672,0,0,0,.4.605l.367.213Z" transform="translate(-273.82 -215.247)" fill="#5793ce"/>
          <path id="Trazado_233051" data-name="Trazado 233051" d="M300.314,241.644a2.673,2.673,0,0,0,1.958-.122V238.6h-1.958Z" transform="translate(-278.82 -217.907)" fill="#fff"/>
          <path id="Trazado_233052" data-name="Trazado 233052" d="M295.1,235.015l-20.885-12.058c-.591-.341-.517-.937.166-1.33l14.221-8.207a2.559,2.559,0,0,1,2.3-.1l20.885,12.058c.591.341.517.937-.165,1.33l-14.221,8.208A2.561,2.561,0,0,1,295.1,235.015Z" transform="translate(-273.819 -213.093)" fill="#fff"/>
          <path id="Trazado_233053" data-name="Trazado 233053" d="M295.5,234.213l-17.366-10.026c-.491-.284-.429-.779.138-1.107l7.621-4.285a2.128,2.128,0,0,1,1.916-.08l17.366,10.026c.491.284.43.78-.138,1.107l-7.62,4.286A2.135,2.135,0,0,1,295.5,234.213Z" transform="translate(-274.572 -214.118)" fill="#d4ecff"/>
        </g>
        <path id="Trazado_233054" data-name="Trazado 233054" d="M292.962,212.838l-.216,1.442a10.651,10.651,0,0,0,.094,3.7l.256,1.27a1.786,1.786,0,0,0,1.431,1.4h0a.985.985,0,0,0,1.155-.86l.345-3.08s.789,1.033,1.169,1.033-.426-3.085-1.287-4.831S292.962,212.838,292.962,212.838Z" transform="translate(-275.305 -150.477)" fill="#ffc2b0"/>
        <path id="Trazado_233055" data-name="Trazado 233055" d="M299.8,183.763l-2.241,4.436a8.688,8.688,0,0,0-.917,3.366l-.974,15.171-2.948-.071-1.339-17.036a6.239,6.239,0,0,1,.076-1.575l1.529-8.64Z" transform="translate(-275.066 -144.306)" fill="#ffc2b0"/>
        <g id="Grupo_168893" data-name="Grupo 168893" transform="translate(0 53.397)">
          <path id="Trazado_233056" data-name="Trazado 233056" d="M294,234.072l-1.751-2.286-18.416-10.662a2.561,2.561,0,0,1-1.067-2.046L272.782,204l-1.059-1.382,1-.577v0a.674.674,0,0,1,.722.041l20.87,12.084a2.563,2.563,0,0,1,1.067,2.045l-.018,16.42a.93.93,0,0,1-.39.875h0Z" transform="translate(-271.359 -201.958)" fill="#173d7a"/>
          <path id="Trazado_233057" data-name="Trazado 233057" d="M281.265,225.426l-1.309-.758-7.182-12.475.007-8.192-1.059-1.382,1-.577v0a.674.674,0,0,1,.722.041l20.87,12.084a2.164,2.164,0,0,1,.786.92Z" transform="translate(-271.359 -201.958)" fill="#396caa"/>
          <path id="Trazado_233058" data-name="Trazado 233058" d="M272.193,203.232l-.47-.613,1-.577v0a.674.674,0,0,1,.722.041l.368.213Z" transform="translate(-271.359 -201.958)" fill="#5793ce"/>
          <path id="Trazado_233059" data-name="Trazado 233059" d="M299.3,217.175a2.67,2.67,0,0,1,.872,1.758l-2.04,1.177-.977-1.7Z" transform="translate(-276.159 -204.83)" fill="#274f89"/>
          <path id="Trazado_233060" data-name="Trazado 233060" d="M293.233,214.878,272.363,202.8c-.591-.342-1.07.019-1.071.807l-.018,16.42a2.562,2.562,0,0,0,1.068,2.045l20.87,12.084c.591.342,1.07-.02,1.071-.808l.018-16.419A2.566,2.566,0,0,0,293.233,214.878Z" transform="translate(-271.274 -202.092)" fill="#5793ce"/>
        </g>
        <path id="Trazado_233061" data-name="Trazado 233061" d="M309.39,221.124l-.335.693a4.633,4.633,0,0,1-1.744,1.934l-2.073,1.278a2.064,2.064,0,0,1-2.117.049l-.071-.042a1.248,1.248,0,0,1-.176-1.916l2.166-2.227s-1.217.932-1.558.557c-.25-.275,1.18-1.618,2.279-1.662a4.33,4.33,0,0,0,2.16-.906Z" transform="translate(-277.169 -151.755)" fill="#ffc2b0"/>
        <path id="Trazado_233062" data-name="Trazado 233062" d="M301.627,159.72s-7.942,8.641-11.146,16.567a16.216,16.216,0,0,0,9.364,6.813C306.492,185.02,301.627,159.72,301.627,159.72Z" transform="translate(-274.899 -140.589)" fill="#5793ce"/>
        <path id="Trazado_233063" data-name="Trazado 233063" d="M299.774,185.015l1.287-12.434-3.032,11.65A17.469,17.469,0,0,0,299.774,185.015Z" transform="translate(-276.324 -143.016)" fill="#396caa"/>
        <path id="Trazado_233064" data-name="Trazado 233064" d="M311.055,157.434l-2.134-.587a5.152,5.152,0,0,0,2.506,2.012c1.488.408,1.719-.851,1.719-.851Z" transform="translate(-278.38 -140.046)" fill="#fff"/>
      </g>
      <path id="Trazado_233065" data-name="Trazado 233065" d="M325.049,153.082a1.188,1.188,0,1,1-1.189-1.188A1.188,1.188,0,0,1,325.049,153.082Z" transform="translate(-280.975 -139.111)" fill="#fff"/>
    </g>
    <path id="Trazado_233066" data-name="Trazado 233066" d="M543.462,156.432l-3.579-7.281,7.28-3.579,3.579,7.281Zm-1.407-6.541,2.147,4.369,4.367-2.147-2.147-4.369Z" transform="translate(-54.685 -19.286)" fill="#ff2c9c"/>
    <g id="Grupo_168901" data-name="Grupo 168901" transform="translate(297.182 251.652)">
      <path id="Trazado_233067" data-name="Trazado 233067" d="M346.924,329.14c-7.95-4.59-20.84-4.59-28.791,0s-7.949,12.033,0,16.623,20.84,4.59,28.79,0S354.874,333.73,346.924,329.14Zm-7.778,12.131a14.625,14.625,0,0,1-13.234,0c-3.654-2.11-3.655-5.53,0-7.64a14.625,14.625,0,0,1,13.234,0C342.8,335.74,342.8,339.161,339.145,341.271Z" transform="translate(-308.888 -304.936)" fill="#d4ecff"/>
      <g id="Grupo_168900" data-name="Grupo 168900">
        <g id="Grupo_168896" data-name="Grupo 168896" transform="translate(2.766)">
          <path id="Trazado_233068" data-name="Trazado 233068" d="M315.01,324.043l7.262.114a7.72,7.72,0,0,1,2.293-1.928c3.994-2.306,10.273-2.484,14.624-.538l4.315-4.059,6.644.1c-.328-.215-.665-.427-1.021-.632-9.234-5.332-24.2-5.332-33.437,0a17.553,17.553,0,0,0-4.155,3.237Z" transform="translate(-311.534 -302.559)" fill="#b70083"/>
          <path id="Trazado_233069" data-name="Trazado 233069" d="M357.586,305.79v10.545l-6.645-.1V305.686Z" transform="translate(-318.972 -301.159)" fill="#d3008d"/>
          <path id="Trazado_233070" data-name="Trazado 233070" d="M345.623,309.745V320.29l4.315-4.058V305.686Z" transform="translate(-317.968 -301.159)" fill="#b70083"/>
          <path id="Trazado_233071" data-name="Trazado 233071" d="M324.763,312.39v10.546l9.553-7.785,7.364,5.319V309.924l-6.78-3.29s-9.335,2.857-9.82,2.979S324.763,312.39,324.763,312.39Z" transform="translate(-314.026 -301.338)" fill="#b70083"/>
          <path id="Trazado_233072" data-name="Trazado 233072" d="M315.819,313.589v10.546l7.262.113V313.7Z" transform="translate(-312.343 -302.651)" fill="#b70083"/>
          <path id="Trazado_233073" data-name="Trazado 233073" d="M311.534,309.024V319.57l3.476,3.7V312.728Z" transform="translate(-311.534 -301.789)" fill="#d3008d"/>
          <path id="Trazado_233074" data-name="Trazado 233074" d="M315.01,311.044l7.262.114a7.72,7.72,0,0,1,2.293-1.928c3.994-2.306,10.273-2.484,14.624-.538l4.315-4.059,6.644.1c-.328-.215-.665-.427-1.021-.632-9.234-5.332-24.2-5.332-33.437,0a17.572,17.572,0,0,0-4.155,3.237Z" transform="translate(-311.534 -300.106)" fill="#ff2c9c"/>
        </g>
        <g id="Grupo_168898" data-name="Grupo 168898" transform="translate(27.851 6.308)">
          <path id="Trazado_233075" data-name="Trazado 233075" d="M348.319,312.288v9.694l6.286-1.506s-.369-5.672-.5-5.824S348.319,312.288,348.319,312.288Z" transform="translate(-343.562 -308.714)" fill="#5793ce"/>
          <g id="Grupo_168897" data-name="Grupo 168897">
            <path id="Trazado_233076" data-name="Trazado 233076" d="M342.455,324.237v10.546l.679.724,4.432-2.555s-.687-8.05-.768-8.212A42.174,42.174,0,0,0,342.455,324.237Z" transform="translate(-342.455 -310.969)" fill="#173d7a"/>
            <path id="Trazado_233077" data-name="Trazado 233077" d="M351.012,320.881l-3.8,3.574c3.166,2.5,2.792,6.036-1.125,8.3a13.5,13.5,0,0,1-3.632,1.4l3.928,4.185-3.48,3.273a31.624,31.624,0,0,0,12.061-3.73c7.938-4.583,9.045-11.612,3.335-16.882Z" transform="translate(-342.455 -310.335)" fill="#396caa"/>
            <path id="Trazado_233078" data-name="Trazado 233078" d="M343.007,330.2v10.545l8.617-3.328,10.364-9.888-.039-11.2-10.965,8.691Z" transform="translate(-342.559 -309.477)" fill="#396caa"/>
            <path id="Trazado_233079" data-name="Trazado 233079" d="M351.012,307.882l-3.8,3.574c3.166,2.5,2.792,6.036-1.125,8.3a13.5,13.5,0,0,1-3.632,1.4l3.928,4.184-3.48,3.273a31.625,31.625,0,0,0,12.061-3.73C362.9,320.3,364.008,313.266,358.3,308Z" transform="translate(-342.455 -307.882)" fill="#d4ecff"/>
          </g>
        </g>
        <g id="Grupo_168899" data-name="Grupo 168899" transform="translate(0 9.288)">
          <path id="Trazado_233080" data-name="Trazado 233080" d="M336.395,338.972l-3.462-3.688a16.562,16.562,0,0,1-9.011-1.839c-2.545-1.469-3.592-3.475-3.148-5.386l-8.244-.128-3.17-3.377c-2.773,4.759-.881,10.224,5.685,14.016,4.825,2.786,11.217,4.112,17.538,3.987Z" transform="translate(-308.124 -314.008)" fill="#396caa"/>
          <path id="Trazado_233081" data-name="Trazado 233081" d="M332.584,330.592v10.546l-24.457-13.553V317.033l3.571,1.444Z" transform="translate(-308.125 -312.589)" fill="#396caa"/>
          <path id="Trazado_233082" data-name="Trazado 233082" d="M342.086,329.328v10.545l-3.811,3.584V332.912Z" transform="translate(-313.815 -314.91)" fill="#173d7a"/>
          <path id="Trazado_233083" data-name="Trazado 233083" d="M336.395,325.973l-3.462-3.688a16.562,16.562,0,0,1-9.011-1.839c-2.545-1.469-3.592-3.475-3.148-5.386l-8.244-.128-3.17-3.377c-2.773,4.759-.881,10.224,5.685,14.016,4.825,2.786,11.217,4.112,17.538,3.987Z" transform="translate(-308.124 -311.555)" fill="#5793ce"/>
        </g>
      </g>
    </g>
    <path id="Trazado_233084" data-name="Trazado 233084" d="M274.15,117.235a5.273,5.273,0,1,1,5.273-5.273A5.279,5.279,0,0,1,274.15,117.235Zm0-8.924a3.651,3.651,0,1,0,3.651,3.651A3.654,3.654,0,0,0,274.15,108.312Z" transform="translate(-3.534 -11.948)" fill="#5793ce"/>
    <path id="Trazado_233085" data-name="Trazado 233085" d="M257.805,321.829A3.827,3.827,0,1,1,253.978,318,3.827,3.827,0,0,1,257.805,321.829Z" transform="translate(0 -51.832)" fill="#d4ecff"/>
    <path id="Trazado_233086" data-name="Trazado 233086" d="M498.672,51.68a4.561,4.561,0,1,1-4.561-4.562A4.561,4.561,0,0,1,498.672,51.68Z" transform="translate(-45.185 -0.704)" fill="#d4ecff"/>
    <g id="Grupo_168904" data-name="Grupo 168904" transform="translate(403.243 85.43)">
      <g id="Grupo_168902" data-name="Grupo 168902" transform="translate(0 0)">
        <path id="Trazado_233087" data-name="Trazado 233087" d="M464.6,107.938,442.9,95.415a1.11,1.11,0,0,0-1.121-.09l0-.015-2.1,1.216,1.479.54v15.8A4.179,4.179,0,0,0,442.9,116.2l20.733,11.971v1.853l2.125-1.224-.011,0a1.546,1.546,0,0,0,.59-1.391V111.273A4.18,4.18,0,0,0,464.6,107.938Z" transform="translate(-439.015 -95.212)" fill="#d3008d"/>
        <path id="Trazado_233088" data-name="Trazado 233088" d="M462.3,130.242l-21.692-12.523a4.181,4.181,0,0,1-1.745-3.335V98.254c0-1.285.781-1.876,1.745-1.319L462.3,109.459a4.181,4.181,0,0,1,1.745,3.335v16.129C464.043,130.208,463.262,130.8,462.3,130.242Z" transform="translate(-438.861 -95.498)" fill="#ff2c9c"/>
      </g>
      <g id="Grupo_168903" data-name="Grupo 168903" transform="translate(6.113 13.928)">
        <path id="Trazado_233089" data-name="Trazado 233089" d="M449.323,115.115c0,.934-.655,1.312-1.463.845a3.233,3.233,0,0,1-1.464-2.535c0-.933.655-1.312,1.464-.845A3.235,3.235,0,0,1,449.323,115.115Z" transform="translate(-446.396 -112.38)" fill="#fff"/>
        <path id="Trazado_233090" data-name="Trazado 233090" d="M454.788,118.271c0,.933-.655,1.312-1.464.845a3.235,3.235,0,0,1-1.464-2.534c0-.934.656-1.312,1.464-.845A3.233,3.233,0,0,1,454.788,118.271Z" transform="translate(-447.427 -112.976)" fill="#fff"/>
        <path id="Trazado_233091" data-name="Trazado 233091" d="M460.254,121.426c0,.934-.655,1.312-1.464.845a3.234,3.234,0,0,1-1.464-2.535c0-.933.655-1.312,1.464-.845A3.235,3.235,0,0,1,460.254,121.426Z" transform="translate(-448.459 -113.571)" fill="#fff"/>
      </g>
    </g>
    <g id="Grupo_168907" data-name="Grupo 168907" transform="translate(298.254 61.033)">
      <g id="Grupo_168905" data-name="Grupo 168905">
        <path id="Trazado_233092" data-name="Trazado 233092" d="M334.692,77.624l-21.28-12.286a1.089,1.089,0,0,0-1.1-.088l0-.014-2.065,1.193s.914.333,1.451.53v15.5a4.1,4.1,0,0,0,1.713,3.271l20.34,11.744v1.818l2.086-1.2-.011,0a1.519,1.519,0,0,0,.578-1.365V80.9A4.1,4.1,0,0,0,334.692,77.624Z" transform="translate(-309.598 -65.139)" fill="#5793ce"/>
        <path id="Trazado_233093" data-name="Trazado 233093" d="M332.439,99.505l-21.28-12.286a4.1,4.1,0,0,1-1.713-3.272V68.124c0-1.261.767-1.84,1.713-1.294l21.28,12.286a4.1,4.1,0,0,1,1.713,3.272V98.211C334.151,99.472,333.385,100.051,332.439,99.505Z" transform="translate(-309.446 -65.419)" fill="#d4ecff"/>
      </g>
      <g id="Grupo_168906" data-name="Grupo 168906" transform="translate(5.997 13.664)">
        <path id="Trazado_233094" data-name="Trazado 233094" d="M319.71,84.665c0,.916-.643,1.287-1.436.829a3.174,3.174,0,0,1-1.436-2.486c0-.916.643-1.287,1.436-.829A3.172,3.172,0,0,1,319.71,84.665Z" transform="translate(-316.838 -81.982)" fill="#fff"/>
        <path id="Trazado_233095" data-name="Trazado 233095" d="M325.072,87.761c0,.916-.643,1.287-1.436.829A3.174,3.174,0,0,1,322.2,86.1c0-.916.642-1.287,1.436-.829A3.176,3.176,0,0,1,325.072,87.761Z" transform="translate(-317.85 -82.566)" fill="#fff"/>
        <path id="Trazado_233096" data-name="Trazado 233096" d="M330.434,90.856c0,.916-.643,1.287-1.436.829a3.172,3.172,0,0,1-1.436-2.486c0-.916.643-1.287,1.436-.829A3.175,3.175,0,0,1,330.434,90.856Z" transform="translate(-318.862 -83.151)" fill="#fff"/>
      </g>
    </g>
  </g>
</svg>
