<svg xmlns="http://www.w3.org/2000/svg" xmlns:xlink="http://www.w3.org/1999/xlink" width="54" height="54" viewBox="0 0 54 54">
  <defs>
    <clipPath id="clip-path">
      <rect id="Rectángulo_263538" data-name="Rectángulo 263538" width="54" height="54" fill="#ff2c9c"/>
    </clipPath>
  </defs>
  <g id="Grupo_710125" data-name="Grupo 710125" transform="translate(0.264 0.264)">
    <g id="Grupo_710125-2" data-name="Grupo 710125" transform="translate(-0.264 -0.264)" clip-path="url(#clip-path)">
      <path id="Trazado_466604" data-name="Trazado 466604" d="M22.839,0a6.464,6.464,0,0,1,3.166,2.064c2.67,2.71,5.384,5.377,8.06,8.081A4.189,4.189,0,0,1,32.8,17.06a6.159,6.159,0,0,1-2.211.3,1.129,1.129,0,0,0-.966.337,9.859,9.859,0,0,1-.891.785,3.31,3.31,0,0,1,1,5.157q2.6,2.273,5.206,4.547L46.091,37.91c1.831,1.6,3.643,3.216,5.5,4.781a7.172,7.172,0,0,1,2.546,4.362v1.48c-.035.133-.076.264-.105.4a6.345,6.345,0,0,1-4.133,4.83,13.361,13.361,0,0,1-1.366.376H46.947c-.026-.022-.051-.059-.08-.064a6.8,6.8,0,0,1-4.218-2.487Q36.063,43.973,29.44,36.393q-2.9-3.327-5.793-6.652a3.317,3.317,0,0,1-5.17-1.029,7.838,7.838,0,0,1-.739.869,1.041,1.041,0,0,0-.359,1.057,3.968,3.968,0,0,1-1.21,3.508,4.22,4.22,0,0,1-6.06-.117c-2.674-2.657-5.32-5.342-8.006-7.988a6.553,6.553,0,0,1-2.1-3.2V21.57a.825.825,0,0,0,.07-.142,4.207,4.207,0,0,1,5.021-3.4.684.684,0,0,0,.485-.2q6.137-6.115,12.249-12.255A.774.774,0,0,0,18,4.988,4.227,4.227,0,0,1,20.193.507,11.182,11.182,0,0,1,21.57,0ZM19.2,7.348,7.373,19.182,16.194,28,28.033,16.166,19.2,7.348m5.96,20.915L36.431,41.2l4.78-4.746L28.27,25.172l-3.105,3.091m21,12.5-5.42,5.417c1.362,1.543,2.693,3.186,4.169,4.687a4.112,4.112,0,0,0,5.844-.095,4.063,4.063,0,0,0,.1-5.832c-1.5-1.481-3.145-2.81-4.695-4.177M22.053,2.113a2.025,2.025,0,0,0-1.81,1.275,2.006,2.006,0,0,0,.444,2.337q4.471,4.49,8.963,8.96a2.106,2.106,0,1,0,2.978-2.98q-4.465-4.5-8.959-8.964a2.166,2.166,0,0,0-1.616-.629M4.319,19.937l-.071.134a2.061,2.061,0,0,0-1.935,1.221,2.027,2.027,0,0,0,.4,2.343q4.485,4.513,9,9a2.107,2.107,0,1,0,2.965-2.993q-4.467-4.495-8.972-8.951a5.712,5.712,0,0,0-1.387-.754M20.375,27.25a1.082,1.082,0,0,0,.646,1.121,1.037,1.037,0,0,0,1.206-.272q2.935-2.932,5.865-5.87a1.05,1.05,0,0,0,.049-1.552,1.066,1.066,0,0,0-1.555.078q-2.923,2.907-5.824,5.836a2.587,2.587,0,0,0-.386.66M42.984,38.006l-5,4.99,1.253,1.429,5.175-5.166-1.432-1.252" transform="translate(0.358 0.358)" fill="#ff2c9c"/>
      <path id="Trazado_466605" data-name="Trazado 466605" d="M0,303.793c.188-.545.334-1.108.573-1.629a5.429,5.429,0,0,1,2.185-2.3,9.993,9.993,0,0,1-.521-1.3,3.669,3.669,0,0,1,3.561-4.6q8.985-.025,17.97,0a3.687,3.687,0,0,1,3.225,5.537c-.058.105-.114.213-.176.33.309.225.621.424.9.66a5.608,5.608,0,0,1,1.846,5.242c-.035.326-.455.61-.7.914H0v-2.855m27.468.721a3.14,3.14,0,0,0-3.255-3.152q-8.353-.008-16.706,0c-.793,0-1.587-.02-2.379.008a3.058,3.058,0,0,0-2.953,3.145Zm-12.6-8.44c-2.94,0-5.879-.009-8.819.012a2.4,2.4,0,0,0-1.1.274,1.479,1.479,0,0,0-.66,1.692,1.6,1.6,0,0,0,1.661,1.192q8.845,0,17.691,0a2.149,2.149,0,0,0,.316-.013,1.555,1.555,0,0,0,1.308-1.013,1.58,1.58,0,0,0-1.581-2.143c-2.94-.007-5.879,0-8.819,0" transform="translate(0.358 -252.153)" fill="#ff2c9c"/>
      <path id="Trazado_466606" data-name="Trazado 466606" d="M344.25,349.854a13.407,13.407,0,0,0,1.366-.376,6.346,6.346,0,0,0,4.133-4.83c.029-.134.07-.265.105-.4" transform="translate(-295.359 -295.359)" fill="#ff2c9c"/>
      <path id="Trazado_466607" data-name="Trazado 466607" d="M102.228,74.943a1.137,1.137,0,0,1,.946,1.656,2.039,2.039,0,0,1-.334.405q-2.071,2.078-4.148,4.15a2.368,2.368,0,0,1-.275.247,1.044,1.044,0,0,1-1.394-.1,1.014,1.014,0,0,1-.015-1.432c.438-.482.912-.931,1.373-1.392,1-1,1.983-2,3-2.983a5.04,5.04,0,0,1,.849-.547" transform="translate(-82.727 -64.02)" fill="#ff2c9c"/>
      <path id="Trazado_466608" data-name="Trazado 466608" d="M76.7,130.693a1.021,1.021,0,0,1-1.067-1,1.044,1.044,0,0,1,1.045-1.089,1.07,1.07,0,0,1,1.055,1.04,1.052,1.052,0,0,1-1.033,1.053" transform="translate(-64.613 -110.113)" fill="#ff2c9c"/>
    </g>
  </g>
</svg>
