<svg id="Grupo_151277" data-name="Grupo 151277" xmlns="http://www.w3.org/2000/svg" xmlns:xlink="http://www.w3.org/1999/xlink" width="55" height="54" viewBox="0 0 55 54">
  <defs>
    <linearGradient id="linear-gradient" x1="0.5" x2="0.5" y2="1" gradientUnits="objectBoundingBox">
      <stop offset="0" stop-color="#039be5"/>
      <stop offset="1" stop-color="#027fbc"/>
    </linearGradient>
  </defs>
  <ellipse id="Elipse_4775" data-name="Elipse 4775" cx="27.5" cy="27" rx="27.5" ry="27" fill="url(#linear-gradient)"/>
  <g id="PUSzgc.tif" transform="translate(8.917 8.288)">
    <g id="Grupo_151947" data-name="Grupo 151947" transform="translate(0 0)">
      <path id="Trazado_194443" data-name="Trazado 194443" d="M751.525,366.874l2.213,2.21c.41.41.815.826,1.234,1.226a.566.566,0,0,0,.344.161c1.245.011,2.491.007,3.738.007a5.815,5.815,0,0,1,.306-.637,2.273,2.273,0,0,1,2.361-1.12,2.335,2.335,0,0,1,1.956,1.7,1.071,1.071,0,0,0,.364.5c.859.6,1.733,1.177,2.613,1.746a1.067,1.067,0,0,0,.541.171c1.937.012,3.874,0,5.811.012a.432.432,0,0,0,.458-.26,1.735,1.735,0,0,1,1.969-.885,1.784,1.784,0,0,1,0,3.467,1.74,1.74,0,0,1-1.967-.892.431.431,0,0,0-.461-.256c-2.023.007-4.047.012-6.07-.006a1.5,1.5,0,0,1-.749-.229c-.874-.553-1.728-1.139-2.616-1.731a2.4,2.4,0,0,1-4.49-.4h-.646c-1.123,0-2.245-.01-3.368,0a.963.963,0,0,1-.752-.31c-1.136-1.15-2.282-2.289-3.425-3.432-.094-.094-.193-.185-.3-.29-.273.2-.528.385-.79.564a12.75,12.75,0,0,1-7.18,2.275c-.568.008-.761-.184-.761-.742q0-2.517,0-5.034c0-.5.126-.646.622-.739a.591.591,0,0,0-.007-1.18c-.489-.086-.618-.241-.618-.743q0-8.439,0-16.879c0-.542.195-.741.729-.737a12.861,12.861,0,0,1,7.671,2.6c.1.073.2.148.324.244.1-.093.2-.18.29-.273,1.143-1.142,2.29-2.281,3.425-3.432a1,1,0,0,1,.782-.328c1.331.014,2.663.006,3.989.006a2.411,2.411,0,0,1,4.515-.4c.861-.574,1.71-1.16,2.583-1.708a1.649,1.649,0,0,1,.816-.247c2.011-.02,4.022-.014,6.033-.006a.432.432,0,0,0,.457-.263,1.775,1.775,0,1,1,.011,1.721.461.461,0,0,0-.479-.287c-1.937.011-3.874,0-5.811.012a.929.929,0,0,0-.477.137q-1.379.9-2.738,1.825a.622.622,0,0,0-.265.325,2.379,2.379,0,0,1-4.585.2c-.014-.034-.031-.067-.059-.128-1.258,0-2.527,0-3.8,0a.354.354,0,0,0-.226.093c-1.182,1.171-2.36,2.347-3.525,3.51.527.641,1.035,1.254,1.537,1.872a2.032,2.032,0,0,1,.332.488c.2.49.549.574,1.043.562,1.529-.035,3.059-.019,4.589-.011a.736.736,0,0,0,.581-.236c1.188-1.2,2.39-2.391,3.578-3.593a1,1,0,0,1,.782-.328c.937.017,1.874.006,2.819.006a2.366,2.366,0,0,1,1.893-1.738,2.367,2.367,0,1,1,.506,4.7,2.277,2.277,0,0,1-2.291-1.536.309.309,0,0,0-.344-.24c-.765.009-1.53-.007-2.294.013a.718.718,0,0,0-.434.207q-1.818,1.794-3.614,3.61a1.006,1.006,0,0,1-.783.326c-1.542-.013-3.084-.006-4.626-.006h-.43l.645,1.779h2.541c2.467,0,4.935,0,7.4.005a.736.736,0,0,0,.579-.241c.978-.993,1.975-1.969,2.948-2.966a1.094,1.094,0,0,1,.881-.358c.826.021,1.653,0,2.48.01a.4.4,0,0,0,.434-.237,1.774,1.774,0,1,1,0,1.655.405.405,0,0,0-.433-.24c-.715.007-1.431.01-2.146,0a.722.722,0,0,0-.581.236c-1,1.011-2.007,2.006-3,3.017a.972.972,0,0,1-.752.31q-4.83-.011-9.66,0h-.412l.206,1.776c.376,0,.744.011,1.11-.008a.367.367,0,0,0,.231-.178,1.785,1.785,0,0,1,3.2-.025.54.54,0,0,0,.4.2c1.887.014,3.775.011,5.663.012,2.085,0,4.17,0,6.255,0a.423.423,0,0,0,.484-.309,2.363,2.363,0,1,1,2.742,3.191,2.31,2.31,0,0,1-2.693-1.3.584.584,0,0,0-.651-.406q-5.866.018-11.732,0a.526.526,0,0,0-.544.3,1.745,1.745,0,0,1-3.06-.023.449.449,0,0,0-.483-.281c-.3.021-.611.005-.911.005l-.329,2.372h.441c3.4,0,6.81.006,10.215-.008a1.23,1.23,0,0,1,.972.41c.77.8,1.559,1.581,2.356,2.354a.772.772,0,0,0,.475.2c.74.021,1.48,0,2.22.013a.405.405,0,0,0,.426-.252,1.776,1.776,0,1,1,.021,1.721.483.483,0,0,0-.514-.295c-.826.01-1.653-.01-2.479.009a1.021,1.021,0,0,1-.813-.343q-1.19-1.218-2.411-2.4a.8.8,0,0,0-.5-.211c-3.479-.011-6.958,0-10.437-.011a.393.393,0,0,0-.453.3c-.168.485-.384.954-.6,1.477h.558c1.591,0,3.183.01,4.774-.007a.972.972,0,0,1,.822.39q1.505,1.781,3.04,3.538a.7.7,0,0,0,.46.215c.937.02,1.875,0,2.813.016a.381.381,0,0,0,.39-.248,1.778,1.778,0,1,1,0,1.658.382.382,0,0,0-.4-.237c-1.049.01-2.1-.009-3.146.012a1,1,0,0,1-.857-.4q-1.492-1.767-3.014-3.509a.74.74,0,0,0-.489-.23c-1.789-.017-3.578-.008-5.366-.019a.536.536,0,0,0-.484.246C752.65,365.485,752.1,366.161,751.525,366.874Zm.341-2.285a11.617,11.617,0,0,0,2.369-6.532h-4.654c-.086.9-.136,1.784-.265,2.657s-.344,1.734-.5,2.6a.336.336,0,0,0,.173.271C749.923,363.925,750.864,364.244,751.867,364.589Zm-.025-14.318c-.609.239-1.173.482-1.754.678-.342.115-.628.229-.684.643a.682.682,0,0,1-.21.382c-.233.209-.189.438-.143.7.131.737.256,1.477.348,2.22.08.643.113,1.291.166,1.929h4.67A11.679,11.679,0,0,0,751.842,350.271Zm-3.435,7.794h-5.375c0,1.16,0,2.292.008,3.425,0,.092.1.193.177.273.279.3.562.6.853.887a.625.625,0,0,0,.3.2c.962.131,1.927.239,2.89.368.231.031.331-.027.377-.264.091-.47.249-.929.318-1.4C748.125,360.4,748.257,359.243,748.407,358.065Zm-.5-5.345a1.74,1.74,0,0,1-1.44-.6.609.609,0,0,0-.639-.222c-.513.058-1.028.1-1.543.147-.413.035-.826.06-1.231.089v4.7h5.34Zm-4.858-1.783c.807-.064,1.589-.144,2.372-.18.407-.019.67-.139.739-.573a.507.507,0,0,1,.189-.31c.509-.346.331-.719.076-1.111-.161-.248-.295-.513-.459-.758a5.619,5.619,0,0,0-2.14-2.043c-.243-.12-.508-.2-.778-.3Zm-.019,18.259c1.6-.279,3.757-2.811,4.1-4.821-.843-.1-1.684-.2-2.524-.313-.306-.04-.573-.069-.711.308a.688.688,0,0,1-.344.372c-.558.217-.554.653-.525,1.134.025.417.008.837.008,1.256C743.034,367.819,743.034,368.5,743.034,369.2Zm3.1-.572a10.457,10.457,0,0,0,4.846-3.092l-2.572-.888A12,12,0,0,1,746.131,368.624Zm4.907-19.3a11.461,11.461,0,0,0-4.868-3.061,12.747,12.747,0,0,1,1.724,2.751.3.3,0,0,0,.179.155,2.049,2.049,0,0,1,1.217.81Zm18.061-.767a1.181,1.181,0,0,0-.023-2.362,1.181,1.181,0,1,0,.023,2.362Zm-6.528-4.735a1.181,1.181,0,1,0-1.178,1.183A1.2,1.2,0,0,0,762.57,343.822Zm13.623,13.634A1.183,1.183,0,1,0,775,358.63,1.212,1.212,0,0,0,776.193,357.456Zm-13.623,13.606a1.207,1.207,0,0,0-1.188-1.174,1.181,1.181,0,1,0,.015,2.363A1.209,1.209,0,0,0,762.571,371.062Zm13.025-29.6a.587.587,0,1,0-.6.584A.618.618,0,0,0,775.6,341.458Zm-27.237,9.464a.589.589,0,1,0-.579.6A.616.616,0,0,0,748.359,350.922Zm25.469-.576a.588.588,0,1,0,.587.6A.615.615,0,0,0,773.828,350.346Zm-14.811,7.078a.589.589,0,1,0-.58.61A.625.625,0,0,0,759.017,357.424Zm15.4,6.528a.587.587,0,1,0-.586.6A.618.618,0,0,0,774.415,363.952Zm-5.333,4.158a.587.587,0,1,0-.6.583A.619.619,0,0,0,769.082,368.11ZM775,372.848a.59.59,0,1,0,.6.579A.616.616,0,0,0,775,372.848Z" transform="translate(-741.847 -339.67)" fill="#fff"/>
    </g>
  </g>
</svg>
