<svg xmlns="http://www.w3.org/2000/svg" xmlns:xlink="http://www.w3.org/1999/xlink" width="610" height="226.536" viewBox="0 0 610 226.536">
  <defs>
    <clipPath id="clip-path">
      <rect id="Rectángulo_262910" data-name="Rectángulo 262910" width="610" height="202.8" fill="none"/>
    </clipPath>
    <filter id="Trazado_465540" x="358.402" y="-6" width="218.084" height="220.8" filterUnits="userSpaceOnUse">
      <feOffset dy="3" input="SourceAlpha"/>
      <feGaussianBlur stdDeviation="3" result="blur"/>
      <feFlood flood-opacity="0.161"/>
      <feComposite operator="in" in2="blur"/>
      <feComposite in="SourceGraphic"/>
    </filter>
    <clipPath id="clip-path-3">
      <rect id="Rectángulo_262904" data-name="Rectángulo 262904" width="166.766" height="166.76" fill="#cf1f7d"/>
    </clipPath>
    <filter id="Trazado_465586" x="38.039" y="-6" width="218.084" height="220.8" filterUnits="userSpaceOnUse">
      <feOffset dy="3" input="SourceAlpha"/>
      <feGaussianBlur stdDeviation="3" result="blur-2"/>
      <feFlood flood-opacity="0.161"/>
      <feComposite operator="in" in2="blur-2"/>
      <feComposite in="SourceGraphic"/>
    </filter>
  </defs>
  <g id="Grupo_712069" data-name="Grupo 712069" transform="translate(-452.006 -4009.231)">
    <g id="Grupo_709407" data-name="Grupo 709407" transform="translate(452.006 4009.231)" opacity="0.87">
      <g id="Grupo_709406" data-name="Grupo 709406" clip-path="url(#clip-path)">
        <g id="Grupo_709405" data-name="Grupo 709405" transform="translate(0 0)">
          <g id="Grupo_709404" data-name="Grupo 709404" clip-path="url(#clip-path)">
            <g transform="matrix(1, 0, 0, 1, 0, 0)" filter="url(#Trazado_465540)">
              <path id="Trazado_465540-2" data-name="Trazado 465540" d="M2469.718,3.512a2.519,2.519,0,0,1,.864.152l14.889,5.419,15.868-.173a2.6,2.6,0,0,1,1.628.577L2516.018,20.2l15.861,5.773a2.524,2.524,0,0,1,1.323,1.11l7.928,13.731,12.251,10.058a2.571,2.571,0,0,1,.888,1.48l3.109,16.607,8.439,14.617a2.526,2.526,0,0,1,.3,1.7l-2.753,15.611,2.923,15.587a2.533,2.533,0,0,1-.281,1.7l-6.971,12.375-1.312,2.33-2.934,16.637a2.525,2.525,0,0,1-.864,1.5l-12.148,10.194-7.773,13.808a2.519,2.519,0,0,1-1.317,1.125l-15.787,5.941-12.945,10.862a2.525,2.525,0,0,1-1.623.591h-15.865l-14.823,5.579a2.647,2.647,0,0,1-.915.165,2.524,2.524,0,0,1-.818-.136l-15.935-5.608H2437.1a2.525,2.525,0,0,1-1.623-.591l-12.152-10.2-14.945-5.26a2.523,2.523,0,0,1-1.347-1.1l-8.6-14.533-12.926-10.846a2.528,2.528,0,0,1-.864-1.5l-2.751-15.606-1.989-3.361-6.084-10.288a2.543,2.543,0,0,1-.326-1.7l2.753-16.666-2.93-16.618a2.529,2.529,0,0,1,.3-1.7l7.923-13.723L2384.12,54.2a2.522,2.522,0,0,1,.859-1.51l12.811-10.988,8.442-14.622a2.524,2.524,0,0,1,1.323-1.11l14.9-5.423,12.037-10.324a2.561,2.561,0,0,1,1.613-.607l16.888-.184,15.86-5.773a2.521,2.521,0,0,1,.864-.152m0-3.515a6.023,6.023,0,0,0-2.067.364l-15.3,5.567-16.288.178h-.05a6.084,6.084,0,0,0-3.827,1.465l-11.538,9.9-14.3,5.2a6.05,6.05,0,0,0-3.165,2.656l-8.141,14.1-12.356,10.6a6.031,6.031,0,0,0-2.032,3.571l-2.484,15.054-7.6,13.169a6.052,6.052,0,0,0-.717,4.069l2.826,16.027-2.655,16.074c0,.017-.005.034-.008.051a6.1,6.1,0,0,0,.788,4.033l6.072,10.268,1.665,2.812,2.641,14.976a6.051,6.051,0,0,0,2.066,3.578l12.466,10.46,8.3,14.016a6.068,6.068,0,0,0,3.233,2.63l14.313,5.038,11.663,9.786a6.051,6.051,0,0,0,3.883,1.413h16.277l15.368,5.409a6.074,6.074,0,0,0,1.985.335,6.138,6.138,0,0,0,2.129-.382l14.248-5.362h15.226a6.048,6.048,0,0,0,3.882-1.413l12.485-10.477,15.226-5.73a6.038,6.038,0,0,0,3.131-2.671l7.47-13.27,11.659-9.783a6.05,6.05,0,0,0,2.066-3.578l2.829-16.046,1.017-1.807,6.971-12.374a6.037,6.037,0,0,0,.678-4.048l-2.81-14.986,2.642-14.981a6.053,6.053,0,0,0-.718-4.069l-8.139-14.1-3-16.016c0-.02-.007-.039-.011-.059a6.081,6.081,0,0,0-2.124-3.51l-11.734-9.633-7.608-13.178a6.051,6.051,0,0,0-3.166-2.656l-15.3-5.568L2505.2,6.771a6.151,6.151,0,0,0-3.858-1.375l-15.267.166-14.288-5.2A6.019,6.019,0,0,0,2469.718,0" transform="translate(-2002.36 0)"/>
            </g>
            <path id="Trazado_465541" data-name="Trazado 465541" d="M2488.008,22.821l-61.3,22.311a2.526,2.526,0,0,0-1.323,1.11l-32.616,56.493a2.527,2.527,0,0,0-.3,1.7l11.328,64.242a2.527,2.527,0,0,0,.864,1.5l49.971,41.931a2.524,2.524,0,0,0,1.623.591h65.233a2.526,2.526,0,0,0,1.623-.591l49.971-41.931a2.523,2.523,0,0,0,.864-1.5l11.328-64.242a2.53,2.53,0,0,0-.3-1.7l-32.616-56.493a2.526,2.526,0,0,0-1.323-1.11l-61.3-22.311a2.526,2.526,0,0,0-1.728,0" transform="translate(-2021.515 -19.154)" fill="#cf1f7d"/>
            <path id="Trazado_465542" data-name="Trazado 465542" d="M2586.171,166.758l-6.971,12.375L2554.168,223.6a2.519,2.519,0,0,1-1.317,1.125L2491.808,247.7a2.576,2.576,0,0,1-1.732.029l-61.532-21.655a2.521,2.521,0,0,1-1.347-1.1l-27.132-45.842-6.084-10.288a2.541,2.541,0,0,1-.326-1.7l7.49-45.339,3.138-19.021a2.526,2.526,0,0,1,.858-1.51l49.513-42.467a2.561,2.561,0,0,1,1.613-.607l65.233-.71a2.6,2.6,0,0,1,1.628.577l50.417,41.387a2.562,2.562,0,0,1,.888,1.48l3.908,20.871,8.112,43.252a2.531,2.531,0,0,1-.282,1.7" transform="translate(-2022.522 -48.576)" fill="#ff2c9c"/>
            <path id="Trazado_465543" data-name="Trazado 465543" d="M2622.174,219.994h0a86.339,86.339,0,0,0-85.774-122.5h0a86.339,86.339,0,0,0-53.526,24.96h0a86.339,86.339,0,1,0,139.3,97.539" transform="translate(-2076.567 -82.101)" fill="#994360"/>
            <g id="Grupo_709403" data-name="Grupo 709403" transform="translate(383.98 18.017)" opacity="0.74">
              <g id="Grupo_709402" data-name="Grupo 709402">
                <g id="Grupo_709401" data-name="Grupo 709401" clip-path="url(#clip-path-3)">
                  <path id="Trazado_465544" data-name="Trazado 465544" d="M2639.4,225.238a79.924,79.924,0,0,1-3.76,9.592,83.382,83.382,0,0,1-143.876,12.582,83.709,83.709,0,0,1-15.069-47.826c0-2.413.1-4.84.311-7.253a84.3,84.3,0,0,1,7.5-27.976,83.321,83.321,0,0,1,68.3-47.826c2.428-.207,4.855-.326,7.283-.326a83.369,83.369,0,0,1,79.309,57.743c.444,1.347.844,2.694,1.214,4.071a83.082,83.082,0,0,1-1.214,47.219" transform="translate(-2476.692 -116.207)" fill="#cf1f7d"/>
                </g>
              </g>
            </g>
            <path id="Trazado_465545" data-name="Trazado 465545" d="M2647.554,248.076h0A80.753,80.753,0,0,0,2567.329,133.5h0a80.753,80.753,0,0,0-59.111,126.764h0a80.752,80.752,0,0,0,45.249,31.684h0a80.753,80.753,0,0,0,55.028-4.814h0a80.754,80.754,0,0,0,39.06-39.059" transform="translate(-2107.01 -112.544)" fill="#ff2c9c"/>
            <path id="Trazado_465546" data-name="Trazado 465546" d="M2680.568,274.443c-.827,2.383-1.78,4.737-2.845,7.036a74.113,74.113,0,0,1-127.882,11.185,74.419,74.419,0,0,1-13.4-42.51c0-2.144.1-4.289.281-6.447a74.1,74.1,0,0,1,67.375-67.375c2.159-.182,4.3-.28,6.448-.28a74.1,74.1,0,0,1,70.024,49.827c.588,1.668,1.107,3.378,1.57,5.1a74.108,74.108,0,0,1-1.57,43.464" transform="translate(-2143.198 -148.756)" fill="#ff2c9c"/>
            <path id="Trazado_465547" data-name="Trazado 465547" d="M2075.635,435.4a4.641,4.641,0,1,1-4.365-4.9,4.641,4.641,0,0,1,4.365,4.9" transform="translate(-1745.997 -363.752)" fill="#ff2c9c"/>
            <path id="Trazado_465548" data-name="Trazado 465548" d="M2131.181,339.714a6.765,6.765,0,1,1,6.766-6.765,6.772,6.772,0,0,1-6.766,6.765m0-10.57a3.8,3.8,0,1,0,3.805,3.8,3.809,3.809,0,0,0-3.805-3.8" transform="translate(-1795.052 -275.613)" fill="#ff2c9c"/>
            <path id="Trazado_465549" data-name="Trazado 465549" d="M2148.269,503.3a2.823,2.823,0,1,1-2.656-2.981,2.824,2.824,0,0,1,2.656,2.981" transform="translate(-1810.44 -422.749)" fill="#ff2c9c"/>
            <path id="Trazado_465550" data-name="Trazado 465550" d="M3879.219,847.028a4.308,4.308,0,1,1,2.509,5.552,4.307,4.307,0,0,1-2.509-5.552" transform="translate(-3277.559 -713.351)" fill="#ff2c9c"/>
            <path id="Trazado_465551" data-name="Trazado 465551" d="M3746.782,883.644a7.172,7.172,0,1,1,2.941-.639,7.15,7.15,0,0,1-2.941.639m-.006-11.354a4.2,4.2,0,1,0,1.482.273,4.191,4.191,0,0,0-1.482-.273" transform="translate(-3159.839 -734.55)" fill="#ff2c9c"/>
            <path id="Trazado_465552" data-name="Trazado 465552" d="M3851.873,764.615a2.823,2.823,0,1,1,1.644,3.639,2.823,2.823,0,0,1-1.644-3.639" transform="translate(-3254.533 -644.527)" fill="#ff2c9c"/>
            <path id="Trazado_465553" data-name="Trazado 465553" d="M2756.7,342.295l-1.758-9.373,1.655-9.387a1.519,1.519,0,0,0-.181-1.023l-5.075-8.79-1.87-9.986a1.545,1.545,0,0,0-.534-.89l-7.367-6.048-4.767-8.257a1.521,1.521,0,0,0-.8-.668l-9.538-3.472-7.849-6.443a1.566,1.566,0,0,0-.979-.347l-9.542.1-8.954-3.259a1.517,1.517,0,0,0-1.039,0l-9.538,3.471-10.155.111a1.54,1.54,0,0,0-.97.365l-7.238,6.208-8.96,3.261a1.52,1.52,0,0,0-.8.668l-5.076,8.793-7.7,6.608a1.518,1.518,0,0,0-.516.908l-1.552,9.412-4.765,8.252a1.52,1.52,0,0,0-.18,1.023l1.762,9.994-1.656,10.022a1.528,1.528,0,0,0,.2,1.024l3.658,6.186,1.2,2.021,1.655,9.385a1.521,1.521,0,0,0,.52.9l7.773,6.522,5.172,8.739a1.516,1.516,0,0,0,.81.659l8.987,3.163,7.308,6.132a1.519,1.519,0,0,0,.976.355h10.149l9.582,3.372a1.549,1.549,0,0,0,1.042-.018l8.915-3.355h9.54a1.52,1.52,0,0,0,.976-.355l7.785-6.532,9.493-3.573a1.515,1.515,0,0,0,.792-.676l4.674-8.3,7.306-6.13a1.516,1.516,0,0,0,.519-.9l1.764-10,.788-1.4,4.193-7.441a1.523,1.523,0,0,0,.169-1.024" transform="translate(-2231.236 -231.826)" fill="#cf1f7d"/>
            <path id="Trazado_465554" data-name="Trazado 465554" d="M2186.1,512.328a1.758,1.758,0,0,1-1.522-2.636l16.035-27.786-16.035-27.786a1.758,1.758,0,0,1,1.522-2.636h253.881a1.758,1.758,0,0,1,1.523,2.636l-16.035,27.786,16.035,27.786a1.758,1.758,0,0,1-1.523,2.636Z" transform="translate(-1845.689 -381.487)" fill="#ff2c9c"/>
            <path id="Trazado_465555" data-name="Trazado 465555" d="M2430.406,443.666l-16.542,28.664,16.542,28.664H2176.524l16.541-28.664-16.541-28.664Zm0-3.515H2176.524a3.514,3.514,0,0,0-3.044,5.271l15.528,26.907-15.528,26.907a3.515,3.515,0,0,0,3.044,5.272h253.882a3.515,3.515,0,0,0,3.044-5.272l-15.528-26.907,15.528-26.907a3.514,3.514,0,0,0-3.044-5.271m0,7.03h0Z" transform="translate(-1836.111 -371.911)"/>
            <path id="Trazado_465556" data-name="Trazado 465556" d="M2973.716,308.855l1.918,3.715a.541.541,0,0,0,.408.283l4.289.6a.512.512,0,0,1,.3.883l-3.1,2.892a.5.5,0,0,0-.156.458l.732,4.083a.537.537,0,0,1-.786.546l-3.835-1.928a.564.564,0,0,0-.5,0l-3.836,1.928a.537.537,0,0,1-.786-.546l.732-4.083a.5.5,0,0,0-.156-.458l-3.1-2.892a.512.512,0,0,1,.3-.883l4.288-.6a.542.542,0,0,0,.408-.283l1.918-3.715a.553.553,0,0,1,.971,0" transform="translate(-2505.876 -260.727)" fill="#fff"/>
            <path id="Trazado_465557" data-name="Trazado 465557" d="M3068.693,354.586l1.34,2.6a.379.379,0,0,0,.286.2l3,.416a.358.358,0,0,1,.209.617l-2.168,2.021a.352.352,0,0,0-.109.32l.512,2.853a.375.375,0,0,1-.549.381l-2.68-1.347a.4.4,0,0,0-.353,0l-2.68,1.347a.375.375,0,0,1-.549-.381l.512-2.853a.351.351,0,0,0-.109-.32l-2.168-2.021a.358.358,0,0,1,.21-.617l3-.416a.378.378,0,0,0,.285-.2l1.34-2.6a.386.386,0,0,1,.679,0" transform="translate(-2588.177 -299.441)" fill="#fff"/>
            <path id="Trazado_465558" data-name="Trazado 465558" d="M2903.283,354.586l1.34,2.6a.377.377,0,0,0,.285.2l3,.416a.358.358,0,0,1,.209.617l-2.168,2.021a.353.353,0,0,0-.109.32l.512,2.853a.375.375,0,0,1-.549.381l-2.68-1.347a.4.4,0,0,0-.353,0l-2.68,1.347a.375.375,0,0,1-.549-.381l.512-2.853a.352.352,0,0,0-.108-.32l-2.169-2.021a.358.358,0,0,1,.21-.617l3-.416a.376.376,0,0,0,.284-.2l1.341-2.6a.386.386,0,0,1,.679,0" transform="translate(-2448.411 -299.441)" fill="#fff"/>
            <path id="Trazado_465559" data-name="Trazado 465559" d="M2972.745,911.316l-1.917-3.715a.543.543,0,0,0-.408-.284l-4.289-.6a.512.512,0,0,1-.3-.883l3.1-2.892a.5.5,0,0,0,.156-.458l-.732-4.083a.537.537,0,0,1,.786-.546l3.836,1.928a.566.566,0,0,0,.5,0l3.835-1.928a.537.537,0,0,1,.786.546l-.732,4.083a.505.505,0,0,0,.156.458l3.1,2.892a.512.512,0,0,1-.3.883l-4.289.6a.541.541,0,0,0-.408.284l-1.918,3.715a.553.553,0,0,1-.972,0" transform="translate(-2505.877 -758.606)" fill="#fff"/>
            <path id="Trazado_465560" data-name="Trazado 465560" d="M2902.6,888.247l-1.34-2.6a.379.379,0,0,0-.285-.2l-3-.416a.358.358,0,0,1-.21-.617l2.169-2.021a.353.353,0,0,0,.109-.32l-.512-2.854a.375.375,0,0,1,.549-.381l2.68,1.347a.4.4,0,0,0,.353,0l2.68-1.347a.375.375,0,0,1,.549.381l-.512,2.854a.351.351,0,0,0,.109.32l2.168,2.021a.358.358,0,0,1-.209.617l-3,.416a.379.379,0,0,0-.285.2l-1.34,2.6a.386.386,0,0,1-.679,0" transform="translate(-2448.412 -742.554)" fill="#fff"/>
            <path id="Trazado_465561" data-name="Trazado 465561" d="M3068.014,888.247l-1.34-2.6a.379.379,0,0,0-.285-.2l-3-.416a.358.358,0,0,1-.21-.617l2.168-2.021a.352.352,0,0,0,.109-.32l-.512-2.854a.376.376,0,0,1,.55-.381l2.68,1.347a.4.4,0,0,0,.353,0l2.681-1.347a.375.375,0,0,1,.549.381l-.512,2.854a.351.351,0,0,0,.108.32l2.169,2.021a.358.358,0,0,1-.21.617l-3,.416a.378.378,0,0,0-.285.2l-1.34,2.6a.386.386,0,0,1-.679,0" transform="translate(-2588.177 -742.554)" fill="#fff"/>
            <path id="Trazado_465562" data-name="Trazado 465562" d="M2748.056,259.109l1.306,1.886a4.126,4.126,0,0,1-.9.893,3.819,3.819,0,0,1-3.352.581,5.708,5.708,0,0,1-3.113-2.418,5.325,5.325,0,0,1-1.051-3.616,3.79,3.79,0,0,1,1.68-2.875,4.315,4.315,0,0,1,1.177-.587l1.31,1.893a3.752,3.752,0,0,0-1.1.5,1.691,1.691,0,0,0-.721,1.45,3.308,3.308,0,0,0,.668,1.957,3.357,3.357,0,0,0,1.639,1.37,1.8,1.8,0,0,0,1.677-.241,3.362,3.362,0,0,0,.769-.8" transform="translate(-2315.981 -213.753)" fill="#fff"/>
            <path id="Trazado_465563" data-name="Trazado 465563" d="M2794.176,223.087l3.984-1.951.9,1.846-2.016.986.782,1.6,1.749-.855.881,1.8-1.749.856.773,1.58,2.028-.993.906,1.853-4,1.956Z" transform="translate(-2360.974 -186.852)" fill="#fff"/>
            <path id="Trazado_465564" data-name="Trazado 465564" d="M2858.967,200.235l2.442-.749a3.549,3.549,0,0,1,2.572.044,2.743,2.743,0,0,1,1.492,1.805,2.907,2.907,0,0,1,.073,1.4,2.236,2.236,0,0,1-.659,1.234l2.952,3.653-2.214.679-2.984-3.687-.035.011,1.29,4.207-2.1.643Zm2.644,1.142.672,2.193q1.382-.454,1.092-1.4a1.211,1.211,0,0,0-.6-.822,1.793,1.793,0,0,0-1.16.03" transform="translate(-2415.719 -168.374)" fill="#fff"/>
            <path id="Trazado_465565" data-name="Trazado 465565" d="M2931.092,182.561l5.178-.744.314,2.185-1.5.215,1.06,7.378-2.2.316-1.061-7.378-1.483.213Z" transform="translate(-2476.662 -153.628)" fill="#fff"/>
            <path id="Trazado_465566" data-name="Trazado 465566" d="M3003.236,179.351l2.192-.024.106,9.661-2.193.023Z" transform="translate(-2537.621 -151.524)" fill="#fff"/>
            <path id="Trazado_465567" data-name="Trazado 465567" d="M3054.381,181.391l4.4.54-.251,2.054-2.227-.273-.215,1.753,1.961.241-.244,1.989-1.961-.241-.465,3.793-2.176-.266Z" transform="translate(-2579.845 -153.268)" fill="#fff"/>
            <path id="Trazado_465568" data-name="Trazado 465568" d="M3114.509,192.87l2.122.553-2.439,9.348-2.121-.553Z" transform="translate(-2629.583 -162.968)" fill="#fff"/>
            <path id="Trazado_465569" data-name="Trazado 465569" d="M3162.89,209.871l4.1,1.688-.782,1.9-2.075-.854-.677,1.647,1.8.74-.762,1.854-1.8-.741-.669,1.627,2.088.859-.785,1.907-4.116-1.693Z" transform="translate(-2669.417 -177.332)" fill="#fff"/>
            <path id="Trazado_465570" data-name="Trazado 465570" d="M3219.461,239.534l1.747,1.068a4.165,4.165,0,0,1,2.127,2.722,5.083,5.083,0,0,1-.9,3.6,6.38,6.38,0,0,1-1.955,2.147,3.377,3.377,0,0,1-2.121.543,4.838,4.838,0,0,1-2.1-.717l-1.833-1.122Zm.8,2.9-2.891,4.729a1.763,1.763,0,0,0,1.571.134,3.8,3.8,0,0,0,1.416-1.523,6.053,6.053,0,0,0,.618-1.288,2.064,2.064,0,0,0,.1-.99,1.221,1.221,0,0,0-.273-.621,3.453,3.453,0,0,0-.541-.441" transform="translate(-2716.065 -202.397)" fill="#fff"/>
            <path id="Trazado_465571" data-name="Trazado 465571" d="M3222.737,1005l-1.234-1.934a4.121,4.121,0,0,1,.929-.859,3.816,3.816,0,0,1,3.371-.455,5.7,5.7,0,0,1,3.019,2.533,5.331,5.331,0,0,1,.915,3.654,3.791,3.791,0,0,1-1.788,2.809,4.3,4.3,0,0,1-1.2.542l-1.238-1.94a3.746,3.746,0,0,0,1.114-.462,1.693,1.693,0,0,0,.776-1.421,3.9,3.9,0,0,0-2.181-3.412,1.8,1.8,0,0,0-1.685.178,3.407,3.407,0,0,0-.8.767" transform="translate(-2722.049 -846.27)" fill="#fff"/>
            <path id="Trazado_465572" data-name="Trazado 465572" d="M3176.435,1034.218l-4.055,1.8-.833-1.879,2.051-.91-.723-1.627-1.778.79-.813-1.832,1.779-.79-.713-1.607-2.064.916-.836-1.885,4.068-1.805Z" transform="translate(-2677.22 -866.414)" fill="#fff"/>
            <path id="Trazado_465573" data-name="Trazado 465573" d="M3107.39,1057.22l-2.469.657a3.555,3.555,0,0,1-2.569-.14,2.745,2.745,0,0,1-1.424-1.86,2.9,2.9,0,0,1-.02-1.4,2.238,2.238,0,0,1,.7-1.209l-2.813-3.76,2.237-.6,2.845,3.8.035-.01-1.132-4.252,2.118-.564Zm-2.6-1.241-.589-2.216q-1.4.4-1.143,1.36a1.206,1.206,0,0,0,.572.844,1.788,1.788,0,0,0,1.16.013" transform="translate(-2618.368 -885.422)" fill="#fff"/>
            <path id="Trazado_465574" data-name="Trazado 465574" d="M3051.769,1072.783l-5.2.549-.231-2.2,1.5-.159-.783-7.413,2.209-.234.783,7.413,1.489-.158Z" transform="translate(-2574.037 -898.475)" fill="#fff"/>
            <rect id="Rectángulo_262905" data-name="Rectángulo 262905" width="9.662" height="2.193" transform="translate(464.303 174.935) rotate(-88.453)" fill="#fff"/>
            <path id="Trazado_465575" data-name="Trazado 465575" d="M2927.612,1070.739l-4.379-.707.328-2.043,2.215.357.281-1.743-1.95-.314.319-1.98,1.951.315.609-3.772,2.165.349Z" transform="translate(-2470.022 -896.379)" fill="#fff"/>
            <rect id="Rectángulo_262906" data-name="Rectángulo 262906" width="9.661" height="2.193" transform="translate(445.19 171.557) rotate(-73.224)" fill="#fff"/>
            <path id="Trazado_465576" data-name="Trazado 465576" d="M2808.6,1033.6l-4.036-1.841.853-1.87,2.041.931.739-1.619-1.772-.808.833-1.824,1.771.807.73-1.6-2.055-.937.856-1.876,4.049,1.846Z" transform="translate(-2369.755 -864.363)" fill="#fff"/>
            <path id="Trazado_465577" data-name="Trazado 465577" d="M2747.2,1004.737l-1.706-1.133a4.163,4.163,0,0,1-2.024-2.8,5.086,5.086,0,0,1,1.037-3.564,6.363,6.363,0,0,1,2.032-2.073,3.379,3.379,0,0,1,2.142-.464,4.823,4.823,0,0,1,2.074.794l1.791,1.189Zm-.69-2.925,3.067-4.618a1.767,1.767,0,0,0-1.566-.193,3.8,3.8,0,0,0-1.471,1.469,5.972,5.972,0,0,0-.666,1.265,2.043,2.043,0,0,0-.137.986,1.213,1.213,0,0,0,.25.631,3.356,3.356,0,0,0,.523.461" transform="translate(-2318.097 -840.466)" fill="#fff"/>
            <path id="Trazado_465578" data-name="Trazado 465578" d="M2437.965,587.774h5.244a1.129,1.129,0,0,0,1.129-1.129V561.968a1.129,1.129,0,0,0-1.129-1.129h-5.244a1.129,1.129,0,0,0-1.129,1.129v24.677a1.129,1.129,0,0,0,1.129,1.129" transform="translate(-2059.035 -473.887)"/>
            <path id="Trazado_465579" data-name="Trazado 465579" d="M2529.4,569.8a11.371,11.371,0,0,0-2.966-1.443q-1.615-.517-3.116-.9-.962-.231-1.788-.479a10.727,10.727,0,0,1-1.444-.538,3.223,3.223,0,0,1-.98-.673,1.344,1.344,0,0,1-.366-.961,1.489,1.489,0,0,1,.807-1.406,3.7,3.7,0,0,1,1.807-.442,3.227,3.227,0,0,1,1.982.614,1.959,1.959,0,0,1,.735,1.112,1.1,1.1,0,0,0,1.085.773h5.239a1.136,1.136,0,0,0,1.129-1.249,7.84,7.84,0,0,0-2.572-5.214q-2.634-2.348-7.521-2.345-4.81,0-7.522,2.173a8.555,8.555,0,0,0-1.885,9.926,7.1,7.1,0,0,0,2.135,2.349,10.384,10.384,0,0,0,2.865,1.384c1.04.322,2.045.595,3.022.826.639.154,1.243.31,1.807.464a8.425,8.425,0,0,1,1.481.538,3.057,3.057,0,0,1,1,.73,1.6,1.6,0,0,1,.363,1.077,1.875,1.875,0,0,1-.921,1.694,3.911,3.911,0,0,1-2.116.576,3.647,3.647,0,0,1-2.214-.692,2.2,2.2,0,0,1-.838-1.265,1.126,1.126,0,0,0-1.069-.889h-5.5a1.129,1.129,0,0,0-1.129,1.235,9.1,9.1,0,0,0,.706,2.707,7.983,7.983,0,0,0,2.173,2.943,9.7,9.7,0,0,0,3.422,1.829,14.946,14.946,0,0,0,4.484.636,15.817,15.817,0,0,0,4.309-.557,9.739,9.739,0,0,0,3.407-1.694,7.88,7.88,0,0,0,2.251-2.809,8.792,8.792,0,0,0,.808-3.867,7.333,7.333,0,0,0-.867-3.77,7.489,7.489,0,0,0-2.21-2.386" transform="translate(-2121.625 -470.338)"/>
            <path id="Trazado_465580" data-name="Trazado 465580" d="M2691.361,560.359a14.252,14.252,0,0,0-4.675-2.924,17.286,17.286,0,0,0-11.912,0,14.26,14.26,0,0,0-4.712,2.943,13.22,13.22,0,0,0-3.078,4.484,15.237,15.237,0,0,0,0,11.351,13.177,13.177,0,0,0,3.078,4.481,14.157,14.157,0,0,0,4.712,2.943,17.286,17.286,0,0,0,11.912,0,14.151,14.151,0,0,0,4.675-2.924,13.12,13.12,0,0,0,3.056-4.462,15.405,15.405,0,0,0,0-11.429,13.122,13.122,0,0,0-3.056-4.462m-4.1,13.083a6.74,6.74,0,0,1-1.462,2.289,6.663,6.663,0,0,1-2.232,1.5,7.234,7.234,0,0,1-2.828.539,7.371,7.371,0,0,1-2.846-.539,6.617,6.617,0,0,1-2.251-1.5,6.923,6.923,0,0,1-1.481-2.289,8.1,8.1,0,0,1,0-5.812,6.956,6.956,0,0,1,1.481-2.289,6.709,6.709,0,0,1,2.251-1.5,7.371,7.371,0,0,1,2.846-.539,7.234,7.234,0,0,1,2.828.539,6.629,6.629,0,0,1,3.695,3.789,8.386,8.386,0,0,1,0,5.812" transform="translate(-2252.575 -470.116)"/>
            <path id="Trazado_465581" data-name="Trazado 465581" d="M2940.51,581.628a22.957,22.957,0,0,0,2.038-3.078,10.628,10.628,0,0,0,1-2.5,10.067,10.067,0,0,0,.27-2.326,8.01,8.01,0,0,0-.674-3.31,7.552,7.552,0,0,0-1.884-2.577,8.676,8.676,0,0,0-2.906-1.675,11.167,11.167,0,0,0-3.732-.6,10.884,10.884,0,0,0-3.751.611,8.022,8.022,0,0,0-2.828,1.722,7.325,7.325,0,0,0-1.77,2.7,9.587,9.587,0,0,0-.617,3.513v.5h6.732v-.5a2.612,2.612,0,0,1,.617-1.829,2.229,2.229,0,0,1,1.731-.673,2.089,2.089,0,0,1,1.6.636,2.341,2.341,0,0,1,.595,1.672,4.643,4.643,0,0,1-.385,1.751,14.532,14.532,0,0,1-1.616,2.655q-1.23,1.714-3.538,4.521-2.229,2.71-5.887,7.067a1.143,1.143,0,0,0-.269.731,1.129,1.129,0,0,0,1.129,1.129h16.786a1.129,1.129,0,0,0,1.129-1.129v-3.782a1.129,1.129,0,0,0-1.129-1.129h-3.565a1.131,1.131,0,0,1-.866-1.852q1.022-1.239,1.791-2.246" transform="translate(-2471.714 -477.881)"/>
            <path id="Trazado_465582" data-name="Trazado 465582" d="M3065.845,575.321h7.782a1.129,1.129,0,0,1,1.048,1.549l-6.608,16.487a1.129,1.129,0,0,0,1.048,1.549h4.8a1.13,1.13,0,0,0,1.051-.716l9.334-23.7a1.128,1.128,0,0,0,.078-.414v-.794h-18.532a1.129,1.129,0,0,0-1.129,1.129v3.782a1.129,1.129,0,0,0,1.129,1.129" transform="translate(-2589.57 -481.021)"/>
            <path id="Trazado_465583" data-name="Trazado 465583" d="M3219.812,569.44a9.85,9.85,0,0,0-3.538-2.69,11.788,11.788,0,0,0-9.237,0,9.851,9.851,0,0,0-3.538,2.69,12.35,12.35,0,0,0-2.251,4.224,19.931,19.931,0,0,0,0,11.107,12.6,12.6,0,0,0,2.251,4.246,9.8,9.8,0,0,0,3.538,2.709,11.822,11.822,0,0,0,9.237,0,9.8,9.8,0,0,0,3.538-2.709,12.605,12.605,0,0,0,2.252-4.246,19.942,19.942,0,0,0,0-11.107,12.35,12.35,0,0,0-2.252-4.224m-5.041,15.221a3.518,3.518,0,0,1-6.231,0,14.342,14.342,0,0,1,0-10.906,3.483,3.483,0,0,1,6.212,0,14.223,14.223,0,0,1,.019,10.906" transform="translate(-2704.267 -478.086)"/>
            <path id="Trazado_465584" data-name="Trazado 465584" d="M3383.609,569.44a9.856,9.856,0,0,0-3.539-2.69,11.789,11.789,0,0,0-9.237,0,9.851,9.851,0,0,0-3.538,2.69,12.345,12.345,0,0,0-2.251,4.224,19.936,19.936,0,0,0,0,11.107,12.6,12.6,0,0,0,2.251,4.246,9.8,9.8,0,0,0,3.538,2.709,11.822,11.822,0,0,0,9.237,0,9.8,9.8,0,0,0,3.539-2.709,12.621,12.621,0,0,0,2.251-4.246,19.931,19.931,0,0,0,0-11.107,12.365,12.365,0,0,0-2.251-4.224m-5.042,15.221a3.517,3.517,0,0,1-6.231,0,14.342,14.342,0,0,1,0-10.906,3.483,3.483,0,0,1,6.212,0,14.225,14.225,0,0,1,.019,10.906" transform="translate(-2842.669 -478.086)"/>
            <path id="Trazado_465585" data-name="Trazado 465585" d="M3523.346,570.652v3.553a1.129,1.129,0,0,0,1.129,1.129h1.511a1.129,1.129,0,0,1,1.129,1.129v17.519a1.129,1.129,0,0,0,1.129,1.129h4.627a1.129,1.129,0,0,0,1.129-1.129v-23.33a1.129,1.129,0,0,0-1.129-1.129h-8.4a1.13,1.13,0,0,0-1.129,1.129" transform="translate(-2977.095 -481.225)"/>
            <g transform="matrix(1, 0, 0, 1, 0, 0)" filter="url(#Trazado_465586)">
              <path id="Trazado_465586-2" data-name="Trazado 465586" d="M403.357,3.512a2.521,2.521,0,0,1,.864.152L419.11,9.083l15.868-.173a2.6,2.6,0,0,1,1.628.577L449.658,20.2l15.861,5.773a2.526,2.526,0,0,1,1.323,1.11l7.928,13.731,12.252,10.058a2.566,2.566,0,0,1,.888,1.48l3.11,16.607,8.439,14.617a2.523,2.523,0,0,1,.3,1.7l-2.753,15.611,2.923,15.587a2.531,2.531,0,0,1-.281,1.7l-6.972,12.375-1.312,2.33-2.933,16.637a2.526,2.526,0,0,1-.864,1.5L475.42,161.211l-7.773,13.808a2.52,2.52,0,0,1-1.317,1.125l-15.787,5.941L437.6,192.948a2.525,2.525,0,0,1-1.623.591H420.109l-14.823,5.579a2.645,2.645,0,0,1-.914.165,2.525,2.525,0,0,1-.818-.136l-15.935-5.608H370.741a2.525,2.525,0,0,1-1.623-.591l-12.152-10.2-14.945-5.26a2.521,2.521,0,0,1-1.347-1.1l-8.6-14.533-12.926-10.846a2.526,2.526,0,0,1-.864-1.5l-2.752-15.606-1.989-3.361-6.084-10.288a2.541,2.541,0,0,1-.326-1.7l2.753-16.666-2.93-16.618a2.525,2.525,0,0,1,.3-1.7l7.923-13.723L317.76,54.2a2.522,2.522,0,0,1,.859-1.51L331.43,41.707l8.442-14.622a2.525,2.525,0,0,1,1.323-1.11l14.9-5.423,12.037-10.324a2.561,2.561,0,0,1,1.613-.607l16.888-.184,15.861-5.773a2.521,2.521,0,0,1,.864-.152m0-3.515a6.022,6.022,0,0,0-2.066.364l-15.3,5.567-16.288.178h-.05a6.083,6.083,0,0,0-3.827,1.465l-11.538,9.9-14.3,5.2a6.049,6.049,0,0,0-3.165,2.656l-8.142,14.1-12.355,10.6A6.032,6.032,0,0,0,314.3,53.6l-2.484,15.054-7.6,13.169a6.05,6.05,0,0,0-.717,4.069l2.826,16.027-2.655,16.074c0,.017-.005.034-.008.051a6.093,6.093,0,0,0,.787,4.033l6.072,10.268,1.665,2.812,2.641,14.976a6.05,6.05,0,0,0,2.066,3.578l12.466,10.46,8.3,14.016a6.065,6.065,0,0,0,3.233,2.63l14.314,5.038,11.663,9.786a6.05,6.05,0,0,0,3.883,1.413h16.277l15.369,5.409a6.072,6.072,0,0,0,1.984.335,6.143,6.143,0,0,0,2.13-.382l14.248-5.362h15.225a6.05,6.05,0,0,0,3.883-1.413l12.485-10.477,15.225-5.73a6.039,6.039,0,0,0,3.131-2.671l7.47-13.27,11.659-9.783a6.05,6.05,0,0,0,2.066-3.578l2.829-16.046,1.017-1.807,6.971-12.374a6.037,6.037,0,0,0,.679-4.048l-2.81-14.986,2.642-14.981a6.05,6.05,0,0,0-.717-4.069l-8.139-14.1-3-16.016-.012-.059a6.081,6.081,0,0,0-2.124-3.51L477.5,38.506l-7.608-13.178a6.049,6.049,0,0,0-3.165-2.656l-15.3-5.568L438.837,6.771A6.151,6.151,0,0,0,434.978,5.4l-15.267.166L405.423.361A6.019,6.019,0,0,0,403.357,0" transform="translate(-256.36 0)"/>
            </g>
            <path id="Trazado_465587" data-name="Trazado 465587" d="M421.648,22.82l-61.3,22.311a2.526,2.526,0,0,0-1.323,1.11L326.41,102.734a2.527,2.527,0,0,0-.3,1.7l11.328,64.241a2.525,2.525,0,0,0,.864,1.5L388.272,212.1a2.525,2.525,0,0,0,1.623.591h65.233a2.525,2.525,0,0,0,1.623-.591l49.971-41.931a2.524,2.524,0,0,0,.864-1.5l11.328-64.241a2.525,2.525,0,0,0-.3-1.7L486,46.241a2.526,2.526,0,0,0-1.323-1.11l-61.3-22.311a2.525,2.525,0,0,0-1.727,0" transform="translate(-275.518 -19.153)" fill="#005fcf"/>
            <path id="Trazado_465588" data-name="Trazado 465588" d="M519.81,166.758l-6.972,12.375L487.808,223.6a2.52,2.52,0,0,1-1.318,1.125L425.446,247.7a2.575,2.575,0,0,1-1.732.029L362.182,226.07a2.519,2.519,0,0,1-1.347-1.1L333.7,179.133l-6.084-10.288a2.541,2.541,0,0,1-.326-1.7l7.49-45.339,3.138-19.021a2.523,2.523,0,0,1,.858-1.51l49.513-42.467a2.56,2.56,0,0,1,1.613-.607l65.233-.71a2.6,2.6,0,0,1,1.628.577l50.416,41.387a2.568,2.568,0,0,1,.888,1.48l3.908,20.871,8.112,43.252a2.531,2.531,0,0,1-.281,1.7" transform="translate(-276.525 -48.576)" fill="#2396fc"/>
            <path id="Trazado_465589" data-name="Trazado 465589" d="M555.813,219.994h0A86.339,86.339,0,0,0,527.085,112.78h0a86.339,86.339,0,0,0-110.573,9.674h0a86.338,86.338,0,0,0-24.959,53.526h0A86.339,86.339,0,0,0,455.217,266.9h0a86.338,86.338,0,0,0,58.834-5.147h0a86.339,86.339,0,0,0,41.761-41.761" transform="translate(-330.57 -82.101)" fill="#1d7ed4"/>
            <path id="Trazado_465590" data-name="Trazado 465590" d="M573.037,225.238a79.978,79.978,0,0,1-3.76,9.592A83.382,83.382,0,0,1,425.4,247.412a83.714,83.714,0,0,1-15.068-47.826c0-2.413.1-4.84.311-7.253a84.325,84.325,0,0,1,7.5-27.976,83.321,83.321,0,0,1,68.3-47.826c2.428-.207,4.855-.326,7.283-.326a83.369,83.369,0,0,1,79.31,57.743c.444,1.347.844,2.694,1.214,4.071a83.081,83.081,0,0,1-1.214,47.219" transform="translate(-346.715 -98.189)" fill="#0055ba"/>
            <path id="Trazado_465591" data-name="Trazado 465591" d="M586.007,193.047h0a80.754,80.754,0,0,0-85.04-59.546h0A80.75,80.75,0,0,0,450.9,156.846h0a80.753,80.753,0,0,0,36.2,135.1h0a80.753,80.753,0,0,0,55.028-4.814h0a80.751,80.751,0,0,0,39.06-39.059h0a80.753,80.753,0,0,0,4.814-55.028" transform="translate(-361.012 -112.543)" fill="#40a6ff"/>
            <path id="Trazado_465592" data-name="Trazado 465592" d="M9.273,435.4a4.641,4.641,0,1,1-4.365-4.9,4.64,4.64,0,0,1,4.365,4.9" transform="translate(0.001 -363.752)" fill="#40a6ff"/>
            <path id="Trazado_465593" data-name="Trazado 465593" d="M64.821,339.715a6.765,6.765,0,1,1,6.765-6.765,6.772,6.772,0,0,1-6.765,6.765m0-10.57a3.8,3.8,0,1,0,3.8,3.8,3.809,3.809,0,0,0-3.8-3.8" transform="translate(-49.055 -275.614)" fill="#40a6ff"/>
            <path id="Trazado_465594" data-name="Trazado 465594" d="M81.908,503.3a2.823,2.823,0,1,1-2.656-2.982,2.823,2.823,0,0,1,2.656,2.982" transform="translate(-64.442 -422.748)" fill="#40a6ff"/>
            <path id="Trazado_465595" data-name="Trazado 465595" d="M1812.858,847.028a4.308,4.308,0,1,1,2.509,5.552,4.308,4.308,0,0,1-2.509-5.552" transform="translate(-1531.562 -713.351)" fill="#40a6ff"/>
            <path id="Trazado_465596" data-name="Trazado 465596" d="M1680.421,883.644a7.171,7.171,0,1,1,2.942-.639,7.15,7.15,0,0,1-2.942.639m-.006-11.354a4.2,4.2,0,1,0,1.482.273,4.194,4.194,0,0,0-1.482-.273" transform="translate(-1413.841 -734.55)" fill="#40a6ff"/>
            <path id="Trazado_465597" data-name="Trazado 465597" d="M1785.511,764.615a2.823,2.823,0,1,1,1.644,3.639,2.824,2.824,0,0,1-1.644-3.639" transform="translate(-1508.535 -644.527)" fill="#40a6ff"/>
            <path id="Trazado_465598" data-name="Trazado 465598" d="M690.341,342.295l-1.758-9.373,1.655-9.387a1.519,1.519,0,0,0-.18-1.023l-5.075-8.79-1.87-9.986a1.543,1.543,0,0,0-.534-.89l-7.368-6.048-4.768-8.257a1.518,1.518,0,0,0-.8-.668L660.11,284.4l-7.849-6.443a1.566,1.566,0,0,0-.979-.347l-9.542.1-8.953-3.259a1.518,1.518,0,0,0-1.039,0l-9.538,3.471-10.156.111a1.538,1.538,0,0,0-.97.365l-7.238,6.208-8.96,3.261a1.519,1.519,0,0,0-.8.668l-5.076,8.793-7.7,6.608a1.517,1.517,0,0,0-.516.908l-1.553,9.412-4.764,8.252a1.518,1.518,0,0,0-.18,1.023l1.762,9.994L574.4,343.55a1.526,1.526,0,0,0,.2,1.024l3.659,6.186,1.2,2.021,1.655,9.385a1.518,1.518,0,0,0,.519.9l7.773,6.522,5.173,8.739a1.515,1.515,0,0,0,.81.659l8.987,3.163,7.308,6.132a1.518,1.518,0,0,0,.976.355H622.8l9.583,3.372a1.55,1.55,0,0,0,1.041-.018l8.914-3.355h9.54a1.519,1.519,0,0,0,.976-.355l7.784-6.532,9.494-3.573a1.515,1.515,0,0,0,.792-.677l4.674-8.3,7.305-6.13a1.517,1.517,0,0,0,.519-.9l1.764-10,.789-1.4,4.192-7.441a1.523,1.523,0,0,0,.169-1.024" transform="translate(-485.239 -231.826)" fill="#2396fc"/>
            <path id="Trazado_465599" data-name="Trazado 465599" d="M119.742,512.328a1.758,1.758,0,0,1-1.522-2.636l16.035-27.786L118.22,454.121a1.758,1.758,0,0,1,1.522-2.636H373.624a1.758,1.758,0,0,1,1.522,2.636l-16.035,27.786,16.035,27.786a1.758,1.758,0,0,1-1.522,2.636Z" transform="translate(-99.693 -381.487)" fill="#40a6ff"/>
            <path id="Trazado_465600" data-name="Trazado 465600" d="M364.045,443.664,347.5,472.328l16.542,28.664H110.163L126.7,472.328l-16.542-28.664Zm0-3.515H110.163a3.515,3.515,0,0,0-3.044,5.272l15.528,26.907-15.528,26.907a3.515,3.515,0,0,0,3.044,5.272H364.045a3.515,3.515,0,0,0,3.044-5.272l-15.528-26.907,15.528-26.907a3.515,3.515,0,0,0-3.044-5.272m0,7.03h0Z" transform="translate(-90.114 -371.909)"/>
            <path id="Trazado_465601" data-name="Trazado 465601" d="M907.355,308.854l1.918,3.715a.541.541,0,0,0,.408.283l4.288.6a.512.512,0,0,1,.3.883l-3.1,2.892a.5.5,0,0,0-.156.458l.733,4.083a.537.537,0,0,1-.786.546l-3.836-1.928a.565.565,0,0,0-.5,0l-3.836,1.928a.537.537,0,0,1-.786-.546l.733-4.083a.5.5,0,0,0-.156-.458l-3.1-2.892a.512.512,0,0,1,.3-.883l4.288-.6a.541.541,0,0,0,.408-.283l1.918-3.715a.553.553,0,0,1,.971,0" transform="translate(-759.879 -260.726)" fill="#fff"/>
            <path id="Trazado_465602" data-name="Trazado 465602" d="M1002.332,354.587l1.34,2.6a.378.378,0,0,0,.285.2l3,.416a.358.358,0,0,1,.21.617l-2.168,2.021a.352.352,0,0,0-.109.32l.512,2.853a.375.375,0,0,1-.549.381l-2.68-1.347a.393.393,0,0,0-.352,0l-2.68,1.347a.375.375,0,0,1-.549-.381l.512-2.853a.352.352,0,0,0-.109-.32l-2.169-2.021a.358.358,0,0,1,.21-.617l3-.416a.377.377,0,0,0,.285-.2l1.34-2.6a.387.387,0,0,1,.679,0" transform="translate(-842.18 -299.442)" fill="#fff"/>
            <path id="Trazado_465603" data-name="Trazado 465603" d="M836.922,354.587l1.34,2.6a.377.377,0,0,0,.285.2l3,.416a.358.358,0,0,1,.21.617l-2.168,2.021a.353.353,0,0,0-.109.32l.512,2.853a.375.375,0,0,1-.549.381l-2.68-1.347a.394.394,0,0,0-.352,0l-2.68,1.347a.375.375,0,0,1-.549-.381l.512-2.853a.352.352,0,0,0-.109-.32l-2.168-2.021a.358.358,0,0,1,.21-.617l3-.416a.378.378,0,0,0,.285-.2l1.34-2.6a.387.387,0,0,1,.679,0" transform="translate(-702.415 -299.442)" fill="#fff"/>
            <path id="Trazado_465604" data-name="Trazado 465604" d="M906.384,911.316l-1.918-3.715a.541.541,0,0,0-.408-.284l-4.288-.6a.512.512,0,0,1-.3-.883l3.1-2.892a.5.5,0,0,0,.156-.458L902,898.405a.537.537,0,0,1,.786-.546l3.836,1.928a.565.565,0,0,0,.5,0l3.836-1.928a.537.537,0,0,1,.786.546l-.733,4.083a.5.5,0,0,0,.156.458l3.1,2.892a.512.512,0,0,1-.3.883l-4.288.6a.541.541,0,0,0-.408.284l-1.918,3.715a.553.553,0,0,1-.971,0" transform="translate(-759.879 -758.606)" fill="#fff"/>
            <path id="Trazado_465605" data-name="Trazado 465605" d="M836.243,888.247l-1.34-2.6a.378.378,0,0,0-.285-.2l-3-.416a.358.358,0,0,1-.21-.617l2.168-2.021a.352.352,0,0,0,.109-.32l-.512-2.854a.375.375,0,0,1,.549-.381l2.68,1.347a.4.4,0,0,0,.352,0l2.68-1.347a.375.375,0,0,1,.549.381l-.512,2.854a.352.352,0,0,0,.109.32l2.168,2.021a.358.358,0,0,1-.21.617l-3,.416a.377.377,0,0,0-.285.2l-1.34,2.6a.387.387,0,0,1-.679,0" transform="translate(-702.415 -742.554)" fill="#fff"/>
            <path id="Trazado_465606" data-name="Trazado 465606" d="M1001.653,888.247l-1.34-2.6a.378.378,0,0,0-.285-.2l-3-.416a.358.358,0,0,1-.21-.617l2.169-2.021a.352.352,0,0,0,.109-.32l-.512-2.854a.375.375,0,0,1,.549-.381l2.68,1.347a.4.4,0,0,0,.352,0l2.68-1.347a.375.375,0,0,1,.549.381l-.512,2.854a.352.352,0,0,0,.109.32l2.168,2.021a.358.358,0,0,1-.21.617l-3,.416a.378.378,0,0,0-.285.2l-1.34,2.6a.387.387,0,0,1-.679,0" transform="translate(-842.18 -742.554)" fill="#fff"/>
            <path id="Trazado_465607" data-name="Trazado 465607" d="M695.582,254.71l1.272,1.909a4.126,4.126,0,0,1-.912.877,3.819,3.819,0,0,1-3.361.52,5.709,5.709,0,0,1-3.068-2.475,5.325,5.325,0,0,1-.985-3.634,3.79,3.79,0,0,1,1.733-2.844,4.311,4.311,0,0,1,1.188-.566l1.276,1.916a3.76,3.76,0,0,0-1.1.482,1.692,1.692,0,0,0-.747,1.437,3.307,3.307,0,0,0,.633,1.969,3.355,3.355,0,0,0,1.614,1.4,1.8,1.8,0,0,0,1.681-.211,3.352,3.352,0,0,0,.783-.782" transform="translate(-581.752 -209.971)" fill="#fff"/>
            <path id="Trazado_465608" data-name="Trazado 465608" d="M742.549,219.64l4.019-1.878.869,1.862-2.033.949.753,1.613,1.764-.824.849,1.816-1.764.824.744,1.593,2.046-.956.872,1.869-4.032,1.883Z" transform="translate(-627.426 -184)" fill="#fff"/>
            <path id="Trazado_465609" data-name="Trazado 465609" d="M807.841,197.941l2.455-.7a3.55,3.55,0,0,1,2.571.091,2.742,2.742,0,0,1,1.459,1.832,2.906,2.906,0,0,1,.048,1.4,2.239,2.239,0,0,1-.681,1.222l2.885,3.706-2.226.638-2.917-3.741-.035.01,1.214,4.23-2.109.6Zm2.622,1.19.632,2.205q1.39-.429,1.117-1.382a1.21,1.21,0,0,0-.589-.833,1.793,1.793,0,0,0-1.16.009" transform="translate(-682.595 -166.494)" fill="#fff"/>
            <path id="Trazado_465610" data-name="Trazado 465610" d="M880.3,181.723l5.191-.65.274,2.19-1.5.188.926,7.4-2.2.276-.927-7.4-1.486.186Z" transform="translate(-743.818 -152.999)" fill="#fff"/>
            <path id="Trazado_465611" data-name="Trazado 465611" d="M952.171,179.441l2.192.016-.07,9.661L952.1,189.1Z" transform="translate(-804.489 -151.62)" fill="#fff"/>
            <path id="Trazado_465612" data-name="Trazado 465612" d="M1002.713,182.394l4.392.62-.288,2.049-2.222-.313-.247,1.748,1.957.276-.28,1.985-1.957-.276-.534,3.784-2.17-.306Z" transform="translate(-846.116 -154.116)" fill="#fff"/>
            <path id="Trazado_465613" data-name="Trazado 465613" d="M1062.645,195.088l2.112.592-2.609,9.3-2.111-.592Z" transform="translate(-895.692 -164.841)" fill="#fff"/>
            <path id="Trazado_465614" data-name="Trazado 465614" d="M1110.752,213.085l4.071,1.762-.817,1.886-2.059-.891-.707,1.634,1.786.773-.8,1.84-1.787-.774-.7,1.614,2.072.9-.819,1.892-4.085-1.767Z" transform="translate(-935.301 -180.049)" fill="#fff"/>
            <path id="Trazado_465615" data-name="Trazado 465615" d="M1166.844,243.906l1.728,1.1a4.164,4.164,0,0,1,2.077,2.76,5.08,5.08,0,0,1-.968,3.583,6.373,6.373,0,0,1-1.993,2.112,3.379,3.379,0,0,1-2.131.5,4.835,4.835,0,0,1-2.09-.755l-1.812-1.155Zm.746,2.912-2.977,4.676a1.764,1.764,0,0,0,1.568.162,3.792,3.792,0,0,0,1.443-1.5,6.047,6.047,0,0,0,.642-1.277,2.066,2.066,0,0,0,.118-.988,1.222,1.222,0,0,0-.262-.626,3.46,3.46,0,0,0-.533-.45" transform="translate(-981.555 -206.091)" fill="#fff"/>
            <path id="Trazado_465616" data-name="Trazado 465616" d="M1156.894,1009.1l-1.2-1.956a4.118,4.118,0,0,1,.945-.842,3.815,3.815,0,0,1,3.378-.394,5.7,5.7,0,0,1,2.973,2.587,5.329,5.329,0,0,1,.848,3.67,3.792,3.792,0,0,1-1.838,2.776,4.3,4.3,0,0,1-1.209.52l-1.2-1.962a3.732,3.732,0,0,0,1.122-.442,1.69,1.69,0,0,0,.8-1.407,3.319,3.319,0,0,0-.558-1.992,3.358,3.358,0,0,0-1.56-1.459,1.8,1.8,0,0,0-1.688.147,3.388,3.388,0,0,0-.812.752" transform="translate(-976.519 -849.766)" fill="#fff"/>
            <path id="Trazado_465617" data-name="Trazado 465617" d="M1110.041,1037.581l-4.087,1.726-.8-1.893,2.067-.873-.693-1.64-1.792.757-.781-1.846,1.793-.757-.684-1.62-2.08.878-.8-1.9,4.1-1.732Z" transform="translate(-931.303 -869.196)" fill="#fff"/>
            <path id="Trazado_465618" data-name="Trazado 465618" d="M1040.606,1059.527l-2.481.612a3.557,3.557,0,0,1-2.565-.187,2.747,2.747,0,0,1-1.39-1.886,2.9,2.9,0,0,1,.005-1.4,2.235,2.235,0,0,1,.726-1.2l-2.745-3.81,2.248-.555,2.776,3.846.035-.009-1.055-4.271,2.129-.526Zm-2.577-1.287-.549-2.227q-1.406.376-1.168,1.339a1.208,1.208,0,0,0,.557.854,1.791,1.791,0,0,0,1.16.034" transform="translate(-872.133 -887.335)" fill="#fff"/>
            <path id="Trazado_465619" data-name="Trazado 465619" d="M984.1,1073.765l-5.213.455-.192-2.2,1.507-.131-.649-7.426,2.213-.194.649,7.426,1.492-.131Z" transform="translate(-826.961 -899.268)" fill="#fff"/>
            <rect id="Rectángulo_262907" data-name="Rectángulo 262907" width="9.662" height="2.193" transform="translate(143.702 174.881) rotate(-87.416)" fill="#fff"/>
            <path id="Trazado_465620" data-name="Trazado 465620" d="M859.865,1069.55l-4.365-.786.366-2.037,2.208.4.313-1.738-1.945-.349.355-1.974,1.945.35.677-3.76,2.158.388Z" transform="translate(-722.865 -895.366)" fill="#fff"/>
            <rect id="Rectángulo_262908" data-name="Rectángulo 262908" width="9.661" height="2.193" transform="translate(124.653 171.156) rotate(-72.185)" fill="#fff"/>
            <path id="Trazado_465621" data-name="Trazado 465621" d="M741.59,1030.279l-4-1.913.887-1.854,2.024.968.768-1.606-1.757-.84.865-1.808,1.756.84.759-1.586-2.038-.974.89-1.861,4.015,1.919Z" transform="translate(-623.234 -861.559)" fill="#fff"/>
            <path id="Trazado_465622" data-name="Trazado 465622" d="M681.037,1000.391l-1.685-1.164a4.163,4.163,0,0,1-1.973-2.835,5.086,5.086,0,0,1,1.1-3.544,6.37,6.37,0,0,1,2.07-2.036,3.376,3.376,0,0,1,2.149-.425,4.817,4.817,0,0,1,2.059.832l1.769,1.221Zm-.637-2.937,3.15-4.562a1.768,1.768,0,0,0-1.562-.221,3.8,3.8,0,0,0-1.5,1.442,5.947,5.947,0,0,0-.689,1.253,2.042,2.042,0,0,0-.155.983,1.215,1.215,0,0,0,.239.635,3.369,3.369,0,0,0,.514.47" transform="translate(-572.333 -836.811)" fill="#fff"/>
            <path id="Trazado_465623" data-name="Trazado 465623" d="M371.6,587.773h5.244a1.129,1.129,0,0,0,1.129-1.129V561.967a1.129,1.129,0,0,0-1.129-1.129H371.6a1.129,1.129,0,0,0-1.129,1.129v24.677a1.129,1.129,0,0,0,1.129,1.129" transform="translate(-313.037 -473.887)"/>
            <path id="Trazado_465624" data-name="Trazado 465624" d="M463.039,569.8a11.38,11.38,0,0,0-2.965-1.443q-1.616-.517-3.116-.9-.963-.231-1.788-.479a10.72,10.72,0,0,1-1.444-.538,3.22,3.22,0,0,1-.98-.673,1.344,1.344,0,0,1-.366-.961,1.489,1.489,0,0,1,.808-1.406,3.7,3.7,0,0,1,1.807-.442,3.227,3.227,0,0,1,1.982.614,1.959,1.959,0,0,1,.735,1.112,1.1,1.1,0,0,0,1.085.773h5.239a1.136,1.136,0,0,0,1.13-1.249,7.841,7.841,0,0,0-2.571-5.214q-2.635-2.348-7.521-2.345-4.81,0-7.521,2.173a8.553,8.553,0,0,0-1.885,9.926,7.106,7.106,0,0,0,2.136,2.349,10.383,10.383,0,0,0,2.865,1.384c1.039.322,2.045.595,3.021.826.639.154,1.243.31,1.807.464a8.439,8.439,0,0,1,1.481.538,3.065,3.065,0,0,1,1,.73,1.6,1.6,0,0,1,.363,1.077,1.876,1.876,0,0,1-.921,1.694,3.912,3.912,0,0,1-2.117.576,3.646,3.646,0,0,1-2.214-.692,2.2,2.2,0,0,1-.838-1.265,1.126,1.126,0,0,0-1.069-.889h-5.5a1.129,1.129,0,0,0-1.128,1.235,9.1,9.1,0,0,0,.705,2.707,7.993,7.993,0,0,0,2.173,2.943,9.7,9.7,0,0,0,3.423,1.829,14.945,14.945,0,0,0,4.484.636,15.817,15.817,0,0,0,4.309-.557,9.742,9.742,0,0,0,3.407-1.694,7.885,7.885,0,0,0,2.251-2.809,8.792,8.792,0,0,0,.808-3.867,7.336,7.336,0,0,0-.867-3.77,7.484,7.484,0,0,0-2.211-2.386" transform="translate(-375.629 -470.338)"/>
            <path id="Trazado_465625" data-name="Trazado 465625" d="M625,560.358a14.248,14.248,0,0,0-4.675-2.924,17.286,17.286,0,0,0-11.912,0,14.256,14.256,0,0,0-4.712,2.943,13.241,13.241,0,0,0-3.078,4.484,15.245,15.245,0,0,0,0,11.351,13.2,13.2,0,0,0,3.078,4.481,14.155,14.155,0,0,0,4.712,2.943,17.286,17.286,0,0,0,11.912,0A14.148,14.148,0,0,0,625,580.711a13.115,13.115,0,0,0,3.056-4.462,15.406,15.406,0,0,0,0-11.429A13.114,13.114,0,0,0,625,560.358m-4.1,13.083a6.737,6.737,0,0,1-1.462,2.289,6.661,6.661,0,0,1-2.233,1.5,7.232,7.232,0,0,1-2.828.539,7.372,7.372,0,0,1-2.846-.539,6.618,6.618,0,0,1-2.251-1.5,6.926,6.926,0,0,1-1.481-2.289,8.11,8.11,0,0,1,0-5.812,6.959,6.959,0,0,1,1.481-2.289,6.71,6.71,0,0,1,2.251-1.5,7.372,7.372,0,0,1,2.846-.539,7.232,7.232,0,0,1,2.828.539,6.627,6.627,0,0,1,3.7,3.789,8.386,8.386,0,0,1,0,5.812" transform="translate(-506.578 -470.115)"/>
            <path id="Trazado_465626" data-name="Trazado 465626" d="M874.149,581.627a22.909,22.909,0,0,0,2.039-3.078,10.612,10.612,0,0,0,1-2.5,10.084,10.084,0,0,0,.269-2.326,8.018,8.018,0,0,0-.673-3.31,7.566,7.566,0,0,0-1.885-2.577,8.674,8.674,0,0,0-2.906-1.675,11.171,11.171,0,0,0-3.732-.6,10.888,10.888,0,0,0-3.751.611,8.026,8.026,0,0,0-2.828,1.722,7.324,7.324,0,0,0-1.769,2.7,9.577,9.577,0,0,0-.617,3.513v.5h6.732v-.5a2.612,2.612,0,0,1,.617-1.829,2.23,2.23,0,0,1,1.732-.673,2.089,2.089,0,0,1,1.6.636,2.34,2.34,0,0,1,.6,1.672,4.645,4.645,0,0,1-.385,1.75,14.488,14.488,0,0,1-1.616,2.656q-1.23,1.714-3.538,4.521-2.23,2.71-5.887,7.067a1.145,1.145,0,0,0-.269.731A1.129,1.129,0,0,0,860,591.767H876.79a1.129,1.129,0,0,0,1.129-1.129v-3.782a1.129,1.129,0,0,0-1.129-1.129h-3.565a1.131,1.131,0,0,1-.866-1.852q1.022-1.239,1.79-2.247" transform="translate(-725.717 -477.88)"/>
            <path id="Trazado_465627" data-name="Trazado 465627" d="M999.483,575.32h7.782a1.129,1.129,0,0,1,1.048,1.549l-6.608,16.488a1.129,1.129,0,0,0,1.048,1.549h4.8a1.129,1.129,0,0,0,1.05-.716l9.334-23.7a1.133,1.133,0,0,0,.079-.414v-.794H999.483a1.129,1.129,0,0,0-1.129,1.129v3.782a1.129,1.129,0,0,0,1.129,1.129" transform="translate(-843.572 -481.02)"/>
            <path id="Trazado_465628" data-name="Trazado 465628" d="M1153.451,569.439a9.852,9.852,0,0,0-3.538-2.69,11.789,11.789,0,0,0-9.237,0,9.853,9.853,0,0,0-3.539,2.69,12.351,12.351,0,0,0-2.251,4.224,19.931,19.931,0,0,0,0,11.107,12.606,12.606,0,0,0,2.251,4.246,9.8,9.8,0,0,0,3.539,2.709,11.824,11.824,0,0,0,9.237,0,9.8,9.8,0,0,0,3.538-2.709,12.6,12.6,0,0,0,2.251-4.246,19.937,19.937,0,0,0,0-11.107,12.345,12.345,0,0,0-2.251-4.224m-5.041,15.221a3.517,3.517,0,0,1-6.231,0,14.342,14.342,0,0,1,0-10.906,3.483,3.483,0,0,1,6.212,0,14.226,14.226,0,0,1,.019,10.906" transform="translate(-958.269 -478.085)"/>
            <path id="Trazado_465629" data-name="Trazado 465629" d="M1317.248,569.439a9.852,9.852,0,0,0-3.538-2.69,11.788,11.788,0,0,0-9.237,0,9.853,9.853,0,0,0-3.539,2.69,12.347,12.347,0,0,0-2.251,4.224,19.934,19.934,0,0,0,0,11.107,12.6,12.6,0,0,0,2.251,4.246,9.8,9.8,0,0,0,3.539,2.709,11.823,11.823,0,0,0,9.237,0,9.8,9.8,0,0,0,3.538-2.709,12.606,12.606,0,0,0,2.251-4.246,19.931,19.931,0,0,0,0-11.107,12.351,12.351,0,0,0-2.251-4.224m-5.041,15.221a3.517,3.517,0,0,1-6.231,0,14.341,14.341,0,0,1,0-10.906,3.484,3.484,0,0,1,6.213,0,14.229,14.229,0,0,1,.019,10.906" transform="translate(-1096.672 -478.085)"/>
            <path id="Trazado_465630" data-name="Trazado 465630" d="M1456.985,570.651V574.2a1.129,1.129,0,0,0,1.129,1.129h1.512a1.129,1.129,0,0,1,1.129,1.129v17.519a1.129,1.129,0,0,0,1.129,1.129h4.627a1.129,1.129,0,0,0,1.129-1.129v-23.33a1.129,1.129,0,0,0-1.129-1.129h-8.4a1.129,1.129,0,0,0-1.129,1.129" transform="translate(-1231.097 -481.224)"/>
          </g>
        </g>
      </g>
    </g>
    <g id="Grupo_710334" data-name="Grupo 710334" transform="translate(895.704 4176.268)">
      <g id="Grupo_709409" data-name="Grupo 709409" transform="translate(0 0.748)">
        <g id="Grupo_709394" data-name="Grupo 709394" transform="translate(0)">
          <g id="Grupo_709393" data-name="Grupo 709393">
            <path id="Trazado_242537" data-name="Trazado 242537" d="M29.376,0A29.376,29.376,0,1,1,0,29.376,29.376,29.376,0,0,1,29.376,0Z" fill="#d0e1fc"/>
            <path id="Trazado_242538" data-name="Trazado 242538" d="M17.626,0A17.626,17.626,0,1,1,0,17.626,17.626,17.626,0,0,1,17.626,0Z" transform="translate(11.75 11.749)" fill="#173d7a"/>
          </g>
          <text id="_" data-name="+" transform="translate(29.257 42.583)" fill="#fff" font-size="38" font-family="Roboto-Black, Roboto" font-weight="800"><tspan x="-10.149" y="0">+</tspan></text>
        </g>
      </g>
    </g>
    <g id="Grupo_709409-2" data-name="Grupo 709409" transform="translate(571.704 4177.016)">
      <g id="Grupo_709394-2" data-name="Grupo 709394" transform="translate(0)">
        <g id="Grupo_709393-2" data-name="Grupo 709393">
          <path id="Trazado_242537-2" data-name="Trazado 242537" d="M29.376,0A29.376,29.376,0,1,1,0,29.376,29.376,29.376,0,0,1,29.376,0Z" fill="#d0e1fc"/>
          <path id="Trazado_242538-2" data-name="Trazado 242538" d="M17.626,0A17.626,17.626,0,1,1,0,17.626,17.626,17.626,0,0,1,17.626,0Z" transform="translate(11.75 11.749)" fill="#173d7a"/>
        </g>
        <text id="_2" data-name="+" transform="translate(29.257 42.583)" fill="#fff" font-size="38" font-family="Roboto-Black, Roboto" font-weight="800"><tspan x="-10.149" y="0">+</tspan></text>
      </g>
    </g>
  </g>
</svg>
