<svg xmlns="http://www.w3.org/2000/svg" xmlns:xlink="http://www.w3.org/1999/xlink" width="314" height="206" viewBox="0 0 314 206">
  <defs>
    <filter id="Rect치ngulo_263223" x="0" y="0" width="314" height="206" filterUnits="userSpaceOnUse">
      <feOffset dy="3" input="SourceAlpha"/>
      <feGaussianBlur stdDeviation="4" result="blur"/>
      <feFlood flood-opacity="0.161"/>
      <feComposite operator="in" in2="blur"/>
      <feComposite in="SourceGraphic"/>
    </filter>
  </defs>
  <g id="Grupo_710349" data-name="Grupo 710349" transform="translate(-791.506 -16557.749)">
    <g id="Grupo_709783" data-name="Grupo 709783" transform="translate(-15.903)">
      <g transform="matrix(1, 0, 0, 1, 807.41, 16557.75)" filter="url(#Rect치ngulo_263223)">
        <rect id="Rect치ngulo_263223-2" data-name="Rect치ngulo 263223" width="290" height="182" rx="17" transform="translate(12 9)" fill="#fff"/>
      </g>
    </g>
    <text id="Seguridad_en_los_procesos_de_desarrollo_y_soporte_de_aplicaciones_y_servicios" data-name="Seguridad en los procesos de desarrollo y soporte de aplicaciones y servicios" transform="translate(848.506 16669)" fill="#12263f" font-size="15" font-family="Roboto-Black, Roboto" font-weight="800"><tspan x="9.861" y="16">Seguridad en los procesos </tspan><tspan x="11.201" y="37">de desarrollo y soporte de </tspan><tspan x="18.625" y="58">aplicaciones y servicios</tspan></text>
    <g id="_5tlvLI" data-name="5tlvLI" transform="translate(910.506 16581)">
      <g id="Grupo_152067" data-name="Grupo 152067">
        <path id="Trazado_194684" data-name="Trazado 194684" d="M614.811,201.816c2.5-.82,3.454.895,4.243,2.786a1.841,1.841,0,0,0,2.1,1.267c1.246-.1,2.506-.023,3.867-.023V197.7c-1.777-.128-3.557-.137-5.3-.4a15.316,15.316,0,0,1-13.209-15.764c.333-6.768,5.911-12.752,13.057-13.945,1.362-.227,2.756-.263,4.3-.4a12.809,12.809,0,0,1,4.052-11.219,13.974,13.974,0,0,1,8.025-3.724,14.288,14.288,0,0,1,15.588,9.536c3.631-1.2,7.174-1.065,10.365,1.269,3.258,2.383,4.442,5.66,3.723,9.764.878-.143,1.625-.279,2.376-.384a13.743,13.743,0,0,1,14.173,7.412c3.458,7.36-1.317,16.03-9.642,17.469a20.736,20.736,0,0,1-2.981.252c-1.558.041-3.117.011-4.78.011v8.27c1.605,0,3.2.02,4.8-.021a1.226,1.226,0,0,0,.711-.451,3.59,3.59,0,0,0,.454-.788c.91-1.756,1.643-3.772,4.266-2.706.749-1.959,1.877-3.176,3.858-3.332a4.087,4.087,0,0,1,4.353,3.159,4.136,4.136,0,0,1-7.649,2.94c-.3-.551-.414-1.145-1.337-1.132s-1.149.6-1.49,1.189c-2.073,3.593-.872,2.853-5.053,2.936-.946.019-1.893,0-2.929,0v3.815h2.921c2.13,0,4.26-.019,6.39.012a1.264,1.264,0,0,0,1.392-.822,4.038,4.038,0,0,1,4.75-2.284,4.142,4.142,0,0,1-.026,8.023A4.171,4.171,0,0,1,675.4,214.1c-.175-.328-.533-.791-.813-.8-3.248-.056-6.5-.036-9.835-.036v3.846c1.707,0,3.35.052,4.987-.019a1.856,1.856,0,0,1,2.052,1.2,8.547,8.547,0,0,0,1.151,2.036,2.268,2.268,0,0,0,1.4.791c.339.029.861-.436,1.07-.809a4.243,4.243,0,0,1,4.686-2.264,4.151,4.151,0,0,1,.059,8.064,4.013,4.013,0,0,1-4.719-2.331,1.167,1.167,0,0,0-1.4-.805,2.1,2.1,0,0,1-2.6-1.568,3.345,3.345,0,0,0-4.225-2.519,14.972,14.972,0,0,1-2.478.021c-.026.5-.066.914-.068,1.33-.009,1.782.029,3.565-.019,5.346a3.18,3.18,0,0,1-3.261,3.345q-16.5.039-32.993-.005a3.193,3.193,0,0,1-3.257-3.483c-.029-2.119-.007-4.238-.007-6.527-1.733,0-3.327-.026-4.918.026a1.228,1.228,0,0,0-.773.55,9.63,9.63,0,0,0-.948,1.707,2.47,2.47,0,0,1-2.88,1.819,1.628,1.628,0,0,0-1.2.794,4.19,4.19,0,0,1-4.778,2.287,4.04,4.04,0,0,1-3.139-3.977,4.109,4.109,0,0,1,3.205-4.07,4.244,4.244,0,0,1,4.682,2.267c.212.371.739.829,1.079.8.5-.047,1.26-.4,1.383-.795.915-2.9,2.932-3.653,5.706-3.233a17.3,17.3,0,0,0,2.507.019v-3.853h-3.083c-2.087,0-4.173.019-6.26-.012a1.256,1.256,0,0,0-1.373.844,4,4,0,0,1-4.743,2.292,4.146,4.146,0,0,1,0-8.027,4.2,4.2,0,0,1,4.783,2.279c.177.326.551.773.84.778,3.247.055,6.5.035,9.826.035v-3.806c-1.6,0-3.193-.068-4.775.023a2.092,2.092,0,0,1-2.357-1.37,8.173,8.173,0,0,0-1.15-2.036,2.045,2.045,0,0,0-1.346-.647,1.417,1.417,0,0,0-1,.705,4.234,4.234,0,0,1-4.876,2.336,4.138,4.138,0,1,1,4.9-5.567C614.539,201.282,614.639,201.473,614.811,201.816Zm15.218-9.343c0-.774-.012-1.415,0-2.056.08-3.732-.167-7.508.322-11.186a14.744,14.744,0,0,1,29.137.034c.475,3.68.207,7.456.271,11.189.011.636,0,1.272,0,2.027,2.6-.187,4.532.448,4.986,3.394a61.072,61.072,0,0,0,7.564-.405c7.927-1.385,11.73-9.978,7.357-16.337a12.267,12.267,0,0,0-14.656-4.091,6.129,6.129,0,0,1-1.792.132,6.408,6.408,0,0,1,.206-1.665,7.179,7.179,0,0,0-.339-6.522,8.7,8.7,0,0,0-11.05-3.371c-1.647.716-1.759.663-2.223-1.038-1.666-6.109-8.216-9.785-14.836-8.337-6.151,1.346-10.573,7.145-9.11,13.477.294,1.271-.033,1.506-1.308,1.5a26.6,26.6,0,0,0-5.051.241c-7.648,1.476-12.538,8.6-10.917,15.732,1.575,6.931,8.949,11.62,16.488,10.43C625.528,192.907,627.471,192.283,630.029,192.472Zm14.921,34.682q7.819,0,15.638,0c1.846,0,2.271-.4,2.273-2.184q.01-14.269,0-28.539c0-1.684-.48-2.155-2.183-2.156q-15.7-.009-31.405,0c-1.907,0-2.333.419-2.334,2.268q-.005,14.2,0,28.408c0,1.79.427,2.2,2.245,2.205Q637.066,227.161,644.95,227.155Zm13.008-34.767c0-3.549.008-7.015,0-10.481a13.091,13.091,0,0,0-11.692-13.268c-7.072-.6-13.178,3.912-14.125,11-.548,4.1-.208,8.322-.261,12.489,0,.072.082.145.147.253h5c0-.559,0-1.027,0-1.494,0-3.042-.017-6.085.012-9.127a7.86,7.86,0,1,1,15.719-.085c.064,3.085.016,6.171.018,9.257,0,.465,0,.93,0,1.457Zm-7.039.014c0-3.9.135-7.644-.041-11.369a5.9,5.9,0,0,0-6.192-5.468,6.019,6.019,0,0,0-5.843,5.865c-.06,1.955-.017,3.912-.019,5.869,0,1.681,0,3.362,0,5.1Zm-37.975,29.734a2.326,2.326,0,1,0-2.335,2.294A2.359,2.359,0,0,0,612.944,222.136Zm66.2,2.291a2.33,2.33,0,1,0-2.289-2.332A2.34,2.34,0,0,0,679.144,224.427Zm-68.572-14.376a2.317,2.317,0,0,0-2.285,2.33,2.327,2.327,0,1,0,4.652-.082A2.321,2.321,0,0,0,610.572,210.051Zm70.921,2.413a2.3,2.3,0,0,0-2.191-2.41,2.331,2.331,0,0,0-2.451,2.3,2.322,2.322,0,0,0,4.642.115Zm-70.92-12.153a2.337,2.337,0,0,0-2.278,2.343,2.321,2.321,0,1,0,4.64-.077A2.349,2.349,0,0,0,610.573,200.311Zm70.922,2.329a2.336,2.336,0,0,0-2.29-2.328,2.376,2.376,0,0,0-2.358,2.279,2.333,2.333,0,0,0,2.374,2.375A2.292,2.292,0,0,0,681.495,202.639Z" transform="translate(-606.492 -152.123)" fill="#12263f"/>
        <path id="Trazado_194685" data-name="Trazado 194685" d="M619.8,265.971l.836-.921c.322.37.911.731.925,1.113.183,4.938,4.455,9.013,9.723,9.52a3.632,3.632,0,0,1,1.153.122,4.447,4.447,0,0,1,.952.839c-.347.3-.695.865-1.04.863a14.876,14.876,0,0,1-3.213-.377A12.036,12.036,0,0,1,619.8,265.971Z" transform="translate(-616.331 -235.593)" fill="#12263f"/>
        <path id="Trazado_194686" data-name="Trazado 194686" d="M847.07,243.007c5.1.238,9.007,3.527,9.707,7.787a3.212,3.212,0,0,1,.048,1.409,1.292,1.292,0,0,1-.87.741c-.234.038-.56-.4-.816-.659-.071-.071-.03-.25-.048-.378a7.744,7.744,0,0,0-7.145-7.036c-.172-.022-.344-.045-.516-.063-.639-.066-1.52-.02-1.374-.919C846.127,243.454,846.911,243.135,847.07,243.007Z" transform="translate(-783.554 -219.3)" fill="#12263f"/>
        <path id="Trazado_194687" data-name="Trazado 194687" d="M724.49,165.479c4.836.129,8.835,3.056,10.056,7.008.089.289.275.626.2.87a6.276,6.276,0,0,1-.681,1.2c-.347-.259-.914-.457-1.006-.787-1.191-4.274-4.2-6.12-8.4-6.522-.406-.039-.764-.59-1.144-.9Z" transform="translate(-692.989 -161.995)" fill="#12263f"/>
        <path id="Trazado_194688" data-name="Trazado 194688" d="M721.034,388.053c-3.125,0-6.25-.028-9.375.016-1,.014-1.591-.336-1.7-1.339a36.073,36.073,0,0,1-.493-5.524,5.668,5.668,0,0,1,4.374-5.405,25.581,25.581,0,0,1,14.381.02,5.685,5.685,0,0,1,4.324,5.451,35.672,35.672,0,0,1-.522,5.526c-.106.951-.672,1.281-1.616,1.27C727.284,388.03,724.159,388.053,721.034,388.053Zm-.068-1.8c2.78,0,5.56.021,8.339-.025.385-.006,1.037-.271,1.106-.535,1.2-4.606.331-8.045-4.644-8.624a41.157,41.157,0,0,0-8.566-.148c-5.221.492-6.9,3.069-5.812,8.217.171.807.475,1.159,1.367,1.14C715.493,386.217,718.23,386.254,720.967,386.251Z" transform="translate(-682.597 -316.699)" fill="#12263f"/>
        <path id="Trazado_194689" data-name="Trazado 194689" d="M744.184,333.041a5.2,5.2,0,1,1-5.1-5.2A5.188,5.188,0,0,1,744.184,333.041Zm-5.244,3.382a3.4,3.4,0,0,0,3.438-3.343,3.394,3.394,0,1,0-6.787-.077A3.378,3.378,0,0,0,738.94,336.423Z" transform="translate(-700.577 -282.002)" fill="#12263f"/>
      </g>
    </g>
  </g>
</svg>
