<svg xmlns="http://www.w3.org/2000/svg" xmlns:xlink="http://www.w3.org/1999/xlink" width="1235" height="277.496" viewBox="0 0 1235 277.496">
  <defs>
    <clipPath id="clip-path">
      <rect id="Rectángulo_263271" data-name="Rectángulo 263271" width="1235" height="277.496" fill="none"/>
    </clipPath>
    <clipPath id="clip-path-2">
      <rect id="Rectángulo_263270" data-name="Rectángulo 263270" width="1235" height="328.495" fill="none"/>
    </clipPath>
  </defs>
  <g id="Grupo_710356" data-name="Grupo 710356" transform="translate(-182.506 -18858.882)">
    <text id="El_objetivo_fundamental_de_este_dominio_es_asegurar_y_proteger_los_datos_que_son_utilizados_en_las_fases_de_pruebas_funcionales_y_de_seguridad_de_las_aplicaciones_desarrolladas_o_adquiridas._" data-name="El objetivo fundamental de este dominio es asegurar y proteger los datos que son utilizados en las fases de pruebas funcionales y de seguridad de las aplicaciones desarrolladas o adquiridas.
" transform="translate(556.506 18907)" fill="#12263f" font-size="16" font-family="Roboto-Regular, Roboto"><tspan x="0" y="17">El objetivo fundamental de </tspan><tspan x="0" y="38">este dominio es asegurar y </tspan><tspan x="0" y="59">proteger los datos que son </tspan><tspan x="0" y="80">utilizados en las fases de </tspan><tspan x="0" y="101">pruebas funcionales y de </tspan><tspan x="0" y="122">seguridad de las </tspan><tspan x="0" y="143">aplicaciones desarrolladas </tspan><tspan x="0" y="164">o adquiridas.</tspan></text>
    <text id="Los_datos_utilizados_para_realizar_las_pruebas_deben_de_ser_cuidadosamente_seleccionados_a_fin_de_evitar_pérdidas_de_confidencialidad." data-name="Los datos utilizados para realizar las pruebas deben de ser cuidadosamente seleccionados, a fin de evitar pérdidas de confidencialidad." transform="translate(1181.506 18938)" fill="#12263f" font-size="16" font-family="Roboto-Regular, Roboto"><tspan x="0" y="17">Los datos utilizados para </tspan><tspan x="0" y="38">realizar las pruebas deben de </tspan><tspan x="0" y="59">ser cuidadosamente </tspan><tspan x="0" y="80">seleccionados, a fin de evitar </tspan><tspan x="0" y="101">pérdidas de confidencialidad.</tspan></text>
    <g id="Grupo_709802" data-name="Grupo 709802" transform="translate(182.506 18858.881)">
      <g id="Enmascarar_grupo_709801" data-name="Enmascarar grupo 709801" clip-path="url(#clip-path)">
        <path id="Trazado_466081" data-name="Trazado 466081" d="M875.64,390.016l-36.359-17.248v33.248Z" transform="translate(-550.72 -254.969)" fill="#ff2c9c"/>
        <path id="Trazado_466082" data-name="Trazado 466082" d="M2696.559,391.368l-37.038-16.624v33.248Z" transform="translate(-1745.125 -256.321)" fill="#e2c140"/>
        <g id="Grupo_709800" data-name="Grupo 709800" transform="translate(0 0.001)">
          <g id="Grupo_709799" data-name="Grupo 709799" clip-path="url(#clip-path-2)">
            <path id="Trazado_466083" data-name="Trazado 466083" d="M246.066,270.094H47.794C21.441,270.094,0,250.388,0,226.165V43.931C0,19.708,21.441,0,47.794,0H246.066C272.42,0,293.86,19.708,293.86,43.931V226.165c0,24.222-21.44,43.929-47.794,43.929M47.794,5.624c-22.981,0-41.678,17.184-41.678,38.307V226.165c0,21.123,18.7,38.307,41.678,38.307H246.066c22.981,0,41.678-17.184,41.678-38.307V43.931c0-21.123-18.7-38.307-41.678-38.307Z" transform="translate(0 -0.002)" fill="#ff2c9c"/>
            <path id="Trazado_466084" data-name="Trazado 466084" d="M72,29.461H260.524c23.493,0,42.538,17.5,42.538,39.1V241.837c0,21.593-19.045,39.1-42.538,39.1H72c-23.493,0-42.538-17.5-42.538-39.1V68.558c0-21.593,19.045-39.1,42.538-39.1" transform="translate(-19.33 -20.152)" fill="#f7f7f7"/>
            <path id="Trazado_466085" data-name="Trazado 466085" d="M2068.5,270.094H1870.232c-26.354,0-47.795-19.706-47.795-43.929V43.931c0-24.222,21.441-43.929,47.794-43.929H2068.5c26.354,0,47.794,19.706,47.794,43.929V226.165c0,24.222-21.44,43.929-47.794,43.929M1870.231,5.624c-22.981,0-41.678,17.184-41.678,38.307V226.165c0,21.123,18.7,38.307,41.678,38.307H2068.5c22.981,0,41.678-17.184,41.678-38.307V43.931c0-21.123-18.7-38.307-41.678-38.307Z" transform="translate(-1195.847 -0.002)" fill="#e2c140"/>
            <path id="Trazado_466086" data-name="Trazado 466086" d="M1894.433,29.461h188.528c23.493,0,42.538,17.5,42.538,39.1V241.837c0,21.593-19.045,39.1-42.538,39.1H1894.433c-23.493,0-42.538-17.5-42.538-39.1V68.558c0-21.593,19.045-39.1,42.538-39.1" transform="translate(-1215.177 -20.152)" fill="#f7f7f7"/>
            <path id="Trazado_466087" data-name="Trazado 466087" d="M1199.122,279.662H1010.594c-24.111,0-43.727-18.029-43.727-40.19V66.192c0-22.161,19.616-40.19,43.727-40.19h94.264v2.186h-94.264c-22.8,0-41.348,17.049-41.348,38V239.472c0,20.956,18.549,38,41.348,38h188.528c22.8,0,41.349-17.049,41.349-38h2.379c0,22.161-19.616,40.19-43.727,40.19" transform="translate(-634.439 -17.786)" fill="#aaa"/>
            <path id="Trazado_466088" data-name="Trazado 466088" d="M1502.1,229.6a1.471,1.471,0,0,1-1.529-1.406v-1.561a1.535,1.535,0,0,1,3.058,0v1.561a1.471,1.471,0,0,1-1.529,1.406m0-17.177a1.471,1.471,0,0,1-1.529-1.406v-1.561a1.535,1.535,0,0,1,3.058,0v1.561a1.471,1.471,0,0,1-1.529,1.406m0-17.177a1.471,1.471,0,0,1-1.529-1.405v-1.562a1.535,1.535,0,0,1,3.058,0v1.562a1.471,1.471,0,0,1-1.529,1.405m0-17.177a1.471,1.471,0,0,1-1.529-1.406V175.1a1.535,1.535,0,0,1,3.058,0v1.561a1.471,1.471,0,0,1-1.529,1.406m0-17.177a1.471,1.471,0,0,1-1.529-1.405v-1.562a1.535,1.535,0,0,1,3.058,0v1.562a1.471,1.471,0,0,1-1.529,1.405m0-17.177a1.471,1.471,0,0,1-1.529-1.405v-1.562a1.535,1.535,0,0,1,3.058,0v1.562a1.471,1.471,0,0,1-1.529,1.405m0-17.177a1.471,1.471,0,0,1-1.529-1.405v-1.562a1.535,1.535,0,0,1,3.058,0v1.562a1.471,1.471,0,0,1-1.529,1.405m0-17.177a1.471,1.471,0,0,1-1.529-1.405V106.39a1.535,1.535,0,0,1,3.058,0v1.562a1.471,1.471,0,0,1-1.529,1.405m0-17.177a1.471,1.471,0,0,1-1.529-1.405V89.213a1.535,1.535,0,0,1,3.058,0v1.561a1.471,1.471,0,0,1-1.529,1.405m0-17.177a1.471,1.471,0,0,1-1.529-1.406V72.036a1.535,1.535,0,0,1,3.058,0V73.6A1.471,1.471,0,0,1,1502.1,75m-1.137-17.094a1.509,1.509,0,0,1-1.487-1.083c-.125-.488-.263-.978-.408-1.457a1.4,1.4,0,0,1,1.062-1.731,1.551,1.551,0,0,1,1.884.976c.156.515.3,1.042.438,1.566a1.406,1.406,0,0,1-1.137,1.691,1.662,1.662,0,0,1-.353.038m-8.1-15.32a1.581,1.581,0,0,1-1.2-.53c-.336-.389-.688-.779-1.044-1.158a1.328,1.328,0,0,1,.158-1.982,1.624,1.624,0,0,1,2.157.145c.383.408.76.826,1.123,1.244a1.33,1.33,0,0,1-.245,1.975,1.607,1.607,0,0,1-.951.306m-14.416-10.711a1.631,1.631,0,0,1-.679-.147c-.486-.222-.986-.438-1.484-.643a1.362,1.362,0,0,1-.772-1.857,1.586,1.586,0,0,1,2.02-.709c.535.22,1.071.452,1.595.691a1.355,1.355,0,0,1,.69,1.884,1.548,1.548,0,0,1-1.371.781m-18-4.046h-.032q-.423-.008-.848-.008h-.819a1.41,1.41,0,1,1,0-2.811h.819q.456,0,.91.009a1.409,1.409,0,1,1-.031,2.811m-18.689-.008h-1.7a1.41,1.41,0,1,1,0-2.811h1.7a1.41,1.41,0,1,1,0,2.811m-18.689,0h-1.7a1.41,1.41,0,1,1,0-2.811h1.7a1.41,1.41,0,1,1,0,2.811m-18.689,0h-1.7a1.41,1.41,0,1,1,0-2.811h1.7a1.41,1.41,0,1,1,0,2.811m-18.689,0h-1.7a1.41,1.41,0,1,1,0-2.811h1.7a1.41,1.41,0,1,1,0,2.811m-18.689,0h-1.7a1.41,1.41,0,1,1,0-2.811h1.7a1.41,1.41,0,1,1,0,2.811" transform="translate(-894.877 -17.11)" fill="#aaa"/>
            <path id="Trazado_466089" data-name="Trazado 466089" d="M3296.747,363.922h-1.7a1.41,1.41,0,1,1,0-2.811h1.7a1.41,1.41,0,1,1,0,2.811m-18.689,0h-1.7a1.41,1.41,0,1,1,0-2.811h1.7a1.41,1.41,0,1,1,0,2.811m-18.689,0h-1.7a1.41,1.41,0,1,1,0-2.811h1.7a1.41,1.41,0,1,1,0,2.811m-18.689,0h-1.7a1.41,1.41,0,1,1,0-2.811h1.7a1.41,1.41,0,1,1,0,2.811m-18.689,0h-1.7a1.41,1.41,0,1,1,0-2.811h1.7a1.41,1.41,0,1,1,0,2.811m91.63-1.223a1.513,1.513,0,0,1-1.48-1.056,1.4,1.4,0,0,1,1.1-1.711c.528-.124,1.059-.26,1.577-.4a1.557,1.557,0,0,1,1.9.943,1.39,1.39,0,0,1-1.025,1.75c-.558.153-1.128.3-1.7.433a1.643,1.643,0,0,1-.381.045m16.511-7.743a1.584,1.584,0,0,1-1.18-.51,1.329,1.329,0,0,1,.2-1.979c.416-.315.832-.646,1.239-.981a1.624,1.624,0,0,1,2.159.107,1.327,1.327,0,0,1-.116,1.985c-.438.361-.886.716-1.333,1.056a1.608,1.608,0,0,1-.973.322M3341.5,341.5a1.63,1.63,0,0,1-.652-.135,1.358,1.358,0,0,1-.73-1.871c.231-.45.457-.913.671-1.376a1.582,1.582,0,0,1,2-.745,1.367,1.367,0,0,1,.811,1.843c-.23.5-.473,1-.721,1.479a1.544,1.544,0,0,1-1.383.805m4.055-16.624a1.471,1.471,0,0,1-1.529-1.405v-1.562a1.535,1.535,0,0,1,3.058,0v1.562a1.471,1.471,0,0,1-1.529,1.405m0-17.177a1.471,1.471,0,0,1-1.529-1.405v-1.562a1.535,1.535,0,0,1,3.058,0V306.3a1.471,1.471,0,0,1-1.529,1.405m0-17.177a1.471,1.471,0,0,1-1.529-1.405v-1.561a1.535,1.535,0,0,1,3.058,0v1.561a1.471,1.471,0,0,1-1.529,1.405m0-17.177a1.471,1.471,0,0,1-1.529-1.406v-1.561a1.535,1.535,0,0,1,3.058,0v1.561a1.471,1.471,0,0,1-1.529,1.406m0-17.177a1.471,1.471,0,0,1-1.529-1.405V253.2a1.535,1.535,0,0,1,3.058,0v1.562a1.471,1.471,0,0,1-1.529,1.405m0-17.177a1.471,1.471,0,0,1-1.529-1.405v-1.562a1.535,1.535,0,0,1,3.058,0v1.562a1.471,1.471,0,0,1-1.529,1.405m0-17.177a1.471,1.471,0,0,1-1.529-1.405V218.85a1.535,1.535,0,0,1,3.058,0v1.561a1.471,1.471,0,0,1-1.529,1.405m0-17.177a1.471,1.471,0,0,1-1.529-1.406v-1.561a1.535,1.535,0,0,1,3.058,0v1.561a1.471,1.471,0,0,1-1.529,1.406m0-17.177a1.471,1.471,0,0,1-1.529-1.406V184.5a1.535,1.535,0,0,1,3.058,0v1.561a1.471,1.471,0,0,1-1.529,1.406m0-17.177a1.471,1.471,0,0,1-1.529-1.406v-1.561a1.535,1.535,0,0,1,3.058,0v1.561a1.471,1.471,0,0,1-1.529,1.406m0-17.177a1.471,1.471,0,0,1-1.529-1.405V150.14a1.535,1.535,0,0,1,3.058,0V151.7a1.471,1.471,0,0,1-1.529,1.405" transform="translate(-2112.089 -101.734)" fill="#aaa"/>
            <path id="Trazado_466090" data-name="Trazado 466090" d="M2926.307,279.662h-94.264c-24.112,0-43.728-18.029-43.728-40.19V66.192c0-22.161,19.616-40.19,43.727-40.19h188.528c24.111,0,43.727,18.029,43.727,40.19h-2.379c0-20.955-18.549-38-41.349-38H2832.043c-22.8,0-41.349,17.049-41.349,38V239.472c0,20.956,18.549,38,41.349,38h94.264Z" transform="translate(-1829.638 -17.786)" fill="#aaa"/>
            <path id="Trazado_466091" data-name="Trazado 466091" d="M265.644,287.733h-1.7a.784.784,0,1,1,0-1.562h1.7a.784.784,0,1,1,0,1.562m-18.689,0h-1.7a.784.784,0,1,1,0-1.562h1.7a.784.784,0,1,1,0,1.562m-18.689,0h-1.7a.784.784,0,1,1,0-1.562h1.7a.784.784,0,1,1,0,1.562m-18.689,0h-1.7a.784.784,0,1,1,0-1.562h1.7a.784.784,0,1,1,0,1.562m-18.689,0h-1.7a.784.784,0,1,1,0-1.562h1.7a.784.784,0,1,1,0,1.562m-18.689,0h-1.7a.784.784,0,1,1,0-1.562h1.7a.784.784,0,1,1,0,1.562m-18.689,0h-1.7a.784.784,0,1,1,0-1.562h1.7a.784.784,0,1,1,0,1.562m-18.689,0h-1.7a.784.784,0,1,1,0-1.562h1.7a.784.784,0,1,1,0,1.562m-18.689,0h-1.7a.784.784,0,1,1,0-1.562h1.7a.784.784,0,1,1,0,1.562m-18.689,0h-1.7a.784.784,0,1,1,0-1.562h1.7a.784.784,0,1,1,0,1.562m-18.573-1.2a.911.911,0,0,1-.215-.026c-.559-.134-1.121-.281-1.669-.436a.771.771,0,0,1-.562-.976.865.865,0,0,1,1.061-.517c.525.148,1.063.289,1.6.417a.777.777,0,0,1,.607.953.841.841,0,0,1-.821.584m203.421-1.309a.852.852,0,0,1-.792-.5.763.763,0,0,1,.484-1.011c.51-.182,1.025-.378,1.532-.583a.881.881,0,0,1,1.119.4.757.757,0,0,1-.437,1.029c-.529.213-1.067.417-1.6.607a.919.919,0,0,1-.308.053M62.517,278.547a.89.89,0,0,1-.56-.194c-.433-.35-.864-.712-1.279-1.076a.737.737,0,0,1-.028-1.1.9.9,0,0,1,1.2-.026c.4.349.811.7,1.227,1.032a.738.738,0,0,1,.078,1.1.883.883,0,0,1-.639.266m235.02-2.973a.888.888,0,0,1-.57-.2.737.737,0,0,1-.058-1.1c.371-.376.739-.764,1.092-1.154a.9.9,0,0,1,1.2-.1.738.738,0,0,1,.108,1.1c-.369.406-.752.811-1.138,1.2a.883.883,0,0,1-.63.256M51.761,264.7a.853.853,0,0,1-.787-.486c-.218-.49-.427-.991-.622-1.488a.766.766,0,0,1,.512-1,.872.872,0,0,1,1.087.471c.187.477.387.957.6,1.426a.76.76,0,0,1-.465,1.018.914.914,0,0,1-.321.058m254.74-4.015a.923.923,0,0,1-.229-.029.775.775,0,0,1-.59-.962c.149-.489.288-.987.413-1.48a.854.854,0,0,1,1.021-.583.781.781,0,0,1,.633.938c-.131.514-.276,1.034-.431,1.544a.843.843,0,0,1-.818.571m-257.719-12.8a.817.817,0,0,1-.85-.781v-1.562a.852.852,0,0,1,1.7,0V247.1a.817.817,0,0,1-.849.781m259.2-4.246a.817.817,0,0,1-.85-.781v-1.562a.853.853,0,0,1,1.7,0v1.562a.817.817,0,0,1-.85.781M48.783,230.7a.817.817,0,0,1-.85-.781v-1.561a.852.852,0,0,1,1.7,0v1.561a.817.817,0,0,1-.849.781m259.2-4.246a.817.817,0,0,1-.85-.781v-1.561a.853.853,0,0,1,1.7,0v1.561a.817.817,0,0,1-.85.781m-259.2-12.931a.817.817,0,0,1-.85-.781V211.18a.852.852,0,0,1,1.7,0v1.561a.817.817,0,0,1-.849.781m259.2-4.246a.817.817,0,0,1-.85-.781v-1.562a.853.853,0,0,1,1.7,0V208.5a.817.817,0,0,1-.85.781m-259.2-12.931a.817.817,0,0,1-.85-.781V194a.852.852,0,0,1,1.7,0v1.561a.817.817,0,0,1-.849.781m259.2-4.246a.817.817,0,0,1-.85-.781v-1.561a.853.853,0,0,1,1.7,0v1.561a.817.817,0,0,1-.85.781m-259.2-12.931a.817.817,0,0,1-.85-.781v-1.561a.852.852,0,0,1,1.7,0v1.561a.817.817,0,0,1-.849.781m259.2-4.246a.817.817,0,0,1-.85-.781v-1.561a.853.853,0,0,1,1.7,0v1.561a.817.817,0,0,1-.85.781m-259.2-12.931a.817.817,0,0,1-.85-.781v-1.562a.852.852,0,0,1,1.7,0v1.562a.817.817,0,0,1-.849.781m259.2-4.246a.817.817,0,0,1-.85-.781V155.4a.853.853,0,0,1,1.7,0v1.562a.817.817,0,0,1-.85.781m-259.2-12.931a.817.817,0,0,1-.85-.781v-1.562a.852.852,0,0,1,1.7,0v1.562a.817.817,0,0,1-.849.781m259.2-4.247a.817.817,0,0,1-.85-.781v-1.562a.853.853,0,0,1,1.7,0v1.562a.817.817,0,0,1-.85.781m-259.2-12.931a.817.817,0,0,1-.85-.781v-1.562a.852.852,0,0,1,1.7,0v1.562a.817.817,0,0,1-.849.781m259.2-4.247a.817.817,0,0,1-.85-.781v-1.562a.853.853,0,0,1,1.7,0v1.562a.817.817,0,0,1-.85.781m-259.2-12.931a.817.817,0,0,1-.85-.781v-1.561a.852.852,0,0,1,1.7,0v1.561a.817.817,0,0,1-.849.781m259.2-4.246a.817.817,0,0,1-.85-.781V103.87a.853.853,0,0,1,1.7,0v1.562a.817.817,0,0,1-.85.781M48.783,93.282a.817.817,0,0,1-.85-.781V90.939a.852.852,0,0,1,1.7,0V92.5a.817.817,0,0,1-.849.781m259.2-4.246a.817.817,0,0,1-.85-.781V86.693a.853.853,0,0,1,1.7,0v1.561a.817.817,0,0,1-.85.781M50.359,76.244a.918.918,0,0,1-.236-.031.774.774,0,0,1-.581-.967c.16-.509.334-1.021.516-1.522a.869.869,0,0,1,1.075-.492.768.768,0,0,1,.535.988c-.175.48-.341.97-.495,1.459a.843.843,0,0,1-.816.564m254.515-4a.854.854,0,0,1-.784-.479c-.213-.467-.439-.936-.673-1.393a.755.755,0,0,1,.408-1.038.883.883,0,0,1,1.13.375c.243.477.48.966.7,1.453a.76.76,0,0,1-.455,1.022.917.917,0,0,1-.328.061M59.46,61.422a.889.889,0,0,1-.576-.207.737.737,0,0,1-.048-1.1c.391-.389.8-.775,1.2-1.148a.9.9,0,0,1,1.2,0,.737.737,0,0,1,0,1.1c-.391.357-.778.728-1.154,1.1a.884.884,0,0,1-.624.251m234.531-2.945a.89.89,0,0,1-.555-.19c-.419-.332-.85-.66-1.282-.974a.739.739,0,0,1-.139-1.1.9.9,0,0,1,1.193-.127c.45.328.9.67,1.337,1.016a.737.737,0,0,1,.088,1.1.88.88,0,0,1-.643.271M74.8,51.89a.851.851,0,0,1-.795-.5.764.764,0,0,1,.493-1.007c.538-.188,1.089-.367,1.635-.533a.868.868,0,0,1,1.073.5.768.768,0,0,1-.539.987c-.523.159-1.05.331-1.566.511a.911.911,0,0,1-.3.051m202.767-1.272a.924.924,0,0,1-.208-.024c-.535-.124-1.08-.239-1.62-.342a.785.785,0,0,1-.659-.923.851.851,0,0,1,1-.606c.563.107,1.132.228,1.69.357a.778.778,0,0,1,.616.948.84.84,0,0,1-.823.59M258.98,49.5h-1.7a.784.784,0,1,1,0-1.562h1.7a.784.784,0,1,1,0,1.562m-18.689,0h-1.7a.784.784,0,1,1,0-1.562h1.7a.784.784,0,1,1,0,1.562m-18.689,0h-1.7a.784.784,0,1,1,0-1.562h1.7a.784.784,0,1,1,0,1.562m-18.689,0h-1.7a.784.784,0,1,1,0-1.562h1.7a.784.784,0,1,1,0,1.562m-18.689,0h-1.7a.784.784,0,1,1,0-1.562h1.7a.784.784,0,1,1,0,1.562m-18.689,0h-1.7a.784.784,0,1,1,0-1.562h1.7a.784.784,0,1,1,0,1.562m-18.689,0h-1.7a.784.784,0,1,1,0-1.562h1.7a.784.784,0,1,1,0,1.562m-18.689,0h-1.7a.784.784,0,1,1,0-1.562h1.7a.784.784,0,1,1,0,1.562m-18.689,0h-1.7a.784.784,0,1,1,0-1.562h1.7a.784.784,0,1,1,0,1.562m-18.689,0h-1.7a.784.784,0,1,1,0-1.562h1.7a.784.784,0,1,1,0,1.562" transform="translate(-31.453 -32.788)" fill="#aaa"/>
            <path id="Trazado_466092" data-name="Trazado 466092" d="M2088.082,287.733h-1.7a.784.784,0,1,1,0-1.562h1.7a.784.784,0,1,1,0,1.562m-18.689,0h-1.7a.784.784,0,1,1,0-1.562h1.7a.784.784,0,1,1,0,1.562m-18.689,0H2049a.784.784,0,1,1,0-1.562h1.7a.784.784,0,1,1,0,1.562m-18.689,0h-1.7a.784.784,0,1,1,0-1.562h1.7a.784.784,0,1,1,0,1.562m-18.689,0h-1.7a.784.784,0,1,1,0-1.562h1.7a.784.784,0,1,1,0,1.562m-18.689,0h-1.7a.784.784,0,1,1,0-1.562h1.7a.784.784,0,1,1,0,1.562m-18.689,0h-1.7a.784.784,0,1,1,0-1.562h1.7a.784.784,0,1,1,0,1.562m-18.689,0h-1.7a.784.784,0,1,1,0-1.562h1.7a.784.784,0,1,1,0,1.562m-18.689,0h-1.7a.784.784,0,1,1,0-1.562h1.7a.784.784,0,1,1,0,1.562m-18.689,0h-1.7a.784.784,0,1,1,0-1.562h1.7a.784.784,0,1,1,0,1.562m-18.573-1.2a.913.913,0,0,1-.215-.026c-.558-.134-1.119-.28-1.669-.436a.771.771,0,0,1-.562-.976.864.864,0,0,1,1.061-.517c.527.149,1.065.289,1.6.417a.778.778,0,0,1,.608.953.842.842,0,0,1-.821.584m203.421-1.309a.852.852,0,0,1-.792-.5.763.763,0,0,1,.484-1.011c.511-.183,1.026-.379,1.532-.583a.881.881,0,0,1,1.12.4.758.758,0,0,1-.437,1.029c-.528.212-1.065.417-1.6.607a.92.92,0,0,1-.308.053m-219.775-6.678a.889.889,0,0,1-.56-.194c-.434-.35-.865-.712-1.279-1.076a.738.738,0,0,1-.028-1.1.9.9,0,0,1,1.2-.026c.4.349.81.7,1.227,1.032a.738.738,0,0,1,.078,1.1.883.883,0,0,1-.639.265m235.02-2.973a.889.889,0,0,1-.571-.2.737.737,0,0,1-.058-1.1c.37-.374.737-.763,1.092-1.153a.9.9,0,0,1,1.2-.1.738.738,0,0,1,.109,1.1c-.37.408-.753.812-1.138,1.2a.883.883,0,0,1-.629.256M1874.2,264.7a.854.854,0,0,1-.787-.486c-.219-.492-.428-.993-.622-1.489a.766.766,0,0,1,.513-1,.871.871,0,0,1,1.087.471c.185.474.386.954.6,1.426a.76.76,0,0,1-.465,1.018.913.913,0,0,1-.321.058m254.74-4.015a.9.9,0,0,1-.229-.029.774.774,0,0,1-.589-.962c.147-.486.286-.984.413-1.48a.855.855,0,0,1,1.021-.583.782.782,0,0,1,.634.938c-.132.518-.277,1.037-.432,1.544a.842.842,0,0,1-.817.571m-257.72-12.8a.817.817,0,0,1-.849-.781v-1.562a.852.852,0,0,1,1.7,0V247.1a.817.817,0,0,1-.85.781m259.2-4.247a.817.817,0,0,1-.85-.781v-1.561a.853.853,0,0,1,1.7,0v1.561a.817.817,0,0,1-.85.781m-259.2-12.93a.817.817,0,0,1-.849-.781v-1.561a.852.852,0,0,1,1.7,0v1.561a.817.817,0,0,1-.85.781m259.2-4.247a.817.817,0,0,1-.85-.781v-1.561a.853.853,0,0,1,1.7,0v1.561a.817.817,0,0,1-.85.781m-259.2-12.93a.817.817,0,0,1-.849-.781v-1.561a.852.852,0,0,1,1.7,0v1.561a.817.817,0,0,1-.85.781m259.2-4.247a.817.817,0,0,1-.85-.781v-1.562a.853.853,0,0,1,1.7,0V208.5a.817.817,0,0,1-.85.781m-259.2-12.931a.817.817,0,0,1-.849-.781V194a.852.852,0,0,1,1.7,0v1.562a.817.817,0,0,1-.85.781m259.2-4.247a.817.817,0,0,1-.85-.781v-1.562a.853.853,0,0,1,1.7,0v1.562a.817.817,0,0,1-.85.781m-259.2-12.931a.817.817,0,0,1-.849-.781v-1.562a.852.852,0,0,1,1.7,0v1.562a.817.817,0,0,1-.85.781m259.2-4.247a.818.818,0,0,1-.85-.781v-1.562a.853.853,0,0,1,1.7,0v1.562a.818.818,0,0,1-.85.781m-259.2-12.931a.817.817,0,0,1-.849-.781v-1.561a.852.852,0,0,1,1.7,0v1.561a.817.817,0,0,1-.85.781m259.2-4.247a.817.817,0,0,1-.85-.781V155.4a.853.853,0,0,1,1.7,0v1.562a.817.817,0,0,1-.85.781m-259.2-12.931a.817.817,0,0,1-.849-.781v-1.561a.852.852,0,0,1,1.7,0v1.561a.817.817,0,0,1-.85.781m259.2-4.247a.817.817,0,0,1-.85-.781v-1.561a.853.853,0,0,1,1.7,0v1.561a.817.817,0,0,1-.85.781m-259.2-12.931a.817.817,0,0,1-.849-.781v-1.561a.852.852,0,0,1,1.7,0v1.561a.817.817,0,0,1-.85.781m259.2-4.247a.817.817,0,0,1-.85-.781v-1.561a.853.853,0,0,1,1.7,0v1.561a.817.817,0,0,1-.85.781m-259.2-12.931a.817.817,0,0,1-.849-.781v-1.562a.852.852,0,0,1,1.7,0v1.562a.817.817,0,0,1-.85.781m259.2-4.247a.817.817,0,0,1-.85-.781V103.87a.853.853,0,0,1,1.7,0v1.561a.817.817,0,0,1-.85.781m-259.2-12.931a.817.817,0,0,1-.849-.781V90.939a.852.852,0,0,1,1.7,0V92.5a.817.817,0,0,1-.85.781m259.2-4.247a.817.817,0,0,1-.85-.781V86.693a.853.853,0,0,1,1.7,0v1.561a.817.817,0,0,1-.85.781M1872.8,76.244a.915.915,0,0,1-.236-.031.774.774,0,0,1-.581-.967c.16-.508.333-1.02.516-1.522a.868.868,0,0,1,1.075-.492.768.768,0,0,1,.535.988c-.175.481-.342.971-.494,1.458a.844.844,0,0,1-.816.564m254.515-4a.855.855,0,0,1-.784-.48c-.211-.464-.437-.933-.672-1.393a.755.755,0,0,1,.408-1.038.882.882,0,0,1,1.13.375c.246.48.482.969.7,1.454a.76.76,0,0,1-.456,1.022.918.918,0,0,1-.328.061M1881.9,61.422a.89.89,0,0,1-.576-.207.738.738,0,0,1-.049-1.1c.388-.386.793-.772,1.2-1.148a.9.9,0,0,1,1.2,0,.737.737,0,0,1,0,1.1c-.393.361-.782.731-1.153,1.1a.882.882,0,0,1-.624.251m234.531-2.945a.89.89,0,0,1-.555-.19c-.415-.329-.846-.657-1.281-.974a.739.739,0,0,1-.138-1.1.9.9,0,0,1,1.193-.127c.455.33.9.672,1.338,1.016a.738.738,0,0,1,.088,1.1.882.882,0,0,1-.643.27M1897.236,51.89a.852.852,0,0,1-.795-.5.763.763,0,0,1,.493-1.007c.539-.188,1.089-.367,1.635-.533a.868.868,0,0,1,1.073.5.769.769,0,0,1-.539.987c-.523.159-1.05.331-1.566.511a.916.916,0,0,1-.3.051M2100,50.618a.924.924,0,0,1-.208-.024c-.535-.124-1.08-.239-1.62-.342a.785.785,0,0,1-.66-.923.85.85,0,0,1,1-.606c.563.107,1.132.228,1.69.357a.778.778,0,0,1,.616.948.84.84,0,0,1-.823.59M2081.417,49.5h-1.7a.784.784,0,1,1,0-1.562h1.7a.784.784,0,1,1,0,1.562m-18.689,0h-1.7a.784.784,0,1,1,0-1.562h1.7a.784.784,0,1,1,0,1.562m-18.689,0h-1.7a.784.784,0,1,1,0-1.562h1.7a.784.784,0,1,1,0,1.562m-18.689,0h-1.7a.784.784,0,1,1,0-1.562h1.7a.784.784,0,1,1,0,1.562m-18.689,0h-1.7a.784.784,0,1,1,0-1.562h1.7a.784.784,0,1,1,0,1.562m-18.689,0h-1.7a.784.784,0,1,1,0-1.562h1.7a.784.784,0,1,1,0,1.562m-18.689,0h-1.7a.784.784,0,1,1,0-1.562h1.7a.784.784,0,1,1,0,1.562m-18.689,0h-1.7a.784.784,0,1,1,0-1.562h1.7a.784.784,0,1,1,0,1.562m-18.689,0h-1.7a.784.784,0,1,1,0-1.562h1.7a.784.784,0,1,1,0,1.562m-18.689,0h-1.7a.784.784,0,1,1,0-1.562h1.7a.784.784,0,1,1,0,1.562" transform="translate(-1227.3 -32.788)" fill="#aaa"/>
          </g>
        </g>
      </g>
    </g>
    <text id="Datos_de_prueba_" data-name="Datos de prueba
" transform="translate(265.506 18982)" fill="#12263f" font-size="16" font-family="Roboto-Bold, Roboto" font-weight="700"><tspan x="0" y="17">Datos de prueba</tspan></text>
    <text id="Protección_de_datos_de_prueba_" data-name="Protección de datos de prueba
" transform="translate(882.506 18972)" fill="#12263f" font-size="16" font-family="Roboto-Bold, Roboto" font-weight="700"><tspan x="3.707" y="17">Protección de datos </tspan><tspan x="39.66" y="38">de prueba</tspan></text>
  </g>
</svg>
