<svg xmlns="http://www.w3.org/2000/svg" xmlns:xlink="http://www.w3.org/1999/xlink" width="812.526" height="385.505" viewBox="0 0 812.526 385.505">
  <defs>
    <clipPath id="clip-path">
      <rect id="Rectángulo_262656" data-name="Rectángulo 262656" width="128.526" height="385.505" fill="none"/>
    </clipPath>
  </defs>
  <g id="Grupo_708646" data-name="Grupo 708646" transform="translate(3258 878.114)">
    <text id="_1._Gestión_en_el_registro_de_usuarios_Debería_existir_un_procedimiento_y_política_formal_para_la_creación_y_eliminación_de_cuentas_de_usuarios_con_el_objeto_de_poder_asignar_y_gestionar_los_permisos_y_derechos_de_acceso." data-name="1. Gestión en el registro de usuarios 

Debería existir un procedimiento y política formal para la creación y eliminación de cuentas de usuarios, con el objeto de poder asignar y gestionar los permisos y derechos de acceso." transform="translate(-3118.474 -862.114)" fill="#12263f" font-size="15" font-family="Roboto-Bold, Roboto" font-weight="700"><tspan x="0" y="16">1. Gestión en el registro de usuarios </tspan><tspan x="0" y="40"></tspan><tspan font-family="Roboto-Regular, Roboto" font-weight="400"><tspan x="0" y="64">Debería existir un procedimiento y política formal para la creación y eliminación de cuentas de </tspan><tspan x="0" y="88">usuarios, con el objeto de poder asignar y gestionar los permisos y derechos de acceso.</tspan></tspan></text>
    <text id="_2._Gestión_de_los_derechos_de_acceso_por_parte_de_los_usuarios_Se_debería_de_establecer_un_proceso_formal_de_asignación_o_revocación_de_derechos_y_permisos_por_parte_de_los_usuarios_a_los_sistemas_y_servicios_informáticos_de_la_organización._" data-name="2. Gestión de los derechos de acceso por parte de los usuarios

Se debería de establecer un proceso formal de asignación o revocación de derechos y permisos por parte de los usuarios a los sistemas y servicios informáticos de la organización.
" transform="translate(-3118.474 -738.603)" fill="#12263f" font-size="15" font-family="Roboto-Bold, Roboto" font-weight="700"><tspan x="0" y="16">2. Gestión de los derechos de acceso por parte de los usuarios</tspan><tspan x="0" y="40"></tspan><tspan font-family="Roboto-Regular, Roboto" font-weight="400"><tspan x="0" y="64">Se debería de establecer un proceso formal de asignación o revocación de derechos y permisos por </tspan><tspan x="0" y="88">parte de los usuarios a los sistemas y servicios informáticos de la organización.</tspan></tspan></text>
    <text id="_3._Gestión_de_los_derechos_de_acceso_con_privilegios_especiales_Debería_existir_un_proceso_formal_que_controle_y_restrinja_el_acceso_a_los_recursos_y_servicios_con_permisos_especiales." data-name="3. Gestión de los derechos de acceso con privilegios especiales

Debería existir un proceso formal que controle y restrinja el acceso a los recursos y servicios con permisos especiales." transform="translate(-3118.474 -613.093)" fill="#12263f" font-size="15" font-family="Roboto-Bold, Roboto" font-weight="700"><tspan x="0" y="16">3. Gestión de los derechos de acceso con privilegios especiales</tspan><tspan x="0" y="40"></tspan><tspan font-family="Roboto-Regular, Roboto" font-weight="400"><tspan x="0" y="64">Debería existir un proceso formal que controle y restrinja el acceso a los recursos y servicios con </tspan><tspan x="0" y="88">permisos especiales.</tspan></tspan></text>
    <g id="Grupo_708629" data-name="Grupo 708629" transform="translate(-3258 -878.114)">
      <rect id="Rectángulo_262650" data-name="Rectángulo 262650" width="39.416" height="385.505" transform="translate(30.158)" fill="#e0e0e0"/>
      <g id="Grupo_708628" data-name="Grupo 708628">
        <g id="Grupo_708627" data-name="Grupo 708627" clip-path="url(#clip-path)">
          <path id="Trazado_464934" data-name="Trazado 464934" d="M93.382,88.509A46.691,46.691,0,1,1,46.691,41.818,46.69,46.69,0,0,1,93.382,88.509" transform="translate(0 -15.699)" fill="#4db6ac"/>
          <path id="Trazado_464935" data-name="Trazado 464935" d="M85.621,95.775a6.681,6.681,0,0,0-6.344-4.593l-10.07-1.174a7.026,7.026,0,0,1-3.882-3.865l-.112-5.1c-1.122.8-2.185,1.34-3.458,2.158a11.991,11.991,0,0,1-3.685-.023,33.123,33.123,0,0,1-6.013-4.207l-.222,7.311A7.815,7.815,0,0,1,47.8,89.956l-9.981,1.225a6.678,6.678,0,0,0-6.579,5.553c-.023.119-.042.24-.055.362-.009.071-.014.143-.021.214,0,.046-.008.09-.009.136l9.755,8.023L44.5,117.078H72.6l3.882-12.534h1.036Z" transform="translate(-11.694 -29.647)" fill="#fcc397"/>
          <rect id="Rectángulo_262651" data-name="Rectángulo 262651" width="16.919" height="31.183" transform="translate(37.976 63.336)" fill="#e5e5e5"/>
          <path id="Trazado_464936" data-name="Trazado 464936" d="M81.452,101.211A6.674,6.674,0,0,0,75.2,96.87L65.133,95.7A19.293,19.293,0,0,1,63,95.1l-8.361,32.518L46.111,94.127a8.658,8.658,0,0,1-2.39,1.517L33.741,96.87a6.647,6.647,0,0,0-5.079,2.353l-.027-.02a4.238,4.238,0,0,0-.361.519,6.618,6.618,0,0,0-.662,1.2c-2.478,4.842-7.168,18.375-7.311,24.264-.164,6.9,8.584,19.565,12.067,22.751l8.7-.655-4.951,2.994-.049.863a46.815,46.815,0,0,0,36.823-.143l-.178-3.12c1.127.783,2.656.856,4.266-1.025,3.484-3.185,12.107-15.393,11.942-22.292-.139-5.806-4.951-18.351-7.463-23.345M36.687,140.18a126.5,126.5,0,0,1-6.432-13.117c-1.171-2.868,2.022-9.681,5.29-14.653l1.146,27.7Zm35.618.62-.077-1.352L73.3,113.091c2.811,4.852,5.781,10.908,5.826,13.861.033,2.151-4.254,8.862-6.824,13.847" transform="translate(-7.62 -35.336)" fill="#333"/>
          <path id="Trazado_464937" data-name="Trazado 464937" d="M81.341,107.934l-.7-11.367-3.372-.39a7.968,7.968,0,0,1-1.428-.757l-1.759,2.39L66.426,127.9,58.741,97.7l-1.759-2.39a8.018,8.018,0,0,1-1.427.78l-3.141.385-.6,11.35,4.312.773-.884,4.423L65.83,133.357l-.19,2.663,12.274-22.89-.886-4.423Z" transform="translate(-19.452 -35.779)" fill="#515151"/>
          <path id="Trazado_464938" data-name="Trazado 464938" d="M70.061,117.085l3.214,12.634,2.689-10.561-1.627-12.905,1.969-2.849-1.152-3.128-4.014-.112L70.1,103.571,71.92,106.2Z" transform="translate(-26.301 -37.602)" fill="#5fa6b2"/>
          <path id="Trazado_464939" data-name="Trazado 464939" d="M61.928,90.383,69,96.464l-5.2,5.2L58.72,93.811Z" transform="translate(-22.044 -33.93)" fill="#fff"/>
          <path id="Trazado_464940" data-name="Trazado 464940" d="M50.52,179.217a.175.175,0,0,0,0-.036c-1.38-2.082-.992-1.5-1.692-2.551a2.819,2.819,0,0,0-3.909-.791c-3.155,2.091-2.606,1.716-2.879,1.928a6.249,6.249,0,0,0-.587,2.688,46.357,46.357,0,0,0,4.857,2.087,8.108,8.108,0,0,0,4.21-3.324" transform="translate(-15.562 -65.834)" fill="#fcc397"/>
          <path id="Trazado_464941" data-name="Trazado 464941" d="M82.262,90.383l-7.077,6.081,5.2,5.2,5.088-7.852Z" transform="translate(-28.225 -33.93)" fill="#fff"/>
          <rect id="Rectángulo_262652" data-name="Rectángulo 262652" width="7.269" height="1.824" transform="matrix(0.809, -0.587, 0.587, 0.809, 24.812, 112.3)" fill="#fff"/>
          <path id="Trazado_464942" data-name="Trazado 464942" d="M56.2,171.867l-1.685.022a8.183,8.183,0,0,1,.181,1.6,8.02,8.02,0,0,1-1.254,4.413,8.11,8.11,0,0,1-4.21,3.324c.463.169,1.4.492,2.3.766A9.723,9.723,0,0,0,56.2,171.867" transform="translate(-18.481 -64.519)" fill="#515151"/>
          <path id="Trazado_464943" data-name="Trazado 464943" d="M102.555,177.21l-2.716-1.752a2.822,2.822,0,0,0-3.9.842c-.683,1.061-.289.45-1.659,2.572a.368.368,0,0,0,0,.037,8.1,8.1,0,0,0,4.3,3.288,46.326,46.326,0,0,0,4.783-2.119c0-.888-.293-2.535-.812-2.868" transform="translate(-35.393 -65.699)" fill="#fcc397"/>
          <path id="Trazado_464944" data-name="Trazado 464944" d="M92.5,177.646a8.033,8.033,0,0,1-1.149-6H89.664a9.729,9.729,0,0,0,4.839,10.09c.953-.3,1.623-.545,2.3-.8a8.1,8.1,0,0,1-4.3-3.288" transform="translate(-33.61 -64.436)" fill="#515151"/>
          <rect id="Rectángulo_262653" data-name="Rectángulo 262653" width="1.824" height="7.269" transform="translate(62.545 109.043) rotate(-54.022)" fill="#fff"/>
          <path id="Trazado_464945" data-name="Trazado 464945" d="M70.644,81.966a36.044,36.044,0,0,1-6.2-2.665v3.276c1.011.641,2.514,1.626,3.56,2.277a4.4,4.4,0,0,0,1.511.424h3.851a4.1,4.1,0,0,0,1.517-.414c.844-.559,1.814-1.342,2.866-2.036v-3.61a46.5,46.5,0,0,1-7.1,2.748" transform="translate(-24.192 -29.739)" fill="#ea9f6c"/>
          <path id="Trazado_464946" data-name="Trazado 464946" d="M79.182,47.39a1.485,1.485,0,0,0-1.07.071c.143-4.14.1-7.851-.421-8.676-2.914-4.571-6.337-6.559-11.377-6.748h0c-5.04.189-8.084,2.177-11,6.748-.54.845-.63,4.723-.552,8.985a1.743,1.743,0,0,0-1.594-.384c-1.111.375-1.5,2.2-.871,4.066.545,1.613,1.67,2.736,2.681,2.773.167,3.635.354,6.465.354,6.465,3.4,2.333,5.661,3.909,7.628,5.072a3.287,3.287,0,0,0,1.214.344h4.08a4.984,4.984,0,0,0,1.388-.38c1.973-1.156,4.236-2.757,7.649-5.035,0,0,.246-2.87.479-6.54a4.133,4.133,0,0,0,2.267-2.692c.637-1.868.252-3.691-.858-4.069" transform="translate(-19.52 -12.027)" fill="#fcc397"/>
          <path id="Trazado_464947" data-name="Trazado 464947" d="M79.324,53.865c.347-.192,4.581-1.859,5.867.354,1.078,1.86-.913,0-2.237.015a18.811,18.811,0,0,0-3.395.26c-.532.079-.706-.369-.235-.629" transform="translate(-29.676 -19.927)" fill="#663412"/>
          <path id="Trazado_464948" data-name="Trazado 464948" d="M65.965,54c-.33-.192-4.463-1.66-5.687.327-1.114,1.812.89,0,2.172.024a28.4,28.4,0,0,1,3.277.279c.518.052.688-.367.238-.63" transform="translate(-22.506 -20.008)" fill="#663412"/>
          <path id="Trazado_464949" data-name="Trazado 464949" d="M66.987,58.6a7.408,7.408,0,0,1-2.713.507c-1.092,0-2.088-.367-2.088-1.06s.983-1.189,2.093-1.189A3.758,3.758,0,0,1,66.987,58.6" transform="translate(-23.345 -21.347)" fill="#fff"/>
          <path id="Trazado_464950" data-name="Trazado 464950" d="M66.042,58.01A1.056,1.056,0,1,1,64.988,56.9a1.084,1.084,0,0,1,1.054,1.112" transform="translate(-24.001 -21.36)" fill="#7b9368"/>
          <path id="Trazado_464951" data-name="Trazado 464951" d="M65.94,58.261a.676.676,0,1,1-.675-.714.694.694,0,0,1,.675.714" transform="translate(-24.247 -21.603)"/>
          <path id="Trazado_464952" data-name="Trazado 464952" d="M66.938,58.553a.35.35,0,1,1-.339-.262.308.308,0,0,1,.339.262" transform="translate(-24.874 -21.883)" fill="#fff"/>
          <path id="Trazado_464953" data-name="Trazado 464953" d="M66.888,58.606a3.407,3.407,0,0,0-1.915-1.089c-1.094-.331-2.739.149-2.768.928-.458-.332-.473-.949.7-1.384A3.194,3.194,0,0,1,66.738,58.3a1.017,1.017,0,0,1,.15.309" transform="translate(-23.243 -21.341)" fill="#ea9f6c"/>
          <path id="Trazado_464954" data-name="Trazado 464954" d="M79.408,58.6a6.532,6.532,0,0,0,2.674.5c1.095-.027,2.092-.3,2.092-1s-.948-1.244-2.057-1.244a3.761,3.761,0,0,0-2.71,1.742" transform="translate(-29.81 -21.347)" fill="#fff"/>
          <path id="Trazado_464955" data-name="Trazado 464955" d="M81.951,57.965A1.056,1.056,0,1,0,83,56.852a1.084,1.084,0,0,0-1.054,1.113" transform="translate(-30.765 -21.342)" fill="#7b9368"/>
          <path id="Trazado_464956" data-name="Trazado 464956" d="M82.553,58.213a.677.677,0,1,0,.676-.713.7.7,0,0,0-.676.713" transform="translate(-30.991 -21.586)"/>
          <path id="Trazado_464957" data-name="Trazado 464957" d="M84.238,58.368a.351.351,0,1,0,.34-.263.309.309,0,0,0-.34.263" transform="translate(-31.623 -21.813)" fill="#fff"/>
          <path id="Trazado_464958" data-name="Trazado 464958" d="M79.4,58.592A3.411,3.411,0,0,1,81.32,57.5c1.1-.331,2.738.149,2.77.928.457-.332.414-.978-.757-1.413a3.131,3.131,0,0,0-3.778,1.267,1.019,1.019,0,0,0-.151.309" transform="translate(-29.809 -21.326)" fill="#ea9f6c"/>
          <path id="Trazado_464959" data-name="Trazado 464959" d="M74.049,68.821H72.292a1.383,1.383,0,0,1-1.277-.977,1.679,1.679,0,0,0-.094.548c0,.842,1.026,1.113,1.784,1.113h.933c.756,0,1.783-.271,1.783-1.113a1.631,1.631,0,0,0-.095-.548,1.382,1.382,0,0,1-1.276.977" transform="translate(-26.624 -25.469)" fill="#ea9f6c"/>
          <path id="Trazado_464960" data-name="Trazado 464960" d="M52.656,58.365c-.012-.151.285-.827.651-.711.562.178.919,1.274,1.157,2.37s.124,1.894,0,1.6a16.069,16.069,0,0,0-1.008-2.992c-.445-.829-.711.919-.8-.267" transform="translate(-19.767 -21.639)" fill="#ea9f6c"/>
          <path id="Trazado_464961" data-name="Trazado 464961" d="M95.585,58.365c.012-.151-.283-.827-.651-.711-.563.178-.918,1.274-1.155,2.37s-.126,1.894,0,1.6a15.829,15.829,0,0,1,1.006-2.992c.445-.829.711.919.8-.267" transform="translate(-35.153 -21.639)" fill="#ea9f6c"/>
          <path id="Trazado_464962" data-name="Trazado 464962" d="M76.309,31.772c-1.893-3.313-12.68-1.9-16.118-.949S54.5,33.667,54.622,36.63c.1,2.562.116,8.308.119,9.819a2.022,2.022,0,0,1,.868.35l.671,3.1.711-4.859s-1.421-9.481,7.823-7.821a23.455,23.455,0,0,0-3.674,3.2s5.451-1.3,7.584-2.134,0,1.778,0,1.778,4.148-1.542,5.452-2.014,2.607-.12,2.844,2.133.829,10.784.829,10.784l1.49-4.467a1.692,1.692,0,0,1,.345-.057c.047-.9.107-2.024.181-3.416.711-13.51-2.134-8.769-3.556-11.258" transform="translate(-20.504 -11.147)" fill="#663412"/>
          <path id="Trazado_464963" data-name="Trazado 464963" d="M69.559,75.551c.077.417.744,1.415,1.133,1.415h3.894c.39,0,1.057-1,1.134-1.415Z" transform="translate(-26.113 -28.362)" fill="#ea8c63"/>
          <path id="Trazado_464964" data-name="Trazado 464964" d="M74.011,75.35c-.826-.1-3.548-.057-3.971-.037-1.086.051-1.718-.556-1.679-.673.063-.187.2-.143.324.04.112.166.823.109,1.178.033,1.794-.387,1.334.046,2.209.06.823.013.542-.4,2.1-.05a3.463,3.463,0,0,0,1.517.167c.181-.091.32-.191.369,0s-.726.623-2.044.461" transform="translate(-25.662 -27.975)" fill="#d87350"/>
          <path id="Trazado_464965" data-name="Trazado 464965" d="M93.141,286.7a46.084,46.084,0,1,1-46.085-46.083A46.084,46.084,0,0,1,93.141,286.7" transform="translate(-0.365 -90.328)" fill="#81c784"/>
          <path id="Trazado_464966" data-name="Trazado 464966" d="M81.387,245.247c0,8.591-6.669,15.6-14.9,15.552-10.505-.057-14.9-6.962-14.9-15.552S58.261,229.7,66.49,229.7s14.9,6.963,14.9,15.552" transform="translate(-19.368 -86.228)" fill="#684528"/>
          <path id="Trazado_464967" data-name="Trazado 464967" d="M67.02,278.746v2.6a28.278,28.278,0,0,0,4.206,2.418,1.387,1.387,0,0,0,1.106.04,33.219,33.219,0,0,0,4.843-2.5v-2.563Z" transform="translate(-25.16 -104.642)" fill="#ea9f6c"/>
          <path id="Trazado_464968" data-name="Trazado 464968" d="M79.1,249.561a1.378,1.378,0,0,0-1.034.09c.365-3.481.57-6.989.04-7.818a13.937,13.937,0,0,0-11.124-6.422h0a13.935,13.935,0,0,0-11.124,6.422c-.525.821-.329,4.267.029,7.712a1.3,1.3,0,0,0-.741.012c-1.023.346-1.383,2.022-.8,3.745a3.525,3.525,0,0,0,2.338,2.543c.142.976.237,1.587.237,1.587,2.109,5.59,7.673,8.338,9.485,9.1a1.446,1.446,0,0,0,1.1.022c1.752-.73,7.408-3.479,9.536-9.123,0,0,.1-.609.237-1.581.965.066,2.081-.989,2.612-2.545.584-1.72.232-3.4-.792-3.746" transform="translate(-20.296 -88.374)" fill="#fcc397"/>
          <path id="Trazado_464969" data-name="Trazado 464969" d="M79.272,255.276a4.5,4.5,0,0,1,5.407-.243c1.618,1.14-.834-.568-2.047-.426a6.864,6.864,0,0,0-3.083,1.224c-.406.283-.681-.27-.277-.555" transform="translate(-29.684 -95.433)" fill="#684528"/>
          <path id="Trazado_464970" data-name="Trazado 464970" d="M66.794,255.3a4.244,4.244,0,0,0-5.241-.188c-1.58,1.158.814-.575,1.989-.447a6.414,6.414,0,0,1,2.979,1.19c.39.279.663-.276.273-.555" transform="translate(-22.911 -95.453)" fill="#684528"/>
          <path id="Trazado_464971" data-name="Trazado 464971" d="M77.834,294.314a6.128,6.128,0,0,0-4.794-3.2l-7.513-1.133c-2.292-.791-4.421-3.222-4.421-4.692,0-.046-.016-4.085-.016-4.085a36.059,36.059,0,0,1-5.372,2.1,29,29,0,0,1-4.782-2.066s-.016,3.971-.016,4.019c0,1.5-2.52,3.991-4.957,4.73l-7.482,1.13c-1.523,0-4.306,1.824-5.245,4.232-1.458,3.27-3.667,9.811-9.06,22.833.354,4.546,5.145,7.527,7.862,4.572,2.3-2.5,5.763-11.987,7.669-17.563h33.28c2.863,4.821,7.129,12.536,7.18,15.786.04,2.663,7.306,4.342,7.142-2.467-.145-6.008-6.787-19.727-9.474-24.193" transform="translate(-9.075 -105.565)" fill="#fcc397"/>
          <path id="Trazado_464972" data-name="Trazado 464972" d="M67.917,259.9a9.837,9.837,0,0,1-2.49.728c-1.02.042-1.856-.537-1.856-1.176s.828-1.155,1.849-1.155a3.457,3.457,0,0,1,2.5,1.6" transform="translate(-23.865 -96.965)" fill="#fff"/>
          <path id="Trazado_464973" data-name="Trazado 464973" d="M66.839,259.51a1.078,1.078,0,1,1-1.076-1.136,1.108,1.108,0,0,1,1.076,1.136" transform="translate(-24.283 -96.994)" fill="#7b9368"/>
          <path id="Trazado_464974" data-name="Trazado 464974" d="M66.759,259.55a.732.732,0,1,1-.731-.771.751.751,0,0,1,.731.771" transform="translate(-24.513 -97.147)"/>
          <path id="Trazado_464975" data-name="Trazado 464975" d="M67.412,259.689a.358.358,0,1,1-.349-.27.316.316,0,0,1,.349.27" transform="translate(-25.046 -97.387)" fill="#fff"/>
          <path id="Trazado_464976" data-name="Trazado 464976" d="M67.138,259.608c-.838-1.5-2.721-1.554-3.946-1.1-1.079.4-1.287.189-1.33.136a2.452,2.452,0,0,0,1.725,1.693,1.274,1.274,0,0,1-.611-.659c.114-.68,1.561-1.086,2.54-.79a3.141,3.141,0,0,1,1.764,1,1.215,1.215,0,0,0-.141-.284" transform="translate(-23.223 -96.952)"/>
          <path id="Trazado_464977" data-name="Trazado 464977" d="M79.127,259.9a10.12,10.12,0,0,0,2.525.728c1.036.042,1.883-.537,1.883-1.176S82.7,258.3,81.658,258.3a3.512,3.512,0,0,0-2.531,1.6" transform="translate(-29.705 -96.965)" fill="#fff"/>
          <path id="Trazado_464978" data-name="Trazado 464978" d="M81.559,259.51a1.093,1.093,0,1,0,1.092-1.136,1.116,1.116,0,0,0-1.092,1.136" transform="translate(-30.618 -96.994)" fill="#7b9368"/>
          <path id="Trazado_464979" data-name="Trazado 464979" d="M82.063,259.55a.741.741,0,1,0,.741-.771.755.755,0,0,0-.741.771" transform="translate(-30.807 -97.147)"/>
          <path id="Trazado_464980" data-name="Trazado 464980" d="M83.7,259.783a.364.364,0,1,0,.351-.272.319.319,0,0,0-.351.272" transform="translate(-31.42 -97.421)" fill="#fff"/>
          <path id="Trazado_464981" data-name="Trazado 464981" d="M84.619,258.645c-.045.054-.256.264-1.349-.135-1.243-.455-3.154-.4-4,1.1a1.156,1.156,0,0,0-.143.284,3.185,3.185,0,0,1,1.789-1c.992-.3,2.461.11,2.576.789a1.273,1.273,0,0,1-.619.66c.709-.256,1.72-.948,1.749-1.694" transform="translate(-29.703 -96.952)"/>
          <path id="Trazado_464982" data-name="Trazado 464982" d="M81.387,243.092c0-7.4-6.669-13.4-14.9-13.4s-14.9,6-14.9,13.4a14.392,14.392,0,0,0,1.56,6.8c-.1-1.215.3-2.224,1.065-2.484a1.2,1.2,0,0,1,.539-.05c.4,1.554.819,2.629.819,1.76,0-1.023.206-2.906.378-4.293a20.679,20.679,0,0,1,10.537-6.538,17.993,17.993,0,0,1,10.177,6.939c.151,1.32.307,2.923.307,3.838,0,.858.389-.182.763-1.708a1.219,1.219,0,0,1,.435.056c.805.273,1.193,1.368,1.038,2.661a12.383,12.383,0,0,0,2.177-6.984" transform="translate(-19.368 -86.228)" fill="#7c5732"/>
          <path id="Trazado_464983" data-name="Trazado 464983" d="M74.369,268.95h-1.4a1.092,1.092,0,0,1-1.012-.774,1.3,1.3,0,0,0-.076.437c0,.668.814.881,1.416.881h.74c.6,0,1.416-.214,1.416-.881a1.349,1.349,0,0,0-.076-.437,1.1,1.1,0,0,1-1.012.774" transform="translate(-26.985 -100.674)" fill="#ea9f6c"/>
          <path id="Trazado_464984" data-name="Trazado 464984" d="M54.672,259.679c-.011-.141.261-.763.6-.655.517.164.845,1.172,1.064,2.183s.116,1.745,0,1.473a14.716,14.716,0,0,0-.928-2.757c-.41-.764-.655.846-.737-.244" transform="translate(-20.524 -97.234)" fill="#ea9f6c"/>
          <path id="Trazado_464985" data-name="Trazado 464985" d="M94.206,259.679c.011-.141-.261-.763-.6-.655-.518.164-.845,1.172-1.064,2.183s-.116,1.745,0,1.473a14.589,14.589,0,0,1,.927-2.757c.41-.764.656.846.737-.244" transform="translate(-34.692 -97.234)" fill="#ea9f6c"/>
          <path id="Trazado_464986" data-name="Trazado 464986" d="M65.158,266.352c-.272.861-1.615,1.207-3,.769s-2.287-1.488-2.015-2.352,1.615-1.208,3-.77,2.287,1.49,2.016,2.352" transform="translate(-22.56 -99.035)" fill="#ffb18a"/>
          <path id="Trazado_464987" data-name="Trazado 464987" d="M81.112,266.352c.271.861,1.615,1.207,3,.769s2.285-1.488,2.013-2.352-1.615-1.208-3-.77-2.288,1.49-2.016,2.352" transform="translate(-30.431 -99.035)" fill="#ffb18a"/>
          <path id="Trazado_464988" data-name="Trazado 464988" d="M81.051,296.5l-6.33-.955c.372,6.674-22.357,6.012-22.025.018l-6.206.937c1.545,6.708.21,14.94.387,15.21a7.838,7.838,0,0,0,4.409,9.968,42.384,42.384,0,0,1,1.1,5.311,56.118,56.118,0,0,1,.627,10.389,19.642,19.642,0,0,0-5.317,6.161,20.318,20.318,0,0,0-2.186,6.1,46.192,46.192,0,0,0,37.007-.209,20.328,20.328,0,0,0-2.228-6.036,19.6,19.6,0,0,0-5.368-6.117,56.507,56.507,0,0,1,.633-10.293,42.6,42.6,0,0,1,1.07-5.193,7.84,7.84,0,0,0,4.307-9.886c.149-.23-1.216-10.584.115-15.41" transform="translate(-17.086 -110.947)" fill="#848484"/>
          <path id="Trazado_464989" data-name="Trazado 464989" d="M68.915,273.565c-.415-.174-.482-.1-.533-.041-.069.086-.093.077.176.44.132.173.577.766.577.766a3.991,3.991,0,0,0,3.348,2.092,3.8,3.8,0,0,0,3.255-2.229c.1-.207.333-.529.4-.644.212-.382.178-.392.124-.447-.148-.159-.166-.074-.435.064a15.7,15.7,0,0,1-3.56.312,15.367,15.367,0,0,1-3.349-.314" transform="translate(-25.654 -102.641)" fill="#c6523c"/>
          <path id="Trazado_464990" data-name="Trazado 464990" d="M74.938,275.005c.52-.162.681-.623.813-1.2a17.155,17.155,0,0,1-3.137.179,25.91,25.91,0,0,1-2.719-.187c.139.655.254.728.8,1-.432.024-.515.432-.456.911a4.461,4.461,0,0,0,2.728,1.089,3.167,3.167,0,0,0,2.668-1.087c-.114-.3-.328-.7-.7-.71" transform="translate(-26.239 -102.784)" fill="#fff"/>
          <path id="Trazado_464991" data-name="Trazado 464991" d="M69.426,273.587s.139.591,3.057.57c2.891-.022,3.493-.544,3.493-.544s-2.184-.254-3.37-.235c-1.1.019-3.179.21-3.179.21" transform="translate(-26.063 -102.626)" fill="#fc7365"/>
          <path id="Trazado_464992" data-name="Trazado 464992" d="M69.008,274.676a3.545,3.545,0,0,0,3.42,2.849c2.735.087,3.778-2.862,3.778-2.862a4.472,4.472,0,0,1-3.581,1.67,4.115,4.115,0,0,1-3.616-1.658" transform="translate(-25.906 -103.109)" fill="#fc7365"/>
          <path id="Trazado_464993" data-name="Trazado 464993" d="M34.612,318.072c-.283-.018-3.432-.275-3.559.274-.036.156-.068.923-.067.961-.212-.014-.413-.026-.569-.032-.508-.019-1.678-.07-1.5.829,0,.023.047.217.066.293a9.261,9.261,0,0,0-1.7,1.074c-.2.261-.118.405.064.883.467,1.218,1.187,2.764,1.425,3.272l-3.673,4.64.05-.011a2.782,2.782,0,0,0-.189.373,7.828,7.828,0,0,0,.976,6.855c1.258,1.985,2.681,2.121,4.585.027a68.412,68.412,0,0,0,4.283-5.53V318.134a.409.409,0,0,0-.192-.061" transform="translate(-9.216 -119.377)" fill="#ea9f6c"/>
          <path id="Trazado_464994" data-name="Trazado 464994" d="M35.439,322.781a1.629,1.629,0,0,1-.845-.581,22.44,22.44,0,0,0-1.4,1.878s-2.775.432-3.234,1.131-1.338.638-1.15,1.428a2.579,2.579,0,0,0,.274.593c.439.766,1.294,1.939,1.906,2.818.314.45-5.413-.377-6.584,2.495a7.82,7.82,0,0,0,.976,6.855c1.257,1.983,3.595,2.12,5.5.023a70.931,70.931,0,0,0,4.562-5.922Z" transform="translate(-9.007 -120.955)" fill="#fcc397"/>
          <path id="Trazado_464995" data-name="Trazado 464995" d="M39.4,318.7c-.282-.018-3.451-.242-3.568.221a4.572,4.572,0,0,0-.062,1.162c.5.029,2.685.054,2.922.123s.686,1.606,2.051.929c0,0-.6-1.547-.794-1.892s-.265-.527-.549-.544" transform="translate(-13.424 -119.614)" fill="#fcc397"/>
          <path id="Trazado_464996" data-name="Trazado 464996" d="M37.588,320.789c-.045-.25-.378-.414-.573-.43-.176-.014-.784-.063-1.285-.094a6.144,6.144,0,0,0,.2,1.9.278.278,0,0,1,.121.1c.082.139.174.48.332.855a1.171,1.171,0,0,0,1.137.68,2.759,2.759,0,0,0,.5-.049s-.374-2.566-.429-2.964" transform="translate(-13.413 -120.228)" fill="#ea9f6c"/>
          <path id="Trazado_464997" data-name="Trazado 464997" d="M35.661,320.689c-.234-.018-1.22-.095-1.728-.115s-1.675-.069-1.5.828c0,.026.16-.027.192-.036a.765.765,0,0,1,.786.077,19.726,19.726,0,0,1,1.321,1.609l-.389-.987s.362-.169.48.027c.082.137.176.476.332.851a1.307,1.307,0,0,0,1.407.727s-.3-2.117-.374-2.4-.289-.559-.523-.581" transform="translate(-12.168 -120.342)" fill="#fcc397"/>
          <path id="Trazado_464998" data-name="Trazado 464998" d="M36.578,325.7l-.019-.031.012.034.007,0" transform="translate(-13.724 -122.256)" fill="#ba7a4f"/>
          <path id="Trazado_464999" data-name="Trazado 464999" d="M32.519,321.435a1.444,1.444,0,0,0-.287.153c.1.471.482,1.43.694,2.079.06.059.272.368.517.608.471.463,1.733-.167,1.8-.194,0,0-1.7-2.343-1.937-2.57a.767.767,0,0,0-.786-.077" transform="translate(-12.1 -120.64)" fill="#ea9f6c"/>
          <path id="Trazado_465000" data-name="Trazado 465000" d="M29.826,324.242c-.184-.479-.269-.622-.065-.884a9.675,9.675,0,0,1,1.871-1.154.769.769,0,0,1,.786.077c.257.243,1.468,1.916,1.468,1.916s-1.114.484-1.6.006l-.487-.477-.292.272.928,1.513-1.354,1.464a24.609,24.609,0,0,1-1.255-2.733" transform="translate(-11.128 -120.929)" fill="#fcc397"/>
          <path id="Trazado_465001" data-name="Trazado 465001" d="M38.755,324.68l-.249-1.483a.371.371,0,0,0-.281.039c-.14.082.046,1.225.156,1.337a.593.593,0,0,0,.374.107" transform="translate(-14.331 -121.325)" fill="#e25c52"/>
          <path id="Trazado_465002" data-name="Trazado 465002" d="M35.906,324.787l-.808-1.012a.325.325,0,0,0-.195.146c-.07.122.547.9.678.942a.522.522,0,0,0,.325-.076" transform="translate(-13.101 -121.546)" fill="#e25c52"/>
          <path id="Trazado_465003" data-name="Trazado 465003" d="M63.5,331.66h-22.2a.648.648,0,0,1-.646-.647V315.486a.647.647,0,0,1,.646-.645H63.5a.647.647,0,0,1,.646.645v15.526a.648.648,0,0,1-.646.647" transform="translate(-15.264 -118.192)" fill="#565656"/>
          <path id="Trazado_465004" data-name="Trazado 465004" d="M68.992,327.4a1.178,1.178,0,0,0,.924,1.007,15.271,15.271,0,0,0,3.612-.5l2.287,2.142s1.829-.246,1.576-1.069c-.756-.68-2.066-2.13-2.519-2.412a2.023,2.023,0,0,0-1.667-.255c-.6.166-4.213,1.091-4.213,1.091" transform="translate(-25.9 -122.468)" fill="#fcc397"/>
          <path id="Trazado_465005" data-name="Trazado 465005" d="M104.409,334.124c-2.157-.881-7.156-.754-9.858.217-5.06,1.816-11.378.05-11.378.05-.069-.109-3.982-3.765-3.982-3.765l-2.409.525-2.995,4.366a3.534,3.534,0,0,1,.868.457c.31.247,3.809,2.987,5.293,2.987a2.718,2.718,0,0,0,.73-.106c1.959.665,10.789,3.512,18.487,3.507,4.711,0,4.964-1.083,6.349-2.685.719-3.128-.36-5.762-1.106-5.553" transform="translate(-27.7 -124.118)" fill="#fcc397"/>
          <path id="Trazado_465006" data-name="Trazado 465006" d="M68.924,327.869l1.554-.391a.4.4,0,0,1,.084.288c-.021.172-1.213.48-1.373.422s-.265-.319-.265-.319" transform="translate(-25.874 -122.936)" fill="#e26954"/>
          <path id="Trazado_465007" data-name="Trazado 465007" d="M73.163,335.912c-.32-.082-.613-.159-.888-.233a2.387,2.387,0,0,1-.178.172c-.394-.091-5.237-1.374-5.786-1.548-.127-.041-.267-.087-.4-.142a.763.763,0,0,0-.187.265c-.127.468.656.831,1.2,1.054s5.417,1.918,5.808,2.048c.447-.257,1.708-1.294.437-1.616" transform="translate(-24.666 -125.445)" fill="#fcc397"/>
          <path id="Trazado_465008" data-name="Trazado 465008" d="M72.2,335.783c.049-.044.112-.1.177-.172-1.36-.362-2.2-.627-2.9-.837-.721-.216-2-.583-2.79-.746a.821.821,0,0,0-.7.065c.139.055.278.1.4.142.55.174,5.413,1.457,5.808,1.548" transform="translate(-24.774 -125.378)" fill="#ea9f6c"/>
          <path id="Trazado_465009" data-name="Trazado 465009" d="M66.732,334.987a2.194,2.194,0,0,0,.224-.539,3.092,3.092,0,0,0-.83-.348.277.277,0,0,0-.289.458,2.611,2.611,0,0,0,.9.429" transform="translate(-24.684 -125.417)" fill="#e26954"/>
          <path id="Trazado_465010" data-name="Trazado 465010" d="M73.538,333.14c-2.253-.264-3.49-.488-4.489-.648-.857-.138-2.38-.36-3.3-.428-.327-.023-.888.093-.943.51-.074.553.876.85,1.53,1.021s6.5,1.518,6.965,1.611c.471-.362,1.742-1.891.24-2.067" transform="translate(-24.326 -124.657)" fill="#fcc397"/>
          <path id="Trazado_465011" data-name="Trazado 465011" d="M66.029,333.386a1.545,1.545,0,0,0,.154-.64,3.981,3.981,0,0,0-1.057-.409.39.39,0,0,0-.175.7,3.017,3.017,0,0,0,1.079.35" transform="translate(-24.326 -124.76)" fill="#e26954"/>
          <path id="Trazado_465012" data-name="Trazado 465012" d="M72.687,331.055c-2.059-.033-3.195-.131-4.112-.189-.786-.049-2.182-.117-3.022-.09-.3.008-.739.177-.754.6-.019.558.764.656,1.37.761.277.047,1.334.23,2.982.382,1.6.149,3.237.449,3.472.471.394-.407,1.437-1.908.065-1.931" transform="translate(-24.326 -124.172)" fill="#ea9f6c"/>
          <path id="Trazado_465013" data-name="Trazado 465013" d="M73.424,330.746c-2.268.036-3.523-.026-4.535-.052-.868-.022-2.408-.044-3.332.011-.328.019-.868.21-.868.629,0,.559.981.727,1.651.813.289.034,1.6.05,2.986.152,1.834.137,3.826.362,4.1.378.421-.42,1.513-1.956,0-1.931" transform="translate(-24.285 -124.135)" fill="#fcc397"/>
          <path id="Trazado_465014" data-name="Trazado 465014" d="M66.158,331.876a2.88,2.88,0,0,0,.094-.779,4.225,4.225,0,0,0-1.2-.152.375.375,0,0,0-.212.7,3.506,3.506,0,0,0,1.32.23" transform="translate(-24.267 -124.238)" fill="#e26954"/>
          <path id="Trazado_465015" data-name="Trazado 465015" d="M75.63,237.027s6.84,1.325,9.082,5.169c-.369-.9-1.272-3.595-8.216-5.774a19.1,19.1,0,0,1,9.984,4.194c-1.079-1.482-2.215-2.972-6.678-5.37.924-.106,4.488,1.389,4.993,1.821-.5-.56-.7-1.537-4.724-3.425a26.288,26.288,0,0,1,5.6,2.531c-2.631-3.19-7.3-4.445-10.037-4.441,0,.969,0,5.3,0,5.3" transform="translate(-28.391 -86.993)" fill="#a07045"/>
          <path id="Trazado_465016" data-name="Trazado 465016" d="M68.455,236.982s-6.832,1.361-9.054,5.217c.364-.9,1.254-3.6,8.185-5.817a19.117,19.117,0,0,0-9.963,4.247c1.072-1.488,2.2-2.983,6.65-5.407-.925-.1-4.48,1.415-4.982,1.849.5-.561.7-1.54,4.705-3.45a26.281,26.281,0,0,0-5.582,2.562c2.614-3.2,7.114-4.453,9.846-4.465,0,1.049.195,5.265.195,5.265" transform="translate(-21.632 -86.987)" fill="#a07045"/>
          <path id="Trazado_465017" data-name="Trazado 465017" d="M93.094,486.292a45.965,45.965,0,1,1-45.965-45.965,45.964,45.964,0,0,1,45.965,45.965" transform="translate(-0.437 -165.3)" fill="#dce775"/>
          <path id="Trazado_465018" data-name="Trazado 465018" d="M100.1,486.742c-1.976-1.23-1.56-2.813-.947-4.739a12.647,12.647,0,0,0,1.291-3.771c1.043-5.7-2.127-8.6-4.482-10.733-3.032-2.741-.65-4.061-.155-6.79.876-4.821-3.223-6.327-2.657-8.987,1.031-4.838-3.039-10.566-8.039-15.451h0c-2.333-3.195-5.945-4.6-10.087-5.107-8.167-1-13.343,4.653-16.381,12.687-3.877,10.253.856,22.382,11.276,23.715,1.7.217,13.912,17.435,14.627,20.489s12.363,1.252,10.229,6.609c-.961,2.418.442,2.972,1.311,2.85,2.108-.3,1.08-2.195,1.08-2.195s.081,1.591-1.024,1.4c-.489-.087-.967-.582-.066-1.69,1.532-1.889,2.356-2.622.535-5.618-1.156-1.905-.667-2.947.31-4.234a4.294,4.294,0,0,0,.152.609c.528,1.615,2.949,2.5,3.3,3.641s-2.933,1.691-1.5,4.217c-.095-2.091,1.1-1.741,2.136-2.342,1.819-1.058,1.294-3.187-.914-4.561" transform="translate(-21.51 -161.818)" fill="#963f04"/>
          <path id="Trazado_465019" data-name="Trazado 465019" d="M61.491,463.37l1.979,1.28,1.887,5.889-1.887-.187-1.418-2.716Z" transform="translate(-23.084 -173.951)" fill="#e27d39"/>
          <path id="Trazado_465020" data-name="Trazado 465020" d="M87.989,489.385a5.986,5.986,0,0,0-1.65-.2c-.5.084.421,1.245.421,1.245s1.139-.633,1.229-1.042" transform="translate(-32.356 -183.634)" fill="#3e5068"/>
          <path id="Trazado_465021" data-name="Trazado 465021" d="M80.07,489.531a4.806,4.806,0,0,1-3.235-4.581c.059-.567.542-4.532.542-4.532-2.891,1.4-5.267,2.451-5.267,2.451s-2.254-1.322-4.926-2.753c0,0-.489,4.069-.537,4.421-.564,4.28-3.1,4.415-6.094,5l3.5,15.165Z" transform="translate(-22.732 -180.237)" fill="#fcc397"/>
          <path id="Trazado_465022" data-name="Trazado 465022" d="M71.29,477.558l-.317,2.584a28.284,28.284,0,0,0,3.882,2.912,1.4,1.4,0,0,0,1.092.174,33.2,33.2,0,0,0,5.113-1.892l.312-2.543Z" transform="translate(-26.644 -179.277)" fill="#ea9f6c"/>
          <path id="Trazado_465023" data-name="Trazado 465023" d="M85.816,450.976a1.376,1.376,0,0,0-1.039-.039c.786-3.411,1.417-6.869.991-7.756a13.935,13.935,0,0,0-10.26-7.726h0a13.937,13.937,0,0,0-11.822,5.021c-.62.75-.845,4.2-.909,7.659a1.259,1.259,0,0,0-.735-.078c-1.059.216-1.62,1.839-1.252,3.62a3.516,3.516,0,0,0,2.01,2.807c.021.987.043,1.606.043,1.606,1.413,5.8,6.6,9.21,8.305,10.187a1.458,1.458,0,0,0,1.1.157c1.826-.512,7.774-2.552,10.573-7.9,0,0,.17-.6.428-1.542.949.184,2.186-.728,2.9-2.207.791-1.637.645-3.343-.328-3.813" transform="translate(-22.778 -163.454)" fill="#fcc397"/>
          <path id="Trazado_465024" data-name="Trazado 465024" d="M86.4,455.973a6.684,6.684,0,0,1,3.625-.65,3.761,3.761,0,0,1,1.937,1.126,11.887,11.887,0,0,0-1.871-.7,6.5,6.5,0,0,0-3.484.808c-.438.233-.644-.35-.206-.583" transform="translate(-32.342 -170.908)" fill="#663412"/>
          <path id="Trazado_465025" data-name="Trazado 465025" d="M74,454.458a7.672,7.672,0,0,0-3.31-1.391,4.239,4.239,0,0,0-1.871.566c-1.708.959.638-.377,1.788-.109a7.844,7.844,0,0,1,3.052,1.453c.354.325.693-.195.34-.52" transform="translate(-25.609 -170.083)" fill="#663412"/>
          <path id="Trazado_465026" data-name="Trazado 465026" d="M74.58,459.078a9.882,9.882,0,0,1-2.558.418c-1.019-.083-1.777-.76-1.7-1.392s.963-1.046,1.976-.923a3.466,3.466,0,0,1,2.281,1.9" transform="translate(-26.397 -171.619)" fill="#fff"/>
          <path id="Trazado_465027" data-name="Trazado 465027" d="M73.556,458.513a1.079,1.079,0,1,1-.931-1.259,1.109,1.109,0,0,1,.931,1.259" transform="translate(-26.807 -171.652)" fill="#7b9368"/>
          <path id="Trazado_465028" data-name="Trazado 465028" d="M73.5,458.52a.731.731,0,1,1-.631-.853.748.748,0,0,1,.631.853" transform="translate(-27.046 -171.808)"/>
          <path id="Trazado_465029" data-name="Trazado 465029" d="M74.168,458.71a.315.315,0,0,1-.377.225c-.19-.024-.329-.161-.311-.31a.313.313,0,0,1,.377-.222c.19.023.329.161.311.308" transform="translate(-27.584 -172.084)" fill="#fff"/>
          <path id="Trazado_465030" data-name="Trazado 465030" d="M73.9,458.755c-.65-1.585-2.512-1.874-3.783-1.569-1.12.266-1.3.031-1.337-.027a2.454,2.454,0,0,0,1.506,1.889,1.274,1.274,0,0,1-.527-.728c.2-.66,1.682-.887,2.617-.476,1.343.593,1.628,1.21,1.628,1.21a1.175,1.175,0,0,0-.1-.3" transform="translate(-25.819 -171.589)"/>
          <path id="Trazado_465031" data-name="Trazado 465031" d="M85.677,460.5a10.151,10.151,0,0,0,2.419,1.028c1.021.167,1.932-.3,2.011-.939s-.693-1.248-1.723-1.374a3.51,3.51,0,0,0-2.707,1.285" transform="translate(-32.163 -172.386)" fill="#fff"/>
          <path id="Trazado_465032" data-name="Trazado 465032" d="M88.166,460.307a1.094,1.094,0,1,0,1.222-1,1.116,1.116,0,0,0-1.222,1" transform="translate(-33.094 -172.424)" fill="#7b9368"/>
          <path id="Trazado_465033" data-name="Trazado 465033" d="M88.691,460.382a.741.741,0,1,0,.828-.673.755.755,0,0,0-.828.673" transform="translate(-33.293 -172.574)"/>
          <path id="Trazado_465034" data-name="Trazado 465034" d="M90.322,460.786c-.018.147.123.287.317.31a.318.318,0,0,0,.382-.224c.017-.148-.124-.287-.318-.31a.319.319,0,0,0-.382.224" transform="translate(-33.907 -172.895)" fill="#fff"/>
          <path id="Trazado_465035" data-name="Trazado 465035" d="M91.278,459.928c-.051.046-.287.229-1.322-.3-1.179-.6-3.082-.778-4.107.6a1.191,1.191,0,0,0-.176.266,3.2,3.2,0,0,1,1.9-.779c1.02-.172,2.428.411,2.462,1.1a1.282,1.282,0,0,1-.7.58c.734-.167,1.823-.73,1.942-1.465" transform="translate(-32.162 -172.376)"/>
          <path id="Trazado_465036" data-name="Trazado 465036" d="M89.023,444.93c.9-7.343-4.989-14.11-13.157-15.111S60.35,433.961,59.45,441.3a14.41,14.41,0,0,0,.72,6.944c.052-1.22.566-2.172,1.36-2.336a1.213,1.213,0,0,1,.542.016c.206,1.591.493,2.708.6,1.847.124-1.016.557-2.862.9-4.216.666-1.814.709-5.019,5.895-4.678-.07-4.33,15.339-3.076,14.617,7.6-.012,1.327-.052,2.938-.164,3.846-.1.851.409-.133.966-1.6a1.181,1.181,0,0,1,.426.111c.763.367,1.015,1.5.706,2.767a12.39,12.39,0,0,0,3.009-6.668" transform="translate(-22.268 -161.309)" fill="#b7642c"/>
          <path id="Trazado_465037" data-name="Trazado 465037" d="M79.934,468.733l-1.385-.171a1.093,1.093,0,0,1-.911-.891,1.309,1.309,0,0,0-.128.422c-.082.665.7.977,1.3,1.049l.736.091c.6.073,1.431-.041,1.512-.7a1.324,1.324,0,0,0-.021-.443,1.1,1.1,0,0,1-1.1.648" transform="translate(-29.095 -175.565)" fill="#ea9f6c"/>
          <path id="Trazado_465038" data-name="Trazado 465038" d="M61.495,457.164c.007-.141.352-.724.677-.578.494.226.7,1.268.791,2.3s-.1,1.746-.181,1.462A14.643,14.643,0,0,0,62.2,457.5c-.314-.809-.754.76-.7-.332" transform="translate(-23.084 -171.395)" fill="#ea9f6c"/>
          <path id="Trazado_465039" data-name="Trazado 465039" d="M100.537,462.029c.028-.136-.166-.788-.514-.723-.537.1-.984,1.061-1.323,2.037s-.329,1.718-.18,1.462a14.6,14.6,0,0,1,1.257-2.624c.5-.706.547.923.76-.152" transform="translate(-36.948 -173.174)" fill="#ea9f6c"/>
          <path id="Trazado_465040" data-name="Trazado 465040" d="M71.045,465.149c-.375.823-1.749,1-3.072.4s-2.089-1.757-1.714-2.579,1.749-1,3.072-.4,2.088,1.756,1.713,2.578" transform="translate(-24.838 -173.517)" fill="#ffb18a"/>
          <path id="Trazado_465041" data-name="Trazado 465041" d="M86.81,467.191c.165.888,1.457,1.394,2.883,1.129s2.452-1.2,2.287-2.089-1.458-1.4-2.882-1.129-2.454,1.2-2.288,2.089" transform="translate(-32.582 -174.574)" fill="#ffb18a"/>
          <path id="Trazado_465042" data-name="Trazado 465042" d="M73.979,472.681c-.39-.223-.465-.155-.525-.1-.077.074-.1.066.122.455.109.19.48.832.48.832a3.992,3.992,0,0,0,3.069,2.486,3.8,3.8,0,0,0,3.5-1.818c.121-.193.395-.484.473-.59.258-.352.224-.366.177-.43-.127-.176-.154-.091-.44.011a19.247,19.247,0,0,1-6.858-.842" transform="translate(-27.555 -177.388)" fill="#c6523c"/>
          <path id="Trazado_465043" data-name="Trazado 465043" d="M79.8,474.805c.535-.1.751-.534.951-1.091a17.57,17.57,0,0,1-3.135-.2,26.4,26.4,0,0,1-2.674-.517,1.091,1.091,0,0,0,.672,1.095c-.432-.027-.563.367-.564.849a4.456,4.456,0,0,0,2.576,1.415,3.175,3.175,0,0,0,2.78-.755c-.077-.313-.24-.731-.606-.791" transform="translate(-28.133 -177.563)" fill="#fff"/>
          <path id="Trazado_465044" data-name="Trazado 465044" d="M74.484,472.856s.066.6,2.964.936c2.873.328,3.531-.115,3.531-.115s-2.134-.518-3.314-.643c-1.091-.114-3.181-.178-3.181-.178" transform="translate(-27.962 -177.512)" fill="#fc7365"/>
          <path id="Trazado_465045" data-name="Trazado 465045" d="M72.2,525.936c.029-.188.065-.382.1-.576q.084-.472.189-.969a53.5,53.5,0,0,1,5.089-13.537c.148-.23,1.851-15.266.1-15.266l-5.275-.942-.1.071-2.545-.562c-3.443.873-6.688.954-8.273,3.716-.567.989-4.1,6.821-4.1,6.821s-2.187-10.484-3.453-10.837c0,0-9.464,1.279-10.233,1.734a4.992,4.992,0,0,0-2.117,2.517,46.7,46.7,0,0,0-2.809,9.693c-.742,4.166-2.223,10.484-2.223,10.484l6.388,1.446.7-3.357a7.859,7.859,0,0,0,4.287,4.251,42.279,42.279,0,0,1,1.106,5.314c.088.621.165,1.237.238,1.849.059.489.11.974.157,1.455.091.947.164,1.881.209,2.8q.024.487.039.971c.036,1.127.035,2.235-.017,3.311a19.386,19.386,0,0,0-3.851,3.9,41.139,41.139,0,0,0,4.6,1.169c1.824.174,3.019-1.705,3.019-1.705s-.681,2.736,4.219,3.135c4.926.4,14.835-.667,18.892-1.148a19.506,19.506,0,0,0-4.966-5.445c-.018-.387-.029-1.235-.036-1.63,0-.3,0-.154,0-.461a54.613,54.613,0,0,1,.671-8.2" transform="translate(-13.722 -185.395)" fill="#5a6c92"/>
          <path id="Trazado_465046" data-name="Trazado 465046" d="M73.95,473.765A3.545,3.545,0,0,0,77,477.009c2.7.421,4.1-2.378,4.1-2.378a4.483,4.483,0,0,1-3.758,1.222,4.118,4.118,0,0,1-3.388-2.087" transform="translate(-27.761 -177.853)" fill="#fc7365"/>
          <path id="Trazado_465047" data-name="Trazado 465047" d="M48.2,512.718s-1.578,7-1.816,9.264c-.065.627-.839-.7-.839-.7s.426-5.136,2.656-8.565" transform="translate(-17.099 -192.476)" fill="#3e5068"/>
          <path id="Trazado_465048" data-name="Trazado 465048" d="M73.418,535.079c-1.219-.189-3.405-1.11-4.125-2.191a4.68,4.68,0,0,0,2.884,3.092c6.32,2.037,9.611-3.84,9.611-3.84-1.888,1.453-5.165,3.435-8.371,2.939" transform="translate(-26.013 -199.767)" fill="#3e5068"/>
          <path id="Trazado_465049" data-name="Trazado 465049" d="M68.177,508.9s-3.974,6.235-4.3,11.629c-.765,8.582-.617,24.806-.617,24.806s-.461-5.227-.505-9.169c-.035-3.135.171-8.517.438-14.479a21.9,21.9,0,0,1,4.03-11.346,12.052,12.052,0,0,1,.953-1.441" transform="translate(-23.558 -191.042)" fill="#3e5068"/>
          <path id="Trazado_465050" data-name="Trazado 465050" d="M66.788,546.8c.542-.877,12.993-2.39,16.078-3.087q.084-.472.189-.969c-.1.016-.192.034-.282.056-.979.234-3.272.588-5.7.964-7.222,1.119-10.115-1.279-11.042-.77-2.172-.16-1.525,3.678.756,3.806" transform="translate(-24.288 -203.748)" fill="#3e5068"/>
          <path id="Trazado_465051" data-name="Trazado 465051" d="M69.911,503.208l3.363-7.6,8.541-5.818,4.258,3.805-10.641,8.609-2.064-4.374Z" transform="translate(-26.245 -183.87)" fill="#3e5068"/>
          <path id="Trazado_465052" data-name="Trazado 465052" d="M83.9,489.517l4.639,3.666-10.849,7.639L75.3,495.508Z" transform="translate(-28.266 -183.766)" fill="#5a6c92"/>
          <path id="Trazado_465053" data-name="Trazado 465053" d="M65.906,488.933A23.215,23.215,0,0,0,65,494.415l.861,8.47-3.615-8.408-3.121-1.925Z" transform="translate(-22.196 -183.547)" fill="#3e5068"/>
          <path id="Trazado_465054" data-name="Trazado 465054" d="M82.532,575.925a46.2,46.2,0,0,1-37.005.21,20,20,0,0,1,3.651-8.365,41.081,41.081,0,0,0,4.6,1.169c1.824.175,3.019-1.705,3.019-1.705s-.682,2.736,4.219,3.135c4.926.4,14.835-.668,18.892-1.148.137.221.272.443.4.668a20.366,20.366,0,0,1,2.227,6.036" transform="translate(-17.091 -212.941)" fill="#3f3f3f"/>
          <path id="Trazado_465055" data-name="Trazado 465055" d="M65.552,489.235,59.1,492.658l3.651,1.552Z" transform="translate(-22.187 -183.661)" fill="#5a6c92"/>
          <path id="Trazado_465056" data-name="Trazado 465056" d="M34.554,540.937l.1-.21,11.558,5-2.041.7-7.42-3.623Z" transform="translate(-12.972 -202.991)" fill="#ea9f6c"/>
          <path id="Trazado_465057" data-name="Trazado 465057" d="M44.179,527.292a7.085,7.085,0,0,1-1.144-.85,1.276,1.276,0,0,0-.229,1.722c-.144.192-.366.509-.654.969-.517.828-2.851-3.5-2.851-3.5l-.774-.117a2.715,2.715,0,0,0-1.638,1.367,2.475,2.475,0,0,1-.316.522,3.418,3.418,0,0,0-.859,1.375c-.1.617.021.843-.081,1.024a4.624,4.624,0,0,0-.134,2.835c.171,1.083,2.678,2.636,4.741,1.06a2.21,2.21,0,0,0,2.031-1.292l2.355-3.9a.951.951,0,0,0-.448-1.214" transform="translate(-13.266 -197.28)" fill="#fcc397"/>
          <path id="Trazado_465058" data-name="Trazado 465058" d="M41.873,533.853s-1.388-1.029-1.733-1.226a8.214,8.214,0,0,0-2.146-.886c-.7-.111-.784,1.31-.345,1.652.23.178.235.095.478.112-.505.281-1.03.559-.691.5a7.343,7.343,0,0,1,1.219-.372,10.064,10.064,0,0,1,1.068.444c2.032.954,2.163.037,2.149-.22" transform="translate(-14.013 -199.615)" fill="#ea9f6c"/>
          <path id="Trazado_465059" data-name="Trazado 465059" d="M41.523,533.522c.016.259.121,1.166-1.925.242-1.413-.64-2.205-.149-2.646-.488s.212-1.954.916-1.844a8.306,8.306,0,0,1,2.146.886c.345.2,1.509,1.205,1.509,1.205" transform="translate(-13.819 -199.499)" fill="#fcc397"/>
          <path id="Trazado_465060" data-name="Trazado 465060" d="M42.471,534.586a1.916,1.916,0,0,1,.276-.5,3.014,3.014,0,0,1,.865.419c.167.132.217.5-.165.5a3.045,3.045,0,0,1-.976-.422" transform="translate(-15.944 -200.498)" fill="#e26954"/>
          <path id="Trazado_465061" data-name="Trazado 465061" d="M41.44,531.545s-2.756-.371-3.658-.335a4.422,4.422,0,0,0-.939-.016c-.167-.1-.308,0-.289.095s-.014.086.359.057a2.437,2.437,0,0,1,.86-.017,2.161,2.161,0,0,1,.256.078c.692.463,2.044,1.155,2.213,1.27s1.313,2.235,2.911.651Z" transform="translate(-13.721 -199.397)" fill="#ea9f6c"/>
          <path id="Trazado_465062" data-name="Trazado 465062" d="M42.815,528.962A10.622,10.622,0,0,0,39,528.193a1.713,1.713,0,0,0-.665.023c-.168.034-.37-.078-.417.1s.4.036.5.019a1.5,1.5,0,0,1,.547.013,15.754,15.754,0,0,1,2.54,1.881c.325.3,1.558,2.2,2.949.721,0,0-1.305-1.653-1.637-1.991" transform="translate(-14.232 -198.277)" fill="#ea9f6c"/>
          <path id="Trazado_465063" data-name="Trazado 465063" d="M42.191,520.1c-.078-.174-.05-.355.059-.4l.487-.212c.11-.048.26.056.335.23l.315.726c.074.174.049.352-.059.4l-.488.212c-.109.046-.259-.056-.334-.23Z" transform="translate(-15.822 -195.013)" fill="#c2c4c2"/>
          <rect id="Rectángulo_262654" data-name="Rectángulo 262654" width="0.482" height="9.21" transform="translate(26.485 325.357) rotate(-23.465)" fill="#369e3b"/>
          <path id="Trazado_465064" data-name="Trazado 465064" d="M43.55,520.29l3.666,8.45-.436.191-3.668-8.449Z" transform="translate(-16.185 -195.319)" fill="#72dd5b"/>
          <path id="Trazado_465065" data-name="Trazado 465065" d="M43.211,520.421l3.666,8.448-.442.19-3.667-8.448Z" transform="translate(-16.055 -195.368)" fill="#40c140"/>
          <path id="Trazado_465066" data-name="Trazado 465066" d="M49.151,533.81l-.884.384,1.188,1.525Z" transform="translate(-18.119 -200.394)" fill="#fcea9d"/>
          <path id="Trazado_465067" data-name="Trazado 465067" d="M49.529,535.967l.4.512-.1-.643Z" transform="translate(-18.593 -201.155)" fill="#515151"/>
          <rect id="Rectángulo_262655" data-name="Rectángulo 262655" width="0.961" height="0.514" transform="translate(26.477 325.338) rotate(-23.399)" fill="#3a3a3a"/>
          <path id="Trazado_465068" data-name="Trazado 465068" d="M43.311,526.922c-.3-.3-1.585-1.426-1.928-1.742.022-.077-.026-.259.117-.167.372.245,1.012.793,1.2.942.941.759,1.5.472,2.011-.14a10.087,10.087,0,0,0-3.182-2.786.9.9,0,0,0-1.205.524c-.235.552-.416,1.1-.439,1.167-.017.044.264.023.621.059a.685.685,0,0,0-.354.2c-.364.36-.758.882-.7,1.188.024.123.293.065.431.162a24.52,24.52,0,0,1,2.287,1.687c.325.3,1.454,2.148,2.692.981,0,0-1.221-1.738-1.551-2.075" transform="translate(-14.808 -196.315)" fill="#fcc397"/>
          <path id="Trazado_465069" data-name="Trazado 465069" d="M43.573,532.329l-1.713-1.783s-2.246-1.814-2.423-1.928-.342-.307-.746.164c-.329.379-.931.911-.693,1.283.059.087.294.142.492.222a23.865,23.865,0,0,1,2.344,1.194c.176.117,1.319,2.019,2.739.848" transform="translate(-14.244 -198.393)" fill="#fcc397"/>
          <path id="Trazado_465070" data-name="Trazado 465070" d="M45.1,526.489a2.435,2.435,0,0,1,.507-.517,3.76,3.76,0,0,1,.916.805c.16.217.1.685-.37.558a3.864,3.864,0,0,1-1.053-.846" transform="translate(-16.93 -197.452)" fill="#e26954"/>
          <path id="Trazado_465071" data-name="Trazado 465071" d="M47.5,532.058l-.768-1.052a.8.8,0,0,0-.35.11c-.156.1.428.916.605.97a1.293,1.293,0,0,0,.513-.028" transform="translate(-17.402 -199.341)" fill="#e26954"/>
          <path id="Trazado_465072" data-name="Trazado 465072" d="M46.222,534.042l-.924-.918a.76.76,0,0,0-.328.164c-.139.128.566.834.749.861a1.32,1.32,0,0,0,.5-.107" transform="translate(-16.875 -200.137)" fill="#e26954"/>
          <path id="Trazado_465073" data-name="Trazado 465073" d="M17.53,531.11a2.169,2.169,0,0,1,1.627-.507c1.183,0,7.877,4.2,7.877,4.2l10.874-1.457-.21,2.662-10.295.422-1-.19-.515-.227-.084-.342L17.53,531.2Z" transform="translate(-6.581 -199.19)" fill="#fff"/>
          <path id="Trazado_465074" data-name="Trazado 465074" d="M50.082,535l15.86,6.8v1l-15.986-6.343Z" transform="translate(-18.754 -200.842)" fill="#dbdbdb"/>
          <path id="Trazado_465075" data-name="Trazado 465075" d="M17.161,531.216l8.7,4.648s.169.591,1.477.421,10.221-1.141,10.221-1.141l16.176,6.546-10.685,2.07L26.79,536.834s-.961-.211-1.182-.718-8.446-4.6-8.446-4.6Z" transform="translate(-6.442 -199.42)" fill="#752b0b"/>
          <path id="Trazado_465076" data-name="Trazado 465076" d="M59.808,543.479v.379l-16.175-6.546-10.3,1.149,10.409-1.47Z" transform="translate(-12.515 -201.588)" fill="#9b5e26"/>
          <path id="Trazado_465077" data-name="Trazado 465077" d="M34.393,541.025s4.646,2.629,5.215,2.874c1.443.626,3.592,1.874,4.588,1.992.43.052-4.438-2.074-5.012-2.752a.612.612,0,0,1,.535-1.042c1.914-.015,3.406,1.408,6.43,1.669,3.444.3,3.708,2.582,3.708,2.582s1.686,2.232-1.048,2.67c-3.356.535-8.277-1.191-9.794-2.192-.332-.218-4-4.948-4.891-5.864l.269.064" transform="translate(-12.81 -203.079)" fill="#fcc397"/>
          <path id="Trazado_465078" data-name="Trazado 465078" d="M43.411,543.722a2.6,2.6,0,0,1-.379.675,4.035,4.035,0,0,1-1.165-.575c-.224-.178-.289-.677.227-.677a4.146,4.146,0,0,1,1.317.577" transform="translate(-15.654 -203.898)" fill="#e26954"/>
          <path id="Trazado_465079" data-name="Trazado 465079" d="M89.349,501.169c-.994-3.734-3.107-5.122-6.1-4.826-5.653.542-4.658,9.013-4.39,10.22.5,2.269,1.111,4.5,2.318,5.822.692,4.765.994,9.123.736,10.859-.156,1.05-.343,2.063-.425,2.9a6.111,6.111,0,0,0-1.655.112c-2.872.685-15.648,2.227-16.2,3.114a50.454,50.454,0,0,1-5.575-.783,5.1,5.1,0,0,0-1.754,4.11,38.245,38.245,0,0,0,6.547,1.593s-.084.929,2.027,1.1,15.542,1.1,23.568-3.019a4.244,4.244,0,0,0,.242-.67c3.854-9.219,1.56-27.125.656-30.526" transform="translate(-21.137 -186.314)" fill="#5a6c92"/>
          <path id="Trazado_465080" data-name="Trazado 465080" d="M70.9,557.625c-2.748,0-4.834-.15-5.565-.209-2.112-.169-2.027-1.1-2.027-1.1a42.344,42.344,0,0,1-5.8-1.325q.024.487.039.971c1.873.585,6.476,2.478,7.646,2.57.986.079,3.1,0,5.709,0a70.286,70.286,0,0,0,8.5-.986c0-.3,0-.154,0-.461a63.783,63.783,0,0,1-8.5.535" transform="translate(-21.587 -208.347)" fill="#3e5068"/>
          <path id="Trazado_465081" data-name="Trazado 465081" d="M40,546.6c.327.117-.374.39-1.071-.337s-2.893-3.061-2.893-3.061,3.149,3.114,3.964,3.4" transform="translate(-13.527 -203.92)" fill="#ea9f6c"/>
          <path id="Trazado_465082" data-name="Trazado 465082" d="M66.135,511.23a.588.588,0,1,1-.58-.678.634.634,0,0,1,.58.678" transform="translate(-24.391 -191.663)" fill="#3e5068"/>
          <path id="Trazado_465083" data-name="Trazado 465083" d="M62.271,523.79a.571.571,0,1,1-.562-.68.628.628,0,0,1,.562.68" transform="translate(-22.956 -196.377)" fill="#3e5068"/>
          <path id="Trazado_465084" data-name="Trazado 465084" d="M61.759,536.459a.556.556,0,1,1-.543-.677.621.621,0,0,1,.543.677" transform="translate(-22.777 -201.134)" fill="#3e5068"/>
          <path id="Trazado_465085" data-name="Trazado 465085" d="M61.759,559.5a.557.557,0,1,1-.543-.68.621.621,0,0,1,.543.68" transform="translate(-22.777 -209.784)" fill="#3e5068"/>
          <path id="Trazado_465086" data-name="Trazado 465086" d="M66.431,441.145c-1.555-.48-4.218-1.02-5.53,2.172a24.165,24.165,0,0,0-2.209,11.617c.212,4.57,2.2,11.337,5.188,13.617-1.407-.655-5.643-4.705-6.626-11.132-1-6.546,1.892-14.444,3.575-16.7,2.045-2.736,5.6.422,5.6.422" transform="translate(-21.417 -165.03)" fill="#d87736"/>
          <path id="Trazado_465087" data-name="Trazado 465087" d="M64.026,461.709a5.658,5.658,0,0,1-2.437-4.326,26.526,26.526,0,0,1,1.618-12.035c1.136-3.192,2.931-3.3,4.428-3.532a3.313,3.313,0,0,0-4.468,1.214c-1.458,2.252-3.682,9.658-2.643,15.379s4.344,6.937,6.117,6.741a16.444,16.444,0,0,1-2.615-3.442" transform="translate(-22.621 -165.701)" fill="#d87736"/>
          <path id="Trazado_465088" data-name="Trazado 465088" d="M113.716,496.138c.191.941,2.149,2.224,2.158,4.143s-1.758,3.372-2.841,5.364a4.045,4.045,0,0,0,.457,5,3.269,3.269,0,0,1-.229,5.032c-1.354,1.213-.109,3.338,1.214,2.679a1.424,1.424,0,0,0,.723-1.528c-.062.773-.655,1.333-1.154,1.174a1.052,1.052,0,0,1-.479-1.631,15.2,15.2,0,0,0,1.52-1.567,4.333,4.333,0,0,0,.16-4.454c-.722-1.585-1.148-2.869.259-4.769s2.347-2.935,2.583-5.3c.133-1.331-.694-2.062-2.583-3.288-1.447-.941-1.6-2.167-1.368-2.623a2.213,2.213,0,0,0-.418,1.768" transform="translate(-42.19 -185.588)" fill="#b7642c"/>
          <path id="Trazado_465089" data-name="Trazado 465089" d="M66.068,441.418a4.391,4.391,0,0,0-3.25,1.931c-1.025,1.4-2.641,7.563-2.659,10.451s1.12,7.843,2.46,9.808c-1.314-1.338-3.277-4.56-3.555-9.715-.686-12.757,4.523-12.765,4.951-12.823a11.128,11.128,0,0,1,2.054.348" transform="translate(-22.149 -165.577)" fill="#e0a43b"/>
          <path id="Trazado_465090" data-name="Trazado 465090" d="M112.657,483.58a7.742,7.742,0,0,0,3.628,8.643c3.173,1.954,2.235,4.26,1.274,5.927s.732,3.028,2.145,3.648c1.648.721,1.648,3.59-1.139,3.518-3.542-.092-1.776,5.153.987,1.946-.578.32-1.308.645-1.847.147s-.365-1.526,1.239-1.415,3.8-.152,4.255-2.27c.57-2.65-1.75-2.863-3.039-4.221-1.52-1.6,2.071-4.488-.152-8.592-1.49-2.748-5.927-2.515-5.125-10.512s-2.226,3.18-2.226,3.18" transform="translate(-42.214 -179.262)" fill="#d87736"/>
          <path id="Trazado_465091" data-name="Trazado 465091" d="M74.513,439.582c.33-2.241,1.676-2.607,4.195-2.386s9,2.68,10.245,6.9a59.3,59.3,0,0,0,5.126,11.614c1.508,2.566,3.746,4.116,4.418,6.811s-.294,4.4-.232,5.119,2.337-3.383,2.222-5.119-1.349-2.838-2.821-5.514-.878-1.6-1.737-7.66-3.773-8.649-5.2-9.878a23.776,23.776,0,0,0-9.069-4.192c-3.646-.783-9.069.432-7.143,4.307" transform="translate(-27.822 -163.319)" fill="#e0a43b"/>
          <path id="Trazado_465092" data-name="Trazado 465092" d="M95.126,445.1c6.434,6.235,4.119,12.589,8.542,16.081,3.986,3.146,5.886,8.085,2.78,12.017-1.407,1.78-3.419,4.455-2.3,5.762,2.076,2.43,5.094,1.7,2.014,6.776.207-.247,1.235-2.662-.1-3.511-4.185-1.856-7.576-4.538-6.233-8.95s4.22-2.663-.959-9.259c-3.245-4.134-1.852-4.277-1.533-10.6a12.649,12.649,0,0,0-2.214-8.316" transform="translate(-35.711 -167.091)" fill="#d87736"/>
          <path id="Trazado_465093" data-name="Trazado 465093" d="M97.688,465.119c.255-1.158-1.951,3.187-1.282,5.286s1.784,2.075,1.839,3.369-.279,2.24-1.728,4.19-.278,2.927.223,3.273a7.077,7.077,0,0,1,2.341,1.533,2.231,2.231,0,0,1,0,2.771c-.558.669-1.554,1.38-1.39,2.474s1.467,1.257,1.873,1.2a1.579,1.579,0,0,0,1.244-.916,2.031,2.031,0,0,1-1.4.452.932.932,0,0,1-.772-1.445c.334-.482,1.905-1.59,2.172-2.265a3,3,0,0,0-1.047-3.511c-.9-.667-1.516-1.193-.735-2.546s1.5-2.322,1.56-4.038a6.043,6.043,0,0,0-1.839-4.169c-1-1.17-1.839-2.123-1.059-5.658" transform="translate(-35.97 -174.535)" fill="#d87736"/>
          <path id="Trazado_465094" data-name="Trazado 465094" d="M86.688,434.183c6.027,1.6,10.9,5.453,12.6,10.065,1.455,3.959,1.1,5.781,1.3,8.7a7.606,7.606,0,0,0,2.57,5.6c1.4,1.408,2.032,3.062.732,6.341s1.184-.157,1.9-1.883a5.67,5.67,0,0,0-2.1-6.92c-1.959-1.435-.8-3.932-.8-6.733a11.272,11.272,0,0,0-2.4-7.206c-2.9-4.257-9.1-7.873-13.8-7.964" transform="translate(-32.543 -162.994)" fill="#d87736"/>
          <path id="Trazado_465095" data-name="Trazado 465095" d="M161.952,95.3l27.372,15.8-27.372,15.8Z" transform="translate(-60.797 -35.777)" fill="#e0e0e0"/>
          <path id="Trazado_465096" data-name="Trazado 465096" d="M161.952,295.3l27.372,15.8-27.372,15.8Z" transform="translate(-60.797 -110.857)" fill="#e0e0e0"/>
          <path id="Trazado_465097" data-name="Trazado 465097" d="M161.952,495.3l27.372,15.8-27.372,15.8Z" transform="translate(-60.797 -185.938)" fill="#e0e0e0"/>
        </g>
      </g>
    </g>
  </g>
</svg>
