<svg xmlns="http://www.w3.org/2000/svg" xmlns:xlink="http://www.w3.org/1999/xlink" width="309.292" height="306.949" viewBox="0 0 309.292 306.949">
  <defs>
    <radialGradient id="radial-gradient" cx="1.002" cy="0.908" r="1.092" gradientTransform="translate(0.007) scale(0.987 1)" gradientUnits="objectBoundingBox">
      <stop offset="0" stop-color="#173d7a"/>
      <stop offset="1" stop-color="#274f89"/>
    </radialGradient>
    <radialGradient id="radial-gradient-2" cx="0.967" cy="0.944" r="1.063" gradientTransform="translate(-0.095) scale(1.19 1)" gradientUnits="objectBoundingBox">
      <stop offset="0" stop-color="#86b8e0"/>
      <stop offset="0.116" stop-color="#98c4e7"/>
      <stop offset="0.325" stop-color="#b2d5f1"/>
      <stop offset="0.54" stop-color="#c5e2f9"/>
      <stop offset="0.761" stop-color="#d0e9fd"/>
      <stop offset="1" stop-color="#d4ecff"/>
    </radialGradient>
    <radialGradient id="radial-gradient-3" cx="0.892" cy="0.72" r="0.788" gradientTransform="translate(-0.09) scale(1.18 1)" xlink:href="#radial-gradient"/>
    <radialGradient id="radial-gradient-4" cx="1.127" cy="0.6" r="2.077" gradientTransform="translate(0.211) scale(0.577 1)" xlink:href="#radial-gradient-2"/>
    <radialGradient id="radial-gradient-5" cx="0.234" cy="0.38" r="0.644" gradientTransform="translate(-0.287) scale(1.574 1)" gradientUnits="objectBoundingBox">
      <stop offset="0" stop-color="#396caa"/>
      <stop offset="1" stop-color="#274f89"/>
    </radialGradient>
    <linearGradient id="linear-gradient" x1="0.029" y1="0.235" x2="0.883" y2="0.916" gradientUnits="objectBoundingBox">
      <stop offset="0" stop-color="#d4ecff"/>
      <stop offset="0.239" stop-color="#d0e9fd"/>
      <stop offset="0.46" stop-color="#c5e2f9"/>
      <stop offset="0.675" stop-color="#b2d5f1"/>
      <stop offset="0.884" stop-color="#98c4e7"/>
      <stop offset="1" stop-color="#86b8e0"/>
    </linearGradient>
    <linearGradient id="linear-gradient-2" x1="-6.199" y1="8.517" x2="-5.073" y2="8.43" gradientUnits="objectBoundingBox">
      <stop offset="0" stop-color="#3919bb"/>
      <stop offset="1" stop-color="#6507fa"/>
    </linearGradient>
    <radialGradient id="radial-gradient-6" cx="0.988" cy="0.656" r="1.746" gradientTransform="translate(0.211) scale(0.577 1)" xlink:href="#radial-gradient"/>
    <linearGradient id="linear-gradient-4" x1="0.101" y1="0.5" x2="1.101" y2="0.5" xlink:href="#linear-gradient"/>
    <radialGradient id="radial-gradient-7" cx="0.923" cy="0.779" r="1.227" gradientTransform="translate(0.133) scale(0.734 1)" xlink:href="#radial-gradient"/>
  </defs>
  <g id="Grupo_709732" data-name="Grupo 709732" transform="translate(-166.989 -960.203)">
    <g id="Grupo_152006" data-name="Grupo 152006" transform="translate(197.838 1065.693)" opacity="0.158">
      <path id="Trazado_183874" data-name="Trazado 183874" d="M528.342,146.64l-23.908-13.8,23.908-13.8,23.909,13.8Zm-22.215-13.8,22.215,12.826,22.216-12.826L528.342,120.01Z" transform="translate(-273.812 -119.03)" fill="#173d7a"/>
      <path id="Trazado_183875" data-name="Trazado 183875" d="M467.989,146.64l-23.909-13.8,23.908-13.8.211.123,23.7,13.681Zm-22.216-13.8,22.216,12.827L490.2,132.836,467.988,120.01Z" transform="translate(-259.583 -119.03)" fill="#173d7a"/>
      <path id="Trazado_183876" data-name="Trazado 183876" d="M498.166,164.063l-23.909-13.8,23.909-13.8,23.908,13.8Zm-22.216-13.8,22.216,12.826,22.215-12.826-22.215-12.826Z" transform="translate(-266.698 -123.138)" fill="#173d7a"/>
      <path id="Trazado_183877" data-name="Trazado 183877" d="M528.343,181.486l-.211-.122-23.7-13.681,23.908-13.8.212.122,23.7,13.682Zm-22.216-13.8,22.216,12.826,22.216-12.826-22.217-12.827Z" transform="translate(-273.812 -127.246)" fill="#173d7a"/>
      <path id="Trazado_183878" data-name="Trazado 183878" d="M407.634,146.639l-.211-.122-23.7-13.681,23.908-13.8.212.123,23.7,13.681Zm-22.216-13.8,22.216,12.826,22.216-12.826-22.217-12.826Z" transform="translate(-245.352 -119.03)" fill="#173d7a"/>
      <path id="Trazado_183879" data-name="Trazado 183879" d="M437.812,164.062l-.211-.122-23.7-13.681,23.908-13.8,23.909,13.8Zm-22.216-13.8,22.216,12.826,22.215-12.825-22.216-12.827Z" transform="translate(-252.468 -123.138)" fill="#173d7a"/>
      <path id="Trazado_183880" data-name="Trazado 183880" d="M467.99,181.485l-.211-.122-23.7-13.681,23.908-13.8,23.908,13.8Zm-22.216-13.8,22.216,12.826L490.2,167.682l-22.215-12.827Z" transform="translate(-259.583 -127.246)" fill="#173d7a"/>
      <path id="Trazado_183881" data-name="Trazado 183881" d="M498.167,198.909l-23.909-13.8,23.908-13.8.211.122,23.7,13.681Zm-22.216-13.8,22.216,12.828L520.382,185.1l-22.216-12.826Z" transform="translate(-266.698 -131.354)" fill="#173d7a"/>
      <path id="Trazado_183882" data-name="Trazado 183882" d="M528.344,216.332l-.211-.122-23.7-13.682,23.908-13.8.212.122,23.7,13.681Zm-22.216-13.8,22.216,12.826,22.216-12.826L528.343,189.7Z" transform="translate(-273.813 -135.462)" fill="#173d7a"/>
      <path id="Trazado_183883" data-name="Trazado 183883" d="M347.28,146.639l-23.909-13.8,23.908-13.8.211.123,23.7,13.681Zm-22.216-13.8,22.216,12.827,22.215-12.826-22.216-12.826Z" transform="translate(-231.122 -119.03)" fill="#173d7a"/>
      <path id="Trazado_183884" data-name="Trazado 183884" d="M377.458,164.062l-.212-.122-23.7-13.681,23.909-13.8.211.122,23.7,13.682Zm-22.217-13.8,22.217,12.826,22.215-12.826-22.216-12.826Z" transform="translate(-238.237 -123.138)" fill="#173d7a"/>
      <path id="Trazado_183885" data-name="Trazado 183885" d="M407.635,181.485l-.211-.122-23.7-13.681,23.908-13.8.212.122,23.7,13.682Zm-22.216-13.8,22.216,12.826,22.216-12.826-22.217-12.827Z" transform="translate(-245.353 -127.246)" fill="#173d7a"/>
      <path id="Trazado_183886" data-name="Trazado 183886" d="M437.813,198.908l-.211-.122L413.9,185.1l23.908-13.8.212.122,23.7,13.681ZM415.6,185.1l22.216,12.827L460.028,185.1l-22.216-12.826Z" transform="translate(-252.468 -131.354)" fill="#173d7a"/>
      <path id="Trazado_183887" data-name="Trazado 183887" d="M467.99,216.331l-23.908-13.8,23.908-13.8,23.908,13.8Zm-22.215-13.8,22.215,12.826,22.215-12.825L467.99,189.7Z" transform="translate(-259.583 -135.462)" fill="#173d7a"/>
      <path id="Trazado_183888" data-name="Trazado 183888" d="M498.167,233.755l-23.909-13.8,23.909-13.8.211.122,23.7,13.681Zm-22.217-13.8,22.217,12.827,22.215-12.826-22.216-12.826Z" transform="translate(-266.698 -139.57)" fill="#173d7a"/>
      <path id="Trazado_183889" data-name="Trazado 183889" d="M528.345,251.177l-.211-.122-23.7-13.681,23.908-13.8.212.123,23.7,13.681Zm-22.216-13.8L528.345,250.2l22.216-12.826-22.217-12.826Z" transform="translate(-273.813 -143.678)" fill="#173d7a"/>
      <path id="Trazado_183890" data-name="Trazado 183890" d="M286.925,146.638l-.211-.122-23.7-13.681,23.908-13.8.212.123,23.7,13.681Zm-22.216-13.8,22.216,12.826,22.216-12.826-22.217-12.826Z" transform="translate(-216.892 -119.03)" fill="#173d7a"/>
      <path id="Trazado_183891" data-name="Trazado 183891" d="M317.1,164.061l-.211-.122-23.7-13.681,23.908-13.8,23.909,13.8Zm-22.216-13.8L317.1,163.083l22.215-12.825L317.1,137.431Z" transform="translate(-224.007 -123.138)" fill="#173d7a"/>
      <path id="Trazado_183892" data-name="Trazado 183892" d="M347.281,181.484l-.211-.122-23.7-13.681,23.908-13.8.211.122,23.7,13.682Zm-22.216-13.8,22.216,12.826L369.5,167.681,347.28,154.854Z" transform="translate(-231.123 -127.246)" fill="#173d7a"/>
      <path id="Trazado_183893" data-name="Trazado 183893" d="M377.459,198.908l-23.91-13.8,23.909-13.8.211.122,23.7,13.681Zm-22.217-13.8,22.217,12.827L399.674,185.1l-22.216-12.826Z" transform="translate(-238.237 -131.354)" fill="#173d7a"/>
      <path id="Trazado_183894" data-name="Trazado 183894" d="M407.636,216.331l-.211-.122-23.7-13.682,23.908-13.8.212.122,23.7,13.681Zm-22.216-13.8,22.216,12.826,22.216-12.826L407.635,189.7Z" transform="translate(-245.353 -135.462)" fill="#173d7a"/>
      <path id="Trazado_183895" data-name="Trazado 183895" d="M437.813,233.754l-23.908-13.8,23.908-13.8,23.908,13.8Zm-22.215-13.8,22.215,12.826,22.215-12.826-22.215-12.826Z" transform="translate(-252.468 -139.57)" fill="#173d7a"/>
      <path id="Trazado_183896" data-name="Trazado 183896" d="M467.991,251.176l-.212-.122-23.7-13.681,23.908-13.8,23.909,13.8Zm-22.216-13.8L467.991,250.2l22.215-12.825L467.99,224.546Z" transform="translate(-259.583 -143.678)" fill="#173d7a"/>
      <path id="Trazado_183897" data-name="Trazado 183897" d="M498.169,268.6l-.212-.122-23.7-13.681,23.909-13.8.211.122,23.7,13.682Zm-22.217-13.8,22.217,12.826L520.384,254.8,498.168,241.97Z" transform="translate(-266.698 -147.786)" fill="#173d7a"/>
      <path id="Trazado_183898" data-name="Trazado 183898" d="M528.346,286.023l-23.909-13.8,23.908-13.8.212.122,23.7,13.682Zm-22.216-13.8,22.216,12.827,22.216-12.826-22.217-12.827Z" transform="translate(-273.813 -151.894)" fill="#173d7a"/>
      <path id="Trazado_183899" data-name="Trazado 183899" d="M226.571,146.637l-.211-.122-23.7-13.681,23.908-13.8.211.123,23.7,13.681Zm-22.216-13.8,22.216,12.826,22.215-12.825L226.57,120.008Z" transform="translate(-202.662 -119.03)" fill="#173d7a"/>
      <path id="Trazado_183900" data-name="Trazado 183900" d="M256.749,164.061l-23.909-13.8,23.908-13.8.211.122,23.7,13.682Zm-22.217-13.8,22.217,12.827,22.215-12.826-22.216-12.826Z" transform="translate(-209.777 -123.138)" fill="#173d7a"/>
      <path id="Trazado_183901" data-name="Trazado 183901" d="M286.926,181.484l-.211-.122-23.7-13.681,23.908-13.8.212.122,23.7,13.682Zm-22.216-13.8,22.216,12.826,22.216-12.826-22.217-12.827Z" transform="translate(-216.892 -127.246)" fill="#173d7a"/>
      <path id="Trazado_183902" data-name="Trazado 183902" d="M317.1,198.907l-.211-.122-23.7-13.682L317.1,171.3l.212.122,23.7,13.681Zm-22.216-13.8L317.1,197.929,339.319,185.1,317.1,172.276Z" transform="translate(-224.007 -131.354)" fill="#173d7a"/>
      <path id="Trazado_183903" data-name="Trazado 183903" d="M347.282,216.33l-.212-.122-23.7-13.682,23.908-13.8,23.909,13.8Zm-22.216-13.8,22.216,12.827L369.5,202.526,347.281,189.7Z" transform="translate(-231.123 -135.462)" fill="#173d7a"/>
      <path id="Trazado_183904" data-name="Trazado 183904" d="M377.46,233.753l-.212-.122-23.7-13.682,23.909-13.8.211.122,23.7,13.681Zm-22.217-13.8,22.217,12.826,22.215-12.825-22.216-12.826Z" transform="translate(-238.238 -139.57)" fill="#173d7a"/>
      <path id="Trazado_183905" data-name="Trazado 183905" d="M407.637,251.176l-23.909-13.8,23.908-13.8,23.909,13.8Zm-22.216-13.8L407.637,250.2l22.215-12.826-22.216-12.826Z" transform="translate(-245.353 -143.678)" fill="#173d7a"/>
      <path id="Trazado_183906" data-name="Trazado 183906" d="M437.814,268.6l-23.908-13.8,23.907-13.8.211.122,23.7,13.682ZM415.6,254.8l22.215,12.826L460.029,254.8l-22.216-12.826Z" transform="translate(-252.468 -147.786)" fill="#173d7a"/>
      <path id="Trazado_183907" data-name="Trazado 183907" d="M467.992,286.022l-.212-.122-23.7-13.681,23.908-13.8.211.122,23.7,13.682Zm-22.216-13.8,22.216,12.826,22.215-12.826-22.216-12.827Z" transform="translate(-259.583 -151.893)" fill="#173d7a"/>
      <path id="Trazado_183908" data-name="Trazado 183908" d="M498.17,303.445l-.212-.122-23.7-13.682,23.909-13.8,23.909,13.8Zm-22.217-13.8,22.217,12.827,22.215-12.826-22.216-12.827Z" transform="translate(-266.698 -156.001)" fill="#173d7a"/>
      <path id="Trazado_183909" data-name="Trazado 183909" d="M528.347,320.869l-23.909-13.8,23.908-13.8.212.122,23.7,13.681Zm-22.216-13.8,22.216,12.827,22.216-12.826-22.217-12.826Z" transform="translate(-273.813 -160.109)" fill="#173d7a"/>
      <path id="Trazado_183910" data-name="Trazado 183910" d="M226.572,181.483l-.211-.122-23.7-13.681,23.908-13.8,23.909,13.8Zm-22.216-13.8,22.216,12.826,22.215-12.825-22.216-12.827Z" transform="translate(-202.662 -127.246)" fill="#173d7a"/>
      <path id="Trazado_183911" data-name="Trazado 183911" d="M256.749,198.907,232.84,185.1l23.909-13.8.211.122,23.7,13.681Zm-22.217-13.8,22.217,12.827L278.965,185.1l-22.216-12.826Z" transform="translate(-209.777 -131.354)" fill="#173d7a"/>
      <path id="Trazado_183912" data-name="Trazado 183912" d="M286.927,216.33l-.211-.122-23.7-13.682,23.908-13.8.212.122,23.7,13.681Zm-22.216-13.8,22.216,12.827,22.216-12.827L286.926,189.7Z" transform="translate(-216.892 -135.462)" fill="#173d7a"/>
      <path id="Trazado_183913" data-name="Trazado 183913" d="M317.1,233.753l-.211-.122-23.7-13.682,23.908-13.8.211.122,23.7,13.681Zm-22.216-13.8L317.1,232.774l22.215-12.826L317.1,207.122Z" transform="translate(-224.008 -139.57)" fill="#173d7a"/>
      <path id="Trazado_183914" data-name="Trazado 183914" d="M347.283,251.176l-.212-.123-23.7-13.681,23.908-13.8.211.122,23.7,13.681Zm-22.216-13.8L347.283,250.2,369.5,237.371l-22.216-12.826Z" transform="translate(-231.123 -143.678)" fill="#173d7a"/>
      <path id="Trazado_183915" data-name="Trazado 183915" d="M377.461,268.6l-.212-.122-23.7-13.681,23.909-13.8,23.909,13.8Zm-22.217-13.8,22.217,12.826,22.215-12.825L377.46,241.968Z" transform="translate(-238.238 -147.785)" fill="#173d7a"/>
      <path id="Trazado_183916" data-name="Trazado 183916" d="M407.637,286.022l-23.908-13.8,23.908-13.8,23.909,13.8Zm-22.215-13.8,22.215,12.827,22.216-12.826-22.216-12.827Z" transform="translate(-245.353 -151.893)" fill="#173d7a"/>
      <path id="Trazado_183917" data-name="Trazado 183917" d="M437.815,303.445l-.211-.122-23.7-13.682,23.908-13.8.211.122,23.7,13.681ZM415.6,289.64l22.216,12.827L460.03,289.64l-22.216-12.826Z" transform="translate(-252.468 -156.001)" fill="#173d7a"/>
      <path id="Trazado_183918" data-name="Trazado 183918" d="M467.993,320.868l-.212-.122-23.7-13.682,23.908-13.8.211.122,23.7,13.681Zm-22.217-13.8,22.217,12.827,22.215-12.827-22.216-12.826Z" transform="translate(-259.583 -160.109)" fill="#173d7a"/>
      <path id="Trazado_183919" data-name="Trazado 183919" d="M498.17,338.291l-.212-.122-23.7-13.682,23.909-13.8,23.909,13.8Zm-22.217-13.8,22.217,12.826,22.215-12.825L498.17,311.66Z" transform="translate(-266.698 -164.217)" fill="#173d7a"/>
      <path id="Trazado_183920" data-name="Trazado 183920" d="M528.348,355.714l-.211-.123-23.7-13.681,23.908-13.8.212.123,23.7,13.681Zm-22.216-13.8,22.216,12.826,22.216-12.825-22.217-12.826Z" transform="translate(-273.814 -168.325)" fill="#173d7a"/>
      <path id="Trazado_183921" data-name="Trazado 183921" d="M226.573,216.329l-.211-.122-23.7-13.682,23.908-13.8,23.909,13.8Zm-22.216-13.8,22.216,12.827,22.215-12.826L226.572,189.7Z" transform="translate(-202.663 -135.461)" fill="#173d7a"/>
      <path id="Trazado_183922" data-name="Trazado 183922" d="M256.751,233.752l-.212-.122-23.7-13.682,23.909-13.8.211.122,23.7,13.681Zm-22.217-13.8,22.217,12.826,22.215-12.825L256.75,207.122Z" transform="translate(-209.778 -139.57)" fill="#173d7a"/>
      <path id="Trazado_183923" data-name="Trazado 183923" d="M286.928,251.176l-23.909-13.8,23.908-13.8.212.122,23.7,13.681Zm-22.216-13.8L286.928,250.2l22.216-12.826-22.217-12.826Z" transform="translate(-216.893 -143.678)" fill="#173d7a"/>
      <path id="Trazado_183924" data-name="Trazado 183924" d="M317.106,268.6l-.211-.122-23.7-13.681,23.908-13.8.211.122,23.7,13.682Zm-22.216-13.8,22.216,12.826,22.215-12.826-22.216-12.826Z" transform="translate(-224.008 -147.785)" fill="#173d7a"/>
      <path id="Trazado_183925" data-name="Trazado 183925" d="M347.284,286.021l-.212-.122-23.7-13.681,23.908-13.8.211.122,23.7,13.682Zm-22.216-13.8,22.216,12.826L369.5,272.217l-22.216-12.826Z" transform="translate(-231.123 -151.893)" fill="#173d7a"/>
      <path id="Trazado_183926" data-name="Trazado 183926" d="M377.461,303.444l-23.909-13.8,23.909-13.8,23.908,13.8Zm-22.216-13.8,22.216,12.826,22.215-12.826-22.215-12.827Z" transform="translate(-238.238 -156.001)" fill="#173d7a"/>
      <path id="Trazado_183927" data-name="Trazado 183927" d="M407.638,320.867l-.211-.122-23.7-13.682,23.908-13.8.212.122,23.7,13.681Zm-22.216-13.8,22.216,12.827,22.216-12.826-22.217-12.826Z" transform="translate(-245.353 -160.109)" fill="#173d7a"/>
      <path id="Trazado_183928" data-name="Trazado 183928" d="M437.816,338.291l-23.909-13.805,23.908-13.8.211.122,23.7,13.681ZM415.6,324.486l22.216,12.827,22.215-12.826L437.815,311.66Z" transform="translate(-252.469 -164.217)" fill="#173d7a"/>
      <path id="Trazado_183929" data-name="Trazado 183929" d="M467.994,355.714l-.212-.123-23.7-13.681,23.908-13.8.211.122,23.7,13.681Zm-22.217-13.8,22.217,12.826,22.215-12.826-22.216-12.826Z" transform="translate(-259.584 -168.325)" fill="#173d7a"/>
      <path id="Trazado_183930" data-name="Trazado 183930" d="M226.574,251.175l-.212-.123-23.7-13.681,23.908-13.8.211.122,23.7,13.681Zm-22.216-13.8L226.574,250.2l22.215-12.826-22.216-12.826Z" transform="translate(-202.663 -143.677)" fill="#173d7a"/>
      <path id="Trazado_183931" data-name="Trazado 183931" d="M256.752,268.6l-.212-.122-23.7-13.681,23.909-13.8,23.909,13.8Zm-22.217-13.8,22.217,12.826,22.215-12.825-22.216-12.827Z" transform="translate(-209.778 -147.785)" fill="#173d7a"/>
      <path id="Trazado_183932" data-name="Trazado 183932" d="M286.929,286.021l-23.909-13.8,23.908-13.8.212.122,23.7,13.682Zm-22.216-13.8,22.216,12.827,22.216-12.826-22.217-12.826Z" transform="translate(-216.893 -151.893)" fill="#173d7a"/>
      <path id="Trazado_183933" data-name="Trazado 183933" d="M317.107,303.444l-.211-.122L293.2,289.64l23.908-13.8.211.122,23.7,13.682Zm-22.216-13.8,22.216,12.826,22.215-12.826-22.216-12.827Z" transform="translate(-224.008 -156.001)" fill="#173d7a"/>
      <path id="Trazado_183934" data-name="Trazado 183934" d="M347.285,320.867l-.212-.122-23.7-13.682,23.908-13.8,23.908,13.8Zm-22.217-13.8,22.217,12.827L369.5,307.062l-22.215-12.826Z" transform="translate(-231.123 -160.109)" fill="#173d7a"/>
      <path id="Trazado_183935" data-name="Trazado 183935" d="M377.462,338.29l-23.909-13.8,23.908-13.8.211.122,23.7,13.681Zm-22.216-13.8,22.216,12.826,22.215-12.826-22.216-12.826Z" transform="translate(-238.238 -164.217)" fill="#173d7a"/>
      <path id="Trazado_183936" data-name="Trazado 183936" d="M407.639,355.713l-.211-.123-23.7-13.681,23.908-13.8,23.909,13.8Zm-22.216-13.8,22.216,12.826,22.216-12.825-22.217-12.827Z" transform="translate(-245.353 -168.325)" fill="#173d7a"/>
      <path id="Trazado_183937" data-name="Trazado 183937" d="M226.575,286.02l-.212-.122-23.7-13.681,23.908-13.8.211.122,23.7,13.682Zm-22.216-13.8,22.216,12.826,22.215-12.826L226.574,259.39Z" transform="translate(-202.663 -151.893)" fill="#173d7a"/>
      <path id="Trazado_183938" data-name="Trazado 183938" d="M256.753,303.443l-.212-.122-23.7-13.681,23.909-13.8,23.909,13.8Zm-22.217-13.8,22.217,12.826,22.215-12.825-22.216-12.827Z" transform="translate(-209.778 -156.001)" fill="#173d7a"/>
      <path id="Trazado_183939" data-name="Trazado 183939" d="M286.93,320.866l-.211-.122-23.7-13.682,23.908-13.8.212.122,23.7,13.681Zm-22.216-13.8,22.216,12.827,22.216-12.826-22.217-12.826Z" transform="translate(-216.893 -160.109)" fill="#173d7a"/>
      <path id="Trazado_183940" data-name="Trazado 183940" d="M317.108,338.29l-23.909-13.8,23.908-13.8.211.122,23.7,13.681Zm-22.216-13.8,22.216,12.827,22.215-12.826-22.216-12.826Z" transform="translate(-224.008 -164.217)" fill="#173d7a"/>
      <path id="Trazado_183941" data-name="Trazado 183941" d="M347.285,355.713l-23.908-13.8,23.908-13.8,23.908,13.8Zm-22.216-13.8,22.216,12.826L369.5,341.908l-22.215-12.826Z" transform="translate(-231.124 -168.325)" fill="#173d7a"/>
      <path id="Trazado_183942" data-name="Trazado 183942" d="M226.576,320.866l-.212-.122-23.7-13.682,23.908-13.8.211.122,23.7,13.681Zm-22.217-13.8,22.217,12.827,22.215-12.827-22.216-12.826Z" transform="translate(-202.663 -160.109)" fill="#173d7a"/>
      <path id="Trazado_183943" data-name="Trazado 183943" d="M256.754,338.289l-.212-.122-23.7-13.682,23.909-13.8.211.122,23.7,13.681Zm-22.217-13.8,22.217,12.826,22.215-12.826-22.216-12.826Z" transform="translate(-209.778 -164.217)" fill="#173d7a"/>
      <path id="Trazado_183944" data-name="Trazado 183944" d="M286.931,355.712l-.211-.123-23.7-13.681,23.908-13.8,23.909,13.8Zm-22.216-13.8,22.216,12.826,22.216-12.825L286.93,329.081Z" transform="translate(-216.893 -168.325)" fill="#173d7a"/>
      <path id="Trazado_183945" data-name="Trazado 183945" d="M226.577,355.712l-.212-.123-23.7-13.681,23.908-13.8.211.122,23.7,13.681Zm-22.217-13.8,22.217,12.826,22.215-12.826-22.216-12.826Z" transform="translate(-202.663 -168.325)" fill="#173d7a"/>
    </g>
    <g id="Grupo_152007" data-name="Grupo 152007" transform="translate(166.989 960.203)">
      <path id="Trazado_194445" data-name="Trazado 194445" d="M501.673,69.206a8.3,8.3,0,0,0-1.331.975c-.184-5.99-4.51-8.372-9.835-5.3-4.336,2.5-8.009,7.863-9.326,13.117a5.874,5.874,0,0,0-3.678.914,15.532,15.532,0,0,0-7.028,12.172c0,4.481,3.146,6.3,7.028,4.057l24.17-13.955a11.469,11.469,0,0,0,5.189-8.987C506.862,68.893,504.539,67.552,501.673,69.206Z" transform="translate(-230.588 -28)" fill="#fff"/>
      <g id="Grupo_152006-2" data-name="Grupo 152006" transform="translate(122.547 283.171)">
        <path id="Trazado_194446" data-name="Trazado 194446" d="M339.313,366.386a5.038,5.038,0,0,1-2.279,3.948c-1.258.726-2.279.137-2.279-1.316a5.038,5.038,0,0,1,2.279-3.947C338.293,364.344,339.313,364.933,339.313,366.386Z" transform="translate(-334.755 -351.965)" fill="#fff"/>
        <path id="Trazado_194447" data-name="Trazado 194447" d="M347.857,361.453a5.038,5.038,0,0,1-2.279,3.948c-1.258.726-2.279.137-2.279-1.316a5.038,5.038,0,0,1,2.279-3.947C346.837,359.411,347.857,360,347.857,361.453Z" transform="translate(-335.912 -351.297)" fill="#fff"/>
        <path id="Trazado_194448" data-name="Trazado 194448" d="M356.4,356.521a5.035,5.035,0,0,1-2.279,3.947c-1.258.727-2.279.137-2.279-1.316a5.038,5.038,0,0,1,2.279-3.947C355.381,354.478,356.4,355.068,356.4,356.521Z" transform="translate(-337.069 -350.629)" fill="#fff"/>
        <path id="Trazado_194449" data-name="Trazado 194449" d="M364.945,351.588a5.035,5.035,0,0,1-2.279,3.947c-1.258.727-2.279.137-2.279-1.316a5.038,5.038,0,0,1,2.279-3.947C363.925,349.545,364.945,350.135,364.945,351.588Z" transform="translate(-338.226 -349.961)" fill="#fff"/>
      </g>
      <path id="Trazado_194450" data-name="Trazado 194450" d="M261.6,180.282a8.732,8.732,0,0,0-2.226,1.913c-.1-4.389-3.254-6.143-7.133-3.9a13,13,0,0,0-3.429,2.991c-1.727-3.018-5.3-3.719-9.449-1.325-5.83,3.366-10.556,11.551-10.556,18.283a12.614,12.614,0,0,0,.106,1.574,3.978,3.978,0,0,0-2.956.6,11.161,11.161,0,0,0-5.051,8.748c0,3.221,2.261,4.526,5.051,2.916L261.6,191.5a10.733,10.733,0,0,0,4.856-8.41C266.454,179.989,264.279,178.734,261.6,180.282Z" transform="translate(-196.789 -43.408)" fill="#fff"/>
      <path id="Trazado_194451" data-name="Trazado 194451" d="M236.1,320.49a9.26,9.26,0,0,0-2.358,2.026c-.11-4.648-3.445-6.505-7.553-4.134a13.732,13.732,0,0,0-3.629,3.168c-1.829-3.2-5.616-3.938-10.007-1.4-6.173,3.565-11.177,12.232-11.177,19.359a13.2,13.2,0,0,0,.112,1.666,4.216,4.216,0,0,0-3.131.632,11.82,11.82,0,0,0-5.347,9.263c0,3.411,2.394,4.792,5.347,3.087L236.1,332.363a11.361,11.361,0,0,0,5.142-8.905C241.242,320.18,238.94,318.851,236.1,320.49Z" transform="translate(-193.011 -62.373)" fill="#fff" opacity="0.4"/>
      <g id="Grupo_152022" data-name="Grupo 152022" transform="translate(126.163 0)">
        <g id="Grupo_152010" data-name="Grupo 152010" transform="translate(26.24 51.823)">
          <path id="Trazado_194452" data-name="Trazado 194452" d="M374.341,135.8a.555.555,0,0,1-.555-.555V103.666a.555.555,0,0,1,1.11,0v31.578A.556.556,0,0,1,374.341,135.8Z" transform="translate(-369.896 -85.181)" fill="#396caa"/>
          <g id="Grupo_152009" data-name="Grupo 152009" transform="translate(0 0)">
            <g id="Grupo_152007-2" data-name="Grupo 152007" transform="translate(1.702 16.499)">
              <rect id="Rectángulo_45144" data-name="Rectángulo 45144" width="5.486" height="11.838" fill="#5793ce"/>
              <path id="Trazado_194453" data-name="Trazado 194453" d="M375.938,116.021a4.284,4.284,0,0,1-3.879,0,1.182,1.182,0,0,1,0-2.239,4.288,4.288,0,0,1,3.878,0A1.182,1.182,0,0,1,375.938,116.021Z" transform="translate(-371.255 -103.063)" fill="#5793ce"/>
            </g>
            <g id="Grupo_152008" data-name="Grupo 152008">
              <rect id="Rectángulo_45145" data-name="Rectángulo 45145" width="8.89" height="18.567" fill="#5793ce"/>
              <path id="Trazado_194454" data-name="Trazado 194454" d="M371.255,103.623v4.006a7.1,7.1,0,0,0,5.487,0v-4.006A7.1,7.1,0,0,0,371.255,103.623Z" transform="translate(-369.554 -85.176)" fill="#396caa"/>
              <path id="Trazado_194455" data-name="Trazado 194455" d="M376.874,105.261a6.941,6.941,0,0,1-6.285,0c-1.736-1-1.736-2.627,0-3.629a6.944,6.944,0,0,1,6.285,0C378.611,102.634,378.611,104.259,376.874,105.261Z" transform="translate(-369.287 -84.879)" fill="#5793ce"/>
            </g>
          </g>
        </g>
        <g id="Grupo_152014" data-name="Grupo 152014" transform="translate(57.034 69.15)">
          <path id="Trazado_194456" data-name="Trazado 194456" d="M409.959,155.84a.556.556,0,0,1-.555-.555V123.708a.555.555,0,0,1,1.11,0v31.577A.555.555,0,0,1,409.959,155.84Z" transform="translate(-405.514 -105.223)" fill="#396caa"/>
          <g id="Grupo_152013" data-name="Grupo 152013">
            <g id="Grupo_152011" data-name="Grupo 152011" transform="translate(1.702 16.499)">
              <rect id="Rectángulo_45146" data-name="Rectángulo 45146" width="5.486" height="11.838" fill="#5793ce"/>
              <path id="Trazado_194457" data-name="Trazado 194457" d="M411.556,136.062a4.289,4.289,0,0,1-3.879,0,1.182,1.182,0,0,1,0-2.24,4.287,4.287,0,0,1,3.878,0A1.182,1.182,0,0,1,411.556,136.062Z" transform="translate(-406.874 -123.104)" fill="#5793ce"/>
            </g>
            <g id="Grupo_152012" data-name="Grupo 152012">
              <rect id="Rectángulo_45147" data-name="Rectángulo 45147" width="8.89" height="18.567" fill="#5793ce"/>
              <path id="Trazado_194458" data-name="Trazado 194458" d="M406.874,123.664v4.006a7.093,7.093,0,0,0,5.486,0v-4.006A7.1,7.1,0,0,0,406.874,123.664Z" transform="translate(-405.172 -105.217)" fill="#396caa"/>
              <path id="Trazado_194459" data-name="Trazado 194459" d="M412.492,125.3a6.947,6.947,0,0,1-6.285,0c-1.736-1-1.736-2.627,0-3.629a6.947,6.947,0,0,1,6.285,0C414.228,122.675,414.228,124.3,412.492,125.3Z" transform="translate(-404.905 -104.921)" fill="#5793ce"/>
            </g>
          </g>
        </g>
        <g id="Grupo_152021" data-name="Grupo 152021">
          <g id="Grupo_152017" data-name="Grupo 152017">
            <path id="Trazado_194460" data-name="Trazado 194460" d="M444.29,134.729l11.919-7.02-11.352-14.168-2.984,4.876Z" transform="translate(-352.878 -34.771)" fill="#5793ce"/>
            <path id="Trazado_194461" data-name="Trazado 194461" d="M344.564,46.4l19.024-10.945s-.716,10.922-.716,10.945-10.928,3.385-10.928,3.385Z" transform="translate(-339.699 -24.195)" fill="#5793ce"/>
            <path id="Trazado_194462" data-name="Trazado 194462" d="M436.638,86.764a12,12,0,0,0-4.115-1.526c-1.918-10.08-8.932-20.784-17.3-25.613a16.924,16.924,0,0,0-7.077-2.395c-1.141-12.218-9.636-26.1-19.953-32.059-5.389-3.111-10.278-3.479-13.886-1.574v-.01l-.176.1c-.092.051-.183.1-.273.158l-11.218,6.625,3.727,2.944c-3.346,1.462-5.461,5.214-5.461,10.761,0,10.23,7.181,22.668,16.04,27.783l59.686,42.62c6.653,3.84,12.045.727,12.045-6.954S443.291,90.6,436.638,86.764Z" transform="translate(-341.913 -22.432)" fill="#5793ce"/>
            <path id="Trazado_194463" data-name="Trazado 194463" d="M361.553,39.673,387.3,24.631c-5-2.607-9.515-2.822-12.9-1.033v-.01l-.176.1c-.092.051-.183.1-.273.158l-11.218,6.625,3.727,2.944A8.992,8.992,0,0,0,361.553,39.673Z" transform="translate(-342 -22.432)" fill="#5793ce"/>
            <path id="Trazado_194464" data-name="Trazado 194464" d="M413.476,89.6l18.785-11.024C429.039,73,424.6,68.132,419.691,65.3q-.975-.563-1.924-.99L393.874,78.279Z" transform="translate(-346.377 -28.103)" fill="#5793ce"/>
            <path id="Trazado_194465" data-name="Trazado 194465" d="M369.039,31.778l8.372,4.833,15.331-9.03a30.53,30.53,0,0,0-3.444-2.334A21.51,21.51,0,0,0,383.94,23Z" transform="translate(-343.014 -22.509)" fill="#d4ecff"/>
            <path id="Trazado_194466" data-name="Trazado 194466" d="M433.529,77.056l-14.992,8.835,5.214,5.816,13.611-8.037A43.684,43.684,0,0,0,433.529,77.056Z" transform="translate(-349.717 -29.83)" fill="#d4ecff"/>
            <path id="Trazado_194467" data-name="Trazado 194467" d="M421.885,94.787a11.989,11.989,0,0,0-4.115-1.526c-1.918-10.08-8.932-20.784-17.295-25.613a16.931,16.931,0,0,0-7.077-2.395c-1.142-12.218-9.637-26.1-19.953-32.059-11.094-6.4-20.087-1.213-20.087,11.6,0,.435.012.872.032,1.313-8.112-3.763-14.451.477-14.451,10.087,0,10.229,7.182,22.667,16.04,27.782L421.885,122.6c6.653,3.84,12.045.727,12.045-6.954S428.537,98.627,421.885,94.787Z" transform="translate(-338.937 -23.518)" fill="#d4ecff"/>
            <g id="Grupo_152015" data-name="Grupo 152015" transform="translate(3.669 5.979)">
              <path id="Trazado_194468" data-name="Trazado 194468" d="M353.963,48.2c-.02-.441-.032-.879-.032-1.313,0-.019,0-.036,0-.054-4.482-1.743-8.334-.984-10.751,1.812C345.807,46.48,349.625,46.185,353.963,48.2Z" transform="translate(-343.181 -31.589)" fill="#fff"/>
              <path id="Trazado_194469" data-name="Trazado 194469" d="M425.819,93.682a11.986,11.986,0,0,0-4.115-1.525c-1.918-10.08-8.932-20.784-17.3-25.613a16.926,16.926,0,0,0-7.077-2.4c-1.141-12.217-9.636-26.1-19.953-32.058-6.911-3.991-13.007-3.478-16.621.572,3.682-3.147,9.319-3.268,15.642.382C386.715,39,395.21,52.886,396.351,65.1A16.931,16.931,0,0,1,403.43,67.5c8.363,4.829,15.377,15.533,17.295,25.613a11.989,11.989,0,0,1,4.115,1.526c6.653,3.84,12.045,13.18,12.045,20.862a9.921,9.921,0,0,1-1.92,6.407c1.8-1.389,2.9-3.91,2.9-7.362C437.864,106.863,432.472,97.523,425.819,93.682Z" transform="translate(-345.561 -29.347)" fill="#fff"/>
            </g>
            <g id="Grupo_152016" data-name="Grupo 152016" transform="translate(3.363 10.288)">
              <path id="Trazado_194470" data-name="Trazado 194470" d="M352.5,49.681l5.029,2.332-.255-5.538c-.018-.389-.029-.776-.029-1.159,0-4.944,1.492-8.527,4.2-10.092s6.561-1.064,10.842,1.407c9.208,5.316,17.24,18.256,18.286,29.459l.264,2.823,2.826.218a13.6,13.6,0,0,1,5.654,1.954c7.313,4.223,13.9,14.034,15.673,23.33l.443,2.327,2.34.367a8.709,8.709,0,0,1,2.956,1.116c5.617,3.244,10.364,11.463,10.364,17.949,0,2.428-.673,4.209-1.847,4.887s-3.052.37-5.155-.844L357.186,81.588c-7.783-4.493-14.359-15.883-14.359-24.87,0-3.527,1.04-6.214,2.853-7.372a4.886,4.886,0,0,1,2.667-.713A10.048,10.048,0,0,1,352.5,49.681Z" transform="translate(-342.827 -34.331)" fill="url(#radial-gradient)"/>
            </g>
          </g>
          <g id="Grupo_152020" data-name="Grupo 152020" transform="translate(31.837 42.799)">
            <path id="Trazado_194471" data-name="Trazado 194471" d="M392.64,100.243l1.765-.886-1.737-1.316Z" transform="translate(-378.047 -75.471)" fill="#5793ce"/>
            <path id="Trazado_194472" data-name="Trazado 194472" d="M386.508,72.875l1.713-.866.031.9Z" transform="translate(-377.217 -71.945)" fill="#5793ce"/>
            <path id="Trazado_194473" data-name="Trazado 194473" d="M398.2,93.488l1.788-.9-3.442-3.273Z" transform="translate(-378.577 -74.289)" fill="#5793ce"/>
            <g id="Grupo_152018" data-name="Grupo 152018" transform="translate(1.792)">
              <path id="Trazado_194474" data-name="Trazado 194474" d="M392.655,96.991,384.3,92.069a1.784,1.784,0,0,1-.765-1.4l.028-9.675,9.892,5.826-.028,9.674C393.424,97.017,393.079,97.24,392.655,96.991Z" transform="translate(-378.606 -73.161)" fill="#5793ce"/>
              <path id="Trazado_194475" data-name="Trazado 194475" d="M387.029,72.009,378,77.817c-.383.246-.073,1.165.508,1.508l9.217,5.429,9.217,5.429c.582.342.9-.209.515-.905l-8.962-16.4C388.112,72.167,387.419,71.759,387.029,72.009Z" transform="translate(-377.834 -71.935)" fill="#5793ce"/>
            </g>
            <g id="Grupo_152019" data-name="Grupo 152019" transform="translate(0 0.902)">
              <path id="Trazado_194476" data-name="Trazado 194476" d="M390.582,98.035l-8.356-4.922a1.778,1.778,0,0,1-.765-1.4l.027-9.674,9.892,5.825-.028,9.675C391.352,98.061,391.006,98.284,390.582,98.035Z" transform="translate(-376.533 -74.205)" fill="#d4ecff"/>
              <path id="Trazado_194477" data-name="Trazado 194477" d="M384.956,73.052l-9.025,5.808c-.383.246-.073,1.165.508,1.507l9.217,5.429,9.218,5.429c.582.342.895-.209.514-.905l-8.962-16.4C386.04,73.211,385.346,72.8,384.956,73.052Z" transform="translate(-375.761 -72.978)" fill="#d4ecff"/>
            </g>
          </g>
        </g>
        <path id="Trazado_194478" data-name="Trazado 194478" d="M373.187,112.526c0,.544-.382.765-.854.493a1.888,1.888,0,0,1-.853-1.479c0-.545.382-.765.853-.493A1.887,1.887,0,0,1,373.187,112.526Z" transform="translate(-343.344 -34.418)" fill="#d4ecff"/>
        <path id="Trazado_194479" data-name="Trazado 194479" d="M408.888,132.859c0,.545-.382.765-.854.493a1.888,1.888,0,0,1-.853-1.479c0-.545.382-.765.853-.493A1.887,1.887,0,0,1,408.888,132.859Z" transform="translate(-348.179 -37.171)" fill="#d4ecff"/>
      </g>
      <g id="Grupo_152027" data-name="Grupo 152027" transform="translate(14.944 66.603)">
        <path id="Trazado_194480" data-name="Trazado 194480" d="M309.449,334.31l-96.018-55.436c-2.716-1.568-2.376-4.307.761-6.119l65.381-37.735c3.136-1.81,7.88-2.008,10.6-.439l96.017,55.436c2.716,1.568,2.376,4.307-.761,6.119l-65.38,37.735C316.909,335.681,312.165,335.878,309.449,334.31Z" transform="translate(-210.472 -117.624)" fill="#7dc3ea"/>
        <path id="Trazado_194481" data-name="Trazado 194481" d="M313.887,324.056a10.516,10.516,0,0,1-5.177-1.214l-96.017-55.436a4.233,4.233,0,0,1-2.4-3.632c0-1.66,1.151-3.277,3.157-4.435L278.834,221.6c3.5-2.02,8.649-2.214,11.722-.439L386.574,276.6a4.235,4.235,0,0,1,2.4,3.631c0,1.66-1.15,3.277-3.156,4.435L320.432,322.4A13.4,13.4,0,0,1,313.887,324.056ZM285.405,222.209a11.255,11.255,0,0,0-5.447,1.344l-65.381,37.735c-1.272.735-2.031,1.664-2.031,2.487a2.157,2.157,0,0,0,1.27,1.683l96.018,55.436c2.362,1.364,6.7,1.163,9.472-.439l65.381-37.736c1.273-.734,2.032-1.663,2.032-2.487a2.158,2.158,0,0,0-1.271-1.682l-96.018-55.436A8.247,8.247,0,0,0,285.405,222.209Z" transform="translate(-210.296 -115.786)" fill="#fff"/>
        <g id="Grupo_152026" data-name="Grupo 152026" transform="translate(1.125)">
          <path id="Trazado_194482" data-name="Trazado 194482" d="M422.747,155.5l-96.018-55.436a3.874,3.874,0,0,0-3.253-.4l.006-.01-.175.066-.042.016-3.47,1.328,3.114,1.524c-.014.058-.031.112-.044.169L305.9,179.912c-.782,3.563.785,7.722,3.5,9.291l93.708,54.1-.334,3.971,3.792-1.47a5.329,5.329,0,0,0,2.716-3.863l16.965-77.154C427.03,161.226,425.462,157.066,422.747,155.5Z" transform="translate(-224.341 -99.469)" fill="#173d7a"/>
          <path id="Trazado_194483" data-name="Trazado 194483" d="M423.613,155.5,327.6,100.062a3.874,3.874,0,0,0-3.253-.4l.006-.01-.175.066-.042.016-3.47,1.328,3.114,1.524c-.014.058-.031.112-.044.169L312.1,155.64l46.98,36.6,67.57-32.918A7.457,7.457,0,0,0,423.613,155.5Z" transform="translate(-225.208 -99.469)" fill="#396caa"/>
          <path id="Trazado_194484" data-name="Trazado 194484" d="M435.763,175.3l7.309-3.112a9.157,9.157,0,0,0-2.961-7.319l-11.57,4.868Z" transform="translate(-240.978 -108.325)" fill="#274f89"/>
          <path id="Trazado_194485" data-name="Trazado 194485" d="M398.5,247.108l-96.018-55.436c-2.717-1.568-4.284-5.728-3.5-9.291l16.965-77.154c.782-3.563,3.619-5.18,6.336-3.611L418.3,157.051c2.717,1.568,4.284,5.728,3.5,9.291L404.836,243.5C404.053,247.06,401.217,248.677,398.5,247.108Z" transform="translate(-223.404 -99.678)" fill="url(#radial-gradient-2)"/>
          <path id="Trazado_194486" data-name="Trazado 194486" d="M422.457,156.663l-96.018-55.435a3.793,3.793,0,0,0-3.781-.164,3.946,3.946,0,0,1,2.859.5L421.534,157c2.716,1.568,4.284,5.729,3.5,9.291L408.07,243.445a5.406,5.406,0,0,1-2.555,3.776c1.621-.354,2.974-1.824,3.477-4.113l16.965-77.154C426.74,162.39,425.173,158.231,422.457,156.663Z" transform="translate(-226.638 -99.627)" fill="#fff"/>
          <path id="Trazado_194487" data-name="Trazado 194487" d="M397.038,242.631l-90.3-52.111c-2.486-1.435-3.92-5.241-3.2-8.5l15.637-71.109c.717-3.26,3.312-4.74,5.8-3.305l90.3,52.111c2.486,1.435,3.92,5.241,3.2,8.5l-15.637,71.109C402.119,242.586,399.523,244.066,397.038,242.631Z" transform="translate(-224.023 -100.496)" fill="#fff"/>
          <path id="Trazado_194488" data-name="Trazado 194488" d="M397.038,242.631l-90.3-52.111c-2.486-1.435-3.92-5.241-3.2-8.5l15.637-71.109c.717-3.26,3.312-4.74,5.8-3.305l90.3,52.111c2.486,1.435,3.92,5.241,3.2,8.5l-15.637,71.109C402.119,242.586,399.523,244.066,397.038,242.631Z" transform="translate(-224.023 -100.496)" fill="url(#radial-gradient-3)"/>
          <path id="Trazado_194489" data-name="Trazado 194489" d="M397.825,242.326l-90.3-52.111c-2.486-1.434-3.92-5.241-3.2-8.5l15.638-71.11a5,5,0,0,1,2.275-3.429,4.6,4.6,0,0,0-3.062,3.75l-15.637,71.108c-.716,3.261.718,7.067,3.2,8.5l90.3,52.111a3.472,3.472,0,0,0,3.522.124A3.6,3.6,0,0,1,397.825,242.326Z" transform="translate(-224.023 -100.512)" fill="#5793ce"/>
          <path id="Trazado_194490" data-name="Trazado 194490" d="M388.02,264.685l-13.125-1.733L290.17,214.037c-2.716-1.568-7.461-1.372-10.6.439l-60.036,34.649-7.937-1.048v4.5l.008,0a3.092,3.092,0,0,0,1.823,2.781L309.449,310.8c2.716,1.567,7.46,1.371,10.6-.439l65.381-37.736c1.765-1.018,2.645-2.331,2.593-3.563h0Z" transform="translate(-211.597 -114.841)" fill="#173d7a"/>
          <path id="Trazado_194491" data-name="Trazado 194491" d="M324.361,236.491l-6.019-3.476H252.163l-32.625,18.823-7.937-1.048v4.5l.008,0a3.092,3.092,0,0,0,1.823,2.781l96.018,55.436a9.936,9.936,0,0,0,5.468,1.025Z" transform="translate(-211.597 -117.555)" fill="#396caa"/>
          <path id="Trazado_194492" data-name="Trazado 194492" d="M215.123,254.04l-3.522-.465v4.5l.008,0a3.092,3.092,0,0,0,1.823,2.781l1.692.977Z" transform="translate(-211.597 -120.339)" fill="#5793ce"/>
          <path id="Trazado_194493" data-name="Trazado 194493" d="M325.895,324.98a12.3,12.3,0,0,0,9-.558V314.377h-9Z" transform="translate(-227.076 -128.574)" fill="#274f89"/>
          <path id="Trazado_194494" data-name="Trazado 194494" d="M309.449,305.131,213.431,249.7c-2.716-1.568-2.376-4.308.761-6.119l65.381-37.735c3.136-1.811,7.88-2.008,10.6-.439l96.017,55.435c2.716,1.568,2.376,4.308-.761,6.119l-65.38,37.735C316.909,306.5,312.165,306.7,309.449,305.131Z" transform="translate(-211.597 -113.672)" fill="url(#radial-gradient-4)"/>
          <path id="Trazado_194495" data-name="Trazado 194495" d="M385.427,271.87,320.047,309.6c-3.137,1.81-7.881,2.008-10.6.439l-96.018-55.436a3.571,3.571,0,0,1-1.689-1.847c-.425,1.285.117,2.584,1.689,3.492l96.018,55.435c2.716,1.568,7.46,1.372,10.6-.439l65.38-37.735c2.109-1.217,2.947-2.853,2.45-4.271A5.11,5.11,0,0,1,385.427,271.87Z" transform="translate(-211.598 -120.229)" fill="#fff"/>
          <g id="Grupo_152023" data-name="Grupo 152023" transform="translate(38.092 94.086)">
            <path id="Trazado_194496" data-name="Trazado 194496" d="M260.236,234.562l-4.344-2.508c-.349-.2-.305-.553.1-.786l5.128-2.96a1.512,1.512,0,0,1,1.361-.056l4.344,2.508c.348.2.305.553-.1.786l-5.128,2.96A1.512,1.512,0,0,1,260.236,234.562Z" transform="translate(-255.655 -210.977)" fill="#5793ce"/>
            <path id="Trazado_194497" data-name="Trazado 194497" d="M268,239.042l-4.345-2.508c-.349-.2-.305-.553.1-.786l5.128-2.96a1.512,1.512,0,0,1,1.361-.056l4.344,2.508c.348.2.305.553-.1.786l-5.128,2.96A1.512,1.512,0,0,1,268,239.042Z" transform="translate(-256.706 -211.584)" fill="#5793ce"/>
            <path id="Trazado_194498" data-name="Trazado 194498" d="M275.755,243.523l-4.344-2.508c-.349-.2-.305-.553.1-.786l5.128-2.961a1.512,1.512,0,0,1,1.361-.056l4.344,2.508c.348.2.305.553-.1.786l-5.128,2.96A1.513,1.513,0,0,1,275.755,243.523Z" transform="translate(-257.757 -212.191)" fill="#5793ce"/>
            <path id="Trazado_194499" data-name="Trazado 194499" d="M286.488,239.9l-4.344-2.508c-.348-.2-.3-.553.1-.786l4.3-2.486a1.512,1.512,0,0,1,1.361-.056l4.344,2.508c.349.2.305.553-.1.786l-4.3,2.485A1.512,1.512,0,0,1,286.488,239.9Z" transform="translate(-259.211 -211.764)" fill="#5793ce"/>
            <path id="Trazado_194500" data-name="Trazado 194500" d="M294.248,244.378l-4.344-2.508c-.348-.2-.3-.553.1-.786l4.3-2.486a1.512,1.512,0,0,1,1.361-.056l4.345,2.508c.349.2.305.553-.1.786l-4.3,2.486A1.512,1.512,0,0,1,294.248,244.378Z" transform="translate(-260.262 -212.371)" fill="#5793ce"/>
            <path id="Trazado_194501" data-name="Trazado 194501" d="M302.008,248.858l-4.344-2.508c-.348-.2-.3-.553.1-.786l4.3-2.485a1.515,1.515,0,0,1,1.361-.057l4.344,2.509c.349.2.305.552-.1.785l-4.3,2.486A1.514,1.514,0,0,1,302.008,248.858Z" transform="translate(-261.313 -212.978)" fill="#5793ce"/>
            <path id="Trazado_194502" data-name="Trazado 194502" d="M309.768,253.338l-4.344-2.508c-.349-.2-.305-.552.1-.785l4.3-2.486a1.511,1.511,0,0,1,1.36-.056l4.344,2.508c.349.2.305.553-.1.786l-4.3,2.485A1.514,1.514,0,0,1,309.768,253.338Z" transform="translate(-262.364 -213.584)" fill="#5793ce"/>
            <path id="Trazado_194503" data-name="Trazado 194503" d="M317.528,257.819l-4.344-2.508c-.349-.2-.305-.553.1-.786l4.3-2.486a1.514,1.514,0,0,1,1.362-.056l4.344,2.508c.349.2.305.553-.1.786l-4.3,2.486A1.515,1.515,0,0,1,317.528,257.819Z" transform="translate(-263.415 -214.191)" fill="#5793ce"/>
            <path id="Trazado_194504" data-name="Trazado 194504" d="M325.289,262.3l-4.345-2.508c-.349-.2-.305-.553.1-.786l4.3-2.485a1.512,1.512,0,0,1,1.361-.057l4.344,2.508c.348.2.305.553-.1.786l-4.3,2.486A1.512,1.512,0,0,1,325.289,262.3Z" transform="translate(-264.466 -214.798)" fill="#5793ce"/>
            <path id="Trazado_194505" data-name="Trazado 194505" d="M333.049,266.779l-4.344-2.508c-.349-.2-.305-.553.1-.786l4.3-2.485a1.512,1.512,0,0,1,1.361-.056l4.344,2.508c.348.2.305.553-.1.785l-4.3,2.486A1.512,1.512,0,0,1,333.049,266.779Z" transform="translate(-265.516 -215.405)" fill="#5793ce"/>
            <path id="Trazado_194506" data-name="Trazado 194506" d="M340.809,271.26l-4.345-2.509c-.349-.2-.305-.553.1-.785l4.3-2.486a1.512,1.512,0,0,1,1.361-.056l4.344,2.508c.348.2.305.553-.1.786l-4.3,2.485A1.515,1.515,0,0,1,340.809,271.26Z" transform="translate(-266.567 -216.012)" fill="#5793ce"/>
            <path id="Trazado_194507" data-name="Trazado 194507" d="M348.569,275.74l-4.344-2.508c-.349-.2-.305-.553.1-.786l4.3-2.486a1.512,1.512,0,0,1,1.361-.056l4.344,2.508c.348.2.305.553-.1.786l-4.3,2.486A1.512,1.512,0,0,1,348.569,275.74Z" transform="translate(-267.618 -216.618)" fill="#5793ce"/>
            <path id="Trazado_194508" data-name="Trazado 194508" d="M356.328,280.22l-4.344-2.508c-.349-.2-.305-.553.1-.786l4.3-2.485a1.512,1.512,0,0,1,1.361-.057l4.344,2.508c.348.2.305.553-.1.786l-4.3,2.486A1.512,1.512,0,0,1,356.328,280.22Z" transform="translate(-268.669 -217.225)" fill="#5793ce"/>
            <path id="Trazado_194509" data-name="Trazado 194509" d="M297.922,237.777l-4.344-2.509c-.348-.2-.305-.552.1-.785l4.3-2.486a1.512,1.512,0,0,1,1.361-.056l4.344,2.508c.349.2.305.553-.1.786l-4.3,2.485A1.513,1.513,0,0,1,297.922,237.777Z" transform="translate(-260.759 -211.477)" fill="#5793ce"/>
            <path id="Trazado_194510" data-name="Trazado 194510" d="M290.046,233.229l-4.344-2.508c-.349-.2-.305-.553.1-.786l4.3-2.485a1.512,1.512,0,0,1,1.361-.056l4.344,2.508c.349.2.305.553-.1.786l-4.3,2.485A1.512,1.512,0,0,1,290.046,233.229Z" transform="translate(-259.693 -210.861)" fill="#5793ce"/>
            <path id="Trazado_194511" data-name="Trazado 194511" d="M281.372,228.221l-9.357-5.4c-.348-.2-.305-.553.1-.786l4.3-2.486a1.512,1.512,0,0,1,1.361-.056l9.357,5.4c.348.2.305.553-.1.786l-4.3,2.486A1.512,1.512,0,0,1,281.372,228.221Z" transform="translate(-257.839 -209.791)" fill="#5793ce"/>
            <path id="Trazado_194512" data-name="Trazado 194512" d="M287.163,222.842l-7.594-4.384c-.348-.2-.305-.553.1-.786l4.3-2.485a1.512,1.512,0,0,1,1.361-.056l7.593,4.383c.348.2.305.553-.1.786l-4.3,2.486A1.512,1.512,0,0,1,287.163,222.842Z" transform="translate(-258.862 -209.2)" fill="#5793ce"/>
            <path id="Trazado_194513" data-name="Trazado 194513" d="M305.682,242.257l-4.344-2.508c-.348-.2-.305-.553.1-.786l4.3-2.486a1.512,1.512,0,0,1,1.361-.056l4.344,2.508c.349.2.305.553-.1.786l-4.3,2.486A1.512,1.512,0,0,1,305.682,242.257Z" transform="translate(-261.81 -212.084)" fill="#5793ce"/>
            <path id="Trazado_194514" data-name="Trazado 194514" d="M313.442,246.737l-4.344-2.508c-.348-.2-.3-.553.1-.786l4.3-2.485a1.512,1.512,0,0,1,1.361-.057l4.344,2.508c.349.2.305.553-.1.786l-4.3,2.486A1.512,1.512,0,0,1,313.442,246.737Z" transform="translate(-262.861 -212.69)" fill="#5793ce"/>
            <path id="Trazado_194515" data-name="Trazado 194515" d="M321.2,251.217l-4.344-2.508c-.348-.2-.3-.553.1-.786l4.3-2.485a1.514,1.514,0,0,1,1.362-.056l4.344,2.508c.349.2.305.553-.1.786l-4.3,2.485A1.512,1.512,0,0,1,321.2,251.217Z" transform="translate(-263.912 -213.297)" fill="#5793ce"/>
            <path id="Trazado_194516" data-name="Trazado 194516" d="M328.962,255.7l-4.344-2.509c-.348-.2-.3-.552.1-.785l4.3-2.486a1.512,1.512,0,0,1,1.361-.056l4.344,2.508c.348.2.3.553-.1.786l-4.3,2.485A1.514,1.514,0,0,1,328.962,255.7Z" transform="translate(-264.963 -213.904)" fill="#5793ce"/>
            <path id="Trazado_194517" data-name="Trazado 194517" d="M336.723,260.178l-4.344-2.508c-.349-.2-.305-.553.1-.786l4.3-2.486a1.512,1.512,0,0,1,1.361-.056l4.344,2.508c.348.2.3.553-.1.786l-4.3,2.486A1.512,1.512,0,0,1,336.723,260.178Z" transform="translate(-266.014 -214.511)" fill="#5793ce"/>
            <path id="Trazado_194518" data-name="Trazado 194518" d="M344.483,264.658l-4.344-2.508c-.349-.2-.305-.553.1-.786l4.3-2.485a1.512,1.512,0,0,1,1.361-.057l4.344,2.509c.348.2.3.552-.1.785l-4.3,2.486A1.512,1.512,0,0,1,344.483,264.658Z" transform="translate(-267.065 -215.117)" fill="#5793ce"/>
            <path id="Trazado_194519" data-name="Trazado 194519" d="M352.242,269.138l-4.344-2.508c-.349-.2-.305-.553.1-.786l4.3-2.485a1.512,1.512,0,0,1,1.361-.056l4.344,2.508c.348.2.305.553-.1.786l-4.3,2.485A1.512,1.512,0,0,1,352.242,269.138Z" transform="translate(-268.116 -215.724)" fill="#5793ce"/>
            <path id="Trazado_194520" data-name="Trazado 194520" d="M360,273.618l-4.344-2.508c-.349-.2-.305-.553.1-.786l4.3-2.486a1.512,1.512,0,0,1,1.361-.056l4.344,2.508c.348.2.305.553-.1.786l-4.3,2.485A1.513,1.513,0,0,1,360,273.618Z" transform="translate(-269.167 -216.331)" fill="#5793ce"/>
            <path id="Trazado_194521" data-name="Trazado 194521" d="M367.763,278.1l-4.345-2.508c-.349-.2-.305-.553.1-.786l4.3-2.486a1.512,1.512,0,0,1,1.361-.056l4.344,2.508c.348.2.305.553-.1.786l-4.3,2.486A1.512,1.512,0,0,1,367.763,278.1Z" transform="translate(-270.218 -216.938)" fill="#5793ce"/>
            <path id="Trazado_194522" data-name="Trazado 194522" d="M380.753,285.6l-9.479-5.473c-.348-.2-.305-.553.1-.786l4.3-2.486a1.512,1.512,0,0,1,1.361-.056l9.479,5.473c.349.2.305.553-.1.786l-4.3,2.486A1.512,1.512,0,0,1,380.753,285.6Z" transform="translate(-271.282 -217.552)" fill="#5793ce"/>
            <path id="Trazado_194523" data-name="Trazado 194523" d="M396.093,277.01l-8-4.618c-.348-.2-.305-.553.1-.786l4.3-2.486a1.512,1.512,0,0,1,1.361-.056l8,4.619c.349.2.305.553-.1.786l-4.3,2.485A1.512,1.512,0,0,1,396.093,277.01Z" transform="translate(-273.559 -216.504)" fill="#5793ce"/>
            <path id="Trazado_194524" data-name="Trazado 194524" d="M319.272,241.38l-4.344-2.508c-.348-.2-.305-.553.1-.786l4.3-2.485a1.515,1.515,0,0,1,1.361-.057l4.344,2.509c.348.2.305.552-.1.785l-4.3,2.486A1.512,1.512,0,0,1,319.272,241.38Z" transform="translate(-263.651 -211.965)" fill="#5793ce"/>
            <path id="Trazado_194525" data-name="Trazado 194525" d="M311.319,236.788l-4.344-2.509c-.349-.2-.305-.552.1-.785l4.3-2.486a1.512,1.512,0,0,1,1.361-.056l4.344,2.508c.348.2.305.553-.1.786l-4.3,2.485A1.515,1.515,0,0,1,311.319,236.788Z" transform="translate(-262.574 -211.343)" fill="#5793ce"/>
            <path id="Trazado_194526" data-name="Trazado 194526" d="M303.366,232.2l-4.344-2.508c-.349-.2-.305-.553.1-.786l4.3-2.486a1.512,1.512,0,0,1,1.361-.056l4.344,2.508c.348.2.3.553-.1.786l-4.3,2.486A1.512,1.512,0,0,1,303.366,232.2Z" transform="translate(-261.496 -210.721)" fill="#5793ce"/>
            <path id="Trazado_194527" data-name="Trazado 194527" d="M295.413,227.6l-4.344-2.508c-.349-.2-.305-.553.1-.786l4.3-2.485a1.512,1.512,0,0,1,1.361-.057l4.344,2.508c.348.2.305.553-.1.786l-4.3,2.486A1.512,1.512,0,0,1,295.413,227.6Z" transform="translate(-260.419 -210.099)" fill="#5793ce"/>
            <path id="Trazado_194528" data-name="Trazado 194528" d="M327.032,245.86l-4.345-2.508c-.348-.2-.305-.552.1-.785l4.3-2.486a1.512,1.512,0,0,1,1.361-.056l4.344,2.508c.348.2.305.553-.1.786l-4.3,2.485A1.512,1.512,0,0,1,327.032,245.86Z" transform="translate(-264.702 -212.572)" fill="#5793ce"/>
            <path id="Trazado_194529" data-name="Trazado 194529" d="M334.792,250.341l-4.344-2.508c-.348-.2-.305-.553.1-.786l4.3-2.486a1.512,1.512,0,0,1,1.361-.056l4.344,2.508c.348.2.305.553-.1.786l-4.3,2.486A1.515,1.515,0,0,1,334.792,250.341Z" transform="translate(-265.753 -213.178)" fill="#5793ce"/>
            <path id="Trazado_194530" data-name="Trazado 194530" d="M342.552,254.821l-4.344-2.508c-.348-.2-.305-.553.1-.786l4.3-2.485a1.512,1.512,0,0,1,1.361-.057l4.344,2.508c.349.2.305.553-.1.786l-4.3,2.486A1.512,1.512,0,0,1,342.552,254.821Z" transform="translate(-266.804 -213.785)" fill="#5793ce"/>
            <path id="Trazado_194531" data-name="Trazado 194531" d="M350.312,259.3l-4.344-2.508c-.348-.2-.305-.553.1-.786l4.3-2.485a1.512,1.512,0,0,1,1.361-.056l4.344,2.508c.348.2.305.553-.1.785l-4.3,2.486A1.512,1.512,0,0,1,350.312,259.3Z" transform="translate(-267.854 -214.392)" fill="#5793ce"/>
            <path id="Trazado_194532" data-name="Trazado 194532" d="M358.072,263.782l-4.344-2.509c-.348-.2-.305-.552.1-.785l4.3-2.486a1.512,1.512,0,0,1,1.361-.056l4.344,2.508c.349.2.305.553-.1.786l-4.3,2.485A1.515,1.515,0,0,1,358.072,263.782Z" transform="translate(-268.905 -214.999)" fill="#5793ce"/>
            <path id="Trazado_194533" data-name="Trazado 194533" d="M365.832,268.261l-4.345-2.508c-.348-.2-.305-.553.1-.786l4.3-2.486a1.512,1.512,0,0,1,1.361-.056l4.344,2.508c.349.2.305.553-.1.786l-4.3,2.486A1.512,1.512,0,0,1,365.832,268.261Z" transform="translate(-269.956 -215.605)" fill="#5793ce"/>
            <path id="Trazado_194534" data-name="Trazado 194534" d="M373.592,272.742l-4.344-2.508c-.348-.2-.305-.553.1-.786l4.3-2.485a1.512,1.512,0,0,1,1.361-.057l4.344,2.508c.349.2.305.553-.1.786l-4.3,2.486A1.512,1.512,0,0,1,373.592,272.742Z" transform="translate(-271.007 -216.212)" fill="#5793ce"/>
            <path id="Trazado_194535" data-name="Trazado 194535" d="M381.352,277.222l-4.344-2.508c-.348-.2-.305-.553.1-.786l4.3-2.485a1.513,1.513,0,0,1,1.361-.056l4.344,2.508c.349.2.305.553-.1.786l-4.3,2.485A1.512,1.512,0,0,1,381.352,277.222Z" transform="translate(-272.058 -216.819)" fill="#5793ce"/>
            <path id="Trazado_194536" data-name="Trazado 194536" d="M389.112,281.7l-4.345-2.509c-.348-.2-.3-.552.1-.785l4.3-2.486a1.512,1.512,0,0,1,1.361-.056l4.344,2.508c.349.2.305.553-.1.786l-4.3,2.485A1.512,1.512,0,0,1,389.112,281.7Z" transform="translate(-273.109 -217.426)" fill="#5793ce"/>
            <path id="Trazado_194537" data-name="Trazado 194537" d="M315.186,230.3l-4.344-2.509c-.349-.2-.305-.552.1-.785l4.3-2.486a1.512,1.512,0,0,1,1.361-.056l4.344,2.508c.348.2.305.553-.1.786l-4.3,2.485A1.512,1.512,0,0,1,315.186,230.3Z" transform="translate(-263.097 -210.464)" fill="#5793ce"/>
            <path id="Trazado_194538" data-name="Trazado 194538" d="M307.464,225.841l-4.344-2.509c-.348-.2-.305-.552.1-.785l4.3-2.486a1.512,1.512,0,0,1,1.361-.056l4.344,2.508c.349.2.305.553-.1.786l-4.3,2.485A1.512,1.512,0,0,1,307.464,225.841Z" transform="translate(-262.052 -209.86)" fill="#5793ce"/>
            <path id="Trazado_194539" data-name="Trazado 194539" d="M299.742,221.383l-4.344-2.509c-.349-.2-.305-.552.1-.785l4.3-2.486a1.512,1.512,0,0,1,1.361-.056l4.344,2.508c.348.2.305.553-.1.786l-4.3,2.485A1.512,1.512,0,0,1,299.742,221.383Z" transform="translate(-261.006 -209.257)" fill="#5793ce"/>
            <path id="Trazado_194540" data-name="Trazado 194540" d="M292.021,216.925l-4.344-2.509c-.348-.2-.3-.552.1-.785l4.3-2.486a1.512,1.512,0,0,1,1.361-.056l4.344,2.508c.349.2.305.553-.1.786l-4.3,2.485A1.514,1.514,0,0,1,292.021,216.925Z" transform="translate(-259.96 -208.653)" fill="#5793ce"/>
            <path id="Trazado_194541" data-name="Trazado 194541" d="M299.961,212.6l-4.344-2.508c-.348-.2-.3-.552.1-.785l1.423-.822a1.512,1.512,0,0,1,1.361-.056l4.344,2.508c.349.2.305.553-.1.786l-1.423.821A1.512,1.512,0,0,1,299.961,212.6Z" transform="translate(-261.035 -208.293)" fill="#5793ce"/>
            <path id="Trazado_194542" data-name="Trazado 194542" d="M310.038,218.418l-4.344-2.508c-.349-.2-.305-.553.1-.786l1.423-.821a1.512,1.512,0,0,1,1.361-.056l4.344,2.508c.348.2.305.553-.1.786l-1.423.821A1.512,1.512,0,0,1,310.038,218.418Z" transform="translate(-262.4 -209.081)" fill="#5793ce"/>
            <path id="Trazado_194543" data-name="Trazado 194543" d="M317.727,222.858l-4.344-2.509c-.348-.2-.305-.552.1-.785l1.423-.822a1.512,1.512,0,0,1,1.361-.056l4.345,2.508c.349.2.305.553-.1.786l-1.423.821A1.515,1.515,0,0,1,317.727,222.858Z" transform="translate(-263.441 -209.682)" fill="#5793ce"/>
            <path id="Trazado_194544" data-name="Trazado 194544" d="M325.416,227.3l-4.344-2.508c-.348-.2-.3-.553.1-.786l1.422-.821a1.515,1.515,0,0,1,1.361-.057l4.344,2.509c.349.2.305.553-.1.785l-1.423.822A1.512,1.512,0,0,1,325.416,227.3Z" transform="translate(-264.483 -210.283)" fill="#5793ce"/>
            <path id="Trazado_194545" data-name="Trazado 194545" d="M333.106,231.736l-4.344-2.508c-.349-.2-.305-.553.1-.786l1.423-.821a1.512,1.512,0,0,1,1.361-.056l4.345,2.508c.348.2.3.553-.1.786l-1.423.821A1.512,1.512,0,0,1,333.106,231.736Z" transform="translate(-265.524 -210.884)" fill="#5793ce"/>
            <path id="Trazado_194546" data-name="Trazado 194546" d="M376.033,256.521l-4.344-2.508c-.349-.2-.305-.553.1-.786l1.423-.821a1.512,1.512,0,0,1,1.361-.057l4.344,2.509c.348.2.3.552-.1.785l-1.423.822A1.512,1.512,0,0,1,376.033,256.521Z" transform="translate(-271.338 -214.241)" fill="#5793ce"/>
            <path id="Trazado_194547" data-name="Trazado 194547" d="M383.723,260.96l-4.344-2.508c-.349-.2-.305-.553.1-.786l1.423-.821a1.512,1.512,0,0,1,1.361-.056L386.6,259.3c.348.2.305.553-.1.786l-1.423.821A1.512,1.512,0,0,1,383.723,260.96Z" transform="translate(-272.379 -214.842)" fill="#5793ce"/>
            <path id="Trazado_194548" data-name="Trazado 194548" d="M391.412,265.4l-4.344-2.509c-.348-.2-.305-.552.1-.785l1.423-.822a1.512,1.512,0,0,1,1.361-.056l4.344,2.508c.349.2.305.553-.1.786l-1.423.821A1.512,1.512,0,0,1,391.412,265.4Z" transform="translate(-273.421 -215.443)" fill="#5793ce"/>
            <path id="Trazado_194549" data-name="Trazado 194549" d="M399.1,269.839l-4.345-2.508c-.348-.2-.3-.553.1-.786l1.423-.821a1.51,1.51,0,0,1,1.36-.056l4.344,2.508c.349.2.305.553-.1.786l-1.422.821A1.512,1.512,0,0,1,399.1,269.839Z" transform="translate(-274.462 -216.045)" fill="#5793ce"/>
            <path id="Trazado_194550" data-name="Trazado 194550" d="M322.946,234.779,318.6,232.27c-.349-.2-.305-.553.1-.786L323,229a1.512,1.512,0,0,1,1.361-.056l4.344,2.508c.348.2.305.553-.1.786l-4.3,2.486A1.512,1.512,0,0,1,322.946,234.779Z" transform="translate(-264.148 -211.071)" fill="#5793ce"/>
            <path id="Trazado_194551" data-name="Trazado 194551" d="M330.706,239.259l-4.344-2.508c-.349-.2-.305-.553.1-.786l4.3-2.485a1.512,1.512,0,0,1,1.361-.057l4.344,2.508c.348.2.305.553-.1.786l-4.3,2.486A1.512,1.512,0,0,1,330.706,239.259Z" transform="translate(-265.199 -211.678)" fill="#5793ce"/>
            <path id="Trazado_194552" data-name="Trazado 194552" d="M338.466,243.739l-4.344-2.508c-.348-.2-.305-.553.1-.786l4.3-2.485a1.512,1.512,0,0,1,1.361-.056l4.344,2.508c.348.2.305.553-.1.786l-4.3,2.485A1.512,1.512,0,0,1,338.466,243.739Z" transform="translate(-266.25 -212.284)" fill="#5793ce"/>
            <path id="Trazado_194553" data-name="Trazado 194553" d="M346.226,248.22l-4.344-2.509c-.348-.2-.305-.552.1-.785l4.3-2.486a1.512,1.512,0,0,1,1.361-.056l4.344,2.508c.348.2.305.553-.1.786l-4.3,2.485A1.513,1.513,0,0,1,346.226,248.22Z" transform="translate(-267.301 -212.891)" fill="#5793ce"/>
            <path id="Trazado_194554" data-name="Trazado 194554" d="M353.986,252.7l-4.344-2.508c-.348-.2-.305-.553.1-.786l4.3-2.486a1.512,1.512,0,0,1,1.361-.056l4.344,2.508c.348.2.305.553-.1.786l-4.3,2.486A1.512,1.512,0,0,1,353.986,252.7Z" transform="translate(-268.352 -213.498)" fill="#5793ce"/>
            <path id="Trazado_194555" data-name="Trazado 194555" d="M361.746,257.18l-4.344-2.508c-.348-.2-.305-.553.1-.786l4.3-2.485a1.512,1.512,0,0,1,1.361-.057l4.344,2.509c.349.2.305.552-.1.785l-4.3,2.486A1.512,1.512,0,0,1,361.746,257.18Z" transform="translate(-269.403 -214.105)" fill="#5793ce"/>
            <path id="Trazado_194556" data-name="Trazado 194556" d="M369.506,261.66l-4.344-2.508c-.348-.2-.305-.553.1-.786l4.3-2.485a1.512,1.512,0,0,1,1.361-.056l4.344,2.508c.349.2.305.553-.1.786l-4.3,2.485A1.512,1.512,0,0,1,369.506,261.66Z" transform="translate(-270.454 -214.712)" fill="#5793ce"/>
            <path id="Trazado_194557" data-name="Trazado 194557" d="M377.266,266.141l-4.344-2.508c-.348-.2-.305-.553.1-.786l4.3-2.486a1.512,1.512,0,0,1,1.361-.056l4.344,2.508c.349.2.305.553-.1.786l-4.3,2.485A1.513,1.513,0,0,1,377.266,266.141Z" transform="translate(-271.505 -215.318)" fill="#5793ce"/>
            <path id="Trazado_194558" data-name="Trazado 194558" d="M385.026,270.621l-4.344-2.508c-.348-.2-.305-.553.1-.786l4.3-2.486a1.512,1.512,0,0,1,1.361-.056l4.345,2.508c.349.2.305.553-.1.786l-4.3,2.486A1.512,1.512,0,0,1,385.026,270.621Z" transform="translate(-272.556 -215.925)" fill="#5793ce"/>
            <path id="Trazado_194559" data-name="Trazado 194559" d="M277.256,234.567l-12.795-7.387c-.348-.2-.305-.553.1-.786l4.3-2.486a1.512,1.512,0,0,1,1.361-.056l12.795,7.387c.349.2.305.553-.1.786l-4.3,2.486A1.512,1.512,0,0,1,277.256,234.567Z" transform="translate(-256.816 -210.381)" fill="#5793ce"/>
            <path id="Trazado_194560" data-name="Trazado 194560" d="M372.59,289.608,359.8,282.221c-.348-.2-.3-.553.1-.786l4.3-2.485a1.512,1.512,0,0,1,1.361-.057l12.795,7.388c.349.2.305.552-.1.785l-4.3,2.486A1.512,1.512,0,0,1,372.59,289.608Z" transform="translate(-269.727 -217.836)" fill="#5793ce"/>
            <path id="Trazado_194561" data-name="Trazado 194561" d="M342.881,282.277l-4.344-2.508c-.349-.2-.305-.553.1-.786l5.128-2.96a1.512,1.512,0,0,1,1.361-.056l4.344,2.508c.349.2.305.553-.1.786l-5.128,2.96A1.512,1.512,0,0,1,342.881,282.277Z" transform="translate(-266.848 -217.439)" fill="#5793ce"/>
            <path id="Trazado_194562" data-name="Trazado 194562" d="M286.119,249.507l-6.948-4.012c-.349-.2-.305-.553.1-.786l5.128-2.96a1.512,1.512,0,0,1,1.361-.057l6.949,4.012c.348.2.3.553-.1.786l-5.128,2.96A1.515,1.515,0,0,1,286.119,249.507Z" transform="translate(-258.808 -212.797)" fill="#5793ce"/>
            <path id="Trazado_194563" data-name="Trazado 194563" d="M335,277.726l-6.948-4.012c-.349-.2-.305-.553.1-.786l5.128-2.96a1.512,1.512,0,0,1,1.361-.057l6.948,4.012c.349.2.305.553-.1.786l-5.128,2.96A1.515,1.515,0,0,1,335,277.726Z" transform="translate(-265.428 -216.619)" fill="#5793ce"/>
            <path id="Trazado_194564" data-name="Trazado 194564" d="M297.315,255.971l-6.948-4.012c-.348-.2-.305-.553.1-.786l5.128-2.96a1.512,1.512,0,0,1,1.361-.057l6.949,4.012c.348.2.3.553-.1.786l-5.129,2.96A1.513,1.513,0,0,1,297.315,255.971Z" transform="translate(-260.324 -213.673)" fill="#5793ce"/>
            <path id="Trazado_194565" data-name="Trazado 194565" d="M297.045,248.209l30.207,17.44a.414.414,0,0,1,0,.784l-5.229,3.019a1.5,1.5,0,0,1-1.357,0l-30.208-17.441Z" transform="translate(-260.369 -213.699)" fill="#5793ce"/>
            <path id="Trazado_194566" data-name="Trazado 194566" d="M364.74,291.394l4.839,2.793c.286.165.25.454-.08.644l-2.1,1.211a1.24,1.24,0,0,1-1.115.046l-4.839-2.793c-.286-.165-.25-.454.08-.644l2.1-1.211A1.24,1.24,0,0,1,364.74,291.394Z" transform="translate(-269.957 -219.532)" fill="#5793ce"/>
            <path id="Trazado_194567" data-name="Trazado 194567" d="M356.916,286.876l4.839,2.794c.286.165.25.453-.08.644l-2.1,1.21a1.238,1.238,0,0,1-1.115.047l-4.84-2.794c-.285-.165-.25-.453.08-.644l2.1-1.21A1.24,1.24,0,0,1,356.916,286.876Z" transform="translate(-268.897 -218.92)" fill="#5793ce"/>
            <path id="Trazado_194568" data-name="Trazado 194568" d="M349.156,282.4l4.839,2.793c.286.165.25.454-.08.644l-2.1,1.211a1.238,1.238,0,0,1-1.115.047l-4.84-2.794c-.285-.165-.25-.453.08-.644l2.1-1.211A1.242,1.242,0,0,1,349.156,282.4Z" transform="translate(-267.846 -218.313)" fill="#5793ce"/>
            <path id="Trazado_194569" data-name="Trazado 194569" d="M361.2,284.4l4.839,2.794c.286.165.25.453-.08.644l-2.1,1.21a1.238,1.238,0,0,1-1.115.047l-4.839-2.794c-.286-.165-.25-.453.08-.644l2.1-1.21A1.238,1.238,0,0,1,361.2,284.4Z" transform="translate(-269.477 -218.585)" fill="#5793ce"/>
          </g>
          <g id="Grupo_152024" data-name="Grupo 152024" transform="translate(101.866 34.309)">
            <path id="Trazado_194570" data-name="Trazado 194570" d="M344.44,147.8l-10.912-6.3.465-2.349,10.912,6.3Z" transform="translate(-329.976 -139.152)" fill="#d4ecff"/>
            <path id="Trazado_194571" data-name="Trazado 194571" d="M343.07,154.116l-10.912-6.3.465-2.349,10.912,6.3Z" transform="translate(-329.79 -140.007)" fill="#fff"/>
            <path id="Trazado_194572" data-name="Trazado 194572" d="M405.017,241.71l-10.912-6.3.465-2.349,10.912,6.3Z" transform="translate(-338.18 -151.87)" fill="#d4ecff"/>
            <path id="Trazado_194573" data-name="Trazado 194573" d="M340.331,166.746l-10.912-6.3.465-2.349,10.912,6.3Z" transform="translate(-329.419 -141.718)" fill="#d4ecff"/>
          </g>
          <path id="Trazado_194574" data-name="Trazado 194574" d="M389.5,199.559l-40.367-23.306.519-2.624,40.366,23.306Z" transform="translate(-230.224 -109.512)" fill="#d4ecff"/>
          <path id="Trazado_194575" data-name="Trazado 194575" d="M374.691,205.783l-28.178-16.269.519-2.624,28.178,16.268Z" transform="translate(-229.869 -111.308)" fill="#d4ecff"/>
          <path id="Trazado_194576" data-name="Trazado 194576" d="M372.2,196.958l-24.377-14.074.519-2.624,24.377,14.074Z" transform="translate(-230.046 -110.41)" fill="#fff"/>
          <g id="Grupo_152025" data-name="Grupo 152025" transform="translate(133.848 61.413)">
            <path id="Trazado_194577" data-name="Trazado 194577" d="M369.546,173.12a1.521,1.521,0,0,1-2.192.674,1.907,1.907,0,0,1-.785-2.393,1.521,1.521,0,0,1,2.192-.674A1.908,1.908,0,0,1,369.546,173.12Z" transform="translate(-366.411 -170.502)" fill="#ff2c9c"/>
            <path id="Trazado_194578" data-name="Trazado 194578" d="M375.618,176.626a1.521,1.521,0,0,1-2.192.674,1.908,1.908,0,0,1-.785-2.393,1.521,1.521,0,0,1,2.192-.674A1.907,1.907,0,0,1,375.618,176.626Z" transform="translate(-367.233 -170.977)" fill="#fff"/>
            <path id="Trazado_194579" data-name="Trazado 194579" d="M381.69,180.132a1.52,1.52,0,0,1-2.191.674,1.906,1.906,0,0,1-.785-2.393,1.521,1.521,0,0,1,2.191-.675A1.907,1.907,0,0,1,381.69,180.132Z" transform="translate(-368.056 -171.452)" fill="#d4ecff"/>
            <path id="Trazado_194580" data-name="Trazado 194580" d="M387.763,183.638a1.521,1.521,0,0,1-2.192.674,1.907,1.907,0,0,1-.785-2.393,1.521,1.521,0,0,1,2.192-.675A1.909,1.909,0,0,1,387.763,183.638Z" transform="translate(-368.878 -171.926)" fill="#ff2c9c"/>
          </g>
          <path id="Trazado_194581" data-name="Trazado 194581" d="M392.606,208.738,380.417,201.7l.519-2.624,12.189,7.037Z" transform="translate(-234.46 -112.959)" fill="#ff2c9c"/>
        </g>
      </g>
      <g id="Grupo_152045" data-name="Grupo 152045" transform="translate(175.177 132.651)">
        <path id="Trazado_194582" data-name="Trazado 194582" d="M438.558,368.746l-39.776-22.965c-1.458-.841-1.274-2.311.409-3.283l42.158-24.4a6.321,6.321,0,0,1,5.686-.236l39.776,22.965c1.458.842,1.274,2.312-.409,3.284l-42.158,24.4A6.318,6.318,0,0,1,438.558,368.746Z" transform="translate(-395.923 -195.016)" fill="#7dc3ea"/>
        <path id="Trazado_194583" data-name="Trazado 194583" d="M440.849,359.562a6.228,6.228,0,0,1-3.065-.721l-39.775-22.965a2.857,2.857,0,0,1-1.574-2.447,3.468,3.468,0,0,1,1.982-2.878l42.156-24.4a7.519,7.519,0,0,1,6.868-.235l39.775,22.964a2.86,2.86,0,0,1,1.573,2.448,3.471,3.471,0,0,1-1.982,2.878l-42.156,24.4A7.77,7.77,0,0,1,440.849,359.562Zm3.546-52.017a5.485,5.485,0,0,0-2.642.646l-42.156,24.4c-.591.341-.8.686-.8.837,0,.088.122.247.394.405L438.963,356.8a5.192,5.192,0,0,0,4.508-.236l42.156-24.4c.591-.34.8-.687.8-.836,0-.089-.121-.248-.394-.405l-39.774-22.965A3.845,3.845,0,0,0,444.4,307.545Z" transform="translate(-395.738 -193.378)" fill="#fff"/>
        <g id="Grupo_152044" data-name="Grupo 152044">
          <g id="Grupo_152043" data-name="Grupo 152043">
            <g id="Grupo_152038" data-name="Grupo 152038">
              <g id="Grupo_152030" data-name="Grupo 152030">
                <g id="Grupo_152029" data-name="Grupo 152029">
                  <g id="Grupo_152028" data-name="Grupo 152028">
                    <path id="Trazado_194584" data-name="Trazado 194584" d="M442.782,232.807s-21.837,2.081-34.99,3.091l34.885,99.352,46.143-26.613.023-.014.082-.047v0a2.572,2.572,0,0,0,.942-2.278V209.186a7.037,7.037,0,0,0-.8-3.1Z" transform="translate(-397.276 -179.956)" fill="url(#radial-gradient-5)"/>
                    <path id="Trazado_194585" data-name="Trazado 194585" d="M485.514,199.632,444.934,176.2a1.834,1.834,0,0,0-1.848-.159h0l-46.329,26.727,2.183,8.079,11.616,33.083,2.187,1.263,74.829-43.2A5.713,5.713,0,0,0,485.514,199.632Z" transform="translate(-395.782 -175.862)" fill="url(#linear-gradient)"/>
                    <path id="Trazado_194586" data-name="Trazado 194586" d="M439.082,212.3l35.181-20.254L446.817,176.2a1.834,1.834,0,0,0-1.848-.159h0L410.66,195.837Z" transform="translate(-397.665 -175.862)" fill="#173d7a" opacity="0.5"/>
                    <path id="Trazado_194587" data-name="Trazado 194587" d="M439.067,335.25l-40.58-23.429a6.844,6.844,0,0,1-2.857-5.46V209.253c0-2.1,1.28-3.071,2.857-2.161l40.58,23.429a6.844,6.844,0,0,1,2.857,5.46v97.108C441.924,335.194,440.644,336.161,439.067,335.25Z" transform="translate(-395.629 -180.045)" fill="#5793ce"/>
                    <path id="Trazado_194588" data-name="Trazado 194588" d="M440.168,229.957l-40.58-23.429a1.688,1.688,0,0,0-2.248.165,2.114,2.114,0,0,1,1.378.322l40.58,23.429a6.844,6.844,0,0,1,2.857,5.46v97.108a2.97,2.97,0,0,1-.609,2c.882-.139,1.479-1.045,1.479-2.483V235.417A6.844,6.844,0,0,0,440.168,229.957Z" transform="translate(-395.861 -179.969)" fill="#fff"/>
                    <path id="Trazado_194589" data-name="Trazado 194589" d="M436.97,330.191,401.5,309.71a5.981,5.981,0,0,1-2.5-4.773V214.751c0-1.84,1.118-2.685,2.5-1.889l35.474,20.482a5.981,5.981,0,0,1,2.5,4.772V328.3C439.468,330.143,438.35,330.988,436.97,330.191Z" transform="translate(-396.085 -180.833)" fill="url(#linear-gradient-2)"/>
                    <path id="Trazado_194590" data-name="Trazado 194590" d="M436.97,330.191,401.5,309.71a5.981,5.981,0,0,1-2.5-4.773V214.751c0-1.84,1.118-2.685,2.5-1.889l35.474,20.482a5.981,5.981,0,0,1,2.5,4.772V328.3C439.468,330.143,438.35,330.988,436.97,330.191Z" transform="translate(-396.085 -180.833)" fill="url(#linear-gradient-2)"/>
                    <path id="Trazado_194591" data-name="Trazado 194591" d="M436.97,330.191,401.5,309.71a5.981,5.981,0,0,1-2.5-4.773V214.751c0-1.84,1.118-2.685,2.5-1.889l35.474,20.482a5.981,5.981,0,0,1,2.5,4.772V328.3C439.468,330.143,438.35,330.988,436.97,330.191Z" transform="translate(-396.085 -180.833)" fill="#173d7a"/>
                    <path id="Trazado_194592" data-name="Trazado 194592" d="M438.129,329.51l-35.475-20.482a5.983,5.983,0,0,1-2.5-4.772V214.069a2.882,2.882,0,0,1,.359-1.506c-.892-.007-1.517.813-1.517,2.188v90.186a5.981,5.981,0,0,0,2.5,4.773l35.474,20.481a1.446,1.446,0,0,0,2.14-.382A2.012,2.012,0,0,1,438.129,329.51Z" transform="translate(-396.085 -180.833)" fill="#396caa"/>
                  </g>
                </g>
              </g>
              <g id="Grupo_152032" data-name="Grupo 152032" transform="translate(6.67 35.658)">
                <g id="Grupo_152031" data-name="Grupo 152031" transform="translate(0)">
                  <path id="Trazado_194593" data-name="Trazado 194593" d="M437.558,299.533l-13.186-7.613-21.029,12.142,36.712,21.2V304.306A5.981,5.981,0,0,0,437.558,299.533Z" transform="translate(-403.344 -227.238)" fill="#173d7a"/>
                  <path id="Trazado_194594" data-name="Trazado 194594" d="M437.558,278.158l-13.186-7.613-21.029,12.141,36.712,21.2V282.93A5.981,5.981,0,0,0,437.558,278.158Z" transform="translate(-403.344 -224.343)" fill="#173d7a"/>
                  <path id="Trazado_194595" data-name="Trazado 194595" d="M437.558,256.781l-13.186-7.612-21.029,12.142,36.712,21.2V261.555A5.981,5.981,0,0,0,437.558,256.781Z" transform="translate(-403.344 -221.448)" fill="#173d7a"/>
                  <path id="Trazado_194596" data-name="Trazado 194596" d="M437.558,235.407l-13.186-7.613-21.029,12.141,36.712,21.2V240.179A5.981,5.981,0,0,0,437.558,235.407Z" transform="translate(-403.344 -218.553)" fill="#173d7a"/>
                  <path id="Trazado_194597" data-name="Trazado 194597" d="M437.558,233.959l-29.19-16.853-5.024,2.9,36.712,21.2v-2.472A5.981,5.981,0,0,0,437.558,233.959Z" transform="translate(-403.344 -217.106)" fill="#173d7a"/>
                </g>
                <path id="Trazado_194598" data-name="Trazado 194598" d="M440.056,241.658l-36.713-21.2v11.681l36.713,21.2Z" transform="translate(-403.344 -217.56)" fill="#5793ce"/>
                <path id="Trazado_194599" data-name="Trazado 194599" d="M440.056,263.033l-36.713-21.2v11.681l36.713,21.2Z" transform="translate(-403.344 -220.455)" fill="#5793ce"/>
                <path id="Trazado_194600" data-name="Trazado 194600" d="M440.056,284.408l-36.713-21.2v11.681l36.713,21.2Z" transform="translate(-403.344 -223.35)" fill="#5793ce"/>
                <path id="Trazado_194601" data-name="Trazado 194601" d="M440.056,305.784l-36.713-21.2v11.681l36.713,21.2Z" transform="translate(-403.344 -226.245)" fill="#5793ce"/>
                <path id="Trazado_194602" data-name="Trazado 194602" d="M440.056,327.159l-36.713-21.2v11.681l36.713,21.2Z" transform="translate(-403.344 -229.14)" fill="#5793ce"/>
              </g>
              <g id="Grupo_152033" data-name="Grupo 152033" transform="translate(11.079 44.24)">
                <path id="Trazado_194603" data-name="Trazado 194603" d="M437.509,250.065,409.857,234.1a3.385,3.385,0,0,1-1.414-2.7v-3.128c0-1.041.633-1.519,1.414-1.069l27.652,15.965a3.385,3.385,0,0,1,1.414,2.7V249C438.922,250.037,438.29,250.516,437.509,250.065Z" transform="translate(-408.443 -227.033)" fill="#173d7a"/>
                <path id="Trazado_194604" data-name="Trazado 194604" d="M411.255,233.5a3.386,3.386,0,0,1-1.414-2.7v-3.128a1.987,1.987,0,0,1,.052-.45l-.035-.021c-.782-.45-1.414.028-1.414,1.069V231.4a3.383,3.383,0,0,0,1.414,2.7l27.651,15.965a.846.846,0,0,0,1.362-.619Z" transform="translate(-408.443 -227.033)" fill="#06033e" opacity="0.3"/>
                <path id="Trazado_194605" data-name="Trazado 194605" d="M429.342,242.035l-16.64-9.607a1.192,1.192,0,0,1-.5-.95h0c0-.367.222-.535.5-.376l16.64,9.607a1.191,1.191,0,0,1,.5.95h0C429.839,242.025,429.616,242.193,429.342,242.035Z" transform="translate(-408.952 -227.576)" fill="#fff"/>
              </g>
              <g id="Grupo_152034" data-name="Grupo 152034" transform="translate(11.079 62.607)">
                <path id="Trazado_194606" data-name="Trazado 194606" d="M437.509,271.309l-27.652-15.965a3.385,3.385,0,0,1-1.414-2.7v-3.128c0-1.041.633-1.52,1.414-1.069l27.652,15.965a3.385,3.385,0,0,1,1.414,2.7v3.128C438.922,271.281,438.29,271.759,437.509,271.309Z" transform="translate(-408.443 -248.276)" fill="#173d7a"/>
                <path id="Trazado_194607" data-name="Trazado 194607" d="M411.255,254.745a3.385,3.385,0,0,1-1.414-2.7v-3.128a1.993,1.993,0,0,1,.052-.45l-.035-.02c-.782-.451-1.414.028-1.414,1.069v3.128a3.383,3.383,0,0,0,1.414,2.7l27.651,15.965a.846.846,0,0,0,1.362-.62Z" transform="translate(-408.443 -248.276)" fill="#06033e" opacity="0.3"/>
                <path id="Trazado_194608" data-name="Trazado 194608" d="M429.342,263.278l-16.64-9.607a1.189,1.189,0,0,1-.5-.95h0c0-.366.222-.534.5-.376l16.64,9.607a1.194,1.194,0,0,1,.5.95h0C429.839,263.269,429.616,263.437,429.342,263.278Z" transform="translate(-408.952 -248.819)" fill="#fff"/>
              </g>
              <g id="Grupo_152035" data-name="Grupo 152035" transform="translate(11.079 81.145)">
                <path id="Trazado_194609" data-name="Trazado 194609" d="M437.509,292.75l-27.652-15.965a3.385,3.385,0,0,1-1.414-2.7v-3.128c0-1.041.633-1.519,1.414-1.069l27.652,15.965a3.385,3.385,0,0,1,1.414,2.7v3.128C438.922,292.722,438.29,293.2,437.509,292.75Z" transform="translate(-408.443 -269.718)" fill="#173d7a"/>
                <path id="Trazado_194610" data-name="Trazado 194610" d="M411.255,276.187a3.386,3.386,0,0,1-1.414-2.7v-3.129a1.985,1.985,0,0,1,.052-.449l-.035-.021c-.782-.45-1.414.028-1.414,1.069v3.128a3.383,3.383,0,0,0,1.414,2.7l27.651,15.965a.846.846,0,0,0,1.362-.619Z" transform="translate(-408.443 -269.718)" fill="#06033e" opacity="0.3"/>
                <path id="Trazado_194611" data-name="Trazado 194611" d="M429.342,284.72l-16.64-9.607a1.191,1.191,0,0,1-.5-.95h0c0-.367.222-.535.5-.376l16.64,9.607a1.191,1.191,0,0,1,.5.95h0C429.839,284.71,429.616,284.878,429.342,284.72Z" transform="translate(-408.952 -270.261)" fill="#d4ecff"/>
              </g>
              <g id="Grupo_152036" data-name="Grupo 152036" transform="translate(11.079 99.853)">
                <path id="Trazado_194612" data-name="Trazado 194612" d="M437.509,314.39l-27.652-15.965a3.386,3.386,0,0,1-1.414-2.7V292.6c0-1.041.633-1.52,1.414-1.069l27.652,15.965a3.388,3.388,0,0,1,1.414,2.7v3.128C438.922,314.362,438.29,314.84,437.509,314.39Z" transform="translate(-408.443 -291.357)" fill="#173d7a"/>
                <path id="Trazado_194613" data-name="Trazado 194613" d="M411.255,297.826a3.385,3.385,0,0,1-1.414-2.7V292a1.994,1.994,0,0,1,.052-.45l-.035-.02c-.782-.451-1.414.027-1.414,1.069v3.128a3.385,3.385,0,0,0,1.414,2.7l27.651,15.965a.846.846,0,0,0,1.362-.62Z" transform="translate(-408.443 -291.357)" fill="#06033e" opacity="0.3"/>
                <path id="Trazado_194614" data-name="Trazado 194614" d="M429.342,306.359l-16.64-9.607a1.192,1.192,0,0,1-.5-.95h0c0-.367.222-.534.5-.376l16.64,9.607a1.194,1.194,0,0,1,.5.95h0C429.839,306.35,429.616,306.517,429.342,306.359Z" transform="translate(-408.952 -291.9)" fill="#ff2c9c"/>
              </g>
              <g id="Grupo_152037" data-name="Grupo 152037" transform="translate(11.079 118.191)">
                <path id="Trazado_194615" data-name="Trazado 194615" d="M437.509,335.6l-27.652-15.965a3.385,3.385,0,0,1-1.414-2.7v-3.128c0-1.041.633-1.519,1.414-1.069L437.509,328.7a3.385,3.385,0,0,1,1.414,2.7v3.128C438.922,335.572,438.29,336.051,437.509,335.6Z" transform="translate(-408.443 -312.568)" fill="#173d7a"/>
                <path id="Trazado_194616" data-name="Trazado 194616" d="M411.255,319.037a3.386,3.386,0,0,1-1.414-2.7v-3.128a1.984,1.984,0,0,1,.052-.449l-.035-.021c-.782-.45-1.414.028-1.414,1.069v3.128a3.383,3.383,0,0,0,1.414,2.7L437.509,335.6a.846.846,0,0,0,1.362-.619Z" transform="translate(-408.443 -312.568)" fill="#06033e" opacity="0.3"/>
                <path id="Trazado_194617" data-name="Trazado 194617" d="M429.342,327.57l-16.64-9.608a1.189,1.189,0,0,1-.5-.95h0c0-.366.222-.534.5-.375l16.64,9.607a1.192,1.192,0,0,1,.5.95h0C429.839,327.56,429.616,327.728,429.342,327.57Z" transform="translate(-408.952 -313.111)" fill="#d4ecff"/>
              </g>
              <path id="Trazado_194618" data-name="Trazado 194618" d="M403.344,220.461l2.891,1.669v11.681l-2.891-1.669Z" transform="translate(-396.674 -181.902)" fill="#173d7a" opacity="0.5"/>
              <path id="Trazado_194619" data-name="Trazado 194619" d="M403.344,241.837l2.891,1.669v11.681l-2.891-1.669Z" transform="translate(-396.674 -184.797)" fill="#173d7a" opacity="0.5"/>
              <path id="Trazado_194620" data-name="Trazado 194620" d="M403.344,263.212l2.891,1.669v11.681l-2.891-1.669Z" transform="translate(-396.674 -187.692)" fill="#173d7a" opacity="0.5"/>
              <path id="Trazado_194621" data-name="Trazado 194621" d="M403.344,284.588l2.891,1.669v11.681l-2.891-1.669Z" transform="translate(-396.674 -190.587)" fill="#173d7a" opacity="0.5"/>
              <path id="Trazado_194622" data-name="Trazado 194622" d="M403.344,305.963l2.891,1.669v11.681l-2.891-1.669Z" transform="translate(-396.674 -193.482)" fill="#173d7a" opacity="0.5"/>
            </g>
            <path id="Trazado_194623" data-name="Trazado 194623" d="M435.635,244.92c0,.373-.263.524-.585.338a1.294,1.294,0,0,1-.585-1.014c0-.373.262-.525.585-.338A1.3,1.3,0,0,1,435.635,244.92Z" transform="translate(-400.888 -185.067)" fill="#d4ecff"/>
            <path id="Trazado_194624" data-name="Trazado 194624" d="M438.5,246.577c0,.373-.262.525-.585.338a1.294,1.294,0,0,1-.585-1.014c0-.374.262-.525.585-.338A1.294,1.294,0,0,1,438.5,246.577Z" transform="translate(-401.277 -185.291)" fill="#ff2c9c"/>
            <path id="Trazado_194625" data-name="Trazado 194625" d="M441.375,248.234c0,.373-.262.525-.585.338a1.294,1.294,0,0,1-.585-1.014c0-.373.262-.524.585-.338A1.294,1.294,0,0,1,441.375,248.234Z" transform="translate(-401.666 -185.516)" fill="#d4ecff"/>
            <path id="Trazado_194626" data-name="Trazado 194626" d="M435.635,266.284c0,.374-.263.525-.585.338a1.294,1.294,0,0,1-.585-1.013c0-.374.262-.525.585-.338A1.3,1.3,0,0,1,435.635,266.284Z" transform="translate(-400.888 -187.96)" fill="#ff2c9c"/>
            <path id="Trazado_194627" data-name="Trazado 194627" d="M438.5,267.942c0,.373-.262.524-.585.337a1.291,1.291,0,0,1-.585-1.013c0-.373.262-.525.585-.338A1.294,1.294,0,0,1,438.5,267.942Z" transform="translate(-401.277 -188.185)" fill="#d4ecff"/>
            <path id="Trazado_194628" data-name="Trazado 194628" d="M441.375,269.6c0,.373-.262.524-.585.338a1.294,1.294,0,0,1-.585-1.014c0-.374.262-.525.585-.338A1.294,1.294,0,0,1,441.375,269.6Z" transform="translate(-401.666 -188.409)" fill="#fff"/>
            <path id="Trazado_194629" data-name="Trazado 194629" d="M435.635,287.81c0,.374-.263.525-.585.338a1.294,1.294,0,0,1-.585-1.013c0-.374.262-.525.585-.338A1.3,1.3,0,0,1,435.635,287.81Z" transform="translate(-400.888 -190.875)" fill="#fff"/>
            <path id="Trazado_194630" data-name="Trazado 194630" d="M438.5,289.468c0,.373-.262.524-.585.337a1.291,1.291,0,0,1-.585-1.013c0-.374.262-.525.585-.338A1.294,1.294,0,0,1,438.5,289.468Z" transform="translate(-401.277 -191.1)" fill="#ff2c9c"/>
            <path id="Trazado_194631" data-name="Trazado 194631" d="M441.375,291.125c0,.374-.262.524-.585.338a1.294,1.294,0,0,1-.585-1.014c0-.374.262-.525.585-.338A1.294,1.294,0,0,1,441.375,291.125Z" transform="translate(-401.666 -191.324)" fill="#fff"/>
            <path id="Trazado_194632" data-name="Trazado 194632" d="M435.635,309.023c0,.373-.263.525-.585.338a1.294,1.294,0,0,1-.585-1.014c0-.374.262-.525.585-.338A1.3,1.3,0,0,1,435.635,309.023Z" transform="translate(-400.888 -193.748)" fill="#fff"/>
            <path id="Trazado_194633" data-name="Trazado 194633" d="M438.5,310.68c0,.374-.262.525-.585.338a1.294,1.294,0,0,1-.585-1.014c0-.373.262-.524.585-.338A1.294,1.294,0,0,1,438.5,310.68Z" transform="translate(-401.277 -193.973)" fill="#d4ecff"/>
            <path id="Trazado_194634" data-name="Trazado 194634" d="M441.375,312.337c0,.373-.262.525-.585.338a1.294,1.294,0,0,1-.585-1.013c0-.373.262-.525.585-.338A1.294,1.294,0,0,1,441.375,312.337Z" transform="translate(-401.666 -194.197)" fill="#d4ecff"/>
            <path id="Trazado_194635" data-name="Trazado 194635" d="M435.635,330.525c0,.374-.263.524-.585.338a1.294,1.294,0,0,1-.585-1.014c0-.374.262-.525.585-.338A1.3,1.3,0,0,1,435.635,330.525Z" transform="translate(-400.888 -196.66)" fill="#fff"/>
            <path id="Trazado_194636" data-name="Trazado 194636" d="M438.5,332.182c0,.374-.262.525-.585.338a1.294,1.294,0,0,1-.585-1.014c0-.374.262-.525.585-.338A1.294,1.294,0,0,1,438.5,332.182Z" transform="translate(-401.277 -196.885)" fill="#ff2c9c"/>
            <path id="Trazado_194637" data-name="Trazado 194637" d="M441.375,333.839c0,.373-.262.525-.585.338a1.294,1.294,0,0,1-.585-1.014c0-.373.262-.524.585-.338A1.294,1.294,0,0,1,441.375,333.839Z" transform="translate(-401.666 -197.109)" fill="#d4ecff"/>
            <g id="Grupo_152039" data-name="Grupo 152039" transform="translate(52.407 39.338)">
              <path id="Trazado_194638" data-name="Trazado 194638" d="M456.245,324.1v-82.69l.171-.1,34.559-19.952v82.689l-.171.1Zm.685-82.294v81.108l33.36-19.261V222.548Z" transform="translate(-456.245 -221.363)" fill="#173d7a"/>
            </g>
            <g id="Grupo_152042" data-name="Grupo 152042" transform="translate(60.779 62.7)">
              <path id="Trazado_194639" data-name="Trazado 194639" d="M483.309,262.227l-15.5,8.947c-1.04.6-1.884-.037-1.884-1.425v-8.591a4.515,4.515,0,0,1,1.884-3.6l15.5-8.947c1.041-.6,1.885.037,1.885,1.425v8.591A4.513,4.513,0,0,1,483.309,262.227Z" transform="translate(-465.929 -248.383)" fill="#173d7a"/>
              <path id="Trazado_194640" data-name="Trazado 194640" d="M483.706,248.443a2.478,2.478,0,0,1,.14.862V257.9a4.512,4.512,0,0,1-1.885,3.6l-15.5,8.947a1.812,1.812,0,0,1-.376.167,1.1,1.1,0,0,0,1.746.563l15.495-8.947a4.513,4.513,0,0,0,1.885-3.6v-8.591C485.215,248.818,484.567,248.178,483.706,248.443Z" transform="translate(-465.951 -248.383)" fill="#5793ce"/>
              <g id="Grupo_152041" data-name="Grupo 152041" transform="translate(2.916 4.888)">
                <g id="Grupo_152040" data-name="Grupo 152040" transform="translate(0 3.71)">
                  <path id="Trazado_194641" data-name="Trazado 194641" d="M482.677,258.4c.286-.166.518-.031.518.3v1.957a1.148,1.148,0,0,1-.518.9c-.287.165-.519.031-.519-.3V259.3A1.144,1.144,0,0,1,482.677,258.4Z" transform="translate(-471.043 -258.329)" fill="#fff"/>
                  <path id="Trazado_194642" data-name="Trazado 194642" d="M480.1,260.167c.287-.165.519-.031.519.3v1.713a1.144,1.144,0,0,1-.519.9c-.286.166-.518.032-.518-.3v-1.713A1.147,1.147,0,0,1,480.1,260.167Z" transform="translate(-470.695 -258.568)" fill="#d4ecff"/>
                  <path id="Trazado_194643" data-name="Trazado 194643" d="M477.534,259.442c.287-.166.519-.032.519.3v3.623a1.147,1.147,0,0,1-.519.9c-.286.165-.518.031-.518-.3V260.34A1.145,1.145,0,0,1,477.534,259.442Z" transform="translate(-470.347 -258.47)" fill="#ff2c9c"/>
                  <path id="Trazado_194644" data-name="Trazado 194644" d="M474.963,258.511c.287-.165.519-.031.519.3v5.711a1.144,1.144,0,0,1-.519.9c-.286.165-.519.031-.519-.3v-5.711A1.149,1.149,0,0,1,474.963,258.511Z" transform="translate(-469.998 -258.344)" fill="#d4ecff"/>
                  <path id="Trazado_194645" data-name="Trazado 194645" d="M472.392,260.688c.287-.165.519-.031.519.3V266.1a1.144,1.144,0,0,1-.519.9c-.286.166-.519.032-.519-.3v-5.112A1.149,1.149,0,0,1,472.392,260.688Z" transform="translate(-469.65 -258.639)" fill="#d4ecff"/>
                  <path id="Trazado_194646" data-name="Trazado 194646" d="M469.821,264.874c.287-.165.519-.031.519.3v2.776a1.146,1.146,0,0,1-.519.9c-.286.165-.519.031-.519-.3v-2.777A1.149,1.149,0,0,1,469.821,264.874Z" transform="translate(-469.302 -259.206)" fill="#fff"/>
                </g>
                <path id="Trazado_194647" data-name="Trazado 194647" d="M482.168,257.118c0,.326.228.457.51.295a1.13,1.13,0,0,0,.51-.884c0-.325-.229-.457-.51-.295A1.128,1.128,0,0,0,482.168,257.118Z" transform="translate(-471.044 -254.325)" fill="#ff2c9c"/>
                <path id="Trazado_194648" data-name="Trazado 194648" d="M482.168,254.991c0,.325.228.457.51.294a1.128,1.128,0,0,0,.51-.884c0-.325-.229-.456-.51-.294A1.126,1.126,0,0,0,482.168,254.991Z" transform="translate(-471.044 -254.037)" fill="#fff"/>
              </g>
            </g>
          </g>
        </g>
      </g>
      <g id="Grupo_152050" data-name="Grupo 152050" transform="translate(162.258 76.755)">
        <g id="Grupo_152048" data-name="Grupo 152048">
          <g id="Grupo_152046" data-name="Grupo 152046" transform="translate(56.251)">
            <path id="Trazado_194649" data-name="Trazado 194649" d="M490.534,154.166l-7-4.041,25.807-14.9a1.348,1.348,0,0,0,0-2.552l-26.364-15.222a4.893,4.893,0,0,0-4.421,0l-25.807,14.9-7-4.042,25.807-14.9c5.078-2.932,13.342-2.932,18.421,0l26.364,15.221c5.078,2.933,5.078,7.7,0,10.635Z" transform="translate(-445.749 -111.211)" fill="url(#radial-gradient-6)"/>
          </g>
          <g id="Grupo_152047" data-name="Grupo 152047" transform="translate(0 7.422)">
            <path id="Trazado_194650" data-name="Trazado 194650" d="M493.231,157.108c0-3.742-2.275-8.089-5.082-9.709l-46.758-27a3.261,3.261,0,0,0-3.292-.281l0,0-55.829,32.442,53.988,40.682,55-31.924a2.538,2.538,0,0,0,.486-.282h0A4.779,4.779,0,0,0,493.231,157.108Z" transform="translate(-380.9 -119.796)" fill="url(#linear-gradient-4)"/>
            <path id="Trazado_194651" data-name="Trazado 194651" d="M443.6,198.242l55-31.924a2.535,2.535,0,0,0,.486-.282h0a4.779,4.779,0,0,0,1.486-3.93,12.462,12.462,0,0,0-1.37-5.407l-62.7,36.2Z" transform="translate(-388.246 -124.794)" fill="#396caa"/>
            <path id="Trazado_194652" data-name="Trazado 194652" d="M432.526,198.136l-46.759-27c-2.806-1.62-5.081-5.967-5.081-9.709h0c0-3.742,2.275-5.462,5.081-3.842l46.759,27c2.806,1.62,5.082,5.967,5.082,9.709h0C437.607,198.036,435.332,199.756,432.526,198.136Z" transform="translate(-380.686 -124.831)" fill="url(#radial-gradient-7)"/>
            <path id="Trazado_194653" data-name="Trazado 194653" d="M433.446,184.289l-46.759-27a3.224,3.224,0,0,0-3.361-.237,3.526,3.526,0,0,1,2.8.493l46.758,27c2.806,1.62,5.082,5.967,5.082,9.709h0c0,2.021-.667,3.445-1.72,4.078,1.375-.418,2.283-1.972,2.283-4.334h0C438.528,190.257,436.253,185.91,433.446,184.289Z" transform="translate(-381.044 -124.792)" fill="#fff"/>
          </g>
          <path id="Trazado_194654" data-name="Trazado 194654" d="M431.507,193.1l-5.622-3.243a2.423,2.423,0,0,1-1.012-1.935h0c0-.746.453-1.089,1.012-.766l5.622,3.243a2.425,2.425,0,0,1,1.012,1.935h0C432.519,193.082,432.066,193.425,431.507,193.1Z" transform="translate(-386.67 -121.48)" fill="#ff2c9c"/>
        </g>
        <g id="Grupo_152049" data-name="Grupo 152049" transform="translate(45.541 30.01)">
          <path id="Trazado_194655" data-name="Trazado 194655" d="M439.839,149.625c1.469-.869,1.455-2.252-.033-3.091a5.916,5.916,0,0,0-5.353.056c-1.47.869-1.455,2.253.032,3.091A5.918,5.918,0,0,0,439.839,149.625Z" transform="translate(-433.361 -145.922)" fill="#5793ce"/>
          <path id="Trazado_194656" data-name="Trazado 194656" d="M449.274,154.942c1.47-.869,1.455-2.253-.032-3.091a5.918,5.918,0,0,0-5.353.056c-1.469.869-1.455,2.252.033,3.091A5.916,5.916,0,0,0,449.274,154.942Z" transform="translate(-434.639 -146.642)" fill="#fff"/>
          <path id="Trazado_194657" data-name="Trazado 194657" d="M458.71,160.259c1.469-.869,1.454-2.253-.033-3.091a5.916,5.916,0,0,0-5.352.056c-1.47.869-1.455,2.252.032,3.09A5.915,5.915,0,0,0,458.71,160.259Z" transform="translate(-435.917 -147.362)" fill="#fff"/>
        </g>
      </g>
      <path id="Trazado_194658" data-name="Trazado 194658" d="M524.559,248.267a1.1,1.1,0,0,1-1.1-1.1V233.044a1.1,1.1,0,0,1,.551-.955l12.23-7.061a1.1,1.1,0,0,1,1.653.955V240.1a1.1,1.1,0,0,1-.551.954l-12.23,7.061A1.1,1.1,0,0,1,524.559,248.267Zm1.1-14.586v11.576l10.026-5.788V227.892Zm11.128,6.424h0Z" transform="translate(-237.764 -49.85)" fill="#fff"/>
    </g>
  </g>
</svg>
