<svg xmlns="http://www.w3.org/2000/svg" xmlns:xlink="http://www.w3.org/1999/xlink" width="1010" height="669.949" viewBox="0 0 1010 669.949">
  <defs>
    <clipPath id="clip-path">
      <rect id="Rectángulo_264399" data-name="Rectángulo 264399" width="295" height="295" fill="none"/>
    </clipPath>
  </defs>
  <g id="Grupo_712076" data-name="Grupo 712076" transform="translate(-284.506 -21055.262)">
    <g id="Grupo_710357" data-name="Grupo 710357" transform="translate(85 88.212)">
      <path id="Trazado_466137" data-name="Trazado 466137" d="M-4780.931,9933.786h31.962l10.958,4.815v324.337s1.857,4.226,9.208,6.25,20.723,1.39,20.723,1.39" transform="translate(5323.244 11359.326)" fill="none" stroke="#1565c0" stroke-width="3"/>
      <path id="Trazado_466138" data-name="Trazado 466138" d="M-4780.931,10258.183h31.962l10.958-4.637V9941.233s1.857-4.068,9.208-6.018,20.723-1.338,20.723-1.338" transform="translate(5323.244 11034.816)" fill="none" stroke="#1565c0" stroke-width="3"/>
      <text id="Responsabilidades_y_procedimiento._Se_deberían_establecer_los_procedimientos_y_sus_responsables_en_la_gestión_en_la_búsqueda_de_garantizar_una_respuesta_rápida_eficaz_y_ordenada_a_los_incidentes_que_pudiesen_presentarse._Responsabilidades_y_procedimient" data-name="Responsabilidades y procedimiento. Se deberían establecer los procedimientos y sus responsables en la gestión, en la búsqueda de garantizar una respuesta rápida, eficaz y ordenada a los incidentes que pudiesen presentarse.

Responsabilidades y procedimient" transform="translate(622.506 20983)" fill="#12263f" font-size="15" font-family="Roboto-Bold, Roboto" font-weight="700"><tspan x="0" y="16">Responsabilidades y procedimiento.</tspan><tspan y="16" xml:space="preserve" font-family="Roboto-Regular, Roboto" font-weight="400"> Se deberían establecer los procedimientos y sus </tspan><tspan x="0" y="41" font-family="Roboto-Regular, Roboto" font-weight="400">responsables en la gestión, en la búsqueda de garantizar una respuesta rápida, eficaz y </tspan><tspan x="0" y="66" font-family="Roboto-Regular, Roboto" font-weight="400">ordenada a los incidentes que pudiesen presentarse.</tspan><tspan font-family="Roboto-Regular, Roboto" font-weight="400"><tspan x="0" y="91"></tspan></tspan><tspan x="0" y="116">Responsabilidades y procedimiento.</tspan><tspan y="116" xml:space="preserve" font-family="Roboto-Regular, Roboto" font-weight="400"> Se deberían establecer los procedimientos y sus </tspan><tspan x="0" y="141" font-family="Roboto-Regular, Roboto" font-weight="400">responsables en la gestión, en la búsqueda de garantizar una respuesta rápida, eficaz y </tspan><tspan x="0" y="166" font-family="Roboto-Regular, Roboto" font-weight="400">ordenada a los incidentes que pudiesen presentarse.</tspan><tspan font-family="Roboto-Regular, Roboto" font-weight="400"><tspan x="0" y="191"></tspan></tspan><tspan x="0" y="216">Notificación de puntos débiles o vulnerables.</tspan><tspan y="216" xml:space="preserve" font-family="Roboto-Regular, Roboto" font-weight="400"> Se debería requerir que, una vez se </tspan><tspan x="0" y="241" font-family="Roboto-Regular, Roboto" font-weight="400">identifique alguna debilidad, se documente e informe tanto a los empleados como a los </tspan><tspan x="0" y="266" font-family="Roboto-Regular, Roboto" font-weight="400">contratistas y terceros que utilizan los sistemas y servicios de la organización.</tspan><tspan font-family="Roboto-Regular, Roboto" font-weight="400"><tspan x="0" y="291"></tspan></tspan><tspan x="0" y="316">Valoración de los incidentes de seguridad de la información y toma de decisiones.</tspan><tspan y="316" xml:space="preserve" font-family="Roboto-Regular, Roboto" font-weight="400"> Si </tspan><tspan x="0" y="341" font-family="Roboto-Regular, Roboto" font-weight="400">se presentan incidentes, estos deben ser analizados y categorizados o clasificados </tspan><tspan x="0" y="366" font-family="Roboto-Regular, Roboto" font-weight="400">según su grado de impacto o afectación a los servicios.</tspan><tspan font-family="Roboto-Regular, Roboto" font-weight="400"><tspan x="0" y="391"></tspan></tspan><tspan x="0" y="416">Respuesta a los incidentes de seguridad.</tspan><tspan y="416" xml:space="preserve" font-family="Roboto-Regular, Roboto" font-weight="400"> Se debería responder, ante los incidentes de </tspan><tspan x="0" y="441" font-family="Roboto-Regular, Roboto" font-weight="400">seguridad, de acuerdo con los procedimientos establecidos.</tspan><tspan font-family="Roboto-Regular, Roboto" font-weight="400"><tspan x="0" y="466"></tspan></tspan><tspan x="0" y="491">Aprendizaje de los incidentes de seguridad de la información. </tspan><tspan y="491" font-family="Roboto-Regular, Roboto" font-weight="400">Se debería utilizar el </tspan><tspan x="0" y="516" font-family="Roboto-Regular, Roboto" font-weight="400">conocimiento obtenido en el análisis y la resolución de incidentes para reducir la </tspan><tspan x="0" y="541" font-family="Roboto-Regular, Roboto" font-weight="400">probabilidad y/o impacto de incidentes en el futuro.</tspan><tspan font-family="Roboto-Regular, Roboto" font-weight="400"><tspan x="0" y="566"></tspan></tspan><tspan x="0" y="591">Recopilación de evidencias.</tspan><tspan y="591" xml:space="preserve" font-family="Roboto-Regular, Roboto" font-weight="400"> La organización debería definir y aplicar los procedimientos </tspan><tspan x="0" y="616" font-family="Roboto-Regular, Roboto" font-weight="400">necesarios para la identificación, recopilación, adquisición y preservación de la </tspan><tspan x="0" y="641" font-family="Roboto-Regular, Roboto" font-weight="400">información que puede servir de evidencia.</tspan></text>
      <path id="Path_174439" data-name="Path 174439" d="M5.127,0,0,8.88H10.253Z" transform="translate(605.959 21002.148) rotate(-150)" fill="#ff2c9c"/>
      <path id="Path_174439-2" data-name="Path 174439" d="M5.127,0,0,8.88H10.253Z" transform="translate(605.959 21100.148) rotate(-150)" fill="#ff2c9c"/>
      <path id="Path_174439-3" data-name="Path 174439" d="M5.127,0,0,8.88H10.253Z" transform="translate(605.959 21202.148) rotate(-150)" fill="#ff2c9c"/>
      <path id="Path_174439-4" data-name="Path 174439" d="M5.127,0,0,8.88H10.253Z" transform="translate(605.959 21299.521) rotate(-150)" fill="#ff2c9c"/>
      <path id="Path_174439-5" data-name="Path 174439" d="M5.127,0,0,8.88H10.253Z" transform="translate(605.959 21401.09) rotate(-150)" fill="#ff2c9c"/>
      <path id="Path_174439-6" data-name="Path 174439" d="M5.127,0,0,8.88H10.253Z" transform="translate(605.959 21474.375) rotate(-150)" fill="#ff2c9c"/>
      <path id="Path_174439-7" data-name="Path 174439" d="M5.127,0,0,8.88H10.253Z" transform="translate(605.959 21576.629) rotate(-150)" fill="#ff2c9c"/>
    </g>
    <g id="Grupo_711968" data-name="Grupo 711968" transform="translate(0.494 18315.273)">
      <path id="Trazado_468220" data-name="Trazado 468220" d="M4,0H293.182a4,4,0,0,1,4,4V83.357a4,4,0,0,1-4,4H4a4,4,0,0,1-4-4V4A4,4,0,0,1,4,0Z" transform="translate(284.013 3148)" fill="#e1edf7"/>
      <text id="Dominio_12._Gestión_de_incidentes_de_seguridad_y_mejoras." data-name="Dominio 12. 
Gestión de incidentes de seguridad y mejoras." transform="translate(303.012 3156)" fill="#12263f" font-size="16" font-family="Roboto-Bold, Roboto" font-weight="700"><tspan x="86.609" y="17">Dominio 12. </tspan><tspan x="3.48" y="41">Gestión de incidentes de seguridad </tspan><tspan x="92.613" y="65">y mejoras.</tspan></text>
    </g>
    <g id="Grupo_711969" data-name="Grupo 711969" transform="translate(-53.084 21139.691)">
      <g id="Grupo_711972" data-name="Grupo 711972" transform="translate(338.084 0.297)">
        <g id="Grupo_711971" data-name="Grupo 711971" clip-path="url(#clip-path)">
          <path id="Trazado_468259" data-name="Trazado 468259" d="M633.418,147.667A147.667,147.667,0,1,1,485.751,0,147.667,147.667,0,0,1,633.418,147.667" transform="translate(-338.084 -0.334)" fill="#ede4f1"/>
          <path id="Trazado_468260" data-name="Trazado 468260" d="M338.655,153.065a5.072,5.072,0,0,1,3.284-6.378c2.668-.855,13.794.909,13.794.909s-8.034,7.9-10.7,8.753a5.072,5.072,0,0,1-6.378-3.284" transform="translate(-338.044 17.752)" fill="#d1c6e2"/>
          <path id="Trazado_468261" data-name="Trazado 468261" d="M342.338,153.216a.356.356,0,0,1-.109-.694l47.194-15.115a.356.356,0,0,1,.217.675L342.447,153.2a.361.361,0,0,1-.109.017" transform="translate(-337.603 16.633)" fill="#f7f1eb"/>
          <path id="Trazado_468262" data-name="Trazado 468262" d="M352.85,161.966a4.185,4.185,0,0,1-.675-5.878c1.437-1.81,9.872-5.7,9.872-5.7s-1.883,9.1-3.32,10.9a4.185,4.185,0,0,1-5.878.675" transform="translate(-336.456 18.237)" fill="#d1c6e2"/>
          <path id="Trazado_468263" data-name="Trazado 468263" d="M354.913,160.106a.355.355,0,0,1-.355-.356.36.36,0,0,1,.076-.221l12.914-16.257a.356.356,0,0,1,.558.443l-12.915,16.257a.356.356,0,0,1-.279.135" transform="translate(-336.05 17.342)" fill="#f7f1eb"/>
          <path id="Trazado_468264" data-name="Trazado 468264" d="M357.618,139.944c2.41.692,12.311-1.189,12.311-1.189s-7.4-6.845-9.806-7.537a4.539,4.539,0,1,0-2.505,8.726" transform="translate(-336.078 15.848)" fill="#d1c6e2"/>
          <path id="Trazado_468265" data-name="Trazado 468265" d="M378.419,141.221a.33.33,0,0,1-.1-.015l-19.957-5.729a.356.356,0,0,1,.2-.684l19.957,5.73a.356.356,0,0,1-.1.7" transform="translate(-335.611 16.31)" fill="#f7f1eb"/>
          <path id="Trazado_468266" data-name="Trazado 468266" d="M360.213,100.14c2.255,2.6,5.637,16.029,5.637,16.029s-12.807-5.26-15.059-7.862a6.236,6.236,0,0,1,9.425-8.169" transform="translate(-336.703 11.766)" fill="#d1c6e2"/>
          <path id="Trazado_468267" data-name="Trazado 468267" d="M394.208,149.353a.358.358,0,0,1-.27-.122L354.054,103.2a.356.356,0,1,1,.539-.466l39.885,46.035a.356.356,0,0,1-.27.589" transform="translate(-336.123 12.337)" fill="#f7f1eb"/>
          <path id="Trazado_468268" data-name="Trazado 468268" d="M354.871,116.073c2.739.75,11.212,8.4,11.212,8.4s-11.19,2.267-13.929,1.517a5.143,5.143,0,0,1,2.6-9.951l.113.031" transform="translate(-336.821 13.975)" fill="#d1c6e2"/>
          <path id="Trazado_468269" data-name="Trazado 468269" d="M377.369,127.54a.389.389,0,0,1-.094-.012l-24.612-6.742a.356.356,0,1,1,.188-.686l24.613,6.741a.356.356,0,0,1-.093.7" transform="translate(-336.316 14.496)" fill="#f7f1eb"/>
          <path id="Trazado_468270" data-name="Trazado 468270" d="M375.3,114.614c.383,3.057,7.29,13.34,7.29,13.34s4.164-11.667,3.781-14.724a5.579,5.579,0,0,0-11.071,1.384" transform="translate(-333.492 13.057)" fill="#e6d0be"/>
          <path id="Trazado_468271" data-name="Trazado 468271" d="M383.437,139.1a.356.356,0,0,1-.353-.312l-3.166-25.322a.355.355,0,1,1,.706-.088l3.167,25.322a.357.357,0,0,1-.309.4l-.045,0" transform="translate(-332.918 13.629)" fill="#f7f1eb"/>
          <rect id="Rectángulo_264389" data-name="Rectángulo 264389" width="231.59" height="164.224" transform="translate(34.02 51.551)" fill="#9588c0"/>
          <path id="Trazado_468352" data-name="Trazado 468352" d="M0,0H217.059V135.617H0Z" transform="translate(41.286 58.816)" fill="#ede4f1"/>
          <path id="Trazado_468272" data-name="Trazado 468272" d="M450.489,195.452h6.857a9.316,9.316,0,0,0,9.316,9.316h16.418a9.316,9.316,0,0,0,9.316-9.316h6.855l6.857,36.437v3.047H443.632v-3.047Z" transform="translate(-325.05 23.802)" fill="#9588c0"/>
          <path id="Trazado_468273" data-name="Trazado 468273" d="M506.14,234.38H443.672a.356.356,0,0,1,0-.711h62.469a.356.356,0,0,1,0,.711" transform="translate(-325.089 28.522)" fill="#d3bba3"/>
          <path id="Trazado_468274" data-name="Trazado 468274" d="M525.965,139.136H524.1a17.175,17.175,0,0,0-.709-2.651l1.62-.934-3.16-5.476-1.62.935a17.669,17.669,0,0,0-1.94-1.939l.936-1.62-5.476-3.161-.934,1.62a17.311,17.311,0,0,0-2.651-.709v-1.868h-6.323V125.2a17.313,17.313,0,0,0-2.651.709l-.934-1.62-5.476,3.161.935,1.62a17.756,17.756,0,0,0-1.939,1.939l-1.62-.935-3.161,5.476,1.62.934a17.441,17.441,0,0,0-.709,2.651h-1.868v6.323H489.9a17.441,17.441,0,0,0,.709,2.651l-1.62.934,3.161,5.475,1.62-.935a17.756,17.756,0,0,0,1.939,1.939l-.935,1.62,5.476,3.161.934-1.62a17.313,17.313,0,0,0,2.651.709v1.868h6.323v-1.868a17.311,17.311,0,0,0,2.651-.709l.934,1.62,5.476-3.161-.936-1.62a17.67,17.67,0,0,0,1.94-1.939l1.62.935,3.16-5.475-1.62-.934a17.175,17.175,0,0,0,.709-2.651h1.868Zm-8.5,3.5a10.515,10.515,0,1,1,0-.608c.006.2.006.406,0,.608" transform="translate(-319.567 14.896)" fill="#fff"/>
          <path id="Trazado_468275" data-name="Trazado 468275" d="M506.475,155.942a14.188,14.188,0,0,1-2.123-28.218.356.356,0,0,1,.1.7,13.476,13.476,0,1,0,15.063,16.721.356.356,0,0,1,.692.169l0,.01a14.183,14.183,0,0,1-13.732,10.612" transform="translate(-319.043 15.438)" fill="#f2e6dc"/>
          <path id="Trazado_468276" data-name="Trazado 468276" d="M449.411,70.973h-1.448a13.223,13.223,0,0,0-.549-2.055l1.253-.724-2.449-4.243-1.256.726a13.46,13.46,0,0,0-1.5-1.5l.725-1.256-4.243-2.449-.724,1.253a13.387,13.387,0,0,0-2.055-.549V58.724h-4.9v1.448a13.389,13.389,0,0,0-2.055.549l-.724-1.253-4.243,2.449.726,1.256a13.375,13.375,0,0,0-1.5,1.5l-1.255-.726-2.45,4.243,1.253.724a13.35,13.35,0,0,0-.549,2.055h-1.448v4.9h1.448a13.419,13.419,0,0,0,.549,2.055l-1.253.724,2.45,4.243,1.255-.725a13.556,13.556,0,0,0,1.5,1.5l-.726,1.256,4.243,2.449.724-1.253a13.389,13.389,0,0,0,2.055.549v1.448h4.9V86.674a13.387,13.387,0,0,0,2.055-.549l.724,1.253,4.243-2.449-.725-1.256a13.546,13.546,0,0,0,1.5-1.5l1.256.725,2.449-4.243-1.253-.724a13.419,13.419,0,0,0,.549-2.055h1.448Zm-6.584,2.715a8.149,8.149,0,1,1,0-.471c0,.156,0,.313,0,.471" transform="translate(-327.967 6.918)" fill="#d1c6e2"/>
          <path id="Trazado_468277" data-name="Trazado 468277" d="M434.315,84.084a11.074,11.074,0,0,1-1.658-22.024.356.356,0,0,1,.107.7,10.363,10.363,0,1,0,11.582,12.857.356.356,0,0,1,.691.169l0,.01a11.072,11.072,0,0,1-10.718,8.285" transform="translate(-327.568 7.33)" fill="#f2e6dc"/>
          <path id="Trazado_468278" data-name="Trazado 468278" d="M403.861,32.446a15.526,15.526,0,1,0-31.052.018V43.893H376.4V32.464a11.934,11.934,0,1,1,23.869-.018Z" transform="translate(-333.796 1.757)" fill="#f59b1d"/>
          <path id="Trazado_468279" data-name="Trazado 468279" d="M372.98,44.313a.356.356,0,0,1-.356-.356V32.143a15.735,15.735,0,0,1,29.849-6.953.356.356,0,1,1-.63.331l-.008-.017a15.023,15.023,0,0,0-28.5,6.636V43.955a.356.356,0,0,1-.356.356" transform="translate(-333.819 1.693)" fill="#363e44"/>
          <rect id="Rectángulo_264391" data-name="Rectángulo 264391" width="54.915" height="41.124" transform="translate(27.019 45.983)" fill="#f59b1d"/>
          <path id="Trazado_468280" data-name="Trazado 468280" d="M362.172,64.05a.356.356,0,0,1-.356-.356V41.265a.355.355,0,0,1,.356-.355h19.6a.356.356,0,0,1,0,.711H362.528V63.7a.356.356,0,0,1-.356.356" transform="translate(-335.153 4.718)" fill="#363e44"/>
          <path id="Trazado_468281" data-name="Trazado 468281" d="M413.694,80.968H389.654a.356.356,0,1,1,0-.711h23.686V55.672a.356.356,0,0,1,.712,0V80.612A.356.356,0,0,1,413.694,80.968Z" transform="translate(-331.76 6.497)" fill="#363e44"/>
          <path id="Trazado_468282" data-name="Trazado 468282" d="M392.187,54.983a5.03,5.03,0,1,0-6.678,4.748l-.8,11.644H389.6l-.8-11.644a5.029,5.029,0,0,0,3.382-4.749" transform="translate(-332.645 5.835)" fill="#363e44"/>
          <path id="Trazado_468283" data-name="Trazado 468283" d="M404.8,33.321a.356.356,0,0,1-.11-.694l13.24-4.3a.356.356,0,1,1,.266.659.316.316,0,0,1-.046.016l-13.241,4.3a.37.37,0,0,1-.11.018" transform="translate(-329.889 3.161)" fill="#363e44"/>
          <path id="Trazado_468284" data-name="Trazado 468284" d="M417.615,34.625h-9.346a.356.356,0,1,1,0-.711h9.346a.356.356,0,1,1,0,.711" transform="translate(-329.461 3.854)" fill="#363e44"/>
          <path id="Trazado_468285" data-name="Trazado 468285" d="M417.733,38.923a.343.343,0,0,1-.067-.007l-10.391-2.075a.356.356,0,1,1,.139-.7L417.8,38.219a.356.356,0,0,1-.067.7" transform="translate(-329.575 4.129)" fill="#363e44"/>
          <path id="Trazado_468286" data-name="Trazado 468286" d="M583.25,169.193l-54.432-25.308,16.223-34.894,39.392-13.534,15.042,38.84Z" transform="translate(-314.531 11.454)" fill="#9588c0"/>
          <path id="Trazado_468287" data-name="Trazado 468287" d="M581.5,164.55l-49.005-22.783L547.1,110.352l35.463-12.183L596.1,133.137Z" transform="translate(-314.077 11.789)" fill="#9588c0"/>
          <path id="Trazado_468288" data-name="Trazado 468288" d="M583.25,167.705,528.818,142.4,545.042,107.5l16.149,36.459,38.285-11.153Z" transform="translate(-314.531 12.942)" fill="#9588c0"/>
          <path id="Trazado_468289" data-name="Trazado 468289" d="M583.29,168.1a.367.367,0,0,1-.151-.033L528.708,142.76a.356.356,0,0,1-.172-.473l16.223-34.894a.356.356,0,0,1,.648.007l16.023,36.175,37.983-11.065a.356.356,0,0,1,.422.492L583.612,167.9a.356.356,0,0,1-.322.2m-53.962-25.836,53.79,25.013,15.742-33.861L561.327,144.35a.355.355,0,0,1-.425-.2L545.07,108.409Z" transform="translate(-314.57 12.903)" fill="#fff"/>
          <path id="Trazado_468290" data-name="Trazado 468290" d="M589.787,137.357l8.382-20.013-5.484-8.25-1.928-9.746L560.8,86.8l-13.691,32.681,7.653,17.585,4.743,9.015L570.185,143Z" transform="translate(-312.272 10.385)" fill="#d1c6e2"/>
          <path id="Trazado_468291" data-name="Trazado 468291" d="M587.737,115.646a.349.349,0,0,1-.135-.028l-15.087-6.32a.356.356,0,1,1,.275-.656l15.087,6.32a.356.356,0,0,1-.135.684" transform="translate(-309.162 13.079)" fill="#fff"/>
          <path id="Trazado_468292" data-name="Trazado 468292" d="M570.671,108.5a.349.349,0,0,1-.135-.028l-8.646-3.621a.356.356,0,0,1,.275-.656l8.646,3.621a.356.356,0,0,1-.135.684" transform="translate(-310.473 12.529)" fill="#fff"/>
          <path id="Trazado_468293" data-name="Trazado 468293" d="M584.664,120.667a.349.349,0,0,1-.135-.028l-7.584-3.176a.356.356,0,0,1,.275-.656l7.584,3.176a.356.356,0,0,1-.135.684" transform="translate(-308.614 14.087)" fill="#fff"/>
          <path id="Trazado_468294" data-name="Trazado 468294" d="M575.926,117.008a.349.349,0,0,1-.135-.028l-16.15-6.765a.356.356,0,0,1,.275-.657l16.15,6.766a.355.355,0,0,1-.135.683" transform="translate(-310.751 13.192)" fill="#fff"/>
          <path id="Trazado_468295" data-name="Trazado 468295" d="M579.617,124.862a.349.349,0,0,1-.135-.028l-22.089-9.252a.356.356,0,1,1,.275-.657l22.089,9.253a.355.355,0,0,1-.135.683" transform="translate(-311.029 13.855)" fill="#fff"/>
          <path id="Trazado_468296" data-name="Trazado 468296" d="M581.237,110.639l12.684,5.313-7.371-18Z" transform="translate(-308.057 11.763)" fill="#fff"/>
          <path id="Trazado_468297" data-name="Trazado 468297" d="M576.307,151.424,566.665,126.5l-25.272,8.692Z" transform="translate(-312.978 15.288)" fill="#9588c0"/>
          <path id="Trazado_468298" data-name="Trazado 468298" d="M583.29,165.755a.356.356,0,0,1-.333-.227l-14.91-38.541-39.076,13.44a.356.356,0,1,1-.231-.674l39.4-13.554a.355.355,0,0,1,.447.208l15.033,38.86a.358.358,0,0,1-.206.461.347.347,0,0,1-.126.024" transform="translate(-314.57 15.248)" fill="#fff"/>
          <path id="Trazado_468299" data-name="Trazado 468299" d="M522.3,103.224a.383.383,0,0,1-.146-.031.358.358,0,0,1-.186-.2L499.59,44.645a.357.357,0,0,1,.2-.461l33.924-13.009a.358.358,0,0,1,.333.04l9.036,6.352,10.744,2.416a.353.353,0,0,1,.253.219l16.877,44a.356.356,0,0,1-.2.459L522.428,103.2a.354.354,0,0,1-.128.024m-21.916-58.5,22.121,57.686,47.664-18.278L553.491,40.637l-10.627-2.39a.374.374,0,0,1-.126-.056L533.8,31.908Z" transform="translate(-318.143 3.513)" fill="#fff"/>
          <path id="Trazado_468300" data-name="Trazado 468300" d="M535.583,45.818l14.365-5.508-19.873-8.856Z" transform="translate(-314.375 3.55)" fill="#fff"/>
          <path id="Trazado_468301" data-name="Trazado 468301" d="M492.912,81.66,541.24,63.127l-16.876-44-10.812-2.43-9.092-6.4L470.535,23.309Z" transform="translate(-321.728 0.938)" fill="#d1c6e2"/>
          <path id="Trazado_468302" data-name="Trazado 468302" d="M506.233,24.649,520.6,19.141l-19.874-8.856Z" transform="translate(-318 0.936)" fill="#fff"/>
          <path id="Trazado_468303" data-name="Trazado 468303" d="M485.935,103.2l43.253-28.43L503.3,35.387l-11.081-.067-10.25-4.3L451.61,50.975Z" transform="translate(-324.065 3.497)" fill="#fff"/>
          <path id="Trazado_468304" data-name="Trazado 468304" d="M483.627,56.507a.356.356,0,0,1-.2-.654L498.725,45.8a.355.355,0,1,1,.39.594L483.823,56.449a.356.356,0,0,1-.2.058" transform="translate(-320.155 5.315)" fill="#9588c0"/>
          <path id="Trazado_468305" data-name="Trazado 468305" d="M472.857,63.115a.355.355,0,0,1-.2-.653l8.763-5.76a.356.356,0,1,1,.391.594l-8.763,5.76a.357.357,0,0,1-.2.06" transform="translate(-321.485 6.661)" fill="#9588c0"/>
          <path id="Trazado_468306" data-name="Trazado 468306" d="M493.972,56.949a.355.355,0,0,1-.2-.653l7.686-5.052a.356.356,0,1,1,.4.585l-.015.01-7.686,5.051a.354.354,0,0,1-.2.06" transform="translate(-318.878 5.987)" fill="#9588c0"/>
          <path id="Trazado_468307" data-name="Trazado 468307" d="M476.433,69.1a.355.355,0,0,1-.2-.653l16.37-10.76a.355.355,0,0,1,.39.594l-16.369,10.76a.357.357,0,0,1-.2.06" transform="translate(-321.043 6.783)" fill="#9588c0"/>
          <path id="Trazado_468308" data-name="Trazado 468308" d="M480.009,74.979a.355.355,0,0,1-.2-.653L502.2,59.609a.356.356,0,0,1,.391.6L480.2,74.92a.356.356,0,0,1-.2.058" transform="translate(-320.602 7.02)" fill="#9588c0"/>
          <path id="Trazado_468309" data-name="Trazado 468309" d="M487.074,43.863l12.856-8.451-21.307-4.405Z" transform="translate(-320.729 3.495)" fill="#c8bfd6"/>
          <rect id="Rectángulo_264392" data-name="Rectángulo 264392" width="24.731" height="80.298" transform="matrix(0.837, -0.548, 0.548, 0.837, 148.635, 81.796)" fill="#9588c0"/>
          <rect id="Rectángulo_264393" data-name="Rectángulo 264393" width="23.719" height="80.298" transform="translate(147.572 82.771) rotate(-33.213)" fill="#fff"/>
          <rect id="Rectángulo_264394" data-name="Rectángulo 264394" width="47.833" height="82.673" transform="matrix(0.837, -0.548, 0.548, 0.837, 120.494, 99.397)" fill="#9588c0"/>
          <rect id="Rectángulo_264395" data-name="Rectángulo 264395" width="6.968" height="38.702" transform="translate(158.449 74.587) rotate(-33.211)" fill="#9588c0"/>
          <path id="Trazado_468339" data-name="Trazado 468339" d="M540.905,199.772l20.156-3.659-26.8-8.063a96.956,96.956,0,0,1-6.635-21.768,81.953,81.953,0,0,1,11.658.421L551.5,187.25l-1.121-18.727a62.958,62.958,0,0,1,17.278,6.6q1.168.676,2.242,1.407l2.53,28.321,7.369-17.944c4.745,8.176,4.4,17.084.169,22.244-6.48,7.917-23.144,8.4-35.786-5.36a45.692,45.692,0,0,1-3.277-4.019" transform="translate(-314.678 20.194)" fill="#c2b5d9"/>
          <path id="Trazado_468340" data-name="Trazado 468340" d="M538,166.651a88.667,88.667,0,0,1,11.1,1.822l1.121,18.726Z" transform="translate(-313.397 20.246)" fill="#5a53a2"/>
          <path id="Trazado_468341" data-name="Trazado 468341" d="M565.253,175.4a32.042,32.042,0,0,1,9.9,10.377l-7.37,17.943Z" transform="translate(-310.031 21.326)" fill="#5a53a2"/>
          <path id="Trazado_468342" data-name="Trazado 468342" d="M540.175,197.373a64.583,64.583,0,0,1-6.648-11.721l26.8,8.062Z" transform="translate(-313.949 22.592)" fill="#5a53a2"/>
          <path id="Trazado_468343" data-name="Trazado 468343" d="M582.538,233.958a.354.354,0,0,1-.351-.3,70.829,70.829,0,0,0-11.469-29.09,69.934,69.934,0,0,0-18.183-18.181.357.357,0,1,1,.406-.586,70.647,70.647,0,0,1,18.366,18.366,71.526,71.526,0,0,1,11.584,29.385.355.355,0,0,1-.3.406.433.433,0,0,1-.054,0" transform="translate(-311.621 22.602)" fill="#776e42"/>
          <path id="Trazado_468344" data-name="Trazado 468344" d="M571.211,193.55l12.8,5.835-12.555-16.633a90.226,90.226,0,0,1,3.718-17.687,54.657,54.657,0,0,1,6.527,5.116l-.1,19.164,5.825-13.318a50.255,50.255,0,0,1,7.609,11.685q.435.95.8,1.894L587.5,210.094l10.414-9.265c-.107,7.577-3.383,13.546-7.584,15.338-6.443,2.749-16.147-3.821-18.632-18.5-.229-1.355-.388-2.732-.488-4.119" transform="translate(-309.296 20.05)" fill="#c2b5d9"/>
          <path id="Trazado_468345" data-name="Trazado 468345" d="M580.558,169.618a63.768,63.768,0,0,1,5.724,5.847l-5.825,13.318Z" transform="translate(-308.154 20.612)" fill="#5a53a2"/>
          <path id="Trazado_468346" data-name="Trazado 468346" d="M594.042,186.907a30.058,30.058,0,0,1,2.083,11.223l-10.414,9.264Z" transform="translate(-307.505 22.747)" fill="#5a53a2"/>
          <path id="Trazado_468347" data-name="Trazado 468347" d="M571.225,191.607a62.052,62.052,0,0,1,.243-10.8l12.556,16.633Z" transform="translate(-309.31 21.994)" fill="#5a53a2"/>
          <path id="Trazado_468348" data-name="Trazado 468348" d="M582.952,234.367a.357.357,0,0,1-.357-.356.349.349,0,0,1,.02-.117,66.946,66.946,0,0,0,3.479-24.707,65.285,65.285,0,0,0-4.127-20,.356.356,0,0,1,.665-.252,65.969,65.969,0,0,1,4.173,20.218,67.662,67.662,0,0,1-3.518,24.977.358.358,0,0,1-.338.24" transform="translate(-307.97 22.969)" fill="#776e42"/>
          <rect id="Rectángulo_264397" data-name="Rectángulo 264397" width="32.892" height="36.2" transform="translate(257.781 245.801)" fill="#3f4979"/>
          <path id="Trazado_468349" data-name="Trazado 468349" d="M532.417,158.562,467.694,266.74H597.136Z" transform="translate(-322.079 19.247)" fill="#fff"/>
          <path id="Trazado_468350" data-name="Trazado 468350" d="M601.886,269.405H472.441a.355.355,0,0,1-.356-.355.344.344,0,0,1,.052-.184l64.721-108.178a.37.37,0,0,1,.515-.092.382.382,0,0,1,.093.092l64.721,108.178a.354.354,0,0,1-.12.488.35.35,0,0,1-.185.052m-128.815-.711H601.252L537.159,161.563Z" transform="translate(-321.536 19.49)" fill="#363e44"/>
          <path id="Trazado_468351" data-name="Trazado 468351" d="M536.494,236.852H524.183l-2.747-41.884h17.806Z" transform="translate(-315.442 23.743)" fill="#2b2870"/>
          <rect id="Rectángulo_264398" data-name="Rectángulo 264398" width="12.311" height="10.134" transform="translate(208.741 266.368)" fill="#2b2870"/>
          <g id="Grupo_711974" data-name="Grupo 711974" transform="translate(29.262 77.209)">
            <path id="Trazado_468222" data-name="Trazado 468222" d="M55.531,261.458c28,0,50.828-3.016,50.828-6.707s-22.831-6.712-50.828-6.712S4.7,251.054,4.7,254.75s22.831,6.707,50.834,6.707" transform="translate(-4.697 -43.667)" fill="#9588c0" fill-rule="evenodd"/>
            <path id="Trazado_468238" data-name="Trazado 468238" d="M26.915,255.335c-4.028-1.422-4.35-3.5-6.521-4.506-2.18-1.022-2.434-2.845-.3-4.817,1.578,1.261,3.541,2.813,4.578,1.99.69-.55,3.042-.514,3.5.286,2.045,4.756,4.891,3.245,5.451,5.415.067,2.876-4.864,2.279-6.712,1.628" transform="translate(-6.025 -43.473)" fill="#1b2452" fill-rule="evenodd"/>
            <path id="Trazado_468239" data-name="Trazado 468239" d="M64.176,255.795c-7.434-.125-12.989-.213-15.56-1.023-2.767-.878-2.2-2.565-.607-5.27,7.008,3.229,5.139-.659,8.42-.166q3.449,2.78,10.223,3.727c1.911,1.412,1.132,2.663-2.481,2.731" transform="translate(-8.7 -43.786)" fill="#1b2452" fill-rule="evenodd"/>
            <path id="Trazado_468240" data-name="Trazado 468240" d="M37.625,54.587c1.183.083,3.052-.143,3.384-.564a15.027,15.027,0,0,0,2.466-4.332c-.249-.7-.5-1.589-.773-2.658q-6.868-4.661-1.879-6.9,1.012.565,2.5,3.47a2.035,2.035,0,0,0,1.8-1.215,60.311,60.311,0,0,1-1.843-7.972C45.54,31.072,50.8,30.594,57.783,31.5c.327,1.858.587,3.826.794,5.9,1.236,1.137,1.08,5.353-.062,10.209q.856,4.143-5.114,4.523a10.743,10.743,0,0,0,.1,2.318,1.719,1.719,0,0,0,.944.592q.194,6.84-16.82-.452" transform="translate(-7.837 -22.98)" fill="#fab688" fill-rule="evenodd"/>
            <path id="Trazado_468241" data-name="Trazado 468241" d="M57.348,30.643c-6.982-.9-12.246-.426-14.505,2.923a60.167,60.167,0,0,0,1.843,7.972,2.039,2.039,0,0,1-1.8,1.215q-1.487-2.905-2.5-3.47-4.984,2.235,1.879,6.9c.271,1.069.525,1.957.773,2.658-4.117-.924-7.558-4.6-8.041-6.193-4.8-9.462.55-13.458,3.416-14.915,1.266-9.37,14.868-1.086,21.684-5.6,2.714,3.743-.639,8.436-2.752,8.519" transform="translate(-7.403 -22.125)" fill="#733e19" fill-rule="evenodd"/>
            <path id="Trazado_468242" data-name="Trazado 468242" d="M97.542,73.656q-5.178,22.185-18.2,34.432a16.254,16.254,0,0,1-8.323-6.414q.187,16.046-.8,31.94-9.508,4.5-25.24-.582l-4.252-5.241c-1.09-.213-3.572,1-4.76,2.832-9.962-7.6-16.68-15.766-20.641-23.883q1.6-26.153,7.107-41.272,2.78-4.279,13.067-8.413,17.023,7.3,16.82.457A102.808,102.808,0,0,1,65.6,63.327q6.9,5.241,11.753,28.415,7.9-9.9,16.384-20.988a7.973,7.973,0,0,1,3.8,2.895m-59.1,49.409q4.953-16.284-5.472-40.184Q30.353,94.667,27.3,106.084q3.535,1.681,11.141,16.973" transform="translate(-5.711 -25.456)" fill="#f59b1d" fill-rule="evenodd"/>
            <path id="Trazado_468243" data-name="Trazado 468243" d="M37.721,144.972q2.414-.186,7.78-4.184,15.741,5.085,25.24.582c1.122,17.838-3.257,36.537-8.826,57.375C56.469,207.9,56.7,214.329,53.8,235.437q-2.414,1.729-7.994-.5c-1.176-18-.362-29.918,4.309-36.638-.732-6.038,1.183-20.875,1.267-30.188-3.4,7.579-5.731,17.812-10.155,28.148-5.389,12.584-9.147,26.054-11.992,38.333a13.154,13.154,0,0,1-8.457-1.033q4.532-30.283,10.042-41.692-.21-29.779,5.674-53.493a20.233,20.233,0,0,1,1.236,6.593" transform="translate(-6.23 -33.21)" fill="#1b2452" fill-rule="evenodd"/>
            <path id="Trazado_468244" data-name="Trazado 468244" d="M47.153,140.487q-5.357,3.995-7.78,4.184a20.233,20.233,0,0,0-1.236-6.593c1.189-1.837,3.67-3.045,4.76-2.832Z" transform="translate(-7.886 -32.909)" fill="#fab688" fill-rule="evenodd"/>
            <path id="Trazado_468245" data-name="Trazado 468245" d="M76.624,103.684a163.5,163.5,0,0,0-2.5-25.554q5.047,21.169,9.77,28.1,2.989-.1,7.569-3.543a52.794,52.794,0,0,1-6.513,7.418,16.254,16.254,0,0,1-8.323-6.414" transform="translate(-11.317 -27.465)" fill="#ea7924" fill-rule="evenodd"/>
            <path id="Trazado_468246" data-name="Trazado 468246" d="M42.585,130.515a41.971,41.971,0,0,0-2.29-4.727Q45.247,109.5,34.823,85.6q15.153,21.543,8.594,45.942Z" transform="translate(-7.57 -28.178)" fill="#ea7924" fill-rule="evenodd"/>
            <path id="Trazado_468247" data-name="Trazado 468247" d="M50,53.284a11.719,11.719,0,0,0,4.584.963,14.556,14.556,0,0,0,.031,1.884A7.2,7.2,0,0,1,50,53.283" transform="translate(-9.017 -25.096)" fill="#ed7d57" fill-rule="evenodd"/>
            <path id="Trazado_468248" data-name="Trazado 468248" d="M46.249,249.308a11.181,11.181,0,0,0,.421-3.971q4.251,1.527,6.494.53a7,7,0,0,0,.362,2.918c-2.58-.09-1.407,3.037-7.273.524m-18.741-1.744a3.665,3.665,0,0,0-2.623.244c-.935.732-2.6-.431-4.065-1.583a15.676,15.676,0,0,0,.628-2.29,12.967,12.967,0,0,0,5.565,1,5.353,5.353,0,0,0,.5,2.637" transform="translate(-6.235 -43.275)" fill="#fab688" fill-rule="evenodd"/>
            <path id="Trazado_468249" data-name="Trazado 468249" d="M39.394,147.76a14.815,14.815,0,0,0,.1-2.533q2.414-.186,7.78-4.184c.846.271,1.687.53,2.508.758a23.679,23.679,0,0,1-10.393,5.96" transform="translate(-8.005 -33.464)" fill="#3c3392" fill-rule="evenodd"/>
            <path id="Trazado_468250" data-name="Trazado 468250" d="M105.8,73.749c.213-.524,1.064-2.171,1.9-4.223q3.106-1.6,4.968-6.985a6.247,6.247,0,0,0-4.693-4.514,13.03,13.03,0,0,1-3.613,6.56q.592-4.657-1.538-2.917a2.05,2.05,0,0,1,.031,1.505q-1.44,2.352.26,5.363c-.436.9-.9,1.822-1.122,2.318a8.349,8.349,0,0,1,3.8,2.895" transform="translate(-13.975 -25.548)" fill="#fab688" fill-rule="evenodd"/>
          </g>
        </g>
      </g>
    </g>
  </g>
</svg>
