<svg id="Grupo_630020" data-name="Grupo 630020" xmlns="http://www.w3.org/2000/svg" width="73.516" height="46.06" viewBox="0 0 73.516 46.06">
  <path id="Trazado_219873" data-name="Trazado 219873" d="M-378.661,922.938c-.383.974-.392,2.029-.689,3.028a18.462,18.462,0,0,1-10.958,12.267,18.6,18.6,0,0,1-7.346,1.366q-20.523.025-41.045.07a12.767,12.767,0,0,1-11.742-6.5,12.872,12.872,0,0,1,9.386-19.13,12.3,12.3,0,0,1,1.713-.128c.428.007.548-.074.549-.54a19.389,19.389,0,0,1,6.632-14.9,19.591,19.591,0,0,1,25.925.087,19.243,19.243,0,0,1,3.459,4.093.64.64,0,0,0,.844.352,18.02,18.02,0,0,1,14.568,2.27A18.123,18.123,0,0,1-378.924,918a2.069,2.069,0,0,0,.263,1.063Z" transform="translate(452.177 -893.609)" fill="#ff2c9c"/>
</svg>
