<svg xmlns="http://www.w3.org/2000/svg" xmlns:xlink="http://www.w3.org/1999/xlink" width="426.075" height="465.179" viewBox="0 0 426.075 465.179">
  <defs>
    <linearGradient id="linear-gradient" x1="0.5" y1="1" x2="0.5" gradientUnits="objectBoundingBox">
      <stop offset="0" stop-color="#09a4b3"/>
      <stop offset="1" stop-color="#29c7cc"/>
    </linearGradient>
    <linearGradient id="linear-gradient-2" x1="0.5" y1="1" x2="0.5" gradientUnits="objectBoundingBox">
      <stop offset="0" stop-color="#364bb3"/>
      <stop offset="1" stop-color="#1f76cc"/>
    </linearGradient>
    <linearGradient id="linear-gradient-3" x1="1.125" y1="1.047" x2="1.125" y2="-0.006" xlink:href="#linear-gradient-2"/>
    <linearGradient id="linear-gradient-4" x1="-0.119" y1="1.034" x2="-0.119" y2="-0.007" xlink:href="#linear-gradient-2"/>
    <linearGradient id="linear-gradient-5" x1="0.5" y1="-0.442" x2="0.5" y2="1.553" gradientUnits="objectBoundingBox">
      <stop offset="0" stop-color="#ffaf99"/>
      <stop offset="0.956" stop-color="#ed6f5f"/>
    </linearGradient>
    <linearGradient id="linear-gradient-6" x1="2.212" y1="-0.442" x2="2.212" y2="1.553" xlink:href="#linear-gradient-5"/>
    <linearGradient id="linear-gradient-7" x1="0.5" y1="1.369" x2="0.5" y2="0.34" gradientUnits="objectBoundingBox">
      <stop offset="0.006" stop-color="#ffaf99"/>
      <stop offset="0.885" stop-color="#ed6f5f"/>
    </linearGradient>
    <linearGradient id="linear-gradient-8" x1="0.5" y1="0.203" x2="0.522" y2="1.716" gradientUnits="objectBoundingBox">
      <stop offset="0.006" stop-color="#ffaf99"/>
      <stop offset="0.924" stop-color="#ed6f5f"/>
    </linearGradient>
    <linearGradient id="linear-gradient-9" y1="0.5" x2="1" y2="0.5" gradientUnits="objectBoundingBox">
      <stop offset="0.006" stop-color="gray"/>
      <stop offset="1"/>
    </linearGradient>
    <linearGradient id="linear-gradient-10" x1="0.5" y1="0.08" x2="0.5" y2="1.695" xlink:href="#linear-gradient-9"/>
    <linearGradient id="linear-gradient-11" x1="0.5" y1="-0.087" x2="0.5" y2="0.98" gradientUnits="objectBoundingBox">
      <stop offset="0.025" stop-color="#ffb850"/>
      <stop offset="1" stop-color="#ffa540"/>
    </linearGradient>
    <linearGradient id="linear-gradient-12" x1="37.812" y1="238.225" x2="37.812" y2="240.801" gradientUnits="objectBoundingBox">
      <stop offset="0.006" stop-color="#ffaf99"/>
      <stop offset="1" stop-color="#ed6f5f"/>
    </linearGradient>
  </defs>
  <g id="Grupo_710276" data-name="Grupo 710276" transform="translate(-1012.545 -622.298)">
    <path id="Trazado_237748" data-name="Trazado 237748" d="M1208.549,801.049c.039-1.879-.677-2.67-2.372-3.255-5.09-1.756-10.167-3.578-15.146-5.62a6.014,6.014,0,0,1-2.849-2.977c-2.089-4.839-3.987-9.765-5.805-14.714a4.779,4.779,0,0,1,0-3.283c2.459-5.468,5.162-10.828,7.6-16.3a3.422,3.422,0,0,0-.405-3.041c-4.106-4.382-8.422-8.567-12.58-12.9a2.471,2.471,0,0,0-3.413-.552c-5.19,2.574-10.417,5.081-15.7,7.446a5.254,5.254,0,0,1-3.575.163q-7.584-2.731-15.017-5.876a5.565,5.565,0,0,1-2.834-2.614c-2.049-5.087-3.9-10.258-5.67-15.451-.57-1.664-1.243-2.471-3.185-2.423-5.8.143-11.61.132-17.412.006-1.895-.04-2.665.708-3.242,2.389-1.744,5.091-3.72,10.105-5.45,15.2a4.5,4.5,0,0,1-3.252,3.111c-4.791,1.662-9.523,3.54-14.131,5.654a4.537,4.537,0,0,1-4.488-.042c-5.083-2.559-10.269-4.918-15.359-7.465a2.658,2.658,0,0,0-3.677.641c-4.017,4.189-8.107,8.315-12.319,12.305-1.422,1.348-1.3,2.39-.534,3.948,2.523,5.1,5,10.235,7.281,15.447a5.281,5.281,0,0,1-.1,3.778q-3.178,7.41-6.79,14.63a6.224,6.224,0,0,1-2.932,2.906c-5.411,2.059-10.911,3.895-16.421,5.69-1.681.547-2.455,1.291-2.411,3.205.129,5.8.11,11.609.006,17.412a2.642,2.642,0,0,0,2.165,3.034c5.612,1.808,11.208,3.676,16.715,5.773a6.141,6.141,0,0,1,2.867,2.993c2.225,4.669,4.056,9.529,6.379,14.144a5,5,0,0,1,.11,5.074c-2.406,4.82-4.6,9.747-6.992,14.574-.785,1.582-.749,2.631.62,3.936q6.3,6.006,12.31,12.315c1.331,1.4,2.368,1.335,3.925.564,5.008-2.483,10.109-4.783,15.117-7.267a4.445,4.445,0,0,1,4.485.114c4.815,2.378,9.835,4.342,14.7,6.638a5.233,5.233,0,0,1,2.475,2.586c2.065,5.519,3.973,11.1,5.816,16.7a2.705,2.705,0,0,0,3.06,2.2c5.8-.1,11.611-.116,17.413.008,1.885.041,2.627-.638,3.186-2.377,1.77-5.514,3.66-11,5.721-16.407a5.687,5.687,0,0,1,2.743-2.757q7.443-3.476,15.075-6.54a5.039,5.039,0,0,1,3.549-.069c5.928,2.633,11.767,5.467,17.859,8.339,4.771-4.833,9.539-9.563,14.139-14.451a3.48,3.48,0,0,0,.276-3.088c-2.361-5.289-4.975-10.466-7.362-15.744a4.967,4.967,0,0,1-.235-3.346c1.8-5.17,3.7-10.307,5.781-15.37a5.514,5.514,0,0,1,2.713-2.768c5.085-2.057,10.253-3.92,15.438-5.718a2.716,2.716,0,0,0,2.135-3.088C1208.44,812.659,1208.427,806.851,1208.549,801.049Zm-89.709,42.617a33.933,33.933,0,1,1,33.975-33.895A33.82,33.82,0,0,1,1118.84,843.666Z" transform="translate(2.41 16.987)" fill="#ff7c48"/>
    <path id="Trazado_237749" data-name="Trazado 237749" d="M1397.5,729.24c.051-2.469-.89-3.507-3.116-4.274-6.688-2.308-13.356-4.7-19.9-7.384a7.9,7.9,0,0,1-3.743-3.911c-2.745-6.357-5.238-12.829-7.627-19.331a6.279,6.279,0,0,1,0-4.313c3.23-7.184,6.78-14.224,9.989-21.418a4.493,4.493,0,0,0-.533-3.994c-5.393-5.757-11.064-11.254-16.525-16.949-1.46-1.522-2.634-1.644-4.485-.725-6.818,3.381-13.685,6.675-20.631,9.781a6.9,6.9,0,0,1-4.7.215q-9.964-3.587-19.73-7.72a7.307,7.307,0,0,1-3.722-3.434c-2.693-6.683-5.12-13.477-7.45-20.3-.748-2.187-1.631-3.246-4.184-3.184-7.621.188-15.254.173-22.876.008-2.489-.053-3.5.929-4.259,3.138-2.293,6.69-4.888,13.275-7.16,19.971a5.907,5.907,0,0,1-4.273,4.087c-6.293,2.185-12.512,4.651-18.565,7.427a5.963,5.963,0,0,1-5.9-.054c-6.679-3.363-13.491-6.461-20.179-9.808-1.993-1-3.246-.809-4.831.843-5.276,5.5-10.649,10.924-16.185,16.166-1.869,1.771-1.715,3.139-.7,5.185,3.314,6.7,6.568,13.446,9.566,20.294a6.945,6.945,0,0,1-.127,4.963q-4.177,9.734-8.922,19.221a8.168,8.168,0,0,1-3.85,3.816c-7.109,2.7-14.336,5.117-21.573,7.477-2.208.72-3.225,1.7-3.169,4.211.172,7.622.147,15.252.01,22.876-.04,2.256.685,3.29,2.843,3.985,7.371,2.375,14.725,4.83,21.96,7.584a8.071,8.071,0,0,1,3.767,3.932c2.922,6.133,5.328,12.519,8.38,18.582a6.571,6.571,0,0,1,.146,6.665c-3.162,6.334-6.042,12.807-9.186,19.149-1.03,2.078-.984,3.455.815,5.17,5.518,5.261,10.926,10.647,16.172,16.179,1.748,1.844,3.111,1.754,5.156.741,6.581-3.263,13.281-6.284,19.861-9.547a5.843,5.843,0,0,1,5.892.149c6.327,3.125,12.922,5.706,19.306,8.722a6.869,6.869,0,0,1,3.251,3.4c2.713,7.251,5.219,14.583,7.641,21.937.7,2.121,1.749,2.923,4.02,2.885,7.624-.132,15.254-.154,22.876.01,2.477.053,3.452-.839,4.186-3.124,2.325-7.244,4.81-14.445,7.516-21.554a7.478,7.478,0,0,1,3.6-3.621q9.778-4.566,19.8-8.593a6.629,6.629,0,0,1,4.663-.091c7.789,3.46,15.461,7.183,23.464,10.956,6.268-6.349,12.532-12.564,18.575-18.986.753-.8.862-2.941.363-4.056-3.1-6.95-6.537-13.75-9.672-20.685a6.517,6.517,0,0,1-.308-4.395c2.358-6.792,4.865-13.542,7.594-20.193a7.236,7.236,0,0,1,3.564-3.636c6.682-2.7,13.47-5.15,20.281-7.511,2.127-.738,2.845-1.816,2.8-4.058C1397.357,744.493,1397.341,736.863,1397.5,729.24Zm-117.856,55.988a44.43,44.43,0,0,1-44.522-44.64c.015-24.9,19.885-44.567,44.98-44.515a44.578,44.578,0,0,1-.458,89.155Z" transform="translate(25.407 0)" fill="url(#linear-gradient)"/>
    <g id="Grupo_169627" data-name="Grupo 169627" transform="translate(1168.249 706.304)">
      <path id="Trazado_237750" data-name="Trazado 237750" d="M1223.966,761.681c-.775-6.769-.6-17.536,1.469-25.025,6.013-21.709.324-32.55-14.476-39.6-22.693-10.815-33.63,9-33.63,9-9.273-.581-11.672,15.047-5.483,30.02,2.984,7.222,2.348,18.671,1.553,25.612-1.338,11.679-22.387,9.89-28.284,28.909,0,0,42.785,8.476,45.58,9.042a112.259,112.259,0,0,0,15.976,0c2.8-.566,45.58-9.042,45.58-9.042C1246.353,771.571,1225.3,773.36,1223.966,761.681Z" transform="translate(-1145.116 -693.823)" fill="#1a1a1a"/>
    </g>
    <g id="Grupo_169628" data-name="Grupo 169628" transform="translate(1208.17 721.338)">
      <path id="Trazado_237751" data-name="Trazado 237751" d="M1225.813,780.391a.519.519,0,0,1-.187-.033c-17.032-6.237-12.924-25.66-9.625-41.268.87-4.117,1.694-8.005,2.05-11.293.512-4.724-.459-8.377-2.886-10.855-3.381-3.452-9.455-4.746-18.545-3.956-9.325.807-16.987-5.141-17.308-5.395a.542.542,0,0,1,.672-.851c.076.059,7.662,5.939,16.543,5.165,9.442-.821,15.792.578,19.413,4.278,2.666,2.721,3.738,6.668,3.19,11.73-.361,3.343-1.189,7.257-2.066,11.4-3.213,15.2-7.214,34.112,8.937,40.026a.542.542,0,0,1-.187,1.051Z" transform="translate(-1179.106 -706.623)" fill="#344fb5"/>
    </g>
    <g id="Grupo_169629" data-name="Grupo 169629" transform="translate(1188.444 722.226)">
      <path id="Trazado_237752" data-name="Trazado 237752" d="M1162.853,781.15a.543.543,0,0,1-.187-1.052c16.2-5.932,12.156-25.356,8.9-40.962-.862-4.141-1.677-8.052-2.034-11.355-.88-8.126.816-15.3,4.775-20.2a.543.543,0,0,1,.844.682c-3.777,4.673-5.391,11.564-4.542,19.4.351,3.25,1.162,7.135,2.018,11.249,3.338,16.015,7.491,35.948-9.592,42.2A.52.52,0,0,1,1162.853,781.15Z" transform="translate(-1162.311 -707.38)" fill="#344fb5"/>
    </g>
    <g id="Grupo_169630" data-name="Grupo 169630" transform="translate(1213.287 712.937)">
      <path id="Trazado_237753" data-name="Trazado 237753" d="M1218.644,713.035a.541.541,0,0,1-.444-.23c-11.08-15.744-33.87-11.838-34.1-11.794a.543.543,0,0,1-.194-1.069c.236-.041,23.7-4.079,35.18,12.238a.543.543,0,0,1-.444.855Z" transform="translate(-1183.462 -699.471)" fill="#344fb5"/>
    </g>
    <path id="Trazado_237754" data-name="Trazado 237754" d="M1193.878,755.29c-10.941-.391-14.485,2.715-14.485,2.715l13.887,15.91,13.846-15.91S1204.82,755.682,1193.878,755.29Z" transform="translate(29.114 23.201)" fill="#1a1a1a"/>
    <path id="Trazado_237755" data-name="Trazado 237755" d="M1281.781,791.018c-13.569-26.275-71.61-23.95-79.437-25.153v-.211s-.27.027-.779.1c-.507-.07-.777-.1-.777-.1v.211a20.044,20.044,0,0,1-2.147.173v.316c-18.609,1.042-65.553,11.623-78,47.407,0,0-13.617,128.012-13.95,134.849-.99,7.329-7.408,58.522-7.408,58.522h216.624s-3.256-24.3-5.284-57.728C1309.469,934.462,1283.316,796.324,1281.781,791.018Z" transform="translate(15.136 25.015)" fill="#3656b3"/>
    <path id="Trazado_237756" data-name="Trazado 237756" d="M1281.781,791.018c-13.569-26.275-71.61-23.95-79.437-25.153v-.211s-.27.027-.779.1c-.507-.07-.777-.1-.777-.1v.211a20.044,20.044,0,0,1-2.147.173v.316c-18.609,1.042-65.553,11.623-78,47.407,0,0-13.617,128.012-13.95,134.849-.99,7.329-7.408,58.522-7.408,58.522h216.624s-3.256-24.3-5.284-57.728C1309.469,934.462,1283.316,796.324,1281.781,791.018Z" transform="translate(15.136 25.015)" fill="url(#linear-gradient-2)"/>
    <path id="Trazado_237757" data-name="Trazado 237757" d="M1197.565,766.8c-75.727,5.1-196.194,149.052-118.786,215.068,57.678,49.189,118.161-40.934,98.935-83.125l-11.9-22.176C1188.618,833.248,1197.565,766.8,1197.565,766.8Z" transform="translate(7.202 25.215)" fill="url(#linear-gradient-3)"/>
    <path id="Trazado_237758" data-name="Trazado 237758" d="M1283.792,856.36l-20.493,21.22c-36.8,28.206-25.763,136.181,48.267,119.867,99.351-21.9,20.778-234.9-104.831-230.42C1206.735,767.026,1284.021,807.408,1283.792,856.36Z" transform="translate(33.886 25.243)" fill="url(#linear-gradient-4)"/>
    <circle id="Elipse_11703" data-name="Elipse 11703" cx="9.08" cy="9.08" r="9.08" transform="translate(1012.545 945.922) rotate(-42.465)" fill="#ffb850"/>
    <path id="Trazado_237759" data-name="Trazado 237759" d="M1327.113,810.173l-10.25,16.1h20.5Z" transform="translate(53.103 32.784)" fill="#ff613f"/>
    <g id="Grupo_169631" data-name="Grupo 169631" transform="translate(1413.146 880.107)">
      <path id="Trazado_237760" data-name="Trazado 237760" d="M1363.563,898.147a.523.523,0,0,1-.231-.052c-.107-.051-10.718-5.21-9.625-20.374a15.036,15.036,0,0,1,4.5-9.519,11.488,11.488,0,0,1-1.736-7.072,25.366,25.366,0,0,1,10.664-19.249.543.543,0,0,1,.56.931,24.263,24.263,0,0,0-10.14,18.4,10.438,10.438,0,0,0,1.455,6.23,19.773,19.773,0,0,1,4.612-3.037c4.957-2.374,10.258-2.6,13.188-.572a5.4,5.4,0,0,1,2.257,5.215c-.377,4.286-3.781,6.681-8.87,6.273a16.628,16.628,0,0,1-11.376-6.217,13.569,13.569,0,0,0-4.033,8.695c-1.038,14.393,8.591,19.118,9,19.312a.544.544,0,0,1-.231,1.036Zm-3.948-29.793a15.442,15.442,0,0,0,10.675,5.883c1.684.139,7.22.164,7.7-5.283a4.319,4.319,0,0,0-1.795-4.227c-2.579-1.786-7.554-1.516-12.1.659A19.463,19.463,0,0,0,1359.616,868.354Z" transform="translate(-1353.628 -841.804)"/>
    </g>
    <path id="Trazado_237761" data-name="Trazado 237761" d="M1149.5,678.194l7.271-7.27a1.98,1.98,0,1,0-2.8-2.8l-7.27,7.271-7.271-7.271a1.979,1.979,0,0,0-2.8,2.8l7.27,7.27-7.27,7.27a1.979,1.979,0,1,0,2.8,2.8l7.271-7.27,7.27,7.27a1.98,1.98,0,0,0,2.8-2.8Z" transform="translate(21.551 7.895)" fill="#344fb5"/>
    <path id="Trazado_237762" data-name="Trazado 237762" d="M1208.145,816.809c0,2.906-1.846,5.262-4.124,5.262s-4.122-2.356-4.122-5.262,1.845-5.262,4.122-5.262S1208.145,813.9,1208.145,816.809Z" transform="translate(32.693 33.024)" fill="#ffb850"/>
    <path id="Trazado_237763" data-name="Trazado 237763" d="M1208.145,864.424c0,2.906-1.846,5.262-4.124,5.262s-4.122-2.356-4.122-5.262,1.845-5.262,4.122-5.262S1208.145,861.518,1208.145,864.424Z" transform="translate(32.693 41.332)" fill="#ffb850"/>
    <path id="Trazado_237764" data-name="Trazado 237764" d="M1208.145,912.039c0,2.907-1.846,5.262-4.124,5.262s-4.122-2.355-4.122-5.262,1.845-5.262,4.122-5.262S1208.145,909.133,1208.145,912.039Z" transform="translate(32.693 49.641)" fill="#ffb850"/>
    <path id="Trazado_237765" data-name="Trazado 237765" d="M1208.145,959.655c0,2.906-1.846,5.262-4.124,5.262s-4.122-2.356-4.122-5.262,1.845-5.262,4.122-5.262S1208.145,956.748,1208.145,959.655Z" transform="translate(32.693 57.95)" fill="#ffb850"/>
    <g id="Grupo_169632" data-name="Grupo 169632" transform="translate(1032.955 1030.441)">
      <path id="Trazado_237766" data-name="Trazado 237766" d="M1407.1,973.215H1031.63a1.707,1.707,0,0,1,0-3.413H1407.1a1.707,1.707,0,0,1,0,3.413Z" transform="translate(-1029.923 -969.802)"/>
    </g>
    <path id="Trazado_237767" data-name="Trazado 237767" d="M1078.265,954.9c15.726,13.412,31.657,16.45,46.128,12.944-3.107-11.036-9.811-25.431-19.611-34.251-16.288-14.659-36.609-13.127-48.025-10.617A69.284,69.284,0,0,0,1078.265,954.9Z" transform="translate(7.715 52.184)" fill="#29abcc"/>
    <path id="Trazado_237768" data-name="Trazado 237768" d="M1286.473,936.451c21.319-5.3,38.573,5.673,47.45,13.254a52.078,52.078,0,0,1-30.381,18.609c-21.33,4.7-37.419-.929-48.654-11.983C1262.764,947.906,1273.343,939.714,1286.473,936.451Z" transform="translate(42.288 54.576)" fill="#29abcc"/>
    <g id="Grupo_169633" data-name="Grupo 169633" transform="translate(1097.071 909.391)">
      <path id="Trazado_237769" data-name="Trazado 237769" d="M1085.151,926.536a.62.62,0,0,1-.3-.079.637.637,0,0,1-.255-.867c24.957-45.66,66.906-58.7,67.327-58.827a.639.639,0,1,1,.366,1.225c-.415.125-41.877,13.033-66.572,58.214A.637.637,0,0,1,1085.151,926.536Z" transform="translate(-1084.513 -866.737)" fill="#122c7a"/>
    </g>
    <g id="Grupo_169634" data-name="Grupo 169634" transform="translate(1312.634 872.661)">
      <path id="Trazado_237770" data-name="Trazado 237770" d="M1304.02,938.179a.64.64,0,0,1-.638-.6c-3.68-65.385-34.854-100.692-35.169-101.042a.64.64,0,0,1,.95-.856c.317.352,31.789,35.964,35.5,101.828a.64.64,0,0,1-.6.674Z" transform="translate(-1268.049 -835.464)" fill="#122c7a"/>
    </g>
    <g id="Grupo_169635" data-name="Grupo 169635" transform="translate(1221.755 807.966)">
      <path id="Trazado_237771" data-name="Trazado 237771" d="M1191.311,1005.2a.64.64,0,0,1-.639-.64V781.02a.64.64,0,0,1,1.279,0v223.542A.64.64,0,0,1,1191.311,1005.2Z" transform="translate(-1190.672 -780.381)" fill="#122c7a"/>
    </g>
    <path id="Trazado_237772" data-name="Trazado 237772" d="M1220.746,725.02c-4.559-6.91-15.031.505-15.031.505l2.3,15.338C1215.8,742.819,1225.974,732.944,1220.746,725.02Z" transform="translate(33.708 17.411)" fill="url(#linear-gradient-5)"/>
    <ellipse id="Elipse_11704" data-name="Elipse 11704" cx="8.071" cy="5.564" rx="8.071" ry="5.564" transform="translate(1236.486 748.489) rotate(-32.28)" fill="#e0644e"/>
    <path id="Trazado_237773" data-name="Trazado 237773" d="M1163.622,725.02c4.559-6.91,15.032.505,15.032.505l-2.3,15.338C1168.569,742.819,1158.394,732.944,1163.622,725.02Z" transform="translate(26.112 17.411)" fill="url(#linear-gradient-6)"/>
    <path id="Trazado_237774" data-name="Trazado 237774" d="M1164.65,726.713c-1.641,2.6.083,6.635,3.852,9.015s8.155,2.2,9.8-.395-.083-6.634-3.852-9.014S1166.291,724.115,1164.65,726.713Z" transform="translate(26.434 17.859)" fill="#e0644e"/>
    <path id="Trazado_237775" data-name="Trazado 237775" d="M1205.541,779.383l-1.988-43.762-10.512,7.648-10.513-7.648-1.989,43.762s4.436,3.913,12.5,3.913C1202.155,783.3,1205.541,779.383,1205.541,779.383Z" transform="translate(29.314 19.775)" fill="url(#linear-gradient-7)"/>
    <path id="Trazado_237776" data-name="Trazado 237776" d="M1208.179,757.6l-13.866,13.358L1180.446,757.6l-7.088,11.119,2.395,10.621a8.528,8.528,0,0,0,13.373,4.994l5.168-3.8.02-.16.02.16,5.042,3.709a8.529,8.529,0,0,0,13.393-5.083l2.2-10.272Z" transform="translate(28.061 23.609)" fill="#fbfadc"/>
    <g id="Grupo_169636" data-name="Grupo 169636" transform="translate(1221.755 793.924)">
      <path id="Trazado_237777" data-name="Trazado 237777" d="M1191.311,779.28a.64.64,0,0,1-.639-.64v-9.575a.64.64,0,1,1,1.279,0v9.575A.64.64,0,0,1,1191.311,779.28Z" transform="translate(-1190.672 -768.425)" fill="#122c7a"/>
    </g>
    <path id="Trazado_237778" data-name="Trazado 237778" d="M1203.237,717.827c-16.477,3.572-26.45-3.586-26.45-3.586-.282,3.562-2.739,8.216-3.6,9.752,0,0-.312,8.438-.3,12.084.035,9.38,3,23.828,21.247,23.828s21.213-14.449,21.248-23.828c.016-4.112-.366-13.607-.366-13.607C1214.151,719.9,1211.478,716.039,1203.237,717.827Z" transform="translate(27.98 16.044)" fill="#ffaf99"/>
    <path id="Trazado_237779" data-name="Trazado 237779" d="M1209.538,736.087a5.405,5.405,0,1,1-5.392-5.418A5.405,5.405,0,0,1,1209.538,736.087Z" transform="translate(32.489 18.911)" fill="#ea7d6a"/>
    <path id="Trazado_237780" data-name="Trazado 237780" d="M1185.53,736.087a5.405,5.405,0,1,1-5.392-5.418A5.405,5.405,0,0,1,1185.53,736.087Z" transform="translate(28.299 18.911)" fill="#ea7d6a"/>
    <g id="Grupo_169637" data-name="Grupo 169637" transform="translate(1217.949 741.566)">
      <path id="Trazado_237781" data-name="Trazado 237781" d="M1191.091,740.382a.514.514,0,0,1-.3-.1c-.969-.7-3.467-3.358-3.351-5.232.068-1.1.865-1.411,1.5-1.659a1.873,1.873,0,0,0,1.341-1.138,69.79,69.79,0,0,0,1.467-7.955.531.531,0,0,1,.586-.448.522.522,0,0,1,.449.586,68.608,68.608,0,0,1-1.517,8.167,2.88,2.88,0,0,1-1.946,1.759c-.651.254-.818.36-.842.75-.075,1.211,1.9,3.592,2.916,4.321a.522.522,0,0,1-.3.947Z" transform="translate(-1187.432 -723.846)" fill="#c65347"/>
    </g>
    <path id="Trazado_237782" data-name="Trazado 237782" d="M1185.508,723.089a.1.1,0,0,0-.2-.013c-.328,2.308-.935,7.229-2.538,7.3-1.6-.07-2.21-4.992-2.539-7.3a.1.1,0,0,0-.2.013c-.051,2.687.11,9.472,2.739,9.443C1185.4,732.561,1185.557,725.776,1185.508,723.089Z" transform="translate(29.225 17.57)" fill="#93372b"/>
    <path id="Trazado_237783" data-name="Trazado 237783" d="M1203.154,723.089a.1.1,0,0,0-.2-.013c-.329,2.308-.935,7.229-2.539,7.3-1.6-.07-2.21-4.992-2.538-7.3a.1.1,0,0,0-.2.013c-.049,2.687.111,9.472,2.739,9.443C1203.043,732.561,1203.2,725.776,1203.154,723.089Z" transform="translate(32.304 17.57)" fill="#93372b"/>
    <path id="Trazado_237784" data-name="Trazado 237784" d="M1215.05,738.275c-1.357,6.079-5.861,13.252-19.6,13.252-21.343,0-22.532-17.016-22.547-20.574-.014.829-.021,1.59-.019,2.208.035,9.38,3,23.828,21.247,23.828C1209.293,756.989,1213.9,747.025,1215.05,738.275Z" transform="translate(27.98 18.96)" fill="url(#linear-gradient-8)"/>
    <path id="Trazado_237785" data-name="Trazado 237785" d="M1096.246,945.224c-35.487-27.725-30.589-60.484-26.979-89.737-20.484,39.9-23.7,82.577,9.512,110.9,32.879,28.04,66.662,10.8,86.079-17.01C1138.657,959.858,1117.55,961.866,1096.246,945.224Z" transform="translate(7.202 40.691)" fill="url(#linear-gradient-9)" style="mix-blend-mode: soft-light;isolation: isolate"/>
    <path id="Trazado_237786" data-name="Trazado 237786" d="M1330.261,843.7l-1.172-.148s14.189,103.411-36.688,112.3a80.359,80.359,0,0,1-50.331-7.418c9.04,24.789,29.673,43.065,63.33,35.648C1359.677,972.118,1360.849,903.117,1330.261,843.7Z" transform="translate(40.052 38.608)" fill="url(#linear-gradient-10)" style="mix-blend-mode: soft-light;isolation: isolate"/>
    <path id="Trazado_237787" data-name="Trazado 237787" d="M1206.862,786.935c-27.185,0-104.25,27.363-104.25,27.363V941.127c0,51.727,104.238,117.613,104.25,117.621.012-.008,104.25-65.894,104.25-117.621V814.3S1234.048,786.935,1206.862,786.935Z" transform="translate(15.716 28.729)" fill="url(#linear-gradient-11)"/>
    <g id="Grupo_169638" data-name="Grupo 169638" transform="translate(1146.459 840.55)">
      <path id="Trazado_237788" data-name="Trazado 237788" d="M1202.682,1023.719c-35.186-25.275-76.119-63.516-76.119-86.29V827.664c31.056-10.242,64.9-19.54,76.119-19.54s45.064,9.3,76.12,19.54V937.429C1278.8,960.2,1237.869,998.444,1202.682,1023.719Z" transform="translate(-1126.563 -808.124)" fill="#1a1a1a"/>
    </g>
    <g id="Grupo_169641" data-name="Grupo 169641" transform="translate(1262.01 818.81)">
      <path id="Trazado_237789" data-name="Trazado 237789" d="M1235.726,790.366c-8.872,1.714-10.924,18-10.771,20.928.032.624.057,1.105.055,1.4a6.141,6.141,0,0,0,5.165,6.434,5.108,5.108,0,0,0,3.77-.685,4.634,4.634,0,0,0,.843,1.745,7.362,7.362,0,0,0,5.986,2.816,4.467,4.467,0,0,0,3.011-1.2c.036-.038.049-.073.082-.11a3.856,3.856,0,0,0,.862.611c2.822,1.531,6.682,1.649,8.6-1.089a8.988,8.988,0,0,0,1.254-3.9l.028-.187c.456-2.852,1.338-7.92,2.491-10.373.776-1.651,7.338-1.361,7.338-1.361C1264.86,804.915,1260.321,785.616,1235.726,790.366Z" transform="translate(-1224.946 -789.614)" fill="url(#linear-gradient-12)"/>
      <g id="Grupo_169639" data-name="Grupo 169639" transform="translate(18.382 9.938)">
        <path id="Trazado_237790" data-name="Trazado 237790" d="M1241.055,820.777a.444.444,0,0,1-.444-.421,47.6,47.6,0,0,1,5.175-22.043.443.443,0,1,1,.785.413,46.642,46.642,0,0,0-5.071,21.584.445.445,0,0,1-.421.466Z" transform="translate(-1240.597 -798.076)" fill="#c65347"/>
      </g>
      <g id="Grupo_169640" data-name="Grupo 169640" transform="translate(8.245 6.98)">
        <path id="Trazado_237791" data-name="Trazado 237791" d="M1232.623,818.275a.443.443,0,0,1-.436-.364c-.073-.395-1.687-9.825,5.034-22.123a.444.444,0,0,1,.78.426c-6.56,12-4.958,21.444-4.94,21.538a.444.444,0,0,1-.358.516A.454.454,0,0,1,1232.623,818.275Z" transform="translate(-1231.966 -795.557)" fill="#c65347"/>
      </g>
    </g>
    <g id="Grupo_169642" data-name="Grupo 169642" transform="translate(1164.661 892.146)">
      <path id="Trazado_237792" data-name="Trazado 237792" d="M1165.146,886.625a11.025,11.025,0,0,0-15.6,0l-4.25,4.252a11.019,11.019,0,0,0,0,15.6l31.075,31.08a11.026,11.026,0,0,0,15.6,0l63.978-62.415a11.038,11.038,0,0,0,0-15.6l-4.255-4.255a11.033,11.033,0,0,0-15.6,0l-51.92,50.366Z" transform="translate(-1142.061 -852.054)" fill="#fbfadc"/>
    </g>
    <g id="Grupo_169643" data-name="Grupo 169643" transform="translate(1078.7 687.749)">
      <path id="Trazado_237793" data-name="Trazado 237793" d="M1088.782,717.3a.473.473,0,0,1-.466-.412,8.907,8.907,0,0,0-1.226-3.46c-4.969,1.768-10.466,1.9-13.987.422-2.326-.976-3.59-2.627-3.563-4.646.033-2.416,1.637-3.888,4.4-4.039,4.156-.226,10.448,2.58,13.537,7.092a18.42,18.42,0,0,0,6.392-4.027c2.721-2.744,5.283-7.607,2.022-15.2-2.995-6.978-7.128-11.414-12.284-13.187-7.188-2.47-13.968,1.182-14.036,1.218a.47.47,0,0,1-.454-.823c.291-.16,7.192-3.895,14.786-1.288,5.423,1.862,9.747,6.474,12.854,13.71,3.466,8.077.707,13.287-2.219,16.236a19.346,19.346,0,0,1-6.541,4.2,9.875,9.875,0,0,1,1.256,3.686.471.471,0,0,1-.409.525A.486.486,0,0,1,1088.782,717.3Zm-14.355-11.208c-.149,0-.295,0-.439.012-1.581.087-3.475.7-3.508,3.112-.029,2.065,1.609,3.188,2.987,3.767,3.218,1.352,8.379,1.218,13.076-.386C1083.73,708.7,1078.273,706.093,1074.428,706.093Z" transform="translate(-1068.871 -678.025)"/>
    </g>
    <g id="Grupo_169644" data-name="Grupo 169644" transform="translate(1218.334 757.431)">
      <path id="Trazado_237794" data-name="Trazado 237794" d="M1187.765,742.336c-.121-2.153,1.858-2.76,3.661-1.751a2.943,2.943,0,0,0,4.422-1.432c.883-1.879,2.843-2.549,3.987-.727s-.161,7.112-4,8.354C1191.553,748.169,1187.886,744.489,1187.765,742.336Z" transform="translate(-1187.76 -737.354)" fill="#fbfadc"/>
    </g>
  </g>
</svg>
