<svg xmlns="http://www.w3.org/2000/svg" xmlns:xlink="http://www.w3.org/1999/xlink" width="314" height="206" viewBox="0 0 314 206">
  <defs>
    <filter id="Rectángulo_263207" x="0" y="0" width="314" height="206" filterUnits="userSpaceOnUse">
      <feOffset dy="3" input="SourceAlpha"/>
      <feGaussianBlur stdDeviation="4" result="blur"/>
      <feFlood flood-opacity="0.161"/>
      <feComposite operator="in" in2="blur"/>
      <feComposite in="SourceGraphic"/>
    </filter>
    <clipPath id="clip-path">
      <rect id="Rectángulo_263114" data-name="Rectángulo 263114" width="58.17" height="78.25" fill="#12263f"/>
    </clipPath>
  </defs>
  <g id="Grupo_710348" data-name="Grupo 710348" transform="translate(-491.506 -16557.75)">
    <g transform="matrix(1, 0, 0, 1, 491.51, 16557.75)" filter="url(#Rectángulo_263207)">
      <rect id="Rectángulo_263207-2" data-name="Rectángulo 263207" width="290" height="182" rx="17" transform="translate(12 9)" fill="#fff"/>
    </g>
    <text id="Requisitos_de_seguridad_en_los_sistemas_informáticos_" data-name="Requisitos de seguridad en los sistemas informáticos

" transform="translate(556.506 16669)" fill="#12263f" font-size="15" font-family="Roboto-Black, Roboto" font-weight="800"><tspan x="0.142" y="16">Requisitos de seguridad en </tspan><tspan x="4.43" y="39">los sistemas informáticos</tspan></text>
    <g id="Grupo_709778" data-name="Grupo 709778" transform="translate(619.506 16580)">
      <g id="Grupo_709730" data-name="Grupo 709730" clip-path="url(#clip-path)">
        <path id="Trazado_465949" data-name="Trazado 465949" d="M9.5,22.881a19.815,19.815,0,1,1,39.152,0h3.94c3.538,0,5.554,2,5.557,5.52q.012,16.237.02,32.474c0,3.4-2.046,5.454-5.436,5.455q-6.572,0-13.144,0H38.6a13.256,13.256,0,0,0,1.24,5.877,1.07,1.07,0,0,0,.807.422c1.373.043,2.749.006,4.123.024a2.795,2.795,0,1,1,.011,5.584q-15.678.023-31.357,0a2.8,2.8,0,1,1,.034-5.587c1.317-.014,2.636-.036,3.951.012a.975.975,0,0,0,1.078-.722,13.952,13.952,0,0,0,1.064-5.611h-.939q-6.615,0-13.23,0A5,5,0,0,1,0,60.988c-.017-2.175.047-4.351.048-6.527.007-8.677.073-17.355-.032-26.03a5.191,5.191,0,0,1,5.624-5.562c1.277.079,2.563.013,3.858.013m43.7,32.244c0-8.662,0-17.224-.006-25.786,0-.993-.55-1.5-1.577-1.513-1.088-.017-2.18.048-3.264-.022a1.533,1.533,0,0,0-1.7,1A19.539,19.539,0,0,1,25.8,39.29,19.272,19.272,0,0,1,11.286,28.433a.959.959,0,0,0-1.042-.622c-1.058.039-2.119.011-3.178.011-1.726,0-2.121.395-2.121,2.122q0,12.114,0,24.227v.954ZM10.7,19.744A18.384,18.384,0,1,0,29.131,1.378,18.306,18.306,0,0,0,10.7,19.744M1.513,59.492A14.965,14.965,0,0,0,1.539,62.1c.33,1.8,1.817,2.811,3.953,2.81,6.87-.005,13.74-.03,20.609-.029q13.268,0,26.535.036a3.783,3.783,0,0,0,3.587-1.743,6.4,6.4,0,0,0,.49-3.682Zm8.9-33.045a13.134,13.134,0,0,1-.456-1.566c-.081-.5-.308-.647-.8-.635-1.231.031-2.463.009-3.694.01-2.635,0-4.037,1.39-4.037,4.018q-.006,14.434,0,28.867v.9H56.777V56.99q0-10.481,0-20.963c0-2.692.02-5.384-.008-8.076a3.54,3.54,0,0,0-3.435-3.679c-1.487-.059-2.978-.027-4.467,0a.742.742,0,0,0-.574.338c-.214.573-.34,1.179-.517,1.836,1.209,0,2.324,0,3.439,0,2.343,0,3.365,1.01,3.366,3.324q0,12.715,0,25.431c0,1.253-.081,1.337-1.3,1.337H4.91c-1.206,0-1.338-.128-1.338-1.318q0-6.873,0-13.746c0-3.981-.009-7.962,0-11.942A2.813,2.813,0,0,1,6.6,26.45c1.23-.011,2.46,0,3.82,0M21.164,66.359l-1.2,6.162h18.25l-1.2-6.162Zm7.978,10.515q7.513,0,15.026,0a6.352,6.352,0,0,0,.942-.037A1.366,1.366,0,0,0,46.3,75.394a1.338,1.338,0,0,0-1.211-1.341,6.331,6.331,0,0,0-.943-.028H17.02c-1.259,0-2.519-.02-3.777.016A1.36,1.36,0,0,0,11.88,75.41a1.386,1.386,0,0,0,1.293,1.441,7.805,7.805,0,0,0,.858.022H29.142" transform="translate(0 -0.001)" fill="#12263f"/>
        <path id="Trazado_465950" data-name="Trazado 465950" d="M111.168,196.6a3.643,3.643,0,0,1,3.635-3.671,3.64,3.64,0,0,1-.032,7.28,3.62,3.62,0,0,1-3.6-3.609m3.648,2.225a2.283,2.283,0,0,0,2.233-2.26,2.307,2.307,0,0,0-2.334-2.254,2.258,2.258,0,0,0,.1,4.515" transform="translate(-85.697 -148.725)" fill="#12263f"/>
        <path id="Trazado_465951" data-name="Trazado 465951" d="M162.214,196.576a3.627,3.627,0,1,1,3.578,3.633,3.638,3.638,0,0,1-3.578-3.633m5.876.038a2.3,2.3,0,0,0-2.2-2.3,2.259,2.259,0,0,0-.084,4.517,2.282,2.282,0,0,0,2.279-2.213" transform="translate(-125.048 -148.726)" fill="#12263f"/>
        <path id="Trazado_465952" data-name="Trazado 465952" d="M60.112,196.575a3.65,3.65,0,0,1,3.663-3.646,3.64,3.64,0,1,1-.079,7.279,3.629,3.629,0,0,1-3.583-3.633m3.63,2.251A2.29,2.29,0,0,0,66,196.586a2.315,2.315,0,0,0-2.315-2.278,2.26,2.26,0,0,0-2.194,2.292,2.235,2.235,0,0,0,2.25,2.226" transform="translate(-46.339 -148.725)" fill="#12263f"/>
        <path id="Trazado_465953" data-name="Trazado 465953" d="M78.25,33.507A9.586,9.586,0,0,1,87.6,23.273c4.368-.068,9.7,3.3,9.635,10.2,1.824.769,2.139,1.239,2.137,3.234,0,2.148.064,4.3-.036,6.442-.224,4.781-3.344,8.362-8.091,8.845a30.026,30.026,0,0,1-8.278-.256,8.737,8.737,0,0,1-6.879-8.553c-.04-2.233-.015-4.467-.014-6.7,0-1.777.442-2.388,2.174-2.981m9.5,1.445v-.008q-2.231,0-4.463,0-2.274,0-4.549.008c-.957,0-1.281.315-1.284,1.285-.007,2.317-.031,4.635.013,6.952a7.546,7.546,0,0,0,6.422,7.382,36.21,36.21,0,0,0,7.018.122,7.575,7.575,0,0,0,7.031-7.19c.128-2.454.066-4.919.055-7.378,0-.885-.371-1.171-1.317-1.172H87.748m-5.8-1.433h11.5A5.669,5.669,0,0,0,91,27.98a5.445,5.445,0,0,0-6.08-.295,5.76,5.76,0,0,0-2.969,5.833m-1.429-.006c-.107-5.27,3.67-7.844,6.934-7.941a6.973,6.973,0,0,1,4.638,1.5,7.328,7.328,0,0,1,2.787,6.441h.81c.617-3.131-1.569-6.822-4.83-8.211a8.032,8.032,0,0,0-9.7,2.739,7.7,7.7,0,0,0-1.441,5.476Z" transform="translate(-58.64 -17.94)" fill="#12263f"/>
        <path id="Trazado_465954" data-name="Trazado 465954" d="M108.158,268.453c1.517,0,3.033.007,4.55,0,.511,0,.977.105.963.7s-.489.682-.995.681q-4.636-.01-9.272,0c-.488,0-.983-.044-1-.664-.016-.685.513-.714,1.029-.713,1.574,0,3.148,0,4.722,0" transform="translate(-78.943 -206.943)" fill="#12263f"/>
        <path id="Trazado_465955" data-name="Trazado 465955" d="M97.687,81.1c2.49,0,4.98,0,7.47,0,1,0,1.158.16,1.161,1.136.006,1.689.01,3.377,0,5.066a6.105,6.105,0,0,1-5.859,6.377,40.572,40.572,0,0,1-5.831-.026,6.077,6.077,0,0,1-5.634-5.98c-.066-1.858-.01-3.72-.022-5.581-.005-.745.376-1,1.075-1,2.547.013,5.095.005,7.642.005M90.347,82.52c0,1.667-.014,3.239,0,4.811a4.838,4.838,0,0,0,4.807,5.011c1.658.068,3.323.06,4.982,0a4.635,4.635,0,0,0,4.7-3.972,52.769,52.769,0,0,0,.044-5.853Z" transform="translate(-68.578 -62.515)" fill="#12263f"/>
        <path id="Trazado_465956" data-name="Trazado 465956" d="M116.7,101.59a2.992,2.992,0,1,1,3.08-2.894,2.958,2.958,0,0,1-3.08,2.894m1.7-2.983a1.608,1.608,0,0,0-1.632-1.622,1.656,1.656,0,0,0-1.61,1.663,1.624,1.624,0,0,0,1.607,1.566,1.59,1.59,0,0,0,1.635-1.607" transform="translate(-87.71 -73.702)" fill="#12263f"/>
      </g>
    </g>
  </g>
</svg>
