<svg xmlns="http://www.w3.org/2000/svg" xmlns:xlink="http://www.w3.org/1999/xlink" width="496.517" height="240.734" viewBox="0 0 496.517 240.734">
  <defs>
    <filter id="Trazado_241352" x="78.517" y="66.299" width="418" height="102.316" filterUnits="userSpaceOnUse">
      <feOffset dy="3" input="SourceAlpha"/>
      <feGaussianBlur stdDeviation="3" result="blur"/>
      <feFlood flood-opacity="0.161"/>
      <feComposite operator="in" in2="blur"/>
      <feComposite in="SourceGraphic"/>
    </filter>
    <filter id="Trazado_241354" x="78.517" y="70.52" width="413.23" height="92.877" filterUnits="userSpaceOnUse">
      <feOffset dy="3" input="SourceAlpha"/>
      <feGaussianBlur stdDeviation="3" result="blur-2"/>
      <feFlood flood-opacity="0.161"/>
      <feComposite operator="in" in2="blur-2"/>
      <feComposite in="SourceGraphic"/>
    </filter>
    <linearGradient id="linear-gradient" x1="0.317" y1="0.321" x2="0.831" y2="0.824" gradientUnits="objectBoundingBox">
      <stop offset="0" stop-color="#fff"/>
      <stop offset="0.231" stop-color="#f7f7f6"/>
      <stop offset="0.589" stop-color="#e1e1e1"/>
      <stop offset="1" stop-color="#c1c1c0"/>
    </linearGradient>
    <linearGradient id="linear-gradient-2" x1="0.495" y1="0.493" x2="0.182" y2="0.091" gradientUnits="objectBoundingBox">
      <stop offset="0" stop-color="#fff"/>
      <stop offset="0.38" stop-color="#f7f7f7"/>
      <stop offset="0.968" stop-color="#e1e2e4"/>
      <stop offset="0.994" stop-color="#e0e1e3"/>
    </linearGradient>
  </defs>
  <g id="Grupo_712069" data-name="Grupo 712069" transform="translate(-285 -2879.883)">
    <g id="Grupo_712068" data-name="Grupo 712068">
      <g transform="matrix(1, 0, 0, 1, 285, 2879.88)" filter="url(#Trazado_241352)">
        <path id="Trazado_241352-2" data-name="Trazado 241352" d="M12,0H388a12,12,0,0,1,12,12V72.316a12,12,0,0,1-12,12H12a12,12,0,0,1-12-12V12A12,12,0,0,1,12,0Z" transform="translate(87.52 72.3)" fill="#fff"/>
      </g>
      <g transform="matrix(1, 0, 0, 1, 285, 2879.88)" filter="url(#Trazado_241354)">
        <path id="Trazado_241354-2" data-name="Trazado 241354" d="M11.857,0H383.374c6.548,0,11.857,4.771,11.857,10.657V64.22c0,5.886-5.309,10.657-11.857,10.657H11.857C5.309,74.877,0,70.106,0,64.22V10.657C0,4.771,5.309,0,11.857,0Z" transform="translate(87.52 76.52)" fill="#eaebec"/>
      </g>
      <path id="Trazado_468362" data-name="Trazado 468362" d="M11.8-6.135a7.546,7.546,0,0,1-.694,3.313A5.132,5.132,0,0,1,9.136-.6,5.494,5.494,0,0,1,6.223.176a5.572,5.572,0,0,1-2.9-.751A5.123,5.123,0,0,1,1.349-2.725,7.329,7.329,0,0,1,.606-5.933v-.721A7.58,7.58,0,0,1,1.3-9.971,5.119,5.119,0,0,1,3.274-12.19a5.533,5.533,0,0,1,2.931-.782,5.479,5.479,0,0,1,2.9.773A5.211,5.211,0,0,1,11.087-10,7.362,7.362,0,0,1,11.8-6.724ZM8.666-6.671a5.381,5.381,0,0,0-.637-2.9,2.044,2.044,0,0,0-1.824-.989q-2.32,0-2.452,3.48l-.009.94a5.535,5.535,0,0,0,.624,2.892A2.041,2.041,0,0,0,6.223-2.232a2.016,2.016,0,0,0,1.8-.993,5.383,5.383,0,0,0,.642-2.856Zm13.421,2a5.8,5.8,0,0,1-.967,3.595A3.238,3.238,0,0,1,18.4.176,2.81,2.81,0,0,1,16.058-.976L15.935,0H13.28V-13.5h2.962v4.755a2.711,2.711,0,0,1,2.136-.94A3.239,3.239,0,0,1,21.12-8.411a5.826,5.826,0,0,1,.967,3.586Zm-2.971-.189a3.866,3.866,0,0,0-.365-1.952A1.229,1.229,0,0,0,17.631-7.4a1.418,1.418,0,0,0-1.389.763v3.773a1.426,1.426,0,0,0,1.406.755,1.258,1.258,0,0,0,1.327-1.018A7.309,7.309,0,0,0,19.116-4.865ZM26.578-9.51V.325a3.452,3.452,0,0,1-.967,2.6,3.714,3.714,0,0,1-2.672.914,6.308,6.308,0,0,1-1.4-.149V1.45a5.667,5.667,0,0,0,.835.079A1.084,1.084,0,0,0,23.607.308V-9.51Zm-3.19-2.452A1.322,1.322,0,0,1,23.845-13a1.724,1.724,0,0,1,1.187-.4,1.724,1.724,0,0,1,1.187.4,1.322,1.322,0,0,1,.457,1.037,1.322,1.322,0,0,1-.457,1.037,1.724,1.724,0,0,1-1.187.4,1.724,1.724,0,0,1-1.187-.4A1.322,1.322,0,0,1,23.388-11.962ZM32.854.176a4.889,4.889,0,0,1-3.542-1.305,4.507,4.507,0,0,1-1.354-3.4v-.246A5.84,5.84,0,0,1,28.5-7.348a3.955,3.955,0,0,1,1.578-1.727,4.763,4.763,0,0,1,2.461-.611A4.117,4.117,0,0,1,35.7-8.442a4.887,4.887,0,0,1,1.16,3.467v1.151H30.973a2.135,2.135,0,0,0,.694,1.257,2.066,2.066,0,0,0,1.389.457,2.662,2.662,0,0,0,2.2-.984l1.354,1.6A3.784,3.784,0,0,1,35.038-.277,5.3,5.3,0,0,1,32.854.176ZM32.52-7.4q-1.3,0-1.547,1.723h2.988v-.229a1.467,1.467,0,0,0-.36-1.1A1.434,1.434,0,0,0,32.52-7.4ZM41.5-11.874V-9.51h1.564v2.057H41.5V-3.1a1.111,1.111,0,0,0,.193.747,1.037,1.037,0,0,0,.765.211A4.345,4.345,0,0,0,43.2-2.2V-.079a5.466,5.466,0,0,1-1.67.255A3.1,3.1,0,0,1,39.27-.545a2.954,2.954,0,0,1-.729-2.188v-4.72H37.327V-9.51H38.54v-2.364ZM47.355,0H44.385V-9.51h2.971ZM44.209-11.962A1.322,1.322,0,0,1,44.666-13a1.724,1.724,0,0,1,1.187-.4,1.724,1.724,0,0,1,1.187.4,1.322,1.322,0,0,1,.457,1.037,1.322,1.322,0,0,1-.457,1.037,1.724,1.724,0,0,1-1.187.4,1.724,1.724,0,0,1-1.187-.4A1.322,1.322,0,0,1,44.209-11.962Zm8.763,8.438,1.5-5.985h3.12L54.492,0H51.469l-3.1-9.51H51.5Zm5-1.318a5.613,5.613,0,0,1,.554-2.536,3.96,3.96,0,0,1,1.591-1.709,4.791,4.791,0,0,1,2.435-.6,4.373,4.373,0,0,1,3.366,1.323,5.076,5.076,0,0,1,1.23,3.6v.105a4.925,4.925,0,0,1-1.235,3.529A4.384,4.384,0,0,1,62.569.176a4.434,4.434,0,0,1-3.261-1.217,4.761,4.761,0,0,1-1.327-3.3Zm2.962.185a3.538,3.538,0,0,0,.413,1.934,1.376,1.376,0,0,0,1.222.615q1.582,0,1.617-2.435v-.3q0-2.558-1.635-2.558-1.485,0-1.608,2.206Zm12.5,1.986a.684.684,0,0,0-.4-.606,6.016,6.016,0,0,0-1.5-.475A6.853,6.853,0,0,1,69.706-4.4a3.062,3.062,0,0,1-1.1-.971,2.319,2.319,0,0,1-.378-1.31,2.628,2.628,0,0,1,1.081-2.158,4.453,4.453,0,0,1,2.83-.848,4.934,4.934,0,0,1,3.023.853,2.666,2.666,0,0,1,1.143,2.241H73.336q0-1.143-1.2-1.143a1.194,1.194,0,0,0-.782.259.8.8,0,0,0-.316.646.737.737,0,0,0,.387.642,3.654,3.654,0,0,0,1.235.4,10.671,10.671,0,0,1,1.49.378A2.706,2.706,0,0,1,76.289-2.76,2.491,2.491,0,0,1,75.133-.642a5.068,5.068,0,0,1-2.993.817,5.172,5.172,0,0,1-2.18-.439,3.645,3.645,0,0,1-1.494-1.2,2.707,2.707,0,0,1-.536-1.591H70.7a1.145,1.145,0,0,0,.439.962,1.808,1.808,0,0,0,1.081.3,1.422,1.422,0,0,0,.91-.246A.787.787,0,0,0,73.433-2.672Zm8.35-2.153a5.809,5.809,0,0,1,.976-3.56,3.211,3.211,0,0,1,2.725-1.3,2.731,2.731,0,0,1,2.145,1V-13.5H90.6V0H87.935l-.149-1.02a2.8,2.8,0,0,1-2.32,1.2,3.205,3.205,0,0,1-2.689-1.3A5.993,5.993,0,0,1,81.782-4.825Zm2.962.185q0,2.531,1.477,2.531a1.458,1.458,0,0,0,1.406-.826V-6.557A1.419,1.419,0,0,0,86.238-7.4q-1.371,0-1.485,2.215ZM95.405,0H92.435V-9.51h2.971ZM92.259-11.962A1.322,1.322,0,0,1,92.716-13a1.724,1.724,0,0,1,1.187-.4,1.724,1.724,0,0,1,1.187.4,1.322,1.322,0,0,1,.457,1.037,1.322,1.322,0,0,1-.457,1.037,1.724,1.724,0,0,1-1.187.4,1.724,1.724,0,0,1-1.187-.4A1.322,1.322,0,0,1,92.259-11.962Zm10.723,5.133-.976-.07a1.752,1.752,0,0,0-1.793.879V0H97.251V-9.51h2.777l.1,1.222a2.294,2.294,0,0,1,2.083-1.4,2.888,2.888,0,0,1,.826.105Zm5.669,7a4.889,4.889,0,0,1-3.542-1.305,4.507,4.507,0,0,1-1.354-3.4v-.246a5.84,5.84,0,0,1,.541-2.575,3.955,3.955,0,0,1,1.578-1.727,4.763,4.763,0,0,1,2.461-.611A4.117,4.117,0,0,1,111.5-8.442a4.887,4.887,0,0,1,1.16,3.467v1.151H106.77a2.135,2.135,0,0,0,.694,1.257,2.066,2.066,0,0,0,1.389.457,2.662,2.662,0,0,0,2.2-.984l1.354,1.6a3.784,3.784,0,0,1-1.569,1.217A5.3,5.3,0,0,1,108.65.176ZM108.316-7.4q-1.3,0-1.547,1.723h2.988v-.229a1.467,1.467,0,0,0-.36-1.1A1.434,1.434,0,0,0,108.316-7.4Zm9.554,5.291a1.317,1.317,0,0,0,.967-.338,1.241,1.241,0,0,0,.334-.945h2.777a3.288,3.288,0,0,1-1.121,2.566,4.168,4.168,0,0,1-2.887,1,4.22,4.22,0,0,1-3.27-1.3,5.125,5.125,0,0,1-1.2-3.6v-.123a5.792,5.792,0,0,1,.532-2.544,3.872,3.872,0,0,1,1.534-1.7,4.573,4.573,0,0,1,2.373-.593,4.116,4.116,0,0,1,2.944,1.028,3.647,3.647,0,0,1,1.09,2.786h-2.777A1.626,1.626,0,0,0,118.811-7a1.244,1.244,0,0,0-.967-.4q-1.151,0-1.345,1.468a10.357,10.357,0,0,0-.062,1.283,4.068,4.068,0,0,0,.343,1.986A1.187,1.187,0,0,0,117.87-2.109Zm8.78-9.765V-9.51h1.564v2.057H126.65V-3.1a1.111,1.111,0,0,0,.193.747,1.037,1.037,0,0,0,.765.211,4.345,4.345,0,0,0,.738-.053V-.079a5.466,5.466,0,0,1-1.67.255,3.1,3.1,0,0,1-2.259-.721,2.954,2.954,0,0,1-.729-2.188v-4.72h-1.213V-9.51h1.213v-2.364Zm2.092,7.031a5.613,5.613,0,0,1,.554-2.536,3.96,3.96,0,0,1,1.591-1.709,4.791,4.791,0,0,1,2.435-.6,4.373,4.373,0,0,1,3.366,1.323,5.076,5.076,0,0,1,1.23,3.6v.105a4.925,4.925,0,0,1-1.235,3.529A4.384,4.384,0,0,1,133.339.176a4.434,4.434,0,0,1-3.261-1.217,4.761,4.761,0,0,1-1.327-3.3Zm2.962.185a3.538,3.538,0,0,0,.413,1.934,1.376,1.376,0,0,0,1.222.615q1.582,0,1.617-2.435v-.3q0-2.558-1.635-2.558-1.485,0-1.608,2.206Zm12.5,1.986a.684.684,0,0,0-.4-.606,6.016,6.016,0,0,0-1.5-.475,6.853,6.853,0,0,1-1.828-.646,3.062,3.062,0,0,1-1.1-.971A2.319,2.319,0,0,1,139-6.68a2.628,2.628,0,0,1,1.081-2.158,4.453,4.453,0,0,1,2.83-.848,4.934,4.934,0,0,1,3.023.853,2.666,2.666,0,0,1,1.143,2.241h-2.971q0-1.143-1.2-1.143a1.194,1.194,0,0,0-.782.259.8.8,0,0,0-.316.646.737.737,0,0,0,.387.642,3.654,3.654,0,0,0,1.235.4,10.671,10.671,0,0,1,1.49.378,2.706,2.706,0,0,1,2.145,2.646A2.491,2.491,0,0,1,145.9-.642a5.068,5.068,0,0,1-2.993.817,5.172,5.172,0,0,1-2.18-.439,3.645,3.645,0,0,1-1.494-1.2A2.707,2.707,0,0,1,138.7-3.05h2.769a1.145,1.145,0,0,0,.439.962,1.808,1.808,0,0,0,1.081.3,1.422,1.422,0,0,0,.91-.246A.787.787,0,0,0,144.2-2.672ZM0,1H20.542V2H0ZM27.569,1H147.612V2H27.569Z" transform="translate(498.517 3001.182)" fill="#12263f"/>
      <g id="Grupo_173348" data-name="Grupo 173348" transform="translate(12.442 889.332)">
        <circle id="Elipse_5005" data-name="Elipse 5005" cx="85.113" cy="85.113" r="85.113" transform="translate(272.558 2110.918) rotate(-45)" fill="#2a81a5"/>
        <path id="Trazado_188204" data-name="Trazado 188204" d="M395.529,429.366l-10.083-10.037-7.238-7.2a2.864,2.864,0,0,0-4.884,2.03V424.72a85.113,85.113,0,0,0-85.113,85.113q0,3.365.259,6.666a85.119,85.119,0,0,1,84.854-78.446v10.584a2.864,2.864,0,0,0,4.884,2.03l7.238-7.2,10.083-10.037A2.864,2.864,0,0,0,395.529,429.366Z" transform="translate(19.601 1588.683)" fill="#12263f"/>
        <circle id="Elipse_5006" data-name="Elipse 5006" cx="14.85" cy="14.85" r="14.85" transform="translate(288.208 2103.041) rotate(-22.97)" fill="#12263f"/>
        <g id="Grupo_149825" data-name="Grupo 149825" transform="translate(326.148 2043.506)" opacity="0.6" style="mix-blend-mode: multiply;isolation: isolate">
          <path id="Trazado_187653" data-name="Trazado 187653" d="M462.983,720.613a67.261,67.261,0,1,1,67.26-67.262A67.338,67.338,0,0,1,462.983,720.613Z" transform="translate(-364.088 -548.382)" fill="#fff" opacity="0"/>
          <path id="Trazado_187654" data-name="Trazado 187654" d="M462.31,719.809a67.261,67.261,0,1,1,67.26-67.262A67.338,67.338,0,0,1,462.31,719.809Z" transform="translate(-363.728 -547.951)" fill="#f9f9f9" opacity="0.01"/>
          <path id="Trazado_187655" data-name="Trazado 187655" d="M461.636,719.006a67.261,67.261,0,1,1,67.26-67.262A67.338,67.338,0,0,1,461.636,719.006Z" transform="translate(-363.367 -547.522)" fill="#f4f3f3" opacity="0.02"/>
          <path id="Trazado_187656" data-name="Trazado 187656" d="M460.962,718.2a67.261,67.261,0,1,1,67.26-67.262A67.338,67.338,0,0,1,460.962,718.2Z" transform="translate(-363.007 -547.092)" fill="#f0efef" opacity="0.03"/>
          <path id="Trazado_187657" data-name="Trazado 187657" d="M460.288,717.4a67.261,67.261,0,1,1,67.26-67.262A67.337,67.337,0,0,1,460.288,717.4Z" transform="translate(-362.646 -546.662)" fill="#ecebeb" opacity="0.04"/>
          <path id="Trazado_187658" data-name="Trazado 187658" d="M459.614,716.6a67.261,67.261,0,1,1,67.26-67.262A67.338,67.338,0,0,1,459.614,716.6Z" transform="translate(-362.285 -546.232)" fill="#e9e7e7" opacity="0.05"/>
          <path id="Trazado_187659" data-name="Trazado 187659" d="M458.94,715.793a67.261,67.261,0,1,1,67.26-67.262A67.338,67.338,0,0,1,458.94,715.793Z" transform="translate(-361.925 -545.802)" fill="#e6e4e4" opacity="0.059"/>
          <path id="Trazado_187660" data-name="Trazado 187660" d="M458.267,714.99a67.261,67.261,0,1,1,67.26-67.262A67.338,67.338,0,0,1,458.267,714.99Z" transform="translate(-361.564 -545.372)" fill="#e3e1e1" opacity="0.069"/>
          <path id="Trazado_187661" data-name="Trazado 187661" d="M457.593,714.186a67.261,67.261,0,1,1,67.26-67.262A67.338,67.338,0,0,1,457.593,714.186Z" transform="translate(-361.203 -544.942)" fill="#e0dedd" opacity="0.079"/>
          <path id="Trazado_187662" data-name="Trazado 187662" d="M456.919,713.383a67.261,67.261,0,1,1,67.26-67.262A67.338,67.338,0,0,1,456.919,713.383Z" transform="translate(-360.842 -544.512)" fill="#dddbdb" opacity="0.089"/>
          <path id="Trazado_187663" data-name="Trazado 187663" d="M456.245,712.58a67.261,67.261,0,1,1,67.26-67.262A67.338,67.338,0,0,1,456.245,712.58Z" transform="translate(-360.482 -544.082)" fill="#dad8d8" opacity="0.099"/>
          <path id="Trazado_187664" data-name="Trazado 187664" d="M455.571,711.777a67.261,67.261,0,1,1,67.26-67.262A67.338,67.338,0,0,1,455.571,711.777Z" transform="translate(-360.121 -543.653)" fill="#d8d5d5" opacity="0.109"/>
          <path id="Trazado_187665" data-name="Trazado 187665" d="M454.9,710.973a67.261,67.261,0,1,1,67.26-67.262A67.338,67.338,0,0,1,454.9,710.973Z" transform="translate(-359.761 -543.222)" fill="#d5d2d2" opacity="0.119"/>
          <path id="Trazado_187666" data-name="Trazado 187666" d="M454.224,710.17a67.261,67.261,0,1,1,67.26-67.262A67.338,67.338,0,0,1,454.224,710.17Z" transform="translate(-359.4 -542.793)" fill="#d2d0cf" opacity="0.129"/>
          <path id="Trazado_187667" data-name="Trazado 187667" d="M453.55,709.367a67.261,67.261,0,1,1,67.26-67.262A67.338,67.338,0,0,1,453.55,709.367Z" transform="translate(-359.039 -542.363)" fill="#d0cdcd" opacity="0.139"/>
          <path id="Trazado_187668" data-name="Trazado 187668" d="M452.876,708.563a67.261,67.261,0,1,1,67.26-67.261A67.338,67.338,0,0,1,452.876,708.563Z" transform="translate(-358.679 -541.932)" fill="#cdcbca" opacity="0.149"/>
          <path id="Trazado_187669" data-name="Trazado 187669" d="M452.2,707.76a67.261,67.261,0,1,1,67.26-67.262A67.337,67.337,0,0,1,452.2,707.76Z" transform="translate(-358.318 -541.503)" fill="#cbc8c8" opacity="0.158"/>
          <path id="Trazado_187670" data-name="Trazado 187670" d="M451.528,706.957a67.261,67.261,0,1,1,67.26-67.262A67.338,67.338,0,0,1,451.528,706.957Z" transform="translate(-357.958 -541.073)" fill="#c8c5c5" opacity="0.168"/>
          <path id="Trazado_187671" data-name="Trazado 187671" d="M450.854,706.154a67.261,67.261,0,1,1,67.26-67.262A67.338,67.338,0,0,1,450.854,706.154Z" transform="translate(-357.597 -540.643)" fill="#c6c3c2" opacity="0.178"/>
          <path id="Trazado_187672" data-name="Trazado 187672" d="M450.18,705.35a67.261,67.261,0,1,1,67.261-67.262A67.338,67.338,0,0,1,450.18,705.35Z" transform="translate(-357.236 -540.213)" fill="#c3c0c0" opacity="0.188"/>
          <path id="Trazado_187673" data-name="Trazado 187673" d="M449.507,704.547a67.261,67.261,0,1,1,67.26-67.262A67.338,67.338,0,0,1,449.507,704.547Z" transform="translate(-356.875 -539.783)" fill="#c1bebe" opacity="0.198"/>
          <path id="Trazado_187674" data-name="Trazado 187674" d="M448.833,703.744a67.261,67.261,0,1,1,67.26-67.262A67.338,67.338,0,0,1,448.833,703.744Z" transform="translate(-356.515 -539.353)" fill="#bebbbb" opacity="0.208"/>
          <path id="Trazado_187675" data-name="Trazado 187675" d="M448.159,702.94a67.261,67.261,0,1,1,67.26-67.262A67.337,67.337,0,0,1,448.159,702.94Z" transform="translate(-356.155 -538.923)" fill="#bcb9b9" opacity="0.218"/>
          <path id="Trazado_187676" data-name="Trazado 187676" d="M447.485,702.137a67.261,67.261,0,1,1,67.26-67.262A67.338,67.338,0,0,1,447.485,702.137Z" transform="translate(-355.794 -538.493)" fill="#bab7b6" opacity="0.228"/>
          <path id="Trazado_187677" data-name="Trazado 187677" d="M446.811,701.334a67.261,67.261,0,1,1,67.26-67.262A67.338,67.338,0,0,1,446.811,701.334Z" transform="translate(-355.433 -538.064)" fill="#b8b4b4" opacity="0.238"/>
          <path id="Trazado_187678" data-name="Trazado 187678" d="M446.137,700.53a67.261,67.261,0,1,1,67.26-67.262A67.338,67.338,0,0,1,446.137,700.53Z" transform="translate(-355.072 -537.633)" fill="#b5b2b2" opacity="0.248"/>
          <path id="Trazado_187679" data-name="Trazado 187679" d="M445.464,699.727a67.261,67.261,0,1,1,67.26-67.262A67.338,67.338,0,0,1,445.464,699.727Z" transform="translate(-354.712 -537.203)" fill="#b3b0af" opacity="0.257"/>
          <path id="Trazado_187680" data-name="Trazado 187680" d="M444.79,698.924a67.261,67.261,0,1,1,67.26-67.262A67.338,67.338,0,0,1,444.79,698.924Z" transform="translate(-354.351 -536.774)" fill="#b1adad" opacity="0.267"/>
          <path id="Trazado_187681" data-name="Trazado 187681" d="M444.116,698.121a67.261,67.261,0,1,1,67.26-67.262A67.338,67.338,0,0,1,444.116,698.121Z" transform="translate(-353.991 -536.344)" fill="#afabab" opacity="0.277"/>
          <path id="Trazado_187682" data-name="Trazado 187682" d="M443.442,697.317a67.261,67.261,0,1,1,67.26-67.262A67.337,67.337,0,0,1,443.442,697.317Z" transform="translate(-353.63 -535.914)" fill="#ada9a9" opacity="0.287"/>
          <path id="Trazado_187683" data-name="Trazado 187683" d="M442.768,696.514a67.261,67.261,0,1,1,67.26-67.262A67.338,67.338,0,0,1,442.768,696.514Z" transform="translate(-353.269 -535.484)" fill="#aaa7a6" opacity="0.297"/>
          <path id="Trazado_187684" data-name="Trazado 187684" d="M442.094,695.711a67.261,67.261,0,1,1,67.26-67.262A67.338,67.338,0,0,1,442.094,695.711Z" transform="translate(-352.908 -535.054)" fill="#a8a4a4" opacity="0.307"/>
          <path id="Trazado_187685" data-name="Trazado 187685" d="M441.421,694.908a67.261,67.261,0,1,1,67.26-67.262A67.338,67.338,0,0,1,441.421,694.908Z" transform="translate(-352.548 -534.624)" fill="#a6a2a2" opacity="0.317"/>
          <path id="Trazado_187686" data-name="Trazado 187686" d="M440.747,694.1a67.261,67.261,0,1,1,67.26-67.262A67.338,67.338,0,0,1,440.747,694.1Z" transform="translate(-352.187 -534.194)" fill="#a4a0a0" opacity="0.327"/>
          <path id="Trazado_187687" data-name="Trazado 187687" d="M440.073,693.3a67.261,67.261,0,1,1,67.26-67.262A67.337,67.337,0,0,1,440.073,693.3Z" transform="translate(-351.827 -533.764)" fill="#a29e9e" opacity="0.337"/>
          <path id="Trazado_187688" data-name="Trazado 187688" d="M439.4,692.5a67.261,67.261,0,1,1,67.26-67.262A67.338,67.338,0,0,1,439.4,692.5Z" transform="translate(-351.466 -533.334)" fill="#a09c9c" opacity="0.347"/>
          <path id="Trazado_187689" data-name="Trazado 187689" d="M438.725,691.694a67.261,67.261,0,1,1,67.26-67.262A67.338,67.338,0,0,1,438.725,691.694Z" transform="translate(-351.105 -532.904)" fill="#9e9a9a" opacity="0.356"/>
          <path id="Trazado_187690" data-name="Trazado 187690" d="M438.051,690.891a67.261,67.261,0,1,1,67.26-67.262A67.338,67.338,0,0,1,438.051,690.891Z" transform="translate(-350.745 -532.474)" fill="#9c9898" opacity="0.366"/>
          <path id="Trazado_187691" data-name="Trazado 187691" d="M437.378,690.088a67.261,67.261,0,1,1,67.26-67.262A67.338,67.338,0,0,1,437.378,690.088Z" transform="translate(-350.384 -532.044)" fill="#9a9696" opacity="0.376"/>
          <path id="Trazado_187692" data-name="Trazado 187692" d="M436.7,689.284a67.261,67.261,0,1,1,67.26-67.262A67.338,67.338,0,0,1,436.7,689.284Z" transform="translate(-350.023 -531.614)" fill="#989494" opacity="0.386"/>
          <path id="Trazado_187693" data-name="Trazado 187693" d="M436.03,688.481a67.261,67.261,0,1,1,67.26-67.262A67.337,67.337,0,0,1,436.03,688.481Z" transform="translate(-349.663 -531.184)" fill="#969292" opacity="0.396"/>
          <path id="Trazado_187694" data-name="Trazado 187694" d="M435.356,687.678a67.261,67.261,0,1,1,67.26-67.262A67.337,67.337,0,0,1,435.356,687.678Z" transform="translate(-349.302 -530.755)" fill="#949090" opacity="0.406"/>
          <path id="Trazado_187695" data-name="Trazado 187695" d="M434.682,686.875a67.261,67.261,0,1,1,67.26-67.262A67.338,67.338,0,0,1,434.682,686.875Z" transform="translate(-348.941 -530.325)" fill="#928e8e" opacity="0.416"/>
          <path id="Trazado_187696" data-name="Trazado 187696" d="M434.008,686.071a67.261,67.261,0,1,1,67.26-67.262A67.338,67.338,0,0,1,434.008,686.071Z" transform="translate(-348.581 -529.895)" fill="#908c8c" opacity="0.426"/>
          <path id="Trazado_187697" data-name="Trazado 187697" d="M433.335,685.268a67.261,67.261,0,1,1,67.26-67.262A67.338,67.338,0,0,1,433.335,685.268Z" transform="translate(-348.22 -529.465)" fill="#8e8a8a" opacity="0.436"/>
          <path id="Trazado_187698" data-name="Trazado 187698" d="M432.661,684.465a67.261,67.261,0,1,1,67.26-67.262A67.338,67.338,0,0,1,432.661,684.465Z" transform="translate(-347.859 -529.035)" fill="#8c8888" opacity="0.446"/>
          <path id="Trazado_187699" data-name="Trazado 187699" d="M431.987,683.662a67.261,67.261,0,1,1,67.26-67.262A67.337,67.337,0,0,1,431.987,683.662Z" transform="translate(-347.499 -528.605)" fill="#8b8787" opacity="0.455"/>
          <path id="Trazado_187700" data-name="Trazado 187700" d="M431.313,682.858a67.261,67.261,0,1,1,67.26-67.262A67.338,67.338,0,0,1,431.313,682.858Z" transform="translate(-347.138 -528.175)" fill="#898585" opacity="0.465"/>
          <path id="Trazado_187701" data-name="Trazado 187701" d="M430.639,682.055a67.261,67.261,0,1,1,67.26-67.262A67.338,67.338,0,0,1,430.639,682.055Z" transform="translate(-346.778 -527.745)" fill="#878383" opacity="0.475"/>
          <path id="Trazado_187702" data-name="Trazado 187702" d="M429.965,681.252a67.261,67.261,0,1,1,67.26-67.262A67.338,67.338,0,0,1,429.965,681.252Z" transform="translate(-346.417 -527.315)" fill="#858181" opacity="0.485"/>
          <path id="Trazado_187703" data-name="Trazado 187703" d="M429.292,680.448a67.261,67.261,0,1,1,67.26-67.261A67.338,67.338,0,0,1,429.292,680.448Z" transform="translate(-346.056 -526.885)" fill="#847f7f" opacity="0.495"/>
          <path id="Trazado_187704" data-name="Trazado 187704" d="M428.618,679.645a67.261,67.261,0,1,1,67.26-67.262A67.338,67.338,0,0,1,428.618,679.645Z" transform="translate(-345.695 -526.455)" fill="#827e7e" opacity="0.505"/>
          <path id="Trazado_187705" data-name="Trazado 187705" d="M427.944,678.842A67.261,67.261,0,1,1,495.2,611.58,67.337,67.337,0,0,1,427.944,678.842Z" transform="translate(-345.335 -526.025)" fill="#807c7c" opacity="0.515"/>
          <path id="Trazado_187706" data-name="Trazado 187706" d="M427.27,678.039a67.261,67.261,0,1,1,67.26-67.262A67.337,67.337,0,0,1,427.27,678.039Z" transform="translate(-344.974 -525.596)" fill="#7e7a7a" opacity="0.525"/>
          <path id="Trazado_187707" data-name="Trazado 187707" d="M426.6,677.235a67.261,67.261,0,1,1,67.26-67.262A67.338,67.338,0,0,1,426.6,677.235Z" transform="translate(-344.614 -525.165)" fill="#7c7879" opacity="0.535"/>
          <path id="Trazado_187708" data-name="Trazado 187708" d="M425.922,676.432a67.261,67.261,0,1,1,67.26-67.262A67.338,67.338,0,0,1,425.922,676.432Z" transform="translate(-344.253 -524.736)" fill="#7b7777" opacity="0.545"/>
          <path id="Trazado_187709" data-name="Trazado 187709" d="M425.248,675.629a67.261,67.261,0,1,1,67.261-67.262A67.338,67.338,0,0,1,425.248,675.629Z" transform="translate(-343.892 -524.306)" fill="#797575" opacity="0.554"/>
          <path id="Trazado_187710" data-name="Trazado 187710" d="M424.575,674.825a67.261,67.261,0,1,1,67.26-67.262A67.338,67.338,0,0,1,424.575,674.825Z" transform="translate(-343.531 -523.875)" fill="#777474" opacity="0.564"/>
          <path id="Trazado_187711" data-name="Trazado 187711" d="M423.9,674.022a67.261,67.261,0,1,1,67.26-67.262A67.338,67.338,0,0,1,423.9,674.022Z" transform="translate(-343.171 -523.446)" fill="#767272" opacity="0.574"/>
          <path id="Trazado_187712" data-name="Trazado 187712" d="M423.227,673.219a67.261,67.261,0,1,1,67.26-67.262A67.337,67.337,0,0,1,423.227,673.219Z" transform="translate(-342.811 -523.016)" fill="#747070" opacity="0.584"/>
          <path id="Trazado_187713" data-name="Trazado 187713" d="M422.553,672.416a67.261,67.261,0,1,1,67.26-67.262A67.338,67.338,0,0,1,422.553,672.416Z" transform="translate(-342.45 -522.586)" fill="#726f6f" opacity="0.594"/>
          <path id="Trazado_187714" data-name="Trazado 187714" d="M421.879,671.612a67.261,67.261,0,1,1,67.26-67.262A67.338,67.338,0,0,1,421.879,671.612Z" transform="translate(-342.089 -522.156)" fill="#716d6d" opacity="0.604"/>
          <path id="Trazado_187715" data-name="Trazado 187715" d="M421.205,670.809a67.261,67.261,0,1,1,67.261-67.262A67.338,67.338,0,0,1,421.205,670.809Z" transform="translate(-341.728 -521.726)" fill="#6f6c6c" opacity="0.614"/>
          <path id="Trazado_187716" data-name="Trazado 187716" d="M420.532,670.006a67.261,67.261,0,1,1,67.26-67.262A67.338,67.338,0,0,1,420.532,670.006Z" transform="translate(-341.368 -521.296)" fill="#6e6a6a" opacity="0.624"/>
          <path id="Trazado_187717" data-name="Trazado 187717" d="M419.858,669.2a67.261,67.261,0,1,1,67.26-67.262A67.338,67.338,0,0,1,419.858,669.2Z" transform="translate(-341.007 -520.866)" fill="#6c6969" opacity="0.634"/>
          <path id="Trazado_187718" data-name="Trazado 187718" d="M419.184,668.4a67.261,67.261,0,1,1,67.26-67.262A67.337,67.337,0,0,1,419.184,668.4Z" transform="translate(-340.647 -520.436)" fill="#6b6767" opacity="0.644"/>
          <path id="Trazado_187719" data-name="Trazado 187719" d="M418.51,667.6a67.261,67.261,0,1,1,67.26-67.262A67.338,67.338,0,0,1,418.51,667.6Z" transform="translate(-340.286 -520.007)" fill="#696666" opacity="0.653"/>
          <path id="Trazado_187720" data-name="Trazado 187720" d="M417.836,666.793a67.261,67.261,0,1,1,67.26-67.262A67.338,67.338,0,0,1,417.836,666.793Z" transform="translate(-339.925 -519.577)" fill="#686464" opacity="0.663"/>
          <path id="Trazado_187721" data-name="Trazado 187721" d="M417.162,665.989a67.261,67.261,0,1,1,67.26-67.262A67.338,67.338,0,0,1,417.162,665.989Z" transform="translate(-339.565 -519.146)" fill="#666363" opacity="0.673"/>
          <path id="Trazado_187722" data-name="Trazado 187722" d="M416.489,665.186a67.261,67.261,0,1,1,67.26-67.262A67.338,67.338,0,0,1,416.489,665.186Z" transform="translate(-339.204 -518.717)" fill="#656261" opacity="0.683"/>
          <path id="Trazado_187723" data-name="Trazado 187723" d="M415.815,664.383a67.261,67.261,0,1,1,67.26-67.262A67.338,67.338,0,0,1,415.815,664.383Z" transform="translate(-338.843 -518.287)" fill="#646060" opacity="0.693"/>
          <path id="Trazado_187724" data-name="Trazado 187724" d="M415.141,663.579a67.261,67.261,0,1,1,67.26-67.262A67.338,67.338,0,0,1,415.141,663.579Z" transform="translate(-338.483 -517.857)" fill="#625f5f" opacity="0.703"/>
          <path id="Trazado_187725" data-name="Trazado 187725" d="M414.467,662.776a67.261,67.261,0,1,1,67.26-67.262A67.338,67.338,0,0,1,414.467,662.776Z" transform="translate(-338.122 -517.427)" fill="#615d5d" opacity="0.713"/>
          <path id="Trazado_187726" data-name="Trazado 187726" d="M413.793,661.973a67.261,67.261,0,1,1,67.26-67.262A67.338,67.338,0,0,1,413.793,661.973Z" transform="translate(-337.761 -516.997)" fill="#5f5c5c" opacity="0.723"/>
          <path id="Trazado_187727" data-name="Trazado 187727" d="M413.119,661.17a67.261,67.261,0,1,1,67.26-67.262A67.338,67.338,0,0,1,413.119,661.17Z" transform="translate(-337.401 -516.567)" fill="#5e5b5b" opacity="0.733"/>
          <path id="Trazado_187728" data-name="Trazado 187728" d="M412.446,660.366a67.261,67.261,0,1,1,67.26-67.262A67.338,67.338,0,0,1,412.446,660.366Z" transform="translate(-337.04 -516.137)" fill="#5d5959" opacity="0.743"/>
          <path id="Trazado_187729" data-name="Trazado 187729" d="M411.772,659.563a67.261,67.261,0,1,1,67.26-67.262A67.338,67.338,0,0,1,411.772,659.563Z" transform="translate(-336.679 -515.707)" fill="#5b5858" opacity="0.752"/>
          <path id="Trazado_187730" data-name="Trazado 187730" d="M411.1,658.76a67.261,67.261,0,1,1,67.26-67.262A67.337,67.337,0,0,1,411.1,658.76Z" transform="translate(-336.319 -515.277)" fill="#5a5757" opacity="0.762"/>
          <path id="Trazado_187731" data-name="Trazado 187731" d="M410.424,657.957a67.261,67.261,0,1,1,67.26-67.262A67.338,67.338,0,0,1,410.424,657.957Z" transform="translate(-335.958 -514.848)" fill="#585655" opacity="0.772"/>
          <path id="Trazado_187732" data-name="Trazado 187732" d="M409.75,657.153a67.261,67.261,0,1,1,67.26-67.262A67.338,67.338,0,0,1,409.75,657.153Z" transform="translate(-335.598 -514.417)" fill="#575454" opacity="0.782"/>
          <path id="Trazado_187733" data-name="Trazado 187733" d="M409.076,656.35a67.261,67.261,0,1,1,67.26-67.262A67.338,67.338,0,0,1,409.076,656.35Z" transform="translate(-335.237 -513.987)" fill="#565353" opacity="0.792"/>
          <path id="Trazado_187734" data-name="Trazado 187734" d="M408.4,655.547a67.261,67.261,0,1,1,67.26-67.262A67.338,67.338,0,0,1,408.4,655.547Z" transform="translate(-334.876 -513.558)" fill="#545252" opacity="0.802"/>
          <path id="Trazado_187735" data-name="Trazado 187735" d="M407.729,654.743a67.261,67.261,0,1,1,67.26-67.262A67.338,67.338,0,0,1,407.729,654.743Z" transform="translate(-334.515 -513.127)" fill="#535151" opacity="0.812"/>
          <path id="Trazado_187736" data-name="Trazado 187736" d="M407.055,653.94a67.261,67.261,0,1,1,67.26-67.262A67.337,67.337,0,0,1,407.055,653.94Z" transform="translate(-334.155 -512.698)" fill="#52504f" opacity="0.822"/>
          <path id="Trazado_187737" data-name="Trazado 187737" d="M406.381,653.137a67.261,67.261,0,1,1,67.26-67.262A67.337,67.337,0,0,1,406.381,653.137Z" transform="translate(-333.794 -512.268)" fill="#514e4e" opacity="0.832"/>
          <path id="Trazado_187738" data-name="Trazado 187738" d="M405.707,652.333a67.261,67.261,0,1,1,67.26-67.261A67.337,67.337,0,0,1,405.707,652.333Z" transform="translate(-333.434 -511.838)" fill="#4f4d4d" opacity="0.842"/>
          <path id="Trazado_187739" data-name="Trazado 187739" d="M405.033,651.53a67.261,67.261,0,1,1,67.26-67.262A67.338,67.338,0,0,1,405.033,651.53Z" transform="translate(-333.073 -511.408)" fill="#4e4c4c" opacity="0.851"/>
          <path id="Trazado_187740" data-name="Trazado 187740" d="M404.36,650.727a67.261,67.261,0,1,1,67.26-67.262A67.338,67.338,0,0,1,404.36,650.727Z" transform="translate(-332.712 -510.978)" fill="#4d4b4b" opacity="0.861"/>
          <path id="Trazado_187741" data-name="Trazado 187741" d="M403.686,649.924a67.261,67.261,0,1,1,67.26-67.262A67.338,67.338,0,0,1,403.686,649.924Z" transform="translate(-332.351 -510.548)" fill="#4c4a4a" opacity="0.871"/>
          <path id="Trazado_187742" data-name="Trazado 187742" d="M403.012,649.12a67.261,67.261,0,1,1,67.26-67.262A67.337,67.337,0,0,1,403.012,649.12Z" transform="translate(-331.991 -510.118)" fill="#4b4949" opacity="0.881"/>
          <path id="Trazado_187743" data-name="Trazado 187743" d="M402.338,648.317a67.261,67.261,0,1,1,67.26-67.262A67.337,67.337,0,0,1,402.338,648.317Z" transform="translate(-331.631 -509.688)" fill="#494848" opacity="0.891"/>
          <path id="Trazado_187744" data-name="Trazado 187744" d="M401.664,647.514a67.261,67.261,0,1,1,67.26-67.262A67.338,67.338,0,0,1,401.664,647.514Z" transform="translate(-331.27 -509.258)" fill="#484747" opacity="0.901"/>
          <path id="Trazado_187745" data-name="Trazado 187745" d="M400.99,646.711a67.261,67.261,0,1,1,67.26-67.262A67.338,67.338,0,0,1,400.99,646.711Z" transform="translate(-330.909 -508.829)" fill="#474646" opacity="0.911"/>
          <path id="Trazado_187746" data-name="Trazado 187746" d="M400.316,645.907a67.261,67.261,0,1,1,67.261-67.262A67.338,67.338,0,0,1,400.316,645.907Z" transform="translate(-330.548 -508.398)" fill="#464545" opacity="0.921"/>
          <path id="Trazado_187747" data-name="Trazado 187747" d="M399.643,645.1a67.261,67.261,0,1,1,67.26-67.262A67.338,67.338,0,0,1,399.643,645.1Z" transform="translate(-330.188 -507.968)" fill="#454444" opacity="0.931"/>
          <path id="Trazado_187748" data-name="Trazado 187748" d="M398.969,644.3a67.261,67.261,0,1,1,67.26-67.262A67.337,67.337,0,0,1,398.969,644.3Z" transform="translate(-329.827 -507.539)" fill="#444343" opacity="0.941"/>
          <path id="Trazado_187749" data-name="Trazado 187749" d="M398.3,643.5a67.261,67.261,0,1,1,67.26-67.261A67.337,67.337,0,0,1,398.3,643.5Z" transform="translate(-329.467 -507.108)" fill="#424242" opacity="0.95"/>
          <path id="Trazado_187750" data-name="Trazado 187750" d="M397.621,642.694a67.261,67.261,0,1,1,67.26-67.262A67.338,67.338,0,0,1,397.621,642.694Z" transform="translate(-329.106 -506.679)" fill="#414141" opacity="0.96"/>
          <path id="Trazado_187751" data-name="Trazado 187751" d="M396.947,641.891a67.261,67.261,0,1,1,67.26-67.262A67.338,67.338,0,0,1,396.947,641.891Z" transform="translate(-328.745 -506.249)" fill="#404040" opacity="0.97"/>
          <path id="Trazado_187752" data-name="Trazado 187752" d="M396.273,641.087a67.261,67.261,0,1,1,67.261-67.262A67.338,67.338,0,0,1,396.273,641.087Z" transform="translate(-328.384 -505.819)" fill="#3f3f3f" opacity="0.98"/>
          <path id="Trazado_187753" data-name="Trazado 187753" d="M395.6,640.284a67.261,67.261,0,1,1,67.26-67.262A67.338,67.338,0,0,1,395.6,640.284Z" transform="translate(-328.024 -505.389)" fill="#3e3e3e" opacity="0.99"/>
          <path id="Trazado_187754" data-name="Trazado 187754" d="M394.926,639.481a67.261,67.261,0,1,1,67.26-67.262A67.338,67.338,0,0,1,394.926,639.481Z" transform="translate(-327.663 -504.959)" fill="#3d3d3d"/>
        </g>
        <g id="Grupo_149826" data-name="Grupo 149826" transform="translate(296.631 2014.625)">
          <g id="Grupo_149802" data-name="Grupo 149802" transform="translate(0 0)">
            <circle id="Elipse_4995" data-name="Elipse 4995" cx="68.09" cy="68.09" r="68.09" transform="translate(0 96.294) rotate(-45)" fill="url(#linear-gradient)"/>
            <circle id="Elipse_4996" data-name="Elipse 4996" cx="64.686" cy="64.686" r="64.686" transform="translate(4.815 96.294) rotate(-45)" fill="url(#linear-gradient-2)"/>
          </g>
        </g>
        <text id="_01" data-name="01" transform="translate(297.667 2117)" fill="#fff" font-size="16" font-family="Roboto-Bold, Roboto" font-weight="700"><tspan x="0" y="0">01</tspan></text>
      </g>
    </g>
    <g id="Grupo_173355" data-name="Grupo 173355" transform="translate(-4.688 -131.28)">
      <path id="Trazado_208057" data-name="Trazado 208057" d="M-322.538.675c-.436.029-.431-.161-.429-.508q.029-5.348.016-10.7A1.115,1.115,0,0,0-324-11.782a1.162,1.162,0,0,0-1.139,1.184c-.017.194-.005.39-.005.586q0,4.762,0,9.524c0,1.063-.089,1.155-1.11,1.156q-15.022,0-30.044,0c-.928,0-1.095-.168-1.095-1.116q0-9.524,0-19.048c0-1.005.141-1.148,1.138-1.149q4.323,0,8.647,0,10.662,0,21.324,0c1.036,0,1.138.1,1.14,1.13,0,1.148-.012,2.3.006,3.443.014.849.458,1.353,1.126,1.341.639-.012,1.056-.5,1.064-1.31.013-1.294,0-2.589,0-3.883a2.87,2.87,0,0,0-.7-1.947,3.2,3.2,0,0,0-2.643-.98q-10.992.016-21.983.012a4.316,4.316,0,0,1-1.573-.259c-2.468-.942-1.927-.178-2.028-2.844a1.433,1.433,0,0,1,.75-1.4,14.039,14.039,0,0,0,6.161-9.707c.071-.437.134-.693.73-.718a4.15,4.15,0,0,0,3.9-5.178,5.7,5.7,0,0,1-.24-1.642c-.064-3.343.205-6.694-.152-10.027a9.485,9.485,0,0,0-3.154-6.325,17.081,17.081,0,0,1-1.581-1.173,17.66,17.66,0,0,0-10.37-5.548,3.547,3.547,0,0,1-1.453-.267h-.147a6.065,6.065,0,0,1-2.931,0h-.586c-.069.187-.236.13-.371.146a18.675,18.675,0,0,0-10.6,4.824,1.117,1.117,0,0,0-.393,1.3,1.073,1.073,0,0,0,1.8.347,21.821,21.821,0,0,1,3.077-2.229,16.575,16.575,0,0,1,10.729-2.007,15.184,15.184,0,0,1,9.718,5.027,2.75,2.75,0,0,0,.773.659,6.054,6.054,0,0,1,2.993,4.051c.883,3.341.241,6.753.493,10.184a7.541,7.541,0,0,0-1.513-.307c-.409.026-.543-.129-.531-.543.029-.952.026-1.905,0-2.857a1.752,1.752,0,0,0-1.636-1.982,4.654,4.654,0,0,1-3.323-2.263,2.211,2.211,0,0,0-3.6-.557,17.507,17.507,0,0,1-13.931,3.713,5.51,5.51,0,0,0-6.31,4.044c-.067.305-.2.46-.543.438a3.18,3.18,0,0,0-1.285.245c-.226.082-.362.054-.359-.242a33.206,33.206,0,0,1,.387-6.784,18.835,18.835,0,0,1,1.788-4.691,1.086,1.086,0,0,0-.446-1.562,1.089,1.089,0,0,0-1.484.54,18.84,18.84,0,0,0-2.306,7.181c-.25,2.363-.075,4.734-.136,7.1a1.9,1.9,0,0,1-.083.791c-1.14,2.488.829,5.43,3.83,5.6.526.029.585.257.644.645a13.516,13.516,0,0,0,5.835,9.5,2.941,2.941,0,0,1,1.511,3.126.9.9,0,0,1-.65.913c-3.68,1.272-7.355,2.562-11.033,3.841a6.878,6.878,0,0,0-4.755,5.028c-.6,2.436-1.044,4.909-1.532,7.37-.635,3.2-1.309,6.4-1.847,9.621a3.88,3.88,0,0,0,3.156,4.681.972.972,0,0,1,.234.138h27.555c.471-.371.914-.766.657-1.454-.25-.668-.813-.758-1.438-.748-1.025.016-2.05.017-3.075,0a1.612,1.612,0,0,1-1.646-1.191c-.13-.491-.007-.825.57-.844.146,0,.293,0,.439,0q18.306,0,36.612.007c.361,0,.846-.189,1.026.309a1.2,1.2,0,0,1-.46,1.3,1.988,1.988,0,0,1-1.5.43q-12.741-.007-25.482,0c-.171,0-.342.006-.513,0-.622-.026-1.188.067-1.439.741s.181,1.083.647,1.458h28a4.363,4.363,0,0,0,2.659-2.2C-318.91,2.327-320.656.552-322.538.675Zm-21.78-44.424a2.113,2.113,0,0,1,1.962,1.915,2.116,2.116,0,0,1-1.975,1.9c-.29.016-.456-.034-.439-.383.025-.509.006-1.021.006-1.531,0-.486.019-.973-.006-1.458C-344.789-43.655-344.675-43.772-344.319-43.749Zm-29.433,1.912c0,.487-.027.975.008,1.459.031.435-.182.478-.526.437a2.1,2.1,0,0,1-1.9-1.905,2.1,2.1,0,0,1,1.9-1.9c.352-.037.55.019.519.445C-373.779-42.812-373.752-42.323-373.752-41.837Zm3.2,7.519a11.587,11.587,0,0,1-.976-4.544c-.016-1.953-.029-3.906-.019-5.859.013-2.515,1.582-3.807,4.091-3.5a19.552,19.552,0,0,0,15.252-4.018c.425-.341.573-.243.844.17a6.116,6.116,0,0,0,3.886,2.767c.42.092.53.282.524.7-.024,1.757-.01,3.515-.01,5.63a35.364,35.364,0,0,1-.261,6.141A12.312,12.312,0,0,1-357.7-27.117,12.5,12.5,0,0,1-370.555-34.318Zm-6.024,39.234c-1.683-.019-3.366.007-5.049-.013-1.77-.022-2.457-.795-2.2-2.537.188-1.274.5-2.531.709-3.8.06-.356.208-.42.522-.416,1.024.015,2.049.005,3.073.005,1,0,2,.018,3-.009.386-.01.489.107.485.488-.019,1.926-.023,3.854,0,5.78C-376.031,4.855-376.192,4.92-376.579,4.916ZM-360.566.76a2.537,2.537,0,0,0-2.187,3.246c.061.283.128.566.2.9h-3.535c-2.392,0-4.785-.014-7.177.012-.476,0-.6-.117-.6-.6.023-3.075.012-6.15.011-9.225a5.3,5.3,0,0,0-.01-.585,1.084,1.084,0,0,0-1.107-1.043,1.1,1.1,0,0,0-1.078,1.077c-.05.453.208,1.109-.116,1.313-.371.233-.984.093-1.492.095-1.609.006-3.219,0-4.934,0,.233-1.2.451-2.355.683-3.507q.634-3.151,1.281-6.3a4.84,4.84,0,0,1,3.247-3.746c3.633-1.323,7.3-2.55,10.955-3.814a.549.549,0,0,1,.139-.013c.487,3.52,2.652,4.255,5.3,4.627,1.375.193,1.384.123,1.384,1.475,0,4.954-.027,9.909.025,14.863C-359.56.361-359.6.684-360.566.76Zm.986-20.348c0,.592-.074.808-.747.681-.645-.122-1.3-.225-1.928-.4a2.274,2.274,0,0,1-1.767-2.24c-.031-1.316-.007-2.634-.007-4.059a14.707,14.707,0,0,0,9.966-.147c0,.883-.015,1.7.007,2.518.01.364-.179.385-.453.381-.61-.01-1.221-.007-1.831,0A2.91,2.91,0,0,0-359.58-19.588Z" transform="translate(763.949 3158.506)" fill="#12263f"/>
      <path id="Trazado_208058" data-name="Trazado 208058" d="M-242.7-67.923h-2.931A11.781,11.781,0,0,0-242.7-67.923Z" transform="translate(649.215 3155.196)" fill="#12263f"/>
      <path id="Trazado_208059" data-name="Trazado 208059" d="M-242.7-67.923a11.781,11.781,0,0,1-2.931,0A6.065,6.065,0,0,0-242.7-67.923Z" transform="translate(649.215 3155.196)" fill="#12263f"/>
      <path id="Trazado_208060" data-name="Trazado 208060" d="M-161.133,232.079a3.616,3.616,0,0,0,3.635,3.613,3.618,3.618,0,0,0,3.611-3.636,3.619,3.619,0,0,0-3.634-3.614A3.618,3.618,0,0,0-161.133,232.079Zm5.045.012a1.439,1.439,0,0,1-1.409,1.4,1.422,1.422,0,0,1-1.426-1.449,1.413,1.413,0,0,1,1.4-1.393A1.429,1.429,0,0,1-156.088,232.09Z" transform="translate(580.201 2896.994)" fill="#12263f"/>
    </g>
  </g>
</svg>
