<svg xmlns="http://www.w3.org/2000/svg" xmlns:xlink="http://www.w3.org/1999/xlink" width="1046" height="254" viewBox="0 0 1046 254">
  <defs>
    <filter id="Rectángulo_44571" x="0" y="0" width="254" height="254" filterUnits="userSpaceOnUse">
      <feOffset dy="3" input="SourceAlpha"/>
      <feGaussianBlur stdDeviation="3" result="blur"/>
      <feFlood flood-opacity="0.161"/>
      <feComposite operator="in" in2="blur"/>
      <feComposite in="SourceGraphic"/>
    </filter>
    <filter id="Rectángulo_263653" x="264" y="0" width="254" height="254" filterUnits="userSpaceOnUse">
      <feOffset dy="3" input="SourceAlpha"/>
      <feGaussianBlur stdDeviation="3" result="blur-2"/>
      <feFlood flood-opacity="0.161"/>
      <feComposite operator="in" in2="blur-2"/>
      <feComposite in="SourceGraphic"/>
    </filter>
    <filter id="Rectángulo_263654" x="528" y="0" width="254" height="254" filterUnits="userSpaceOnUse">
      <feOffset dy="3" input="SourceAlpha"/>
      <feGaussianBlur stdDeviation="3" result="blur-3"/>
      <feFlood flood-opacity="0.161"/>
      <feComposite operator="in" in2="blur-3"/>
      <feComposite in="SourceGraphic"/>
    </filter>
    <filter id="Rectángulo_263655" x="792" y="0" width="254" height="254" filterUnits="userSpaceOnUse">
      <feOffset dy="3" input="SourceAlpha"/>
      <feGaussianBlur stdDeviation="3" result="blur-4"/>
      <feFlood flood-opacity="0.161"/>
      <feComposite operator="in" in2="blur-4"/>
      <feComposite in="SourceGraphic"/>
    </filter>
    <linearGradient id="linear-gradient" x1="0.5" x2="0.5" y2="1" gradientUnits="objectBoundingBox">
      <stop offset="0" stop-color="#039be5"/>
      <stop offset="1" stop-color="#027fbc"/>
    </linearGradient>
    <clipPath id="clip-path">
      <rect id="Rectángulo_263662" data-name="Rectángulo 263662" width="68.808" height="68.817" fill="#fff"/>
    </clipPath>
    <clipPath id="clip-path-2">
      <rect id="Rectángulo_263664" data-name="Rectángulo 263664" width="70.082" height="70.033" fill="#fff"/>
    </clipPath>
    <clipPath id="clip-path-3">
      <rect id="Rectángulo_263668" data-name="Rectángulo 263668" width="64.727" height="64.681" fill="#fff"/>
    </clipPath>
  </defs>
  <g id="Grupo_712081" data-name="Grupo 712081" transform="translate(-275.676 -10975.963)">
    <g id="Grupo_710499" data-name="Grupo 710499" transform="translate(0 -60.037)">
      <g transform="matrix(1, 0, 0, 1, 275.68, 11036)" filter="url(#Rectángulo_44571)">
        <rect id="Rectángulo_44571-2" data-name="Rectángulo 44571" width="236" height="236" rx="10" transform="translate(9 6)" fill="#d1e2f2"/>
      </g>
      <g transform="matrix(1, 0, 0, 1, 275.68, 11036)" filter="url(#Rectángulo_263653)">
        <rect id="Rectángulo_263653-2" data-name="Rectángulo 263653" width="236" height="236" rx="10" transform="translate(273 6)" fill="#bae3f7"/>
      </g>
      <g transform="matrix(1, 0, 0, 1, 275.68, 11036)" filter="url(#Rectángulo_263654)">
        <rect id="Rectángulo_263654-2" data-name="Rectángulo 263654" width="236" height="236" rx="10" transform="translate(537 6)" fill="#d1e2f2"/>
      </g>
      <g transform="matrix(1, 0, 0, 1, 275.68, 11036)" filter="url(#Rectángulo_263655)">
        <rect id="Rectángulo_263655-2" data-name="Rectángulo 263655" width="236" height="236" rx="10" transform="translate(801 6)" fill="#bae3f7"/>
      </g>
      <path id="Trazado_468376" data-name="Trazado 468376" d="M79.277,12.992V17H76.934V5.625h4.438a5.134,5.134,0,0,1,2.254.469,3.454,3.454,0,0,1,1.5,1.332,3.714,3.714,0,0,1,.523,1.965A3.266,3.266,0,0,1,84.5,12.027a4.767,4.767,0,0,1-3.168.965Zm0-1.9h2.094a2.059,2.059,0,0,0,1.418-.437,1.591,1.591,0,0,0,.488-1.25,1.876,1.876,0,0,0-.492-1.352,1.839,1.839,0,0,0-1.359-.531H79.277Zm12.578-.43a6.134,6.134,0,0,0-.812-.062,1.654,1.654,0,0,0-1.68.867V17H87.105V8.547h2.133L89.3,9.555a2.092,2.092,0,0,1,1.883-1.164,2.366,2.366,0,0,1,.7.1Zm4.977,6.492A4.15,4.15,0,0,1,93.8,16.016a4.054,4.054,0,0,1-1.168-3.039v-.219a5.106,5.106,0,0,1,.492-2.277,3.612,3.612,0,0,1,1.395-1.547,3.914,3.914,0,0,1,2.059-.543,3.508,3.508,0,0,1,2.73,1.094,4.444,4.444,0,0,1,1,3.1v.922H94.926a2.1,2.1,0,0,0,.66,1.328,2,2,0,0,0,1.395.5,2.437,2.437,0,0,0,2.039-.945l1.109,1.242a3.389,3.389,0,0,1-1.375,1.121A4.511,4.511,0,0,1,96.832,17.156Zm-.258-6.945a1.411,1.411,0,0,0-1.09.455,2.357,2.357,0,0,0-.535,1.3H98.09v-.181a1.681,1.681,0,0,0-.406-1.165A1.456,1.456,0,0,0,96.574,10.211ZM109.2,12.852a5.07,5.07,0,0,1-.887,3.129,2.843,2.843,0,0,1-2.395,1.176,2.633,2.633,0,0,1-2.07-.891V20.25H101.59V8.547h2.094l.078.828a2.654,2.654,0,0,1,2.141-.984,2.862,2.862,0,0,1,2.43,1.156,5.207,5.207,0,0,1,.867,3.188Zm-2.258-.164a3.327,3.327,0,0,0-.418-1.82,1.361,1.361,0,0,0-1.215-.641,1.478,1.478,0,0,0-1.461.813V14.5a1.5,1.5,0,0,0,1.477.836Q106.941,15.336,106.941,12.688ZM115.5,17a2.507,2.507,0,0,1-.227-.758,2.732,2.732,0,0,1-2.133.914,3,3,0,0,1-2.059-.719,2.312,2.312,0,0,1-.816-1.812,2.389,2.389,0,0,1,1-2.062,4.915,4.915,0,0,1,2.879-.727h1.039v-.484a1.393,1.393,0,0,0-.3-.937,1.183,1.183,0,0,0-.949-.352,1.345,1.345,0,0,0-.895.273.929.929,0,0,0-.324.75h-2.258a2.268,2.268,0,0,1,.453-1.359,3,3,0,0,1,1.281-.98,4.669,4.669,0,0,1,1.859-.355,3.689,3.689,0,0,1,2.48.785,2.747,2.747,0,0,1,.918,2.207v3.664a4.041,4.041,0,0,0,.336,1.82V17Zm-1.867-1.57a1.945,1.945,0,0,0,.922-.223,1.462,1.462,0,0,0,.625-.6V13.156h-.844q-1.7,0-1.8,1.172l-.008.133a.9.9,0,0,0,.3.7A1.153,1.153,0,0,0,113.629,15.43Zm10.3-4.766a6.134,6.134,0,0,0-.812-.062,1.654,1.654,0,0,0-1.68.867V17h-2.258V8.547h2.133l.063,1.008a2.092,2.092,0,0,1,1.883-1.164,2.366,2.366,0,0,1,.7.1ZM129.676,17a2.507,2.507,0,0,1-.227-.758,2.732,2.732,0,0,1-2.133.914,3,3,0,0,1-2.059-.719,2.312,2.312,0,0,1-.816-1.812,2.389,2.389,0,0,1,1-2.062,4.915,4.915,0,0,1,2.879-.727h1.039v-.484a1.393,1.393,0,0,0-.3-.937,1.183,1.183,0,0,0-.949-.352,1.345,1.345,0,0,0-.895.273.929.929,0,0,0-.324.75h-2.258a2.268,2.268,0,0,1,.453-1.359,3,3,0,0,1,1.281-.98,4.669,4.669,0,0,1,1.859-.355,3.689,3.689,0,0,1,2.48.785,2.747,2.747,0,0,1,.918,2.207v3.664a4.041,4.041,0,0,0,.336,1.82V17Zm-1.867-1.57a1.945,1.945,0,0,0,.922-.223,1.462,1.462,0,0,0,.625-.6V13.156h-.844q-1.7,0-1.8,1.172l-.008.133a.9.9,0,0,0,.3.7A1.153,1.153,0,0,0,127.809,15.43Zm9.063-.094a1.481,1.481,0,0,0,1.016-.344,1.2,1.2,0,0,0,.406-.914h2.117a2.9,2.9,0,0,1-.469,1.574,3.093,3.093,0,0,1-1.262,1.109,3.949,3.949,0,0,1-1.77.395A3.67,3.67,0,0,1,134.051,16,4.56,4.56,0,0,1,133,12.82v-.148a4.508,4.508,0,0,1,1.039-3.117,3.627,3.627,0,0,1,2.852-1.164,3.555,3.555,0,0,1,2.543.9,3.2,3.2,0,0,1,.973,2.4h-2.117a1.551,1.551,0,0,0-.406-1.072,1.51,1.51,0,0,0-2.223.163,3.333,3.333,0,0,0-.4,1.866v.235a3.375,3.375,0,0,0,.4,1.878A1.377,1.377,0,0,0,136.871,15.336ZM144.082,17h-2.266V8.547h2.266Zm-2.4-10.641a1.112,1.112,0,0,1,.34-.836,1.465,1.465,0,0,1,1.848,0,1.105,1.105,0,0,1,.344.836,1.109,1.109,0,0,1-.348.844,1.448,1.448,0,0,1-1.836,0A1.109,1.109,0,0,1,141.684,6.359ZM145.59,12.7a5.013,5.013,0,0,1,.484-2.242,3.546,3.546,0,0,1,1.395-1.523,4.069,4.069,0,0,1,2.113-.539,3.849,3.849,0,0,1,2.793,1.047,4.2,4.2,0,0,1,1.207,2.844l.016.578a4.418,4.418,0,0,1-1.086,3.121,4.209,4.209,0,0,1-5.832,0,4.5,4.5,0,0,1-1.09-3.187Zm2.258.16A3.16,3.16,0,0,0,148.3,14.7a1.628,1.628,0,0,0,2.578.008,3.457,3.457,0,0,0,.461-2.015,3.128,3.128,0,0,0-.461-1.831,1.5,1.5,0,0,0-1.3-.649,1.474,1.474,0,0,0-1.281.646A3.516,3.516,0,0,0,147.848,12.856ZM150.027,5h2.461l-2.164,2.422h-1.836Zm7.039,3.547.07.977a2.951,2.951,0,0,1,2.43-1.133,2.453,2.453,0,0,1,2,.789,3.682,3.682,0,0,1,.672,2.359V17H159.98V11.594a1.465,1.465,0,0,0-.312-1.043,1.4,1.4,0,0,0-1.039-.324,1.553,1.553,0,0,0-1.43.813V17h-2.258V8.547Z" transform="translate(284.676 11195)" fill="#12263f"/>
      <path id="Trazado_468377" data-name="Trazado 468377" d="M43.723,17V5.625h3.5a5.315,5.315,0,0,1,2.684.676,4.712,4.712,0,0,1,1.848,1.922,5.928,5.928,0,0,1,.664,2.832v.523a5.945,5.945,0,0,1-.652,2.82,4.672,4.672,0,0,1-1.84,1.914,5.355,5.355,0,0,1-2.68.688Zm2.344-9.477v7.594H47.2a2.545,2.545,0,0,0,2.1-.9,4.06,4.06,0,0,0,.742-2.57v-.6a4.124,4.124,0,0,0-.719-2.629,2.537,2.537,0,0,0-2.1-.895Zm11.8,9.633a4.15,4.15,0,0,1-3.027-1.141,4.054,4.054,0,0,1-1.168-3.039v-.219a5.106,5.106,0,0,1,.492-2.277,3.612,3.612,0,0,1,1.395-1.547,3.914,3.914,0,0,1,2.059-.543,3.508,3.508,0,0,1,2.73,1.094,4.444,4.444,0,0,1,1,3.1v.922H55.957a2.1,2.1,0,0,0,.66,1.328,2,2,0,0,0,1.395.5,2.437,2.437,0,0,0,2.039-.945l1.109,1.242a3.389,3.389,0,0,1-1.375,1.121A4.511,4.511,0,0,1,57.863,17.156Zm-.258-6.945a1.411,1.411,0,0,0-1.09.455,2.357,2.357,0,0,0-.535,1.3h3.141v-.181a1.681,1.681,0,0,0-.406-1.165A1.456,1.456,0,0,0,57.605,10.211Zm7.719-3.742V8.547H66.77V10.2H65.324v4.219a1.007,1.007,0,0,0,.18.672.9.9,0,0,0,.688.2,3.6,3.6,0,0,0,.664-.055v1.711a4.648,4.648,0,0,1-1.367.2,2.156,2.156,0,0,1-2.422-2.4V10.2H61.832V8.547h1.234V6.469Zm6.594,10.688a4.15,4.15,0,0,1-3.027-1.141,4.054,4.054,0,0,1-1.168-3.039v-.219a5.106,5.106,0,0,1,.492-2.277,3.612,3.612,0,0,1,1.395-1.547,3.914,3.914,0,0,1,2.059-.543A3.508,3.508,0,0,1,74.4,9.484a4.444,4.444,0,0,1,1,3.1v.922H70.012a2.1,2.1,0,0,0,.66,1.328,2,2,0,0,0,1.395.5,2.437,2.437,0,0,0,2.039-.945l1.109,1.242a3.389,3.389,0,0,1-1.375,1.121A4.511,4.511,0,0,1,71.918,17.156Zm-.258-6.945a1.411,1.411,0,0,0-1.09.455,2.357,2.357,0,0,0-.535,1.3h3.141v-.181a1.681,1.681,0,0,0-.406-1.165A1.456,1.456,0,0,0,71.66,10.211Zm7.094-1.664.07.977a2.951,2.951,0,0,1,2.43-1.133,2.453,2.453,0,0,1,2,.789,3.682,3.682,0,0,1,.672,2.359V17H81.668V11.594a1.465,1.465,0,0,0-.312-1.043,1.4,1.4,0,0,0-1.039-.324,1.553,1.553,0,0,0-1.43.813V17H76.629V8.547Zm10.4,6.789a1.481,1.481,0,0,0,1.016-.344,1.2,1.2,0,0,0,.406-.914h2.117a2.9,2.9,0,0,1-.469,1.574,3.093,3.093,0,0,1-1.262,1.109,3.949,3.949,0,0,1-1.77.395A3.67,3.67,0,0,1,86.332,16a4.56,4.56,0,0,1-1.047-3.184v-.148a4.508,4.508,0,0,1,1.039-3.117,3.627,3.627,0,0,1,2.852-1.164,3.555,3.555,0,0,1,2.543.9,3.2,3.2,0,0,1,.973,2.4H90.574a1.551,1.551,0,0,0-.406-1.072,1.51,1.51,0,0,0-2.223.163,3.333,3.333,0,0,0-.4,1.866v.235a3.375,3.375,0,0,0,.4,1.878A1.377,1.377,0,0,0,89.152,15.336ZM96.363,17H94.1V8.547h2.266Zm-2.4-10.641a1.112,1.112,0,0,1,.34-.836,1.465,1.465,0,0,1,1.848,0,1.105,1.105,0,0,1,.344.836,1.108,1.108,0,0,1-.348.844,1.448,1.448,0,0,1-1.836,0A1.108,1.108,0,0,1,93.965,6.359ZM97.871,12.7a5.013,5.013,0,0,1,.484-2.242A3.546,3.546,0,0,1,99.75,8.93a4.069,4.069,0,0,1,2.113-.539,3.849,3.849,0,0,1,2.793,1.047,4.2,4.2,0,0,1,1.207,2.844l.016.578a4.418,4.418,0,0,1-1.086,3.121,4.209,4.209,0,0,1-5.832,0,4.5,4.5,0,0,1-1.09-3.187Zm2.258.16a3.16,3.16,0,0,0,.453,1.843,1.628,1.628,0,0,0,2.578.008,3.457,3.457,0,0,0,.461-2.015,3.128,3.128,0,0,0-.461-1.831,1.5,1.5,0,0,0-1.3-.649,1.474,1.474,0,0,0-1.281.646A3.516,3.516,0,0,0,100.129,12.856ZM102.309,5h2.461l-2.164,2.422H100.77Zm7.039,3.547.07.977a2.951,2.951,0,0,1,2.43-1.133,2.453,2.453,0,0,1,2,.789,3.682,3.682,0,0,1,.672,2.359V17h-2.258V11.594a1.465,1.465,0,0,0-.312-1.043,1.4,1.4,0,0,0-1.039-.324,1.553,1.553,0,0,0-1.43.813V17h-2.258V8.547Zm10.516,4.164a5.094,5.094,0,0,1,.887-3.148,2.877,2.877,0,0,1,2.426-1.172,2.589,2.589,0,0,1,2.039.922V5h2.266V17h-2.039l-.109-.9a2.657,2.657,0,0,1-2.172,1.055,2.869,2.869,0,0,1-2.395-1.176A5.258,5.258,0,0,1,119.863,12.711Zm2.258.168a3.337,3.337,0,0,0,.414,1.823,1.349,1.349,0,0,0,1.2.634,1.511,1.511,0,0,0,1.477-.884V11.111a1.489,1.489,0,0,0-1.461-.884Q122.121,10.227,122.121,12.879Zm11,4.277a4.15,4.15,0,0,1-3.027-1.141,4.054,4.054,0,0,1-1.168-3.039v-.219a5.106,5.106,0,0,1,.492-2.277,3.612,3.612,0,0,1,1.395-1.547,3.914,3.914,0,0,1,2.059-.543,3.508,3.508,0,0,1,2.73,1.094,4.444,4.444,0,0,1,1,3.1v.922h-5.383a2.1,2.1,0,0,0,.66,1.328,2,2,0,0,0,1.395.5,2.437,2.437,0,0,0,2.039-.945l1.109,1.242a3.389,3.389,0,0,1-1.375,1.121A4.511,4.511,0,0,1,133.121,17.156Zm-.258-6.945a1.411,1.411,0,0,0-1.09.455,2.357,2.357,0,0,0-.535,1.3h3.141v-.181a1.681,1.681,0,0,0-.406-1.165A1.456,1.456,0,0,0,132.863,10.211ZM146.762,17a2.507,2.507,0,0,1-.227-.758,2.732,2.732,0,0,1-2.133.914,3,3,0,0,1-2.059-.719,2.312,2.312,0,0,1-.816-1.812,2.389,2.389,0,0,1,1-2.062,4.915,4.915,0,0,1,2.879-.727h1.039v-.484a1.393,1.393,0,0,0-.3-.937,1.183,1.183,0,0,0-.949-.352,1.345,1.345,0,0,0-.895.273.929.929,0,0,0-.324.75h-2.258a2.268,2.268,0,0,1,.453-1.359,3,3,0,0,1,1.281-.98,4.669,4.669,0,0,1,1.859-.355,3.689,3.689,0,0,1,2.48.785,2.747,2.747,0,0,1,.918,2.207v3.664a4.041,4.041,0,0,0,.336,1.82V17Zm-1.867-1.57a1.945,1.945,0,0,0,.922-.223,1.462,1.462,0,0,0,.625-.6V13.156H145.6q-1.7,0-1.8,1.172l-.008.133a.9.9,0,0,0,.3.7A1.153,1.153,0,0,0,144.895,15.43Zm7.625-6.883.07.977a2.951,2.951,0,0,1,2.43-1.133,2.453,2.453,0,0,1,2,.789,3.682,3.682,0,0,1,.672,2.359V17h-2.258V11.594a1.465,1.465,0,0,0-.312-1.043,1.4,1.4,0,0,0-1.039-.324,1.553,1.553,0,0,0-1.43.813V17h-2.258V8.547ZM164.3,17a2.507,2.507,0,0,1-.227-.758,2.732,2.732,0,0,1-2.133.914,3,3,0,0,1-2.059-.719,2.312,2.312,0,0,1-.816-1.812,2.389,2.389,0,0,1,1-2.062,4.915,4.915,0,0,1,2.879-.727h1.039v-.484a1.393,1.393,0,0,0-.3-.937,1.183,1.183,0,0,0-.949-.352,1.345,1.345,0,0,0-.895.273.929.929,0,0,0-.324.75h-2.258a2.268,2.268,0,0,1,.453-1.359,3,3,0,0,1,1.281-.98,4.669,4.669,0,0,1,1.859-.355,3.689,3.689,0,0,1,2.48.785,2.747,2.747,0,0,1,.918,2.207v3.664a4.041,4.041,0,0,0,.336,1.82V17Zm-1.867-1.57a1.945,1.945,0,0,0,.922-.223,1.462,1.462,0,0,0,.625-.6V13.156h-.844q-1.7,0-1.8,1.172l-.008.133a.9.9,0,0,0,.3.7A1.153,1.153,0,0,0,162.434,15.43ZM163.293,5h2.461L163.59,7.422h-1.836Zm7.07,12H168.1V5h2.266Zm4.242,0H172.34V8.547h2.266Zm-2.4-10.641a1.112,1.112,0,0,1,.34-.836,1.465,1.465,0,0,1,1.848,0,1.105,1.105,0,0,1,.344.836,1.109,1.109,0,0,1-.348.844,1.448,1.448,0,0,1-1.836,0A1.109,1.109,0,0,1,172.207,6.359Zm8.836,8.3a.727.727,0,0,0-.41-.652,4.659,4.659,0,0,0-1.316-.426q-3.016-.633-3.016-2.562a2.323,2.323,0,0,1,.934-1.879,3.766,3.766,0,0,1,2.441-.754,4.053,4.053,0,0,1,2.574.758,2.388,2.388,0,0,1,.965,1.969h-2.258a1.092,1.092,0,0,0-.312-.8,1.322,1.322,0,0,0-.977-.316,1.351,1.351,0,0,0-.883.258.814.814,0,0,0-.312.656.7.7,0,0,0,.355.605,3.657,3.657,0,0,0,1.2.4,9.8,9.8,0,0,1,1.422.379,2.336,2.336,0,0,1,1.789,2.273,2.205,2.205,0,0,1-.992,1.871,4.28,4.28,0,0,1-2.562.715,4.47,4.47,0,0,1-1.887-.379,3.166,3.166,0,0,1-1.293-1.039,2.414,2.414,0,0,1-.469-1.426h2.141a1.179,1.179,0,0,0,.445.922,1.766,1.766,0,0,0,1.109.32,1.635,1.635,0,0,0,.98-.246A.766.766,0,0,0,181.043,14.664ZM187.074,17h-2.266V8.547h2.266Zm-2.4-10.641a1.112,1.112,0,0,1,.34-.836,1.465,1.465,0,0,1,1.848,0,1.105,1.105,0,0,1,.344.836,1.109,1.109,0,0,1-.348.844,1.448,1.448,0,0,1-1.836,0A1.109,1.109,0,0,1,184.676,6.359Zm8.836,8.3a.727.727,0,0,0-.41-.652,4.659,4.659,0,0,0-1.316-.426q-3.016-.633-3.016-2.562a2.323,2.323,0,0,1,.934-1.879,3.766,3.766,0,0,1,2.441-.754,4.053,4.053,0,0,1,2.574.758,2.388,2.388,0,0,1,.965,1.969h-2.258a1.092,1.092,0,0,0-.312-.8,1.322,1.322,0,0,0-.977-.316,1.351,1.351,0,0,0-.883.258.814.814,0,0,0-.312.656.7.7,0,0,0,.355.605,3.657,3.657,0,0,0,1.2.4,9.8,9.8,0,0,1,1.422.379,2.336,2.336,0,0,1,1.789,2.273,2.205,2.205,0,0,1-.992,1.871,4.28,4.28,0,0,1-2.562.715,4.47,4.47,0,0,1-1.887-.379,3.166,3.166,0,0,1-1.293-1.039,2.414,2.414,0,0,1-.469-1.426h2.141a1.179,1.179,0,0,0,.445.922,1.766,1.766,0,0,0,1.109.32,1.635,1.635,0,0,0,.98-.246A.766.766,0,0,0,193.512,14.664Z" transform="translate(548.676 11195)" fill="#12263f"/>
      <path id="Trazado_468378" data-name="Trazado 468378" d="M32.23,13.211A4.025,4.025,0,0,1,30.875,16.1a4.76,4.76,0,0,1-3.223,1.055,4.28,4.28,0,0,1-3.441-1.473,6.038,6.038,0,0,1-1.254-4.043v-.7a6.819,6.819,0,0,1,.578-2.891,4.332,4.332,0,0,1,1.652-1.918,4.629,4.629,0,0,1,2.5-.668,4.637,4.637,0,0,1,3.172,1.055,4.326,4.326,0,0,1,1.391,2.961H29.9a2.376,2.376,0,0,0-.613-1.6,2.271,2.271,0,0,0-1.605-.5,1.991,1.991,0,0,0-1.754.84,4.707,4.707,0,0,0-.6,2.605V11.7a5.038,5.038,0,0,0,.559,2.7,1.954,1.954,0,0,0,1.762.852,2.314,2.314,0,0,0,1.621-.5,2.241,2.241,0,0,0,.613-1.535ZM33.27,12.7a5.013,5.013,0,0,1,.484-2.242A3.546,3.546,0,0,1,35.148,8.93a4.069,4.069,0,0,1,2.113-.539,3.849,3.849,0,0,1,2.793,1.047,4.2,4.2,0,0,1,1.207,2.844l.016.578a4.418,4.418,0,0,1-1.086,3.121,4.209,4.209,0,0,1-5.832,0A4.5,4.5,0,0,1,33.27,12.8Zm2.258.16A3.16,3.16,0,0,0,35.98,14.7a1.628,1.628,0,0,0,2.578.008,3.457,3.457,0,0,0,.461-2.015,3.128,3.128,0,0,0-.461-1.831,1.5,1.5,0,0,0-1.3-.649,1.474,1.474,0,0,0-1.281.646A3.516,3.516,0,0,0,35.527,12.856Zm9.219-4.309.07.977a2.951,2.951,0,0,1,2.43-1.133,2.453,2.453,0,0,1,2,.789,3.682,3.682,0,0,1,.672,2.359V17H47.66V11.594a1.465,1.465,0,0,0-.312-1.043,1.4,1.4,0,0,0-1.039-.324,1.553,1.553,0,0,0-1.43.813V17H42.621V8.547Zm9.586-2.078V8.547h1.445V10.2H54.332v4.219a1.007,1.007,0,0,0,.18.672.9.9,0,0,0,.688.2,3.6,3.6,0,0,0,.664-.055v1.711a4.648,4.648,0,0,1-1.367.2,2.156,2.156,0,0,1-2.422-2.4V10.2H50.84V8.547h1.234V6.469Zm6.594,10.688A4.15,4.15,0,0,1,57.9,16.016a4.054,4.054,0,0,1-1.168-3.039v-.219a5.106,5.106,0,0,1,.492-2.277,3.612,3.612,0,0,1,1.395-1.547,3.914,3.914,0,0,1,2.059-.543,3.508,3.508,0,0,1,2.73,1.094,4.444,4.444,0,0,1,1,3.1v.922H59.02a2.1,2.1,0,0,0,.66,1.328,2,2,0,0,0,1.395.5,2.437,2.437,0,0,0,2.039-.945l1.109,1.242a3.389,3.389,0,0,1-1.375,1.121A4.511,4.511,0,0,1,60.926,17.156Zm-.258-6.945a1.411,1.411,0,0,0-1.09.455,2.357,2.357,0,0,0-.535,1.3h3.141v-.181a1.681,1.681,0,0,0-.406-1.165A1.456,1.456,0,0,0,60.668,10.211Zm7.094-1.664.07.977a2.951,2.951,0,0,1,2.43-1.133,2.453,2.453,0,0,1,2,.789,3.682,3.682,0,0,1,.672,2.359V17H70.676V11.594a1.465,1.465,0,0,0-.312-1.043,1.4,1.4,0,0,0-1.039-.324,1.553,1.553,0,0,0-1.43.813V17H65.637V8.547Zm10.4,6.789a1.481,1.481,0,0,0,1.016-.344,1.2,1.2,0,0,0,.406-.914H81.7a2.9,2.9,0,0,1-.469,1.574,3.093,3.093,0,0,1-1.262,1.109,3.949,3.949,0,0,1-1.77.395A3.67,3.67,0,0,1,75.34,16a4.56,4.56,0,0,1-1.047-3.184v-.148a4.508,4.508,0,0,1,1.039-3.117,3.627,3.627,0,0,1,2.852-1.164,3.555,3.555,0,0,1,2.543.9,3.2,3.2,0,0,1,.973,2.4H79.582a1.551,1.551,0,0,0-.406-1.072,1.51,1.51,0,0,0-2.223.163,3.333,3.333,0,0,0-.4,1.866v.235a3.375,3.375,0,0,0,.4,1.878A1.377,1.377,0,0,0,78.16,15.336ZM85.371,17H83.105V8.547h2.266Zm-2.4-10.641a1.112,1.112,0,0,1,.34-.836,1.465,1.465,0,0,1,1.848,0,1.105,1.105,0,0,1,.344.836,1.108,1.108,0,0,1-.348.844,1.448,1.448,0,0,1-1.836,0A1.108,1.108,0,0,1,82.973,6.359ZM86.879,12.7a5.013,5.013,0,0,1,.484-2.242A3.546,3.546,0,0,1,88.758,8.93a4.069,4.069,0,0,1,2.113-.539,3.849,3.849,0,0,1,2.793,1.047,4.2,4.2,0,0,1,1.207,2.844l.016.578A4.418,4.418,0,0,1,93.8,15.98a4.209,4.209,0,0,1-5.832,0,4.5,4.5,0,0,1-1.09-3.187Zm2.258.16A3.16,3.16,0,0,0,89.59,14.7a1.628,1.628,0,0,0,2.578.008,3.457,3.457,0,0,0,.461-2.015,3.128,3.128,0,0,0-.461-1.831,1.5,1.5,0,0,0-1.3-.649,1.474,1.474,0,0,0-1.281.646A3.516,3.516,0,0,0,89.137,12.856ZM91.316,5h2.461L91.613,7.422H89.777Zm7.039,3.547.07.977a2.951,2.951,0,0,1,2.43-1.133,2.453,2.453,0,0,1,2,.789,3.682,3.682,0,0,1,.672,2.359V17H101.27V11.594a1.465,1.465,0,0,0-.312-1.043,1.4,1.4,0,0,0-1.039-.324,1.553,1.553,0,0,0-1.43.813V17H96.23V8.547Zm7.469,11.3-1.18-.617.281-.508a4.059,4.059,0,0,0,.539-1.9v-1.75h1.906l-.008,1.563a4.059,4.059,0,0,1-.437,1.75A4.486,4.486,0,0,1,105.824,19.852Zm11.2-2.7a4.15,4.15,0,0,1-3.027-1.141,4.054,4.054,0,0,1-1.168-3.039v-.219a5.106,5.106,0,0,1,.492-2.277,3.612,3.612,0,0,1,1.395-1.547,3.914,3.914,0,0,1,2.059-.543,3.508,3.508,0,0,1,2.73,1.094,4.444,4.444,0,0,1,1,3.1v.922h-5.383a2.1,2.1,0,0,0,.66,1.328,2,2,0,0,0,1.395.5,2.437,2.437,0,0,0,2.039-.945l1.109,1.242a3.389,3.389,0,0,1-1.375,1.121A4.511,4.511,0,0,1,117.02,17.156Zm-.258-6.945a1.411,1.411,0,0,0-1.09.455,2.357,2.357,0,0,0-.535,1.3h3.141v-.181a1.681,1.681,0,0,0-.406-1.165A1.456,1.456,0,0,0,116.762,10.211Zm9.766.453a6.134,6.134,0,0,0-.812-.062,1.654,1.654,0,0,0-1.68.867V17h-2.258V8.547h2.133l.063,1.008a2.092,2.092,0,0,1,1.883-1.164,2.366,2.366,0,0,1,.7.1Zm5.836,0a6.134,6.134,0,0,0-.812-.062,1.654,1.654,0,0,0-1.68.867V17h-2.258V8.547h2.133l.063,1.008a2.092,2.092,0,0,1,1.883-1.164,2.366,2.366,0,0,1,.7.1ZM138.113,17a2.507,2.507,0,0,1-.227-.758,2.732,2.732,0,0,1-2.133.914,3,3,0,0,1-2.059-.719,2.312,2.312,0,0,1-.816-1.812,2.389,2.389,0,0,1,1-2.062,4.915,4.915,0,0,1,2.879-.727h1.039v-.484a1.393,1.393,0,0,0-.3-.937,1.183,1.183,0,0,0-.949-.352,1.345,1.345,0,0,0-.895.273.929.929,0,0,0-.324.75h-2.258a2.268,2.268,0,0,1,.453-1.359,3,3,0,0,1,1.281-.98,4.669,4.669,0,0,1,1.859-.355,3.689,3.689,0,0,1,2.48.785,2.747,2.747,0,0,1,.918,2.207v3.664a4.041,4.041,0,0,0,.336,1.82V17Zm-1.867-1.57a1.945,1.945,0,0,0,.922-.223,1.462,1.462,0,0,0,.625-.6V13.156h-.844q-1.7,0-1.8,1.172l-.008.133a.9.9,0,0,0,.3.7A1.153,1.153,0,0,0,136.246,15.43Zm5.2-2.719a5.094,5.094,0,0,1,.887-3.148,2.877,2.877,0,0,1,2.426-1.172,2.589,2.589,0,0,1,2.039.922V5h2.266V17H147.02l-.109-.9a2.657,2.657,0,0,1-2.172,1.055,2.869,2.869,0,0,1-2.395-1.176A5.258,5.258,0,0,1,141.441,12.711Zm2.258.168a3.337,3.337,0,0,0,.414,1.823,1.349,1.349,0,0,0,1.2.634,1.511,1.511,0,0,0,1.477-.884V11.111a1.489,1.489,0,0,0-1.461-.884Q143.7,10.227,143.7,12.879ZM153.191,17h-2.266V8.547h2.266Zm-2.4-10.641a1.112,1.112,0,0,1,.34-.836,1.465,1.465,0,0,1,1.848,0,1.105,1.105,0,0,1,.344.836,1.109,1.109,0,0,1-.348.844,1.448,1.448,0,0,1-1.836,0A1.109,1.109,0,0,1,150.793,6.359Zm7.773,8.977a1.481,1.481,0,0,0,1.016-.344,1.2,1.2,0,0,0,.406-.914h2.117a2.9,2.9,0,0,1-.469,1.574,3.093,3.093,0,0,1-1.262,1.109,3.949,3.949,0,0,1-1.77.395A3.67,3.67,0,0,1,155.746,16,4.56,4.56,0,0,1,154.7,12.82v-.148a4.508,4.508,0,0,1,1.039-3.117,3.627,3.627,0,0,1,2.852-1.164,3.555,3.555,0,0,1,2.543.9,3.2,3.2,0,0,1,.973,2.4h-2.117a1.551,1.551,0,0,0-.406-1.072,1.51,1.51,0,0,0-2.223.163,3.333,3.333,0,0,0-.4,1.866v.235a3.375,3.375,0,0,0,.4,1.878A1.377,1.377,0,0,0,158.566,15.336ZM168.293,17a2.507,2.507,0,0,1-.227-.758,2.732,2.732,0,0,1-2.133.914,3,3,0,0,1-2.059-.719,2.312,2.312,0,0,1-.816-1.812,2.389,2.389,0,0,1,1-2.062,4.915,4.915,0,0,1,2.879-.727h1.039v-.484a1.393,1.393,0,0,0-.3-.937,1.183,1.183,0,0,0-.949-.352,1.345,1.345,0,0,0-.895.273.929.929,0,0,0-.324.75h-2.258a2.268,2.268,0,0,1,.453-1.359,3,3,0,0,1,1.281-.98,4.669,4.669,0,0,1,1.859-.355,3.689,3.689,0,0,1,2.48.785,2.747,2.747,0,0,1,.918,2.207v3.664a4.041,4.041,0,0,0,.336,1.82V17Zm-1.867-1.57a1.945,1.945,0,0,0,.922-.223,1.462,1.462,0,0,0,.625-.6V13.156h-.844q-1.7,0-1.8,1.172l-.008.133a.9.9,0,0,0,.3.7A1.153,1.153,0,0,0,166.426,15.43Zm9.063-.094a1.481,1.481,0,0,0,1.016-.344,1.2,1.2,0,0,0,.406-.914h2.117a2.9,2.9,0,0,1-.469,1.574,3.093,3.093,0,0,1-1.262,1.109,3.949,3.949,0,0,1-1.77.395A3.67,3.67,0,0,1,172.668,16a4.56,4.56,0,0,1-1.047-3.184v-.148a4.508,4.508,0,0,1,1.039-3.117,3.627,3.627,0,0,1,2.852-1.164,3.555,3.555,0,0,1,2.543.9,3.2,3.2,0,0,1,.973,2.4H176.91a1.551,1.551,0,0,0-.406-1.072,1.51,1.51,0,0,0-2.223.163,3.333,3.333,0,0,0-.4,1.866v.235a3.375,3.375,0,0,0,.4,1.878A1.377,1.377,0,0,0,175.488,15.336ZM182.7,17h-2.266V8.547H182.7ZM180.3,6.359a1.112,1.112,0,0,1,.34-.836,1.465,1.465,0,0,1,1.848,0,1.105,1.105,0,0,1,.344.836,1.109,1.109,0,0,1-.348.844,1.448,1.448,0,0,1-1.836,0A1.109,1.109,0,0,1,180.3,6.359Zm3.906,6.336a5.013,5.013,0,0,1,.484-2.242,3.546,3.546,0,0,1,1.395-1.523,4.069,4.069,0,0,1,2.113-.539,3.849,3.849,0,0,1,2.793,1.047,4.2,4.2,0,0,1,1.207,2.844l.016.578a4.418,4.418,0,0,1-1.086,3.121,4.209,4.209,0,0,1-5.832,0,4.5,4.5,0,0,1-1.09-3.187Zm2.258.16a3.16,3.16,0,0,0,.453,1.843,1.628,1.628,0,0,0,2.578.008,3.457,3.457,0,0,0,.461-2.015,3.128,3.128,0,0,0-.461-1.831,1.5,1.5,0,0,0-1.3-.649,1.474,1.474,0,0,0-1.281.646A3.516,3.516,0,0,0,186.465,12.856ZM188.645,5h2.461l-2.164,2.422h-1.836Zm7.039,3.547.07.977a2.951,2.951,0,0,1,2.43-1.133,2.453,2.453,0,0,1,2,.789,3.682,3.682,0,0,1,.672,2.359V17H198.6V11.594a1.465,1.465,0,0,0-.312-1.043,1.4,1.4,0,0,0-1.039-.324,1.553,1.553,0,0,0-1.43.813V17h-2.258V8.547ZM209.707,13.8l1.563-5.258h2.422l-3.4,9.766-.187.445a2.577,2.577,0,0,1-2.5,1.656,3.552,3.552,0,0,1-1-.148V18.555l.344.008a1.857,1.857,0,0,0,.957-.2,1.283,1.283,0,0,0,.5-.648l.266-.7-2.961-8.477h2.43ZM76.512,34.664A6.134,6.134,0,0,0,75.7,34.6a1.654,1.654,0,0,0-1.68.867V41H71.762V32.547h2.133l.063,1.008a2.092,2.092,0,0,1,1.883-1.164,2.366,2.366,0,0,1,.7.1Zm4.977,6.492a4.15,4.15,0,0,1-3.027-1.141,4.054,4.054,0,0,1-1.168-3.039v-.219a5.106,5.106,0,0,1,.492-2.277,3.612,3.612,0,0,1,1.395-1.547,3.914,3.914,0,0,1,2.059-.543,3.508,3.508,0,0,1,2.73,1.094,4.444,4.444,0,0,1,1,3.1v.922H79.582a2.1,2.1,0,0,0,.66,1.328,2,2,0,0,0,1.395.5,2.437,2.437,0,0,0,2.039-.945l1.109,1.242a3.389,3.389,0,0,1-1.375,1.121A4.511,4.511,0,0,1,81.488,41.156Zm-.258-6.945a1.411,1.411,0,0,0-1.09.455,2.357,2.357,0,0,0-.535,1.3h3.141v-.181a1.681,1.681,0,0,0-.406-1.165A1.456,1.456,0,0,0,81.23,34.211Zm8.531,5.125a1.481,1.481,0,0,0,1.016-.344,1.2,1.2,0,0,0,.406-.914H93.3a2.9,2.9,0,0,1-.469,1.574,3.093,3.093,0,0,1-1.262,1.109,3.949,3.949,0,0,1-1.77.395A3.67,3.67,0,0,1,86.941,40a4.56,4.56,0,0,1-1.047-3.184v-.148a4.508,4.508,0,0,1,1.039-3.117,3.627,3.627,0,0,1,2.852-1.164,3.555,3.555,0,0,1,2.543.9,3.2,3.2,0,0,1,.973,2.4H91.184a1.551,1.551,0,0,0-.406-1.072,1.51,1.51,0,0,0-2.223.163,3.333,3.333,0,0,0-.4,1.866v.235a3.375,3.375,0,0,0,.4,1.878A1.377,1.377,0,0,0,89.762,39.336Zm9.891.8a2.831,2.831,0,0,1-2.312,1.016,2.67,2.67,0,0,1-2.074-.781,3.335,3.335,0,0,1-.73-2.289V32.547h2.258v5.467q0,1.322,1.2,1.322a1.63,1.63,0,0,0,1.578-.8V32.547h2.266V41H99.715Zm11.5-3.289a5.07,5.07,0,0,1-.887,3.129,2.843,2.843,0,0,1-2.395,1.176,2.633,2.633,0,0,1-2.07-.891V44.25h-2.258v-11.7h2.094l.078.828a2.654,2.654,0,0,1,2.141-.984,2.862,2.862,0,0,1,2.43,1.156,5.207,5.207,0,0,1,.867,3.188Zm-2.258-.164a3.327,3.327,0,0,0-.418-1.82,1.361,1.361,0,0,0-1.215-.641,1.478,1.478,0,0,0-1.461.813V38.5a1.5,1.5,0,0,0,1.477.836Q108.895,39.336,108.895,36.688Zm7.547,4.469a4.15,4.15,0,0,1-3.027-1.141,4.054,4.054,0,0,1-1.168-3.039v-.219a5.106,5.106,0,0,1,.492-2.277,3.612,3.612,0,0,1,1.395-1.547,3.914,3.914,0,0,1,2.059-.543,3.508,3.508,0,0,1,2.73,1.094,4.444,4.444,0,0,1,1,3.1v.922h-5.383a2.1,2.1,0,0,0,.66,1.328,2,2,0,0,0,1.395.5,2.437,2.437,0,0,0,2.039-.945l1.109,1.242a3.389,3.389,0,0,1-1.375,1.121A4.511,4.511,0,0,1,116.441,41.156Zm-.258-6.945a1.411,1.411,0,0,0-1.09.455,2.357,2.357,0,0,0-.535,1.3H117.7v-.181a1.681,1.681,0,0,0-.406-1.165A1.456,1.456,0,0,0,116.184,34.211Zm9.766.453a6.134,6.134,0,0,0-.812-.062,1.654,1.654,0,0,0-1.68.867V41H121.2V32.547h2.133l.063,1.008a2.092,2.092,0,0,1,1.883-1.164,2.366,2.366,0,0,1,.7.1ZM131.7,41a2.507,2.507,0,0,1-.227-.758,2.732,2.732,0,0,1-2.133.914,3,3,0,0,1-2.059-.719,2.312,2.312,0,0,1-.816-1.812,2.389,2.389,0,0,1,1-2.062,4.915,4.915,0,0,1,2.879-.727h1.039v-.484a1.393,1.393,0,0,0-.3-.937,1.183,1.183,0,0,0-.949-.352,1.345,1.345,0,0,0-.895.273.929.929,0,0,0-.324.75h-2.258a2.268,2.268,0,0,1,.453-1.359,3,3,0,0,1,1.281-.98,4.669,4.669,0,0,1,1.859-.355,3.689,3.689,0,0,1,2.48.785,2.747,2.747,0,0,1,.918,2.207v3.664a4.041,4.041,0,0,0,.336,1.82V41Zm-1.867-1.57a1.945,1.945,0,0,0,.922-.223,1.462,1.462,0,0,0,.625-.6V37.156h-.844q-1.7,0-1.8,1.172l-.008.133a.9.9,0,0,0,.3.7A1.153,1.153,0,0,0,129.832,39.43Zm9.063-.094a1.481,1.481,0,0,0,1.016-.344,1.2,1.2,0,0,0,.406-.914h2.117a2.9,2.9,0,0,1-.469,1.574,3.093,3.093,0,0,1-1.262,1.109,3.949,3.949,0,0,1-1.77.395A3.67,3.67,0,0,1,136.074,40a4.56,4.56,0,0,1-1.047-3.184v-.148a4.508,4.508,0,0,1,1.039-3.117,3.627,3.627,0,0,1,2.852-1.164,3.555,3.555,0,0,1,2.543.9,3.2,3.2,0,0,1,.973,2.4h-2.117a1.551,1.551,0,0,0-.406-1.072,1.51,1.51,0,0,0-2.223.163,3.333,3.333,0,0,0-.4,1.866v.235a3.375,3.375,0,0,0,.4,1.878A1.377,1.377,0,0,0,138.895,39.336ZM146.105,41H143.84V32.547h2.266Zm-2.4-10.641a1.112,1.112,0,0,1,.34-.836,1.465,1.465,0,0,1,1.848,0,1.193,1.193,0,0,1,0,1.68,1.448,1.448,0,0,1-1.836,0A1.109,1.109,0,0,1,143.707,30.359Zm3.906,6.336a5.013,5.013,0,0,1,.484-2.242,3.546,3.546,0,0,1,1.395-1.523,4.069,4.069,0,0,1,2.113-.539,3.849,3.849,0,0,1,2.793,1.047,4.2,4.2,0,0,1,1.207,2.844l.016.578a4.418,4.418,0,0,1-1.086,3.121,4.209,4.209,0,0,1-5.832,0,4.5,4.5,0,0,1-1.09-3.187Zm2.258.16a3.16,3.16,0,0,0,.453,1.843,1.628,1.628,0,0,0,2.578.008,3.457,3.457,0,0,0,.461-2.015,3.128,3.128,0,0,0-.461-1.831,1.5,1.5,0,0,0-1.3-.649,1.474,1.474,0,0,0-1.281.646A3.516,3.516,0,0,0,149.871,36.856ZM152.051,29h2.461l-2.164,2.422h-1.836Zm7.039,3.547.07.977a2.951,2.951,0,0,1,2.43-1.133,2.453,2.453,0,0,1,2,.789,3.682,3.682,0,0,1,.672,2.359V41H162V35.594a1.465,1.465,0,0,0-.312-1.043,1.4,1.4,0,0,0-1.039-.324,1.553,1.553,0,0,0-1.43.813V41h-2.258V32.547Z" transform="translate(812.676 11195)" fill="#12263f"/>
      <path id="Trazado_468379" data-name="Trazado 468379" d="M28.98,14.656H24.871L24.09,17H21.6L25.832,5.625H28L32.262,17H29.77Zm-3.477-1.9h2.844L26.918,8.5Zm11.188,2.578a1.481,1.481,0,0,0,1.016-.344,1.2,1.2,0,0,0,.406-.914H40.23a2.9,2.9,0,0,1-.469,1.574A3.093,3.093,0,0,1,38.5,16.762a3.949,3.949,0,0,1-1.77.395A3.67,3.67,0,0,1,33.871,16a4.56,4.56,0,0,1-1.047-3.184v-.148a4.508,4.508,0,0,1,1.039-3.117,3.627,3.627,0,0,1,2.852-1.164,3.555,3.555,0,0,1,2.543.9,3.2,3.2,0,0,1,.973,2.4H38.113a1.551,1.551,0,0,0-.406-1.072,1.51,1.51,0,0,0-2.223.163,3.333,3.333,0,0,0-.4,1.866v.235a3.375,3.375,0,0,0,.4,1.878A1.377,1.377,0,0,0,36.691,15.336Zm7.531-8.867V8.547h1.445V10.2H44.223v4.219a1.007,1.007,0,0,0,.18.672.9.9,0,0,0,.688.2,3.6,3.6,0,0,0,.664-.055v1.711a4.648,4.648,0,0,1-1.367.2,2.156,2.156,0,0,1-2.422-2.4V10.2H40.73V8.547h1.234V6.469ZM49.309,17H47.043V8.547h2.266ZM46.91,6.359a1.112,1.112,0,0,1,.34-.836,1.465,1.465,0,0,1,1.848,0,1.105,1.105,0,0,1,.344.836,1.108,1.108,0,0,1-.348.844,1.448,1.448,0,0,1-1.836,0A1.108,1.108,0,0,1,46.91,6.359Zm7.422,7.883,1.57-5.7h2.359L55.41,17H53.254L50.4,8.547h2.359ZM61.637,17H59.371V8.547h2.266Zm-2.4-10.641a1.112,1.112,0,0,1,.34-.836,1.465,1.465,0,0,1,1.848,0,1.105,1.105,0,0,1,.344.836,1.108,1.108,0,0,1-.348.844,1.448,1.448,0,0,1-1.836,0A1.108,1.108,0,0,1,59.238,6.359Zm3.906,6.352a5.094,5.094,0,0,1,.887-3.148,2.877,2.877,0,0,1,2.426-1.172,2.589,2.589,0,0,1,2.039.922V5h2.266V17H68.723l-.109-.9a2.657,2.657,0,0,1-2.172,1.055,2.869,2.869,0,0,1-2.395-1.176A5.258,5.258,0,0,1,63.145,12.711Zm2.258.168a3.337,3.337,0,0,0,.414,1.823,1.349,1.349,0,0,0,1.2.634,1.511,1.511,0,0,0,1.477-.884V11.111a1.489,1.489,0,0,0-1.461-.884Q65.4,10.227,65.4,12.879ZM77.41,17a2.507,2.507,0,0,1-.227-.758,2.732,2.732,0,0,1-2.133.914,3,3,0,0,1-2.059-.719,2.312,2.312,0,0,1-.816-1.812,2.389,2.389,0,0,1,1-2.062,4.915,4.915,0,0,1,2.879-.727H77.09v-.484a1.393,1.393,0,0,0-.3-.937,1.183,1.183,0,0,0-.949-.352,1.345,1.345,0,0,0-.895.273.929.929,0,0,0-.324.75H72.363a2.268,2.268,0,0,1,.453-1.359,3,3,0,0,1,1.281-.98,4.669,4.669,0,0,1,1.859-.355,3.689,3.689,0,0,1,2.48.785,2.747,2.747,0,0,1,.918,2.207v3.664a4.041,4.041,0,0,0,.336,1.82V17Zm-1.867-1.57a1.945,1.945,0,0,0,.922-.223,1.462,1.462,0,0,0,.625-.6V13.156h-.844q-1.7,0-1.8,1.172l-.008.133a.9.9,0,0,0,.3.7A1.153,1.153,0,0,0,75.543,15.43Zm5.2-2.719a5.094,5.094,0,0,1,.887-3.148,2.877,2.877,0,0,1,2.426-1.172,2.589,2.589,0,0,1,2.039.922V5h2.266V17H86.316l-.109-.9a2.657,2.657,0,0,1-2.172,1.055,2.869,2.869,0,0,1-2.395-1.176A5.258,5.258,0,0,1,80.738,12.711ZM83,12.879A3.337,3.337,0,0,0,83.41,14.7a1.349,1.349,0,0,0,1.2.634,1.511,1.511,0,0,0,1.477-.884V11.111a1.489,1.489,0,0,0-1.461-.884Q83,10.227,83,12.879Zm11,4.277a4.15,4.15,0,0,1-3.027-1.141A4.054,4.054,0,0,1,89.8,12.977v-.219a5.106,5.106,0,0,1,.492-2.277,3.612,3.612,0,0,1,1.395-1.547,3.914,3.914,0,0,1,2.059-.543,3.508,3.508,0,0,1,2.73,1.094,4.444,4.444,0,0,1,1,3.1v.922H92.09a2.1,2.1,0,0,0,.66,1.328,2,2,0,0,0,1.395.5,2.437,2.437,0,0,0,2.039-.945l1.109,1.242a3.389,3.389,0,0,1-1.375,1.121A4.511,4.511,0,0,1,94,17.156Zm-.258-6.945a1.411,1.411,0,0,0-1.09.455,2.357,2.357,0,0,0-.535,1.3h3.141v-.181a1.681,1.681,0,0,0-.406-1.165A1.456,1.456,0,0,0,93.738,10.211Zm9.594,4.453a.727.727,0,0,0-.41-.652,4.659,4.659,0,0,0-1.316-.426q-3.016-.633-3.016-2.562a2.323,2.323,0,0,1,.934-1.879,3.766,3.766,0,0,1,2.441-.754,4.053,4.053,0,0,1,2.574.758,2.388,2.388,0,0,1,.965,1.969h-2.258a1.092,1.092,0,0,0-.312-.8,1.322,1.322,0,0,0-.977-.316,1.351,1.351,0,0,0-.883.258.814.814,0,0,0-.312.656.7.7,0,0,0,.355.605,3.657,3.657,0,0,0,1.2.4,9.8,9.8,0,0,1,1.422.379,2.336,2.336,0,0,1,1.789,2.273,2.2,2.2,0,0,1-.992,1.871,4.28,4.28,0,0,1-2.562.715,4.47,4.47,0,0,1-1.887-.379,3.166,3.166,0,0,1-1.293-1.039,2.414,2.414,0,0,1-.469-1.426h2.141a1.179,1.179,0,0,0,.445.922,1.766,1.766,0,0,0,1.109.32,1.635,1.635,0,0,0,.98-.246A.766.766,0,0,0,103.332,14.664Zm15.242-1.812a5.07,5.07,0,0,1-.887,3.129,2.843,2.843,0,0,1-2.395,1.176,2.633,2.633,0,0,1-2.07-.891V20.25h-2.258V8.547h2.094l.078.828a2.654,2.654,0,0,1,2.141-.984,2.862,2.862,0,0,1,2.43,1.156,5.207,5.207,0,0,1,.867,3.188Zm-2.258-.164a3.327,3.327,0,0,0-.418-1.82,1.361,1.361,0,0,0-1.215-.641,1.478,1.478,0,0,0-1.461.813V14.5a1.5,1.5,0,0,0,1.477.836Q116.316,15.336,116.316,12.688Zm3.3.008a5.013,5.013,0,0,1,.484-2.242A3.546,3.546,0,0,1,121.5,8.93a4.069,4.069,0,0,1,2.113-.539,3.849,3.849,0,0,1,2.793,1.047,4.2,4.2,0,0,1,1.207,2.844l.016.578a4.418,4.418,0,0,1-1.086,3.121,4.209,4.209,0,0,1-5.832,0,4.5,4.5,0,0,1-1.09-3.187Zm2.258.16a3.16,3.16,0,0,0,.453,1.843,1.628,1.628,0,0,0,2.578.008,3.457,3.457,0,0,0,.461-2.015,3.128,3.128,0,0,0-.461-1.831,1.5,1.5,0,0,0-1.3-.649,1.474,1.474,0,0,0-1.281.646A3.516,3.516,0,0,0,121.879,12.856ZM133.6,14.664a.727.727,0,0,0-.41-.652,4.659,4.659,0,0,0-1.316-.426q-3.016-.633-3.016-2.562a2.323,2.323,0,0,1,.934-1.879,3.766,3.766,0,0,1,2.441-.754,4.053,4.053,0,0,1,2.574.758,2.388,2.388,0,0,1,.965,1.969h-2.258a1.092,1.092,0,0,0-.312-.8,1.322,1.322,0,0,0-.977-.316,1.351,1.351,0,0,0-.883.258.814.814,0,0,0-.312.656.7.7,0,0,0,.355.605,3.657,3.657,0,0,0,1.2.4A9.8,9.8,0,0,1,134,12.3a2.336,2.336,0,0,1,1.789,2.273,2.205,2.205,0,0,1-.992,1.871,4.28,4.28,0,0,1-2.562.715,4.47,4.47,0,0,1-1.887-.379,3.166,3.166,0,0,1-1.293-1.039,2.414,2.414,0,0,1-.469-1.426h2.141a1.179,1.179,0,0,0,.445.922,1.766,1.766,0,0,0,1.109.32,1.635,1.635,0,0,0,.98-.246A.766.766,0,0,0,133.6,14.664Zm6.352-8.2V8.547h1.445V10.2h-1.445v4.219a1.007,1.007,0,0,0,.18.672.9.9,0,0,0,.688.2,3.6,3.6,0,0,0,.664-.055v1.711a4.648,4.648,0,0,1-1.367.2,2.156,2.156,0,0,1-2.422-2.4V10.2h-1.234V8.547h1.234V6.469Zm7.094,6.57h-4.4v-1.82h4.4Zm4.2,3.961h-2.266V8.547h2.266Zm-2.4-10.641a1.112,1.112,0,0,1,.34-.836,1.465,1.465,0,0,1,1.848,0,1.105,1.105,0,0,1,.344.836,1.109,1.109,0,0,1-.348.844,1.448,1.448,0,0,1-1.836,0A1.109,1.109,0,0,1,148.84,6.359Zm6.336,2.188.07.977a2.951,2.951,0,0,1,2.43-1.133,2.453,2.453,0,0,1,2,.789,3.682,3.682,0,0,1,.672,2.359V17H158.09V11.594a1.465,1.465,0,0,0-.312-1.043,1.4,1.4,0,0,0-1.039-.324,1.553,1.553,0,0,0-1.43.813V17h-2.258V8.547Zm10.4,6.789a1.481,1.481,0,0,0,1.016-.344,1.2,1.2,0,0,0,.406-.914h2.117a2.9,2.9,0,0,1-.469,1.574,3.093,3.093,0,0,1-1.262,1.109,3.949,3.949,0,0,1-1.77.395A3.67,3.67,0,0,1,162.754,16a4.56,4.56,0,0,1-1.047-3.184v-.148a4.508,4.508,0,0,1,1.039-3.117A3.627,3.627,0,0,1,165.6,8.391a3.555,3.555,0,0,1,2.543.9,3.2,3.2,0,0,1,.973,2.4H167a1.551,1.551,0,0,0-.406-1.072,1.51,1.51,0,0,0-2.223.163,3.333,3.333,0,0,0-.4,1.866v.235a3.375,3.375,0,0,0,.4,1.878A1.377,1.377,0,0,0,165.574,15.336ZM172.785,17H170.52V8.547h2.266Zm-2.4-10.641a1.112,1.112,0,0,1,.34-.836,1.465,1.465,0,0,1,1.848,0,1.105,1.105,0,0,1,.344.836,1.109,1.109,0,0,1-.348.844,1.448,1.448,0,0,1-1.836,0A1.109,1.109,0,0,1,170.387,6.359Zm3.906,6.352a5.094,5.094,0,0,1,.887-3.148,2.877,2.877,0,0,1,2.426-1.172,2.589,2.589,0,0,1,2.039.922V5h2.266V17h-2.039l-.109-.9a2.657,2.657,0,0,1-2.172,1.055A2.869,2.869,0,0,1,175.2,15.98,5.258,5.258,0,0,1,174.293,12.711Zm2.258.168a3.337,3.337,0,0,0,.414,1.823,1.349,1.349,0,0,0,1.2.634,1.511,1.511,0,0,0,1.477-.884V11.111a1.489,1.489,0,0,0-1.461-.884Q176.551,10.227,176.551,12.879Zm11,4.277a4.15,4.15,0,0,1-3.027-1.141,4.054,4.054,0,0,1-1.168-3.039v-.219a5.106,5.106,0,0,1,.492-2.277,3.612,3.612,0,0,1,1.395-1.547,3.914,3.914,0,0,1,2.059-.543,3.508,3.508,0,0,1,2.73,1.094,4.444,4.444,0,0,1,1,3.1v.922h-5.383a2.1,2.1,0,0,0,.66,1.328,2,2,0,0,0,1.395.5,2.437,2.437,0,0,0,2.039-.945l1.109,1.242a3.389,3.389,0,0,1-1.375,1.121A4.511,4.511,0,0,1,187.551,17.156Zm-.258-6.945a1.411,1.411,0,0,0-1.09.455,2.357,2.357,0,0,0-.535,1.3h3.141v-.181a1.681,1.681,0,0,0-.406-1.165A1.456,1.456,0,0,0,187.293,10.211Zm7.094-1.664.07.977a2.951,2.951,0,0,1,2.43-1.133,2.453,2.453,0,0,1,2,.789,3.682,3.682,0,0,1,.672,2.359V17H197.3V11.594a1.465,1.465,0,0,0-.312-1.043,1.4,1.4,0,0,0-1.039-.324,1.553,1.553,0,0,0-1.43.813V17h-2.258V8.547Zm9.586-2.078V8.547h1.445V10.2h-1.445v4.219a1.007,1.007,0,0,0,.18.672.9.9,0,0,0,.688.2,3.6,3.6,0,0,0,.664-.055v1.711a4.648,4.648,0,0,1-1.367.2,2.156,2.156,0,0,1-2.422-2.4V10.2H200.48V8.547h1.234V6.469Zm6.594,10.688a4.15,4.15,0,0,1-3.027-1.141,4.054,4.054,0,0,1-1.168-3.039v-.219a5.106,5.106,0,0,1,.492-2.277,3.612,3.612,0,0,1,1.395-1.547,3.914,3.914,0,0,1,2.059-.543,3.508,3.508,0,0,1,2.73,1.094,4.444,4.444,0,0,1,1,3.1v.922H208.66a2.1,2.1,0,0,0,.66,1.328,2,2,0,0,0,1.395.5,2.437,2.437,0,0,0,2.039-.945l1.109,1.242a3.389,3.389,0,0,1-1.375,1.121A4.511,4.511,0,0,1,210.566,17.156Zm-.258-6.945a1.411,1.411,0,0,0-1.09.455,2.357,2.357,0,0,0-.535,1.3h3.141v-.181a1.681,1.681,0,0,0-.406-1.165A1.456,1.456,0,0,0,210.309,10.211Z" transform="translate(1076.676 11195)" fill="#12263f"/>
      <g id="Grupo_151277" data-name="Grupo 151277" transform="translate(347.5 11065.873)">
        <ellipse id="Elipse_4775" data-name="Elipse 4775" cx="57" cy="56.5" rx="57" ry="56.5" transform="translate(0.175 0.127)" fill="url(#linear-gradient)"/>
        <g id="Grupo_710190" data-name="Grupo 710190" transform="translate(23.175 22.127)">
          <g id="Grupo_710190-2" data-name="Grupo 710190" clip-path="url(#clip-path)">
            <path id="Trazado_466949" data-name="Trazado 466949" d="M29.081,5.507a9,9,0,0,1,9.753.885l4.445-4.484c.893.53,1.662,1,2.441,1.446A1.1,1.1,0,0,0,47.292,2.7c.195-.736.349-1.485.581-2.209a.744.744,0,0,1,.533-.43q3.745-.043,7.49,0a.748.748,0,0,1,.543.419c.222.654.366,1.334.539,2.005a1.111,1.111,0,0,0,1.848.74l2.019-1.2L66.818,8c-.387.652-.846,1.417-1.3,2.187a1.086,1.086,0,0,0,.694,1.648c.715.185,1.44.338,2.14.568a.746.746,0,0,1,.43.535q.043,3.746,0,7.492a.749.749,0,0,1-.419.545c-.653.223-1.333.371-2,.541a1.1,1.1,0,0,0-.773,1.782l1.3,2.209c-.685.682-1.351,1.38-2.059,2.035a1.409,1.409,0,0,0-.476,1.146q.019,19.632.01,39.264v.866H24.437v-4.4h-.848c-5.988,0-11.975.011-17.963,0a5.544,5.544,0,1,1-.114-11.088c4.508-.028,9.016-.008,13.524-.008h.939v-.682q0-5.55,0-11.1c0-1.188-.344-1.538-1.514-1.539-3.213,0-6.427.015-9.64-.009a3.314,3.314,0,0,1-1.089-6.43,4.314,4.314,0,0,1,1.356-.212c2.4-.02,4.809-.007,7.213-.011,1.084,0,1.448-.371,1.454-1.461,0-.555.007-1.11,0-1.665-.014-.9-.414-1.309-1.322-1.311-2.867-.007-5.733.009-8.6-.005A7.772,7.772,0,0,1,6.608,13.441C6.6,6.8,9.544,2.218,16.088.379c3.72-1.045,9.264-.118,12.992,5.128M26.683,28.9V53.321c.579,0,1.108-.016,1.637,0a7.859,7.859,0,0,1,2.188.157c2.531.869,5.026,1.84,7.529,2.79a2.735,2.735,0,0,1,1.91,2.62A2.765,2.765,0,0,1,38,61.485c-1.12.43-2.251.833-3.369,1.268-2.513.977-5,2.07-7.806,1.683-.037-.005-.08.033-.145.061v2.1h35.41V30.409l-.16-.1-.889,1.151L58.85,30.167c-.925-.547-1.613-.264-1.882.771-.162.626-.352,1.246-.479,1.878-.077.383-.22.535-.634.532q-3.71-.028-7.42,0c-.379,0-.52-.133-.6-.491-.153-.722-.353-1.434-.541-2.149a1.087,1.087,0,0,0-1.615-.664c-.774.45-1.539.915-2.34,1.392-.648-.656-1.3-1.248-1.869-1.914a1.8,1.8,0,0,0-1.57-.635c-2.01.035-4.022.013-6.033.013Zm.552-22.034c-.116-.181-.2-.318-.289-.448a9.962,9.962,0,0,0-11.4-3.594A10.07,10.07,0,0,0,8.879,12.835c.029.49.228.648.672.759a7.513,7.513,0,0,1,5.638,5.285A16.928,16.928,0,0,1,15.6,21.1H13.339c-.016-.182-.023-.339-.045-.493A5.377,5.377,0,0,0,9.54,15.893,5.218,5.218,0,0,0,3.756,17.3a5.223,5.223,0,0,0-1.1,5.908,5.183,5.183,0,0,0,4.924,3.443c2.98.088,5.965.017,8.947.03a3.321,3.321,0,0,1,3.45,3.457c.007.694.011,1.388,0,2.081a3.321,3.321,0,0,1-3.362,3.335c-1.641.018-3.283,0-4.925,0-.925,0-1.85-.016-2.774.008a1.1,1.1,0,0,0-1.138,1.069,1.115,1.115,0,0,0,1.142,1.14c.184.011.37,0,.555,0q4.509,0,9.017,0a3.364,3.364,0,0,1,3.708,3.688q0,5.55,0,11.1v.713h2.172V28.863H22.235V26.654h16.2l.09-.169L37.371,25.6c.529-.892.992-1.661,1.442-2.436a1.1,1.1,0,0,0-.678-1.61c-.866-.229-1.734-.449-2.623-.678,0-2.689-.009-5.324.02-7.958a.749.749,0,0,1,.452-.514c.724-.231,1.472-.388,2.209-.582.444-.117.982-.918.773-1.276a8.882,8.882,0,0,0-1.661-2.43,6.482,6.482,0,0,0-8.455.3,6.815,6.815,0,0,0-2.24,4.907h-2.2a9.008,9.008,0,0,1,2.822-6.452M40.268,8.317c.347.584.745,1.182,1.058,1.822a1.241,1.241,0,0,1,.021.86,19.229,19.229,0,0,1-.87,2.107,1.145,1.145,0,0,1-.592.544c-.693.234-1.412.392-2.13.582v4.922c.72.187,1.438.346,2.135.57a1.044,1.044,0,0,1,.567.488,22.85,22.85,0,0,1,.924,2.234,1.132,1.132,0,0,1-.054.8c-.33.652-.729,1.269-1.053,1.819l3.518,3.518c.556-.33,1.152-.727,1.789-1.041a1.237,1.237,0,0,1,.86-.047,20.965,20.965,0,0,1,2.172.891,1.042,1.042,0,0,1,.5.55c.233.714.4,1.449.587,2.156h4.919a6.6,6.6,0,0,0,.285-1.095,1.907,1.907,0,0,1,1.71-1.962,3.837,3.837,0,0,0,1.193-.54.8.8,0,0,1,.946.024c.6.389,1.219.735,1.748,1.049l3.528-3.539c-.315-.53-.654-1.134-1.027-1.716a.841.841,0,0,1-.061-.945c.339-.679.569-1.411.9-2.095a1.143,1.143,0,0,1,.593-.541c.693-.234,1.411-.393,2.129-.583V14.219c-.608-.154-1.2-.336-1.807-.45a1.147,1.147,0,0,1-1.034-.92c-.174-.639-.538-1.224-.752-1.855a1.243,1.243,0,0,1,.022-.86c.321-.655.726-1.27,1.051-1.82L60.528,4.8c-.558.332-1.154.728-1.79,1.042a1.237,1.237,0,0,1-.86.047,20.966,20.966,0,0,1-2.172-.891,1.041,1.041,0,0,1-.5-.55c-.233-.714-.4-1.449-.586-2.157H49.693c-.193.739-.352,1.461-.58,2.162a1.04,1.04,0,0,1-.5.548,20.938,20.938,0,0,1-2.172.892,1.236,1.236,0,0,1-.86-.05c-.636-.315-1.232-.711-1.788-1.042l-3.522,3.52M8.848,55.541H5.8c-.161,0-.323,0-.484.008a3.361,3.361,0,0,0-3.081,2.959,3.179,3.179,0,0,0,2.379,3.513,32.744,32.744,0,0,0,4.235.236Zm19.973.047H15.591v2.138H28.82ZM15.568,62.154H28.8V60.016H15.568ZM31.1,61.7c2.14-.809,4.227-1.591,6.3-2.4a.574.574,0,0,0,.29-.472.8.8,0,0,0-.432-.469c-.918-.372-1.853-.7-2.781-1.049-1.113-.416-2.225-.834-3.381-1.268Zm-19.962.449h2.127v-6.6H11.137Z" transform="translate(0 0.001)" fill="#fff"/>
            <line id="Línea_2121" data-name="Línea 2121" y1="2.138" transform="translate(15.568 60.017)" fill="#fff"/>
            <line id="Línea_2122" data-name="Línea 2122" y2="2.138" transform="translate(28.798 60.017)" fill="#fff"/>
            <rect id="Rectángulo_263656" data-name="Rectángulo 263656" width="19.888" height="2.139" transform="translate(39.984 35.595)" fill="#fff"/>
            <rect id="Rectángulo_263657" data-name="Rectángulo 263657" width="19.888" height="2.139" transform="translate(40.006 44.488)" fill="#fff"/>
            <rect id="Rectángulo_263658" data-name="Rectángulo 263658" width="15.449" height="2.139" transform="translate(44.424 40.035)" fill="#fff"/>
            <rect id="Rectángulo_263659" data-name="Rectángulo 263659" width="15.451" height="2.151" transform="translate(40 48.922)" fill="#fff"/>
            <path id="Trazado_466950" data-name="Trazado 466950" d="M234.738,303.7a3.327,3.327,0,1,1-3.311-3.309,3.344,3.344,0,0,1,3.311,3.309m-3.3,1.123a1.1,1.1,0,1,0-1.131-1.077,1.119,1.119,0,0,0,1.131,1.077" transform="translate(-185.911 -244.851)" fill="#fff"/>
            <path id="Trazado_466951" data-name="Trazado 466951" d="M282.754,303.708a3.327,3.327,0,1,1-3.307-3.313,3.344,3.344,0,0,1,3.307,3.313m-3.351,1.119a1.1,1.1,0,1,0-1.08-1.129,1.119,1.119,0,0,0,1.08,1.129" transform="translate(-225.049 -244.851)" fill="#fff"/>
            <path id="Trazado_466952" data-name="Trazado 466952" d="M155.372,192.971l4.783-4.82,1.451,1.461-6.213,6.211-2.858-2.857,1.585-1.512,1.253,1.517" transform="translate(-124.331 -153.362)" fill="#fff"/>
            <path id="Trazado_466953" data-name="Trazado 466953" d="M154.036,239.214l1.211,1.434,4.843-4.862,1.478,1.563-6.188,6.188-2.863-2.862,1.518-1.461" transform="translate(-124.317 -192.189)" fill="#fff"/>
            <rect id="Rectángulo_263660" data-name="Rectángulo 263660" width="2.109" height="2.159" transform="translate(40.009 40.015)" fill="#fff"/>
            <rect id="Rectángulo_263661" data-name="Rectángulo 263661" width="2.118" height="2.155" transform="translate(57.765 48.932)" fill="#fff"/>
            <path id="Trazado_466954" data-name="Trazado 466954" d="M228.075,46.173a9.988,9.988,0,1,1,9.9,10.038,10.005,10.005,0,0,1-9.9-10.038m10.019,7.817a7.768,7.768,0,1,0-7.8-7.737,7.791,7.791,0,0,0,7.8,7.737" transform="translate(-185.903 -29.533)" fill="#fff"/>
            <path id="Trazado_466955" data-name="Trazado 466955" d="M257.648,60.253a5.548,5.548,0,1,1-5.557,5.554,5.56,5.56,0,0,1,5.557-5.554m3.316,5.533a3.327,3.327,0,1,0-3.348,3.343,3.34,3.34,0,0,0,3.348-3.343" transform="translate(-205.479 -49.112)" fill="#fff"/>
          </g>
        </g>
      </g>
      <g id="Grupo_710187" data-name="Grupo 710187" transform="translate(611.364 11065.873)">
        <ellipse id="Elipse_4775-2" data-name="Elipse 4775" cx="57" cy="56.5" rx="57" ry="56.5" transform="translate(0.312 0.127)" fill="url(#linear-gradient)"/>
        <g id="Grupo_710193" data-name="Grupo 710193" transform="translate(22.312 21.127)">
          <g id="Grupo_710191" data-name="Grupo 710191" clip-path="url(#clip-path-2)">
            <path id="Trazado_466956" data-name="Trazado 466956" d="M5.114,62.317l1.387.616c.065-.06.123-.088.128-.122.156-1.246.944-1.416,2.033-1.335a32.787,32.787,0,0,0,3.813.005c.6-.026.908.167,1.024.745a4.475,4.475,0,0,0,.257.683,1.181,1.181,0,0,0,.276-.04c1.218-.506,1.218-.508,2.137.411s1.836,1.9,2.809,2.784c.468.427.566.791.219,1.308a3.92,3.92,0,0,0-.281.616c.053.067.077.129.109.134,1.226.164,1.435.922,1.347,2.027a34.449,34.449,0,0,0-.01,3.883c.018.539-.127.829-.668.935a4.714,4.714,0,0,0-.81.323l.631,1.422c-1.363,1.364-2.721,2.732-4.1,4.079a.642.642,0,0,1-.538.06,10.791,10.791,0,0,1-1.066-.465c-.437.625-.267,1.906-1.854,1.335l2.576,5.608a17.257,17.257,0,0,1,14.824-8.806V76.191c-.339-.088-.681-.163-1.015-.266a4.916,4.916,0,0,1-3.468-4.511,2.839,2.839,0,0,1,0-.424c.132-1.182,0-2.021-1.43-2.507a3.363,3.363,0,0,1-1.857-4.011c.213-.915.49-1.815.745-2.72s.519-1.807.8-2.78c-.208-.1-.436-.2-.663-.307a5.626,5.626,0,0,1,2.273-10.721c3.6-.033,7.207-.065,10.808.008A12.41,12.41,0,0,1,47.461,59.979c.054,3.343.024,6.688.011,10.032a11.2,11.2,0,0,0,3.068,8.09,5.3,5.3,0,0,1,1.01,5.915.933.933,0,0,0,.126,1c.806,1.238,1.543,2.521,2.3,3.789.1.174.183.362.312.619a29.921,29.921,0,0,0,3.7-6.713l-3.307,1.3-.845-2.083,6.695-2.684,2.685,6.693-2.091.842-1.154-2.836c-.136.281-.243.486-.336.7a30.828,30.828,0,0,1-4.159,6.942,1.454,1.454,0,0,0-.319,1.288c.512,2.887.266,5.639-1.612,8.046a8.762,8.762,0,0,1-6.926,3.525c-.818.026-1.638,0-2.51,0v4.468H23.754V104.4a26.99,26.99,0,0,1-3.37-.02A8.943,8.943,0,0,1,12.5,94.161c.16-1.346.544-2.666.811-4a1.1,1.1,0,0,0,.006-.658c-.657-1.247-1.4-2.449-2.017-3.717s-1.1-2.591-1.664-3.943h-2.5L6.6,80.459c-.077-.011-.138-.039-.164-.02-.976.727-1.655.371-2.388-.475C3.061,78.83,1.93,77.823.835,76.734l.626-1.461L0,74.707c0-1.916-.008-3.844.015-5.772a.641.641,0,0,1,.333-.429,10.162,10.162,0,0,1,1.07-.415c-.02-.112-.007-.221-.054-.282-.7-.883-.325-1.488.41-2.154,1.149-1.042,2.2-2.191,3.339-3.338M49.231,98.664a7.994,7.994,0,0,1-.989-.487,1.317,1.317,0,0,0-1.546,0c-1.128.628-2.311,1.159-3.457,1.758a.633.633,0,0,1-.909-.142c-.469-.526-.98-1.018-1.495-1.5a1.979,1.979,0,0,0-2.011-.536,2.19,2.19,0,0,0-1.5,2.614,2.06,2.06,0,0,0,2.1,1.815c2.331.016,4.662.022,6.993,0a6.672,6.672,0,0,0,6.717-6.806A14.73,14.73,0,0,0,38.712,80.839a.8.8,0,0,0-.593.39,4.528,4.528,0,0,1-8.414.007.787.787,0,0,0-.588-.392,15.367,15.367,0,0,0-2.383.237,14.7,14.7,0,0,0-12,13.234c-.414,4.014,1.856,7.316,5.691,7.742a67.381,67.381,0,0,0,8.323.092,1.957,1.957,0,0,0,1.745-1.7,2.282,2.282,0,0,0-1.1-2.537,2.035,2.035,0,0,0-2.457.424c-.511.487-1.017.982-1.5,1.5a.554.554,0,0,1-.788.126c-1.23-.64-2.487-1.23-3.715-1.874a1.04,1.04,0,0,0-1.166-.009,12.492,12.492,0,0,1-1.188.593l-.995-2.01a6.559,6.559,0,0,1,.86-.426c.642-.207.8-.624.779-1.274-.052-1.333-.016-2.67-.016-4.03h2.261c0,1.475-.01,2.907.01,4.339,0,.229.069.57.224.663.618.368,1.283.659,2.047,1.035V86.4H44.085V96.952a12.536,12.536,0,0,1,1.22-.576,1.41,1.41,0,0,0,1.065-1.67c-.1-1.254-.025-2.521-.025-3.761h2.261c0,1.329.05,2.6-.019,3.871-.041.762.131,1.257.91,1.473a3.69,3.69,0,0,1,.732.4l-1,1.976M28.293,52.483a26.715,26.715,0,0,1,2.693.017,3.188,3.188,0,0,1,2.792,2.53,9.769,9.769,0,0,1,.021,1.9c.126.015.262.036.4.049a4.5,4.5,0,0,1,4.176,3.845c.088.553,0,1.133.078,1.688a1.446,1.446,0,0,0,.421.856,4.827,4.827,0,0,1-.014,7.564,1.292,1.292,0,0,0-.406.861c-.042,1.411-.019,2.824-.019,4.236v2.507A17.275,17.275,0,0,1,49.6,82.765a3.243,3.243,0,0,0-.8-3.238,12.944,12.944,0,0,1-3.591-9.506c.014-3.319.04-6.638-.01-9.956a10.143,10.143,0,0,0-9.867-9.857c-3.483-.046-6.967-.024-10.451-.007a3.385,3.385,0,1,0-.019,6.77c1.812.023,3.625.011,5.437,0,.83,0,1.339-.441,1.342-1.123s-.505-1.122-1.333-1.133c-.672-.009-1.344,0-2.019,0Zm3.378,23.726c0,1.268-.068,2.49.02,3.7A2.206,2.206,0,0,0,34.01,81.84a2.253,2.253,0,0,0,2.154-2.27c.019-2.871.042-5.742-.015-8.612a1.5,1.5,0,0,1,.94-1.611,2.4,2.4,0,0,0,.227-4.216,2.031,2.031,0,0,1-1.148-2.352c.025-.351.006-.706,0-1.059a2.28,2.28,0,0,0-2.514-2.483c-2.494,0-4.989.027-7.482-.021a.852.852,0,0,0-.979.734c-.447,1.582-.906,3.161-1.347,4.745a1.5,1.5,0,0,0,1.077,2.032c.576.2,1.154.4,1.741.57a.552.552,0,0,1,.471.642c-.026.964-.01,1.929-.008,2.894a2.776,2.776,0,0,0,3.086,3.1q1.823,0,3.645,0v2.277ZM26.031,95.994a12.518,12.518,0,0,1,2.1-.556,4.3,4.3,0,0,1,4.648,4.091,4.387,4.387,0,0,1-4.2,4.915c-.839.024-1.679,0-2.526,0v2.211h15.74v-2.212c-.877,0-1.719.021-2.56,0a4.349,4.349,0,0,1-4.167-3.878,4.468,4.468,0,0,1,3.259-5.025,4.594,4.594,0,0,1,3.457.567V88.679H26.031ZM5.556,65.028a15.146,15.146,0,0,1-1.268,1.314,1.122,1.122,0,0,0-.335,1.706c.333.519-.016,1.6-.583,1.712-1.123.226-1.2.945-1.113,1.845a4.7,4.7,0,0,1,0,.987.6.6,0,0,0,.533.747,1.523,1.523,0,0,1,1.207,1.023c.226.572-.085.936-.212,1.392a.937.937,0,0,0,.031.719c.543.646,1.149,1.24,1.735,1.856.383-.174.68-.309.977-.443a1.331,1.331,0,0,1,1.783.708c.22.927.761,1.108,1.573,1a2.274,2.274,0,0,1,.7,0c.811.147,1.235-.174,1.433-.978a1.3,1.3,0,0,1,1.694-.756,1.2,1.2,0,0,0,1.87-.388,1.9,1.9,0,0,1,.449-.447,1.124,1.124,0,0,0,.352-1.758,1.276,1.276,0,0,1,.629-1.692c1.038-.218,1.2-.852,1.078-1.727a1.657,1.657,0,0,1,0-.493,1.152,1.152,0,0,0-1.024-1.541c-.534-.108-1.044-1.178-.746-1.6.667-.938.228-1.518-.489-2.085a1.966,1.966,0,0,1-.4-.4,1.021,1.021,0,0,0-1.586-.3,1.28,1.28,0,0,1-1.8-.649,1.227,1.227,0,0,0-1.62-1.031,3.118,3.118,0,0,1-.915,0c-.615-.09-.915.134-1.1.75a1.377,1.377,0,0,1-2.085.872c-.232-.108-.469-.207-.78-.345" transform="translate(0 -38.883)" fill="#fff"/>
            <path id="Trazado_466957" data-name="Trazado 466957" d="M48.123,13.79l2.2-.42.436,1.947c1.017-1.545,1.929-3.112,3.015-4.548C57.658,5.623,62.621,1.984,68.991.6,77-1.142,84.081.967,90.272,6.221a29.673,29.673,0,0,1,7.03,9.034L95.326,16.29c-.144-.246-.274-.463-.4-.683-2.916-5.2-6.862-9.356-12.459-11.616C74.164.639,66.556,2.162,59.694,7.741a27.077,27.077,0,0,0-7.172,9.334c-.081.165-.138.342-.268.67l4.7-.75c.124.739.243,1.446.372,2.216l-7.85,1.312L48.123,13.79" transform="translate(-39.057 0)" fill="#fff"/>
            <path id="Trazado_466958" data-name="Trazado 466958" d="M284.349,106.2A10.173,10.173,0,1,1,274.2,96.041a10.193,10.193,0,0,1,10.149,10.16m-10.192-7.9a7.91,7.91,0,1,0,7.929,7.89,7.933,7.933,0,0,0-7.929-7.89" transform="translate(-214.267 -77.948)" fill="#fff"/>
            <rect id="Rectángulo_263663" data-name="Rectángulo 263663" width="11.224" height="2.172" transform="translate(28.305 52.042)" fill="#fff"/>
            <path id="Trazado_466959" data-name="Trazado 466959" d="M29.717,144.048a5.65,5.65,0,1,1-5.706,5.61,5.663,5.663,0,0,1,5.706-5.61m3.332,5.665a3.389,3.389,0,1,0-3.37,3.374,3.4,3.4,0,0,0,3.37-3.374" transform="translate(-19.488 -116.91)" fill="#fff"/>
            <path id="Trazado_466960" data-name="Trazado 466960" d="M290.668,139.475l1.547-1.4,1.151,1.522,6.054-6.186,1.562,1.646-7.364,7.363-2.949-2.946" transform="translate(-235.908 -108.278)" fill="#fff"/>
          </g>
        </g>
      </g>
      <g id="Grupo_710188" data-name="Grupo 710188" transform="translate(875.228 11065.873)">
        <ellipse id="Elipse_4775-3" data-name="Elipse 4775" cx="57" cy="56.5" rx="57" ry="56.5" transform="translate(0.448 0.127)" fill="url(#linear-gradient)"/>
        <g id="yi6Y5K.tif" transform="translate(-615.482 443.915)">
          <g id="Grupo_145855" data-name="Grupo 145855" transform="translate(637.93 -419.787)">
            <path id="Trazado_189402" data-name="Trazado 189402" d="M637.93-415.849a15.2,15.2,0,0,1,.989-1.739,5.238,5.238,0,0,1,4.3-2.189c1.445-.021,2.891-.006,4.337,0,.782,0,1.229.393,1.212,1.04-.016.62-.448.982-1.2.985-1.333.006-2.666-.007-4,0a3.522,3.522,0,0,0-3.741,3.736q-.01,18.233,0,36.465c0,.111.018.222.031.38h2.416v-.888q0-17.86,0-35.72c0-1.241.279-1.526,1.494-1.526l57.4-.006c1.261,0,1.542.283,1.542,1.553q0,17.826,0,35.652v.93h2.449v-.8q0-17.86,0-35.72c0-2.678-1.368-4.057-4.031-4.057H652.335c-.113,0-.226,0-.339,0-.745-.013-1.178-.379-1.186-1s.427-1.02,1.158-1.025c1.175-.009,2.349-.007,3.524-.006q23.008,0,46.015.005a5.459,5.459,0,0,1,5.679,5.667q.005,19.995,0,39.99a5.557,5.557,0,0,1-5.843,5.815q-9.555-.008-19.111-.008h-.787v6.918h3.543c.994,0,1.988-.008,2.982,0,.895.011,1.26.345,1.274,1.212q.034,2.067.006,4.134a1.075,1.075,0,0,1-1.234,1.192q-15.519,0-31.038,0c-.851,0-1.236-.378-1.247-1.245q-.025-2.033,0-4.067c.012-.869.377-1.216,1.265-1.221,1.92-.011,3.84,0,5.76,0h.779v-6.919h-.848c-6.054,0-12.109-.07-18.162.029-3.151.052-5.43-1.02-6.6-4.051Zm6.423,38.688h56.266v-36.047H644.353Zm60.878,2.152H639.746a14.61,14.61,0,0,0,.292,2.252c.443,1.531,1.765,2.346,3.619,2.346q19.754.006,39.509.008,9.149,0,18.3,0a3.379,3.379,0,0,0,3.507-2.414A15.073,15.073,0,0,0,705.231-375.009ZM657.857-356.94H687.13v-2.349H657.857Zm21.406-11.321H665.72v6.823h3.515c0-1.078,0-2.112,0-3.146,0-.969.326-1.3,1.3-1.316,1.219-.013,2.438,0,3.657-.006,1.3-.005,1.564.251,1.563,1.52,0,.982,0,1.964,0,2.954h3.513Zm-7.972,6.814h2.378v-2.321h-2.378Z" transform="translate(-637.93 419.787)" fill="#fff"/>
            <path id="Trazado_189403" data-name="Trazado 189403" d="M785.153-338.151c-2.27-2.263-4.489-4.483-6.718-6.692a3.242,3.242,0,0,1-.9-3.586,3.785,3.785,0,0,1,.844-1.283c.961-1.018,1.965-2,2.962-2.979a3.245,3.245,0,0,1,4.867.01c2.056,2.033,4.094,4.085,6.134,6.134a7.907,7.907,0,0,1,.513.64c.264-.245.444-.4.613-.571q3.356-3.353,6.71-6.708c.789-.788,1.216-.8,1.992-.022q2.9,2.894,5.8,5.8c.813.814.819,1.241.015,2.047q-3.327,3.334-6.663,6.659a6.226,6.226,0,0,1-.67.5c1.944,1.929,3.751,3.758,5.6,5.541a2.256,2.256,0,0,1,.767,1.848c-.049,1.354.031,2.713-.036,4.065a2.145,2.145,0,0,0,.851,2.05,2.519,2.519,0,0,1,.472.484,1.018,1.018,0,0,1-.063,1.409.97.97,0,0,1-1.352.056.8.8,0,0,1-.2-.182,2.934,2.934,0,0,0-2.99-1.194c-1.235.094-2.484,0-3.725.037a1.784,1.784,0,0,1-1.426-.61c-1.71-1.74-3.444-3.456-5.171-5.18-.126-.125-.262-.24-.438-.4-.191.177-.373.336-.543.506q-3.332,3.329-6.662,6.661c-.82.82-1.234.822-2.037.019q-2.877-2.874-5.75-5.752c-.868-.872-.858-1.251.032-2.141C780.353-333.353,782.717-335.715,785.153-338.151Zm6.185,6.426-4.682-4.77-2.918,2.927c1.1,1.19,1.295,1.681.71,2.171-1.119.936-1.587-.306-2.231-.723L780-329.9l4.727,4.762Zm9.912-19.4-3.339,3.336a7.1,7.1,0,0,1,.833.687.988.988,0,0,1-.026,1.451,1.018,1.018,0,0,1-1.41,0c-.305-.257-.582-.549-.794-.75l-1.951,1.87,4.78,4.772,6.6-6.593Zm-12.693,3.746-1.595,1.56L802.777-330l1.66-1.49Zm-4.717,4.715,15.81,15.819,1.519-1.37-15.853-15.859Zm-1.809-1.441,4.934-4.94c-.742-.732-1.53-1.539-2.351-2.31a1.18,1.18,0,0,0-1.754.062q-1.555,1.511-3.066,3.068a1.188,1.188,0,0,0,.033,1.851C780.575-345.59,781.336-344.818,782.031-344.1Zm22.863,15.516-2.39,2.4h2.39Z" transform="translate(-758.388 362.747)" fill="#fff"/>
          </g>
        </g>
      </g>
      <g id="Grupo_710189" data-name="Grupo 710189" transform="translate(1139.091 11065.873)">
        <ellipse id="Elipse_4775-4" data-name="Elipse 4775" cx="57.5" cy="56.5" rx="57.5" ry="56.5" transform="translate(-0.415 0.127)" fill="url(#linear-gradient)"/>
        <g id="Grupo_710194" data-name="Grupo 710194" transform="translate(24.585 24.127)">
          <g id="Grupo_710194-2" data-name="Grupo 710194" clip-path="url(#clip-path-3)">
            <path id="Trazado_466961" data-name="Trazado 466961" d="M.032,64.681V62.645H4.16c-.3-.266-.488-.43-.672-.6A10.386,10.386,0,0,1,.071,52.885,16.477,16.477,0,0,1,7.906,40.212a1.62,1.62,0,0,0,.16-.11.911.911,0,0,0,.1-.123,7.167,7.167,0,0,1-3.558-3.987,6.971,6.971,0,0,1-.048-4.728,2.347,2.347,0,0,1,.132-.368C6.183,28.14,6.316,25.174,6.3,22.111A12.009,12.009,0,0,1,13.53,10.6a21.7,21.7,0,0,1,3.664-1.086c.163-.047.335-.064.553-.1,0-1.977,0-3.93,0-5.883a5.129,5.129,0,0,1,.058-.973A3.112,3.112,0,0,1,20.977,0Q26.85-.009,32.722,0H58.038c2.314,0,3.555,1.232,3.556,3.532q0,16.606,0,33.211v.8a3.2,3.2,0,0,1,3.05,2.524,3.873,3.873,0,0,1,.079.905q.007,7.047,0,14.094a3.154,3.154,0,0,1-3.428,3.4q-3,0-6,0H54.6l.6,4.179h9.5v2.037Zm59.443-54.2H24.086c.843.566,1.673,1.148,2.531,1.684a2.041,2.041,0,0,0,.99.351c3.436.025,6.872.016,10.308.016h.733v4.133h4.186v-4.1H57.375V23H51.191v2.075h6.175V35.459H42.848V25.022h6.18V22.947h-6.24V18.832H38.6v4.154H31.319c0,.629.033,1.213-.007,1.792a8.482,8.482,0,0,0,.816,4.238c.32.688.6,1.4.849,2.115a7.135,7.135,0,0,1-2.834,8.414c-.228.15-.463.29-.633.4l3.9,3.179q0-1,0-2c0-2.3,1.237-3.535,3.55-3.536H59.475ZM54.3,56.376c2.341,0,4.621,0,6.9,0,1.109,0,1.436-.327,1.437-1.434q0-6.88,0-13.76c0-1.2-.3-1.509-1.492-1.509H44.908q-4.076,0-8.152,0c-.839,0-1.255.369-1.256,1.15q-.013,7.206,0,14.412a1.035,1.035,0,0,0,1.14,1.134c.782.016,1.565,0,2.348,0h4.844l1.2-8.306h8.079L54.3,56.376M59.506,8.329c0-1.6,0-3.136,0-4.675,0-1.285-.28-1.565-1.567-1.565H21.811c-1.858,0-1.976.119-1.976,2V8.329ZM33.349,54.272a1.255,1.255,0,0,0,.053-.229c0-2.3.007-4.609,0-6.914a1.063,1.063,0,0,0-.156-.545,14.36,14.36,0,0,0-9.524-6.5.681.681,0,0,0-.543.172c-.567.616-1.1,1.265-1.685,1.949.844,2.113.558,3.037-1.455,4.5a.59.59,0,0,0-.193.421c-.011,3.238-.008,6.477-.008,9.753.272.07.527.115.766.2a1.436,1.436,0,0,0,1.664-.379A5.014,5.014,0,0,1,27.111,55.5a15.232,15.232,0,0,1,2.123.884V47.02h2.109v7.252ZM7.321,49.041v-2.01h2.1V54.5l8.257,1.906a.959.959,0,0,0,.062-.2c0-3.021.014-6.042-.008-9.063a.831.831,0,0,0-.4-.545,2.808,2.808,0,0,1-1.561-2.125,13.735,13.735,0,0,1,.2-2.424c-.464-.533-.967-1.152-1.522-1.721a.884.884,0,0,0-.691-.225,14.255,14.255,0,0,0-7.9,4.492A13.728,13.728,0,0,0,3.12,49.041Zm21.89-25.608c.292-4.525-1.22-8.215-5.229-10.528a9.843,9.843,0,0,0-11.08.433c-3.536,2.4-4.83,5.918-4.522,10.1l2.04-.564A5.282,5.282,0,0,1,14.5,17.994c.165-.047.316-.268.406-.443a3.336,3.336,0,0,1,3.837-1.8v2c-.226,0-.4,0-.573,0-.917.009-1.444.417-1.458,1.127-.013.686.468,1.118,1.347,1.2,1.925.188,3.851.37,5.775.561,1.095.109,2.188.232,3.326.353v1.875l2.056.565M9.422,62.563c.275.025.529.069.784.069q8.539.008,17.078,0A1.853,1.853,0,0,0,29.2,60.4a3.268,3.268,0,0,0-2.193-2.76,3.23,3.23,0,0,0-3.452.679,8.383,8.383,0,0,0-.921.921.8.8,0,0,1-.914.26c-2.323-.549-4.649-1.082-6.974-1.619-1.767-.408-3.534-.814-5.329-1.228Zm43.658.053L51.3,50.145h-4.46L45.056,62.616ZM55.3,14.662H44.942v6.185H55.3Zm-10.381,18.7H55.278V27.179H44.919Zm-26.159-8.82c.359.379.619.665.892.939,1.721,1.725,1.722,1.724,4.18,1.664.043,0,.087,0,.13,0a1.048,1.048,0,0,0,1.088-1.123c.018-.651.02-1.3,0-1.954a1.024,1.024,0,0,0-1.115-1.09q-5.147-.016-10.294,0a1.021,1.021,0,0,0-1.107,1.1q-.029.976,0,1.954a1.045,1.045,0,0,0,1.159,1.115,11.093,11.093,0,0,0,1.821-.018,2.509,2.509,0,0,0,1.254-.514c.694-.611,1.3-1.329,2-2.067m-6.234,4.691c0,.222,0,.545,0,.868a4.181,4.181,0,0,0,4.355,4.35q1.892.009,3.783,0a4.284,4.284,0,0,0,4.319-5.292c-2.2.006-4.549.729-6.149-1.586-.205.188-.342.293-.454.421a3.576,3.576,0,0,1-3.016,1.247c-.926-.043-1.855-.008-2.838-.008m-5.184.715c-.689,1.561-1.343,3.01-.963,4.707A4.747,4.747,0,0,0,12.31,38.31c.439-.12.882-.226,1.327-.32,1.145-.244,1.334-.451,1.45-1.649a6.409,6.409,0,0,1-4.58-5.014,4.418,4.418,0,0,1-3.164-1.379m15.122,6.4c.241,1.308.324,1.387,1.528,1.652.571.126,1.134.289,1.7.42a3.057,3.057,0,0,0,1.009.168A4.979,4.979,0,0,0,31.065,35.1c.651-1.845-.045-3.475-.85-5.16a4.413,4.413,0,0,1-3.152,1.414,6.412,6.412,0,0,1-4.6,5m6.5-21.71a12.972,12.972,0,0,1,2.315,6.208H36.5V14.639Zm2.4,41.738v6.215h4.131c0-1.347.013-2.647-.016-3.945,0-.179-.192-.375-.335-.525-.454-.478-.923-.943-1.4-1.4-.137-.133-.3-.316-.467-.326-.623-.038-1.25-.015-1.917-.015M43.528,58.5H37.62v4.113h5.323l.585-4.113M17.367,36.564l-1.112,2.7A2.786,2.786,0,0,0,18.836,40.7a2.777,2.777,0,0,0,2.49-1.441l-1.108-2.7ZM2.089,54.1a8.043,8.043,0,0,0,1.062,4.21L6.3,55.677,2.089,54.1m5.2-2.943c-1.54,0-3.016-.01-4.491.016a.546.546,0,0,0-.4.348.64.64,0,0,0,.251.533c.57.263,1.171.459,1.761.679l2.883,1.073ZM7.274,57.59l-3.02,2.518,3.02,2.021Zm3.133-32.513a2.061,2.061,0,0,0,0,4.123ZM27.175,29.2a2.056,2.056,0,0,0,0-4.112ZM19.829,43.87a1.039,1.039,0,1,0-1.062,1.017,1.051,1.051,0,0,0,1.062-1.017M13.593,20.709l.077.129h1.557l-.434-.793-1.2.665" transform="translate(-0.001 0.001)" fill="#fff"/>
            <rect id="Rectángulo_263665" data-name="Rectángulo 263665" width="2.019" height="2.008" transform="translate(21.951 4.223)" fill="#fff"/>
            <rect id="Rectángulo_263666" data-name="Rectángulo 263666" width="1.993" height="2.027" transform="translate(26.152 4.225)" fill="#fff"/>
            <rect id="Rectángulo_263667" data-name="Rectángulo 263667" width="1.993" height="2.027" transform="translate(30.328 4.225)" fill="#fff"/>
            <path id="Trazado_466962" data-name="Trazado 466962" d="M84.651,172.109l1.752-.875c1.691,1.98,2.962,1.981,4.552-.006l1.714.85a4.161,4.161,0,0,1-3.65,2.7,4.367,4.367,0,0,1-4.367-2.666" transform="translate(-69.893 -141.377)" fill="#fff"/>
          </g>
        </g>
      </g>
    </g>
  </g>
</svg>
