<svg xmlns="http://www.w3.org/2000/svg" xmlns:xlink="http://www.w3.org/1999/xlink" width="314" height="206" viewBox="0 0 314 206">
  <defs>
    <filter id="Rect치ngulo_263224" x="0" y="0" width="314" height="206" filterUnits="userSpaceOnUse">
      <feOffset dy="3" input="SourceAlpha"/>
      <feGaussianBlur stdDeviation="4" result="blur"/>
      <feFlood flood-opacity="0.161"/>
      <feComposite operator="in" in2="blur"/>
      <feComposite in="SourceGraphic"/>
    </filter>
  </defs>
  <g id="Grupo_710350" data-name="Grupo 710350" transform="translate(-1092.506 -16557.75)">
    <g transform="matrix(1, 0, 0, 1, 1092.51, 16557.75)" filter="url(#Rect치ngulo_263224)">
      <rect id="Rect치ngulo_263224-2" data-name="Rect치ngulo 263224" width="290" height="182" rx="17" transform="translate(12 9)" fill="#fff"/>
    </g>
    <text id="Datos_de_prueba_" data-name="Datos de prueba

" transform="translate(1192.506 16669)" fill="#12263f" font-size="15" font-family="Roboto-Black, Roboto" font-weight="800"><tspan x="1.782" y="16">Datos de prueba</tspan></text>
    <g id="J2W51J.tif" transform="translate(481.636 16317.227)">
      <g id="Grupo_151159" data-name="Grupo 151159" transform="translate(732.871 266.773)">
        <path id="Trazado_192806" data-name="Trazado 192806" d="M746.076,266.773h43.247a.915.915,0,0,0,.18.117,3.452,3.452,0,0,1,2.574,3.653q0,2.067,0,4.134v2.691a3.428,3.428,0,0,1,4.057,1.449,1.382,1.382,0,0,0,1.432.74c1.635-.034,3.271-.011,4.906-.011v2.317c-1.817,0-3.581-.012-5.343.014a.953.953,0,0,0-.7.3c-1.12,1.744-2.183,2.231-4.3,1.886V287.7c.534-.181,1.125.3,1.5-.451a3.268,3.268,0,0,1,3.1-1.893,3.473,3.473,0,0,1,3.121,1.893,1.03,1.03,0,0,0,.71.4c.637.057,1.283.019,1.924.019v2.317c-.634,0-1.234.025-1.83-.008a.834.834,0,0,0-.9.517,3.414,3.414,0,0,1-5.917.232,1.388,1.388,0,0,0-1.729-.684v20.846a7.355,7.355,0,0,0,.963-.007,1.6,1.6,0,0,1,1.864,1.12,25.79,25.79,0,0,0,1.231,2.458.869.869,0,0,0,.647.372c1.014-.016,2.028-.082,3.04-.164a1.465,1.465,0,0,1,1.527.852c.745,1.322,1.532,2.62,2.3,3.927v.871c-.688,1.014-1.387,2.021-2.052,3.05a.646.646,0,0,0,0,.575c.665,1.029,1.364,2.036,2.052,3.05v.871c-.782,1.329-1.573,2.653-2.341,3.99a1.4,1.4,0,0,1-1.423.788c-1.013-.07-2.029-.1-3.04-.189a.661.661,0,0,0-.77.457c-.385.832-.847,1.629-1.215,2.467a1.611,1.611,0,0,1-1.686,1.06q-23.072-.03-46.144-.015a3.459,3.459,0,0,1-3.749-3.742q0-8.162,0-16.324v-.831h-.866c-2.249,0-4.5,0-6.747,0a2.7,2.7,0,0,1-2.834-2.814q-.009-6.457,0-12.914a2.7,2.7,0,0,1,2.881-2.838c2.249,0,4.5,0,6.747,0h.819v-.95q0-12.733,0-25.465a5.056,5.056,0,0,1,.107-1.147A3.679,3.679,0,0,1,746.076,266.773Zm34.381,49.942a9.154,9.154,0,0,0,.707-1.058,1.576,1.576,0,0,1,1.744-.983c.937.1,1.884.095,2.821.188a.662.662,0,0,0,.778-.448c.421-.895.892-1.766,1.318-2.658a1.3,1.3,0,0,1,1.357-.869,3.048,3.048,0,0,0,.519-.045V290.03h-2.27c0,.687.015,1.336,0,1.983a2.674,2.674,0,0,1-2.594,2.611q-6.674.03-13.349,0a2.658,2.658,0,0,1-2.618-2.658q-.02-6.638,0-13.276a2.645,2.645,0,0,1,2.58-2.619q6.711-.03,13.421,0a2.674,2.674,0,0,1,2.559,2.571c.011.281,0,.563,0,.852H789.7v-5.724H745.681v23.189c1.052,0,2.063-.011,3.074,0a2.692,2.692,0,0,1,2.684,2.67c.017,1.088,0,2.176,0,3.265q0,1.073,0,2.147h3.968l.137-.175-1.417-1.088,1.607-1.806c1.2,1.184,2.387,2.32,3.532,3.5a1.029,1.029,0,0,1,.026,1.511c-1.156,1.2-2.363,2.343-3.515,3.476l-1.81-1.693,1.627-1.3h-4.155c0,1.776,0,3.492,0,5.209a2.708,2.708,0,0,1-2.866,2.857c-.959,0-1.918,0-2.889,0v9.293H779.6a1.412,1.412,0,0,0,.432-.008,1.582,1.582,0,0,0,.585-.3,1.042,1.042,0,0,0,.052-1.665,4.918,4.918,0,0,1-.675-1.027.9.9,0,0,0-.934-.5c-1.443.03-2.887.011-4.347.011v-2.317c1.376,0,2.7.01,4.029-.011a.811.811,0,0,0,.6-.238c.411-.674.763-1.384,1.136-2.081Zm-34.819,10.44c0,1.777,0,3.488,0,5.2,0,1.412.343,1.756,1.748,1.756h39.594c-.43-1.588-.508-1.651-1.956-1.609a5.739,5.739,0,0,0-1.156.065A2.411,2.411,0,0,1,780.757,331c-.582-1.3-1.368-2.511-2.108-3.841ZM784.008,317.1c-.743-.266-1.2.222-1.541.989a8.382,8.382,0,0,1-.759,1.316.632.632,0,0,0,.038.834c.564.813,1.067,1.67,1.649,2.47a1.446,1.446,0,0,1-.016,1.915c-.513.7-.924,1.479-1.459,2.16-.414.527-.243.9-.041,1.465.654,1.816,1.856,2.171,3.638,1.881,2.091-.341,2.1-.226,3.054,1.654.39.771.633,1.822,1.268,2.2s1.689.081,2.555.128a.7.7,0,0,0,.757-.494c.445-.936.934-1.852,1.387-2.785a1.249,1.249,0,0,1,1.323-.8c.65.051,1.312.025,1.951.137,1.232.217,2.155-.033,2.573-1.35a3.374,3.374,0,0,1,.507-.875.689.689,0,0,0-.025-.91c-.57-.809-1.083-1.659-1.651-2.469a1.452,1.452,0,0,1,.015-1.863c.477-.668.869-1.4,1.379-2.039a1.3,1.3,0,0,0,.063-1.722c-1.19-1.956-1.161-1.974-3.461-1.746-2.2.217-2.192.216-3.173-1.727-.379-.751-.6-1.781-1.216-2.158s-1.642-.082-2.485-.125a.8.8,0,0,0-.889.535c-.376.835-.849,1.628-1.208,2.47a1.566,1.566,0,0,1-1.818,1.068C785.68,317.184,784.929,317.165,784.008,317.1Zm-12.827-31.83c0,2.055.018,4.11-.01,6.164-.009.66.222.893.885.889q6.092-.031,12.183,0c.66,0,.893-.222.889-.885q-.031-6.091,0-12.183c0-.66-.223-.892-.886-.889q-6.092.031-12.184,0c-.66,0-.9.221-.889.885C771.2,281.261,771.18,283.267,771.18,285.274ZM735.19,306.247c0,2.03.019,4.061-.01,6.091-.009.664.229.889.889.885q6.091-.031,12.183,0c.664,0,.889-.23.885-.889q-.031-6.091,0-12.183c0-.664-.23-.888-.889-.885q-6.092.031-12.184,0c-.664,0-.894.229-.885.889C735.208,302.186,735.19,304.216,735.19,306.247Zm10.456-34.878h44.078c.144-1.954-.151-2.277-2.033-2.277h-40.2a5.84,5.84,0,0,0-.725.012,1.168,1.168,0,0,0-1.115,1.132C745.616,270.594,745.645,270.958,745.645,271.369Zm41.842,10.525v5.719h2.234v-5.719Zm5.748-2.345A1.155,1.155,0,1,0,794.4,280.7,1.209,1.209,0,0,0,793.235,279.549Zm3.461,10.437a1.156,1.156,0,1,0-1.126-1.184A1.211,1.211,0,0,0,796.7,289.986Z" transform="translate(-732.871 -266.773)" fill="#12263f"/>
        <path id="Trazado_192807" data-name="Trazado 192807" d="M855.228,339.924c0,2.15.005,4.3,0,6.452a2.7,2.7,0,0,1-2.814,2.832q-6.488.01-12.977,0a2.688,2.688,0,0,1-2.776-2.795q-.01-6.488,0-12.976a2.684,2.684,0,0,1,2.775-2.793q6.525-.011,13.049,0a2.685,2.685,0,0,1,2.741,2.756C855.237,335.574,855.228,337.749,855.228,339.924Zm-9.3-6.967h-5.874c-1.062,0-1.075.013-1.076,1.039q0,5.946,0,11.893c0,.978.028,1,1.039,1h11.821c1.076,0,1.077,0,1.077-1.112q0-5.838,0-11.676c0-1.148,0-1.149-1.185-1.149Z" transform="translate(-821.563 -321.35)" fill="#12263f"/>
        <path id="Trazado_192808" data-name="Trazado 192808" d="M906.683,508.63l-.731-2.081a4.329,4.329,0,0,1,4.9,1.084,4.637,4.637,0,0,1-4.908,7.566l.735-2.151a2.358,2.358,0,0,0,2.783-1.061,2.128,2.128,0,0,0-.1-2.453A2.339,2.339,0,0,0,906.683,508.63Z" transform="translate(-880.771 -471.363)" fill="#12263f"/>
        <path id="Trazado_192809" data-name="Trazado 192809" d="M1053.751,494.8l1.869-1.409c1.195,1.6,2.369,3.128,3.49,4.7a1.272,1.272,0,0,1,.15,1.02c-.734,1.961-1.529,3.9-2.324,5.89l-2.173-.885c.611-1.525,1.179-3,1.8-4.459a1.171,1.171,0,0,0-.182-1.363C1055.491,497.178,1054.665,496.018,1053.751,494.8Z" transform="translate(-1007.088 -460.433)" fill="#12263f"/>
        <path id="Trazado_192810" data-name="Trazado 192810" d="M976.226,493.378l1.864,1.411c-.907,1.214-1.765,2.406-2.676,3.556a1.063,1.063,0,0,0-.156,1.237c.621,1.463,1.192,2.947,1.825,4.53l-2.176.879c-.8-2-1.594-3.937-2.328-5.9a1.273,1.273,0,0,1,.154-1.019C973.855,496.5,975.031,494.972,976.226,493.378Z" transform="translate(-937.679 -460.425)" fill="#12263f"/>
        <path id="Trazado_192811" data-name="Trazado 192811" d="M1015.023,512.107l-2.154-.924,3.485-8.14,2.155.917Z" transform="translate(-972.152 -468.684)" fill="#12263f"/>
        <path id="Trazado_192812" data-name="Trazado 192812" d="M963.563,626.4v2.226h-6.894V626.4Z" transform="translate(-924.124 -574.102)" fill="#12263f"/>
        <path id="Trazado_192813" data-name="Trazado 192813" d="M988.782,594.207H993.3v2.254h-4.521Z" transform="translate(-951.567 -546.591)" fill="#12263f"/>
        <path id="Trazado_192814" data-name="Trazado 192814" d="M1040.073,596.7h-3.439v-2.267h3.413v2.294Z" transform="translate(-992.461 -546.783)" fill="#12263f"/>
        <path id="Trazado_192815" data-name="Trazado 192815" d="M956.708,594.345h2.222v2.235h-2.222Z" transform="translate(-924.158 -546.709)" fill="#12263f"/>
        <path id="Trazado_192816" data-name="Trazado 192816" d="M945.668,700.2c-1.282,0-2.564,0-3.846,0-.859,0-1.352-.438-1.348-1.165s.494-1.147,1.362-1.149q3.846-.007,7.691,0c.881,0,1.369.406,1.385,1.127.017.753-.485,1.183-1.4,1.187C948.232,700.2,946.95,700.2,945.668,700.2Z" transform="translate(-910.285 -635.19)" fill="#12263f"/>
        <path id="Trazado_192817" data-name="Trazado 192817" d="M1106.636,634.62a4.786,4.786,0,1,1,4.792-4.786A4.76,4.76,0,0,1,1106.636,634.62Zm.76-2.522a2.317,2.317,0,0,0,1.645-2.483,2.093,2.093,0,0,0-1.645-1.986Zm-2.55-1.005.167-.169v-2.859a2.2,2.2,0,0,0-.711,2.484C1104.391,630.768,1104.66,630.914,1104.846,631.093Z" transform="translate(-1048.173 -572.947)" fill="#12263f"/>
        <path id="Trazado_192818" data-name="Trazado 192818" d="M1012.315,367.251a4.641,4.641,0,1,1,4.657,4.624A4.6,4.6,0,0,1,1012.315,367.251Zm6.96-.034a2.319,2.319,0,1,0-2.3,2.336A2.379,2.379,0,0,0,1019.275,367.217Z" transform="translate(-971.678 -348.66)" fill="#12263f"/>
        <path id="Trazado_192819" data-name="Trazado 192819" d="M769.51,506.282c1.064,0,2.128,0,3.193,0,.973,0,1.383.4,1.386,1.345q.009,3.3,0,6.6c0,.916-.414,1.328-1.327,1.331q-3.3.01-6.6,0c-.951,0-1.347-.41-1.349-1.382q-.007-3.265,0-6.53c0-.963.4-1.361,1.362-1.367C767.285,506.277,768.4,506.282,769.51,506.282Zm-2.335,2.35v4.558h4.561v-4.558Z" transform="translate(-760.162 -471.451)" fill="#12263f"/>
        <path id="Trazado_192820" data-name="Trazado 192820" d="M876.568,367.154c0-1.112-.011-2.223,0-3.335a1.155,1.155,0,0,1,1.836-1.079q2.846,1.659,5.647,3.394a1.152,1.152,0,0,1-.03,2.1q-2.774,1.707-5.586,3.354a1.164,1.164,0,0,1-1.867-1.1C876.559,369.377,876.568,368.265,876.568,367.154Zm4.676.016-2.309-1.383v2.774Z" transform="translate(-855.668 -348.598)" fill="#12263f"/>
      </g>
    </g>
  </g>
</svg>
