<svg xmlns="http://www.w3.org/2000/svg" xmlns:xlink="http://www.w3.org/1999/xlink" width="259.133" height="265.023" viewBox="0 0 259.133 265.023">
  <defs>
    <radialGradient id="radial-gradient" cx="1.002" cy="0.908" r="1.092" gradientTransform="translate(0.007) scale(0.987 1)" gradientUnits="objectBoundingBox">
      <stop offset="0" stop-color="#173d7a"/>
      <stop offset="1" stop-color="#274f89"/>
    </radialGradient>
    <radialGradient id="radial-gradient-2" cx="0.967" cy="0.944" r="1.063" gradientTransform="translate(-0.095) scale(1.19 1)" gradientUnits="objectBoundingBox">
      <stop offset="0" stop-color="#86b8e0"/>
      <stop offset="0.116" stop-color="#98c4e7"/>
      <stop offset="0.325" stop-color="#b2d5f1"/>
      <stop offset="0.54" stop-color="#c5e2f9"/>
      <stop offset="0.761" stop-color="#d0e9fd"/>
      <stop offset="1" stop-color="#d4ecff"/>
    </radialGradient>
    <radialGradient id="radial-gradient-3" cx="0.892" cy="0.72" r="0.788" gradientTransform="translate(-0.09) scale(1.18 1)" xlink:href="#radial-gradient"/>
    <radialGradient id="radial-gradient-4" cx="1.127" cy="0.6" r="2.077" gradientTransform="translate(0.211) scale(0.577 1)" xlink:href="#radial-gradient-2"/>
    <radialGradient id="radial-gradient-5" cx="0.234" cy="0.38" r="0.644" gradientTransform="translate(-0.287) scale(1.574 1)" gradientUnits="objectBoundingBox">
      <stop offset="0" stop-color="#396caa"/>
      <stop offset="1" stop-color="#274f89"/>
    </radialGradient>
    <linearGradient id="linear-gradient" x1="0.029" y1="0.235" x2="0.883" y2="0.916" gradientUnits="objectBoundingBox">
      <stop offset="0" stop-color="#d4ecff"/>
      <stop offset="0.239" stop-color="#d0e9fd"/>
      <stop offset="0.46" stop-color="#c5e2f9"/>
      <stop offset="0.675" stop-color="#b2d5f1"/>
      <stop offset="0.884" stop-color="#98c4e7"/>
      <stop offset="1" stop-color="#86b8e0"/>
    </linearGradient>
    <linearGradient id="linear-gradient-2" x1="-6.199" y1="8.517" x2="-5.073" y2="8.43" gradientUnits="objectBoundingBox">
      <stop offset="0" stop-color="#3919bb"/>
      <stop offset="1" stop-color="#6507fa"/>
    </linearGradient>
    <radialGradient id="radial-gradient-6" cx="0.988" cy="0.656" r="1.746" gradientTransform="translate(0.211) scale(0.577 1)" xlink:href="#radial-gradient"/>
    <linearGradient id="linear-gradient-4" x1="0.101" y1="0.5" x2="1.101" y2="0.5" xlink:href="#linear-gradient"/>
    <radialGradient id="radial-gradient-7" cx="0.923" cy="0.779" r="1.227" gradientTransform="translate(0.133) scale(0.734 1)" xlink:href="#radial-gradient"/>
  </defs>
  <g id="Grupo_710223" data-name="Grupo 710223" transform="translate(0)">
    <path id="Trazado_194445" data-name="Trazado 194445" d="M497.412,68.432a7.17,7.17,0,0,0-1.149.842c-.159-5.172-3.894-7.228-8.492-4.574-3.744,2.162-6.915,6.789-8.052,11.326a5.071,5.071,0,0,0-3.176.789,13.411,13.411,0,0,0-6.068,10.51c0,3.869,2.716,5.438,6.068,3.5l20.868-12.049a9.9,9.9,0,0,0,4.48-7.76C501.892,68.162,499.886,67,497.412,68.432Z" transform="translate(-263.355 -32.854)" fill="#b6d8f3"/>
    <g id="Grupo_152006" data-name="Grupo 152006" transform="translate(105.808 244.492)">
      <path id="Trazado_194446" data-name="Trazado 194446" d="M338.69,366.164a4.35,4.35,0,0,1-1.968,3.408c-1.086.627-1.968.119-1.968-1.136a4.35,4.35,0,0,1,1.968-3.408C337.81,364.4,338.69,364.909,338.69,366.164Z" transform="translate(-334.755 -353.713)" fill="#fff"/>
      <path id="Trazado_194447" data-name="Trazado 194447" d="M347.234,361.231a4.35,4.35,0,0,1-1.968,3.408c-1.086.627-1.968.119-1.968-1.136a4.349,4.349,0,0,1,1.968-3.408C346.354,359.468,347.234,359.977,347.234,361.231Z" transform="translate(-336.921 -352.462)" fill="#fff"/>
      <path id="Trazado_194448" data-name="Trazado 194448" d="M355.778,356.3a4.347,4.347,0,0,1-1.968,3.408c-1.086.628-1.968.119-1.968-1.136a4.349,4.349,0,0,1,1.968-3.408C354.9,354.535,355.778,355.044,355.778,356.3Z" transform="translate(-339.087 -351.211)" fill="#fff"/>
      <path id="Trazado_194449" data-name="Trazado 194449" d="M364.322,351.366a4.347,4.347,0,0,1-1.968,3.408c-1.086.628-1.968.119-1.968-1.136a4.349,4.349,0,0,1,1.968-3.408C363.442,349.6,364.322,350.111,364.322,351.366Z" transform="translate(-341.253 -349.961)" fill="#fff"/>
    </g>
    <path id="Trazado_194450" data-name="Trazado 194450" d="M256.039,179.877a7.539,7.539,0,0,0-1.922,1.652c-.09-3.79-2.81-5.3-6.158-3.37A11.22,11.22,0,0,0,245,180.741c-1.491-2.606-4.579-3.211-8.158-1.144-5.033,2.906-9.114,9.974-9.114,15.786a10.891,10.891,0,0,0,.092,1.359,3.435,3.435,0,0,0-2.552.515,9.637,9.637,0,0,0-4.361,7.553c0,2.781,1.952,3.908,4.361,2.518l30.774-17.768a9.267,9.267,0,0,0,4.193-7.261C260.232,179.624,258.355,178.541,256.039,179.877Z" transform="translate(-200.083 -61.699)" fill="#b6d8f3"/>
    <path id="Trazado_194451" data-name="Trazado 194451" d="M230.215,320.061a8,8,0,0,0-2.036,1.749c-.095-4.013-2.975-5.617-6.521-3.569a11.856,11.856,0,0,0-3.134,2.735c-1.579-2.76-4.849-3.4-8.64-1.212-5.33,3.078-9.65,10.561-9.65,16.715a11.4,11.4,0,0,0,.1,1.438,3.64,3.64,0,0,0-2.7.546,10.206,10.206,0,0,0-4.617,8c0,2.945,2.067,4.138,4.617,2.666l32.587-18.814a9.81,9.81,0,0,0,4.439-7.689C234.654,319.793,232.667,318.646,230.215,320.061Z" transform="translate(-193.011 -97.201)" fill="#fff" opacity="0.4"/>
    <g id="Grupo_152022" data-name="Grupo 152022" transform="translate(108.93 0)">
      <g id="Grupo_152010" data-name="Grupo 152010" transform="translate(22.656 44.744)">
        <path id="Trazado_194452" data-name="Trazado 194452" d="M374.265,131.334a.479.479,0,0,1-.479-.479V103.59a.479.479,0,0,1,.958,0v27.264A.48.48,0,0,1,374.265,131.334Z" transform="translate(-370.428 -87.631)" fill="#396caa"/>
        <g id="Grupo_152009" data-name="Grupo 152009" transform="translate(0 0)">
          <g id="Grupo_152007" data-name="Grupo 152007" transform="translate(1.469 14.246)">
            <rect id="Rectángulo_45144" data-name="Rectángulo 45144" width="4.737" height="10.221" fill="#5793ce"/>
            <path id="Trazado_194453" data-name="Trazado 194453" d="M375.3,115.651a3.7,3.7,0,0,1-3.349,0,1.02,1.02,0,0,1,0-1.933,3.7,3.7,0,0,1,3.349,0A1.02,1.02,0,0,1,375.3,115.651Z" transform="translate(-371.255 -104.464)" fill="#5793ce"/>
          </g>
          <g id="Grupo_152008" data-name="Grupo 152008">
            <rect id="Rectángulo_45145" data-name="Rectángulo 45145" width="7.675" height="16.031" fill="#5793ce"/>
            <path id="Trazado_194454" data-name="Trazado 194454" d="M371.255,103.547v3.459a6.129,6.129,0,0,0,4.737,0v-3.459A6.126,6.126,0,0,0,371.255,103.547Z" transform="translate(-369.786 -87.62)" fill="#396caa"/>
            <path id="Trazado_194455" data-name="Trazado 194455" d="M375.838,104.662a5.993,5.993,0,0,1-5.427,0c-1.5-.865-1.5-2.268,0-3.133a6,6,0,0,1,5.427,0C377.337,102.395,377.337,103.8,375.838,104.662Z" transform="translate(-369.287 -87.065)" fill="#5793ce"/>
          </g>
        </g>
      </g>
      <g id="Grupo_152014" data-name="Grupo 152014" transform="translate(49.244 59.704)">
        <path id="Trazado_194456" data-name="Trazado 194456" d="M409.883,151.375a.48.48,0,0,1-.479-.479V123.632a.479.479,0,0,1,.958,0V150.9A.479.479,0,0,1,409.883,151.375Z" transform="translate(-406.046 -107.672)" fill="#396caa"/>
        <g id="Grupo_152013" data-name="Grupo 152013">
          <g id="Grupo_152011" data-name="Grupo 152011" transform="translate(1.469 14.246)">
            <rect id="Rectángulo_45146" data-name="Rectángulo 45146" width="4.737" height="10.221" fill="#5793ce"/>
            <path id="Trazado_194457" data-name="Trazado 194457" d="M410.917,135.693a3.7,3.7,0,0,1-3.349,0,1.021,1.021,0,0,1,0-1.934,3.7,3.7,0,0,1,3.349,0A1.021,1.021,0,0,1,410.917,135.693Z" transform="translate(-406.874 -124.505)" fill="#5793ce"/>
          </g>
          <g id="Grupo_152012" data-name="Grupo 152012">
            <rect id="Rectángulo_45147" data-name="Rectángulo 45147" width="7.675" height="16.031" fill="#5793ce"/>
            <path id="Trazado_194458" data-name="Trazado 194458" d="M406.874,123.588v3.459a6.124,6.124,0,0,0,4.736,0v-3.459A6.131,6.131,0,0,0,406.874,123.588Z" transform="translate(-405.404 -107.662)" fill="#396caa"/>
            <path id="Trazado_194459" data-name="Trazado 194459" d="M411.456,124.7a6,6,0,0,1-5.427,0c-1.5-.865-1.5-2.269,0-3.134a6,6,0,0,1,5.427,0C412.955,122.436,412.955,123.839,411.456,124.7Z" transform="translate(-404.905 -107.106)" fill="#5793ce"/>
          </g>
        </g>
      </g>
      <g id="Grupo_152021" data-name="Grupo 152021">
        <g id="Grupo_152017" data-name="Grupo 152017">
          <path id="Trazado_194460" data-name="Trazado 194460" d="M443.96,131.835l10.291-6.061-9.8-12.232-2.577,4.21Z" transform="translate(-365.034 -45.531)" fill="#5793ce"/>
          <path id="Trazado_194461" data-name="Trazado 194461" d="M344.564,44.9l16.425-9.45s-.618,9.43-.618,9.45-9.435,2.922-9.435,2.922Z" transform="translate(-340.364 -25.733)" fill="#5793ce"/>
          <path id="Trazado_194462" data-name="Trazado 194462" d="M426.294,77.977a10.357,10.357,0,0,0-3.553-1.318c-1.656-8.7-7.712-17.945-14.933-22.114a14.612,14.612,0,0,0-6.111-2.068c-.985-10.549-8.32-22.538-17.227-27.68-4.653-2.686-8.874-3-11.989-1.359V23.43l-.152.087c-.079.044-.158.09-.236.137l-9.686,5.72,3.218,2.542c-2.889,1.262-4.715,4.5-4.715,9.291,0,8.832,6.2,19.572,13.849,23.988l51.533,36.8c5.744,3.316,10.4.628,10.4-6S432.039,81.292,426.294,77.977Z" transform="translate(-344.508 -22.432)" fill="#5793ce"/>
          <path id="Trazado_194463" data-name="Trazado 194463" d="M361.553,37.318,383.782,24.33c-4.315-2.251-8.215-2.437-11.139-.892V23.43l-.152.087c-.079.044-.158.09-.236.137l-9.686,5.72,3.218,2.542A7.764,7.764,0,0,0,361.553,37.318Z" transform="translate(-344.671 -22.432)" fill="#5793ce"/>
          <path id="Trazado_194464" data-name="Trazado 194464" d="M410.8,86.143l16.219-9.518a31.414,31.414,0,0,0-10.854-11.464q-.842-.486-1.661-.855l-20.63,12.065Z" transform="translate(-352.865 -33.048)" fill="#5793ce"/>
          <path id="Trazado_194465" data-name="Trazado 194465" d="M369.039,30.579l7.228,4.173,13.237-7.8a26.363,26.363,0,0,0-2.974-2.015A18.573,18.573,0,0,0,381.9,23Z" transform="translate(-346.569 -22.575)" fill="#d4ecff"/>
          <path id="Trazado_194466" data-name="Trazado 194466" d="M431.482,77.056l-12.945,7.628,4.5,5.022,11.752-6.939A37.725,37.725,0,0,0,431.482,77.056Z" transform="translate(-359.117 -36.281)" fill="#d4ecff"/>
          <path id="Trazado_194467" data-name="Trazado 194467" d="M410.555,86A10.352,10.352,0,0,0,407,84.682c-1.656-8.7-7.712-17.945-14.933-22.114a14.619,14.619,0,0,0-6.111-2.068c-.986-10.549-8.321-22.538-17.228-27.68-9.579-5.53-17.344-1.047-17.344,10.013,0,.375.01.753.028,1.134-7-3.249-12.477.412-12.477,8.709,0,8.832,6.2,19.571,13.849,23.987l57.768,33.353c5.744,3.316,10.4.628,10.4-6S416.3,89.315,410.555,86Z" transform="translate(-338.937 -24.465)" fill="#d4ecff"/>
          <g id="Grupo_152015" data-name="Grupo 152015" transform="translate(3.168 5.162)">
            <path id="Trazado_194468" data-name="Trazado 194468" d="M352.49,47.883c-.017-.381-.028-.759-.028-1.134,0-.016,0-.031,0-.047-3.87-1.5-7.2-.849-9.282,1.565C345.448,46.4,348.745,46.146,352.49,47.883Z" transform="translate(-343.181 -33.543)" fill="#fff"/>
            <path id="Trazado_194469" data-name="Trazado 194469" d="M416.932,84.895a10.349,10.349,0,0,0-3.553-1.317c-1.656-8.7-7.712-17.945-14.933-22.114a14.614,14.614,0,0,0-6.111-2.068c-.985-10.548-8.32-22.537-17.227-27.679-5.967-3.446-11.231-3-14.351.494,3.179-2.717,8.046-2.822,13.505.33,8.907,5.142,16.242,17.131,17.227,27.68a14.618,14.618,0,0,1,6.111,2.068c7.221,4.169,13.277,13.411,14.932,22.114a10.352,10.352,0,0,1,3.553,1.318c5.744,3.316,10.4,11.38,10.4,18.012a8.566,8.566,0,0,1-1.658,5.532c1.558-1.2,2.5-3.376,2.5-6.356C427.332,96.275,422.676,88.211,416.932,84.895Z" transform="translate(-347.637 -29.347)" fill="#fff"/>
          </g>
          <g id="Grupo_152016" data-name="Grupo 152016" transform="translate(2.904 8.882)">
            <path id="Trazado_194470" data-name="Trazado 194470" d="M351.179,47.585l4.342,2.013-.22-4.781c-.016-.336-.025-.67-.025-1,0-4.268,1.288-7.362,3.628-8.714s5.665-.919,9.361,1.215c7.95,4.59,14.885,15.763,15.789,25.435l.228,2.437,2.44.188a11.746,11.746,0,0,1,4.882,1.687c6.314,3.646,12,12.117,13.532,20.143l.382,2.009,2.02.317a7.52,7.52,0,0,1,2.552.964c4.85,2.8,8.948,9.9,8.948,15.5,0,2.1-.581,3.634-1.594,4.219s-2.635.32-4.451-.729L355.224,75.133c-6.72-3.879-12.4-13.714-12.4-21.473,0-3.046.9-5.365,2.463-6.365a4.219,4.219,0,0,1,2.3-.616A8.675,8.675,0,0,1,351.179,47.585Z" transform="translate(-342.827 -34.331)" fill="url(#radial-gradient)"/>
          </g>
        </g>
        <g id="Grupo_152020" data-name="Grupo 152020" transform="translate(27.489 36.953)">
          <path id="Trazado_194471" data-name="Trazado 194471" d="M392.64,99.942l1.524-.765-1.5-1.137Z" transform="translate(-380.04 -78.553)" fill="#5793ce"/>
          <path id="Trazado_194472" data-name="Trazado 194472" d="M386.508,72.757l1.479-.748.027.774Z" transform="translate(-378.486 -71.954)" fill="#5793ce"/>
          <path id="Trazado_194473" data-name="Trazado 194473" d="M397.978,92.918l1.544-.776-2.972-2.826Z" transform="translate(-381.032 -76.341)" fill="#5793ce"/>
          <g id="Grupo_152018" data-name="Grupo 152018" transform="translate(1.547)">
            <path id="Trazado_194474" data-name="Trazado 194474" d="M391.409,94.805l-7.215-4.249a1.541,1.541,0,0,1-.661-1.213l.024-8.353,8.541,5.031-.024,8.352C392.073,94.827,391.775,95.021,391.409,94.805Z" transform="translate(-379.279 -74.231)" fill="#5793ce"/>
            <path id="Trazado_194475" data-name="Trazado 194475" d="M385.773,72l-7.792,5.014c-.331.213-.063,1.006.439,1.3L386.378,83l7.958,4.687c.5.3.773-.181.445-.782l-7.738-14.161C386.708,72.135,386.11,71.783,385.773,72Z" transform="translate(-377.834 -71.935)" fill="#5793ce"/>
          </g>
          <g id="Grupo_152019" data-name="Grupo 152019" transform="translate(0 0.779)">
            <path id="Trazado_194476" data-name="Trazado 194476" d="M389.336,95.849l-7.215-4.25a1.535,1.535,0,0,1-.661-1.213l.023-8.352,8.541,5.03L390,95.417C390,95.871,389.7,96.065,389.336,95.849Z" transform="translate(-377.206 -75.274)" fill="#d4ecff"/>
            <path id="Trazado_194477" data-name="Trazado 194477" d="M383.7,73.042l-7.792,5.015c-.331.213-.063,1.006.439,1.3l7.958,4.688,7.959,4.687c.5.3.773-.181.444-.782L384.97,73.79C384.636,73.179,384.036,72.826,383.7,73.042Z" transform="translate(-375.761 -72.978)" fill="#d4ecff"/>
          </g>
        </g>
      </g>
      <path id="Trazado_194478" data-name="Trazado 194478" d="M372.953,112.308c0,.47-.33.661-.738.425a1.63,1.63,0,0,1-.737-1.277c0-.47.33-.661.737-.425A1.629,1.629,0,0,1,372.953,112.308Z" transform="translate(-347.187 -44.869)" fill="#d4ecff"/>
      <path id="Trazado_194479" data-name="Trazado 194479" d="M408.655,132.641c0,.47-.33.661-.738.425a1.63,1.63,0,0,1-.737-1.277c0-.47.33-.661.737-.425A1.629,1.629,0,0,1,408.655,132.641Z" transform="translate(-356.238 -50.023)" fill="#d4ecff"/>
    </g>
    <g id="Grupo_152027" data-name="Grupo 152027" transform="translate(12.903 57.506)">
      <path id="Trazado_194480" data-name="Trazado 194480" d="M296.083,320.543l-82.9-47.864c-2.345-1.354-2.051-3.719.657-5.283l56.451-32.581c2.707-1.563,6.8-1.733,9.15-.379l82.9,47.864c2.345,1.354,2.051,3.719-.657,5.283l-56.45,32.581C302.525,321.727,298.428,321.9,296.083,320.543Z" transform="translate(-210.626 -133.454)" fill="#7dc3ea"/>
      <path id="Trazado_194481" data-name="Trazado 194481" d="M299.737,309.837a9.079,9.079,0,0,1-4.47-1.048l-82.9-47.864a3.654,3.654,0,0,1-2.069-3.136c0-1.433.994-2.829,2.725-3.829l56.451-32.581c3.022-1.745,7.468-1.912,10.121-.379l82.9,47.864A3.657,3.657,0,0,1,364.564,272c0,1.433-.993,2.829-2.725,3.829l-56.451,32.581A11.566,11.566,0,0,1,299.737,309.837ZM275.146,221.9a9.718,9.718,0,0,0-4.7,1.16l-56.451,32.581c-1.1.634-1.753,1.437-1.753,2.147a1.863,1.863,0,0,0,1.1,1.453l82.9,47.864c2.039,1.178,5.784,1,8.178-.379l56.451-32.581c1.1-.634,1.754-1.436,1.754-2.147a1.863,1.863,0,0,0-1.1-1.453l-82.9-47.864A7.12,7.12,0,0,0,275.146,221.9Z" transform="translate(-210.296 -130.014)" fill="#fff"/>
      <g id="Grupo_152026" data-name="Grupo 152026" transform="translate(0.971)">
        <path id="Trazado_194482" data-name="Trazado 194482" d="M406.759,147.845l-82.9-47.864a3.345,3.345,0,0,0-2.809-.344l.005-.009-.151.057-.037.014-3,1.147,2.689,1.316c-.012.05-.027.1-.038.146L305.87,168.924c-.676,3.076.678,6.668,3.023,8.022L389.8,223.658l-.288,3.429,3.274-1.269a4.6,4.6,0,0,0,2.345-3.335l14.648-66.616C410.457,152.79,409.1,149.2,406.759,147.845Z" transform="translate(-235.453 -99.469)" fill="#173d7a"/>
        <path id="Trazado_194483" data-name="Trazado 194483" d="M408.381,147.845l-82.9-47.864a3.345,3.345,0,0,0-2.809-.344l.005-.009-.151.057-.037.014-3,1.147,2.689,1.316c-.012.05-.027.1-.038.146L312.1,147.967l40.563,31.6L411,151.148A6.438,6.438,0,0,0,408.381,147.845Z" transform="translate(-237.076 -99.469)" fill="#396caa"/>
        <path id="Trazado_194484" data-name="Trazado 194484" d="M434.776,173.873l6.311-2.687a7.907,7.907,0,0,0-2.557-6.32l-9.989,4.2Z" transform="translate(-266.597 -116.049)" fill="#274f89"/>
        <path id="Trazado_194485" data-name="Trazado 194485" d="M384.88,227.154l-82.9-47.864c-2.345-1.354-3.7-4.945-3.022-8.022L313.6,104.652c.676-3.076,3.125-4.472,5.47-3.118l82.9,47.863c2.345,1.354,3.7,4.945,3.023,8.022L390.35,224.036C389.674,227.112,387.225,228.508,384.88,227.154Z" transform="translate(-233.7 -99.861)" fill="url(#radial-gradient-2)"/>
        <path id="Trazado_194486" data-name="Trazado 194486" d="M408.825,149.01l-82.9-47.863a3.275,3.275,0,0,0-3.264-.142,3.407,3.407,0,0,1,2.469.433l82.9,47.863c2.345,1.354,3.7,4.946,3.023,8.022L396.4,223.938a4.668,4.668,0,0,1-2.206,3.26,4.273,4.273,0,0,0,3-3.551l14.648-66.616C412.523,153.955,411.17,150.364,408.825,149.01Z" transform="translate(-239.753 -99.764)" fill="#fff"/>
        <path id="Trazado_194487" data-name="Trazado 194487" d="M384.24,224.112l-77.968-44.993c-2.146-1.239-3.385-4.525-2.766-7.34l13.5-61.4c.619-2.815,2.86-4.093,5.006-2.854l77.968,44.993c2.146,1.239,3.385,4.525,2.766,7.34l-13.5,61.4C388.627,224.074,386.387,225.352,384.24,224.112Z" transform="translate(-234.858 -101.392)" fill="#fff"/>
        <path id="Trazado_194488" data-name="Trazado 194488" d="M384.24,224.112l-77.968-44.993c-2.146-1.239-3.385-4.525-2.766-7.34l13.5-61.4c.619-2.815,2.86-4.093,5.006-2.854l77.968,44.993c2.146,1.239,3.385,4.525,2.766,7.34l-13.5,61.4C388.627,224.074,386.387,225.352,384.24,224.112Z" transform="translate(-234.858 -101.392)" fill="url(#radial-gradient-3)"/>
        <path id="Trazado_194489" data-name="Trazado 194489" d="M384.92,223.866l-77.969-44.993c-2.146-1.238-3.384-4.525-2.766-7.339l13.5-61.4a4.315,4.315,0,0,1,1.964-2.961,3.969,3.969,0,0,0-2.644,3.237l-13.5,61.4c-.618,2.816.62,6.1,2.766,7.341l77.968,44.993a3,3,0,0,0,3.041.107A3.107,3.107,0,0,1,384.92,223.866Z" transform="translate(-234.858 -101.423)" fill="#5793ce"/>
        <path id="Trazado_194490" data-name="Trazado 194490" d="M363.923,257.623l-11.332-1.5-73.152-42.234c-2.345-1.354-6.442-1.185-9.15.379l-51.835,29.916-6.853-.9v3.888l.007,0a2.67,2.67,0,0,0,1.574,2.4l82.9,47.864c2.345,1.353,6.441,1.184,9.15-.379l56.45-32.581c1.524-.879,2.283-2.013,2.239-3.076h0Z" transform="translate(-211.598 -128.246)" fill="#173d7a"/>
        <path id="Trazado_194491" data-name="Trazado 194491" d="M308.959,236.016l-5.2-3H246.623l-28.169,16.252-6.853-.9v3.888h.007a2.67,2.67,0,0,0,1.574,2.4l82.9,47.864a8.578,8.578,0,0,0,4.721.885Z" transform="translate(-211.598 -133.326)" fill="#396caa"/>
        <path id="Trazado_194492" data-name="Trazado 194492" d="M214.642,253.977l-3.041-.4v3.888l.007,0a2.67,2.67,0,0,0,1.574,2.4l1.461.844Z" transform="translate(-211.598 -138.538)" fill="#5793ce"/>
        <path id="Trazado_194493" data-name="Trazado 194493" d="M325.895,323.532a10.617,10.617,0,0,0,7.775-.482v-8.673h-7.775Z" transform="translate(-240.574 -153.953)" fill="#274f89"/>
        <path id="Trazado_194494" data-name="Trazado 194494" d="M296.083,291.365,213.18,243.5c-2.345-1.354-2.051-3.72.657-5.283l56.451-32.581c2.707-1.564,6.8-1.733,9.15-.379l82.9,47.863c2.345,1.354,2.051,3.72-.657,5.283l-56.45,32.581C302.525,292.549,298.428,292.719,296.083,291.365Z" transform="translate(-211.597 -126.057)" fill="url(#radial-gradient-4)"/>
        <path id="Trazado_194495" data-name="Trazado 194495" d="M361.684,269.26l-56.45,32.581c-2.708,1.563-6.8,1.733-9.15.379l-82.9-47.864a3.083,3.083,0,0,1-1.458-1.595c-.367,1.109.1,2.231,1.458,3.015l82.9,47.863c2.345,1.354,6.441,1.185,9.15-.379l56.45-32.581c1.821-1.051,2.545-2.463,2.116-3.688A4.412,4.412,0,0,1,361.684,269.26Z" transform="translate(-211.599 -138.332)" fill="#fff"/>
        <g id="Grupo_152023" data-name="Grupo 152023" transform="translate(32.889 81.235)">
          <path id="Trazado_194496" data-name="Trazado 194496" d="M259.61,233.682l-3.751-2.166c-.3-.174-.263-.478.084-.679l4.427-2.556a1.306,1.306,0,0,1,1.175-.049L265.3,230.4c.3.174.264.478-.084.679l-4.427,2.556A1.306,1.306,0,0,1,259.61,233.682Z" transform="translate(-255.655 -213.318)" fill="#5793ce"/>
          <path id="Trazado_194497" data-name="Trazado 194497" d="M267.37,238.162,263.619,236c-.3-.174-.264-.478.084-.679l4.427-2.556a1.306,1.306,0,0,1,1.175-.049l3.751,2.166c.3.174.263.478-.084.679l-4.427,2.556A1.306,1.306,0,0,1,267.37,238.162Z" transform="translate(-257.623 -214.454)" fill="#5793ce"/>
          <path id="Trazado_194498" data-name="Trazado 194498" d="M275.13,242.642l-3.751-2.166c-.3-.174-.264-.478.084-.679l4.427-2.557a1.306,1.306,0,0,1,1.175-.049l3.751,2.166c.3.174.263.478-.084.679l-4.427,2.556A1.306,1.306,0,0,1,275.13,242.642Z" transform="translate(-259.59 -215.59)" fill="#5793ce"/>
          <path id="Trazado_194499" data-name="Trazado 194499" d="M285.862,239.082l-3.751-2.166c-.3-.174-.263-.478.084-.679l3.717-2.146a1.306,1.306,0,0,1,1.175-.049l3.751,2.166c.3.174.263.478-.084.679l-3.717,2.145A1.306,1.306,0,0,1,285.862,239.082Z" transform="translate(-262.311 -214.791)" fill="#5793ce"/>
          <path id="Trazado_194500" data-name="Trazado 194500" d="M293.622,243.562l-3.751-2.166c-.3-.174-.263-.478.085-.679l3.716-2.146a1.306,1.306,0,0,1,1.175-.049l3.751,2.166c.3.174.264.478-.084.679l-3.717,2.146A1.305,1.305,0,0,1,293.622,243.562Z" transform="translate(-264.278 -215.927)" fill="#5793ce"/>
          <path id="Trazado_194501" data-name="Trazado 194501" d="M301.382,248.042l-3.751-2.166c-.3-.174-.263-.478.085-.679l3.716-2.145a1.308,1.308,0,0,1,1.175-.049l3.751,2.166c.3.174.263.477-.084.678l-3.716,2.146A1.307,1.307,0,0,1,301.382,248.042Z" transform="translate(-266.246 -217.063)" fill="#5793ce"/>
          <path id="Trazado_194502" data-name="Trazado 194502" d="M309.142,252.522l-3.75-2.166c-.3-.174-.263-.477.084-.678l3.717-2.146a1.3,1.3,0,0,1,1.174-.048l3.751,2.166c.3.174.264.478-.084.679l-3.716,2.145A1.307,1.307,0,0,1,309.142,252.522Z" transform="translate(-268.213 -218.199)" fill="#5793ce"/>
          <path id="Trazado_194503" data-name="Trazado 194503" d="M316.9,257l-3.751-2.166c-.3-.174-.263-.478.084-.679l3.716-2.146a1.307,1.307,0,0,1,1.176-.049l3.75,2.166c.3.174.264.478-.084.679l-3.716,2.146A1.308,1.308,0,0,1,316.9,257Z" transform="translate(-270.18 -219.335)" fill="#5793ce"/>
          <path id="Trazado_194504" data-name="Trazado 194504" d="M324.663,261.483l-3.751-2.165c-.3-.174-.263-.478.084-.679l3.717-2.145a1.306,1.306,0,0,1,1.175-.049l3.751,2.165c.3.174.263.478-.084.679l-3.717,2.146A1.306,1.306,0,0,1,324.663,261.483Z" transform="translate(-272.148 -220.47)" fill="#5793ce"/>
          <path id="Trazado_194505" data-name="Trazado 194505" d="M332.423,265.963l-3.751-2.166c-.3-.174-.264-.478.084-.679l3.717-2.145a1.306,1.306,0,0,1,1.175-.049l3.751,2.165c.3.174.264.477-.084.678l-3.717,2.146A1.306,1.306,0,0,1,332.423,265.963Z" transform="translate(-274.115 -221.606)" fill="#5793ce"/>
          <path id="Trazado_194506" data-name="Trazado 194506" d="M340.183,270.444l-3.751-2.166c-.3-.174-.263-.477.084-.678l3.717-2.146a1.306,1.306,0,0,1,1.175-.049l3.751,2.166c.3.174.264.478-.084.679l-3.717,2.145A1.308,1.308,0,0,1,340.183,270.444Z" transform="translate(-276.082 -222.742)" fill="#5793ce"/>
          <path id="Trazado_194507" data-name="Trazado 194507" d="M347.943,274.924l-3.751-2.166c-.3-.174-.263-.478.084-.679l3.717-2.146a1.306,1.306,0,0,1,1.175-.049l3.751,2.166c.3.174.263.478-.084.679l-3.717,2.146A1.306,1.306,0,0,1,347.943,274.924Z" transform="translate(-278.05 -223.878)" fill="#5793ce"/>
          <path id="Trazado_194508" data-name="Trazado 194508" d="M355.7,279.4l-3.751-2.166c-.3-.174-.264-.478.084-.679l3.717-2.145a1.306,1.306,0,0,1,1.175-.049l3.751,2.166c.3.174.263.478-.084.679l-3.717,2.146A1.306,1.306,0,0,1,355.7,279.4Z" transform="translate(-280.017 -225.014)" fill="#5793ce"/>
          <path id="Trazado_194509" data-name="Trazado 194509" d="M297.3,236.961l-3.751-2.166c-.3-.174-.263-.477.084-.678l3.717-2.146a1.306,1.306,0,0,1,1.175-.048l3.751,2.166c.3.174.263.478-.084.679l-3.717,2.145A1.306,1.306,0,0,1,297.3,236.961Z" transform="translate(-265.21 -214.253)" fill="#5793ce"/>
          <path id="Trazado_194510" data-name="Trazado 194510" d="M289.42,232.413l-3.75-2.166c-.3-.174-.264-.478.084-.679l3.717-2.145a1.306,1.306,0,0,1,1.175-.049l3.751,2.166c.3.174.264.478-.084.679l-3.717,2.145A1.306,1.306,0,0,1,289.42,232.413Z" transform="translate(-263.213 -213.101)" fill="#5793ce"/>
          <path id="Trazado_194511" data-name="Trazado 194511" d="M280.062,227.01l-8.079-4.664c-.3-.174-.263-.478.084-.679l3.717-2.146a1.306,1.306,0,0,1,1.175-.049l8.079,4.664c.3.174.264.478-.084.679l-3.717,2.146A1.306,1.306,0,0,1,280.062,227.01Z" transform="translate(-259.743 -211.097)" fill="#5793ce"/>
          <path id="Trazado_194512" data-name="Trazado 194512" d="M286.093,221.77l-6.556-3.785c-.3-.174-.263-.478.084-.679l3.717-2.145a1.306,1.306,0,0,1,1.175-.049l6.556,3.785c.3.174.263.478-.084.679l-3.717,2.146A1.306,1.306,0,0,1,286.093,221.77Z" transform="translate(-261.658 -209.992)" fill="#5793ce"/>
          <path id="Trazado_194513" data-name="Trazado 194513" d="M305.056,241.441l-3.751-2.166c-.3-.174-.264-.478.084-.679l3.717-2.146a1.306,1.306,0,0,1,1.175-.049l3.751,2.166c.3.174.263.478-.084.679l-3.717,2.146A1.305,1.305,0,0,1,305.056,241.441Z" transform="translate(-267.177 -215.389)" fill="#5793ce"/>
          <path id="Trazado_194514" data-name="Trazado 194514" d="M312.816,245.921l-3.751-2.166c-.3-.174-.263-.478.085-.679l3.716-2.145a1.306,1.306,0,0,1,1.175-.049l3.751,2.166c.3.174.264.478-.084.679l-3.717,2.146A1.306,1.306,0,0,1,312.816,245.921Z" transform="translate(-269.145 -216.525)" fill="#5793ce"/>
          <path id="Trazado_194515" data-name="Trazado 194515" d="M320.576,250.4l-3.751-2.166c-.3-.174-.263-.478.085-.679l3.716-2.145a1.307,1.307,0,0,1,1.176-.049l3.75,2.166c.3.174.264.478-.084.679l-3.717,2.145A1.306,1.306,0,0,1,320.576,250.4Z" transform="translate(-271.112 -217.661)" fill="#5793ce"/>
          <path id="Trazado_194516" data-name="Trazado 194516" d="M328.336,254.882l-3.751-2.166c-.3-.173-.263-.477.085-.678l3.717-2.146a1.306,1.306,0,0,1,1.175-.049l3.751,2.166c.3.174.263.478-.085.679l-3.716,2.145A1.307,1.307,0,0,1,328.336,254.882Z" transform="translate(-273.079 -218.797)" fill="#5793ce"/>
          <path id="Trazado_194517" data-name="Trazado 194517" d="M336.1,259.362l-3.751-2.166c-.3-.174-.264-.478.084-.679l3.717-2.146a1.305,1.305,0,0,1,1.175-.049l3.751,2.166c.3.174.263.478-.085.679l-3.716,2.146A1.306,1.306,0,0,1,336.1,259.362Z" transform="translate(-275.047 -219.933)" fill="#5793ce"/>
          <path id="Trazado_194518" data-name="Trazado 194518" d="M343.857,263.842l-3.751-2.166c-.3-.174-.264-.478.084-.679l3.717-2.145a1.306,1.306,0,0,1,1.175-.049l3.751,2.166c.3.173.263.477-.084.678l-3.717,2.146A1.306,1.306,0,0,1,343.857,263.842Z" transform="translate(-277.014 -221.069)" fill="#5793ce"/>
          <path id="Trazado_194519" data-name="Trazado 194519" d="M351.617,268.322l-3.751-2.166c-.3-.174-.263-.478.084-.678l3.717-2.145a1.306,1.306,0,0,1,1.175-.049l3.751,2.166c.3.174.264.478-.084.679l-3.717,2.145A1.306,1.306,0,0,1,351.617,268.322Z" transform="translate(-278.981 -222.204)" fill="#5793ce"/>
          <path id="Trazado_194520" data-name="Trazado 194520" d="M359.377,272.8l-3.751-2.166c-.3-.174-.264-.478.084-.679l3.717-2.146a1.306,1.306,0,0,1,1.175-.049l3.751,2.166c.3.174.264.478-.084.679l-3.717,2.145A1.306,1.306,0,0,1,359.377,272.8Z" transform="translate(-280.949 -223.34)" fill="#5793ce"/>
          <path id="Trazado_194521" data-name="Trazado 194521" d="M367.137,277.283l-3.751-2.166c-.3-.174-.263-.478.084-.679l3.717-2.146a1.306,1.306,0,0,1,1.175-.048l3.751,2.166c.3.174.263.478-.084.678l-3.717,2.146A1.306,1.306,0,0,1,367.137,277.283Z" transform="translate(-282.916 -224.476)" fill="#5793ce"/>
          <path id="Trazado_194522" data-name="Trazado 194522" d="M379.426,284.379l-8.184-4.725c-.3-.174-.264-.478.084-.679l3.717-2.146a1.306,1.306,0,0,1,1.175-.049l8.184,4.725c.3.174.263.478-.084.679L380.6,284.33A1.306,1.306,0,0,1,379.426,284.379Z" transform="translate(-284.908 -225.626)" fill="#5793ce"/>
          <path id="Trazado_194523" data-name="Trazado 194523" d="M394.968,275.906l-6.908-3.988c-.3-.174-.263-.478.084-.679l3.717-2.146a1.306,1.306,0,0,1,1.175-.049l6.908,3.988c.3.174.263.478-.084.679l-3.717,2.145A1.306,1.306,0,0,1,394.968,275.906Z" transform="translate(-289.171 -223.665)" fill="#5793ce"/>
          <path id="Trazado_194524" data-name="Trazado 194524" d="M318.646,240.564l-3.751-2.166c-.3-.174-.263-.478.084-.679l3.717-2.145a1.308,1.308,0,0,1,1.175-.049l3.751,2.166c.3.174.263.477-.084.678l-3.717,2.146A1.306,1.306,0,0,1,318.646,240.564Z" transform="translate(-270.622 -215.167)" fill="#5793ce"/>
          <path id="Trazado_194525" data-name="Trazado 194525" d="M310.693,235.973l-3.751-2.166c-.3-.174-.263-.477.084-.678l3.717-2.146a1.306,1.306,0,0,1,1.175-.049l3.751,2.166c.3.174.263.478-.084.679l-3.717,2.145A1.308,1.308,0,0,1,310.693,235.973Z" transform="translate(-268.606 -214.003)" fill="#5793ce"/>
          <path id="Trazado_194526" data-name="Trazado 194526" d="M302.74,231.381l-3.751-2.166c-.3-.174-.264-.478.084-.679l3.717-2.146a1.306,1.306,0,0,1,1.175-.049l3.751,2.166c.3.174.263.478-.084.679l-3.717,2.146A1.306,1.306,0,0,1,302.74,231.381Z" transform="translate(-266.59 -212.839)" fill="#5793ce"/>
          <path id="Trazado_194527" data-name="Trazado 194527" d="M294.787,226.789l-3.751-2.166c-.3-.174-.263-.478.084-.679l3.717-2.145a1.306,1.306,0,0,1,1.175-.049l3.751,2.166c.3.174.263.478-.084.679l-3.717,2.146A1.306,1.306,0,0,1,294.787,226.789Z" transform="translate(-264.574 -211.675)" fill="#5793ce"/>
          <path id="Trazado_194528" data-name="Trazado 194528" d="M326.406,245.044l-3.751-2.166c-.3-.174-.263-.477.084-.678l3.717-2.146a1.306,1.306,0,0,1,1.175-.048l3.751,2.166c.3.174.263.478-.084.679L327.581,245A1.306,1.306,0,0,1,326.406,245.044Z" transform="translate(-272.59 -216.303)" fill="#5793ce"/>
          <path id="Trazado_194529" data-name="Trazado 194529" d="M334.166,249.525l-3.751-2.166c-.3-.174-.263-.478.084-.679l3.717-2.146a1.306,1.306,0,0,1,1.175-.049l3.751,2.166c.3.174.264.478-.084.679l-3.717,2.146A1.308,1.308,0,0,1,334.166,249.525Z" transform="translate(-274.557 -217.439)" fill="#5793ce"/>
          <path id="Trazado_194530" data-name="Trazado 194530" d="M341.926,254l-3.751-2.165c-.3-.174-.263-.478.084-.679l3.717-2.145a1.306,1.306,0,0,1,1.175-.049l3.751,2.166c.3.174.264.478-.084.679l-3.717,2.146A1.306,1.306,0,0,1,341.926,254Z" transform="translate(-276.525 -218.575)" fill="#5793ce"/>
          <path id="Trazado_194531" data-name="Trazado 194531" d="M349.686,258.485l-3.751-2.166c-.3-.174-.264-.478.084-.679l3.717-2.145a1.306,1.306,0,0,1,1.175-.049l3.751,2.166c.3.174.264.477-.084.678l-3.717,2.146A1.306,1.306,0,0,1,349.686,258.485Z" transform="translate(-278.492 -219.711)" fill="#5793ce"/>
          <path id="Trazado_194532" data-name="Trazado 194532" d="M357.446,262.966l-3.751-2.166c-.3-.174-.263-.477.084-.678l3.717-2.146a1.306,1.306,0,0,1,1.175-.049l3.751,2.166c.3.174.264.478-.084.679l-3.717,2.145A1.308,1.308,0,0,1,357.446,262.966Z" transform="translate(-280.459 -220.846)" fill="#5793ce"/>
          <path id="Trazado_194533" data-name="Trazado 194533" d="M365.206,267.446l-3.751-2.166c-.3-.174-.264-.478.084-.679l3.717-2.146a1.306,1.306,0,0,1,1.175-.049l3.751,2.166c.3.174.263.478-.084.679l-3.717,2.146A1.305,1.305,0,0,1,365.206,267.446Z" transform="translate(-282.426 -221.982)" fill="#5793ce"/>
          <path id="Trazado_194534" data-name="Trazado 194534" d="M372.966,271.926l-3.751-2.166c-.3-.174-.263-.478.084-.679l3.717-2.145a1.306,1.306,0,0,1,1.175-.049l3.751,2.165c.3.174.264.478-.084.679l-3.717,2.146A1.306,1.306,0,0,1,372.966,271.926Z" transform="translate(-284.394 -223.118)" fill="#5793ce"/>
          <path id="Trazado_194535" data-name="Trazado 194535" d="M380.726,276.406l-3.751-2.166c-.3-.174-.263-.478.084-.679l3.717-2.145a1.306,1.306,0,0,1,1.175-.049l3.751,2.166c.3.174.264.478-.084.679l-3.717,2.145A1.306,1.306,0,0,1,380.726,276.406Z" transform="translate(-286.361 -224.254)" fill="#5793ce"/>
          <path id="Trazado_194536" data-name="Trazado 194536" d="M388.486,280.887l-3.751-2.166c-.3-.173-.263-.477.084-.678l3.717-2.146a1.306,1.306,0,0,1,1.175-.049l3.751,2.166c.3.174.263.478-.084.679l-3.717,2.145A1.306,1.306,0,0,1,388.486,280.887Z" transform="translate(-288.329 -225.39)" fill="#5793ce"/>
          <path id="Trazado_194537" data-name="Trazado 194537" d="M314.56,229.483l-3.751-2.166c-.3-.174-.264-.477.084-.678l3.717-2.146a1.306,1.306,0,0,1,1.175-.049l3.751,2.166c.3.174.264.478-.084.679l-3.717,2.145A1.306,1.306,0,0,1,314.56,229.483Z" transform="translate(-269.586 -212.358)" fill="#5793ce"/>
          <path id="Trazado_194538" data-name="Trazado 194538" d="M306.838,225.025l-3.751-2.166c-.3-.174-.263-.477.084-.678l3.717-2.146a1.306,1.306,0,0,1,1.175-.049l3.751,2.166c.3.174.264.478-.084.679l-3.717,2.145A1.306,1.306,0,0,1,306.838,225.025Z" transform="translate(-267.629 -211.227)" fill="#5793ce"/>
          <path id="Trazado_194539" data-name="Trazado 194539" d="M299.117,220.567l-3.751-2.166c-.3-.173-.264-.477.084-.678l3.717-2.146a1.306,1.306,0,0,1,1.175-.049l3.751,2.166c.3.174.263.478-.084.679l-3.717,2.145A1.306,1.306,0,0,1,299.117,220.567Z" transform="translate(-265.671 -210.097)" fill="#5793ce"/>
          <path id="Trazado_194540" data-name="Trazado 194540" d="M291.4,216.109l-3.751-2.166c-.3-.173-.263-.477.084-.678l3.717-2.146a1.306,1.306,0,0,1,1.175-.049l3.751,2.166c.3.174.264.478-.084.679l-3.716,2.145A1.307,1.307,0,0,1,291.4,216.109Z" transform="translate(-263.714 -208.967)" fill="#5793ce"/>
          <path id="Trazado_194541" data-name="Trazado 194541" d="M299.335,212.012l-3.751-2.166c-.3-.174-.263-.477.084-.678l1.229-.71a1.306,1.306,0,0,1,1.175-.049l3.751,2.166c.3.174.264.478-.084.679l-1.229.709A1.306,1.306,0,0,1,299.335,212.012Z" transform="translate(-265.727 -208.293)" fill="#5793ce"/>
          <path id="Trazado_194542" data-name="Trazado 194542" d="M309.412,217.83l-3.751-2.166c-.3-.174-.264-.478.084-.679l1.229-.709a1.306,1.306,0,0,1,1.175-.049l3.751,2.166c.3.174.263.478-.084.679l-1.229.709A1.306,1.306,0,0,1,309.412,217.83Z" transform="translate(-268.281 -209.768)" fill="#5793ce"/>
          <path id="Trazado_194543" data-name="Trazado 194543" d="M317.1,222.27,313.35,220.1c-.3-.174-.264-.477.084-.678l1.229-.71a1.306,1.306,0,0,1,1.175-.049l3.751,2.166c.3.174.264.478-.084.679l-1.229.709A1.308,1.308,0,0,1,317.1,222.27Z" transform="translate(-270.231 -210.893)" fill="#5793ce"/>
          <path id="Trazado_194544" data-name="Trazado 194544" d="M324.79,226.709l-3.751-2.166c-.3-.174-.263-.478.085-.679l1.228-.709a1.308,1.308,0,0,1,1.175-.049l3.751,2.166c.3.174.264.478-.084.678l-1.229.71A1.306,1.306,0,0,1,324.79,226.709Z" transform="translate(-272.18 -212.019)" fill="#5793ce"/>
          <path id="Trazado_194545" data-name="Trazado 194545" d="M332.48,231.148l-3.751-2.166c-.3-.174-.263-.478.084-.679l1.229-.709a1.305,1.305,0,0,1,1.175-.049l3.751,2.166c.3.174.263.478-.084.679l-1.229.709A1.306,1.306,0,0,1,332.48,231.148Z" transform="translate(-274.13 -213.144)" fill="#5793ce"/>
          <path id="Trazado_194546" data-name="Trazado 194546" d="M375.408,255.933l-3.751-2.166c-.3-.174-.264-.478.084-.679l1.229-.709a1.306,1.306,0,0,1,1.175-.049L377.9,254.5c.3.173.263.477-.084.678l-1.229.71A1.306,1.306,0,0,1,375.408,255.933Z" transform="translate(-285.013 -219.427)" fill="#5793ce"/>
          <path id="Trazado_194547" data-name="Trazado 194547" d="M383.1,260.372l-3.751-2.165c-.3-.174-.263-.478.084-.679l1.229-.709a1.306,1.306,0,0,1,1.175-.049l3.751,2.166c.3.174.264.478-.084.679l-1.229.709A1.306,1.306,0,0,1,383.1,260.372Z" transform="translate(-286.962 -220.553)" fill="#5793ce"/>
          <path id="Trazado_194548" data-name="Trazado 194548" d="M390.786,264.812l-3.751-2.166c-.3-.173-.264-.477.084-.678l1.229-.71a1.306,1.306,0,0,1,1.175-.049l3.751,2.166c.3.174.263.478-.084.679l-1.229.709A1.306,1.306,0,0,1,390.786,264.812Z" transform="translate(-288.912 -221.678)" fill="#5793ce"/>
          <path id="Trazado_194549" data-name="Trazado 194549" d="M398.476,269.251l-3.752-2.166c-.3-.174-.263-.478.085-.679l1.229-.709a1.3,1.3,0,0,1,1.174-.049l3.751,2.165c.3.174.263.478-.084.679l-1.228.709A1.306,1.306,0,0,1,398.476,269.251Z" transform="translate(-290.861 -222.804)" fill="#5793ce"/>
          <path id="Trazado_194550" data-name="Trazado 194550" d="M322.32,233.963l-3.751-2.166c-.3-.174-.263-.478.084-.679l3.717-2.146a1.306,1.306,0,0,1,1.175-.049l3.751,2.166c.3.174.263.478-.084.679l-3.717,2.146A1.306,1.306,0,0,1,322.32,233.963Z" transform="translate(-271.554 -213.493)" fill="#5793ce"/>
          <path id="Trazado_194551" data-name="Trazado 194551" d="M330.08,238.443l-3.751-2.166c-.3-.174-.264-.478.084-.679l3.717-2.145a1.306,1.306,0,0,1,1.175-.049l3.751,2.166c.3.174.264.478-.084.679l-3.717,2.146A1.306,1.306,0,0,1,330.08,238.443Z" transform="translate(-273.521 -214.629)" fill="#5793ce"/>
          <path id="Trazado_194552" data-name="Trazado 194552" d="M337.84,242.923l-3.751-2.166c-.3-.174-.264-.478.084-.679l3.717-2.145a1.306,1.306,0,0,1,1.175-.049l3.751,2.166c.3.174.264.478-.084.679l-3.717,2.145A1.306,1.306,0,0,1,337.84,242.923Z" transform="translate(-275.489 -215.765)" fill="#5793ce"/>
          <path id="Trazado_194553" data-name="Trazado 194553" d="M345.6,247.4l-3.751-2.166c-.3-.173-.264-.477.084-.678l3.717-2.146a1.306,1.306,0,0,1,1.175-.049l3.751,2.166c.3.174.263.478-.084.679l-3.717,2.145A1.306,1.306,0,0,1,345.6,247.4Z" transform="translate(-277.456 -216.901)" fill="#5793ce"/>
          <path id="Trazado_194554" data-name="Trazado 194554" d="M353.36,251.884l-3.751-2.166c-.3-.174-.264-.478.084-.679l3.717-2.146a1.306,1.306,0,0,1,1.175-.049l3.751,2.166c.3.174.264.478-.084.679l-3.717,2.146A1.306,1.306,0,0,1,353.36,251.884Z" transform="translate(-279.423 -218.037)" fill="#5793ce"/>
          <path id="Trazado_194555" data-name="Trazado 194555" d="M361.12,256.364l-3.751-2.165c-.3-.174-.263-.478.084-.679l3.717-2.145a1.306,1.306,0,0,1,1.175-.049l3.751,2.166c.3.173.263.477-.084.678l-3.717,2.146A1.306,1.306,0,0,1,361.12,256.364Z" transform="translate(-281.391 -219.173)" fill="#5793ce"/>
          <path id="Trazado_194556" data-name="Trazado 194556" d="M368.88,260.844l-3.751-2.166c-.3-.174-.263-.478.084-.679l3.717-2.145a1.306,1.306,0,0,1,1.175-.048l3.751,2.165c.3.174.264.478-.084.679l-3.717,2.145A1.306,1.306,0,0,1,368.88,260.844Z" transform="translate(-283.358 -220.309)" fill="#5793ce"/>
          <path id="Trazado_194557" data-name="Trazado 194557" d="M376.64,265.325l-3.751-2.166c-.3-.174-.263-.478.084-.679l3.717-2.146a1.306,1.306,0,0,1,1.175-.049l3.751,2.166c.3.174.264.478-.084.679l-3.717,2.145A1.306,1.306,0,0,1,376.64,265.325Z" transform="translate(-285.325 -221.444)" fill="#5793ce"/>
          <path id="Trazado_194558" data-name="Trazado 194558" d="M384.4,269.8l-3.751-2.166c-.3-.174-.264-.478.084-.679l3.717-2.146a1.306,1.306,0,0,1,1.175-.049l3.751,2.166c.3.174.264.478-.084.679l-3.717,2.146A1.306,1.306,0,0,1,384.4,269.8Z" transform="translate(-287.293 -222.58)" fill="#5793ce"/>
          <path id="Trazado_194559" data-name="Trazado 194559" d="M275.476,233.085l-11.047-6.378c-.3-.174-.264-.478.084-.679l3.717-2.146a1.306,1.306,0,0,1,1.175-.049l11.047,6.378c.3.174.264.478-.084.679l-3.717,2.146A1.306,1.306,0,0,1,275.476,233.085Z" transform="translate(-257.828 -212.203)" fill="#5793ce"/>
          <path id="Trazado_194560" data-name="Trazado 194560" d="M370.81,288.126l-11.047-6.378c-.3-.174-.263-.478.084-.679l3.717-2.145a1.306,1.306,0,0,1,1.175-.049l11.047,6.379c.3.173.264.477-.084.678l-3.717,2.146A1.306,1.306,0,0,1,370.81,288.126Z" transform="translate(-281.998 -226.157)" fill="#5793ce"/>
          <path id="Trazado_194561" data-name="Trazado 194561" d="M342.255,281.4l-3.751-2.165c-.3-.174-.264-.478.084-.679L343.016,276a1.306,1.306,0,0,1,1.175-.049l3.751,2.166c.3.174.263.478-.084.679l-4.427,2.556A1.305,1.305,0,0,1,342.255,281.4Z" transform="translate(-276.608 -225.415)" fill="#5793ce"/>
          <path id="Trazado_194562" data-name="Trazado 194562" d="M285.138,248.421l-6-3.464c-.3-.174-.264-.478.084-.679l4.427-2.556a1.306,1.306,0,0,1,1.175-.049l6,3.464c.3.174.263.478-.085.679l-4.427,2.556A1.308,1.308,0,0,1,285.138,248.421Z" transform="translate(-261.557 -216.726)" fill="#5793ce"/>
          <path id="Trazado_194563" data-name="Trazado 194563" d="M334.015,276.64l-6-3.464c-.3-.174-.263-.478.084-.679l4.427-2.556a1.306,1.306,0,0,1,1.175-.049l6,3.464c.3.174.263.478-.084.679l-4.427,2.556A1.308,1.308,0,0,1,334.015,276.64Z" transform="translate(-273.949 -223.88)" fill="#5793ce"/>
          <path id="Trazado_194564" data-name="Trazado 194564" d="M296.334,254.885l-6-3.464c-.3-.174-.263-.478.084-.679l4.427-2.556a1.306,1.306,0,0,1,1.175-.049l6,3.464c.3.174.263.478-.084.679l-4.428,2.556A1.306,1.306,0,0,1,296.334,254.885Z" transform="translate(-264.396 -218.364)" fill="#5793ce"/>
          <path id="Trazado_194565" data-name="Trazado 194565" d="M296.145,248.209l26.081,15.058a.357.357,0,0,1,0,.677l-4.515,2.607a1.3,1.3,0,0,1-1.172,0l-26.082-15.059Z" transform="translate(-264.479 -218.412)" fill="#5793ce"/>
          <path id="Trazado_194566" data-name="Trazado 194566" d="M364.264,291.378l4.178,2.412c.247.143.216.392-.069.556l-1.812,1.046a1.071,1.071,0,0,1-.963.04l-4.178-2.412c-.247-.143-.216-.392.069-.556l1.811-1.046A1.071,1.071,0,0,1,364.264,291.378Z" transform="translate(-282.427 -229.332)" fill="#5793ce"/>
          <path id="Trazado_194567" data-name="Trazado 194567" d="M356.44,286.86l4.178,2.413c.247.143.216.391-.069.556l-1.811,1.045a1.069,1.069,0,0,1-.963.04L353.6,288.5c-.246-.143-.216-.391.069-.556l1.811-1.045A1.07,1.07,0,0,1,356.44,286.86Z" transform="translate(-280.443 -228.187)" fill="#5793ce"/>
          <path id="Trazado_194568" data-name="Trazado 194568" d="M348.68,282.38l4.178,2.412c.247.143.216.392-.069.556l-1.811,1.046a1.069,1.069,0,0,1-.963.04l-4.179-2.413c-.246-.143-.216-.391.069-.556l1.811-1.046A1.072,1.072,0,0,1,348.68,282.38Z" transform="translate(-278.476 -227.051)" fill="#5793ce"/>
          <path id="Trazado_194569" data-name="Trazado 194569" d="M360.725,284.386,364.9,286.8c.247.143.216.391-.069.556l-1.811,1.045a1.069,1.069,0,0,1-.963.04l-4.178-2.413c-.247-.143-.216-.391.069-.556l1.812-1.045A1.069,1.069,0,0,1,360.725,284.386Z" transform="translate(-281.53 -227.56)" fill="#5793ce"/>
        </g>
        <g id="Grupo_152024" data-name="Grupo 152024" transform="translate(87.952 29.623)">
          <path id="Trazado_194570" data-name="Trazado 194570" d="M342.949,146.62l-9.421-5.44.4-2.028,9.422,5.44Z" transform="translate(-330.461 -139.152)" fill="#d4ecff"/>
          <path id="Trazado_194571" data-name="Trazado 194571" d="M341.58,152.935l-9.422-5.439.4-2.028,9.421,5.439Z" transform="translate(-330.114 -140.753)" fill="#fff"/>
          <path id="Trazado_194572" data-name="Trazado 194572" d="M403.527,240.528l-9.422-5.439.4-2.028,9.422,5.439Z" transform="translate(-345.819 -162.96)" fill="#d4ecff"/>
          <path id="Trazado_194573" data-name="Trazado 194573" d="M338.841,165.565l-9.422-5.439.4-2.028,9.421,5.439Z" transform="translate(-329.419 -143.955)" fill="#d4ecff"/>
        </g>
        <path id="Trazado_194574" data-name="Trazado 194574" d="M383.99,196.018,349.137,175.9l.448-2.266,34.853,20.122Z" transform="translate(-246.467 -118.27)" fill="#d4ecff"/>
        <path id="Trazado_194575" data-name="Trazado 194575" d="M370.842,203.2l-24.329-14.046.448-2.266,24.329,14.046Z" transform="translate(-245.801 -121.632)" fill="#d4ecff"/>
        <path id="Trazado_194576" data-name="Trazado 194576" d="M368.873,194.678l-21.048-12.152.448-2.266,21.048,12.152Z" transform="translate(-246.134 -119.951)" fill="#fff"/>
        <g id="Grupo_152025" data-name="Grupo 152025" transform="translate(115.565 53.025)">
          <path id="Trazado_194577" data-name="Trazado 194577" d="M369.118,172.762a1.313,1.313,0,0,1-1.892.582,1.646,1.646,0,0,1-.678-2.066,1.313,1.313,0,0,1,1.892-.582A1.647,1.647,0,0,1,369.118,172.762Z" transform="translate(-366.411 -170.502)" fill="#ff2c9c"/>
          <path id="Trazado_194578" data-name="Trazado 194578" d="M375.19,176.268a1.313,1.313,0,0,1-1.892.582,1.647,1.647,0,0,1-.678-2.066,1.313,1.313,0,0,1,1.892-.582A1.646,1.646,0,0,1,375.19,176.268Z" transform="translate(-367.951 -171.391)" fill="#fff"/>
          <path id="Trazado_194579" data-name="Trazado 194579" d="M381.262,179.774a1.312,1.312,0,0,1-1.892.582,1.646,1.646,0,0,1-.678-2.066,1.313,1.313,0,0,1,1.892-.583A1.647,1.647,0,0,1,381.262,179.774Z" transform="translate(-369.49 -172.28)" fill="#d4ecff"/>
          <path id="Trazado_194580" data-name="Trazado 194580" d="M387.335,183.28a1.313,1.313,0,0,1-1.892.582,1.647,1.647,0,0,1-.678-2.066,1.313,1.313,0,0,1,1.892-.583A1.648,1.648,0,0,1,387.335,183.28Z" transform="translate(-371.03 -173.168)" fill="#ff2c9c"/>
        </g>
        <path id="Trazado_194581" data-name="Trazado 194581" d="M390.941,207.419l-10.524-6.076.448-2.266,10.524,6.076Z" transform="translate(-254.397 -124.722)" fill="#ff2c9c"/>
      </g>
    </g>
    <g id="Grupo_152045" data-name="Grupo 152045" transform="translate(151.249 114.532)">
      <path id="Trazado_194582" data-name="Trazado 194582" d="M432.991,361.718,398.648,341.89c-1.259-.726-1.1-2,.353-2.834l36.4-21.07a5.457,5.457,0,0,1,4.91-.2l34.343,19.828c1.259.727,1.1,2-.353,2.835l-36.4,21.07A5.454,5.454,0,0,1,432.991,361.718Z" transform="translate(-396.179 -211.718)" fill="#7dc3ea"/>
      <path id="Trazado_194583" data-name="Trazado 194583" d="M434.782,352.136a5.378,5.378,0,0,1-2.646-.623l-34.342-19.828a2.467,2.467,0,0,1-1.359-2.113,2.994,2.994,0,0,1,1.711-2.485l36.4-21.07a6.492,6.492,0,0,1,5.93-.2l34.342,19.827a2.469,2.469,0,0,1,1.359,2.113,3,3,0,0,1-1.712,2.485l-36.4,21.069A6.709,6.709,0,0,1,434.782,352.136Zm3.062-44.912a4.736,4.736,0,0,0-2.281.558l-36.4,21.069c-.51.294-.694.593-.694.723,0,.076.105.214.34.35l34.343,19.827a4.483,4.483,0,0,0,3.892-.2l36.4-21.069c.51-.293.694-.593.694-.722,0-.077-.1-.214-.34-.35l-34.342-19.828A3.321,3.321,0,0,0,437.844,307.224Z" transform="translate(-395.833 -208.651)" fill="#fff"/>
      <g id="Grupo_152044" data-name="Grupo 152044">
        <g id="Grupo_152043" data-name="Grupo 152043">
          <g id="Grupo_152038" data-name="Grupo 152038">
            <g id="Grupo_152030" data-name="Grupo 152030">
              <g id="Grupo_152029" data-name="Grupo 152029">
                <g id="Grupo_152028" data-name="Grupo 152028">
                  <path id="Trazado_194584" data-name="Trazado 194584" d="M438,229.157s-18.855,1.8-30.211,2.669l30.12,85.781,39.84-22.978.019-.012.071-.04v0a2.22,2.22,0,0,0,.814-1.967V208.762a6.075,6.075,0,0,0-.692-2.676Z" transform="translate(-398.713 -183.525)" fill="url(#radial-gradient-5)"/>
                  <path id="Trazado_194585" data-name="Trazado 194585" d="M473.391,196.386l-35.037-20.229a1.584,1.584,0,0,0-1.6-.137h0l-40,23.077,1.885,6.975,10.029,28.564,1.889,1.091,64.608-37.3A4.933,4.933,0,0,0,473.391,196.386Z" transform="translate(-395.915 -175.862)" fill="url(#linear-gradient)"/>
                  <path id="Trazado_194586" data-name="Trazado 194586" d="M435.2,207.326l30.376-17.488-23.7-13.681a1.584,1.584,0,0,0-1.6-.137h0l-29.622,17.09Z" transform="translate(-399.44 -175.862)" fill="#173d7a" opacity="0.5"/>
                  <path id="Trazado_194587" data-name="Trazado 194587" d="M433.133,317.7,398.1,297.469a5.909,5.909,0,0,1-2.467-4.714V208.911c0-1.817,1.1-2.651,2.467-1.865l35.037,20.229a5.909,5.909,0,0,1,2.467,4.714v83.844C435.6,317.65,434.5,318.485,433.133,317.7Z" transform="translate(-395.629 -183.693)" fill="#5793ce"/>
                  <path id="Trazado_194588" data-name="Trazado 194588" d="M434.318,226.711l-35.037-20.229a1.457,1.457,0,0,0-1.941.143,1.825,1.825,0,0,1,1.19.278l35.037,20.229a5.909,5.909,0,0,1,2.467,4.714V315.69a2.564,2.564,0,0,1-.526,1.723c.761-.12,1.277-.9,1.277-2.144V231.425A5.909,5.909,0,0,0,434.318,226.711Z" transform="translate(-396.063 -183.55)" fill="#fff"/>
                  <path id="Trazado_194589" data-name="Trazado 194589" d="M431.783,314.124l-30.629-17.683A5.164,5.164,0,0,1,399,292.319V214.452c0-1.589.965-2.319,2.157-1.631l30.629,17.684a5.164,5.164,0,0,1,2.157,4.121v77.868C433.94,314.082,432.975,314.812,431.783,314.124Z" transform="translate(-396.483 -185.167)" fill="url(#linear-gradient-2)"/>
                  <path id="Trazado_194590" data-name="Trazado 194590" d="M431.783,314.124l-30.629-17.683A5.164,5.164,0,0,1,399,292.319V214.452c0-1.589.965-2.319,2.157-1.631l30.629,17.684a5.164,5.164,0,0,1,2.157,4.121v77.868C433.94,314.082,432.975,314.812,431.783,314.124Z" transform="translate(-396.483 -185.167)" fill="url(#linear-gradient-2)"/>
                  <path id="Trazado_194591" data-name="Trazado 194591" d="M431.783,314.124l-30.629-17.683A5.164,5.164,0,0,1,399,292.319V214.452c0-1.589.965-2.319,2.157-1.631l30.629,17.684a5.164,5.164,0,0,1,2.157,4.121v77.868C433.94,314.082,432.975,314.812,431.783,314.124Z" transform="translate(-396.483 -185.167)" fill="#173d7a"/>
                  <path id="Trazado_194592" data-name="Trazado 194592" d="M432.784,313.536l-30.629-17.684A5.166,5.166,0,0,1,400,291.731V213.863a2.488,2.488,0,0,1,.31-1.3c-.77-.006-1.31.7-1.31,1.889V292.32a5.164,5.164,0,0,0,2.157,4.121l30.629,17.683a1.249,1.249,0,0,0,1.848-.33A1.737,1.737,0,0,1,432.784,313.536Z" transform="translate(-396.483 -185.167)" fill="#396caa"/>
                </g>
              </g>
            </g>
            <g id="Grupo_152032" data-name="Grupo 152032" transform="translate(5.759 30.787)">
              <g id="Grupo_152031" data-name="Grupo 152031" transform="translate(0)">
                <path id="Trazado_194593" data-name="Trazado 194593" d="M432.885,298.493,421.5,291.92,403.344,302.4l31.7,18.3v-18.09A5.164,5.164,0,0,0,432.885,298.493Z" transform="translate(-403.344 -236.073)" fill="#173d7a"/>
                <path id="Trazado_194594" data-name="Trazado 194594" d="M432.885,277.118,421.5,270.545l-18.157,10.483,31.7,18.3v-18.09A5.164,5.164,0,0,0,432.885,277.118Z" transform="translate(-403.344 -230.654)" fill="#173d7a"/>
                <path id="Trazado_194595" data-name="Trazado 194595" d="M432.885,255.742,421.5,249.169l-18.157,10.483,31.7,18.3v-18.09A5.164,5.164,0,0,0,432.885,255.742Z" transform="translate(-403.344 -225.235)" fill="#173d7a"/>
                <path id="Trazado_194596" data-name="Trazado 194596" d="M432.885,234.367,421.5,227.794l-18.157,10.483,31.7,18.3v-18.09A5.164,5.164,0,0,0,432.885,234.367Z" transform="translate(-403.344 -219.816)" fill="#173d7a"/>
                <path id="Trazado_194597" data-name="Trazado 194597" d="M432.885,231.657l-25.2-14.551-4.338,2.5,31.7,18.3v-2.134A5.164,5.164,0,0,0,432.885,231.657Z" transform="translate(-403.344 -217.106)" fill="#173d7a"/>
              </g>
              <path id="Trazado_194598" data-name="Trazado 194598" d="M435.042,238.762l-31.7-18.3v10.085l31.7,18.3Z" transform="translate(-403.344 -217.957)" fill="#5793ce"/>
              <path id="Trazado_194599" data-name="Trazado 194599" d="M435.042,260.138l-31.7-18.3v10.085l31.7,18.3Z" transform="translate(-403.344 -223.376)" fill="#5793ce"/>
              <path id="Trazado_194600" data-name="Trazado 194600" d="M435.042,281.513l-31.7-18.3V273.3l31.7,18.3Z" transform="translate(-403.344 -228.795)" fill="#5793ce"/>
              <path id="Trazado_194601" data-name="Trazado 194601" d="M435.042,302.889l-31.7-18.3v10.085l31.7,18.3Z" transform="translate(-403.344 -234.214)" fill="#5793ce"/>
              <path id="Trazado_194602" data-name="Trazado 194602" d="M435.042,324.264l-31.7-18.3v10.085l31.7,18.3Z" transform="translate(-403.344 -239.633)" fill="#5793ce"/>
            </g>
            <g id="Grupo_152033" data-name="Grupo 152033" transform="translate(9.565 38.198)">
              <path id="Trazado_194603" data-name="Trazado 194603" d="M433.539,246.919l-23.875-13.784a2.923,2.923,0,0,1-1.22-2.332v-2.7c0-.9.546-1.312,1.22-.923l23.875,13.784a2.923,2.923,0,0,1,1.22,2.332V246C434.759,246.9,434.213,247.309,433.539,246.919Z" transform="translate(-408.443 -227.033)" fill="#173d7a"/>
              <path id="Trazado_194604" data-name="Trazado 194604" d="M410.871,232.618a2.924,2.924,0,0,1-1.221-2.332v-2.7a1.714,1.714,0,0,1,.045-.388l-.031-.018c-.675-.389-1.221.024-1.221.923v2.7a2.921,2.921,0,0,0,1.221,2.332l23.875,13.784a.73.73,0,0,0,1.176-.534Z" transform="translate(-408.443 -227.033)" fill="#06033e" opacity="0.3"/>
              <path id="Trazado_194605" data-name="Trazado 194605" d="M427,240.533l-14.367-8.295a1.029,1.029,0,0,1-.429-.82h0c0-.317.192-.462.429-.325L427,239.388a1.029,1.029,0,0,1,.429.82h0C427.43,240.524,427.237,240.67,427,240.533Z" transform="translate(-409.397 -228.049)" fill="#fff"/>
            </g>
            <g id="Grupo_152034" data-name="Grupo 152034" transform="translate(9.565 54.055)">
              <path id="Trazado_194606" data-name="Trazado 194606" d="M433.539,268.163l-23.875-13.784a2.922,2.922,0,0,1-1.22-2.332v-2.7c0-.9.546-1.312,1.22-.923l23.875,13.784a2.923,2.923,0,0,1,1.22,2.332v2.7C434.759,268.139,434.213,268.552,433.539,268.163Z" transform="translate(-408.443 -248.277)" fill="#173d7a"/>
              <path id="Trazado_194607" data-name="Trazado 194607" d="M410.871,253.861a2.922,2.922,0,0,1-1.221-2.332v-2.7a1.719,1.719,0,0,1,.045-.388l-.031-.017c-.675-.39-1.221.024-1.221.923v2.7a2.921,2.921,0,0,0,1.221,2.332l23.875,13.784a.73.73,0,0,0,1.176-.535Z" transform="translate(-408.443 -248.277)" fill="#06033e" opacity="0.3"/>
              <path id="Trazado_194608" data-name="Trazado 194608" d="M427,261.777l-14.367-8.295a1.027,1.027,0,0,1-.429-.82h0c0-.316.192-.461.429-.325L427,260.631a1.031,1.031,0,0,1,.429.82h0C427.43,261.768,427.237,261.914,427,261.777Z" transform="translate(-409.397 -249.293)" fill="#fff"/>
            </g>
            <g id="Grupo_152035" data-name="Grupo 152035" transform="translate(9.565 70.061)">
              <path id="Trazado_194609" data-name="Trazado 194609" d="M433.539,289.6,409.663,275.82a2.923,2.923,0,0,1-1.22-2.332v-2.7c0-.9.546-1.312,1.22-.923l23.875,13.784a2.923,2.923,0,0,1,1.22,2.332v2.7C434.759,289.58,434.213,289.994,433.539,289.6Z" transform="translate(-408.443 -269.718)" fill="#173d7a"/>
              <path id="Trazado_194610" data-name="Trazado 194610" d="M410.871,275.3a2.924,2.924,0,0,1-1.221-2.332v-2.7a1.713,1.713,0,0,1,.045-.387l-.031-.018c-.675-.389-1.221.024-1.221.923v2.7a2.921,2.921,0,0,0,1.221,2.332L433.539,289.6a.73.73,0,0,0,1.176-.534Z" transform="translate(-408.443 -269.718)" fill="#06033e" opacity="0.3"/>
              <path id="Trazado_194611" data-name="Trazado 194611" d="M427,283.218l-14.367-8.295a1.029,1.029,0,0,1-.429-.82h0c0-.316.192-.462.429-.325L427,282.073a1.029,1.029,0,0,1,.429.82h0C427.43,283.209,427.237,283.355,427,283.218Z" transform="translate(-409.397 -270.734)" fill="#d4ecff"/>
            </g>
            <g id="Grupo_152036" data-name="Grupo 152036" transform="translate(9.565 86.214)">
              <path id="Trazado_194612" data-name="Trazado 194612" d="M433.539,311.244,409.663,297.46a2.924,2.924,0,0,1-1.22-2.332v-2.7c0-.9.546-1.312,1.22-.923l23.875,13.784a2.925,2.925,0,0,1,1.22,2.333v2.7C434.759,311.22,434.213,311.633,433.539,311.244Z" transform="translate(-408.443 -291.357)" fill="#173d7a"/>
              <path id="Trazado_194613" data-name="Trazado 194613" d="M410.871,296.942a2.922,2.922,0,0,1-1.221-2.332v-2.7a1.719,1.719,0,0,1,.045-.388l-.031-.017c-.675-.39-1.221.023-1.221.923v2.7a2.922,2.922,0,0,0,1.221,2.332l23.875,13.784a.731.731,0,0,0,1.176-.535Z" transform="translate(-408.443 -291.357)" fill="#06033e" opacity="0.3"/>
              <path id="Trazado_194614" data-name="Trazado 194614" d="M427,304.857l-14.367-8.295a1.029,1.029,0,0,1-.429-.82h0c0-.316.192-.461.429-.325L427,303.712a1.031,1.031,0,0,1,.429.82h0C427.43,304.849,427.237,304.994,427,304.857Z" transform="translate(-409.397 -292.373)" fill="#ff2c9c"/>
            </g>
            <g id="Grupo_152037" data-name="Grupo 152037" transform="translate(9.565 102.048)">
              <path id="Trazado_194615" data-name="Trazado 194615" d="M433.539,332.454,409.663,318.67a2.923,2.923,0,0,1-1.22-2.332v-2.7c0-.9.546-1.312,1.22-.923L433.539,326.5a2.923,2.923,0,0,1,1.22,2.332v2.7C434.759,332.43,434.213,332.844,433.539,332.454Z" transform="translate(-408.443 -312.568)" fill="#173d7a"/>
              <path id="Trazado_194616" data-name="Trazado 194616" d="M410.871,318.153a2.924,2.924,0,0,1-1.221-2.333v-2.7a1.713,1.713,0,0,1,.045-.387l-.031-.018c-.675-.389-1.221.024-1.221.923v2.7a2.921,2.921,0,0,0,1.221,2.332l23.875,13.784a.73.73,0,0,0,1.176-.534Z" transform="translate(-408.443 -312.568)" fill="#06033e" opacity="0.3"/>
              <path id="Trazado_194617" data-name="Trazado 194617" d="M427,326.068l-14.367-8.3a1.026,1.026,0,0,1-.429-.82h0c0-.316.192-.461.429-.324L427,324.923a1.029,1.029,0,0,1,.429.82h0C427.43,326.059,427.237,326.2,427,326.068Z" transform="translate(-409.397 -313.584)" fill="#d4ecff"/>
            </g>
            <path id="Trazado_194618" data-name="Trazado 194618" d="M403.344,220.461l2.5,1.441v10.085l-2.5-1.441Z" transform="translate(-397.585 -187.169)" fill="#173d7a" opacity="0.5"/>
            <path id="Trazado_194619" data-name="Trazado 194619" d="M403.344,241.837l2.5,1.441v10.085l-2.5-1.441Z" transform="translate(-397.585 -192.588)" fill="#173d7a" opacity="0.5"/>
            <path id="Trazado_194620" data-name="Trazado 194620" d="M403.344,263.212l2.5,1.441v10.085l-2.5-1.441Z" transform="translate(-397.585 -198.008)" fill="#173d7a" opacity="0.5"/>
            <path id="Trazado_194621" data-name="Trazado 194621" d="M403.344,284.588l2.5,1.441v10.085l-2.5-1.441Z" transform="translate(-397.585 -203.427)" fill="#173d7a" opacity="0.5"/>
            <path id="Trazado_194622" data-name="Trazado 194622" d="M403.344,305.963l2.5,1.441V317.49l-2.5-1.441Z" transform="translate(-397.585 -208.846)" fill="#173d7a" opacity="0.5"/>
          </g>
          <path id="Trazado_194623" data-name="Trazado 194623" d="M435.475,244.77c0,.322-.227.452-.505.292a1.117,1.117,0,0,1-.505-.876c0-.322.226-.453.505-.292A1.119,1.119,0,0,1,435.475,244.77Z" transform="translate(-405.475 -193.093)" fill="#d4ecff"/>
          <path id="Trazado_194624" data-name="Trazado 194624" d="M438.345,246.427c0,.322-.226.453-.505.292a1.117,1.117,0,0,1-.505-.876c0-.322.226-.453.505-.292A1.117,1.117,0,0,1,438.345,246.427Z" transform="translate(-406.202 -193.513)" fill="#ff2c9c"/>
          <path id="Trazado_194625" data-name="Trazado 194625" d="M441.215,248.084c0,.322-.226.453-.505.292a1.117,1.117,0,0,1-.505-.876c0-.322.226-.452.505-.292A1.117,1.117,0,0,1,441.215,248.084Z" transform="translate(-406.93 -193.933)" fill="#d4ecff"/>
          <path id="Trazado_194626" data-name="Trazado 194626" d="M435.475,266.134c0,.323-.227.453-.505.292a1.117,1.117,0,0,1-.505-.875c0-.323.226-.453.505-.292A1.119,1.119,0,0,1,435.475,266.134Z" transform="translate(-405.475 -198.509)" fill="#ff2c9c"/>
          <path id="Trazado_194627" data-name="Trazado 194627" d="M438.345,267.792c0,.322-.226.452-.505.291a1.115,1.115,0,0,1-.505-.875c0-.322.226-.453.505-.292A1.117,1.117,0,0,1,438.345,267.792Z" transform="translate(-406.202 -198.929)" fill="#d4ecff"/>
          <path id="Trazado_194628" data-name="Trazado 194628" d="M441.215,269.449c0,.322-.226.452-.505.292a1.117,1.117,0,0,1-.505-.876c0-.322.226-.453.505-.292A1.117,1.117,0,0,1,441.215,269.449Z" transform="translate(-406.93 -199.349)" fill="#fff"/>
          <path id="Trazado_194629" data-name="Trazado 194629" d="M435.475,287.66c0,.323-.227.453-.505.292a1.117,1.117,0,0,1-.505-.875c0-.322.226-.453.505-.292A1.119,1.119,0,0,1,435.475,287.66Z" transform="translate(-405.475 -203.966)" fill="#fff"/>
          <path id="Trazado_194630" data-name="Trazado 194630" d="M438.345,289.318c0,.322-.226.452-.505.291a1.115,1.115,0,0,1-.505-.875c0-.322.226-.453.505-.292A1.117,1.117,0,0,1,438.345,289.318Z" transform="translate(-406.202 -204.387)" fill="#ff2c9c"/>
          <path id="Trazado_194631" data-name="Trazado 194631" d="M441.215,290.975c0,.322-.226.452-.505.292a1.117,1.117,0,0,1-.505-.876c0-.322.226-.453.505-.292A1.117,1.117,0,0,1,441.215,290.975Z" transform="translate(-406.93 -204.807)" fill="#fff"/>
          <path id="Trazado_194632" data-name="Trazado 194632" d="M435.475,308.873c0,.322-.227.453-.505.292a1.117,1.117,0,0,1-.505-.876c0-.322.226-.453.505-.292A1.119,1.119,0,0,1,435.475,308.873Z" transform="translate(-405.475 -209.344)" fill="#fff"/>
          <path id="Trazado_194633" data-name="Trazado 194633" d="M438.345,310.53c0,.322-.226.453-.505.292a1.117,1.117,0,0,1-.505-.876c0-.322.226-.452.505-.292A1.117,1.117,0,0,1,438.345,310.53Z" transform="translate(-406.202 -209.764)" fill="#d4ecff"/>
          <path id="Trazado_194634" data-name="Trazado 194634" d="M441.215,312.187c0,.322-.226.453-.505.292a1.117,1.117,0,0,1-.505-.875c0-.322.226-.453.505-.292A1.117,1.117,0,0,1,441.215,312.187Z" transform="translate(-406.93 -210.185)" fill="#d4ecff"/>
          <path id="Trazado_194635" data-name="Trazado 194635" d="M435.475,330.375c0,.322-.227.452-.505.292a1.117,1.117,0,0,1-.505-.876c0-.323.226-.453.505-.292A1.119,1.119,0,0,1,435.475,330.375Z" transform="translate(-405.475 -214.795)" fill="#fff"/>
          <path id="Trazado_194636" data-name="Trazado 194636" d="M438.345,332.032c0,.323-.226.453-.505.292a1.117,1.117,0,0,1-.505-.876c0-.322.226-.453.505-.292A1.117,1.117,0,0,1,438.345,332.032Z" transform="translate(-406.202 -215.216)" fill="#ff2c9c"/>
          <path id="Trazado_194637" data-name="Trazado 194637" d="M441.215,333.689c0,.322-.226.453-.505.292a1.117,1.117,0,0,1-.505-.876c0-.322.226-.452.505-.292A1.117,1.117,0,0,1,441.215,333.689Z" transform="translate(-406.93 -215.636)" fill="#d4ecff"/>
          <g id="Grupo_152039" data-name="Grupo 152039" transform="translate(45.248 33.965)">
            <path id="Trazado_194638" data-name="Trazado 194638" d="M456.245,310.07v-71.4l.148-.084,29.838-17.227v71.394l-.148.085Zm.591-71.053v70.029l28.8-16.63V222.386Z" transform="translate(-456.245 -221.363)" fill="#173d7a"/>
          </g>
          <g id="Grupo_152042" data-name="Grupo 152042" transform="translate(52.477 54.135)">
            <path id="Trazado_194639" data-name="Trazado 194639" d="M480.935,260.336l-13.379,7.725c-.9.519-1.627-.032-1.627-1.23v-7.418a3.9,3.9,0,0,1,1.627-3.109l13.379-7.725c.9-.519,1.627.032,1.627,1.23v7.418A3.9,3.9,0,0,1,480.935,260.336Z" transform="translate(-465.929 -248.383)" fill="#173d7a"/>
            <path id="Trazado_194640" data-name="Trazado 194640" d="M481.3,248.435a2.141,2.141,0,0,1,.121.744V256.6a3.9,3.9,0,0,1-1.627,3.109l-13.379,7.725a1.565,1.565,0,0,1-.325.144.949.949,0,0,0,1.507.486l13.378-7.725a3.9,3.9,0,0,0,1.627-3.109v-7.418C482.6,248.759,482.044,248.206,481.3,248.435Z" transform="translate(-465.97 -248.384)" fill="#5793ce"/>
            <g id="Grupo_152041" data-name="Grupo 152041" transform="translate(2.518 4.221)">
              <g id="Grupo_152040" data-name="Grupo 152040" transform="translate(0 3.203)">
                <path id="Trazado_194641" data-name="Trazado 194641" d="M482.606,258.39c.247-.143.447-.027.447.258v1.69a.991.991,0,0,1-.447.776c-.248.143-.448.027-.448-.259v-1.689A.988.988,0,0,1,482.606,258.39Z" transform="translate(-472.561 -258.329)" fill="#fff"/>
                <path id="Trazado_194642" data-name="Trazado 194642" d="M480.034,260.157c.248-.143.448-.027.448.258v1.479a.988.988,0,0,1-.448.776c-.247.143-.447.028-.447-.258v-1.479A.99.99,0,0,1,480.034,260.157Z" transform="translate(-471.909 -258.777)" fill="#d4ecff"/>
                <path id="Trazado_194643" data-name="Trazado 194643" d="M477.463,259.432c.248-.143.448-.028.448.258v3.128a.99.99,0,0,1-.448.776c-.247.143-.447.027-.447-.259v-3.128A.989.989,0,0,1,477.463,259.432Z" transform="translate(-471.258 -258.593)" fill="#ff2c9c"/>
                <path id="Trazado_194644" data-name="Trazado 194644" d="M474.892,258.5c.248-.143.448-.027.448.259v4.93a.988.988,0,0,1-.448.776c-.247.143-.448.027-.448-.258v-4.931A.992.992,0,0,1,474.892,258.5Z" transform="translate(-470.606 -258.357)" fill="#d4ecff"/>
                <path id="Trazado_194645" data-name="Trazado 194645" d="M472.321,260.678c.248-.143.448-.027.448.259v4.413a.988.988,0,0,1-.448.776c-.247.143-.448.028-.448-.258v-4.414A.992.992,0,0,1,472.321,260.678Z" transform="translate(-469.954 -258.909)" fill="#d4ecff"/>
                <path id="Trazado_194646" data-name="Trazado 194646" d="M469.75,264.864c.248-.143.448-.027.448.259v2.4a.99.99,0,0,1-.448.776c-.247.143-.448.027-.448-.258v-2.4A.992.992,0,0,1,469.75,264.864Z" transform="translate(-469.302 -259.97)" fill="#fff"/>
              </g>
              <path id="Trazado_194647" data-name="Trazado 194647" d="M482.168,256.988c0,.281.2.395.44.255a.975.975,0,0,0,.44-.763c0-.281-.2-.395-.44-.255A.973.973,0,0,0,482.168,256.988Z" transform="translate(-472.564 -254.577)" fill="#ff2c9c"/>
              <path id="Trazado_194648" data-name="Trazado 194648" d="M482.168,254.86c0,.281.2.394.44.254a.974.974,0,0,0,.44-.763c0-.281-.2-.394-.44-.254A.972.972,0,0,0,482.168,254.86Z" transform="translate(-472.564 -254.037)" fill="#fff"/>
            </g>
          </g>
        </g>
      </g>
    </g>
    <g id="Grupo_152050" data-name="Grupo 152050" transform="translate(140.095 66.271)">
      <g id="Grupo_152048" data-name="Grupo 152048">
        <g id="Grupo_152046" data-name="Grupo 152046" transform="translate(48.568)">
          <path id="Trazado_194649" data-name="Trazado 194649" d="M484.416,148.3l-6.043-3.489,22.282-12.865a1.164,1.164,0,0,0,0-2.2L477.892,116.6a4.225,4.225,0,0,0-3.817,0l-22.282,12.865-6.043-3.49,22.282-12.865a17.6,17.6,0,0,1,15.9,0L506.7,126.252c4.385,2.532,4.385,6.651,0,9.182Z" transform="translate(-445.749 -111.211)" fill="url(#radial-gradient-6)"/>
        </g>
        <g id="Grupo_152047" data-name="Grupo 152047" transform="translate(0 6.408)">
          <path id="Trazado_194650" data-name="Trazado 194650" d="M478.075,152.012c0-3.231-1.964-6.984-4.388-8.383L433.316,120.32a2.816,2.816,0,0,0-2.843-.243h0l-48.2,28.011,46.614,35.125,47.489-27.564a2.192,2.192,0,0,0,.419-.243h0A4.126,4.126,0,0,0,478.075,152.012Z" transform="translate(-381.087 -119.796)" fill="url(#linear-gradient-4)"/>
          <path id="Trazado_194651" data-name="Trazado 194651" d="M442.633,192.568,490.123,165a2.191,2.191,0,0,0,.42-.243h0a4.126,4.126,0,0,0,1.283-3.393,10.759,10.759,0,0,0-1.182-4.668L436.51,187.953Z" transform="translate(-394.839 -129.152)" fill="#396caa"/>
          <path id="Trazado_194652" data-name="Trazado 194652" d="M425.445,192.514l-40.372-23.309c-2.423-1.4-4.387-5.152-4.387-8.383h0c0-3.231,1.964-4.716,4.387-3.317l40.372,23.309c2.423,1.4,4.388,5.152,4.388,8.383h0C429.833,192.428,427.868,193.913,425.445,192.514Z" transform="translate(-380.686 -129.223)" fill="url(#radial-gradient-7)"/>
          <path id="Trazado_194653" data-name="Trazado 194653" d="M426.6,180.519l-40.372-23.309a2.784,2.784,0,0,0-2.9-.2,3.045,3.045,0,0,1,2.416.425l40.372,23.309c2.423,1.4,4.388,5.152,4.388,8.383h0c0,1.745-.576,2.975-1.485,3.521,1.187-.361,1.971-1.7,1.971-3.742h0C430.988,185.671,429.023,181.919,426.6,180.519Z" transform="translate(-381.356 -129.149)" fill="#fff"/>
        </g>
        <path id="Trazado_194654" data-name="Trazado 194654" d="M430.6,192.273l-4.854-2.8a2.092,2.092,0,0,1-.874-1.671h0c0-.644.391-.94.874-.661l4.854,2.8a2.094,2.094,0,0,1,.874,1.671h0C431.475,192.256,431.083,192.553,430.6,192.273Z" transform="translate(-391.888 -130.434)" fill="#ff2c9c"/>
      </g>
      <g id="Grupo_152049" data-name="Grupo 152049" transform="translate(39.321 25.911)">
        <path id="Trazado_194655" data-name="Trazado 194655" d="M438.954,149.119c1.268-.75,1.256-1.945-.028-2.669a5.108,5.108,0,0,0-4.621.049c-1.269.75-1.256,1.945.028,2.669A5.11,5.11,0,0,0,438.954,149.119Z" transform="translate(-433.361 -145.922)" fill="#5793ce"/>
        <path id="Trazado_194656" data-name="Trazado 194656" d="M448.389,154.436c1.269-.75,1.256-1.945-.028-2.669a5.11,5.11,0,0,0-4.622.049c-1.268.75-1.256,1.945.028,2.669A5.108,5.108,0,0,0,448.389,154.436Z" transform="translate(-435.753 -147.27)" fill="#fff"/>
        <path id="Trazado_194657" data-name="Trazado 194657" d="M457.825,159.753c1.268-.75,1.256-1.945-.028-2.669a5.108,5.108,0,0,0-4.621.049c-1.269.75-1.256,1.945.028,2.668A5.107,5.107,0,0,0,457.825,159.753Z" transform="translate(-438.145 -148.618)" fill="#fff"/>
      </g>
    </g>
    <path id="Trazado_194658" data-name="Trazado 194658" d="M524.409,245.073a.95.95,0,0,1-.952-.951V231.929a.953.953,0,0,1,.476-.825l10.56-6.1a.951.951,0,0,1,1.427.825v12.192a.953.953,0,0,1-.476.824l-10.56,6.1A.95.95,0,0,1,524.409,245.073Zm.951-12.594v9.995l8.657-5v-9.995Zm9.608,5.546h0Z" transform="translate(-276.787 -73.758)" fill="#fff"/>
  </g>
</svg>
