<svg xmlns="http://www.w3.org/2000/svg" xmlns:xlink="http://www.w3.org/1999/xlink" width="473.677" height="342.636" viewBox="0 0 473.677 342.636">
  <defs>
    <linearGradient id="linear-gradient" x1="0.5" x2="0.5" y2="1" gradientUnits="objectBoundingBox">
      <stop offset="0" stop-color="#039be5"/>
      <stop offset="1" stop-color="#027fbc"/>
    </linearGradient>
  </defs>
  <g id="Grupo_711952" data-name="Grupo 711952" transform="translate(-236.233 -184.558)">
    <g id="Grupo_165830" data-name="Grupo 165830" transform="translate(462.206 205.338)">
      <rect id="Rectángulo_49083" data-name="Rectángulo 49083" width="97.884" height="58.538" rx="16.412" fill="url(#linear-gradient)"/>
      <path id="Trazado_226627" data-name="Trazado 226627" d="M0,0H97.884V10.1H0Z" transform="translate(97.884 21.156) rotate(-180)" fill="#1565c0"/>
      <path id="Trazado_226551" data-name="Trazado 226551" d="M1500.211,506.875H1514.6a1.656,1.656,0,0,1,1.656,1.656h0a1.657,1.657,0,0,1-1.656,1.657h-14.392a1.657,1.657,0,0,1-1.657-1.657h0A1.657,1.657,0,0,1,1500.211,506.875Z" transform="translate(-1424.747 -459.568)" fill="#d1f5ff"/>
      <path id="Trazado_226552" data-name="Trazado 226552" d="M1395.44,506.875h14.391a1.657,1.657,0,0,1,1.657,1.656h0a1.657,1.657,0,0,1-1.657,1.657H1395.44a1.656,1.656,0,0,1-1.657-1.657h0A1.656,1.656,0,0,1,1395.44,506.875Z" transform="translate(-1342.109 -459.568)" fill="#d1f5ff"/>
      <path id="Trazado_226553" data-name="Trazado 226553" d="M1290.668,506.875h14.392a1.657,1.657,0,0,1,1.656,1.656h0a1.657,1.657,0,0,1-1.656,1.657h-14.392a1.657,1.657,0,0,1-1.656-1.657h0A1.657,1.657,0,0,1,1290.668,506.875Z" transform="translate(-1259.47 -459.568)" fill="#d1f5ff"/>
      <path id="Trazado_226554" data-name="Trazado 226554" d="M1185.9,506.875h14.392a1.656,1.656,0,0,1,1.656,1.656h0a1.656,1.656,0,0,1-1.656,1.657H1185.9a1.656,1.656,0,0,1-1.656-1.657h0A1.656,1.656,0,0,1,1185.9,506.875Z" transform="translate(-1176.832 -459.568)" fill="#d1f5ff"/>
      <path id="Trazado_226555" data-name="Trazado 226555" d="M1570.838,296.994h0a1.828,1.828,0,0,1,1.828,1.828v.642a1.828,1.828,0,0,1-1.828,1.828h0a1.828,1.828,0,0,1-1.828-1.828v-.642A1.828,1.828,0,0,1,1570.838,296.994Z" transform="translate(-1480.32 -294.023)" fill="#d1f5ff"/>
      <path id="Trazado_226556" data-name="Trazado 226556" d="M1514.523,299.143h0a2.149,2.149,0,0,1-2.15,2.149h-7.618a2.15,2.15,0,0,1-2.15-2.149h0a2.15,2.15,0,0,1,2.15-2.149h7.618A2.149,2.149,0,0,1,1514.523,299.143Z" transform="translate(-1427.943 -294.023)" fill="#d1f5ff"/>
      <rect id="Rectángulo_49085" data-name="Rectángulo 49085" width="15.55" height="14.193" rx="7.097" transform="translate(90.434 40.783) rotate(180)" fill="#ffbd73"/>
    </g>
    <g id="Grupo_165831" data-name="Grupo 165831" transform="translate(261.528 285.132)">
      <path id="Trazado_226557" data-name="Trazado 226557" d="M361.143,669.721a24.311,24.311,0,0,0-4.35,8.389l2.565.748a21.925,21.925,0,0,0-.733,8.549l-2.648.3a24.393,24.393,0,0,0,2.852,9.008l.523-.283,1.819-1a21.712,21.712,0,0,0,5.531,6.556l-1.667,2.093a24.139,24.139,0,0,0,8.4,4.342l.748-2.565a21.744,21.744,0,0,0,8.542.741l.3,2.649a24.446,24.446,0,0,0,9.014-2.86l-.008-.006-.365-.68-.909-1.657a21.656,21.656,0,0,0,6.549-5.523l2.093,1.667a24.188,24.188,0,0,0,4.348-8.4l-2.565-.748a21.706,21.706,0,0,0,.735-8.535l2.649-.3a24.445,24.445,0,0,0-2.86-9.014l-2.343,1.282a21.652,21.652,0,0,0-5.522-6.549l1.666-2.092a24.179,24.179,0,0,0-8.4-4.348l-.748,2.565a21.707,21.707,0,0,0-8.535-.735l-.3-2.648a24.289,24.289,0,0,0-9.014,2.86l.009.021.845,1.541.428.781a21.691,21.691,0,0,0-6.549,5.523Zm9.884,7.872A11.82,11.82,0,1,1,372.9,694.2,11.814,11.814,0,0,1,371.027,677.594Z" transform="translate(-355.977 -660.663)" fill="none" stroke="#80b2ff" stroke-miterlimit="10" stroke-width="4.435"/>
    </g>
    <g id="Grupo_165832" data-name="Grupo 165832" transform="translate(481.575 405.411)">
      <path id="Trazado_226558" data-name="Trazado 226558" d="M1250.423,1240.5a28.066,28.066,0,0,0-5.019,9.68l2.96.863a25.308,25.308,0,0,0-.846,9.865l-3.056.346a28.163,28.163,0,0,0,3.291,10.395l.6-.326,2.1-1.153a25.044,25.044,0,0,0,6.382,7.565l-1.923,2.414a27.846,27.846,0,0,0,9.688,5.011l.863-2.96a25.1,25.1,0,0,0,9.857.855l.346,3.057a28.213,28.213,0,0,0,10.4-3.3l-.009-.007-.421-.784-1.049-1.912a25,25,0,0,0,7.558-6.373l2.414,1.923a27.906,27.906,0,0,0,5.018-9.7l-2.961-.863a25.032,25.032,0,0,0,.848-9.849l3.057-.346a28.208,28.208,0,0,0-3.3-10.4l-2.7,1.48a24.992,24.992,0,0,0-6.373-7.558l1.923-2.414a27.906,27.906,0,0,0-9.7-5.018l-.863,2.96a25.043,25.043,0,0,0-9.849-.848l-.346-3.056a28.031,28.031,0,0,0-10.4,3.3l.011.024.975,1.779.493.9a25.039,25.039,0,0,0-7.558,6.373Zm11.406,9.084a13.64,13.64,0,1,1,2.163,19.168A13.634,13.634,0,0,1,1261.829,1249.582Z" transform="translate(-1244.461 -1230.044)" fill="none" stroke="#00224d" stroke-miterlimit="10" stroke-width="3.826"/>
    </g>
    <path id="Trazado_226559" data-name="Trazado 226559" d="M1051.977,208.128a4.651,4.651,0,0,1,4.651-4.651h17.186a6.547,6.547,0,0,0,.086-.843h0a6.765,6.765,0,0,0-6.25-6.722,10,10,0,0,0-19.117-5.241,6.981,6.981,0,0,0-11.63,5.215h-1.3a6.768,6.768,0,0,0-6.748,6.748h0a6.768,6.768,0,0,0,6.748,6.747h16.379Z" transform="translate(-600.492)" fill="#cce0ff"/>
    <g id="Grupo_165840" data-name="Grupo 165840" transform="translate(344.575 224.571)">
      <path id="Trazado_226560" data-name="Trazado 226560" d="M663.684,389.629c2.393-14.178,24.227-20.578,23.8-11.325l100.087.586c6.932.041,12.553,6.277,12.559,13.936l.208,263.228c.006,7.935-5.713,14.422-12.778,14.483l-102.173.877a8.175,8.175,0,0,1-3.691,3.555c-11.717.25-17.337-5.537-19.39-12.079a15.755,15.755,0,0,1-1.016-5.742C661.7,653.722,662.944,392.953,663.684,389.629Z" transform="translate(-661.289 -373.972)" fill="url(#linear-gradient)"/>
      <path id="Trazado_226561" data-name="Trazado 226561" d="M713.6,675.151l117.279-.756c7.318-.047,13.238-6.71,13.225-14.875l-.44-270.706c-.013-7.873-5.839-14.268-13.016-14.292l-115-.374c-7.234-.023-13.15,6.363-13.21,14.272l-2.084,271.958C700.286,668.581,706.219,675.2,713.6,675.151Z" transform="translate(-692.097 -374.111)" fill="#fff"/>
      <path id="Trazado_226562" data-name="Trazado 226562" d="M718.247,679.921a10.578,10.578,0,0,0,1.482.093l117.243-.887c6.289-.048,11.429-5.889,11.418-13.016L847.985,395.7c-.01-6.873-5.069-12.482-11.238-12.509l-114.993-.5c-.18,0-.362,0-.54.011a10.881,10.881,0,0,0-7.619,3.708,13,13,0,0,0-3.24,8.609L708.3,667.255C708.25,673.707,712.512,679.153,718.247,679.921Z" transform="translate(-698.367 -380.85)"/>
      <path id="Trazado_226563" data-name="Trazado 226563" d="M729.741,447.535,727.764,718.82l132.08-.791-.337-270.495Z" transform="translate(-713.721 -431.995)" fill="#1565c0"/>
      <g id="login" transform="translate(31.701 46.119)">
        <path id="Trazado_226628" data-name="Trazado 226628" d="M5.022,0H37.667a5.022,5.022,0,0,1,0,10.044H5.022A5.022,5.022,0,1,1,5.022,0Z" transform="translate(67.524 108.226) rotate(-180)" fill="#e2c140"/>
        <path id="Trazado_226564" data-name="Trazado 226564" d="M816.377,890.621h84.411a5.037,5.037,0,0,0,5.022-5.022h0a5.037,5.037,0,0,0-5.022-5.022H816.377a5.037,5.037,0,0,0-5.022,5.022h0A5.037,5.037,0,0,0,816.377,890.621Z" transform="translate(-811.355 -819.678)" fill="#fff"/>
        <rect id="Rectángulo_49087" data-name="Rectángulo 49087" width="94.455" height="10.044" rx="5.022" transform="translate(94.455 87.119) rotate(180)" fill="#fff"/>
        <g id="Grupo_165833" data-name="Grupo 165833" transform="translate(25.173 80.773)">
          <circle id="Elipse_11420" data-name="Elipse 11420" cx="1.768" cy="1.768" r="1.768" transform="translate(48.498)" fill="#80b2ff"/>
          <circle id="Elipse_11421" data-name="Elipse 11421" cx="1.768" cy="1.768" r="1.768" transform="translate(42.436)" fill="#80b2ff"/>
          <circle id="Elipse_11422" data-name="Elipse 11422" cx="1.768" cy="1.768" r="1.768" transform="translate(36.374)" fill="#80b2ff"/>
          <circle id="Elipse_11423" data-name="Elipse 11423" cx="1.768" cy="1.768" r="1.768" transform="translate(30.311)" fill="#80b2ff"/>
          <circle id="Elipse_11424" data-name="Elipse 11424" cx="1.768" cy="1.768" r="1.768" transform="translate(24.249)" fill="#80b2ff"/>
          <circle id="Elipse_11425" data-name="Elipse 11425" cx="1.768" cy="1.768" r="1.768" transform="translate(18.187)" fill="#80b2ff"/>
          <circle id="Elipse_11426" data-name="Elipse 11426" cx="1.768" cy="1.768" r="1.768" transform="translate(12.125)" fill="#80b2ff"/>
          <circle id="Elipse_11427" data-name="Elipse 11427" cx="1.768" cy="1.768" r="1.768" transform="translate(6.062)" fill="#80b2ff"/>
          <circle id="Elipse_11428" data-name="Elipse 11428" cx="1.768" cy="1.768" r="1.768" fill="#80b2ff"/>
        </g>
        <g id="Grupo_165836" data-name="Grupo 165836" transform="translate(19.758 0)">
          <circle id="Elipse_11429" data-name="Elipse 11429" cx="19.404" cy="19.404" r="19.404" transform="translate(0 27.441) rotate(-45)" fill="#fff"/>
          <g id="Grupo_165835" data-name="Grupo 165835" transform="translate(16.654 14.419)">
            <g id="Grupo_165834" data-name="Grupo 165834" transform="translate(4.687)">
              <path id="Trazado_226565" data-name="Trazado 226565" d="M1011.985,672.789a6.128,6.128,0,0,1-4.76-2.332,5.973,5.973,0,0,1-1.312-3.789,6.1,6.1,0,1,1,12.193,0,5.968,5.968,0,0,1-1.312,3.789A6.151,6.151,0,0,1,1011.985,672.789Z" transform="translate(-1005.913 -660.547)" fill="#005cea"/>
            </g>
            <path id="Trazado_226566" data-name="Trazado 226566" d="M983.73,735.725c0,3.863,21.57,3.863,21.57,0l-.007-4.5c-.853-6.154-19.81-6.412-21.567,0Z" transform="translate(-983.726 -712.577)" fill="#005cea"/>
          </g>
        </g>
        <path id="Trazado_226567" data-name="Trazado 226567" d="M1213.422,968.156v3.562c0,.615,4.565.615,4.565,0v-3.562h-.3v-.269a1.976,1.976,0,1,0-3.952,0v.269Zm3.561,0h-2.557v-.269a1.279,1.279,0,1,1,2.557,0Zm-1.9,1.266a.633.633,0,0,1,1.266,0,.6.6,0,0,1-.317.528v1.029a.3.3,0,0,1-.316.316.327.327,0,0,1-.343-.316v-1.029A.635.635,0,0,1,1215.084,969.423Z" transform="translate(-1128.487 -886.986)" fill="#4d4d4d"/>
        <g id="Grupo_165839" data-name="Grupo 165839" transform="translate(31.78 62.973)">
          <g id="Grupo_165838" data-name="Grupo 165838" transform="translate(53.168)">
            <g id="Grupo_165837" data-name="Grupo 165837" transform="translate(0.989)">
              <path id="Trazado_226568" data-name="Trazado 226568" d="M1219.448,892.981a1.293,1.293,0,0,1-1-.492,1.26,1.26,0,0,1-.277-.8,1.287,1.287,0,1,1,2.573,0,1.258,1.258,0,0,1-.277.8A1.3,1.3,0,0,1,1219.448,892.981Z" transform="translate(-1218.166 -890.398)" fill="#4d4d4d"/>
            </g>
            <path id="Trazado_226569" data-name="Trazado 226569" d="M1213.485,906.262c0,.815,4.575.815,4.575,0l-.024-.95c-.18-1.3-4.181-1.353-4.552,0Z" transform="translate(-1213.484 -901.377)" fill="#4d4d4d"/>
          </g>
          <path id="Trazado_226570" data-name="Trazado 226570" d="M1078.763,900.322h18.5a1.478,1.478,0,0,0,1.474-1.474h0a1.478,1.478,0,0,0-1.474-1.474h-18.5a1.478,1.478,0,0,0-1.474,1.474h0A1.478,1.478,0,0,0,1078.763,900.322Z" transform="translate(-1052.892 -895.901)" fill="#80b2ff"/>
          <path id="Trazado_226571" data-name="Trazado 226571" d="M963.27,900.322h18.5a1.478,1.478,0,0,0,1.474-1.474h0a1.478,1.478,0,0,0-1.474-1.474h-18.5a1.478,1.478,0,0,0-1.474,1.474h0A1.478,1.478,0,0,0,963.27,900.322Z" transform="translate(-961.796 -895.901)" fill="#80b2ff"/>
        </g>
      </g>
    </g>
    <g id="key" transform="translate(396.68 407.137)">
      <path id="Trazado_226572" data-name="Trazado 226572" d="M950.361,1362.212v37.458c0,4.163-54.366,4.163-54.366,0v-37.458Z" transform="translate(-895.995 -1336.018)" fill="#fff"/>
      <g id="Grupo_165841" data-name="Grupo 165841" transform="translate(20.471 34.054)">
        <ellipse id="Elipse_11430" data-name="Elipse 11430" cx="6.712" cy="6.288" rx="6.712" ry="6.288" fill="#1565c0"/>
        <path id="Rectángulo_49088" data-name="Rectángulo 49088" d="M2.751,0h0A2.751,2.751,0,0,1,5.5,2.751V17a0,0,0,0,1,0,0H0a0,0,0,0,1,0,0V2.751A2.751,2.751,0,0,1,2.751,0Z" transform="translate(9.463 25.225) rotate(-180)" fill="#1565c0"/>
      </g>
      <path id="Trazado_226573" data-name="Trazado 226573" d="M918.551,1261.739h5.5v-2.522c0-8.739,7.589-15.848,16.915-15.848s16.917,7.11,16.917,15.848v2.522h5.5v-2.522c0-11.581-10.057-21-22.419-21s-22.417,9.422-22.417,21Z" transform="translate(-913.786 -1238.214)" fill="#fff"/>
    </g>
    <path id="Trazado_226574" data-name="Trazado 226574" d="M397.469,1798.131H830.264a1.217,1.217,0,0,0,1.29-1.127h0a1.217,1.217,0,0,0-1.29-1.128H397.469a1.217,1.217,0,0,0-1.29,1.128h0A1.217,1.217,0,0,0,397.469,1798.131Z" transform="translate(-126.158 -1270.937)" fill="#003c99"/>
    <g id="Grupo_165845" data-name="Grupo 165845" transform="translate(236.233 355.452)">
      <g id="Grupo_165843" data-name="Grupo 165843">
        <g id="Grupo_165842" data-name="Grupo 165842">
          <path id="Trazado_226575" data-name="Trazado 226575" d="M236.233,1131.952h0c0-.21,0-.3,0-.324C236.234,1131.667,236.233,1131.952,236.233,1131.952Z" transform="translate(-236.233 -1102.459)" fill="#d9ffff"/>
          <path id="Trazado_226576" data-name="Trazado 226576" d="M236.233,1131.952h0c0-.21,0-.3,0-.324C236.234,1131.667,236.233,1131.952,236.233,1131.952Z" transform="translate(-236.233 -1102.459)" fill="#d9ffff"/>
          <path id="Trazado_226577" data-name="Trazado 226577" d="M830.386,1134.608s0-.286,0-.324c0,.021,0,.114,0,.324Z" transform="translate(-704.875 -1104.554)" fill="#d9ffff"/>
          <path id="Trazado_226578" data-name="Trazado 226578" d="M830.386,1134.608s0-.286,0-.324c0,.021,0,.114,0,.324Z" transform="translate(-704.875 -1104.554)" fill="#d9ffff"/>
          <path id="Trazado_226579" data-name="Trazado 226579" d="M310.323,993.546c-13.894,14.882-36.063,27.079-59.787,32.276-.007,1.584-.046,10.363-.227,50.823-.241,53.974,51.126,80.35,59.1,84.4,7.727-3.556,59.742-29.891,59.983-83.865.181-40.461.22-49.24.227-50.824C345.944,1020.946,324.083,1008.552,310.323,993.546Z" transform="translate(-247.335 -993.546)" fill="#fff"/>
        </g>
      </g>
      <g id="Grupo_165844" data-name="Grupo 165844" transform="translate(6.662 5.854)">
        <path id="Trazado_226580" data-name="Trazado 226580" d="M323.971,1021.256c-14.323,13.139-34.166,23.466-55.985,29.095l-.215,48.142c-.1,22.028,8.653,41.956,26.011,59.232a124.451,124.451,0,0,0,29.482,21.557c.262-.133.549-.283.832-.43V1021.368C324.055,1021.331,324.012,1021.294,323.971,1021.256Z" transform="translate(-267.77 -1021.256)" fill="#80b2ff"/>
        <path id="Trazado_226581" data-name="Trazado 226581" d="M534.409,1021.788v157.483a124.48,124.48,0,0,0,28.843-20.863c17.511-17.12,26.441-36.969,26.539-59l.215-48.143C568.3,1045.463,548.6,1035,534.409,1021.788Z" transform="translate(-478.083 -1021.676)" fill="#4d93ff"/>
      </g>
      <path id="Trazado_226582" data-name="Trazado 226582" d="M429.841,1250.216c-16.611,2.562-39.231,17.712-53.5,35.93-2-8.59-10.988-16.431-15.689-18.146l-14.243,14.316c8.893,4.007,18.611,15.363,19.9,26.988l14.228,2.2c6-11.849,21.491-40.194,52.313-55.434A23.357,23.357,0,0,0,429.841,1250.216Z" transform="translate(-323.134 -1195.996)" fill="#0046b3"/>
    </g>
    <g id="Grupo_165864" data-name="Grupo 165864" transform="translate(579.827 266.25)">
      <g id="Grupo_165847" data-name="Grupo 165847" transform="translate(36.788 38.113)">
        <path id="Trazado_226583" data-name="Trazado 226583" d="M1822,815.023l40.287-.268,34.65-.359.15,5.257c-12.044,4.651-21.5,6.057-33.491,6.949-12.151,4.035-28.239,6.7-40.685,7.578C1811.965,834.7,1811.054,815.543,1822,815.023Z" transform="translate(-1806.189 -801.151)" fill="#f7a594"/>
        <path id="Trazado_226584" data-name="Trazado 226584" d="M1809.831,808.5c-4.837-.092-19.148-1.608-28.068-.557-8.071,3.315-6.069,17.392-2.371,19.605-.011.4,15.658,4.771,31.511.119C1813.289,824.871,1812.481,811.285,1809.831,808.5Z" transform="translate(-1776.163 -795.768)" fill="#112e59"/>
        <path id="Trazado_226585" data-name="Trazado 226585" d="M1920.069,828.164c-2.513.894-4.873,1.462-6.639.739-1.047.05-2.211-21.037-1.164-21.087l6.594-.314C1920.954,807.4,1922.162,828.064,1920.069,828.164Z" transform="translate(-1883.192 -795.713)" fill="#1d498c"/>
        <g id="Grupo_165846" data-name="Grupo 165846" transform="translate(85.812)">
          <path id="Trazado_226586" data-name="Trazado 226586" d="M2183.311,765.369c1.173-5.427,3.046-13.145,5.322-13.253.491-.023.563.293.539,1.738-1.132,9.647,1.473,12.263.214,14.989-1.384,2.642-5.2,2.59-5.2,2.59C2182.053,770.476,2181.879,766.9,2183.311,765.369Z" transform="translate(-2182.383 -752.026)" fill="#f7a594"/>
          <path id="Trazado_226587" data-name="Trazado 226587" d="M2199.1,783.161l2.374-7.006a1.653,1.653,0,0,1,1.223,2.123c-.326,1.852-.721,3.846-.721,3.846s1.855,4.01.378,5.67S2198.333,787.832,2199.1,783.161Z" transform="translate(-2195.459 -770.988)" fill="#f7a594"/>
          <path id="Trazado_226588" data-name="Trazado 226588" d="M2202.877,787.1l-.181-.058a7.787,7.787,0,0,0-.608-5.273l-.016-.03.007-.033c0-.02.4-2.014.721-3.844a1.676,1.676,0,0,0-.458-1.668,1.632,1.632,0,0,0-.611-.327l-2.345,6.924-.18-.061,2.4-7.083.08.014a1.784,1.784,0,0,1,.779.389,1.845,1.845,0,0,1,.521,1.845c-.3,1.7-.663,3.551-.715,3.816A7.947,7.947,0,0,1,2202.877,787.1Z" transform="translate(-2195.652 -770.587)" fill="#d97b69"/>
          <path id="Trazado_226589" data-name="Trazado 226589" d="M2194.019,760.53l-.184-.046c.085-.334,2.083-8.177,3.8-8.786l.063.179C2196.075,752.451,2194.039,760.449,2194.019,760.53Z" transform="translate(-2191.416 -751.697)" fill="#d97b69"/>
        </g>
      </g>
      <g id="Grupo_165849" data-name="Grupo 165849" transform="translate(0 98.983)">
        <g id="Grupo_165848" data-name="Grupo 165848" transform="translate(0 138.983)">
          <path id="Trazado_226590" data-name="Trazado 226590" d="M1608.519,1719.463h18.535a2.062,2.062,0,0,0,.8-.745,169.152,169.152,0,0,1,1.352-20.422l-12.934-.526-2.431,10.256C1609.652,1710.981,1604.8,1717.323,1608.519,1719.463Z" transform="translate(-1606.098 -1697.77)" fill="#231f20"/>
          <path id="Trazado_226591" data-name="Trazado 226591" d="M1624.385,1790.225h-21.974c-.557,0-.516-3.056.041-3.056l21.849.123C1624.874,1787.292,1624.959,1790.225,1624.385,1790.225Z" transform="translate(-1602.012 -1768.284)" fill="#231f20"/>
        </g>
        <path id="Trazado_226592" data-name="Trazado 226592" d="M1645.643,1055.877c-1.312,10.205-6.92,35.413-6.316,63.132-6.073,35.328-6.742,43.109-7.479,64.9l18.527.693c2.965-15.216,9.051-39.234,11.807-62.667,5.987-18.465,9.911-44.782,11.839-65.677C1675.965,1038.248,1650.506,1030.967,1645.643,1055.877Z" transform="translate(-1625.545 -1039.846)" fill="#112e59"/>
        <path id="Trazado_226593" data-name="Trazado 226593" d="M1673.309,1270.649l-.379-.006c.034-2.512,7.562-87.473,15.21-121.917l.37.083C1680.867,1183.232,1673.343,1268.138,1673.309,1270.649Z" transform="translate(-1657.949 -1125.726)" fill="#231f20"/>
      </g>
      <g id="Grupo_165850" data-name="Grupo 165850" transform="translate(38.477 97.328)">
        <path id="Trazado_226594" data-name="Trazado 226594" d="M1784.4,1050.944a415.39,415.39,0,0,0,10.3,65c-1.506,23.98,2.747,47.005,5.772,62.756l17.625-.158c1.021-15.42-1.16-98.892-5.72-127.2C1810.2,1026.314,1781.252,1024.975,1784.4,1050.944Z" transform="translate(-1784.158 -1032.014)" fill="#112e59"/>
        <path id="Trazado_226595" data-name="Trazado 226595" d="M1873.588,1725.833c-.788,5.68-1.338,10.112-.647,15.252l28.824.561s2.718-2.776-1.065-6.94-10.474-1.755-15.229-9.031Z" transform="translate(-1853.938 -1579.143)" fill="#231f20"/>
        <path id="Trazado_226596" data-name="Trazado 226596" d="M1900.978,1790.225h-30.595c-.557,0-.557-3.056,0-3.056l30.471.123C1901.427,1787.292,1901.551,1790.225,1900.978,1790.225Z" transform="translate(-1851.839 -1627.647)" fill="#231f20"/>
        <rect id="Rectángulo_49089" data-name="Rectángulo 49089" width="0.379" height="121.53" transform="translate(23.615 24.97) rotate(-2.847)" fill="#231f20"/>
      </g>
      <path id="Trazado_226597" data-name="Trazado 226597" d="M1708.26,874.633l-45.814,3.491c.416-28.685-12.537-48.493-9.841-55.88,3.705-10.149,30.708-10.22,40.993-6.263,4.084,1.572,10.726,10.659,11.509,22.093a76.773,76.773,0,0,1-.246,13.222C1704.342,855.55,1708.26,874.633,1708.26,874.633Z" transform="translate(-1641.626 -762.368)" fill="#112e59"/>
      <path id="Trazado_226598" data-name="Trazado 226598" d="M1739.708,771.04c-2.13-1.691-10.625-4.3-12.885-6.152l.51-14.747,8.353-.813a24.82,24.82,0,0,1,6.929,1.6l1.88,9.71.415,2.105C1745.856,764.821,1743.981,767.32,1739.708,771.04Z" transform="translate(-1700.458 -711.715)" fill="#f7a594"/>
      <path id="Trazado_226599" data-name="Trazado 226599" d="M1742.544,764.358a18.661,18.661,0,0,0,14.351,7.162l-1.627-8.4Z" transform="translate(-1712.858 -722.593)" fill="#e6836f"/>
      <g id="Grupo_165853" data-name="Grupo 165853" transform="translate(13.991)">
        <g id="Grupo_165851" data-name="Grupo 165851" transform="translate(5.669 10.391)">
          <path id="Trazado_226600" data-name="Trazado 226600" d="M1730.021,636.852c.655,2.906,2.005,9.284,1.784,12.222-.336,4.472-4.513,9.433-8.156,10.084-4.217.43-9.9-.826-12.988-3.478a42.552,42.552,0,0,1-6.573-10.969c-3.192-8.719,2.97-16.366,10.787-18.132S1727.979,627.794,1730.021,636.852Z" transform="translate(-1701.507 -624.905)" fill="#f7a594"/>
          <path id="Trazado_226601" data-name="Trazado 226601" d="M1700.28,646.031c-1.63-2.869.536-4.031,2.91-1.8-.406-2.165-2.874-8.508-.688-10.611,2.469-2.44,13.335-1.379,19.172-7.465,0,0-4.351-9.539-18.632-3.906C1686.914,630.8,1700.28,646.031,1700.28,646.031Z" transform="translate(-1695.081 -620.465)" fill="#4d261c"/>
          <ellipse id="Elipse_11431" data-name="Elipse 11431" cx="2.736" cy="3.52" rx="2.736" ry="3.52" transform="translate(0.747 23.61) rotate(-39.724)" fill="#f7a594"/>
        </g>
        <path id="Trazado_226602" data-name="Trazado 226602" d="M1736.209,649.156c-1.814-.555-23.428,8.033-22.859,9.638,0,0,15.649.072,26.408-4.826C1745.631,651.294,1736.209,649.156,1736.209,649.156Z" transform="translate(-1703.813 -632.684)" fill="#112e59"/>
        <path id="Trazado_226603" data-name="Trazado 226603" d="M1688.794,646.215l26.254-11.065-.9-3.719-27.813,11.475A8.184,8.184,0,0,0,1688.794,646.215Z" transform="translate(-1682.516 -618.724)" fill="#1d498c"/>
        <path id="Trazado_226604" data-name="Trazado 226604" d="M1671.309,596.286c-2.872,1.094-4.411-.659-1.51-4,4.475-5.149,7.53-18.319,14.176-20.706,4.58-1.646,8.046,3.717,14.125,7.049,2.757,1.511,4.3,3.091,3.268,4.947C1698.227,585.93,1674.316,595.14,1671.309,596.286Z" transform="translate(-1668.244 -571.276)" fill="#112e59"/>
        <g id="Grupo_165852" data-name="Grupo 165852" transform="translate(15.197 4.612)">
          <path id="Trazado_226605" data-name="Trazado 226605" d="M1746.28,593.765l-.055-.147a7,7,0,0,1-1.941,0,5.62,5.62,0,0,1-1.7-.508h0l0,.007a5.049,5.049,0,0,1-.4.759,6.386,6.386,0,0,1-.76.966c-.146.154-.3.305-.46.448a6.929,6.929,0,0,1-.779.592c.019.05.09.242.329.877l.164.437.1.263c.1.279.227.605.371.989a4.263,4.263,0,0,0,.767,1.3,4.415,4.415,0,0,0,.322.335,4.994,4.994,0,0,0,1.067.756,6.259,6.259,0,0,0,1.07.445,6.97,6.97,0,0,0,1.105.25c.131.018.231.028.288.032a7.064,7.064,0,0,0,.682-.855,6.78,6.78,0,0,0,.364-.6c.059-.11.117-.226.172-.345a4.552,4.552,0,0,0,.2-3.578C1746.613,594.651,1746.375,594.019,1746.28,593.765Z" transform="translate(-1740.183 -593.108)" fill="#f7bd0c"/>
          <path id="Trazado_226606" data-name="Trazado 226606" d="M1753.186,604.6a2.1,2.1,0,1,1-2.693-1.231A2.091,2.091,0,0,1,1753.186,604.6Z" transform="translate(-1747.232 -601.094)" fill="#fff"/>
        </g>
      </g>
      <g id="Grupo_165854" data-name="Grupo 165854" transform="translate(24.512 48.697)">
        <path id="Trazado_226607" data-name="Trazado 226607" d="M1782.656,832.133l1.381,2.894.212-3.074,1.862,4.942a5.518,5.518,0,0,0-2.042-1.54,5.7,5.7,0,0,0-2.552,2.666Z" transform="translate(-1768.11 -825.582)" fill="#231f20"/>
        <path id="Trazado_226608" data-name="Trazado 226608" d="M1720,806.194c2.062,2.659,8.769,4.48,12.593,5.622l-1.14,5.888c-4.594-1.551-10.533-3.312-13.2-8.809C1717.659,807.4,1718.378,806.568,1720,806.194Z" transform="translate(-1718.05 -805.266)" fill="#1d498c"/>
        <path id="Trazado_226609" data-name="Trazado 226609" d="M1797.866,801.8c-.2.968-.362,4.764-3.414,6.37l1.862,4.942c4.208-2.408,4.429-4.639,3.782-8.138C1799.831,803.581,1799.366,802.089,1797.866,801.8Z" transform="translate(-1778.313 -801.799)" fill="#1d498c"/>
      </g>
      <path id="Trazado_226610" data-name="Trazado 226610" d="M1800.131,903.773a.19.19,0,0,1-.188-.169c-.471-4.372-.853-9.585-1.257-15.1-1.1-15.037-2.349-32.081-5.969-41.08a.19.19,0,0,1,.352-.142c3.641,9.054,4.892,26.129,6,41.194.4,5.516.785,10.727,1.255,15.092a.189.189,0,0,1-.168.209Z" transform="translate(-1752.421 -788.881)" fill="#231f20"/>
      <path id="Trazado_226611" data-name="Trazado 226611" d="M1691.732,1096.86c8.956,2.4,44.07,1.482,45.468.411,2.136-.48,2.618,7.2,1.378,9.052-1.894,2.829-47,2.378-48.43.343S1689.2,1096.182,1691.732,1096.86Z" transform="translate(-1670.904 -985.803)" fill="#231f20"/>
      <g id="Grupo_165856" data-name="Grupo 165856" transform="translate(48.891 68.027)">
        <g id="Grupo_165855" data-name="Grupo 165855" transform="translate(0.373)">
          <path id="Trazado_226612" data-name="Trazado 226612" d="M1841.473,894.79c-.011-.088-.016-.132-.018-.152a6.8,6.8,0,0,1-1.832-.455,5.47,5.47,0,0,1-1.489-.877h0l0,.006a4.9,4.9,0,0,1-.552.625,6.183,6.183,0,0,1-.943.734c-.174.112-.352.219-.54.316a6.662,6.662,0,0,1-.874.377l.106.906c.015.131.033.281.053.451l.031.271.12,1.021a4.137,4.137,0,0,0,.42,1.4,4.236,4.236,0,0,0,.225.392,4.881,4.881,0,0,0,.83.964,6.125,6.125,0,0,0,.907.671,6.709,6.709,0,0,0,.984.494c.12.049.212.081.266.1a7,7,0,0,0,.844-.648,6.723,6.723,0,0,0,.484-.481c.081-.09.163-.186.244-.286a4.429,4.429,0,0,0,1.031-3.332C1841.58,895.705,1841.5,895.052,1841.473,894.79Z" transform="translate(-1835.22 -893.305)" fill="#e2c140"/>
        </g>
        <rect id="Rectángulo_49090" data-name="Rectángulo 49090" width="8.869" height="1.626" transform="translate(0 10.987) rotate(-5.561)" fill="#1d498c"/>
      </g>
      <path id="Trazado_226613" data-name="Trazado 226613" d="M1818.985,1170.708h-2.711l.056-.233c1.217-5.148,1.384-17.67,1.385-17.8l.379,0c0,.124-.164,12.324-1.342,17.645h1.924c.249-1.26,1.936-10.132,1.511-17.329l.378-.023c.46,7.778-1.528,17.482-1.548,17.58Z" transform="translate(-1771.012 -1029.861)" fill="#231f20"/>
      <g id="Grupo_165857" data-name="Grupo 165857" transform="translate(0.997 55.157)">
        <path id="Trazado_226614" data-name="Trazado 226614" d="M1613.793,962.92s-3.566,20.181.069,27.3c3.756,7.355,38.435,8.955,38.435,8.955l1.244-10.437-23.9-6.063,5.19-15.456Z" transform="translate(-1611.068 -935.344)" fill="#f7a594"/>
        <path id="Trazado_226615" data-name="Trazado 226615" d="M1623.062,834a53.222,53.222,0,0,0-10.481,29.9c13.131,9.573,21.783,2.676,21.783,2.676s6.659-17.6,5.182-26.162S1626.043,830.893,1623.062,834Z" transform="translate(-1611.346 -832.38)" fill="#112e59"/>
        <path id="Trazado_226616" data-name="Trazado 226616" d="M1608.417,956.624c1.778,2.164,22.186,6.386,22.608,4.01a6.692,6.692,0,0,1-1.384,6.548c-.519,3.3-22.645-.175-22.125-3.475Q1605.587,960.645,1608.417,956.624Z" transform="translate(-1606.734 -930.378)" fill="#1d498c"/>
        <path id="Trazado_226617" data-name="Trazado 226617" d="M1721.014,940.335a.186.186,0,0,1-.1-.026.19.19,0,0,1-.067-.26,30.975,30.975,0,0,0,3.39-9.249.189.189,0,1,1,.371.075,31.355,31.355,0,0,1-3.435,9.367A.189.189,0,0,1,1721.014,940.335Z" transform="translate(-1696.724 -909.89)" fill="#231f20"/>
      </g>
      <g id="Grupo_165863" data-name="Grupo 165863" transform="translate(27.437 64.941)">
        <g id="Grupo_165861" data-name="Grupo 165861">
          <g id="Grupo_165859" data-name="Grupo 165859">
            <g id="Grupo_165858" data-name="Grupo 165858">
              <path id="Trazado_226618" data-name="Trazado 226618" d="M1733.316,968.527h0c0-.12,0-.173,0-.185C1733.318,968.364,1733.316,968.527,1733.316,968.527Z" transform="translate(-1733.016 -949.405)" fill="#d9ffff"/>
              <path id="Trazado_226619" data-name="Trazado 226619" d="M1733.316,968.527h0c0-.12,0-.173,0-.185C1733.318,968.364,1733.316,968.527,1733.316,968.527Z" transform="translate(-1733.016 -949.405)" fill="#d9ffff"/>
              <path id="Trazado_226620" data-name="Trazado 226620" d="M2074.073,972.279s0-.163,0-.185c0,.012,0,.065,0,.185Z" transform="translate(-2001.79 -952.365)" fill="#d9ffff"/>
              <path id="Trazado_226621" data-name="Trazado 226621" d="M2074.073,972.279s0-.163,0-.185c0,.012,0,.065,0,.185Z" transform="translate(-2001.79 -952.365)" fill="#d9ffff"/>
              <path id="Trazado_226622" data-name="Trazado 226622" d="M1768.462,878.7c-8.447,8.89-21.882,16.132-36.226,19.161-.011.952-.07,6.228-.339,30.544-.361,32.438,30.549,48.493,35.348,50.957,4.679-2.107,36.19-17.728,36.55-50.166.27-24.316.328-29.592.339-30.544C1789.86,895.308,1776.71,887.772,1768.462,878.7Z" transform="translate(-1731.893 -878.699)" fill="#fff"/>
            </g>
          </g>
          <g id="Grupo_165860" data-name="Grupo 165860" transform="translate(3.916 5.862)">
            <path id="Trazado_226623" data-name="Trazado 226623" d="M1782.96,906.45c-8.264,7.447-19.684,13.268-32.22,16.4l-.305,27.484c-.14,12.576,4.8,23.985,14.694,33.914a71.362,71.362,0,0,0,16.828,12.418c.15-.075.315-.16.478-.242l.6-89.908C1783.008,906.493,1782.983,906.472,1782.96,906.45Z" transform="translate(-1750.433 -906.45)" fill="#007880"/>
            <path id="Trazado_226624" data-name="Trazado 226624" d="M1902.528,906.756l-.6,89.908a71.4,71.4,0,0,0,16.621-11.8c10.108-9.708,15.3-21.006,15.444-33.581l.306-27.484C1921.876,920.4,1910.619,914.353,1902.528,906.756Z" transform="translate(-1869.929 -906.691)" fill="#008f99"/>
          </g>
        </g>
        <g id="Grupo_165862" data-name="Grupo 165862" transform="translate(21.571 30.65)">
          <path id="Trazado_226625" data-name="Trazado 226625" d="M1834.149,1093.833l-.141,21.293c-.016,2.37,29.066,2.561,29.082.191l.141-21.292Zm15.937,11.412-.04,6.035a1.471,1.471,0,1,1-2.942-.019l.04-6.048a3.578,3.578,0,1,1,2.942.033Z" transform="translate(-1834.008 -1079.037)" fill="#fff"/>
          <path id="Trazado_226626" data-name="Trazado 226626" d="M1870.771,1037.244l-2.944-.019.009-1.434a9.051,9.051,0,0,0-18.1-.119l-.01,1.434-2.944-.019.009-1.433a11.995,11.995,0,0,1,23.989.157Z" transform="translate(-1844.084 -1023.792)" fill="#fff"/>
        </g>
      </g>
    </g>
  </g>
</svg>
