<svg xmlns="http://www.w3.org/2000/svg" xmlns:xlink="http://www.w3.org/1999/xlink" width="1007.365" height="461.4" viewBox="0 0 1007.365 461.4">
  <defs>
    <clipPath id="clip-path">
      <rect id="Rectángulo_262997" data-name="Rectángulo 262997" width="647.459" height="458.587" fill="none"/>
    </clipPath>
    <clipPath id="clip-path-2">
      <path id="Trazado_465779" data-name="Trazado 465779" d="M766.188,744.364,764.4,781.629s-2.3,44.245,7.328,133.9h15.249s.964-113.142,4.3-143.825H806.98c3.334,30.683,4.545,143.825,4.545,143.825h15.249c9.628-89.658,7.323-133.9,7.323-133.9l-1.317-37.265Z" transform="translate(-764.155 -744.364)" fill="none"/>
    </clipPath>
    <linearGradient id="linear-gradient" x1="-3.52" y1="1.154" x2="-3.516" y2="1.154" gradientUnits="objectBoundingBox">
      <stop offset="0" stop-color="#403a49"/>
      <stop offset="0.266" stop-color="#403a49"/>
      <stop offset="0.817" stop-color="#323041"/>
      <stop offset="1" stop-color="#2d2c3f"/>
    </linearGradient>
    <clipPath id="clip-path-4">
      <path id="Trazado_465785" data-name="Trazado 465785" d="M830.815,403.948c-6.709,10.89-3.454,16.151,1.385,18.8l-3.343,6.1a6.663,6.663,0,0,0,11.686,6.406l12.627-23.033-.023-.013c3.251-6.268,4.748-11.46-2.811-15.6-2.109-1.156-4.51-2.473-7.235-2.473-3.528,0-7.6,2.2-12.286,9.814" transform="translate(-827.01 -394.134)" fill="none"/>
    </clipPath>
    <clipPath id="clip-path-6">
      <path id="Trazado_465792" data-name="Trazado 465792" d="M902.891,605.586s18.407-2.166,23.1-13.715l-9.259-23.86L914.324,549.1c5.375,5.57,11.556,10.7,17.843,13.273,17.928,7.348,62.4-19.64,62.4-19.64l-2.076-11.483s-43.506,12.985-53.746,10.457-30.488-40.425-30.488-40.425l-.014.048-.008-.061-17.757-4.52Z" transform="translate(-890.477 -496.75)" fill="none"/>
    </clipPath>
    <linearGradient id="linear-gradient-2" x1="-2.188" y1="2.239" x2="-2.185" y2="2.239" xlink:href="#linear-gradient"/>
    <clipPath id="clip-path-7">
      <path id="Trazado_465793" data-name="Trazado 465793" d="M503.214,500.807s30.134,42.4,49.506,42.762c15.439.286,35.592-11.732,43.139-16.624l-3.476,34.4-11.254,26.237c4.692,11.55,23.1,13.716,23.1,13.716l12.414-108.836-17.757,4.52v-.028s-33.61,26.768-44.013,25.031-45.2-30.9-45.2-30.9Z" transform="translate(-503.214 -491.087)" fill="none"/>
    </clipPath>
    <linearGradient id="linear-gradient-3" x1="-1.183" y1="2.2" x2="-1.181" y2="2.2" xlink:href="#linear-gradient"/>
  </defs>
  <g id="Grupo_712073" data-name="Grupo 712073" transform="translate(3398.5 3507.788)">
    <g id="Grupo_709554" data-name="Grupo 709554" transform="translate(-3227 -3507.785)">
      <g id="Grupo_709539" data-name="Grupo 709539" transform="translate(0 -0.003)">
        <g id="Grupo_709538" data-name="Grupo 709538" clip-path="url(#clip-path)">
          <path id="Trazado_465768" data-name="Trazado 465768" d="M707.561,1237.914a4.33,4.33,0,0,1-.695,1.426c-4.038,5.681-16.2,5.6-21.816,6.35-11.218,1.49-22.554,2.495-33.822,3.094q-42.121,2.238-84.291,2.75c-34.093.4-68.189-.2-102.269-1.26q-25.118-.784-50.229-1.845c-12.471-.51-31-1.572-41.266-7.369-8.527-4.815,4.745-9.576,10.654-10.86,29.346-6.38,62.55-7.134,93.426-8.271,58.1-2.139,117.4-1.743,175.124,3.029,9.069.75,57.686,3.138,55.186,12.957" transform="translate(-240.642 -793.072)" fill="#eddbc3"/>
          <path id="Trazado_465769" data-name="Trazado 465769" d="M709.791,451.7c3.3-5.759,10.672-14.978,10.9-21.912.181-5.51.428-2.674-2.93-6.25-3.64-3.876-12.262-6.42-16.974-8.888l-20.563-10.767a120.968,120.968,0,0,0,1.645-30.185l26.664-8.338c3.452-1.079,15.876-2.749,18.068-5.645,3.648-4.823-6.012-27.051-7.775-33.538-1.74-6.4-3.045-18.138-7.786-23.2-3.767-4.024-1.588-2.194-6.491-2.348-5.315-.167-13.21,4.131-18.287,5.718l-24.852,7.771a120.7,120.7,0,0,0-18.452-21.5l13.929-26.6c1.678-3.2,9.283-13.169,8.784-16.768-.83-5.99-23.378-14.877-29.212-18.217-5.759-3.3-14.978-10.672-21.913-10.9-5.51-.181-2.673-.428-6.25,2.929-3.876,3.64-6.42,12.262-8.888,16.974l-12.26,23.415a120.716,120.716,0,0,0-28.186-2.88l-8.843-28.281c-1.079-3.453-2.748-15.877-5.645-18.068-4.823-3.648-27.051,6.012-33.537,7.775-6.4,1.74-18.138,3.044-23.2,7.786-4.024,3.768-2.193,1.588-2.348,6.491-.167,5.315,4.131,13.211,5.718,18.287l7.261,23.223a120.959,120.959,0,0,0-23.844,18.586l-23.747-12.434c-3.2-1.678-13.17-9.283-16.768-8.785-5.99.83-14.876,23.379-18.217,29.212-3.3,5.758-10.672,14.978-10.9,21.912-.181,5.51-.428,2.674,2.93,6.251,3.64,3.876,12.262,6.42,16.974,8.888l18.407,9.638a120.653,120.653,0,0,0-3.976,32.717L417.048,390.7c-3.452,1.08-15.876,2.749-18.068,5.646-3.648,4.822,6.012,27.051,7.775,33.537,1.74,6.4,3.045,18.138,7.786,23.2,3.767,4.024,1.588,2.194,6.491,2.348,5.315.167,13.21-4.131,18.287-5.718l17.119-5.353a120.861,120.861,0,0,0,21.99,27.093l-9.734,18.59c-1.678,3.2-9.283,13.17-8.784,16.768.83,5.99,23.378,14.877,29.212,18.217,5.759,3.3,14.978,10.673,21.912,10.9,5.509.182,2.674.429,6.251-2.929,3.876-3.64,6.42-12.262,8.888-16.974l8.064-15.4a120.87,120.87,0,0,0,34.8,2.588l6.429,20.56c1.079,3.452,2.748,15.876,5.645,18.068,4.823,3.648,27.05-6.012,33.537-7.775,6.4-1.74,18.138-3.044,23.2-7.786,4.023-3.767,2.193-1.588,2.348-6.491.167-5.314-4.131-13.21-5.718-18.287l-5.862-18.748A120.676,120.676,0,0,0,653.2,460.816l21.6,11.311c3.2,1.678,13.17,9.283,16.768,8.785,5.99-.83,14.876-23.379,18.217-29.212M479.643,339.6a91.489,91.489,0,1,1,38.613,123.49A91.593,91.593,0,0,1,479.643,339.6" transform="translate(-258.685 -138.645)" fill="#eddbc3"/>
          <path id="Trazado_465770" data-name="Trazado 465770" d="M809.735,619.578A54.065,54.065,0,1,1,786.916,546.6a54.065,54.065,0,0,1,22.819,72.976" transform="translate(-459.828 -351.108)" fill="#eddbc3"/>
          <path id="Trazado_465771" data-name="Trazado 465771" d="M1499.365,722.239c1.831-3.2,5.926-8.318,6.054-12.169.1-3.06.238-1.485-1.627-3.471-2.021-2.153-6.81-3.565-9.426-4.935l-11.42-5.979a67.161,67.161,0,0,0,.914-16.762l14.807-4.63c1.917-.6,8.816-1.526,10.034-3.135,2.026-2.678-3.339-15.022-4.318-18.624-.966-3.556-1.691-10.072-4.324-12.885-2.092-2.234-.882-1.218-3.6-1.3-2.951-.093-7.337,2.294-10.155,3.175l-13.8,4.315a67.035,67.035,0,0,0-10.247-11.939l7.735-14.773c.932-1.78,5.155-7.313,4.878-9.312-.461-3.326-12.983-8.261-16.222-10.117-3.2-1.831-8.318-5.926-12.169-6.054-3.06-.1-1.485-.238-3.471,1.627-2.152,2.021-3.566,6.81-4.936,9.426l-6.808,13a67.054,67.054,0,0,0-15.653-1.6l-4.911-15.7c-.6-1.917-1.526-8.817-3.135-10.034-2.678-2.026-15.022,3.338-18.624,4.318-3.556.966-10.073,1.691-12.885,4.324-2.235,2.092-1.219.882-1.3,3.6-.092,2.952,2.294,7.336,3.176,10.155l4.032,12.9a67.193,67.193,0,0,0-13.242,10.321l-13.187-6.9c-1.78-.931-7.314-5.155-9.312-4.878-3.326.461-8.261,12.983-10.116,16.222-1.831,3.2-5.926,8.318-6.054,12.169-.1,3.06-.238,1.485,1.627,3.471,2.021,2.153,6.81,3.565,9.427,4.936l10.222,5.352a67.007,67.007,0,0,0-2.208,18.169l-12.316,3.851c-1.917.6-8.817,1.527-10.034,3.135-2.026,2.678,3.339,15.022,4.318,18.624.967,3.556,1.691,10.072,4.324,12.885,2.092,2.235.881,1.218,3.6,1.3,2.951.093,7.336-2.294,10.155-3.176l9.507-2.973a67.113,67.113,0,0,0,12.211,15.046l-5.405,10.324c-.932,1.779-5.156,7.314-4.878,9.311.461,3.326,12.983,8.262,16.222,10.117,3.2,1.831,8.318,5.927,12.169,6.054,3.06.1,1.485.238,3.471-1.627,2.152-2.021,3.565-6.81,4.936-9.426l4.478-8.553a67.111,67.111,0,0,0,19.323,1.437q1.785,5.708,3.57,11.418c.6,1.917,1.526,8.817,3.135,10.034,2.678,2.026,15.022-3.338,18.624-4.318,3.556-.966,10.073-1.691,12.885-4.324,2.235-2.092,1.218-.882,1.3-3.6.093-2.951-2.295-7.336-3.176-10.155l-3.255-10.411A67.013,67.013,0,0,0,1467.94,727.3l12,6.281c1.78.932,7.314,5.156,9.312,4.878,3.326-.461,8.262-12.983,10.116-16.222m-127.808-62.253A50.807,50.807,0,1,1,1393,728.563a50.864,50.864,0,0,1-21.443-68.577" transform="translate(-861.695 -383.257)" fill="#eddbc3"/>
          <path id="Trazado_465772" data-name="Trazado 465772" d="M1554.866,815.466a30.024,30.024,0,1,1-12.672-40.526,30.024,30.024,0,0,1,12.672,40.526" transform="translate(-973.396 -501.244)" fill="#eddbc3"/>
          <path id="Trazado_465773" data-name="Trazado 465773" d="M132.012,423.654c1.4-2.44,4.521-6.345,4.618-9.283.077-2.334.181-1.133-1.241-2.648-1.542-1.642-5.195-2.72-7.191-3.765l-8.711-4.561a51.239,51.239,0,0,0,.7-12.787l11.3-3.532c1.462-.457,6.725-1.164,7.654-2.392,1.546-2.043-2.547-11.459-3.294-14.207-.737-2.713-1.29-7.684-3.3-9.829-1.6-1.7-.673-.929-2.75-.995-2.251-.071-5.6,1.75-7.747,2.422l-10.528,3.292a51.13,51.13,0,0,0-7.817-9.107l5.9-11.269c.711-1.357,3.933-5.579,3.721-7.1-.352-2.537-9.9-6.3-12.375-7.717-2.44-1.4-6.345-4.521-9.282-4.618-2.334-.077-1.133-.181-2.648,1.241-1.642,1.542-2.72,5.195-3.765,7.191l-5.193,9.919a51.131,51.131,0,0,0-11.94-1.22l-3.746-11.98c-.457-1.462-1.164-6.725-2.392-7.654-2.043-1.546-11.459,2.547-14.207,3.294-2.713.737-7.684,1.289-9.83,3.3-1.7,1.6-.929.673-.995,2.75-.071,2.251,1.75,5.6,2.422,7.747l3.076,9.838a51.251,51.251,0,0,0-10.1,7.873l-10.06-5.267c-1.358-.711-5.579-3.933-7.1-3.721-2.537.352-6.3,9.9-7.717,12.375-1.4,2.439-4.521,6.345-4.618,9.282-.077,2.334-.181,1.133,1.241,2.648,1.542,1.642,5.195,2.72,7.191,3.765l7.8,4.083a51.112,51.112,0,0,0-1.685,13.859L8,397.812c-1.463.457-6.726,1.164-7.654,2.392-1.545,2.043,2.547,11.459,3.294,14.207.737,2.713,1.29,7.684,3.3,9.829,1.6,1.7.673.929,2.75.995,2.251.071,5.6-1.75,7.747-2.422l7.252-2.267A51.2,51.2,0,0,0,34,432.022L29.878,439.9c-.71,1.357-3.933,5.579-3.721,7.1.352,2.537,9.9,6.3,12.375,7.717,2.44,1.4,6.345,4.521,9.283,4.618,2.334.077,1.133.181,2.648-1.241,1.642-1.542,2.72-5.194,3.765-7.191l3.416-6.524a51.215,51.215,0,0,0,14.74,1.1l2.724,8.71c.457,1.463,1.164,6.726,2.392,7.654,2.043,1.545,11.459-2.547,14.207-3.294,2.713-.737,7.684-1.29,9.83-3.3,1.7-1.6.929-.673.995-2.75.071-2.251-1.75-5.6-2.422-7.747l-2.483-7.942a51.134,51.134,0,0,0,10.417-9.294l9.151,4.792c1.357.711,5.579,3.933,7.1,3.721,2.537-.351,6.3-9.9,7.717-12.375m-97.5-47.489a38.757,38.757,0,1,1,16.358,52.313,38.8,38.8,0,0,1-16.358-52.313" transform="translate(0 -209.659)" fill="#eddbc3"/>
          <path id="Trazado_465774" data-name="Trazado 465774" d="M174.35,494.77a22.9,22.9,0,1,1-9.666-30.914,22.9,22.9,0,0,1,9.666,30.914" transform="translate(-85.209 -299.663)" fill="#eddbc3"/>
          <path id="Trazado_465775" data-name="Trazado 465775" d="M767.555,1232.989l-1.5,1.4a17.852,17.852,0,0,1-6.057,3.7l-4.691,1.7a5,5,0,0,0-2.571,4.369h26.588l.173-1.911a14.165,14.165,0,0,0-2.409-9.266Z" transform="translate(-489.045 -801.065)" fill="#2d2c3f"/>
          <path id="Trazado_465776" data-name="Trazado 465776" d="M911.377,1232.989l1.5,1.4a17.857,17.857,0,0,0,6.057,3.7l4.691,1.7a5,5,0,0,1,2.571,4.369H899.612l-.173-1.911a14.166,14.166,0,0,1,2.409-9.266Z" transform="translate(-584.322 -801.065)" fill="#2d2c3f"/>
        </g>
      </g>
      <g id="Grupo_709541" data-name="Grupo 709541" transform="translate(267.688 260.753)">
        <g id="Grupo_709540" data-name="Grupo 709540" clip-path="url(#clip-path-2)">
          <rect id="Rectángulo_262998" data-name="Rectángulo 262998" width="75.314" height="171.604" transform="translate(-3.069 0.006) rotate(-0.338)" fill="url(#linear-gradient)"/>
          <path id="Trazado_465777" data-name="Trazado 465777" d="M780.432,735.06s-1.545,28.839-4.12,29.1-14.29-2.446-14.29-2.446l3.734-28.195Z" transform="translate(-762.769 -737.315)" fill="#2d2c3f"/>
          <path id="Trazado_465778" data-name="Trazado 465778" d="M897.193,735.286s3.953,31.967,7.218,32.139,19.937-5.5,19.937-5.5l-3.576-26.467Z" transform="translate(-850.589 -738.466)" fill="#2d2c3f"/>
        </g>
      </g>
      <g id="Grupo_709543" data-name="Grupo 709543" transform="translate(0 -0.003)">
        <g id="Grupo_709542" data-name="Grupo 709542" clip-path="url(#clip-path)">
          <path id="Trazado_465780" data-name="Trazado 465780" d="M1195.491,589.8l-18.611,2.478-1.383-7.191,10.979-10.652a3.441,3.441,0,0,1,.057,4.268l-2.3,2.991,16.785-1.556a.735.735,0,0,1,.743,1.022l-2.549,5.932a4.508,4.508,0,0,1-3.72,2.709" transform="translate(-763.713 -373.207)" fill="#f4b7a5"/>
          <path id="Trazado_465781" data-name="Trazado 465781" d="M454.1,483.268l18.611,2.478,1.383-7.191L463.117,467.9a3.441,3.441,0,0,0-.057,4.268l2.3,2.991-16.785-1.556a.735.735,0,0,0-.743,1.022l2.549,5.932a4.508,4.508,0,0,0,3.72,2.709" transform="translate(-290.914 -303.993)" fill="#f4b7a5"/>
          <path id="Trazado_465782" data-name="Trazado 465782" d="M853.148,412.211c3.251-6.268,4.748-11.46-2.81-15.6-4.839-2.653-11.212-6.148-19.522,7.341-6.709,10.89-3.454,16.151,1.385,18.8l-3.343,6.1a6.663,6.663,0,1,0,11.685,6.406l12.628-23.033Z" transform="translate(-537.304 -256.065)" fill="#f4b7a5"/>
        </g>
      </g>
      <g id="Grupo_709545" data-name="Grupo 709545" transform="translate(289.707 138.066)">
        <g id="Grupo_709544" data-name="Grupo 709544" clip-path="url(#clip-path-4)">
          <path id="Trazado_465783" data-name="Trazado 465783" d="M833.868,401.827s14.961,6.622,23.138.136l-1.643-3.674-14.873-5.463Z" transform="translate(-831.466 -393.285)" fill="#e39b85"/>
          <path id="Trazado_465784" data-name="Trazado 465784" d="M833.441,448.657s4.132,1.168,6.8.714c0,0-3.348,2.207-5.206,1.428s-1.6-2.142-1.6-2.142" transform="translate(-831.18 -429.557)" fill="#fff"/>
        </g>
      </g>
      <g id="Grupo_709547" data-name="Grupo 709547" transform="translate(0 -0.003)">
        <g id="Grupo_709546" data-name="Grupo 709546" clip-path="url(#clip-path)">
          <path id="Trazado_465786" data-name="Trazado 465786" d="M839.358,475.828a10.105,10.105,0,0,0,9.081.3s-4.277,5.06-10.412,2.132Z" transform="translate(-544.461 -309.142)" fill="#e39b85"/>
          <path id="Trazado_465787" data-name="Trazado 465787" d="M888.847,406.643s-8.262,15.221-1.926,18.135c0,0,10.593-6.385,11.132-11.93S892.8,403.3,892.8,403.3Z" transform="translate(-574.674 -262.018)" fill="#2d2c3f"/>
          <path id="Trazado_465788" data-name="Trazado 465788" d="M864.166,386.8s-4.438,3.912-13.051.383-6.3-12.428-6.3-12.428,2.312-1.557,7.552-.4l-5.684-1.277s5.233-2.113,12.17,1.156,9.633,10.341,9.633,10.341Z" transform="translate(-548.686 -241.949)" fill="#3d3a49"/>
          <path id="Trazado_465789" data-name="Trazado 465789" d="M888.68,435.236c.6,1.274-.308,2.968-2.033,3.782s-3.611.442-4.213-.833.309-2.968,2.033-3.783,3.611-.441,4.212.833" transform="translate(-573.192 -281.948)" fill="#f4b7a5"/>
          <path id="Trazado_465790" data-name="Trazado 465790" d="M764.239,581.295s3.747-73.866,11.011-84.271c0,0,19.234-8.92,46.032,1.116,0,0,7.474,30.418,13.086,83.155Z" transform="translate(-496.521 -320.539)" fill="#fff"/>
          <path id="Trazado_465791" data-name="Trazado 465791" d="M840.961,492.951l-5.232,53.116,6.233,8.629,6.6-8.484-4.536-53.319Z" transform="translate(-542.969 -320.228)" fill="#d16053"/>
        </g>
      </g>
      <g id="Grupo_709549" data-name="Grupo 709549" transform="translate(311.939 174.013)">
        <g id="Grupo_709548" data-name="Grupo 709548" clip-path="url(#clip-path-6)">
          <rect id="Rectángulo_263001" data-name="Rectángulo 263001" width="135.43" height="132.36" transform="translate(-31.657 98.68) rotate(-72.213)" fill="url(#linear-gradient-2)"/>
        </g>
      </g>
      <g id="Grupo_709551" data-name="Grupo 709551" transform="translate(176.279 172.029)">
        <g id="Grupo_709550" data-name="Grupo 709550" clip-path="url(#clip-path-7)">
          <rect id="Rectángulo_263002" data-name="Rectángulo 263002" width="138.405" height="136.15" transform="translate(-27.946 7.612) rotate(-15.236)" fill="url(#linear-gradient-3)"/>
        </g>
      </g>
      <g id="Grupo_709553" data-name="Grupo 709553" transform="translate(0 -0.003)">
        <g id="Grupo_709552" data-name="Grupo 709552" clip-path="url(#clip-path)">
          <path id="Trazado_465794" data-name="Trazado 465794" d="M704.4,577.352l1.711-8.68s-25.364,20.414-35.831,24.305c0,0,10.189-2.693,15.945-5.256S704.4,577.352,704.4,577.352" transform="translate(-435.476 -369.462)" fill="#2d2c3f"/>
          <path id="Trazado_465795" data-name="Trazado 465795" d="M953.374,608.024l-2.791-20.582s17.433,29.685,25.931,32.125,23.675-1.739,23.675-1.739-14.6,7.093-25.355,4.89-21.46-14.7-21.46-14.7" transform="translate(-617.588 -381.656)" fill="#2d2c3f"/>
          <path id="Trazado_465796" data-name="Trazado 465796" d="M1190.127,420.322c-.1,16.943-12.163,32.526-28.356,38.673-24.51,9.3-54.807-4.96-59.554-31.653q-.127-.73-.232-1.463a40.209,40.209,0,0,1-.384-5.556c0-46.43,70.39-54.95,86.1-13.218l.278.755q.254.721.486,1.45a35.9,35.9,0,0,1,1.666,11.013" transform="translate(-715.703 -246.982)" fill="#5793ce"/>
          <path id="Trazado_465797" data-name="Trazado 465797" d="M1203.1,438.444c.044-1.158.438-3.183-.088-4.275-.419-.867-.151-.448-.96-.73a12.3,12.3,0,0,0-3.347,0h-4.056a21.131,21.131,0,0,0-2.192-4.806l3.452-3.452c.447-.447,2.235-1.712,2.339-2.338.174-1.042-3.123-3.7-3.921-4.561s-1.942-2.561-3.086-2.96c-.909-.318-.423-.211-1.195.163-.836.4-1.71,1.71-2.367,2.367l-3.217,3.217a21.1,21.1,0,0,0-4.6-1.832V413.99c0-.632.369-2.791,0-3.307-.614-.86-4.824-.408-6-.452-1.159-.044-3.183-.438-4.275.088-.867.419-.448.151-.73.96a12.315,12.315,0,0,0,0,3.348v4.618a21.1,21.1,0,0,0-4.6,1.839l-3.661-3.661c-.447-.447-1.712-2.235-2.338-2.339-1.042-.174-3.7,3.123-4.561,3.921s-2.561,1.941-2.961,3.086c-.318.909-.211.424.163,1.195.4.836,1.71,1.71,2.367,2.367l3.006,3.006a21.143,21.143,0,0,0-2.184,4.809h-4.684c-.632,0-2.791-.37-3.307,0-.86.614-.408,4.824-.452,6s-.438,3.184.088,4.276c.419.867.151.448.96.73a12.312,12.312,0,0,0,3.347,0h3.63a21.089,21.089,0,0,0,2.036,5.386l-2.871,2.871c-.447.447-2.235,1.712-2.339,2.338-.174,1.042,3.123,3.7,3.921,4.561s1.941,2.561,3.086,2.96c.909.318.423.211,1.195-.163.836-.4,1.71-1.71,2.367-2.367l2.216-2.216a21.115,21.115,0,0,0,5.6,2.412v3.666c0,.632-.37,2.791,0,3.307.614.86,4.824.408,6,.452,1.158.044,3.183.438,4.275-.089.867-.418.448-.15.73-.96a12.31,12.31,0,0,0,0-3.348v-3.038a21.116,21.116,0,0,0,5.6-2.42l2.662,2.661c.447.447,1.712,2.235,2.338,2.339,1.042.174,3.7-3.123,4.561-3.921s2.561-1.941,2.96-3.086c.318-.909.211-.423-.163-1.195-.4-.836-1.71-1.71-2.367-2.367l-2.427-2.427a21.075,21.075,0,0,0,2.028-5.389h4.261c.632,0,2.791.37,3.307,0,.86-.614.408-4.824.452-6m-44.709,1.3a15.985,15.985,0,1,1,15.985,15.985,16,16,0,0,1-15.985-15.985" transform="translate(-744.207 -266.405)" fill="#f5ecdd"/>
          <path id="Trazado_465798" data-name="Trazado 465798" d="M1219.918,477.3a9.446,9.446,0,1,1-9.446-9.446,9.446,9.446,0,0,1,9.446,9.446" transform="translate(-780.299 -303.962)" fill="#f5ecdd"/>
          <path id="Trazado_465799" data-name="Trazado 465799" d="M837.9,49.785a49.977,49.977,0,0,1-27.951,43.809c-25.152,12.443-59.525,4.169-73.181-21.151a47.852,47.852,0,0,1-4.907-13.753c-4.27-22.458,8.5-43.272,28.637-52.814,18.048-8.552,40.668-8.15,57.191,3.687A47.574,47.574,0,0,1,837.9,49.785" transform="translate(-474.953 0.003)" fill="#5793ce"/>
          <path id="Trazado_465800" data-name="Trazado 465800" d="M854.3,73.688c.053-1.407.532-3.867-.107-5.193-.508-1.054-.183-.545-1.166-.887-1.066-.37-2.938,0-4.066,0h-4.926a25.674,25.674,0,0,0-2.662-5.837l4.192-4.192c.543-.543,2.715-2.08,2.841-2.84.211-1.266-3.793-4.494-4.763-5.54s-2.358-3.11-3.748-3.6c-1.1-.386-.515-.256-1.452.2-1.016.492-2.077,2.077-2.875,2.875l-3.908,3.908a25.6,25.6,0,0,0-5.586-2.225V43.984c0-.768.449-3.39,0-4.017-.746-1.045-5.86-.5-7.286-.55-1.407-.053-3.867-.532-5.193.108-1.054.508-.545.183-.887,1.166-.371,1.066,0,2.938,0,4.066v5.609a25.627,25.627,0,0,0-5.583,2.233l-4.447-4.447c-.543-.543-2.08-2.715-2.84-2.841-1.266-.211-4.494,3.793-5.54,4.763s-3.111,2.358-3.6,3.748c-.386,1.1-.256.515.2,1.452.492,1.016,2.077,2.077,2.876,2.875l3.651,3.652a25.679,25.679,0,0,0-2.653,5.842h-5.689c-.768,0-3.39-.449-4.018,0-1.045.746-.5,5.86-.549,7.286-.053,1.408-.532,3.867.108,5.193.508,1.054.182.545,1.166.887,1.066.371,2.938,0,4.067,0h4.41a25.6,25.6,0,0,0,2.473,6.543l-3.487,3.487c-.543.543-2.714,2.08-2.841,2.84-.211,1.266,3.793,4.494,4.763,5.54s2.358,3.11,3.748,3.6c1.1.386.514.256,1.452-.2,1.016-.492,2.077-2.077,2.875-2.876l2.692-2.692a25.631,25.631,0,0,0,6.8,2.929v4.454c0,.768-.449,3.39,0,4.017.746,1.044,5.86.5,7.286.549,1.407.053,3.867.532,5.193-.108,1.054-.508.545-.183.887-1.166.37-1.066,0-2.937,0-4.066v-3.69a25.66,25.66,0,0,0,6.8-2.939l3.233,3.233c.543.543,2.08,2.715,2.84,2.842,1.266.211,4.494-3.793,5.54-4.763s3.111-2.358,3.6-3.748c.386-1.1.256-.514-.2-1.452-.492-1.016-2.077-2.077-2.875-2.875l-2.948-2.948a25.605,25.605,0,0,0,2.463-6.545h5.175c.767,0,3.39.449,4.018,0,1.044-.746.5-5.86.549-7.286m-54.308,1.58a19.417,19.417,0,1,1,19.417,19.417A19.439,19.439,0,0,1,799.99,75.268" transform="translate(-509.551 -25.464)" fill="#f5ecdd"/>
          <path id="Trazado_465801" data-name="Trazado 465801" d="M874.723,120.889a11.474,11.474,0,1,1-11.474-11.474,11.474,11.474,0,0,1,11.474,11.474" transform="translate(-553.392 -71.085)" fill="#f5ecdd"/>
          <path id="Trazado_465802" data-name="Trazado 465802" d="M489.2,329.543c0,39.218-58.625,48.862-75.248,15.4A35.522,35.522,0,0,1,411,336.466c-2.438-11.581,1.762-23.891,9.883-32.357,14.075-14.675,38.791-15.964,54.447-3.068,8.421,6.937,13.873,17.541,13.873,28.5" transform="translate(-266.578 -189.82)" fill="#5793ce"/>
          <path id="Trazado_465803" data-name="Trazado 465803" d="M500.626,348.582c.039-1.033.391-2.839-.079-3.812-.373-.773-.134-.4-.856-.651a10.962,10.962,0,0,0-2.985,0H493.09a18.837,18.837,0,0,0-1.954-4.285l3.077-3.078c.4-.4,1.993-1.527,2.086-2.085.155-.929-2.785-3.3-3.5-4.067s-1.731-2.283-2.752-2.64c-.811-.283-.378-.188-1.066.145-.745.361-1.525,1.525-2.111,2.111l-2.869,2.868a18.816,18.816,0,0,0-4.1-1.634v-4.678c0-.563.33-2.489,0-2.949-.548-.767-4.3-.364-5.348-.4s-2.839-.391-3.812.079c-.774.373-.4.134-.651.856a10.977,10.977,0,0,0,0,2.985v4.117A18.814,18.814,0,0,0,466,333.1l-3.265-3.264c-.4-.4-1.527-1.993-2.085-2.086-.929-.155-3.3,2.785-4.067,3.5s-2.284,1.731-2.64,2.752c-.283.811-.188.378.145,1.066.361.745,1.525,1.525,2.111,2.111l2.681,2.681a18.835,18.835,0,0,0-1.948,4.288h-4.176c-.564,0-2.489-.33-2.949,0-.766.548-.364,4.3-.4,5.348s-.391,2.839.079,3.812c.373.773.134.4.856.651a10.976,10.976,0,0,0,2.985,0h3.237a18.8,18.8,0,0,0,1.816,4.8l-2.56,2.56c-.4.4-1.993,1.527-2.086,2.085-.155.929,2.785,3.3,3.5,4.067s1.731,2.283,2.752,2.64c.811.283.378.188,1.065-.145.746-.361,1.525-1.525,2.111-2.111l1.976-1.976a18.829,18.829,0,0,0,4.993,2.151V371.3c0,.564-.33,2.489,0,2.949.548.767,4.3.364,5.348.4s2.839.391,3.812-.079c.773-.373.4-.134.651-.856a10.975,10.975,0,0,0,0-2.985v-2.709a18.83,18.83,0,0,0,4.989-2.158l2.373,2.373c.4.4,1.527,1.993,2.085,2.086.929.155,3.3-2.785,4.067-3.5s2.284-1.731,2.64-2.751c.283-.811.188-.378-.145-1.066-.361-.746-1.525-1.525-2.111-2.111l-2.164-2.164a18.8,18.8,0,0,0,1.809-4.805h3.8c.564,0,2.489.33,2.949,0,.766-.547.364-4.3.4-5.348m-39.867,1.16A14.254,14.254,0,1,1,475.013,364a14.27,14.27,0,0,1-14.254-14.254" transform="translate(-291.866 -210.02)" fill="#f5ecdd"/>
          <path id="Trazado_465804" data-name="Trazado 465804" d="M515.62,383.232a8.423,8.423,0,1,1-8.423-8.423,8.423,8.423,0,0,1,8.423,8.423" transform="translate(-324.05 -243.51)" fill="#f5ecdd"/>
          <path id="Trazado_465805" data-name="Trazado 465805" d="M915.84,298.3l-2.158-.711a5.609,5.609,0,1,0,2.158.711" transform="translate(-589.563 -193.319)" fill="#5793ce"/>
          <path id="Trazado_465806" data-name="Trazado 465806" d="M901.166,343.937l-1.079-.355a2.8,2.8,0,1,0,1.079.355" transform="translate(-582.756 -223.211)" fill="#5793ce"/>
        </g>
      </g>
    </g>
    <path id="Trazado_468366" data-name="Trazado 468366" d="M5.492,12.4H2.82V17H1.313V5.625H5.078A4.457,4.457,0,0,1,8.035,6.5,3.148,3.148,0,0,1,9.07,9.047,3.062,3.062,0,0,1,8.5,10.9a3.428,3.428,0,0,1-1.6,1.18L9.57,16.906V17H7.961ZM2.82,11.172h2.3A2.6,2.6,0,0,0,6.9,10.593a1.959,1.959,0,0,0,.66-1.55,2.062,2.062,0,0,0-.629-1.62,2.663,2.663,0,0,0-1.816-.571H2.82Zm11.633,5.984a3.693,3.693,0,0,1-2.8-1.129,4.19,4.19,0,0,1-1.078-3.02v-.266a5.073,5.073,0,0,1,.48-2.246A3.748,3.748,0,0,1,12.4,8.949a3.378,3.378,0,0,1,1.871-.559,3.166,3.166,0,0,1,2.563,1.086,4.7,4.7,0,0,1,.914,3.109v.6H12.023a3,3,0,0,0,.73,2.02,2.3,2.3,0,0,0,1.777.77,2.517,2.517,0,0,0,1.3-.312,3.259,3.259,0,0,0,.93-.828l.883.688A3.55,3.55,0,0,1,14.453,17.156Zm-.18-7.578a1.928,1.928,0,0,0-1.469.637A3.1,3.1,0,0,0,12.07,12H16.3v-.109a2.753,2.753,0,0,0-.594-1.707A1.815,1.815,0,0,0,14.273,9.578Zm10.07,5.18a1.064,1.064,0,0,0-.441-.91,4.249,4.249,0,0,0-1.539-.559,7.277,7.277,0,0,1-1.742-.562,2.479,2.479,0,0,1-.953-.781,1.869,1.869,0,0,1-.309-1.078,2.193,2.193,0,0,1,.879-1.758,3.432,3.432,0,0,1,2.246-.719,3.532,3.532,0,0,1,2.332.742,2.357,2.357,0,0,1,.895,1.9H24.258a1.3,1.3,0,0,0-.5-1.023,1.888,1.888,0,0,0-1.27-.43,1.976,1.976,0,0,0-1.234.344,1.082,1.082,0,0,0-.445.9.877.877,0,0,0,.414.789,5.1,5.1,0,0,0,1.5.508,7.8,7.8,0,0,1,1.754.578,2.558,2.558,0,0,1,1,.809,1.988,1.988,0,0,1,.324,1.152,2.163,2.163,0,0,1-.906,1.816,3.8,3.8,0,0,1-2.352.684,4.257,4.257,0,0,1-1.8-.359,2.922,2.922,0,0,1-1.223-1A2.42,2.42,0,0,1,19.07,14.4h1.445a1.5,1.5,0,0,0,.582,1.152,2.258,2.258,0,0,0,1.434.426,2.331,2.331,0,0,0,1.316-.332A1.02,1.02,0,0,0,24.344,14.758Zm10.469-1.891a5.062,5.062,0,0,1-.883,3.109,2.829,2.829,0,0,1-2.391,1.18,3.1,3.1,0,0,1-2.422-.977v4.07H27.672V8.547h1.32l.07.938a2.977,2.977,0,0,1,2.453-1.094,2.882,2.882,0,0,1,2.41,1.148,5.117,5.117,0,0,1,.887,3.2ZM33.367,12.7a3.735,3.735,0,0,0-.609-2.258,1.963,1.963,0,0,0-1.672-.828,2.125,2.125,0,0,0-1.969,1.164V14.82A2.129,2.129,0,0,0,31.1,15.977a1.954,1.954,0,0,0,1.652-.824A4.077,4.077,0,0,0,33.367,12.7Zm2.9-.008a4.993,4.993,0,0,1,.488-2.234A3.643,3.643,0,0,1,38.113,8.93,3.7,3.7,0,0,1,40.1,8.391a3.565,3.565,0,0,1,2.793,1.2,4.6,4.6,0,0,1,1.066,3.18v.1a5.036,5.036,0,0,1-.473,2.215,3.589,3.589,0,0,1-1.352,1.527,3.743,3.743,0,0,1-2.02.547,3.556,3.556,0,0,1-2.785-1.2A4.575,4.575,0,0,1,36.266,12.8Zm1.453.172a3.616,3.616,0,0,0,.652,2.258,2.211,2.211,0,0,0,3.5-.012,3.955,3.955,0,0,0,.648-2.418,3.61,3.61,0,0,0-.66-2.254A2.1,2.1,0,0,0,40.1,9.578a2.075,2.075,0,0,0-1.727.852A3.925,3.925,0,0,0,37.719,12.867Zm9.422-4.32.047,1.063a3.08,3.08,0,0,1,2.531-1.219q2.68,0,2.7,3.023V17H50.977V11.406a1.946,1.946,0,0,0-.418-1.352,1.675,1.675,0,0,0-1.277-.437,2.086,2.086,0,0,0-1.234.375,2.546,2.546,0,0,0-.828.984V17H45.773V8.547Zm12.383,6.211a1.064,1.064,0,0,0-.441-.91,4.249,4.249,0,0,0-1.539-.559,7.277,7.277,0,0,1-1.742-.562,2.479,2.479,0,0,1-.953-.781,1.869,1.869,0,0,1-.309-1.078,2.193,2.193,0,0,1,.879-1.758,3.432,3.432,0,0,1,2.246-.719A3.532,3.532,0,0,1,60,9.133a2.357,2.357,0,0,1,.895,1.9H59.438a1.3,1.3,0,0,0-.5-1.023,1.888,1.888,0,0,0-1.27-.43,1.976,1.976,0,0,0-1.234.344,1.082,1.082,0,0,0-.445.9.877.877,0,0,0,.414.789,5.1,5.1,0,0,0,1.5.508,7.8,7.8,0,0,1,1.754.578,2.558,2.558,0,0,1,1,.809,1.988,1.988,0,0,1,.324,1.152,2.163,2.163,0,0,1-.906,1.816,3.8,3.8,0,0,1-2.352.684,4.257,4.257,0,0,1-1.8-.359,2.922,2.922,0,0,1-1.223-1A2.42,2.42,0,0,1,54.25,14.4H55.7a1.5,1.5,0,0,0,.582,1.152,2.258,2.258,0,0,0,1.434.426,2.331,2.331,0,0,0,1.316-.332A1.02,1.02,0,0,0,59.523,14.758ZM68.07,17a3.036,3.036,0,0,1-.2-.891,3.225,3.225,0,0,1-2.406,1.047,2.984,2.984,0,0,1-2.051-.707,2.287,2.287,0,0,1-.8-1.793,2.39,2.39,0,0,1,1-2.051,4.733,4.733,0,0,1,2.824-.73h1.406v-.664A1.623,1.623,0,0,0,67.391,10a1.821,1.821,0,0,0-1.336-.449,2.108,2.108,0,0,0-1.3.391,1.151,1.151,0,0,0-.523.945H62.781a2,2,0,0,1,.449-1.223,3.066,3.066,0,0,1,1.219-.934,4.1,4.1,0,0,1,1.691-.344,3.342,3.342,0,0,1,2.289.73,2.635,2.635,0,0,1,.859,2.012v3.891a4.757,4.757,0,0,0,.3,1.852V17Zm-2.4-1.1a2.54,2.54,0,0,0,1.289-.352,2.127,2.127,0,0,0,.883-.914V12.9H66.711q-2.656,0-2.656,1.555a1.316,1.316,0,0,0,.453,1.063A1.742,1.742,0,0,0,65.672,15.9Zm13.039-3.031a5.026,5.026,0,0,1-.891,3.113,2.846,2.846,0,0,1-2.391,1.176,2.947,2.947,0,0,1-2.477-1.133l-.07.977H71.555V5H73V9.477a2.93,2.93,0,0,1,2.414-1.086,2.863,2.863,0,0,1,2.418,1.164,5.177,5.177,0,0,1,.879,3.188ZM77.266,12.7a3.906,3.906,0,0,0-.57-2.281,1.888,1.888,0,0,0-1.641-.8A2.122,2.122,0,0,0,73,10.945V14.6a2.181,2.181,0,0,0,2.07,1.328,1.878,1.878,0,0,0,1.617-.8A4.153,4.153,0,0,0,77.266,12.7ZM82.1,17H80.656V8.547H82.1ZM80.539,6.3a.863.863,0,0,1,.215-.594.807.807,0,0,1,.637-.242.819.819,0,0,1,.641.242.854.854,0,0,1,.219.594.826.826,0,0,1-.219.586.834.834,0,0,1-.641.234.821.821,0,0,1-.637-.234A.834.834,0,0,1,80.539,6.3ZM85.984,17H84.539V5h1.445Zm3.883,0H88.422V8.547h1.445ZM88.3,6.3a.863.863,0,0,1,.215-.594.807.807,0,0,1,.637-.242.819.819,0,0,1,.641.242.854.854,0,0,1,.219.594.826.826,0,0,1-.219.586.834.834,0,0,1-.641.234.821.821,0,0,1-.637-.234A.834.834,0,0,1,88.3,6.3Zm3.523,6.4a4.952,4.952,0,0,1,.922-3.129,3.137,3.137,0,0,1,4.766-.168V5h1.445V17H97.633l-.07-.906a2.943,2.943,0,0,1-2.414,1.063,2.887,2.887,0,0,1-2.395-1.2,5.008,5.008,0,0,1-.926-3.141Zm1.445.164a3.749,3.749,0,0,0,.594,2.25,1.92,1.92,0,0,0,1.641.813A2.108,2.108,0,0,0,97.516,14.7V10.813a2.125,2.125,0,0,0-1.992-1.2,1.929,1.929,0,0,0-1.656.82A4.128,4.128,0,0,0,93.273,12.867ZM106.422,17a3.036,3.036,0,0,1-.2-.891,3.225,3.225,0,0,1-2.406,1.047,2.984,2.984,0,0,1-2.051-.707,2.288,2.288,0,0,1-.8-1.793,2.39,2.39,0,0,1,1-2.051,4.733,4.733,0,0,1,2.824-.73H106.2v-.664A1.623,1.623,0,0,0,105.742,10a1.821,1.821,0,0,0-1.336-.449,2.108,2.108,0,0,0-1.3.391,1.151,1.151,0,0,0-.523.945h-1.453a2,2,0,0,1,.449-1.223,3.066,3.066,0,0,1,1.219-.934,4.1,4.1,0,0,1,1.691-.344,3.342,3.342,0,0,1,2.289.73,2.635,2.635,0,0,1,.859,2.012v3.891a4.757,4.757,0,0,0,.3,1.852V17Zm-2.4-1.1a2.54,2.54,0,0,0,1.289-.352,2.127,2.127,0,0,0,.883-.914V12.9h-1.133q-2.656,0-2.656,1.555a1.316,1.316,0,0,0,.453,1.063A1.742,1.742,0,0,0,104.023,15.9Zm5.531-3.2a4.952,4.952,0,0,1,.922-3.129,3.137,3.137,0,0,1,4.766-.168V5h1.445V17h-1.328l-.07-.906a2.943,2.943,0,0,1-2.414,1.063,2.887,2.887,0,0,1-2.395-1.2,5.008,5.008,0,0,1-.926-3.141Zm1.445.164a3.749,3.749,0,0,0,.594,2.25,1.92,1.92,0,0,0,1.641.813,2.108,2.108,0,0,0,2.008-1.234V10.813a2.125,2.125,0,0,0-1.992-1.2,1.929,1.929,0,0,0-1.656.82A4.128,4.128,0,0,0,111,12.867Zm16.813,1.891a1.064,1.064,0,0,0-.441-.91,4.249,4.249,0,0,0-1.539-.559,7.277,7.277,0,0,1-1.742-.562,2.479,2.479,0,0,1-.953-.781,1.869,1.869,0,0,1-.309-1.078,2.193,2.193,0,0,1,.879-1.758,3.432,3.432,0,0,1,2.246-.719,3.532,3.532,0,0,1,2.332.742,2.357,2.357,0,0,1,.895,1.9h-1.453a1.3,1.3,0,0,0-.5-1.023,1.888,1.888,0,0,0-1.27-.43,1.976,1.976,0,0,0-1.234.344,1.082,1.082,0,0,0-.445.9.877.877,0,0,0,.414.789,5.1,5.1,0,0,0,1.5.508,7.8,7.8,0,0,1,1.754.578,2.558,2.558,0,0,1,1,.809,1.988,1.988,0,0,1,.324,1.152,2.163,2.163,0,0,1-.906,1.816,3.8,3.8,0,0,1-2.352.684,4.257,4.257,0,0,1-1.8-.359,2.922,2.922,0,0,1-1.223-1,2.42,2.42,0,0,1-.441-1.395h1.445a1.5,1.5,0,0,0,.582,1.152,2.258,2.258,0,0,0,1.434.426,2.331,2.331,0,0,0,1.316-.332A1.02,1.02,0,0,0,127.813,14.758Zm2.945-2.062a4.993,4.993,0,0,1,.488-2.234,3.642,3.642,0,0,1,1.359-1.531,3.7,3.7,0,0,1,1.988-.539,3.565,3.565,0,0,1,2.793,1.2,4.6,4.6,0,0,1,1.066,3.18v.1a5.036,5.036,0,0,1-.473,2.215,3.589,3.589,0,0,1-1.352,1.527,3.743,3.743,0,0,1-2.02.547,3.556,3.556,0,0,1-2.785-1.2,4.575,4.575,0,0,1-1.066-3.164Zm1.453.172a3.616,3.616,0,0,0,.652,2.258,2.211,2.211,0,0,0,3.5-.012,3.954,3.954,0,0,0,.648-2.418,3.61,3.61,0,0,0-.66-2.254,2.1,2.1,0,0,0-1.754-.863,2.075,2.075,0,0,0-1.727.852A3.925,3.925,0,0,0,132.211,12.867Zm15.211,0a5.026,5.026,0,0,1-.891,3.113,2.846,2.846,0,0,1-2.391,1.176,2.947,2.947,0,0,1-2.477-1.133l-.07.977h-1.328V5h1.445V9.477a2.93,2.93,0,0,1,2.414-1.086,2.863,2.863,0,0,1,2.418,1.164,5.177,5.177,0,0,1,.879,3.188Zm-1.445-.164a3.906,3.906,0,0,0-.57-2.281,1.888,1.888,0,0,0-1.641-.8,2.122,2.122,0,0,0-2.055,1.328V14.6a2.181,2.181,0,0,0,2.07,1.328,1.878,1.878,0,0,0,1.617-.8A4.153,4.153,0,0,0,145.977,12.7Zm7.352-2.859a4.331,4.331,0,0,0-.711-.055A1.9,1.9,0,0,0,150.688,11v6h-1.445V8.547h1.406l.023.977a2.251,2.251,0,0,1,2.016-1.133,1.477,1.477,0,0,1,.641.109Zm4.836,7.313a3.693,3.693,0,0,1-2.8-1.129,4.19,4.19,0,0,1-1.078-3.02v-.266a5.073,5.073,0,0,1,.48-2.246,3.748,3.748,0,0,1,1.344-1.547,3.378,3.378,0,0,1,1.871-.559,3.166,3.166,0,0,1,2.563,1.086,4.7,4.7,0,0,1,.914,3.109v.6h-5.727a3,3,0,0,0,.73,2.02,2.3,2.3,0,0,0,1.777.77,2.517,2.517,0,0,0,1.3-.312,3.258,3.258,0,0,0,.93-.828l.883.688A3.55,3.55,0,0,1,158.164,17.156Zm-.18-7.578a1.928,1.928,0,0,0-1.469.637A3.1,3.1,0,0,0,155.781,12h4.234v-.109a2.753,2.753,0,0,0-.594-1.707A1.815,1.815,0,0,0,157.984,9.578ZM168.664,17h-1.445V5h1.445Zm1.93-4.3a4.993,4.993,0,0,1,.488-2.234,3.642,3.642,0,0,1,1.359-1.531,3.7,3.7,0,0,1,1.988-.539,3.565,3.565,0,0,1,2.793,1.2,4.6,4.6,0,0,1,1.066,3.18v.1a5.036,5.036,0,0,1-.473,2.215,3.589,3.589,0,0,1-1.352,1.527,3.743,3.743,0,0,1-2.02.547,3.556,3.556,0,0,1-2.785-1.2,4.575,4.575,0,0,1-1.066-3.164Zm1.453.172a3.616,3.616,0,0,0,.652,2.258,2.211,2.211,0,0,0,3.5-.012,3.954,3.954,0,0,0,.648-2.418,3.61,3.61,0,0,0-.66-2.254,2.1,2.1,0,0,0-1.754-.863,2.075,2.075,0,0,0-1.727.852A3.925,3.925,0,0,0,172.047,12.867Zm12.977,1.891a1.064,1.064,0,0,0-.441-.91,4.249,4.249,0,0,0-1.539-.559,7.277,7.277,0,0,1-1.742-.562,2.479,2.479,0,0,1-.953-.781,1.869,1.869,0,0,1-.309-1.078,2.193,2.193,0,0,1,.879-1.758,3.432,3.432,0,0,1,2.246-.719,3.532,3.532,0,0,1,2.332.742,2.357,2.357,0,0,1,.895,1.9h-1.453a1.3,1.3,0,0,0-.5-1.023,1.888,1.888,0,0,0-1.27-.43,1.976,1.976,0,0,0-1.234.344,1.082,1.082,0,0,0-.445.9.877.877,0,0,0,.414.789,5.1,5.1,0,0,0,1.5.508,7.8,7.8,0,0,1,1.754.578,2.558,2.558,0,0,1,1,.809,1.988,1.988,0,0,1,.324,1.152,2.163,2.163,0,0,1-.906,1.816,3.8,3.8,0,0,1-2.352.684,4.257,4.257,0,0,1-1.8-.359,2.922,2.922,0,0,1-1.223-1,2.42,2.42,0,0,1-.441-1.395H181.2a1.5,1.5,0,0,0,.582,1.152,2.258,2.258,0,0,0,1.434.426,2.331,2.331,0,0,0,1.316-.332A1.02,1.02,0,0,0,185.023,14.758ZM197.531,17a3.036,3.036,0,0,1-.2-.891,3.225,3.225,0,0,1-2.406,1.047,2.984,2.984,0,0,1-2.051-.707,2.287,2.287,0,0,1-.8-1.793,2.39,2.39,0,0,1,1-2.051,4.733,4.733,0,0,1,2.824-.73H197.3v-.664A1.623,1.623,0,0,0,196.852,10a1.821,1.821,0,0,0-1.336-.449,2.107,2.107,0,0,0-1.3.391,1.151,1.151,0,0,0-.523.945h-1.453a2,2,0,0,1,.449-1.223,3.066,3.066,0,0,1,1.219-.934,4.1,4.1,0,0,1,1.691-.344,3.342,3.342,0,0,1,2.289.73,2.635,2.635,0,0,1,.859,2.012v3.891a4.757,4.757,0,0,0,.3,1.852V17Zm-2.4-1.1a2.54,2.54,0,0,0,1.289-.352,2.127,2.127,0,0,0,.883-.914V12.9h-1.133q-2.656,0-2.656,1.555a1.316,1.316,0,0,0,.453,1.063A1.742,1.742,0,0,0,195.133,15.9Zm9.273.078a2.082,2.082,0,0,0,1.352-.469,1.649,1.649,0,0,0,.641-1.172h1.367a2.621,2.621,0,0,1-.5,1.383,3.293,3.293,0,0,1-1.23,1.047,3.55,3.55,0,0,1-1.629.391A3.482,3.482,0,0,1,201.66,16a4.59,4.59,0,0,1-1.02-3.152v-.242a5.089,5.089,0,0,1,.453-2.2,3.451,3.451,0,0,1,1.3-1.492,3.7,3.7,0,0,1,2-.531,3.39,3.39,0,0,1,2.363.852,3.043,3.043,0,0,1,1,2.211H206.4a1.992,1.992,0,0,0-.621-1.348,1.932,1.932,0,0,0-1.379-.527,2.023,2.023,0,0,0-1.707.793,3.724,3.724,0,0,0-.605,2.293v.273a3.65,3.65,0,0,0,.6,2.25A2.033,2.033,0,0,0,204.406,15.977ZM211.352,6.5V8.547h1.578V9.664h-1.578v5.249a1.173,1.173,0,0,0,.211.763.888.888,0,0,0,.719.254,3.5,3.5,0,0,0,.688-.094V17a4.215,4.215,0,0,1-1.109.155,1.8,1.8,0,0,1-1.461-.586,2.517,2.517,0,0,1-.492-1.664V9.664h-1.539V8.547h1.539V6.5ZM216.188,17h-1.445V8.547h1.445ZM214.625,6.3a.863.863,0,0,1,.215-.594.807.807,0,0,1,.637-.242.819.819,0,0,1,.641.242.854.854,0,0,1,.219.594.826.826,0,0,1-.219.586.834.834,0,0,1-.641.234.821.821,0,0,1-.637-.234A.834.834,0,0,1,214.625,6.3Zm6.664,8.734,2.094-6.492h1.477L221.828,17h-1.1l-3.062-8.453h1.477ZM225.75,12.7a4.993,4.993,0,0,1,.488-2.234A3.642,3.642,0,0,1,227.6,8.93a3.7,3.7,0,0,1,1.988-.539,3.565,3.565,0,0,1,2.793,1.2,4.6,4.6,0,0,1,1.066,3.18v.1a5.036,5.036,0,0,1-.473,2.215,3.589,3.589,0,0,1-1.352,1.527,3.743,3.743,0,0,1-2.02.547,3.556,3.556,0,0,1-2.785-1.2A4.575,4.575,0,0,1,225.75,12.8Zm1.453.172a3.616,3.616,0,0,0,.652,2.258,2.211,2.211,0,0,0,3.5-.012A3.954,3.954,0,0,0,232,12.7a3.61,3.61,0,0,0-.66-2.254,2.1,2.1,0,0,0-1.754-.863,2.075,2.075,0,0,0-1.727.852A3.925,3.925,0,0,0,227.2,12.867Zm12.977,1.891a1.064,1.064,0,0,0-.441-.91,4.249,4.249,0,0,0-1.539-.559,7.277,7.277,0,0,1-1.742-.562,2.479,2.479,0,0,1-.953-.781,1.869,1.869,0,0,1-.309-1.078,2.193,2.193,0,0,1,.879-1.758,3.432,3.432,0,0,1,2.246-.719,3.532,3.532,0,0,1,2.332.742,2.357,2.357,0,0,1,.895,1.9h-1.453a1.3,1.3,0,0,0-.5-1.023,1.888,1.888,0,0,0-1.27-.43,1.976,1.976,0,0,0-1.234.344,1.082,1.082,0,0,0-.445.9.877.877,0,0,0,.414.789,5.1,5.1,0,0,0,1.5.508,7.8,7.8,0,0,1,1.754.578,2.558,2.558,0,0,1,1,.809,1.988,1.988,0,0,1,.324,1.152,2.163,2.163,0,0,1-.906,1.816,3.8,3.8,0,0,1-2.352.684,4.257,4.257,0,0,1-1.8-.359,2.922,2.922,0,0,1-1.223-1,2.42,2.42,0,0,1-.441-1.395h1.445a1.5,1.5,0,0,0,.582,1.152,2.258,2.258,0,0,0,1.434.426,2.331,2.331,0,0,0,1.316-.332A1.02,1.02,0,0,0,240.18,14.758Z" transform="translate(-3395.037 -3209.656)" fill="#12263f"/>
    <path id="Trazado_465807" data-name="Trazado 465807" d="M-2868.129-3308.618l-84.934,156.351H-3201.5" transform="translate(-193.533 -31.215)" fill="none" stroke="#5793ce" stroke-width="2"/>
    <path id="Trazado_465810" data-name="Trazado 465810" d="M-3201.5-3271.8l84.934-36.815h248.441" transform="translate(299.004 -124.958)" fill="none" stroke="#5793ce" stroke-width="2"/>
    <text id="_01" data-name="01" transform="translate(-3397.5 -3212.288)" fill="none" stroke="#5793ce" stroke-width="1" font-size="35" font-family="Roboto-Regular, Roboto"><tspan x="0" y="0">01</tspan></text>
    <path id="Trazado_468364" data-name="Trazado 468364" d="M3.258,5.625l3.719,9.281L10.7,5.625h1.945V17h-1.5V12.57l.141-4.781L7.547,17H6.4L2.672,7.813,2.82,12.57V17H1.32V5.625ZM20.281,17a3.036,3.036,0,0,1-.2-.891,3.225,3.225,0,0,1-2.406,1.047,2.984,2.984,0,0,1-2.051-.707,2.287,2.287,0,0,1-.8-1.793,2.39,2.39,0,0,1,1-2.051,4.733,4.733,0,0,1,2.824-.73h1.406v-.664A1.623,1.623,0,0,0,19.6,10a1.821,1.821,0,0,0-1.336-.449,2.107,2.107,0,0,0-1.3.391,1.151,1.151,0,0,0-.523.945H14.992a2,2,0,0,1,.449-1.223,3.066,3.066,0,0,1,1.219-.934,4.1,4.1,0,0,1,1.691-.344,3.342,3.342,0,0,1,2.289.73,2.635,2.635,0,0,1,.859,2.012v3.891a4.757,4.757,0,0,0,.3,1.852V17Zm-2.4-1.1a2.54,2.54,0,0,0,1.289-.352,2.127,2.127,0,0,0,.883-.914V12.9H18.922q-2.656,0-2.656,1.555a1.316,1.316,0,0,0,.453,1.063A1.742,1.742,0,0,0,17.883,15.9Zm7.25-7.352.047,1.063a3.08,3.08,0,0,1,2.531-1.219q2.68,0,2.7,3.023V17H28.969V11.406a1.946,1.946,0,0,0-.418-1.352,1.675,1.675,0,0,0-1.277-.437,2.086,2.086,0,0,0-1.234.375,2.546,2.546,0,0,0-.828.984V17H23.766V8.547ZM36.1,17.156a3.693,3.693,0,0,1-2.8-1.129,4.19,4.19,0,0,1-1.078-3.02v-.266a5.073,5.073,0,0,1,.48-2.246,3.748,3.748,0,0,1,1.344-1.547,3.378,3.378,0,0,1,1.871-.559,3.166,3.166,0,0,1,2.563,1.086,4.7,4.7,0,0,1,.914,3.109v.6H33.672a3,3,0,0,0,.73,2.02,2.3,2.3,0,0,0,1.777.77,2.517,2.517,0,0,0,1.3-.312,3.259,3.259,0,0,0,.93-.828l.883.688A3.55,3.55,0,0,1,36.1,17.156Zm-.18-7.578a1.928,1.928,0,0,0-1.469.637A3.1,3.1,0,0,0,33.719,12h4.234v-.109a2.753,2.753,0,0,0-.594-1.707A1.815,1.815,0,0,0,35.922,9.578Zm6.641-1.031v9.43q0,2.438-2.211,2.438a2.7,2.7,0,0,1-.883-.14V19.125a2.794,2.794,0,0,0,.656.063.982.982,0,0,0,.738-.262,1.3,1.3,0,0,0,.254-.911V8.547ZM40.969,6.3a.867.867,0,0,1,.215-.59.79.79,0,0,1,.629-.246.819.819,0,0,1,.641.242.854.854,0,0,1,.219.594.826.826,0,0,1-.219.586.834.834,0,0,1-.641.234.808.808,0,0,1-.633-.234A.843.843,0,0,1,40.969,6.3ZM44.508,12.7A4.993,4.993,0,0,1,45,10.461,3.643,3.643,0,0,1,46.355,8.93a3.7,3.7,0,0,1,1.988-.539,3.565,3.565,0,0,1,2.793,1.2,4.6,4.6,0,0,1,1.066,3.18v.1a5.036,5.036,0,0,1-.473,2.215,3.589,3.589,0,0,1-1.352,1.527,3.743,3.743,0,0,1-2.02.547,3.556,3.556,0,0,1-2.785-1.2A4.575,4.575,0,0,1,44.508,12.8Zm1.453.172a3.616,3.616,0,0,0,.652,2.258,2.211,2.211,0,0,0,3.5-.012,3.955,3.955,0,0,0,.648-2.418,3.61,3.61,0,0,0-.66-2.254,2.1,2.1,0,0,0-1.754-.863,2.075,2.075,0,0,0-1.727.852A3.925,3.925,0,0,0,45.961,12.867ZM57.625,12.7a4.952,4.952,0,0,1,.922-3.129,3.137,3.137,0,0,1,4.766-.168V5h1.445V17H63.43l-.07-.906a2.943,2.943,0,0,1-2.414,1.063,2.887,2.887,0,0,1-2.395-1.2,5.008,5.008,0,0,1-.926-3.141Zm1.445.164a3.749,3.749,0,0,0,.594,2.25,1.92,1.92,0,0,0,1.641.813A2.108,2.108,0,0,0,63.313,14.7V10.813a2.125,2.125,0,0,0-1.992-1.2,1.929,1.929,0,0,0-1.656.82A4.128,4.128,0,0,0,59.07,12.867Zm11.438,4.289a3.693,3.693,0,0,1-2.8-1.129,4.19,4.19,0,0,1-1.078-3.02v-.266a5.073,5.073,0,0,1,.48-2.246,3.748,3.748,0,0,1,1.344-1.547,3.378,3.378,0,0,1,1.871-.559,3.166,3.166,0,0,1,2.563,1.086,4.7,4.7,0,0,1,.914,3.109v.6H68.078a3,3,0,0,0,.73,2.02,2.3,2.3,0,0,0,1.777.77,2.517,2.517,0,0,0,1.3-.312,3.259,3.259,0,0,0,.93-.828l.883.688A3.55,3.55,0,0,1,70.508,17.156Zm-.18-7.578a1.928,1.928,0,0,0-1.469.637A3.1,3.1,0,0,0,68.125,12h4.234v-.109a2.753,2.753,0,0,0-.594-1.707A1.815,1.815,0,0,0,70.328,9.578ZM81.008,17H79.563V5h1.445Zm1.93-4.3a4.993,4.993,0,0,1,.488-2.234A3.643,3.643,0,0,1,84.785,8.93a3.7,3.7,0,0,1,1.988-.539,3.565,3.565,0,0,1,2.793,1.2,4.6,4.6,0,0,1,1.066,3.18v.1a5.036,5.036,0,0,1-.473,2.215,3.589,3.589,0,0,1-1.352,1.527,3.743,3.743,0,0,1-2.02.547A3.556,3.556,0,0,1,84,15.961,4.575,4.575,0,0,1,82.938,12.8Zm1.453.172a3.616,3.616,0,0,0,.652,2.258,2.211,2.211,0,0,0,3.5-.012,3.955,3.955,0,0,0,.648-2.418,3.61,3.61,0,0,0-.66-2.254,2.1,2.1,0,0,0-1.754-.863,2.075,2.075,0,0,0-1.727.852A3.925,3.925,0,0,0,84.391,12.867Zm12.977,1.891a1.064,1.064,0,0,0-.441-.91,4.249,4.249,0,0,0-1.539-.559,7.277,7.277,0,0,1-1.742-.562,2.479,2.479,0,0,1-.953-.781,1.869,1.869,0,0,1-.309-1.078,2.193,2.193,0,0,1,.879-1.758,3.432,3.432,0,0,1,2.246-.719,3.532,3.532,0,0,1,2.332.742,2.357,2.357,0,0,1,.895,1.9H97.281a1.3,1.3,0,0,0-.5-1.023,1.888,1.888,0,0,0-1.27-.43,1.976,1.976,0,0,0-1.234.344,1.082,1.082,0,0,0-.445.9.877.877,0,0,0,.414.789,5.1,5.1,0,0,0,1.5.508,7.8,7.8,0,0,1,1.754.578,2.558,2.558,0,0,1,1,.809,1.988,1.988,0,0,1,.324,1.152,2.163,2.163,0,0,1-.906,1.816,3.8,3.8,0,0,1-2.352.684,4.257,4.257,0,0,1-1.8-.359,2.922,2.922,0,0,1-1.223-1,2.42,2.42,0,0,1-.441-1.395h1.445a1.5,1.5,0,0,0,.582,1.152,2.258,2.258,0,0,0,1.434.426,2.331,2.331,0,0,0,1.316-.332A1.02,1.02,0,0,0,97.367,14.758Zm12.211,0a1.064,1.064,0,0,0-.441-.91,4.249,4.249,0,0,0-1.539-.559,7.277,7.277,0,0,1-1.742-.562,2.479,2.479,0,0,1-.953-.781,1.869,1.869,0,0,1-.309-1.078,2.193,2.193,0,0,1,.879-1.758,3.432,3.432,0,0,1,2.246-.719,3.532,3.532,0,0,1,2.332.742,2.357,2.357,0,0,1,.895,1.9h-1.453a1.3,1.3,0,0,0-.5-1.023,1.888,1.888,0,0,0-1.27-.43,1.976,1.976,0,0,0-1.234.344,1.082,1.082,0,0,0-.445.9.877.877,0,0,0,.414.789,5.1,5.1,0,0,0,1.5.508,7.8,7.8,0,0,1,1.754.578,2.558,2.558,0,0,1,1,.809,1.988,1.988,0,0,1,.324,1.152,2.163,2.163,0,0,1-.906,1.816,3.8,3.8,0,0,1-2.352.684,4.257,4.257,0,0,1-1.8-.359,2.922,2.922,0,0,1-1.223-1A2.42,2.42,0,0,1,104.3,14.4h1.445a1.5,1.5,0,0,0,.582,1.152,2.258,2.258,0,0,0,1.434.426,2.331,2.331,0,0,0,1.316-.332A1.02,1.02,0,0,0,109.578,14.758Zm2.945-2.062a4.993,4.993,0,0,1,.488-2.234,3.643,3.643,0,0,1,1.359-1.531,3.7,3.7,0,0,1,1.988-.539,3.565,3.565,0,0,1,2.793,1.2,4.6,4.6,0,0,1,1.066,3.18v.1a5.036,5.036,0,0,1-.473,2.215,3.589,3.589,0,0,1-1.352,1.527,3.743,3.743,0,0,1-2.02.547,3.556,3.556,0,0,1-2.785-1.2,4.575,4.575,0,0,1-1.066-3.164Zm1.453.172a3.616,3.616,0,0,0,.652,2.258,2.211,2.211,0,0,0,3.5-.012,3.955,3.955,0,0,0,.648-2.418,3.61,3.61,0,0,0-.66-2.254,2.1,2.1,0,0,0-1.754-.863,2.075,2.075,0,0,0-1.727.852A3.925,3.925,0,0,0,113.977,12.867Zm15.2,0a5.062,5.062,0,0,1-.883,3.109,2.829,2.829,0,0,1-2.391,1.18,3.1,3.1,0,0,1-2.422-.977v4.07h-1.445V8.547h1.32l.07.938a2.977,2.977,0,0,1,2.453-1.094,2.882,2.882,0,0,1,2.41,1.148,5.117,5.117,0,0,1,.887,3.2Zm-1.445-.164a3.735,3.735,0,0,0-.609-2.258,1.963,1.963,0,0,0-1.672-.828,2.125,2.125,0,0,0-1.969,1.164V14.82a2.129,2.129,0,0,0,1.984,1.156,1.954,1.954,0,0,0,1.652-.824A4.077,4.077,0,0,0,127.727,12.7Zm2.9-.008a4.993,4.993,0,0,1,.488-2.234,3.642,3.642,0,0,1,1.359-1.531,3.7,3.7,0,0,1,1.988-.539,3.565,3.565,0,0,1,2.793,1.2,4.6,4.6,0,0,1,1.066,3.18v.1a5.036,5.036,0,0,1-.473,2.215,3.589,3.589,0,0,1-1.352,1.527,3.743,3.743,0,0,1-2.02.547,3.556,3.556,0,0,1-2.785-1.2,4.575,4.575,0,0,1-1.066-3.164Zm1.453.172a3.616,3.616,0,0,0,.652,2.258,2.211,2.211,0,0,0,3.5-.012,3.954,3.954,0,0,0,.648-2.418,3.61,3.61,0,0,0-.66-2.254,2.1,2.1,0,0,0-1.754-.863,2.075,2.075,0,0,0-1.727.852A3.925,3.925,0,0,0,132.078,12.867Zm12.141-3.023a4.331,4.331,0,0,0-.711-.055A1.9,1.9,0,0,0,141.578,11v6h-1.445V8.547h1.406l.023.977a2.251,2.251,0,0,1,2.016-1.133,1.477,1.477,0,0,1,.641.109ZM147.9,6.5V8.547h1.578V9.664H147.9v5.249a1.173,1.173,0,0,0,.211.763.888.888,0,0,0,.719.254,3.5,3.5,0,0,0,.688-.094V17a4.215,4.215,0,0,1-1.109.155,1.8,1.8,0,0,1-1.461-.586,2.517,2.517,0,0,1-.492-1.664V9.664h-1.539V8.547h1.539V6.5Zm6.773,10.656a3.693,3.693,0,0,1-2.8-1.129,4.19,4.19,0,0,1-1.078-3.02v-.266a5.073,5.073,0,0,1,.48-2.246,3.748,3.748,0,0,1,1.344-1.547,3.378,3.378,0,0,1,1.871-.559,3.166,3.166,0,0,1,2.563,1.086,4.7,4.7,0,0,1,.914,3.109v.6h-5.727a3,3,0,0,0,.73,2.02,2.3,2.3,0,0,0,1.777.77,2.517,2.517,0,0,0,1.3-.312,3.258,3.258,0,0,0,.93-.828l.883.688A3.55,3.55,0,0,1,154.672,17.156Zm-.18-7.578a1.928,1.928,0,0,0-1.469.637A3.1,3.1,0,0,0,152.289,12h4.234v-.109a2.753,2.753,0,0,0-.594-1.707A1.815,1.815,0,0,0,154.492,9.578Zm10.07,5.18a1.064,1.064,0,0,0-.441-.91,4.249,4.249,0,0,0-1.539-.559,7.277,7.277,0,0,1-1.742-.562,2.479,2.479,0,0,1-.953-.781,1.869,1.869,0,0,1-.309-1.078,2.193,2.193,0,0,1,.879-1.758,3.432,3.432,0,0,1,2.246-.719,3.532,3.532,0,0,1,2.332.742,2.357,2.357,0,0,1,.895,1.9h-1.453a1.3,1.3,0,0,0-.5-1.023,1.888,1.888,0,0,0-1.27-.43,1.976,1.976,0,0,0-1.234.344,1.082,1.082,0,0,0-.445.9.877.877,0,0,0,.414.789,5.1,5.1,0,0,0,1.5.508,7.8,7.8,0,0,1,1.754.578,2.558,2.558,0,0,1,1,.809,1.988,1.988,0,0,1,.324,1.152,2.163,2.163,0,0,1-.906,1.816,3.8,3.8,0,0,1-2.352.684,4.257,4.257,0,0,1-1.8-.359,2.922,2.922,0,0,1-1.223-1,2.42,2.42,0,0,1-.441-1.395h1.445a1.5,1.5,0,0,0,.582,1.152,2.258,2.258,0,0,0,1.434.426,2.331,2.331,0,0,0,1.316-.332A1.02,1.02,0,0,0,164.563,14.758ZM171.5,12.7a4.952,4.952,0,0,1,.922-3.129,3.137,3.137,0,0,1,4.766-.168V5h1.445V17H177.3l-.07-.906a2.943,2.943,0,0,1-2.414,1.063,2.887,2.887,0,0,1-2.395-1.2,5.008,5.008,0,0,1-.926-3.141Zm1.445.164a3.749,3.749,0,0,0,.594,2.25,1.919,1.919,0,0,0,1.641.813,2.108,2.108,0,0,0,2.008-1.234V10.813a2.125,2.125,0,0,0-1.992-1.2,1.929,1.929,0,0,0-1.656.82A4.128,4.128,0,0,0,172.945,12.867Zm11.438,4.289a3.693,3.693,0,0,1-2.8-1.129,4.19,4.19,0,0,1-1.078-3.02v-.266a5.073,5.073,0,0,1,.48-2.246,3.748,3.748,0,0,1,1.344-1.547,3.378,3.378,0,0,1,1.871-.559,3.166,3.166,0,0,1,2.563,1.086,4.7,4.7,0,0,1,.914,3.109v.6h-5.727a3,3,0,0,0,.73,2.02,2.3,2.3,0,0,0,1.777.77,2.517,2.517,0,0,0,1.3-.312,3.258,3.258,0,0,0,.93-.828l.883.688A3.55,3.55,0,0,1,184.383,17.156Zm-.18-7.578a1.928,1.928,0,0,0-1.469.637A3.1,3.1,0,0,0,182,12h4.234v-.109a2.753,2.753,0,0,0-.594-1.707A1.815,1.815,0,0,0,184.2,9.578ZM198.531,17a3.036,3.036,0,0,1-.2-.891,3.225,3.225,0,0,1-2.406,1.047,2.984,2.984,0,0,1-2.051-.707,2.287,2.287,0,0,1-.8-1.793,2.39,2.39,0,0,1,1-2.051,4.733,4.733,0,0,1,2.824-.73H198.3v-.664A1.623,1.623,0,0,0,197.852,10a1.821,1.821,0,0,0-1.336-.449,2.107,2.107,0,0,0-1.3.391,1.151,1.151,0,0,0-.523.945h-1.453a2,2,0,0,1,.449-1.223,3.066,3.066,0,0,1,1.219-.934,4.1,4.1,0,0,1,1.691-.344,3.342,3.342,0,0,1,2.289.73,2.635,2.635,0,0,1,.859,2.012v3.891a4.757,4.757,0,0,0,.3,1.852V17Zm-2.4-1.1a2.54,2.54,0,0,0,1.289-.352,2.127,2.127,0,0,0,.883-.914V12.9h-1.133q-2.656,0-2.656,1.555a1.316,1.316,0,0,0,.453,1.063A1.742,1.742,0,0,0,196.133,15.9Zm7.453,1.1h-1.445V5h1.445Zm3.672-8.453.039.938A3.122,3.122,0,0,1,209.8,8.391a2.417,2.417,0,0,1,2.414,1.359,3.2,3.2,0,0,1,1.1-.984,3.242,3.242,0,0,1,1.6-.375q2.781,0,2.828,2.945V17H216.3V11.422a1.941,1.941,0,0,0-.414-1.355,1.823,1.823,0,0,0-1.391-.449,1.917,1.917,0,0,0-1.336.48,1.949,1.949,0,0,0-.617,1.293V17h-1.453V11.461a1.613,1.613,0,0,0-1.8-1.844,1.934,1.934,0,0,0-1.945,1.211V17h-1.445V8.547ZM225.141,17a3.036,3.036,0,0,1-.2-.891,3.225,3.225,0,0,1-2.406,1.047,2.984,2.984,0,0,1-2.051-.707,2.287,2.287,0,0,1-.8-1.793,2.39,2.39,0,0,1,1-2.051,4.733,4.733,0,0,1,2.824-.73h1.406v-.664A1.623,1.623,0,0,0,224.461,10a1.821,1.821,0,0,0-1.336-.449,2.107,2.107,0,0,0-1.3.391,1.151,1.151,0,0,0-.523.945h-1.453a2,2,0,0,1,.449-1.223,3.066,3.066,0,0,1,1.219-.934,4.1,4.1,0,0,1,1.691-.344,3.342,3.342,0,0,1,2.289.73,2.635,2.635,0,0,1,.859,2.012v3.891a4.757,4.757,0,0,0,.3,1.852V17Zm-2.4-1.1a2.54,2.54,0,0,0,1.289-.352,2.127,2.127,0,0,0,.883-.914V12.9h-1.133q-2.656,0-2.656,1.555a1.316,1.316,0,0,0,.453,1.063A1.742,1.742,0,0,0,222.742,15.9Zm9.273.078a2.082,2.082,0,0,0,1.352-.469,1.649,1.649,0,0,0,.641-1.172h1.367a2.621,2.621,0,0,1-.5,1.383,3.293,3.293,0,0,1-1.23,1.047,3.55,3.55,0,0,1-1.629.391A3.482,3.482,0,0,1,229.27,16a4.59,4.59,0,0,1-1.02-3.152v-.242a5.089,5.089,0,0,1,.453-2.2A3.451,3.451,0,0,1,230,8.922a3.7,3.7,0,0,1,2-.531,3.39,3.39,0,0,1,2.363.852,3.043,3.043,0,0,1,1,2.211h-1.367a1.992,1.992,0,0,0-.621-1.348,1.932,1.932,0,0,0-1.379-.527,2.023,2.023,0,0,0-1.707.793,3.724,3.724,0,0,0-.605,2.293v.273a3.65,3.65,0,0,0,.6,2.25A2.033,2.033,0,0,0,232.016,15.977Zm8.492,1.18a3.693,3.693,0,0,1-2.8-1.129,4.19,4.19,0,0,1-1.078-3.02v-.266a5.073,5.073,0,0,1,.48-2.246,3.748,3.748,0,0,1,1.344-1.547,3.378,3.378,0,0,1,1.871-.559,3.166,3.166,0,0,1,2.563,1.086,4.7,4.7,0,0,1,.914,3.109v.6h-5.727a3,3,0,0,0,.73,2.02,2.3,2.3,0,0,0,1.777.77,2.517,2.517,0,0,0,1.3-.312,3.258,3.258,0,0,0,.93-.828l.883.688A3.55,3.55,0,0,1,240.508,17.156Zm-.18-7.578a1.928,1.928,0,0,0-1.469.637A3.1,3.1,0,0,0,238.125,12h4.234v-.109a2.753,2.753,0,0,0-.594-1.707A1.815,1.815,0,0,0,240.328,9.578Zm6.516-1.031.047,1.063a3.08,3.08,0,0,1,2.531-1.219q2.68,0,2.7,3.023V17H250.68V11.406a1.946,1.946,0,0,0-.418-1.352,1.675,1.675,0,0,0-1.277-.437,2.086,2.086,0,0,0-1.234.375,2.546,2.546,0,0,0-.828.984V17h-1.445V8.547ZM259.523,17a3.036,3.036,0,0,1-.2-.891,3.225,3.225,0,0,1-2.406,1.047,2.984,2.984,0,0,1-2.051-.707,2.287,2.287,0,0,1-.8-1.793,2.39,2.39,0,0,1,1-2.051,4.733,4.733,0,0,1,2.824-.73H259.3v-.664A1.623,1.623,0,0,0,258.844,10a1.821,1.821,0,0,0-1.336-.449,2.108,2.108,0,0,0-1.3.391,1.151,1.151,0,0,0-.523.945h-1.453a2,2,0,0,1,.449-1.223,3.066,3.066,0,0,1,1.219-.934,4.1,4.1,0,0,1,1.691-.344,3.342,3.342,0,0,1,2.289.73,2.635,2.635,0,0,1,.859,2.012v3.891a4.757,4.757,0,0,0,.3,1.852V17Zm-2.4-1.1a2.54,2.54,0,0,0,1.289-.352,2.126,2.126,0,0,0,.883-.914V12.9h-1.133q-2.656,0-2.656,1.555a1.316,1.316,0,0,0,.453,1.063A1.742,1.742,0,0,0,257.125,15.9Zm7.242-7.352.039.938a3.122,3.122,0,0,1,2.508-1.094,2.417,2.417,0,0,1,2.414,1.359,3.2,3.2,0,0,1,1.1-.984,3.242,3.242,0,0,1,1.6-.375q2.781,0,2.828,2.945V17h-1.445V11.422a1.941,1.941,0,0,0-.414-1.355,1.823,1.823,0,0,0-1.391-.449,1.916,1.916,0,0,0-1.336.48,1.949,1.949,0,0,0-.617,1.293V17H268.2V11.461a1.613,1.613,0,0,0-1.8-1.844,1.934,1.934,0,0,0-1.945,1.211V17H263V8.547ZM278.6,17h-1.445V8.547H278.6ZM277.039,6.3a.863.863,0,0,1,.215-.594.807.807,0,0,1,.637-.242.819.819,0,0,1,.641.242.854.854,0,0,1,.219.594.826.826,0,0,1-.219.586.834.834,0,0,1-.641.234.821.821,0,0,1-.637-.234A.834.834,0,0,1,277.039,6.3Zm7.383,10.852a3.693,3.693,0,0,1-2.8-1.129,4.19,4.19,0,0,1-1.078-3.02v-.266a5.073,5.073,0,0,1,.48-2.246,3.748,3.748,0,0,1,1.344-1.547,3.379,3.379,0,0,1,1.871-.559A3.166,3.166,0,0,1,286.8,9.477a4.7,4.7,0,0,1,.914,3.109v.6h-5.727a3,3,0,0,0,.73,2.02,2.3,2.3,0,0,0,1.777.77,2.517,2.517,0,0,0,1.3-.312,3.259,3.259,0,0,0,.93-.828l.883.688A3.55,3.55,0,0,1,284.422,17.156Zm-.18-7.578a1.928,1.928,0,0,0-1.469.637A3.1,3.1,0,0,0,282.039,12h4.234v-.109a2.753,2.753,0,0,0-.594-1.707A1.815,1.815,0,0,0,284.242,9.578Zm6.516-1.031.047,1.063a3.08,3.08,0,0,1,2.531-1.219q2.68,0,2.7,3.023V17h-1.445V11.406a1.946,1.946,0,0,0-.418-1.352,1.675,1.675,0,0,0-1.277-.437,2.086,2.086,0,0,0-1.234.375,2.546,2.546,0,0,0-.828.984V17h-1.445V8.547ZM300.18,6.5V8.547h1.578V9.664H300.18v5.249a1.173,1.173,0,0,0,.211.763.888.888,0,0,0,.719.254,3.5,3.5,0,0,0,.688-.094V17a4.215,4.215,0,0,1-1.109.155,1.8,1.8,0,0,1-1.461-.586,2.517,2.517,0,0,1-.492-1.664V9.664H297.2V8.547h1.539V6.5Zm2.727,6.2a4.993,4.993,0,0,1,.488-2.234,3.643,3.643,0,0,1,1.359-1.531,3.7,3.7,0,0,1,1.988-.539,3.565,3.565,0,0,1,2.793,1.2,4.6,4.6,0,0,1,1.066,3.18v.1a5.036,5.036,0,0,1-.473,2.215,3.589,3.589,0,0,1-1.352,1.527,3.743,3.743,0,0,1-2.02.547,3.556,3.556,0,0,1-2.785-1.2,4.575,4.575,0,0,1-1.066-3.164Zm1.453.172a3.616,3.616,0,0,0,.652,2.258,2.211,2.211,0,0,0,3.5-.012,3.955,3.955,0,0,0,.648-2.418,3.61,3.61,0,0,0-.66-2.254,2.1,2.1,0,0,0-1.754-.863,2.075,2.075,0,0,0-1.727.852A3.925,3.925,0,0,0,304.359,12.867Z" transform="translate(-2701.736 -3075.187)" fill="#12263f"/>
    <path id="Trazado_468365" data-name="Trazado 468365" d="M9.688,13.391a4.185,4.185,0,0,1-1.332,2.785,4.365,4.365,0,0,1-2.98.98,4.008,4.008,0,0,1-3.23-1.445A5.815,5.815,0,0,1,.93,11.844V10.75A6.481,6.481,0,0,1,1.5,7.961,4.231,4.231,0,0,1,3.1,6.113a4.47,4.47,0,0,1,2.406-.645A4.11,4.11,0,0,1,8.414,6.48a4.235,4.235,0,0,1,1.273,2.8H8.18a3.268,3.268,0,0,0-.848-1.975A2.565,2.565,0,0,0,5.508,6.7,2.684,2.684,0,0,0,3.254,7.759a4.882,4.882,0,0,0-.816,3.026v1.1a5.018,5.018,0,0,0,.773,2.948A2.5,2.5,0,0,0,5.375,15.93a2.887,2.887,0,0,0,1.918-.566,3.143,3.143,0,0,0,.887-1.973ZM13.078,17H11.633V5h1.445Zm7.531,0a3.036,3.036,0,0,1-.2-.891A3.225,3.225,0,0,1,18,17.156a2.984,2.984,0,0,1-2.051-.707,2.287,2.287,0,0,1-.8-1.793,2.39,2.39,0,0,1,1-2.051,4.733,4.733,0,0,1,2.824-.73h1.406v-.664A1.623,1.623,0,0,0,19.93,10a1.821,1.821,0,0,0-1.336-.449,2.107,2.107,0,0,0-1.3.391,1.151,1.151,0,0,0-.523.945H15.32a2,2,0,0,1,.449-1.223,3.066,3.066,0,0,1,1.219-.934,4.1,4.1,0,0,1,1.691-.344,3.342,3.342,0,0,1,2.289.73,2.635,2.635,0,0,1,.859,2.012v3.891a4.757,4.757,0,0,0,.3,1.852V17Zm-2.4-1.1a2.54,2.54,0,0,0,1.289-.352,2.127,2.127,0,0,0,.883-.914V12.9H19.25q-2.656,0-2.656,1.555a1.316,1.316,0,0,0,.453,1.063A1.742,1.742,0,0,0,18.211,15.9Zm10.8-1.141a1.064,1.064,0,0,0-.441-.91,4.249,4.249,0,0,0-1.539-.559,7.277,7.277,0,0,1-1.742-.562,2.479,2.479,0,0,1-.953-.781,1.869,1.869,0,0,1-.309-1.078,2.193,2.193,0,0,1,.879-1.758,3.432,3.432,0,0,1,2.246-.719,3.532,3.532,0,0,1,2.332.742,2.357,2.357,0,0,1,.895,1.9H28.93a1.3,1.3,0,0,0-.5-1.023,1.888,1.888,0,0,0-1.27-.43,1.976,1.976,0,0,0-1.234.344,1.082,1.082,0,0,0-.445.9.877.877,0,0,0,.414.789,5.1,5.1,0,0,0,1.5.508,7.8,7.8,0,0,1,1.754.578,2.558,2.558,0,0,1,1,.809,1.988,1.988,0,0,1,.324,1.152,2.163,2.163,0,0,1-.906,1.816,3.8,3.8,0,0,1-2.352.684,4.257,4.257,0,0,1-1.8-.359,2.922,2.922,0,0,1-1.223-1,2.42,2.42,0,0,1-.441-1.395h1.445a1.5,1.5,0,0,0,.582,1.152,2.258,2.258,0,0,0,1.434.426,2.331,2.331,0,0,0,1.316-.332A1.02,1.02,0,0,0,29.016,14.758ZM33.914,17H32.469V8.547h1.445ZM32.352,6.3a.863.863,0,0,1,.215-.594.807.807,0,0,1,.637-.242.819.819,0,0,1,.641.242.854.854,0,0,1,.219.594.826.826,0,0,1-.219.586.834.834,0,0,1-.641.234.821.821,0,0,1-.637-.234A.834.834,0,0,1,32.352,6.3ZM36.711,17V9.664H35.375V8.547h1.336V7.828a2.937,2.937,0,0,1,.809-2.2A3.136,3.136,0,0,1,39.8,4.836a6.881,6.881,0,0,1,2.211.477l-.242,1.219a5.008,5.008,0,0,0-1.859-.391,1.819,1.819,0,0,0-1.34.418,1.723,1.723,0,0,0-.41,1.254v.734h1.727V9.664H38.164V17Zm6.023,0H41.281V8.547h1.453Zm5.742-1.023a2.082,2.082,0,0,0,1.352-.469,1.649,1.649,0,0,0,.641-1.172h1.367a2.621,2.621,0,0,1-.5,1.383,3.293,3.293,0,0,1-1.23,1.047,3.55,3.55,0,0,1-1.629.391A3.482,3.482,0,0,1,45.73,16a4.59,4.59,0,0,1-1.02-3.152v-.242a5.089,5.089,0,0,1,.453-2.2,3.451,3.451,0,0,1,1.3-1.492,3.7,3.7,0,0,1,2-.531,3.39,3.39,0,0,1,2.363.852,3.043,3.043,0,0,1,1,2.211H50.469a1.992,1.992,0,0,0-.621-1.348,1.932,1.932,0,0,0-1.379-.527,2.023,2.023,0,0,0-1.707.793,3.724,3.724,0,0,0-.605,2.293v.273a3.65,3.65,0,0,0,.6,2.25A2.033,2.033,0,0,0,48.477,15.977ZM58.68,17a3.036,3.036,0,0,1-.2-.891,3.225,3.225,0,0,1-2.406,1.047,2.984,2.984,0,0,1-2.051-.707,2.287,2.287,0,0,1-.8-1.793,2.39,2.39,0,0,1,1-2.051,4.733,4.733,0,0,1,2.824-.73h1.406v-.664A1.623,1.623,0,0,0,58,10a1.821,1.821,0,0,0-1.336-.449,2.107,2.107,0,0,0-1.3.391,1.151,1.151,0,0,0-.523.945H53.391a2,2,0,0,1,.449-1.223,3.066,3.066,0,0,1,1.219-.934,4.1,4.1,0,0,1,1.691-.344,3.342,3.342,0,0,1,2.289.73,2.635,2.635,0,0,1,.859,2.012v3.891a4.757,4.757,0,0,0,.3,1.852V17Zm-2.4-1.1a2.54,2.54,0,0,0,1.289-.352,2.127,2.127,0,0,0,.883-.914V12.9H57.32q-2.656,0-2.656,1.555a1.316,1.316,0,0,0,.453,1.063A1.742,1.742,0,0,0,56.281,15.9Zm9.273.078a2.082,2.082,0,0,0,1.352-.469,1.649,1.649,0,0,0,.641-1.172h1.367a2.621,2.621,0,0,1-.5,1.383,3.293,3.293,0,0,1-1.23,1.047,3.55,3.55,0,0,1-1.629.391A3.482,3.482,0,0,1,62.809,16a4.59,4.59,0,0,1-1.02-3.152v-.242a5.089,5.089,0,0,1,.453-2.2,3.451,3.451,0,0,1,1.3-1.492,3.7,3.7,0,0,1,2-.531,3.39,3.39,0,0,1,2.363.852,3.043,3.043,0,0,1,1,2.211H67.547a1.992,1.992,0,0,0-.621-1.348,1.932,1.932,0,0,0-1.379-.527,2.023,2.023,0,0,0-1.707.793,3.724,3.724,0,0,0-.605,2.293v.273a3.65,3.65,0,0,0,.6,2.25A2.033,2.033,0,0,0,65.555,15.977ZM72.109,17H70.664V8.547h1.445ZM70.547,6.3a.863.863,0,0,1,.215-.594.807.807,0,0,1,.637-.242.819.819,0,0,1,.641.242.854.854,0,0,1,.219.594.826.826,0,0,1-.219.586.834.834,0,0,1-.641.234.821.821,0,0,1-.637-.234A.834.834,0,0,1,70.547,6.3ZM74.039,12.7a4.993,4.993,0,0,1,.488-2.234A3.643,3.643,0,0,1,75.887,8.93a3.7,3.7,0,0,1,1.988-.539,3.565,3.565,0,0,1,2.793,1.2,4.6,4.6,0,0,1,1.066,3.18v.1a5.036,5.036,0,0,1-.473,2.215,3.589,3.589,0,0,1-1.352,1.527,3.743,3.743,0,0,1-2.02.547,3.556,3.556,0,0,1-2.785-1.2A4.575,4.575,0,0,1,74.039,12.8Zm1.453.172a3.616,3.616,0,0,0,.652,2.258,2.211,2.211,0,0,0,3.5-.012,3.955,3.955,0,0,0,.648-2.418,3.61,3.61,0,0,0-.66-2.254,2.1,2.1,0,0,0-1.754-.863,2.075,2.075,0,0,0-1.727.852A3.925,3.925,0,0,0,75.492,12.867ZM78.531,5h1.75L78.188,7.3l-1.164,0Zm6.383,3.547.047,1.063a3.08,3.08,0,0,1,2.531-1.219q2.68,0,2.7,3.023V17H88.75V11.406a1.946,1.946,0,0,0-.418-1.352,1.675,1.675,0,0,0-1.277-.437,2.086,2.086,0,0,0-1.234.375,2.546,2.546,0,0,0-.828.984V17H83.547V8.547ZM95.984,12.7a4.952,4.952,0,0,1,.922-3.129,3.137,3.137,0,0,1,4.766-.168V5h1.445V17h-1.328l-.07-.906A2.943,2.943,0,0,1,99.3,17.156a2.887,2.887,0,0,1-2.395-1.2,5.008,5.008,0,0,1-.926-3.141Zm1.445.164a3.749,3.749,0,0,0,.594,2.25,1.92,1.92,0,0,0,1.641.813,2.108,2.108,0,0,0,2.008-1.234V10.813a2.125,2.125,0,0,0-1.992-1.2,1.929,1.929,0,0,0-1.656.82A4.128,4.128,0,0,0,97.43,12.867Zm11.438,4.289a3.693,3.693,0,0,1-2.8-1.129,4.19,4.19,0,0,1-1.078-3.02v-.266a5.073,5.073,0,0,1,.48-2.246,3.748,3.748,0,0,1,1.344-1.547,3.378,3.378,0,0,1,1.871-.559,3.166,3.166,0,0,1,2.563,1.086,4.7,4.7,0,0,1,.914,3.109v.6h-5.727a3,3,0,0,0,.73,2.02,2.3,2.3,0,0,0,1.777.77,2.517,2.517,0,0,0,1.3-.312,3.259,3.259,0,0,0,.93-.828l.883.688A3.55,3.55,0,0,1,108.867,17.156Zm-.18-7.578a1.928,1.928,0,0,0-1.469.637A3.1,3.1,0,0,0,106.484,12h4.234v-.109a2.753,2.753,0,0,0-.594-1.707A1.815,1.815,0,0,0,108.688,9.578ZM119.367,17h-1.445V5h1.445Zm7.531,0a3.036,3.036,0,0,1-.2-.891,3.225,3.225,0,0,1-2.406,1.047,2.984,2.984,0,0,1-2.051-.707,2.288,2.288,0,0,1-.8-1.793,2.39,2.39,0,0,1,1-2.051,4.733,4.733,0,0,1,2.824-.73h1.406v-.664A1.623,1.623,0,0,0,126.219,10a1.821,1.821,0,0,0-1.336-.449,2.108,2.108,0,0,0-1.3.391,1.151,1.151,0,0,0-.523.945h-1.453a2,2,0,0,1,.449-1.223,3.066,3.066,0,0,1,1.219-.934,4.1,4.1,0,0,1,1.691-.344,3.342,3.342,0,0,1,2.289.73,2.635,2.635,0,0,1,.859,2.012v3.891a4.757,4.757,0,0,0,.3,1.852V17Zm-2.4-1.1a2.54,2.54,0,0,0,1.289-.352,2.127,2.127,0,0,0,.883-.914V12.9h-1.133q-2.656,0-2.656,1.555a1.316,1.316,0,0,0,.453,1.063A1.742,1.742,0,0,0,124.5,15.9ZM135.914,17h-1.445V8.547h1.445ZM134.352,6.3a.863.863,0,0,1,.215-.594.807.807,0,0,1,.637-.242.819.819,0,0,1,.641.242.854.854,0,0,1,.219.594.826.826,0,0,1-.219.586.834.834,0,0,1-.641.234.821.821,0,0,1-.637-.234A.834.834,0,0,1,134.352,6.3Zm5.242,2.242.047,1.063a3.08,3.08,0,0,1,2.531-1.219q2.68,0,2.7,3.023V17H143.43V11.406a1.946,1.946,0,0,0-.418-1.352,1.675,1.675,0,0,0-1.277-.437,2.086,2.086,0,0,0-1.234.375,2.546,2.546,0,0,0-.828.984V17h-1.445V8.547ZM147.766,17V9.664H146.43V8.547h1.336V7.68a2.878,2.878,0,0,1,.727-2.1,2.745,2.745,0,0,1,2.055-.742,3.816,3.816,0,0,1,.992.132l-.078,1.165a4.151,4.151,0,0,0-.781-.07,1.41,1.41,0,0,0-1.086.411,1.669,1.669,0,0,0-.383,1.18v.893h1.8V9.664h-1.8V17Zm4.461-4.3a4.993,4.993,0,0,1,.488-2.234,3.642,3.642,0,0,1,1.359-1.531,3.7,3.7,0,0,1,1.988-.539,3.565,3.565,0,0,1,2.793,1.2,4.6,4.6,0,0,1,1.066,3.18v.1a5.036,5.036,0,0,1-.473,2.215,3.589,3.589,0,0,1-1.352,1.527,3.743,3.743,0,0,1-2.02.547,3.556,3.556,0,0,1-2.785-1.2,4.575,4.575,0,0,1-1.066-3.164Zm1.453.172a3.616,3.616,0,0,0,.652,2.258,2.211,2.211,0,0,0,3.5-.012,3.954,3.954,0,0,0,.648-2.418,3.61,3.61,0,0,0-.66-2.254,2.1,2.1,0,0,0-1.754-.863,2.075,2.075,0,0,0-1.727.852A3.925,3.925,0,0,0,153.68,12.867ZM165.82,9.844a4.331,4.331,0,0,0-.711-.055A1.9,1.9,0,0,0,163.18,11v6h-1.445V8.547h1.406l.023.977a2.251,2.251,0,0,1,2.016-1.133,1.477,1.477,0,0,1,.641.109Zm2.688-1.3.039.938a3.122,3.122,0,0,1,2.508-1.094,2.417,2.417,0,0,1,2.414,1.359,3.2,3.2,0,0,1,1.1-.984,3.242,3.242,0,0,1,1.6-.375q2.781,0,2.828,2.945V17h-1.445V11.422a1.941,1.941,0,0,0-.414-1.355,1.823,1.823,0,0,0-1.391-.449,1.917,1.917,0,0,0-1.336.48,1.949,1.949,0,0,0-.617,1.293V17h-1.453V11.461a1.613,1.613,0,0,0-1.8-1.844,1.934,1.934,0,0,0-1.945,1.211V17h-1.445V8.547ZM186.391,17a3.036,3.036,0,0,1-.2-.891,3.225,3.225,0,0,1-2.406,1.047,2.984,2.984,0,0,1-2.051-.707,2.287,2.287,0,0,1-.8-1.793,2.39,2.39,0,0,1,1-2.051,4.733,4.733,0,0,1,2.824-.73h1.406v-.664A1.623,1.623,0,0,0,185.711,10a1.821,1.821,0,0,0-1.336-.449,2.107,2.107,0,0,0-1.3.391,1.151,1.151,0,0,0-.523.945H181.1a2,2,0,0,1,.449-1.223,3.066,3.066,0,0,1,1.219-.934,4.1,4.1,0,0,1,1.691-.344,3.342,3.342,0,0,1,2.289.73,2.635,2.635,0,0,1,.859,2.012v3.891a4.757,4.757,0,0,0,.3,1.852V17Zm-2.4-1.1a2.54,2.54,0,0,0,1.289-.352,2.127,2.127,0,0,0,.883-.914V12.9h-1.133q-2.656,0-2.656,1.555a1.316,1.316,0,0,0,.453,1.063A1.742,1.742,0,0,0,183.992,15.9Zm9.273.078a2.082,2.082,0,0,0,1.352-.469,1.649,1.649,0,0,0,.641-1.172h1.367a2.621,2.621,0,0,1-.5,1.383,3.293,3.293,0,0,1-1.23,1.047,3.55,3.55,0,0,1-1.629.391A3.482,3.482,0,0,1,190.52,16a4.59,4.59,0,0,1-1.02-3.152v-.242a5.089,5.089,0,0,1,.453-2.2,3.451,3.451,0,0,1,1.3-1.492,3.7,3.7,0,0,1,2-.531,3.39,3.39,0,0,1,2.363.852,3.043,3.043,0,0,1,1,2.211h-1.367a1.992,1.992,0,0,0-.621-1.348,1.932,1.932,0,0,0-1.379-.527,2.023,2.023,0,0,0-1.707.793,3.724,3.724,0,0,0-.605,2.293v.273a3.65,3.65,0,0,0,.6,2.25A2.033,2.033,0,0,0,193.266,15.977ZM199.82,17h-1.445V8.547h1.445ZM198.258,6.3a.863.863,0,0,1,.215-.594.807.807,0,0,1,.637-.242.819.819,0,0,1,.641.242.854.854,0,0,1,.219.594.826.826,0,0,1-.219.586.834.834,0,0,1-.641.234.821.821,0,0,1-.637-.234A.834.834,0,0,1,198.258,6.3ZM201.75,12.7a4.993,4.993,0,0,1,.488-2.234A3.642,3.642,0,0,1,203.6,8.93a3.7,3.7,0,0,1,1.988-.539,3.565,3.565,0,0,1,2.793,1.2,4.6,4.6,0,0,1,1.066,3.18v.1a5.036,5.036,0,0,1-.473,2.215,3.589,3.589,0,0,1-1.352,1.527,3.743,3.743,0,0,1-2.02.547,3.556,3.556,0,0,1-2.785-1.2A4.575,4.575,0,0,1,201.75,12.8Zm1.453.172a3.616,3.616,0,0,0,.652,2.258,2.211,2.211,0,0,0,3.5-.012A3.954,3.954,0,0,0,208,12.7a3.61,3.61,0,0,0-.66-2.254,2.1,2.1,0,0,0-1.754-.863,2.075,2.075,0,0,0-1.727.852A3.925,3.925,0,0,0,203.2,12.867ZM206.242,5h1.75L205.9,7.3l-1.164,0Zm6.383,3.547.047,1.063A3.08,3.08,0,0,1,215.2,8.391q2.68,0,2.7,3.023V17h-1.445V11.406a1.946,1.946,0,0,0-.418-1.352,1.675,1.675,0,0,0-1.277-.437,2.086,2.086,0,0,0-1.234.375,2.546,2.546,0,0,0-.828.984V17h-1.445V8.547Z" transform="translate(-2812.505 -3462.245)" fill="#12263f"/>
    <path id="Trazado_465808" data-name="Trazado 465808" d="M-3197.543-3267l80.973,250.829h313.831" transform="translate(409.004 -31.215)" fill="none" stroke="#5793ce" stroke-width="2"/>
    <text id="_03" data-name="03" transform="translate(-2704.199 -3079.82)" fill="none" stroke="#5793ce" stroke-width="1" font-size="35" font-family="Roboto-Regular, Roboto"><tspan x="0" y="0">03</tspan></text>
    <text id="_02" data-name="02" transform="translate(-2814.968 -3466.877)" fill="none" stroke="#5793ce" stroke-width="1" font-size="35" font-family="Roboto-Regular, Roboto"><tspan x="0" y="0">02</tspan></text>
    <g id="Grupo_709667" data-name="Grupo 709667" transform="translate(-12846 5622.09)">
      <path id="Trazado_464857" data-name="Trazado 464857" d="M6.5,0A6.5,6.5,0,1,1,0,6.5,6.5,6.5,0,0,1,6.5,0Z" transform="translate(9924 -8772)" fill="#133d60"/>
      <circle id="Elipse_6380" data-name="Elipse 6380" cx="6.5" cy="6.5" r="6.5" transform="translate(9950 -8772)" fill="#fff"/>
      <circle id="Elipse_11730" data-name="Elipse 11730" cx="6.5" cy="6.5" r="6.5" transform="translate(9976 -8772)" fill="#fff"/>
    </g>
  </g>
</svg>
