<svg xmlns="http://www.w3.org/2000/svg" xmlns:xlink="http://www.w3.org/1999/xlink" width="398.443" height="302.23" viewBox="0 0 398.443 302.23">
  <defs>
    <linearGradient id="linear-gradient" x1="0.5" x2="0.5" y2="1" gradientUnits="objectBoundingBox">
      <stop offset="0" stop-color="#fff"/>
      <stop offset="1" stop-color="#d2e6ee"/>
    </linearGradient>
    <linearGradient id="linear-gradient-17" x1="0.5" x2="0.5" y2="1" gradientUnits="objectBoundingBox">
      <stop offset="0" stop-color="#f5f5f5"/>
      <stop offset="0.25" stop-color="#f5f5f5"/>
      <stop offset="1" stop-color="#a7b3cf"/>
    </linearGradient>
  </defs>
  <g id="Grupo_709784" data-name="Grupo 709784" transform="translate(-168.512 -5650.749)">
    <g id="Grupo_151144" data-name="Grupo 151144" transform="translate(191.323 5717.565)" opacity="0.158">
      <path id="Trazado_183874" data-name="Trazado 183874" d="M533.15,152.192l-28.716-16.579,28.716-16.58,28.717,16.58Zm-26.683-16.579,26.683,15.405,26.684-15.405L533.15,120.207Z" transform="translate(-227.432 -119.03)" fill="#173d7a"/>
      <path id="Trazado_183875" data-name="Trazado 183875" d="M472.8,152.192l-28.717-16.58L472.8,119.032l.253.148,28.464,16.433Zm-26.684-16.58L472.8,151.018l26.683-15.405L472.8,120.207Z" transform="translate(-222.478 -119.03)" fill="#173d7a"/>
      <path id="Trazado_183876" data-name="Trazado 183876" d="M502.974,169.615l-28.717-16.579,28.717-16.58,28.716,16.58ZM476.29,153.035l26.684,15.405,26.683-15.405L502.974,137.63Z" transform="translate(-224.955 -120.46)" fill="#173d7a"/>
      <path id="Trazado_183877" data-name="Trazado 183877" d="M533.151,187.038l-.253-.147-28.464-16.433,28.716-16.58.254.147,28.464,16.433Zm-26.684-16.579,26.684,15.405,26.684-15.405L533.15,155.052Z" transform="translate(-227.432 -121.89)" fill="#173d7a"/>
      <path id="Trazado_183878" data-name="Trazado 183878" d="M412.442,152.191l-.253-.147-28.464-16.433,28.716-16.58.254.148,28.464,16.433Zm-26.684-16.579,26.684,15.405,26.684-15.405-26.685-15.405Z" transform="translate(-217.524 -119.03)" fill="#173d7a"/>
      <path id="Trazado_183879" data-name="Trazado 183879" d="M442.62,169.614l-.253-.147L413.9,153.034l28.716-16.58,28.717,16.581Zm-26.684-16.579L442.62,168.44l26.683-15.4-26.684-15.406Z" transform="translate(-220.001 -120.46)" fill="#173d7a"/>
      <path id="Trazado_183880" data-name="Trazado 183880" d="M472.8,187.037l-.253-.147-28.464-16.433L472.8,153.878l28.716,16.58Zm-26.684-16.579L472.8,185.863l26.682-15.4L472.8,155.052Z" transform="translate(-222.478 -121.89)" fill="#173d7a"/>
      <path id="Trazado_183881" data-name="Trazado 183881" d="M502.975,204.461,474.258,187.88,502.974,171.3l.253.147,28.464,16.433ZM476.291,187.88l26.684,15.407,26.683-15.406-26.684-15.405Z" transform="translate(-224.955 -123.32)" fill="#173d7a"/>
      <path id="Trazado_183882" data-name="Trazado 183882" d="M533.152,221.884l-.253-.147L504.435,205.3l28.716-16.579.254.147L561.869,205.3ZM506.468,205.3l26.684,15.405L559.836,205.3,533.151,189.9Z" transform="translate(-227.432 -124.751)" fill="#173d7a"/>
      <path id="Trazado_183883" data-name="Trazado 183883" d="M352.088,152.191l-28.717-16.58,28.716-16.579.253.148L380.8,135.611ZM325.4,135.61l26.684,15.406,26.683-15.405-26.684-15.405Z" transform="translate(-212.57 -119.03)" fill="#173d7a"/>
      <path id="Trazado_183884" data-name="Trazado 183884" d="M382.266,169.614l-.254-.147-28.464-16.433,28.717-16.58.253.147,28.464,16.433Zm-26.685-16.579,26.685,15.405,26.683-15.405-26.684-15.405Z" transform="translate(-215.047 -120.46)" fill="#173d7a"/>
      <path id="Trazado_183885" data-name="Trazado 183885" d="M412.443,187.037l-.253-.147-28.464-16.433,28.716-16.58.254.147,28.464,16.434Zm-26.684-16.579,26.684,15.405,26.684-15.405-26.685-15.406Z" transform="translate(-217.524 -121.89)" fill="#173d7a"/>
      <path id="Trazado_183886" data-name="Trazado 183886" d="M442.621,204.46l-.253-.147L413.9,187.879,442.62,171.3l.254.147,28.463,16.433Zm-26.684-16.58,26.684,15.406L469.3,187.879,442.62,172.474Z" transform="translate(-220.001 -123.32)" fill="#173d7a"/>
      <path id="Trazado_183887" data-name="Trazado 183887" d="M472.8,221.883,444.082,205.3,472.8,188.723l28.716,16.58ZM446.115,205.3,472.8,220.708l26.683-15.4L472.8,189.9Z" transform="translate(-222.478 -124.75)" fill="#173d7a"/>
      <path id="Trazado_183888" data-name="Trazado 183888" d="M502.976,239.307l-28.718-16.581,28.717-16.579.253.147,28.464,16.433Zm-26.685-16.581,26.685,15.406,26.683-15.405-26.684-15.405Z" transform="translate(-224.955 -126.181)" fill="#173d7a"/>
      <path id="Trazado_183889" data-name="Trazado 183889" d="M533.153,256.729l-.253-.147-28.464-16.433,28.716-16.58.254.148,28.464,16.433Zm-26.684-16.579,26.684,15.405,26.684-15.405-26.685-15.405Z" transform="translate(-227.432 -127.611)" fill="#173d7a"/>
      <path id="Trazado_183890" data-name="Trazado 183890" d="M291.733,152.19l-.253-.147L263.016,135.61l28.716-16.58.254.148L320.45,135.61ZM265.049,135.61l26.684,15.405,26.684-15.405L291.732,120.2Z" transform="translate(-207.616 -119.03)" fill="#173d7a"/>
      <path id="Trazado_183891" data-name="Trazado 183891" d="M321.911,169.613l-.253-.147-28.464-16.433,28.716-16.58,28.717,16.581Zm-26.684-16.579,26.684,15.405,26.683-15.4L321.91,137.628Z" transform="translate(-210.093 -120.46)" fill="#173d7a"/>
      <path id="Trazado_183892" data-name="Trazado 183892" d="M352.089,187.036l-.253-.147-28.464-16.433,28.716-16.579.253.147,28.464,16.434Zm-26.684-16.579,26.684,15.405,26.683-15.4-26.684-15.406Z" transform="translate(-212.57 -121.89)" fill="#173d7a"/>
      <path id="Trazado_183893" data-name="Trazado 183893" d="M382.267,204.46l-28.718-16.581L382.266,171.3l.253.147,28.464,16.433Zm-26.685-16.581,26.685,15.407,26.683-15.406-26.684-15.405Z" transform="translate(-215.047 -123.32)" fill="#173d7a"/>
      <path id="Trazado_183894" data-name="Trazado 183894" d="M412.444,221.883l-.253-.147L383.727,205.3l28.716-16.579.254.147L441.161,205.3ZM385.76,205.3l26.684,15.405L439.128,205.3,412.443,189.9Z" transform="translate(-217.524 -124.75)" fill="#173d7a"/>
      <path id="Trazado_183895" data-name="Trazado 183895" d="M442.621,239.306,413.9,222.725l28.716-16.579,28.716,16.579Zm-26.683-16.58,26.683,15.405L469.3,222.725,442.621,207.32Z" transform="translate(-220.001 -126.181)" fill="#173d7a"/>
      <path id="Trazado_183896" data-name="Trazado 183896" d="M472.8,256.728l-.254-.147-28.463-16.433,28.716-16.58,28.717,16.581Zm-26.684-16.579L472.8,255.554l26.683-15.4L472.8,224.743Z" transform="translate(-222.478 -127.611)" fill="#173d7a"/>
      <path id="Trazado_183897" data-name="Trazado 183897" d="M502.977,274.151l-.254-.147-28.464-16.433,28.717-16.579.253.147,28.464,16.433Zm-26.685-16.579,26.685,15.405,26.683-15.4-26.684-15.405Z" transform="translate(-224.955 -129.041)" fill="#173d7a"/>
      <path id="Trazado_183898" data-name="Trazado 183898" d="M533.154,291.575l-28.717-16.58,28.716-16.579.254.147L561.87,275Zm-26.684-16.58L533.154,290.4,559.838,275l-26.685-15.406Z" transform="translate(-227.432 -130.471)" fill="#173d7a"/>
      <path id="Trazado_183899" data-name="Trazado 183899" d="M231.379,152.189l-.253-.147-28.464-16.433,28.716-16.579.253.148L260.1,135.61ZM204.7,135.609l26.684,15.405,26.683-15.4L231.378,120.2Z" transform="translate(-202.662 -119.03)" fill="#173d7a"/>
      <path id="Trazado_183900" data-name="Trazado 183900" d="M261.557,169.613l-28.717-16.58,28.716-16.579.253.147,28.464,16.434Zm-26.685-16.58,26.685,15.406,26.683-15.405-26.684-15.405Z" transform="translate(-205.139 -120.46)" fill="#173d7a"/>
      <path id="Trazado_183901" data-name="Trazado 183901" d="M291.734,187.036l-.253-.147-28.464-16.433,28.716-16.58.254.147,28.464,16.433ZM265.05,170.456l26.684,15.405,26.684-15.405L291.733,155.05Z" transform="translate(-207.616 -121.89)" fill="#173d7a"/>
      <path id="Trazado_183902" data-name="Trazado 183902" d="M321.912,204.459l-.253-.147L293.2,187.878,321.911,171.3l.254.147,28.463,16.433Zm-26.684-16.58,26.684,15.406L348.6,187.878l-26.684-15.405Z" transform="translate(-210.093 -123.32)" fill="#173d7a"/>
      <path id="Trazado_183903" data-name="Trazado 183903" d="M352.09,221.882l-.254-.147L323.373,205.3l28.716-16.579,28.717,16.58ZM325.406,205.3l26.684,15.406L378.773,205.3,352.089,189.9Z" transform="translate(-212.57 -124.75)" fill="#173d7a"/>
      <path id="Trazado_183904" data-name="Trazado 183904" d="M382.268,239.3l-.254-.147L353.55,222.725l28.717-16.579.253.147,28.464,16.433Zm-26.685-16.58,26.685,15.405,26.683-15.4L382.267,207.32Z" transform="translate(-215.047 -126.181)" fill="#173d7a"/>
      <path id="Trazado_183905" data-name="Trazado 183905" d="M412.445,256.728l-28.717-16.58,28.716-16.579,28.717,16.58Zm-26.684-16.58,26.684,15.406,26.683-15.405-26.684-15.405Z" transform="translate(-217.524 -127.611)" fill="#173d7a"/>
      <path id="Trazado_183906" data-name="Trazado 183906" d="M442.622,274.151l-28.716-16.579,28.715-16.58.253.147,28.464,16.433Zm-26.683-16.579,26.683,15.406,26.683-15.406-26.684-15.405Z" transform="translate(-220.001 -129.041)" fill="#173d7a"/>
      <path id="Trazado_183907" data-name="Trazado 183907" d="M472.8,291.574l-.254-.147-28.463-16.433,28.716-16.58.253.147,28.464,16.434Zm-26.684-16.579L472.8,290.4l26.683-15.405L472.8,259.588Z" transform="translate(-222.478 -130.471)" fill="#173d7a"/>
      <path id="Trazado_183908" data-name="Trazado 183908" d="M502.978,309l-.254-.147L474.26,292.416l28.717-16.579,28.717,16.58Zm-26.685-16.58,26.685,15.406,26.683-15.405-26.684-15.406Z" transform="translate(-224.955 -131.901)" fill="#173d7a"/>
      <path id="Trazado_183909" data-name="Trazado 183909" d="M533.155,326.421,504.438,309.84l28.716-16.579.254.147,28.463,16.433ZM506.471,309.84l26.684,15.406,26.684-15.405-26.685-15.405Z" transform="translate(-227.432 -133.331)" fill="#173d7a"/>
      <path id="Trazado_183910" data-name="Trazado 183910" d="M231.38,187.035l-.253-.147-28.464-16.433,28.716-16.58L260.1,170.456ZM204.7,170.455l26.684,15.405,26.683-15.4-26.684-15.407Z" transform="translate(-202.662 -121.89)" fill="#173d7a"/>
      <path id="Trazado_183911" data-name="Trazado 183911" d="M261.558,204.459,232.84,187.878,261.557,171.3l.253.147,28.464,16.433Zm-26.685-16.581,26.685,15.407,26.683-15.406-26.684-15.405Z" transform="translate(-205.139 -123.32)" fill="#173d7a"/>
      <path id="Trazado_183912" data-name="Trazado 183912" d="M291.735,221.882l-.253-.147L263.018,205.3l28.716-16.579.254.147L320.452,205.3ZM265.051,205.3l26.684,15.406L318.419,205.3,291.734,189.9Z" transform="translate(-207.616 -124.75)" fill="#173d7a"/>
      <path id="Trazado_183913" data-name="Trazado 183913" d="M321.913,239.3l-.253-.147L293.2,222.724l28.716-16.579.253.147,28.464,16.433Zm-26.684-16.58,26.684,15.405L348.6,222.724l-26.684-15.405Z" transform="translate(-210.093 -126.181)" fill="#173d7a"/>
      <path id="Trazado_183914" data-name="Trazado 183914" d="M352.091,256.728l-.254-.148-28.463-16.433,28.716-16.579.253.147,28.464,16.433Zm-26.684-16.58,26.684,15.405,26.683-15.405L352.09,224.742Z" transform="translate(-212.57 -127.611)" fill="#173d7a"/>
      <path id="Trazado_183915" data-name="Trazado 183915" d="M382.269,274.15l-.254-.147L353.551,257.57l28.717-16.58,28.717,16.581ZM355.584,257.57l26.685,15.405,26.683-15.4-26.684-15.406Z" transform="translate(-215.047 -129.041)" fill="#173d7a"/>
      <path id="Trazado_183916" data-name="Trazado 183916" d="M412.445,291.574l-28.716-16.58,28.716-16.579,28.717,16.58Zm-26.683-16.58L412.445,290.4l26.684-15.405-26.684-15.406Z" transform="translate(-217.524 -130.471)" fill="#173d7a"/>
      <path id="Trazado_183917" data-name="Trazado 183917" d="M442.623,309l-.253-.147-28.464-16.434,28.716-16.579.253.147,28.464,16.433Zm-26.684-16.58,26.684,15.406,26.683-15.406-26.684-15.405Z" transform="translate(-220.001 -131.901)" fill="#173d7a"/>
      <path id="Trazado_183918" data-name="Trazado 183918" d="M472.8,326.42l-.254-.147L444.084,309.84,472.8,293.26l.253.147,28.464,16.433Zm-26.685-16.58L472.8,325.246l26.683-15.406L472.8,294.434Z" transform="translate(-222.478 -133.331)" fill="#173d7a"/>
      <path id="Trazado_183919" data-name="Trazado 183919" d="M502.979,343.843l-.254-.147-28.464-16.434,28.717-16.579,28.717,16.58Zm-26.685-16.58,26.685,15.405,26.683-15.4-26.684-15.406Z" transform="translate(-224.955 -134.761)" fill="#173d7a"/>
      <path id="Trazado_183920" data-name="Trazado 183920" d="M533.156,361.266l-.253-.148-28.464-16.433,28.716-16.579.254.148,28.463,16.433Zm-26.684-16.58,26.684,15.405,26.684-15.4-26.685-15.405Z" transform="translate(-227.432 -136.191)" fill="#173d7a"/>
      <path id="Trazado_183921" data-name="Trazado 183921" d="M231.381,221.881l-.253-.147L202.664,205.3l28.716-16.579L260.1,205.3ZM204.7,205.3l26.684,15.406L258.064,205.3,231.38,189.9Z" transform="translate(-202.662 -124.75)" fill="#173d7a"/>
      <path id="Trazado_183922" data-name="Trazado 183922" d="M261.559,239.3l-.254-.147-28.464-16.434,28.717-16.578.253.147,28.464,16.433Zm-26.685-16.58,26.685,15.405,26.683-15.4-26.684-15.405Z" transform="translate(-205.139 -126.181)" fill="#173d7a"/>
      <path id="Trazado_183923" data-name="Trazado 183923" d="M291.736,256.728l-28.717-16.581,28.716-16.579.254.147,28.464,16.433Zm-26.684-16.581,26.684,15.406,26.684-15.405-26.685-15.405Z" transform="translate(-207.616 -127.611)" fill="#173d7a"/>
      <path id="Trazado_183924" data-name="Trazado 183924" d="M321.914,274.15l-.253-.147L293.2,257.57l28.716-16.58.253.147L350.63,257.57ZM295.23,257.57l26.684,15.405L348.6,257.57l-26.684-15.405Z" transform="translate(-210.093 -129.041)" fill="#173d7a"/>
      <path id="Trazado_183925" data-name="Trazado 183925" d="M352.092,291.573l-.254-.147-28.463-16.432,28.716-16.58.253.147,28.464,16.434Zm-26.684-16.579L352.092,290.4l26.683-15.405-26.684-15.406Z" transform="translate(-212.57 -130.471)" fill="#173d7a"/>
      <path id="Trazado_183926" data-name="Trazado 183926" d="M382.269,309l-28.717-16.579,28.717-16.58,28.716,16.58Zm-26.684-16.579,26.684,15.405,26.683-15.405L382.269,277.01Z" transform="translate(-215.047 -131.901)" fill="#173d7a"/>
      <path id="Trazado_183927" data-name="Trazado 183927" d="M412.446,326.419l-.253-.147-28.464-16.434,28.716-16.578.254.147,28.463,16.433Zm-26.684-16.58,26.684,15.406L439.13,309.84l-26.685-15.405Z" transform="translate(-217.524 -133.331)" fill="#173d7a"/>
      <path id="Trazado_183928" data-name="Trazado 183928" d="M442.624,343.843l-28.717-16.581,28.716-16.578.253.147,28.464,16.433ZM415.94,327.261l26.684,15.406,26.683-15.405-26.684-15.405Z" transform="translate(-220.001 -134.761)" fill="#173d7a"/>
      <path id="Trazado_183929" data-name="Trazado 183929" d="M472.8,361.266l-.254-.148-28.463-16.433L472.8,328.106l.253.147,28.464,16.433Zm-26.685-16.58L472.8,360.091l26.683-15.405L472.8,329.28Z" transform="translate(-222.478 -136.191)" fill="#173d7a"/>
      <path id="Trazado_183930" data-name="Trazado 183930" d="M231.382,256.727l-.254-.148-28.463-16.433,28.716-16.579.253.147L260.1,240.146ZM204.7,240.146l26.684,15.405,26.683-15.405-26.684-15.405Z" transform="translate(-202.662 -127.611)" fill="#173d7a"/>
      <path id="Trazado_183931" data-name="Trazado 183931" d="M261.56,274.149l-.254-.147-28.464-16.433,28.717-16.58,28.717,16.581Zm-26.685-16.579,26.685,15.405,26.683-15.4-26.684-15.406Z" transform="translate(-205.139 -129.041)" fill="#173d7a"/>
      <path id="Trazado_183932" data-name="Trazado 183932" d="M291.737,291.573l-28.717-16.58,28.716-16.579.254.147,28.464,16.434Zm-26.684-16.58L291.737,290.4l26.684-15.405-26.685-15.406Z" transform="translate(-207.616 -130.471)" fill="#173d7a"/>
      <path id="Trazado_183933" data-name="Trazado 183933" d="M321.915,309l-.253-.147L293.2,292.416l28.716-16.58.253.147,28.464,16.433Zm-26.684-16.579,26.684,15.405L348.6,292.416,321.914,277.01Z" transform="translate(-210.093 -131.901)" fill="#173d7a"/>
      <path id="Trazado_183934" data-name="Trazado 183934" d="M352.093,326.419l-.254-.147-28.463-16.434,28.716-16.579,28.716,16.579Zm-26.685-16.58,26.685,15.406,26.682-15.406-26.683-15.405Z" transform="translate(-212.57 -133.331)" fill="#173d7a"/>
      <path id="Trazado_183935" data-name="Trazado 183935" d="M382.27,343.842l-28.717-16.58,28.716-16.579.253.147,28.464,16.433Zm-26.684-16.58,26.684,15.405,26.683-15.405-26.684-15.405Z" transform="translate(-215.047 -134.761)" fill="#173d7a"/>
      <path id="Trazado_183936" data-name="Trazado 183936" d="M412.447,361.265l-.253-.148L383.73,344.684l28.716-16.579,28.717,16.58Zm-26.684-16.58,26.684,15.405,26.684-15.4-26.685-15.406Z" transform="translate(-217.524 -136.191)" fill="#173d7a"/>
      <path id="Trazado_183937" data-name="Trazado 183937" d="M231.383,291.572l-.254-.147-28.463-16.433,28.716-16.58.253.147L260.1,274.992ZM204.7,274.992,231.383,290.4l26.683-15.405-26.684-15.405Z" transform="translate(-202.662 -130.471)" fill="#173d7a"/>
      <path id="Trazado_183938" data-name="Trazado 183938" d="M261.561,308.995l-.254-.147-28.464-16.433,28.717-16.58,28.717,16.581Zm-26.685-16.579,26.685,15.405,26.683-15.4L261.56,277.009Z" transform="translate(-205.139 -131.901)" fill="#173d7a"/>
      <path id="Trazado_183939" data-name="Trazado 183939" d="M291.738,326.418l-.253-.147-28.464-16.434,28.716-16.579.254.147,28.463,16.433Zm-26.684-16.58,26.684,15.406,26.684-15.405-26.685-15.405Z" transform="translate(-207.616 -133.331)" fill="#173d7a"/>
      <path id="Trazado_183940" data-name="Trazado 183940" d="M321.916,343.842,293.2,327.261l28.716-16.579.253.147,28.464,16.433Zm-26.684-16.581,26.684,15.406L348.6,327.261l-26.684-15.405Z" transform="translate(-210.093 -134.761)" fill="#173d7a"/>
      <path id="Trazado_183941" data-name="Trazado 183941" d="M352.093,361.265l-28.716-16.58,28.716-16.579,28.716,16.579Zm-26.684-16.58,26.684,15.405,26.683-15.405-26.683-15.405Z" transform="translate(-212.571 -136.191)" fill="#173d7a"/>
      <path id="Trazado_183942" data-name="Trazado 183942" d="M231.384,326.418l-.254-.147-28.463-16.434,28.716-16.579.253.147L260.1,309.837ZM204.7,309.837l26.685,15.406,26.683-15.406-26.684-15.405Z" transform="translate(-202.662 -133.331)" fill="#173d7a"/>
      <path id="Trazado_183943" data-name="Trazado 183943" d="M261.562,343.841l-.254-.147L232.844,327.26l28.717-16.579.253.147,28.464,16.433Zm-26.685-16.58,26.685,15.405,26.683-15.405-26.684-15.405Z" transform="translate(-205.139 -134.761)" fill="#173d7a"/>
      <path id="Trazado_183944" data-name="Trazado 183944" d="M291.739,361.264l-.253-.148-28.464-16.433L291.738,328.1l28.717,16.58Zm-26.684-16.58,26.684,15.405,26.684-15.4-26.685-15.406Z" transform="translate(-207.616 -136.191)" fill="#173d7a"/>
      <path id="Trazado_183945" data-name="Trazado 183945" d="M231.385,361.264l-.254-.148-28.463-16.433L231.384,328.1l.253.147L260.1,344.683ZM204.7,344.683l26.685,15.405,26.683-15.405-26.684-15.405Z" transform="translate(-202.662 -136.191)" fill="#173d7a"/>
    </g>
    <g id="Grupo_41977" data-name="Grupo 41977" transform="translate(168.512 5650.749)">
      <path id="Trazado_95347" data-name="Trazado 95347" d="M310.1,206.966,335.85,192.1c4.716-2.722,12.36-2.722,17.073,0L364,198.821l89.436,51.637c4.716,2.721,4.715,7.134,0,9.855l-78.107,45.1" transform="translate(-60.034 -88.31)" fill="none" stroke="#00223d" stroke-linecap="round" stroke-linejoin="round" stroke-width="3"/>
      <path id="Trazado_95348" data-name="Trazado 95348" d="M118.68,182.484l50.02-28.879c4.714-2.721,12.358-2.721,17.071,0l11.083,6.722,56.517,32.628" transform="translate(-35.872 -83.451)" fill="none" stroke="#00223d" stroke-linecap="round" stroke-linejoin="round" stroke-width="3"/>
      <path id="Trazado_95349" data-name="Trazado 95349" d="M115.92,336.414,38.879,291.934c-4.715-2.723-4.715-7.136,0-9.857l83.4-48.149" transform="translate(-25.352 -93.847)" fill="none" stroke="#00223d" stroke-linecap="round" stroke-linejoin="round" stroke-width="3"/>
      <line id="Línea_335" data-name="Línea 335" x1="59.389" y2="35.119" transform="translate(82.808 197.202)" fill="none" stroke="#00223d" stroke-linecap="round" stroke-linejoin="round" stroke-width="3"/>
      <line id="Línea_336" data-name="Línea 336" x1="98.159" y2="57.002" transform="translate(142.377 133.341)" fill="none" stroke="#00223d" stroke-linecap="round" stroke-linejoin="round" stroke-width="3"/>
      <path id="Trazado_95350" data-name="Trazado 95350" d="M303.931,351.661l-90.9,52.479c-4.715,2.721-12.358,2.721-17.072,0L123.635,362.38" transform="translate(-36.497 -108.708)" fill="none" stroke="#00223d" stroke-linecap="round" stroke-linejoin="round" stroke-width="3"/>
      <path id="Trazado_95351" data-name="Trazado 95351" d="M333.851,216.345l-77.092-44.509a1.437,1.437,0,0,0-1.44,0L219.7,192.4a1.44,1.44,0,0,0,0,2.494L296.793,239.4a1.433,1.433,0,0,0,1.44,0l35.618-20.563a1.44,1.44,0,0,0,0-2.494Z" transform="translate(-48.532 -85.985)" opacity="0.2" style="mix-blend-mode: multiply;isolation: isolate"/>
      <g id="Grupo_41938" data-name="Grupo 41938" transform="translate(171.889 0)">
        <path id="Trazado_95352" data-name="Trazado 95352" d="M344.476,210.812l-35.617,20.563V144.77l35.617-20.564Z" transform="translate(-231.766 -79.997)" fill="url(#linear-gradient)"/>
        <path id="Trazado_95353" data-name="Trazado 95353" d="M344.476,143.394l-35.617,20.563v-2.149l35.617-20.564Z" transform="translate(-231.766 -82.148)" fill="#00223d"/>
        <path id="Trazado_95354" data-name="Trazado 95354" d="M344.476,163.434,308.858,184v-2.149l35.617-20.564Z" transform="translate(-231.766 -84.678)" fill="#00223d"/>
        <path id="Trazado_95355" data-name="Trazado 95355" d="M344.476,183.475l-35.617,20.563v-2.149l35.617-20.564Z" transform="translate(-231.766 -87.207)" fill="#00223d"/>
        <path id="Trazado_95356" data-name="Trazado 95356" d="M344.476,203.516l-35.617,20.564v-2.15l35.617-20.564Z" transform="translate(-231.766 -89.737)" fill="#00223d"/>
        <path id="Trazado_95357" data-name="Trazado 95357" d="M331.341,223.413a5.427,5.427,0,0,1-2.455,4.252c-1.356.783-2.455.149-2.455-1.417A5.425,5.425,0,0,1,328.885,222C330.241,221.213,331.341,221.846,331.341,223.413Z" transform="translate(-233.984 -92.299)" fill="#00223d"/>
        <g id="Grupo_41937" data-name="Grupo 41937" transform="translate(83.058 123.596)">
          <path id="Trazado_95358" data-name="Trazado 95358" d="M318.141,228.2a5.431,5.431,0,0,0-2.455,4.252c0,1.566,1.1,2.2,2.455,1.416a5.417,5.417,0,0,0,2.456-4.251C320.6,228.05,319.5,227.415,318.141,228.2Z" transform="translate(-315.686 -216.678)" fill="#ff2c9c"/>
          <path id="Trazado_95359" data-name="Trazado 95359" d="M340.312,215.4a5.434,5.434,0,0,0-2.456,4.254c0,1.565,1.1,2.2,2.456,1.417a5.425,5.425,0,0,0,2.455-4.253C342.767,215.249,341.669,214.616,340.312,215.4Z" transform="translate(-318.484 -215.062)" fill="#e2c140"/>
        </g>
        <path id="Trazado_95360" data-name="Trazado 95360" d="M297.721,227.916l-77.091-44.509V96.8l77.092,44.509Z" transform="translate(-220.629 -76.538)" fill="url(#linear-gradient)"/>
        <path id="Trazado_95361" data-name="Trazado 95361" d="M297.721,138.684,220.629,94.175l35.618-20.564,77.092,44.51Z" transform="translate(-220.629 -73.611)" fill="#d2e1f1"/>
        <path id="Trazado_95362" data-name="Trazado 95362" d="M297.721,160.5l-77.091-44.509V113.84l77.091,44.509Z" transform="translate(-220.629 -78.689)" fill="#21587b"/>
        <path id="Trazado_95363" data-name="Trazado 95363" d="M297.721,180.538,220.629,136.03V133.88l77.092,44.509Z" transform="translate(-220.629 -81.218)" fill="#21587b"/>
        <path id="Trazado_95364" data-name="Trazado 95364" d="M297.721,200.579l-77.092-44.508v-2.15l77.092,44.509Z" transform="translate(-220.629 -83.748)" fill="#21587b"/>
        <path id="Trazado_95365" data-name="Trazado 95365" d="M297.721,220.62l-77.091-44.509v-2.149l77.092,44.509Z" transform="translate(-220.629 -86.278)" fill="#21587b"/>
      </g>
      <path id="Trazado_95366" data-name="Trazado 95366" d="M266.733,316.855l-71.917-41.521a7.638,7.638,0,0,0-7.068,0l-42.4,24.479a3.17,3.17,0,0,0,0,5.811l71.916,41.522a7.636,7.636,0,0,0,7.067,0l42.4-24.48a3.17,3.17,0,0,0,0-5.811Z" transform="translate(-38.998 -98.964)" opacity="0.2" style="mix-blend-mode: multiply;isolation: isolate"/>
      <g id="Grupo_41939" data-name="Grupo 41939" transform="translate(105.95 172.371)">
        <path id="Trazado_95367" data-name="Trazado 95367" d="M267.351,314.969v-.279a1.945,1.945,0,0,0-1.151-1.621l-71.916-41.521a6.155,6.155,0,0,0-5.569,0l-42.4,24.478a1.952,1.952,0,0,0-1.152,1.621v.606a.192.192,0,0,0,0,.023v.079a.207.207,0,0,0,0,.024v1.086a.191.191,0,0,0,0,.023v1.944a1.948,1.948,0,0,0,1.152,1.62l71.916,41.521a6.16,6.16,0,0,0,5.569,0l42.4-24.479a1.946,1.946,0,0,0,1.151-1.62v-3.5Z" transform="translate(-145.165 -270.883)" fill="#00223d"/>
        <path id="Trazado_95368" data-name="Trazado 95368" d="M266.2,313.07c1.538.887,1.536,2.327,0,3.215l-42.4,24.478a6.154,6.154,0,0,1-5.569,0l-71.916-41.519c-1.538-.889-1.537-2.328,0-3.217l42.4-24.478a6.155,6.155,0,0,1,5.569,0Z" transform="translate(-145.164 -270.883)" fill="url(#linear-gradient)"/>
        <path id="Trazado_95369" data-name="Trazado 95369" d="M251.25,310.211a1.343,1.343,0,0,1,0,2.544l-33.559,19.378a4.882,4.882,0,0,1-4.408,0l-53.194-30.711a1.343,1.343,0,0,1,0-2.544l33.56-19.377a4.868,4.868,0,0,1,4.408,0Z" transform="translate(-146.933 -271.904)" fill="#00223d"/>
        <path id="Trazado_95370" data-name="Trazado 95370" d="M248.873,310.483c1.155.666,1.18,1.734.055,2.385l-31.045,17.923a4.569,4.569,0,0,1-4.13-.029l-50.473-29.143c-1.156-.668-1.178-1.734-.052-2.384l31.043-17.924a4.568,4.568,0,0,1,4.131.031Z" transform="translate(-147.34 -272.139)" fill="#a6e4ff"/>
        <path id="Trazado_95371" data-name="Trazado 95371" d="M163.279,302.22l5.084,2.936q9.774-9.778,19.535-19.565l-24.672,14.245C162.1,300.486,162.123,301.552,163.279,302.22Z" transform="translate(-147.34 -272.739)" fill="#bfecff"/>
        <path id="Trazado_95372" data-name="Trazado 95372" d="M230.386,299.024l-9.2-5.311q-12.856,12.855-25.71,25.711l9.2,5.311Z" transform="translate(-151.515 -273.765)" fill="#bfecff"/>
        <path id="Trazado_95373" data-name="Trazado 95373" d="M223.39,334.469l25.034-25.033-5.172-2.986L217.54,332.163,220.713,334A4.53,4.53,0,0,0,223.39,334.469Z" transform="translate(-154.3 -275.373)" fill="#bfecff"/>
        <path id="Trazado_95374" data-name="Trazado 95374" d="M209.248,286.816l-2.825-1.631q-12.817,12.884-25.664,25.738l2.778,1.6Q196.394,299.671,209.248,286.816Z" transform="translate(-149.658 -272.688)" fill="#bfecff"/>
        <path id="Trazado_95375" data-name="Trazado 95375" d="M182.088,283.681a.749.749,0,0,1,0,1.419l-12.3,7.1a2.726,2.726,0,0,1-2.461,0h0a.75.75,0,0,1,0-1.42l12.3-7.1a2.713,2.713,0,0,1,2.461,0Z" transform="translate(-147.898 -272.461)" fill="#00223d"/>
        <path id="Trazado_95376" data-name="Trazado 95376" d="M255.194,329.991c2.113,1.221,2.113,3.2,0,4.42a8.466,8.466,0,0,1-7.653,0c-2.113-1.221-2.113-3.2,0-4.419A8.464,8.464,0,0,1,255.194,329.991Z" transform="translate(-157.887 -278.229)" fill="#fff"/>
        <path id="Trazado_95377" data-name="Trazado 95377" d="M254.036,331c1.309.757,1.309,1.982,0,2.738a5.239,5.239,0,0,1-4.742,0c-1.308-.756-1.308-1.981,0-2.738A5.25,5.25,0,0,1,254.036,331Z" transform="translate(-158.184 -278.4)" fill="#66797a"/>
        <path id="Trazado_95378" data-name="Trazado 95378" d="M242.392,337.216a.585.585,0,0,1,0,1.106l-10.113,5.837a2.111,2.111,0,0,1-1.913,0h0a.582.582,0,0,1,0-1.1l10.112-5.84a2.115,2.115,0,0,1,1.914,0Z" transform="translate(-155.869 -279.227)" fill="#00223d"/>
        <path id="Trazado_95379" data-name="Trazado 95379" d="M272.082,320.074a.584.584,0,0,1,0,1.105l-10.111,5.839a2.125,2.125,0,0,1-1.915,0h0a.582.582,0,0,1,0-1.1l10.113-5.84a2.116,2.116,0,0,1,1.914,0Z" transform="translate(-159.617 -277.063)" fill="#00223d"/>
      </g>
      <path id="Trazado_95380" data-name="Trazado 95380" d="M186.927,193.434,125,157.682a11.972,11.972,0,0,0-5.816-1.541,7.751,7.751,0,0,0-3.866.917L26.2,208.511a4.3,4.3,0,0,0-2.292,3.749c0,1.86,1.229,3.637,3.374,4.876l61.924,35.75a11.966,11.966,0,0,0,5.815,1.541,7.745,7.745,0,0,0,3.866-.918l89.12-51.452a4.3,4.3,0,0,0,2.293-3.749C190.3,196.448,189.071,194.672,186.927,193.434Z" transform="translate(-23.909 -84.028)" opacity="0.2" style="mix-blend-mode: multiply;isolation: isolate"/>
      <g id="Grupo_41940" data-name="Grupo 41940" transform="translate(2.628 70.182)">
        <path id="Trazado_95381" data-name="Trazado 95381" d="M188.048,195.254c0-.011,0-.021,0-.031s0-.022,0-.032,0-.021,0-.032,0-.022,0-.032,0-.022,0-.033,0-.02,0-.031v-.032c0-.01,0-.022,0-.032s0-.022,0-.032,0-.021,0-.031,0-.022,0-.033,0-.021,0-.031,0-.022,0-.032,0-.022,0-.032,0-.021,0-.032,0-.021,0-.031,0-.023,0-.032,0-.022,0-.032,0-.021,0-.031,0-.022,0-.034,0-.022,0-.032,0-.02,0-.03v-.033c0-.01,0-.022,0-.032s0-.022,0-.032,0-.022,0-.031,0-.022,0-.033,0-.021,0-.031,0-.022,0-.032,0-.022,0-.032,0-.021,0-.032,0-.021,0-.032,0-.021,0-.031,0-.022,0-.032,0-.022,0-.032,0-.021,0-.032,0-.021,0-.032,0-.021,0-.032,0-.022,0-.032,0-.022,0-.032,0-.02,0-.029,0-.025,0-.038,0-.019,0-.029,0-.022,0-.032,0-.022,0-.032,0-.022,0-.032,0-.022,0-.031,0-.022,0-.032,0-.022,0-.033,0-.021,0-.031,0-.041,0-.061c.066-.883-.649-1.9-2.056-2.714l-61.923-35.75c-2.246-1.3-5.4-1.576-7.053-.625L27.9,205.95a1.725,1.725,0,0,0-.974,1.39c0,.032,0,.066,0,.1,0,.012,0,.024,0,.035s0,.021,0,.032,0,.021,0,.031,0,.022,0,.032,0,.022,0,.032,0,.022,0,.032,0,.022,0,.033,0,.02,0,.03,0,.023,0,.033,0,.022,0,.032,0,.022,0,.032,0,.022,0,.032,0,.021,0,.031,0,.022,0,.032,0,.022,0,.032,0,.022,0,.032,0,.022,0,.032,0,.022,0,.031,0,.022,0,.033,0,.021,0,.031,0,.023,0,.033,0,.021,0,.031,0,.022,0,.033,0,.021,0,.032,0,.022,0,.031,0,.022,0,.032,0,.021,0,.031,0,.023,0,.033,0,.022,0,.031,0,.022,0,.032,0,.022,0,.031,0,.023,0,.033,0,.021,0,.032,0,.021,0,.032,0,.021,0,.031,0,.022,0,.033,0,.021,0,.032,0,.022,0,.032,0,.021,0,.032,0,.021,0,.032,0,.021,0,.033,0,.02,0,.029,0,.023,0,.034,0,.022,0,.032,0,.021,0,.031,0,.022,0,.032,0,.022,0,.032,0,.022,0,.033,0,.022,0,.032,0,.02,0,.031,0,.022,0,.032,0,.022,0,.032,0,.022,0,.032,0,.021,0,.032,0,.022,0,.032,0,.021,0,.031,0,.023,0,.032,0,.022,0,.032,0,.022,0,.032,0,.022,0,.031,0,.022,0,.033,0,.021,0,.032,0,.021,0,.031,0,.022,0,.032,0,.021,0,.033,0,.02,0,.031,0,.021,0,.031,0,.023,0,.034,0,.022,0,.032,0,.02,0,.031,0,.021,0,.033,0,.021,0,.031,0,.022,0,.032,0,.022,0,.032,0,.022,0,.032,0,.022,0,.032,0,.021,0,.031,0,.022,0,.032,0,.022,0,.032,0,.022,0,.032,0,.021,0,.032,0,.021,0,.032,0,.021,0,.032,0,.021,0,.031,0,.022,0,.032,0,.022,0,.032,0,.021,0,.031,0,.022,0,.033,0,.021,0,.031,0,.022,0,.032,0,.022,0,.032,0,.021,0,.032,0,.022,0,.032,0,.021,0,.031,0,.022,0,.032,0,.021,0,.032,0,.022,0,.032,0,.021,0,.032,0,.021,0,.032,0,.021,0,.032,0,.021,0,.031,0,.022,0,.032,0,.021,0,.032,0,.021,0,.031,0,.023,0,.032,0,.022,0,.032,0,.022,0,.032,0,.021,0,.031,0,.022,0,.032,0,.022,0,.032,0,.022,0,.032,0,.022,0,.032,0,.021,0,.032,0,.022,0,.032,0,.021,0,.031,0,.022,0,.033,0,.021,0,.032,0,.02,0,.031,0,.021,0,.032,0,.022,0,.031,0,.023,0,.032,0,.022,0,.032,0,.022,0,.032,0,.022,0,.031,0,.022,0,.032,0,.022,0,.033,0,.02,0,.031,0,.022,0,.032,0,.021,0,.031,0,.022,0,.033,0,.021,0,.032,0,.021,0,.032,0,.021,0,.031,0,.021,0,.032,0,.021,0,.032,0,.021,0,.031,0,.023,0,.032,0,.022,0,.032,0,.022,0,.032,0,.022,0,.032,0,.022,0,.032,0,.022,0,.032,0,.022,0,.032,0,.021,0,.032,0,.021,0,.032,0,.021,0,.031,0,.023,0,.033c-.065.881.65,1.9,2.055,2.71L90.9,250.631c2.246,1.3,5.4,1.576,7.053.625l89.12-51.454a1.727,1.727,0,0,0,.974-1.395c0-.01,0-.022,0-.032s0-.022,0-.031,0-.022,0-.033,0-.022,0-.032,0-.02,0-.031,0-.022,0-.033,0-.021,0-.031,0-.023,0-.032,0-.022,0-.032,0-.022,0-.032,0-.021,0-.032,0-.021,0-.032,0-.021,0-.031,0-.022,0-.033,0-.021,0-.031,0-.022,0-.032,0-.022,0-.031,0-.022,0-.033,0-.021,0-.032,0-.021,0-.031,0-.022,0-.032,0-.021,0-.032,0-.021,0-.032,0-.022,0-.031,0-.022,0-.032,0-.022,0-.032,0-.022,0-.032,0-.021,0-.032,0-.021,0-.031,0-.022,0-.033,0-.021,0-.031,0-.022,0-.032,0-.022,0-.032,0-.021,0-.031,0-.022,0-.033,0-.021,0-.031,0-.022,0-.032,0-.021,0-.032,0-.021,0-.032,0-.021,0-.031,0-.022,0-.032,0-.022,0-.032,0-.022,0-.032,0-.021,0-.032,0-.021,0-.032,0-.021,0-.031,0-.022,0-.032,0-.022,0-.032,0-.021,0-.032,0-.022,0-.032,0-.021,0-.031,0-.022,0-.033,0-.02,0-.032,0-.022,0-.032,0-.022,0-.032,0-.021,0-.032,0-.021,0-.031,0-.022,0-.032,0-.022,0-.032,0-.021,0-.032,0-.021,0-.032,0-.021,0-.032,0-.022,0-.032,0-.022,0-.032,0-.022,0-.031,0-.022,0-.032,0-.022,0-.032,0-.022,0-.032,0-.022,0-.032,0-.021,0-.032,0-.022,0-.032,0-.021,0-.031,0-.022,0-.032,0-.022,0-.032,0-.022,0-.032,0-.022,0-.032,0-.02,0-.031,0-.023,0-.035,0-.021,0-.031,0-.021,0-.031,0-.021,0-.031,0-.024,0-.034,0-.022,0-.033,0-.02,0-.03,0-.022,0-.033,0-.021,0-.031,0-.022,0-.033,0-.021,0-.031,0-.022,0-.032,0-.022,0-.032,0-.021,0-.032,0-.021,0-.032,0-.021,0-.031,0-.022,0-.032,0-.022,0-.033,0-.021,0-.031,0-.02,0-.031S188.048,195.265,188.048,195.254Z" transform="translate(-26.917 -153.932)" fill="#00223d"/>
        <path id="Trazado_95382" data-name="Trazado 95382" d="M97.954,246.4c-1.65.952-4.807.672-7.053-.625l-61.924-35.75c-2.246-1.3-2.73-3.12-1.081-4.073l89.12-51.454c1.649-.952,4.807-.672,7.053.625l61.923,35.75c2.246,1.3,2.731,3.12,1.082,4.073Z" transform="translate(-26.917 -153.932)" fill="url(#linear-gradient)"/>
        <path id="Trazado_95383" data-name="Trazado 95383" d="M109.1,238.019c-1.525.881-4.391.654-6.4-.506L47.286,205.518c-2.009-1.16-2.4-2.814-.876-3.7l68.89-39.773c1.525-.881,4.392-.654,6.4.506l55.416,31.995c2.01,1.16,2.4,2.814.877,3.7Z" transform="translate(-29.26 -154.889)" fill="#00223d"/>
        <path id="Trazado_95384" data-name="Trazado 95384" d="M109.048,236.018c-1.448.837-4.129.643-5.988-.429L51.8,205.992c-1.859-1.073-2.193-2.62-.745-3.457l65.483-37.806c1.447-.835,4.129-.643,5.987.431l51.262,29.6c1.859,1.073,2.193,2.621.746,3.457Z" transform="translate(-29.85 -155.229)" fill="#1e2729"/>
        <path id="Trazado_95385" data-name="Trazado 95385" d="M51.8,210.532l.537.31L63,200.176l-11.95,6.9C49.605,207.911,49.94,209.459,51.8,210.532Z" transform="translate(-29.85 -159.769)" fill="#2b383b"/>
        <path id="Trazado_95386" data-name="Trazado 95386" d="M121.056,164.24a5.177,5.177,0,0,0-2.928.489L97.576,176.6l-34.81,34.81,7.051,4.072Z" transform="translate(-31.442 -155.23)" fill="#2b383b"/>
        <path id="Trazado_95387" data-name="Trazado 95387" d="M154.9,182.274l-8.177-4.722L94.951,229.327l8.178,4.721Z" transform="translate(-35.505 -156.913)" fill="#2b383b"/>
        <path id="Trazado_95388" data-name="Trazado 95388" d="M173.109,192.7l-6.772-3.909-50.814,50.814a4.321,4.321,0,0,0,1.776-.488l22.219-12.828Z" transform="translate(-38.102 -158.332)" fill="#2b383b"/>
        <path id="Trazado_95389" data-name="Trazado 95389" d="M190.267,199.16l-.091-.052q-4.721,4.724-9.445,9.445l10.283-5.936C192.461,201.782,192.127,200.233,190.267,199.16Z" transform="translate(-46.333 -159.634)" fill="#2b383b"/>
        <path id="Trazado_95390" data-name="Trazado 95390" d="M136.121,171.429l-3.4-1.96L80.951,221.244l3.4,1.96Z" transform="translate(-33.738 -155.893)" fill="#2b383b"/>
        <path id="Trazado_95391" data-name="Trazado 95391" d="M175.745,182.2a2.912,2.912,0,0,1-2.638,0l-13.189-7.614a.8.8,0,0,1,0-1.523h0a2.915,2.915,0,0,1,2.638,0l13.189,7.615a.8.8,0,0,1,0,1.522Z" transform="translate(-43.636 -156.307)" fill="#324245"/>
        <path id="Trazado_95392" data-name="Trazado 95392" d="M75.436,236.161a9.072,9.072,0,0,1-8.206,0c-2.267-1.308-2.267-3.43,0-4.739a9.069,9.069,0,0,1,8.206,0C77.7,232.73,77.7,234.853,75.436,236.161Z" transform="translate(-31.791 -163.589)" fill="#00223d"/>
        <path id="Trazado_95393" data-name="Trazado 95393" d="M74.193,235.444a5.624,5.624,0,0,1-5.085,0c-1.4-.812-1.4-2.126,0-2.936a5.616,5.616,0,0,1,5.084,0C75.6,233.318,75.6,234.632,74.193,235.444Z" transform="translate(-32.11 -163.773)" fill="#4b6366"/>
        <path id="Trazado_95394" data-name="Trazado 95394" d="M60.655,227.628a2.268,2.268,0,0,1-2.053,0l-17.842-10.3c-.772-.446-.937-1.071-.37-1.4h0a2.749,2.749,0,0,1,2.423.214l17.842,10.3a.626.626,0,0,1,0,1.185Z" transform="translate(-28.575 -161.733)" fill="#00223d"/>
        <path id="Trazado_95395" data-name="Trazado 95395" d="M100.914,250.87a2.749,2.749,0,0,1-2.423-.213l-17.843-10.3a.625.625,0,0,1,0-1.184h0a2.269,2.269,0,0,1,2.052,0l17.842,10.3c.772.446.938,1.072.372,1.4Z" transform="translate(-33.646 -164.66)" fill="#00223d"/>
      </g>
      <path id="Trazado_95396" data-name="Trazado 95396" d="M443.052,333.659,403.286,310.7a10.563,10.563,0,0,0-9.749,0l-97.765,56.446a4.186,4.186,0,0,0,0,7.7l39.767,22.959a10.565,10.565,0,0,0,9.75,0l97.765-56.446a4.185,4.185,0,0,0,0-7.7Z" transform="translate(-57.904 -103.388)" opacity="0.2" style="mix-blend-mode: multiply;isolation: isolate"/>
      <path id="Trazado_95397" data-name="Trazado 95397" d="M187.214,399.1a10.332,10.332,0,0,1-9.349,0c-2.582-1.49-2.582-3.907,0-5.4a10.327,10.327,0,0,1,9.349,0C189.8,395.192,189.8,397.609,187.214,399.1Z" transform="translate(-43.098 -113.874)" fill="#00223d"/>
      <path id="Trazado_95398" data-name="Trazado 95398" d="M79,322.8a10.332,10.332,0,0,1-9.349,0c-2.582-1.49-2.582-3.907,0-5.4a10.321,10.321,0,0,1,9.349,0C81.583,318.892,81.583,321.309,79,322.8Z" transform="translate(-29.438 -104.243)" fill="#00223d"/>
      <path id="Trazado_95399" data-name="Trazado 95399" d="M147.811,326.386a10.332,10.332,0,0,1-9.349,0c-2.583-1.49-2.583-3.907,0-5.4a10.327,10.327,0,0,1,9.349,0C150.393,322.478,150.393,324.9,147.811,326.386Z" transform="translate(-38.124 -104.695)" fill="#00223d"/>
      <path id="Trazado_95400" data-name="Trazado 95400" d="M260.155,252.576a10.33,10.33,0,0,1-9.348,0c-2.583-1.492-2.583-3.908,0-5.4a10.325,10.325,0,0,1,9.348,0C262.737,248.668,262.737,251.084,260.155,252.576Z" transform="translate(-52.305 -95.378)" fill="#00223d"/>
      <path id="Trazado_95401" data-name="Trazado 95401" d="M413.514,223.791a10.332,10.332,0,0,1-9.349,0c-2.581-1.49-2.581-3.907,0-5.4a10.327,10.327,0,0,1,9.349,0C416.1,219.884,416.1,222.3,413.514,223.791Z" transform="translate(-71.663 -91.745)" fill="#00223d"/>
      <path id="Trazado_95402" data-name="Trazado 95402" d="M181.631,156.079a10.334,10.334,0,0,1-9.35,0c-2.582-1.49-2.582-3.907,0-5.4a10.334,10.334,0,0,1,9.35,0C184.213,152.172,184.213,154.589,181.631,156.079Z" transform="translate(-42.393 -83.198)" fill="#00223d"/>
      <path id="Trazado_95403" data-name="Trazado 95403" d="M160.776,373.767l-48.708-28.12a9.947,9.947,0,0,0-9.163,0L54.2,373.77a3.809,3.809,0,0,0,0,7.029l48.709,28.123a9.947,9.947,0,0,0,9.161,0L160.776,380.8a3.811,3.811,0,0,0,0-7.031Z" transform="translate(-27.437 -107.808)" opacity="0.2" style="mix-blend-mode: multiply;isolation: isolate"/>
      <g id="Grupo_41943" data-name="Grupo 41943" transform="translate(25.927 195.61)">
        <path id="Trazado_95404" data-name="Trazado 95404" d="M106.118,395.334,57.409,367.212a7.736,7.736,0,0,1-2.59-2.665,3.166,3.166,0,0,1-1.237.363v9.863a8.465,8.465,0,0,0,3.827,6.629l48.709,28.122c2.114,1.22,3.827-.368,3.827-2.808V393.126C109.946,395.565,108.232,396.555,106.118,395.334Z" transform="translate(-53.582 -305.945)" fill="url(#linear-gradient)"/>
        <path id="Trazado_95405" data-name="Trazado 95405" d="M169.292,364.936h-1.049a7.856,7.856,0,0,1-2.748,2.933l-48.71,26.44c-2.115,1.22-3.827,1.915-3.827-.526v13.581c0,2.44,1.713,3.429,3.827,2.21l48.709-28.122a8.463,8.463,0,0,0,3.828-6.629v-9.888Z" transform="translate(-61.077 -305.993)" fill="#e1eef2"/>
        <path id="Trazado_95406" data-name="Trazado 95406" d="M162.447,381.227,122.153,404.49v-7.164l40.293-23.264Z" transform="translate(-62.237 -307.146)" fill="#00223d"/>
        <g id="Grupo_41941" data-name="Grupo 41941" transform="translate(61.248 68.769)">
          <path id="Trazado_95407" data-name="Trazado 95407" d="M123.678,405l1.086-.626.084.846,1.58-.91.084-.945,1.087-.628V398.21l-3.923,2.264Z" transform="translate(-123.678 -378.963)" fill="url(#linear-gradient)"/>
          <path id="Trazado_95408" data-name="Trazado 95408" d="M130.037,401.332l1.088-.628.084.848,1.579-.912.085-.945,1.087-.627V394.54l-3.922,2.262Z" transform="translate(-124.481 -378.5)" fill="url(#linear-gradient)"/>
          <path id="Trazado_95409" data-name="Trazado 95409" d="M136.4,397.661l1.086-.627.085.847,1.579-.912.084-.945,1.088-.627v-4.528l-3.921,2.264Z" transform="translate(-125.283 -378.036)" fill="url(#linear-gradient)"/>
          <path id="Trazado_95410" data-name="Trazado 95410" d="M142.754,393.989l1.087-.627.085.847,1.579-.912.085-.945,1.087-.627V387.2l-3.922,2.265Z" transform="translate(-126.086 -377.573)" fill="url(#linear-gradient)"/>
          <path id="Trazado_95411" data-name="Trazado 95411" d="M149.113,390.318l1.087-.628.085.848,1.579-.911.084-.945,1.087-.627v-4.53l-3.922,2.265Z" transform="translate(-126.889 -377.109)" fill="url(#linear-gradient)"/>
          <path id="Trazado_95412" data-name="Trazado 95412" d="M155.471,386.648l1.087-.627.084.847,1.58-.911.084-.944,1.087-.628v-4.528l-3.922,2.264Z" transform="translate(-127.691 -376.646)" fill="url(#linear-gradient)"/>
          <path id="Trazado_95413" data-name="Trazado 95413" d="M161.83,378.446v4.529l1.087-.627.083.847,1.58-.91.085-.945,1.087-.628v-4.529Z" transform="translate(-128.494 -376.183)" fill="url(#linear-gradient)"/>
        </g>
        <path id="Trazado_95414" data-name="Trazado 95414" d="M66.025,335.674,61.1,316.563c-.132-.51-.826-.8-1.555-.664s-1.278.647-1.221,1.17l2.139,19.619a5.5,5.5,0,0,0,.2.966l3.47,19.017a2.81,2.81,0,0,0,5.529-1.009l-3.471-19.018A5.688,5.688,0,0,0,66.025,335.674Z" transform="translate(-54.179 -299.8)" fill="url(#linear-gradient)"/>
        <g id="Grupo_41942" data-name="Grupo 41942" transform="translate(6.246 35.687)">
          <path id="Trazado_95415" data-name="Trazado 95415" d="M67.281,339.4a5.594,5.594,0,0,0-.149-.895l-.048-.187Z" transform="translate(-61.532 -338.321)" fill="#cfdade"/>
          <path id="Trazado_95416" data-name="Trazado 95416" d="M69.959,358.623l-2.242-12.287a2.808,2.808,0,0,1-5.533.962l-1.454-7.967.034.319a5.494,5.494,0,0,0,.2.966l3.47,19.017a2.81,2.81,0,0,0,5.529-1.009Z" transform="translate(-60.73 -338.449)" fill="#cfdade"/>
        </g>
        <path id="Trazado_95417" data-name="Trazado 95417" d="M77.679,322.825l-5.894-24.4a1.431,1.431,0,0,0-2.776.507l3.105,24.91a8.953,8.953,0,0,0,.244,1.231l4.419,24.216c.357,1.944,1.88,3.295,3.408,3.015s2.476-2.08,2.122-4.025l-4.42-24.217A9.11,9.11,0,0,0,77.679,322.825Z" transform="translate(-55.528 -297.479)" fill="url(#linear-gradient)"/>
        <path id="Trazado_95418" data-name="Trazado 95418" d="M82.724,351.827l-2.182-11.953a3.046,3.046,0,0,1-2.188,3.2c-1.528.279-3.052-1.071-3.407-3.016L72.31,325.608l.222,1.782a8.945,8.945,0,0,0,.244,1.231l4.419,24.216c.356,1.944,1.88,3.3,3.408,3.015S83.078,353.772,82.724,351.827Z" transform="translate(-55.946 -301.029)" fill="#cfdade"/>
        <path id="Trazado_95419" data-name="Trazado 95419" d="M92.023,329.145l-4.929-19.109c-.133-.512-.827-.8-1.557-.665s-1.277.647-1.22,1.172l2.139,19.618a5.628,5.628,0,0,0,.2.965l3.47,19.016a2.81,2.81,0,1,0,5.529-1.008L92.18,330.115A5.655,5.655,0,0,0,92.023,329.145Z" transform="translate(-57.461 -298.976)" fill="url(#linear-gradient)"/>
        <path id="Trazado_95420" data-name="Trazado 95420" d="M95.93,351.854l-3.084-16.9a2.8,2.8,0,0,1-5.548.215l-.779-4.267.216,1.983a5.63,5.63,0,0,0,.2.965l3.47,19.016a2.81,2.81,0,1,0,5.529-1.008Z" transform="translate(-57.739 -301.697)" fill="#cfdade"/>
        <path id="Trazado_95421" data-name="Trazado 95421" d="M111.531,390.451a8.461,8.461,0,0,1-7.654,0L55.168,362.329c-2.115-1.221-2.115-3.2,0-4.419l48.71-28.122a8.457,8.457,0,0,1,7.654,0l48.708,28.121c2.115,1.221,2.115,3.2,0,4.42Z" transform="translate(-53.582 -301.441)" fill="url(#linear-gradient)"/>
        <path id="Trazado_95422" data-name="Trazado 95422" d="M111.928,385.581a7.631,7.631,0,0,1-6.9,0L61.147,360.244c-1.9-1.1-1.9-2.883,0-3.983l43.884-25.337a7.629,7.629,0,0,1,6.9,0l43.884,25.336c1.9,1.1,1.9,2.883,0,3.982Z" transform="translate(-54.356 -301.597)" fill="#e1eef2"/>
        <path id="Trazado_95423" data-name="Trazado 95423" d="M61.147,361.068l7.019,4.052q14.2-14.261,28.422-28.5L61.146,357.085C59.242,358.185,59.243,359.968,61.147,361.068Z" transform="translate(-54.356 -302.42)" fill="#e6f3f7"/>
        <path id="Trazado_95424" data-name="Trazado 95424" d="M124.882,337.267l-6.773-3.912q-18.581,18.583-37.129,37.2l6.728,3.884Z" transform="translate(-57.04 -302.007)" fill="#e6f3f7"/>
        <path id="Trazado_95425" data-name="Trazado 95425" d="M144.231,348.441l-6.776-3.912L100.28,381.7l6.775,3.912Q125.643,367.03,144.231,348.441Z" transform="translate(-59.476 -303.418)" fill="#e6f3f7"/>
        <path id="Trazado_95426" data-name="Trazado 95426" d="M164.793,359.494l-6.565-3.79-27.357,27.357,33.922-19.586C166.7,362.377,166.7,360.594,164.793,359.494Z" transform="translate(-63.338 -304.828)" fill="#e6f3f7"/>
      </g>
      <g id="Grupo_41945" data-name="Grupo 41945" transform="translate(152.165 65.901)">
        <path id="Trazado_95427" data-name="Trazado 95427" d="M215.643,203.955,198.058,193.8c.039,22.586,7.226,39.786,18.576,48.292l10.05,5.8Z" transform="translate(-198.056 -154.683)" fill="#12263f"/>
        <path id="Trazado_95428" data-name="Trazado 95428" d="M272.327,153.033l-6.931-4c-.681.424-1.363.845-2.052,1.242-11.482,6.631-22.224,8.718-31.395,6.866-9.169,12.442-19.91,22.756-31.395,29.386-.837.484-1.67.936-2.5,1.371v.073c0,.061,0,.121,0,.183L215.642,198.3Z" transform="translate(-198.056 -149.032)" fill="#12263f"/>
        <path id="Trazado_95429" data-name="Trazado 95429" d="M254.31,171.332l22.913-18.3-6.931-4c-.682.424-1.363.845-2.052,1.242-11.482,6.631-22.224,8.718-31.395,6.866l6.483,4.214Z" transform="translate(-202.952 -149.032)" fill="#12263f"/>
        <path id="Trazado_95430" data-name="Trazado 95430" d="M270.764,155.056c-11.483,6.631-22.224,8.719-31.395,6.867-9.17,12.441-19.912,22.755-31.4,29.385-.837.483-1.67.936-2.5,1.371,0,.024,0,.048,0,.073,0,31.733,13.716,51.4,33.895,53.807,20.178-25.707,33.894-61.212,33.894-92.945v-.072C272.434,154.064,271.6,154.573,270.764,155.056Z" transform="translate(-198.992 -149.601)" fill="#ff2c9c"/>
        <g id="Grupo_41944" data-name="Grupo 41944" transform="translate(19.056 21.893)">
          <path id="Trazado_95431" data-name="Trazado 95431" d="M230.841,208.367l-10.975-6.337c.024,14.1,4.509,24.831,11.592,30.139l6.272,3.621Z" transform="translate(-219.865 -177.615)" fill="#205173"/>
          <path id="Trazado_95432" data-name="Trazado 95432" d="M266.217,176.585l-4.325-2.5c-.425.265-.851.528-1.279.776-7.168,4.137-13.872,5.441-19.594,4.284-5.723,7.765-12.427,14.2-19.594,18.34-.523.3-1.042.584-1.559.856v.045c0,.038,0,.075,0,.114l10.975,6.337Z" transform="translate(-219.865 -174.088)" fill="#3d7293"/>
          <path id="Trazado_95433" data-name="Trazado 95433" d="M256.369,186.89l12.9-10.3-4.325-2.5c-.425.265-.851.528-1.279.776C256.5,179,249.8,180.3,244.074,179.148l4.045,2.631Z" transform="translate(-222.921 -174.088)" fill="#21587b"/>
          <path id="Trazado_95434" data-name="Trazado 95434" d="M265.242,177.849c-7.168,4.138-13.87,5.441-19.594,4.286-5.722,7.764-12.426,14.2-19.594,18.339-.522.3-1.042.585-1.559.855v.045c0,19.8,8.561,32.079,21.153,33.582,12.594-16.044,21.154-38.2,21.154-58.007V176.9C266.284,177.229,265.765,177.547,265.242,177.849Z" transform="translate(-220.449 -174.443)" fill="url(#linear-gradient-17)"/>
          <path id="Trazado_95435" data-name="Trazado 95435" d="M248.7,234.956c12.595-16.044,21.154-38.2,21.154-58.007V176.9c-.517.325-1.036.643-1.56.945-7.168,4.138-13.87,5.441-19.594,4.286C248.7,182.134,255.059,201.851,248.7,234.956Z" transform="translate(-223.505 -174.443)" fill="#3d7293"/>
        </g>
      </g>
      <g id="Grupo_41951" data-name="Grupo 41951" transform="translate(227.956 126.562)">
        <path id="Trazado_95436" data-name="Trazado 95436" d="M387.19,219.111,286.673,276.033c-2.2,1.267-2.2,3.323,0,4.591l5.508,4.17c-2.2-1.267-2.2-3.325,0-4.592l97.766-56.447c2.2-1.268,3.2-.427,4.635-1.354,0,0,.822-.253.158-1.644C393.631,218.432,389.386,217.843,387.19,219.111Z" transform="translate(-284.825 -218.457)" fill="#00223d"/>
        <path id="Trazado_95437" data-name="Trazado 95437" d="M290.038,358.646V291.532c0-2.536,1.78-3.565,3.978-2.3l-5.242-4.013c-2.2-1.269-3.977-.241-3.977,2.3V354.63c0,2.537,1.688,5.8,3.977,6.89,3.863,1.841,2.506.464,2.506.464C291.932,361.983,291.334,360.762,290.038,358.646Z" transform="translate(-284.796 -226.816)" fill="#00223d"/>
        <path id="Trazado_95438" data-name="Trazado 95438" d="M395.926,290.063a8.791,8.791,0,0,1-3.978,6.89L294.182,353.4c-2.2,1.268-3.978.241-3.978-2.3V283.988a8.79,8.79,0,0,1,3.978-6.889l97.765-56.446c2.2-1.268,3.978-.239,3.978,2.3Z" transform="translate(-285.479 -218.665)" fill="url(#linear-gradient)"/>
        <path id="Trazado_95439" data-name="Trazado 95439" d="M392.472,289.281a7.925,7.925,0,0,1-3.675,6.152l-90.3,52.134c-2.028,1.171-3.675.316-3.673-1.912l0-58.91a7.935,7.935,0,0,1,3.675-6.152l90.3-52.133c2.027-1.172,3.673-.316,3.673,1.91Z" transform="translate(-286.062 -219.653)" fill="#1e2729"/>
        <path id="Trazado_95440" data-name="Trazado 95440" d="M299.349,287.718l-.73.421a7.835,7.835,0,0,0-2.846,3.155Z" transform="translate(-286.182 -227.199)" fill="#2b383b"/>
        <path id="Trazado_95441" data-name="Trazado 95441" d="M294.827,302.022v11.787q34.165-34.166,68.328-68.329l-27.889,16.1Z" transform="translate(-286.062 -221.868)" fill="#2b383b"/>
        <path id="Trazado_95442" data-name="Trazado 95442" d="M392.472,231.185v-.613a3.424,3.424,0,0,0-.149-1.043q-48.747,48.75-97.5,97.5v1.805Z" transform="translate(-286.062 -219.854)" fill="#2b383b"/>
        <path id="Trazado_95443" data-name="Trazado 95443" d="M295.549,345.778a6.1,6.1,0,0,1-.722.611V348.3a2.345,2.345,0,0,0,1.053,2.216q48.3-48.294,96.592-96.589v-5.066Z" transform="translate(-286.062 -222.294)" fill="#2b383b"/>
        <path id="Trazado_95444" data-name="Trazado 95444" d="M397.418,277.7v-5.615l-63.41,63.408,13.287-7.672Q372.357,302.764,397.418,277.7Z" transform="translate(-291.008 -225.226)" fill="#2b383b"/>
        <g id="Grupo_41950" data-name="Grupo 41950" transform="translate(9.218 75.971)">
          <path id="Trazado_95445" data-name="Trazado 95445" d="M444.129,335.85v-4.226a2.79,2.79,0,0,0-1.648-2.313l-39.764-22.958a8.79,8.79,0,0,0-7.956,0L296.993,362.8a2.78,2.78,0,0,0-1.645,2.311v4.695a2.784,2.784,0,0,0,1.645,2.312l39.766,22.959a8.8,8.8,0,0,0,7.956,0l97.766-56.446a2.787,2.787,0,0,0,1.648-2.314v-.467Z" transform="translate(-295.346 -305.402)" fill="#00223d"/>
          <path id="Trazado_95446" data-name="Trazado 95446" d="M442.481,329.312c2.2,1.269,2.2,3.326,0,4.593L344.715,390.35a8.79,8.79,0,0,1-7.956,0l-39.766-22.958c-2.2-1.269-2.2-3.326,0-4.592l97.767-56.447a8.79,8.79,0,0,1,7.956,0Z" transform="translate(-295.345 -305.402)" fill="url(#linear-gradient)"/>
          <path id="Trazado_95447" data-name="Trazado 95447" d="M316.858,373.2a.485.485,0,0,1,0,.917l-5.8,3.345a1.75,1.75,0,0,1-1.591,0l-5.794-3.345a.484.484,0,0,1,0-.918l5.794-3.345a1.75,1.75,0,0,1,1.591,0Z" transform="translate(-296.355 -313.513)" fill="#00223d"/>
          <g id="Grupo_41946" data-name="Grupo 41946" transform="translate(22.404 4.979)">
            <path id="Trazado_95448" data-name="Trazado 95448" d="M327.112,359.666l-5.8,3.346a.484.484,0,0,0,0,.918l5.8,3.346a1.753,1.753,0,0,0,1.59,0l5.795-3.346a.485.485,0,0,0,0-.919l-5.795-3.345A1.754,1.754,0,0,0,327.112,359.666Z" transform="translate(-320.986 -317.207)" fill="#00223d"/>
            <path id="Trazado_95449" data-name="Trazado 95449" d="M337.585,353.619l-5.8,3.347a.484.484,0,0,0,0,.917l5.794,3.347a1.76,1.76,0,0,0,1.591,0l5.795-3.347a.484.484,0,0,0,0-.917l-5.795-3.347A1.752,1.752,0,0,0,337.585,353.619Z" transform="translate(-322.308 -316.443)" fill="#00223d"/>
            <path id="Trazado_95450" data-name="Trazado 95450" d="M348.059,347.573l-5.8,3.346a.484.484,0,0,0,0,.917l5.8,3.348a1.755,1.755,0,0,0,1.591,0l5.795-3.348a.484.484,0,0,0,0-.917l-5.795-3.346A1.76,1.76,0,0,0,348.059,347.573Z" transform="translate(-323.63 -315.68)" fill="#00223d"/>
            <path id="Trazado_95451" data-name="Trazado 95451" d="M358.533,341.526l-5.8,3.345a.486.486,0,0,0,0,.92l5.795,3.345a1.761,1.761,0,0,0,1.59,0l5.795-3.344a.486.486,0,0,0,0-.92l-5.8-3.345A1.754,1.754,0,0,0,358.533,341.526Z" transform="translate(-324.953 -314.917)" fill="#00223d"/>
            <path id="Trazado_95452" data-name="Trazado 95452" d="M369.007,335.478l-5.8,3.347a.484.484,0,0,0,0,.917l5.8,3.347a1.764,1.764,0,0,0,1.59,0l5.795-3.347a.484.484,0,0,0,0-.917l-5.8-3.347A1.756,1.756,0,0,0,369.007,335.478Z" transform="translate(-326.275 -314.154)" fill="#00223d"/>
            <path id="Trazado_95453" data-name="Trazado 95453" d="M379.48,329.432l-5.8,3.346a.485.485,0,0,0,0,.918l5.8,3.346a1.749,1.749,0,0,0,1.591,0l5.794-3.346a.484.484,0,0,0,0-.918l-5.794-3.346A1.761,1.761,0,0,0,379.48,329.432Z" transform="translate(-327.596 -313.39)" fill="#00223d"/>
            <path id="Trazado_95454" data-name="Trazado 95454" d="M389.954,323.384l-5.795,3.346a.485.485,0,0,0,0,.919l5.795,3.345a1.76,1.76,0,0,0,1.591,0l5.8-3.345a.486.486,0,0,0,0-.919l-5.8-3.346A1.76,1.76,0,0,0,389.954,323.384Z" transform="translate(-328.919 -312.627)" fill="#00223d"/>
            <path id="Trazado_95455" data-name="Trazado 95455" d="M400.427,317.337l-5.795,3.346a.485.485,0,0,0,0,.918l5.795,3.347a1.76,1.76,0,0,0,1.591,0l5.8-3.347a.485.485,0,0,0,0-.918l-5.8-3.346A1.757,1.757,0,0,0,400.427,317.337Z" transform="translate(-330.241 -311.864)" fill="#00223d"/>
            <path id="Trazado_95456" data-name="Trazado 95456" d="M410.9,311.291l-5.795,3.346a.485.485,0,0,0,0,.918L410.9,318.9a1.765,1.765,0,0,0,1.591,0l5.8-3.347a.485.485,0,0,0,0-.918l-5.8-3.346A1.76,1.76,0,0,0,410.9,311.291Z" transform="translate(-331.563 -311.1)" fill="#00223d"/>
          </g>
          <g id="Grupo_41947" data-name="Grupo 41947" transform="translate(15.987 10.401)">
            <path id="Trazado_95457" data-name="Trazado 95457" d="M335.577,365.873l-21.606,12.474a.485.485,0,0,0,0,.919l5.794,3.347a1.762,1.762,0,0,0,1.592,0l21.6-12.476a.484.484,0,0,0,0-.918l-5.794-3.346A1.761,1.761,0,0,0,335.577,365.873Z" transform="translate(-313.642 -323.412)" fill="#00223d"/>
            <path id="Trazado_95458" data-name="Trazado 95458" d="M348.335,359.825l-5.8,3.347a.485.485,0,0,0,0,.918l5.8,3.344a1.749,1.749,0,0,0,1.592,0l5.793-3.344a.484.484,0,0,0,0-.918l-5.793-3.347A1.762,1.762,0,0,0,348.335,359.825Z" transform="translate(-317.248 -322.648)" fill="#00223d"/>
            <path id="Trazado_95459" data-name="Trazado 95459" d="M358.809,353.778l-5.8,3.347a.484.484,0,0,0,0,.917l5.8,3.348a1.76,1.76,0,0,0,1.591,0l5.793-3.348a.484.484,0,0,0,0-.917l-5.793-3.347A1.766,1.766,0,0,0,358.809,353.778Z" transform="translate(-318.57 -321.885)" fill="#00223d"/>
            <path id="Trazado_95460" data-name="Trazado 95460" d="M369.282,347.732l-5.8,3.346a.485.485,0,0,0,0,.918l5.8,3.347a1.759,1.759,0,0,0,1.59,0l5.8-3.347a.485.485,0,0,0,0-.918l-5.794-3.346A1.751,1.751,0,0,0,369.282,347.732Z" transform="translate(-319.892 -321.122)" fill="#00223d"/>
            <path id="Trazado_95461" data-name="Trazado 95461" d="M379.757,341.685l-5.8,3.345a.485.485,0,0,0,0,.919l5.8,3.346a1.759,1.759,0,0,0,1.59,0l5.8-3.346a.486.486,0,0,0,0-.919l-5.8-3.345A1.753,1.753,0,0,0,379.757,341.685Z" transform="translate(-321.214 -320.359)" fill="#00223d"/>
            <path id="Trazado_95462" data-name="Trazado 95462" d="M390.229,335.637l-5.8,3.345a.485.485,0,0,0,0,.918l5.8,3.347a1.762,1.762,0,0,0,1.592,0l5.794-3.345a.485.485,0,0,0,0-.919l-5.794-3.346A1.76,1.76,0,0,0,390.229,335.637Z" transform="translate(-322.536 -319.595)" fill="#00223d"/>
            <path id="Trazado_95463" data-name="Trazado 95463" d="M400.7,329.591l-5.8,3.346a.485.485,0,0,0,0,.918l5.8,3.346a1.758,1.758,0,0,0,1.59,0l5.8-3.346a.485.485,0,0,0,0-.918l-5.8-3.346A1.753,1.753,0,0,0,400.7,329.591Z" transform="translate(-323.858 -318.832)" fill="#00223d"/>
            <path id="Trazado_95464" data-name="Trazado 95464" d="M411.178,323.544l-5.8,3.345a.486.486,0,0,0,0,.919l5.8,3.346a1.758,1.758,0,0,0,1.59,0l5.8-3.346a.485.485,0,0,0,0-.918l-5.8-3.346A1.758,1.758,0,0,0,411.178,323.544Z" transform="translate(-325.181 -318.069)" fill="#00223d"/>
            <path id="Trazado_95465" data-name="Trazado 95465" d="M421.651,317.5l-5.794,3.347a.484.484,0,0,0,0,.918l5.794,3.345a1.748,1.748,0,0,0,1.59,0l5.795-3.345a.484.484,0,0,0,0-.918l-5.795-3.347A1.756,1.756,0,0,0,421.651,317.5Z" transform="translate(-326.502 -317.305)" fill="#00223d"/>
          </g>
          <g id="Grupo_41948" data-name="Grupo 41948" transform="translate(35.532 21.685)">
            <path id="Trazado_95466" data-name="Trazado 95466" d="M357.946,378.788l-21.607,12.474a.485.485,0,0,0,0,.918l5.8,3.348a1.757,1.757,0,0,0,1.589,0l21.607-12.476a.485.485,0,0,0,0-.918l-5.8-3.346A1.753,1.753,0,0,0,357.946,378.788Z" transform="translate(-336.01 -336.326)" fill="#00223d"/>
            <path id="Trazado_95467" data-name="Trazado 95467" d="M370.7,372.741l-5.795,3.346a.484.484,0,0,0,0,.918l5.795,3.347a1.761,1.761,0,0,0,1.591,0L378.089,377a.484.484,0,0,0,0-.918l-5.8-3.346A1.76,1.76,0,0,0,370.7,372.741Z" transform="translate(-339.617 -335.563)" fill="#00223d"/>
            <path id="Trazado_95468" data-name="Trazado 95468" d="M408.632,348.552l-33.251,19.2a.485.485,0,0,0,0,.918l5.8,3.346a1.759,1.759,0,0,0,1.59,0l33.251-19.2a.485.485,0,0,0,0-.919l-5.8-3.345A1.755,1.755,0,0,0,408.632,348.552Z" transform="translate(-340.939 -332.51)" fill="#00223d"/>
            <path id="Trazado_95469" data-name="Trazado 95469" d="M423.073,342.5l-5.8,3.346a.485.485,0,0,0,0,.919l5.8,3.345a1.75,1.75,0,0,0,1.589,0l5.8-3.345a.486.486,0,0,0,0-.919l-5.8-3.346A1.755,1.755,0,0,0,423.073,342.5Z" transform="translate(-346.227 -331.746)" fill="#00223d"/>
            <path id="Trazado_95470" data-name="Trazado 95470" d="M442.7,330.41l-14.945,8.629a.485.485,0,0,0,0,.919l5.795,3.345a1.753,1.753,0,0,0,1.59,0l14.946-8.629a.484.484,0,0,0,0-.917l-5.795-3.347A1.759,1.759,0,0,0,442.7,330.41Z" transform="translate(-347.549 -330.22)" fill="#00223d"/>
          </g>
          <g id="Grupo_41949" data-name="Grupo 41949" transform="translate(25.637 15.974)">
            <path id="Trazado_95471" data-name="Trazado 95471" d="M337.414,378.334l-12.4,7.16a.484.484,0,0,0,0,.917l5.8,3.347a1.755,1.755,0,0,0,1.591,0l12.4-7.159a.485.485,0,0,0,0-.919l-5.794-3.346A1.763,1.763,0,0,0,337.414,378.334Z" transform="translate(-324.686 -330.557)" fill="#00223d"/>
            <path id="Trazado_95472" data-name="Trazado 95472" d="M359.38,366.2l-5.794,3.346a.484.484,0,0,0,0,.918l5.794,3.347a1.76,1.76,0,0,0,1.591,0l5.795-3.347a.484.484,0,0,0,0-.918l-5.795-3.346A1.755,1.755,0,0,0,359.38,366.2Z" transform="translate(-328.292 -329.026)" fill="#00223d"/>
            <path id="Trazado_95473" data-name="Trazado 95473" d="M348.906,372.25l-5.794,3.346a.485.485,0,0,0,0,.918l5.794,3.347a1.758,1.758,0,0,0,1.59,0l5.8-3.347a.485.485,0,0,0,0-.918l-5.8-3.346A1.753,1.753,0,0,0,348.906,372.25Z" transform="translate(-326.97 -329.789)" fill="#00223d"/>
            <path id="Trazado_95474" data-name="Trazado 95474" d="M369.853,360.157l-5.795,3.345a.486.486,0,0,0,0,.919l5.795,3.346a1.762,1.762,0,0,0,1.592,0l5.794-3.346a.485.485,0,0,0,0-.919l-5.795-3.345A1.762,1.762,0,0,0,369.853,360.157Z" transform="translate(-329.614 -328.263)" fill="#00223d"/>
            <path id="Trazado_95475" data-name="Trazado 95475" d="M380.327,354.109l-5.794,3.347a.484.484,0,0,0,0,.918l5.8,3.346a1.753,1.753,0,0,0,1.59,0l5.794-3.346a.484.484,0,0,0,0-.918l-5.794-3.347A1.762,1.762,0,0,0,380.327,354.109Z" transform="translate(-330.936 -327.5)" fill="#00223d"/>
            <path id="Trazado_95476" data-name="Trazado 95476" d="M390.8,348.062l-5.795,3.347a.486.486,0,0,0,0,.919l5.795,3.346a1.758,1.758,0,0,0,1.59,0l5.8-3.346a.485.485,0,0,0,0-.919l-5.794-3.347A1.764,1.764,0,0,0,390.8,348.062Z" transform="translate(-332.258 -326.736)" fill="#00223d"/>
            <path id="Trazado_95477" data-name="Trazado 95477" d="M401.276,342.015l-5.8,3.346a.485.485,0,0,0,0,.919l5.8,3.345a1.753,1.753,0,0,0,1.59,0l5.795-3.345a.485.485,0,0,0,0-.919l-5.795-3.346A1.758,1.758,0,0,0,401.276,342.015Z" transform="translate(-333.58 -325.973)" fill="#00223d"/>
            <path id="Trazado_95478" data-name="Trazado 95478" d="M411.75,335.967l-5.8,3.346a.485.485,0,0,0,0,.918l5.8,3.347a1.76,1.76,0,0,0,1.591,0l5.794-3.347a.485.485,0,0,0,0-.918l-5.794-3.346A1.755,1.755,0,0,0,411.75,335.967Z" transform="translate(-334.902 -325.21)" fill="#00223d"/>
            <path id="Trazado_95479" data-name="Trazado 95479" d="M422.223,329.921l-5.795,3.346a.485.485,0,0,0,0,.918l5.795,3.346a1.76,1.76,0,0,0,1.591,0l5.794-3.346a.485.485,0,0,0,0-.918l-5.794-3.346A1.76,1.76,0,0,0,422.223,329.921Z" transform="translate(-336.224 -324.446)" fill="#00223d"/>
            <path id="Trazado_95480" data-name="Trazado 95480" d="M432.7,323.873l-5.8,3.345a.485.485,0,0,0,0,.918l5.8,3.347a1.753,1.753,0,0,0,1.59,0l5.8-3.347a.485.485,0,0,0,0-.918l-5.8-3.345A1.756,1.756,0,0,0,432.7,323.873Z" transform="translate(-337.547 -323.683)" fill="#00223d"/>
          </g>
        </g>
      </g>
      <g id="Grupo_151149" data-name="Grupo 151149" transform="translate(321.37 74.355)">
        <g id="Grupo_34836" data-name="Grupo 34836">
          <g id="Grupo_34835" data-name="Grupo 34835">
            <g id="Grupo_34834" data-name="Grupo 34834" style="isolation: isolate">
              <g id="Grupo_34831" data-name="Grupo 34831" transform="translate(22.146 12.786)">
                <path id="Trazado_85790" data-name="Trazado 85790" d="M208.022,321.145l1.885-1.1-.072,25.447-1.885,1.1Z" transform="translate(-207.949 -320.05)" fill="#264d65"/>
              </g>
              <g id="Grupo_34832" data-name="Grupo 34832" transform="translate(0.072)">
                <path id="Trazado_85791" data-name="Trazado 85791" d="M194.272,313.223l1.885-1.1L218.3,324.914l-1.885,1.1Z" transform="translate(-194.272 -312.128)" fill="#264d65"/>
              </g>
              <g id="Grupo_34833" data-name="Grupo 34833" transform="translate(0 1.095)">
                <path id="Trazado_85792" data-name="Trazado 85792" d="M216.446,325.592l-.072,25.448-22.146-12.787.072-25.447Z" transform="translate(-194.227 -312.806)" fill="#21587b"/>
              </g>
            </g>
          </g>
        </g>
        <g id="Grupo_34838" data-name="Grupo 34838" transform="translate(2.713 9.041)">
          <g id="Grupo_34837" data-name="Grupo 34837">
            <path id="Trazado_85793" data-name="Trazado 85793" d="M201.5,326.425c.762.439,1.382.082,1.382-.8v-3.239l5.713,3.3a3,3,0,0,1,1.349,2.337v5.767c0,.859-.607,1.209-1.349.781l-1.609-.93.721,2.9c.069.284-.029.32-.219.077L203.7,331.83a1.051,1.051,0,0,1-.094-.14l-2.973-1.717a3,3,0,0,1-1.351-2.339v-2.492Z" transform="translate(-193.837 -314.869)" fill="#f5f5fd"/>
            <path id="Trazado_85794" data-name="Trazado 85794" d="M195.908,318.521v4.745a2.467,2.467,0,0,0,1.11,1.924l1.325.765-.594,1.7c-.058.168.023.289.181.273l3.12-.339a.137.137,0,0,0,.077-.027l2.447,1.414c.61.352,1.11.065,1.11-.641v-4.745a2.462,2.462,0,0,0-1.11-1.924l-6.556-3.785C196.408,317.527,195.908,317.816,195.908,318.521Zm5.854,5.954c0-.452.316-.634.707-.408a1.562,1.562,0,0,1,.709,1.225c0,.452-.316.634-.709.41A1.568,1.568,0,0,1,201.762,324.475Zm-2.172-1.254c0-.452.316-.634.707-.41a1.567,1.567,0,0,1,.708,1.227c0,.452-.318.634-.708.408A1.562,1.562,0,0,1,199.589,323.221Zm-2.174-1.256c0-.45.318-.634.709-.408a1.567,1.567,0,0,1,.709,1.227c0,.452-.318.634-.709.408A1.567,1.567,0,0,1,197.415,321.965Z" transform="translate(-195.908 -317.729)" fill="#f5f5fd"/>
          </g>
        </g>
      </g>
      <g id="Grupo_151150" data-name="Grupo 151150" transform="translate(339.55 19.948)">
        <g id="Grupo_34845" data-name="Grupo 34845">
          <g id="Grupo_34844" data-name="Grupo 34844">
            <g id="Grupo_34843" data-name="Grupo 34843" style="isolation: isolate">
              <g id="Grupo_34840" data-name="Grupo 34840" transform="translate(20.898 12.065)">
                <path id="Trazado_85795" data-name="Trazado 85795" d="M218.509,286.926l1.778-1.033-.068,24.013-1.778,1.033Z" transform="translate(-218.44 -285.893)" fill="#cba81f"/>
              </g>
              <g id="Grupo_34841" data-name="Grupo 34841" transform="translate(0.068)">
                <path id="Trazado_85796" data-name="Trazado 85796" d="M205.534,279.45l1.778-1.033,20.9,12.065-1.778,1.033Z" transform="translate(-205.534 -278.417)" fill="#cba81f"/>
              </g>
              <g id="Grupo_34842" data-name="Grupo 34842" transform="translate(0 1.033)">
                <path id="Trazado_85797" data-name="Trazado 85797" d="M226.458,291.122l-.068,24.013-20.9-12.065.068-24.013Z" transform="translate(-205.492 -279.057)" fill="#e2c140"/>
              </g>
            </g>
          </g>
        </g>
        <g id="Grupo_34848" data-name="Grupo 34848" transform="translate(2.834 8.735)">
          <g id="Grupo_34847" data-name="Grupo 34847">
            <path id="Trazado_85798" data-name="Trazado 85798" d="M211.8,285.816c0,1.133-.8,1.6-1.787,1.031l-1.72-.992,3.507-2.026Z" transform="translate(-206.604 -283.829)" fill="#f5f5fd"/>
            <g id="Grupo_34846" data-name="Grupo 34846" transform="translate(0 0.257)">
              <path id="Trazado_85799" data-name="Trazado 85799" d="M211.869,301.223l6.893,3.98c.983.568,1.787.1,1.787-1.031V290.842a3.966,3.966,0,0,0-1.787-3.1l-6.512-3.759v1.987c0,1.422-1,2-2.232,1.288l-1.72-.993v8.489a3.074,3.074,0,0,1,.8.333,6.508,6.508,0,0,1,2.941,5.1A2.936,2.936,0,0,1,211.869,301.223Zm7.243-7.082c0,.363-.3.486-.67.273l-8.037-4.64a1.387,1.387,0,0,1-.671-1.047c0-.362.3-.486.671-.273l8.037,4.642A1.382,1.382,0,0,1,219.112,294.141Zm0,2.518c0,.363-.3.486-.67.273l-8.037-4.64a1.387,1.387,0,0,1-.671-1.047c0-.363.3-.486.671-.273l8.037,4.64A1.385,1.385,0,0,1,219.112,296.659Zm0,2.458c0,.362-.3.486-.67.273l-8.037-4.642a1.387,1.387,0,0,1-.671-1.046c0-.363.3-.486.671-.273l8.037,4.642A1.382,1.382,0,0,1,219.112,299.117Zm-6.611-1.083c0-.362.3-.484.67-.273l5.271,3.044a1.385,1.385,0,0,1,.67,1.046c0,.363-.3.486-.67.273l-5.271-3.044A1.384,1.384,0,0,1,212.5,298.034Z" transform="translate(-206.604 -283.988)" fill="#f5f5fd"/>
              <path id="Trazado_85800" data-name="Trazado 85800" d="M207.248,292.757a5.518,5.518,0,0,0,2.5,4.325c1.378.8,2.5.15,2.5-1.443a5.52,5.52,0,0,0-2.5-4.324C208.365,290.52,207.248,291.165,207.248,292.757Zm1.23.321.959.554v-1.073l.615.355v1.073l.959.552v.781l-.959-.554v1.072l-.615-.357v-1.07l-.959-.554Z" transform="translate(-207.248 -279.699)" fill="#f5f5fd"/>
            </g>
          </g>
        </g>
      </g>
      <g id="Grupo_151151" data-name="Grupo 151151" transform="translate(300.383 28.245)">
        <g id="Grupo_34855" data-name="Grupo 34855">
          <g id="Grupo_34854" data-name="Grupo 34854">
            <g id="Grupo_34853" data-name="Grupo 34853" style="isolation: isolate">
              <g id="Grupo_34850" data-name="Grupo 34850" transform="translate(21.987 12.694)">
                <path id="Trazado_85801" data-name="Trazado 85801" d="M194.919,292.511l1.871-1.087-.071,25.264-1.871,1.088Z" transform="translate(-194.847 -291.423)" fill="#336ba2"/>
              </g>
              <g id="Grupo_34851" data-name="Grupo 34851" transform="translate(0.071)">
                <path id="Trazado_85802" data-name="Trazado 85802" d="M181.268,284.645l1.871-1.087,21.987,12.694-1.871,1.087Z" transform="translate(-181.268 -283.558)" fill="#336ba2"/>
              </g>
              <g id="Grupo_34852" data-name="Grupo 34852" transform="translate(0 1.087)">
                <path id="Trazado_85803" data-name="Trazado 85803" d="M203.283,296.926l-.072,25.265L181.224,309.5l.071-25.265Z" transform="translate(-181.224 -284.232)" fill="#5793ce"/>
              </g>
            </g>
          </g>
        </g>
        <g id="Grupo_34858" data-name="Grupo 34858" transform="translate(3.548 10.694)">
          <g id="Grupo_34857" data-name="Grupo 34857">
            <g id="Grupo_34856" data-name="Grupo 34856" transform="translate(3.788 3.035)">
              <path id="Trazado_85804" data-name="Trazado 85804" d="M192.643,300.071l-2.482,1.432a.735.735,0,0,1-.759-.1,1.975,1.975,0,0,1-.76-.773l-2.481-4.3c-.391-.676-.391-1.409,0-1.633s1.023.14,1.415.817l.633,1.1v-3.691c0-.76.534-1.07,1.193-.689a2.636,2.636,0,0,1,1.193,2.066v3.693l.633-.366c.391-.226,1.025.14,1.415.817S193.034,299.845,192.643,300.071Z" transform="translate(-185.708 -292.064)" fill="#f5f5fd"/>
              <path id="Trazado_85805" data-name="Trazado 85805" d="M185.769,297.934c0-.734.518-1.034,1.154-.667L192,300.2a2.556,2.556,0,0,1,1.156,2c0,.736-.518,1.035-1.156.667l-5.079-2.933A2.556,2.556,0,0,1,185.769,297.934Zm1.154-.52c-.565-.326-1.026-.06-1.026.594a2.275,2.275,0,0,0,1.026,1.779L192,302.72c.567.326,1.028.06,1.028-.592a2.275,2.275,0,0,0-1.028-1.78Z" transform="translate(-185.769 -288.966)" fill="#f5f5fd"/>
              <path id="Trazado_85806" data-name="Trazado 85806" d="M187.2,297.667l3.922,2.264a2.41,2.41,0,0,1,1.091,1.89c0,.7-.487.978-1.091.63l-3.922-2.264Z" transform="translate(-184.89 -288.624)" fill="#f5f5fd"/>
            </g>
            <path id="Trazado_85807" data-name="Trazado 85807" d="M183.422,295.523c0-4.764,3.355-6.7,7.482-4.32a16.566,16.566,0,0,1,7.482,12.96c0,4.766-3.357,6.7-7.482,4.32A16.555,16.555,0,0,1,183.422,295.523Zm.839.484a14.706,14.706,0,0,0,6.643,11.507c3.664,2.114,6.643.394,6.643-3.836a14.7,14.7,0,0,0-6.643-11.506C187.241,290.058,184.261,291.779,184.261,296.007Z" transform="translate(-183.422 -290.184)" fill="#f5f5fd"/>
          </g>
        </g>
      </g>
    </g>
  </g>
</svg>
