<svg xmlns="http://www.w3.org/2000/svg" xmlns:xlink="http://www.w3.org/1999/xlink" width="812.53" height="289.5" viewBox="0 0 812.53 289.5">
  <defs>
    <clipPath id="clip-path">
      <rect id="Rectángulo_262661" data-name="Rectángulo 262661" width="128.53" height="289.5" transform="translate(0 121)" fill="none"/>
    </clipPath>
    <clipPath id="clip-path-2">
      <rect id="Rectángulo_262660" data-name="Rectángulo 262660" width="128.53" height="385.5" transform="translate(0 18)" fill="none"/>
    </clipPath>
  </defs>
  <g id="Grupo_710400" data-name="Grupo 710400" transform="translate(3301.004 -3621.194)">
    <g id="Grupo_708668" data-name="Grupo 708668" transform="translate(-50 1393.075)">
      <text id="_4._Uso_de_herramientas_de_administración_de_sistemas_Deberían_existir_políticas_y_controles_que_eliminen_o_bloqueen_el_uso_de_herramientas_o_aplicaciones_que_puedan_ser_utilizadas_para_anular_o_evitar_los_controles_y_salvaguardas_establecidos_en_la_organi" data-name="4. Uso de herramientas de administración de sistemas

Deberían existir políticas y controles que eliminen o bloqueen el uso de herramientas o aplicaciones que puedan ser utilizadas para anular o evitar los controles y salvaguardas establecidos en la organi" transform="translate(-3111.474 2248.863)" fill="#12263f" font-size="15" font-family="Roboto-Bold, Roboto" font-weight="700"><tspan x="0" y="16">4. Uso de herramientas de administración de sistemas</tspan><tspan x="0" y="40"></tspan><tspan font-family="Roboto-Regular, Roboto" font-weight="400"><tspan x="0" y="64">Deberían existir políticas y controles que eliminen o bloqueen el uso de herramientas o aplicaciones </tspan><tspan x="0" y="88">que puedan ser utilizadas para anular o evitar los controles y salvaguardas establecidos en la </tspan><tspan x="0" y="112">organización.</tspan></tspan></text>
      <text id="_5._Control_de_acceso_a_los_códigos_fuente_de_las_aplicaciones_Todos_los_aplicativos_o_servicios_que_cuenten_con_código_fuente_deben_tener_una_política_y_unos_procedimientos_que_limiten_el_acceso_y_la_manipulación_del_código_fuente." data-name="5. Control de acceso a los códigos fuente de las aplicaciones

Todos los aplicativos o servicios que cuenten con código fuente deben tener una política y unos procedimientos que limiten el acceso y la manipulación del código fuente." transform="translate(-3111.474 2392.374)" fill="#12263f" font-size="15" font-family="Roboto-Bold, Roboto" font-weight="700"><tspan x="0" y="16">5. Control de acceso a los códigos fuente de las aplicaciones</tspan><tspan x="0" y="40"></tspan><tspan font-family="Roboto-Regular, Roboto" font-weight="400"><tspan x="0" y="64">Todos los aplicativos o servicios que cuenten con código fuente deben tener una política y unos </tspan><tspan x="0" y="88">procedimientos que limiten el acceso y la manipulación del código fuente.</tspan></tspan></text>
      <g id="Grupo_708667" data-name="Grupo 708667" transform="translate(-3251.004 2107.118)">
        <g id="Grupo_708638" data-name="Grupo 708638" clip-path="url(#clip-path)">
          <rect id="Rectángulo_262657" data-name="Rectángulo 262657" width="38.447" height="284.5" transform="translate(26.776 126)" fill="#e0e0e0"/>
          <g id="Grupo_708637" data-name="Grupo 708637">
            <g id="Grupo_708636" data-name="Grupo 708636" clip-path="url(#clip-path-2)">
              <path id="Trazado_465160" data-name="Trazado 465160" d="M78.581,116.519l.083.083a.391.391,0,0,0-.083-.083" transform="translate(-30.707 -43.743)" fill="#54546b"/>
              <path id="Trazado_465171" data-name="Trazado 465171" d="M87.244,83.17c0,.063.006.132.009.21a.3.3,0,0,1,.024-.023c-.012-.062-.023-.125-.034-.187" transform="translate(-34.092 -31.223)" fill="#d8a150"/>
              <path id="Trazado_465179" data-name="Trazado 465179" d="M.093,281.452c-1.577,25.4,17.228,47.3,42,48.92s46.14-17.663,47.718-43.062-17.229-47.3-42-48.921S1.671,256.052.093,281.452" transform="translate(0 -89.458)" fill="#ff2c9c"/>
              <path id="Trazado_465180" data-name="Trazado 465180" d="M85.386,309.85s-1.309-12.281-3.223-19.033v0c-.394-1.941-1.881-3.492-3.551-3.492,0,0-11.706-1.016-12.575-2.323a39.585,39.585,0,0,1-.232-4.871c-2.475-.233-6.984-4.007-9.868-6.261-.082,1.342-.181,7.773-.181,7.794,0,1.471-2.076,3.9-4.311,4.691l-4.661,1.135c-3.082,0-3.082,14.073,0,14.073H77.336c.179,4.674.989,10.965,3.653,16.375,2.271,4.61,6.541-1.671,6.541-1.671Z" transform="translate(-17.378 -102.812)" fill="#fcc397"/>
              <path id="Trazado_465181" data-name="Trazado 465181" d="M75.132,334.417c1.189-.189,3.324-1.11,4.025-2.191a4.632,4.632,0,0,1-2.813,3.092c-6.165,2.037-9.374-3.84-9.374-3.84,1.84,1.452,5.037,3.435,8.163,2.939" transform="translate(-26.169 -124.441)" fill="#2b2b2b"/>
              <path id="Trazado_465182" data-name="Trazado 465182" d="M73.912,331.843a66.272,66.272,0,0,1,.631-7.183,43.14,43.14,0,0,1,1.077-5.313,7.837,7.837,0,0,0,4.77-7.26,7.97,7.97,0,0,0-.47-2.709c-1.41-10.942-2.506-13.33-3.437-15.438l-5.57-.6c.994,4.872-6.839,12.567-17.051-.458l-6.543,1.886c-.107,0,3.958,25.483,4.626,29.892a57.165,57.165,0,0,1,.639,7.118,58.347,58.347,0,0,0,21.329.064" transform="translate(-18.489 -109.951)" fill="#646f77"/>
              <path id="Trazado_465183" data-name="Trazado 465183" d="M79.519,279.166s-.715,7.255,2.859,12.5c4.764,6.993,3.085-15.532,3.085-15.532Z" transform="translate(-31.051 -103.665)" fill="#603b2c"/>
              <path id="Trazado_465184" data-name="Trazado 465184" d="M88.617,271.307s-.691,1.052.154,7.213,5.646,11.091,6.518,16.463a69.444,69.444,0,0,1,.062,14.74c-.073.752-.154,1.482-.249,2.177a17.658,17.658,0,0,1-1.458,5.7c-2.043,3.513-3.962,5.207-6.062,5.717,1.668-.686,3.309-2.49,4.588-6.91a18.993,18.993,0,0,0-1.593-15.028c-3.111-5.6-6.135-9.609-6.683-13.142a17.3,17.3,0,0,1,1.444-10.084c1.41-2.77,3.278-6.842,3.278-6.842" transform="translate(-32.705 -101.852)" fill="#754d3b"/>
              <path id="Trazado_465185" data-name="Trazado 465185" d="M77.356,358.531c-.043-.033-.084-.071-.126-.1-.048-1.043-.051-2.114-.018-3.206a58.348,58.348,0,0,1-21.329-.064c.027,1.081.024,2.143-.021,3.174-.035.027-.066.055-.1.081.714.194,1.769.423,3.329.677a62.444,62.444,0,0,0,18.265-.559" transform="translate(-21.79 -133.33)" fill="#3b4147"/>
              <path id="Trazado_465186" data-name="Trazado 465186" d="M136.761,301.729c.925-.257,4.156-1.157,4.873-1.371a7.469,7.469,0,0,1,1.909-.345c.374,0,1.088.289,1.178.661s-.588.5-1.238.786-2.4.858-2.4.858a16.411,16.411,0,0,0-3.322,1.212l.3,4.315c-.038.244.189.781-.122,1.037-.8.659-1.092.428-1.939.768a20.373,20.373,0,0,1-2.771.773c-.974.24-1.678-.715-2.207-2.08-1.635-4.227,5.734-6.613,5.734-6.613" transform="translate(-51.109 -112.628)" fill="#fcc397"/>
              <path id="Trazado_465187" data-name="Trazado 465187" d="M136.12,298.226a1.464,1.464,0,0,1,.357,1.7,4.687,4.687,0,0,1-1.284,1.863,5.6,5.6,0,0,0-1,1.169c-.136.2.029,1.9-.794,3.078-.837,1.2-2.026,1.72-2.8,1.159a1.782,1.782,0,0,1-.811-1.734,5.182,5.182,0,0,1,2.377-3.593,15.043,15.043,0,0,0,2.846-1.97,8.813,8.813,0,0,0,1.112-1.668" transform="translate(-50.712 -111.957)" fill="#ea9f6c"/>
              <path id="Trazado_465188" data-name="Trazado 465188" d="M141.075,308.433c.27-.012.71.129.55.788-.151.628-.037.728-.33.891a14.741,14.741,0,0,1-3.921.081c-1.221-.171-1.339-1.49-.308-1.733a33.959,33.959,0,0,1,4.009-.027" transform="translate(-53.288 -115.77)" fill="#ea9f6c"/>
              <path id="Trazado_465189" data-name="Trazado 465189" d="M141.287,308.463c.27-.013.684.072.523.731-.151.628-.093.844-.387,1.007a18.546,18.546,0,0,1-3.766-.146c-1.217-.2-1.11-1.222-.4-1.423a33.542,33.542,0,0,1,4.028-.169" transform="translate(-53.43 -115.8)" fill="#fcc397"/>
              <path id="Trazado_465190" data-name="Trazado 465190" d="M140.973,311.667c.469.05.284.685.185.934a.768.768,0,0,1-.565.542,9.859,9.859,0,0,1-2.752-.234.681.681,0,0,1-.154-1.266,10.509,10.509,0,0,1,3.286.024" transform="translate(-53.657 -116.946)" fill="#ea9f6c"/>
              <path id="Trazado_465191" data-name="Trazado 465191" d="M141.159,311.738c.469.049.264.814.165,1.064-.115.29-.237.567-.566.544a21.67,21.67,0,0,1-2.787-.515c-.326-.149-.677-.746-.066-1.006a10.136,10.136,0,0,1,3.254-.087" transform="translate(-53.758 -116.998)" fill="#fcc397"/>
              <path id="Trazado_465192" data-name="Trazado 465192" d="M138.271,309.177a3.216,3.216,0,0,1-.092.8,2.984,2.984,0,0,1-1.125-.091.4.4,0,0,1-.032-.743,3.01,3.01,0,0,1,1.249.038" transform="translate(-53.451 -116.031)" fill="#e26954"/>
              <path id="Trazado_465193" data-name="Trazado 465193" d="M138.992,312.08a2.938,2.938,0,0,1-.083.72,2.672,2.672,0,0,1-1.016-.081.363.363,0,0,1-.03-.671,2.724,2.724,0,0,1,1.13.033" transform="translate(-53.788 -117.125)" fill="#e26954"/>
              <path id="Trazado_465194" data-name="Trazado 465194" d="M120.552,303.126l0,0a3.916,3.916,0,0,1,1.332-1.285,17.464,17.464,0,0,0,3.05-2.186,12.388,12.388,0,0,0,1.242-1.555,1.458,1.458,0,0,1,.232,1.642,4.774,4.774,0,0,1-1.261,1.8,9.23,9.23,0,0,0-1.226,1.382c-.143.2.069,1.876-.782,3.095a3.219,3.219,0,0,1-1.823,1.382,5.265,5.265,0,0,0,.411,2.009s-4.931,8.366-7.406,12.516c-2.763,4.632-3.835,7.128-7.5,7.127-3.18,0-3.035-4.806-1.731-6.884,1.127-1.8,12.842-15.539,15.462-19.037" transform="translate(-40.726 -111.909)" fill="#fcc397"/>
              <path id="Trazado_465195" data-name="Trazado 465195" d="M139.73,298.024l-.765,1.086a.324.324,0,0,0,.194.155c.136.038.729-.794.732-.936a.538.538,0,0,0-.161-.3" transform="translate(-54.303 -111.882)" fill="#e26954"/>
              <path id="Trazado_465196" data-name="Trazado 465196" d="M141.836,305.5a1.161,1.161,0,0,1-.011,1.247,5.11,5.11,0,0,1-2.156.462,6.3,6.3,0,0,1-2.272-.059c-.652-.225-.765-1.273.609-1.465,3.793-.527,3.83-.184,3.83-.184" transform="translate(-53.508 -114.648)" fill="#ea9f6c"/>
              <path id="Trazado_465197" data-name="Trazado 465197" d="M142.132,305.489a1.493,1.493,0,0,1-.009,1.427c-.283.306-1.444.282-2.017.321a8.926,8.926,0,0,1-2.588-.2c-.437-.212-.667-.993.649-1.213,3.983-.663,3.964-.333,3.964-.333" transform="translate(-53.604 -114.653)" fill="#fcc397"/>
              <path id="Trazado_465198" data-name="Trazado 465198" d="M138.716,306.464a3.036,3.036,0,0,1,.023.778,3.061,3.061,0,0,1-1.125.057.386.386,0,0,1-.137-.708,3.112,3.112,0,0,1,1.239-.128" transform="translate(-53.647 -115.046)" fill="#e26954"/>
              <path id="Trazado_465199" data-name="Trazado 465199" d="M77.728,366.377a19.792,19.792,0,0,0-5.185-6.042,61.507,61.507,0,0,1-18.139.543,32.608,32.608,0,0,1-3.23-.639,19.591,19.591,0,0,0-5.235,6,20.69,20.69,0,0,0-2.173,6.037,44.03,44.03,0,0,0,36.1.209,20.6,20.6,0,0,0-2.134-6.1" transform="translate(-17.102 -135.238)" fill="#646f77"/>
              <path id="Trazado_465200" data-name="Trazado 465200" d="M85.489,306.4l.255.274-1.953,1.746-.1-.122Z" transform="translate(-32.705 -115.025)" fill="#ea9f6c"/>
              <path id="Trazado_465201" data-name="Trazado 465201" d="M54.414,324.795c-.177-.152-.345-.312-.512-.477-.027.039-.054.079-.081.115-.043-.1-.083-.217-.126-.326-4.246-4.412-4.826-12.075-4.583-15.216.076-.969.055-2.606-.013-4.435-.024-.144-.046-.287-.068-.428-.2-1.219-1.161-9.026-4.857-8.122-2.55.623-4.952,2.514-4.5,8.416.267,3.48,5.3,22.847,10.736,28.564a4.435,4.435,0,0,0,3.483,1.022,8.873,8.873,0,0,0,3.928-2.451c-.72-2.786-2.37-5.762-3.409-6.663" transform="translate(-15.482 -111.059)" fill="#fcc397"/>
              <path id="Trazado_465202" data-name="Trazado 465202" d="M59.6,323.5c1.23-1.743,2.919-4.288,4.648-6.955a9.735,9.735,0,0,1-1.006-3.42,51.577,51.577,0,0,1,.292-10.5L54.2,293.663s.434,5.557.6,9.979c.955,5.869,2.579,14.354,4.6,19.65.069.071.137.143.207.211" transform="translate(-21.18 -110.244)" fill="#754d3b"/>
              <path id="Trazado_465203" data-name="Trazado 465203" d="M55.171,314.074c-.244,3.14.336,10.8,4.582,15.216-2.017-5.3-3.641-13.781-4.6-19.65.068,1.829.088,3.466.013,4.435" transform="translate(-21.541 -116.242)" fill="#754d3b"/>
              <path id="Trazado_465204" data-name="Trazado 465204" d="M71.258,343.454A17.747,17.747,0,0,1,67.74,348a6.957,6.957,0,0,1,.11,3.993c-1.129,2.966-2.852,3.8-2.852,3.8a5.858,5.858,0,0,0,4.535-4.9,6.44,6.44,0,0,1-3.861,7.639c1.142.342,7.386-1.728,5.626-10.143.351-.208,1.186,5.41.237,8.467.859-.147,2.653-3.91.859-12.112.831,0,2.293,3.455,2.293,3.455s1.169-3.361-1.792-8.3c-.671,1.513-1.252,2.8-1.636,3.556" transform="translate(-25.399 -127.601)" fill="#754d3b"/>
              <path id="Trazado_465205" data-name="Trazado 465205" d="M57.818,259.666s-1.233-1.633-2.135-.908-.4,3.225.375,4.654,1.9,2.916,2.828,1.336c.313-.53-.157-1.642-.157-1.642Z" transform="translate(-21.571 -97.071)" fill="#c47947"/>
              <path id="Trazado_465206" data-name="Trazado 465206" d="M58.438,264.084l-1.426-4.35a1.78,1.78,0,0,0-1.125-.956.712.712,0,0,0-.5.142c-.953.771-.972,2.761.1,4.409.426.653.973,2.034,1.834,2.148.551.115.654.018.8-.1.475-.408.32-1.288.32-1.288" transform="translate(-21.365 -97.147)" fill="#fcc397"/>
              <path id="Trazado_465207" data-name="Trazado 465207" d="M63.908,276.426c0-.013,9.506,4.892,9.5,4.937-.081.48.03,1.27-.006,1.836-2.456-.393-8.038-4.341-9.59-6.89.113-.923.1.121.1.117" transform="translate(-24.936 -103.586)" fill="#ea9f6c"/>
              <path id="Trazado_465208" data-name="Trazado 465208" d="M80.109,245.339a34.866,34.866,0,0,1-.4,5.269c-.245,1.5.64,1.092.429,4.567-.127,2.077-1.574,4.2-2.43,5.586-2.448,3.964-2.467,6.589-4.945,6.952-3.642.533-11.234-4.178-12.824-7.8-.936-2.126-1.6-7.14-2.059-11.549,0,0,.26-9.192,10.609-10.691,8.928-1.295,11.34,4.782,11.62,7.664" transform="translate(-22.617 -89.159)" fill="#fcc397"/>
              <path id="Trazado_465209" data-name="Trazado 465209" d="M55.478,261.2c-.027-.349.26-1,.621-.943.553.093,1.035,1.1,1.4,2.12s.274,1.848.216,1.542a8.013,8.013,0,0,0-1.282-2.8c-.53-.737-.875,1.231-.959.078" transform="translate(-21.678 -97.701)" fill="#c47947"/>
              <path id="Trazado_465210" data-name="Trazado 465210" d="M75.373,273.49c-.45-.131-.53-.014-.546.061-.023.1.016.2.331.513.154.151.446.453.446.453a4.527,4.527,0,0,0,3.683,1.678c1.566-.129,2.419-1.907,2.556-2.253.081-.2.232-.415.278-.53.119-.284.128-.374.072-.428-.11-.1-.164-.047-.432.1a12.448,12.448,0,0,1-2.986.411,18.016,18.016,0,0,1-3.4-.006" transform="translate(-29.238 -102.462)" fill="#c6523c"/>
              <path id="Trazado_465211" data-name="Trazado 465211" d="M81.292,274.4c.526-.189.648-.622.729-1.166a15.8,15.8,0,0,1-2.9.362c-1.036.037-2.02.083-2.765.029.207.6.334.653.929.867-.447.054-.49.438-.386.875a4.892,4.892,0,0,0,2.865.8,2.233,2.233,0,0,0,2.092-1.25c-.147-.27-.182-.534-.568-.52" transform="translate(-29.839 -102.573)" fill="#fff"/>
              <path id="Trazado_465212" data-name="Trazado 465212" d="M75.727,273.334s.027.125,3.718.378a14.858,14.858,0,0,0,2.63-.767s-.776-.156-1.772-.411c-.356-.091-.62.215-.908.24s-.664-.2-1.04-.108c-1.054.265-2.628.668-2.628.668" transform="translate(-29.592 -102.306)" fill="#fc7365"/>
              <path id="Trazado_465213" data-name="Trazado 465213" d="M75.373,274.48s1.526,2.628,4.11,2.388c1.764-.167,2.745-2.829,2.745-2.829s-1.521,1.6-2.781,1.66a7.568,7.568,0,0,1-4.074-1.219" transform="translate(-29.453 -102.877)" fill="#fc7365"/>
              <path id="Trazado_465214" data-name="Trazado 465214" d="M84.8,255.066a12.578,12.578,0,0,1,3.191-1.642c.409-.1,1.256.661,1.777,1.034-.432-.054-1.433-.551-1.738-.417a18.545,18.545,0,0,0-2.871,1.573c-.328.262-.653-.239-.359-.548" transform="translate(-33.092 -95.135)" fill="#754d3b"/>
              <path id="Trazado_465215" data-name="Trazado 465215" d="M72.295,255.91a12.7,12.7,0,0,0-3.766-1.245c-.517-.044-1.84.924-2.425,1.4a12.869,12.869,0,0,1,2.47-.744,17.03,17.03,0,0,1,3.361,1.224.364.364,0,1,0,.361-.632" transform="translate(-25.831 -95.603)" fill="#754d3b"/>
              <path id="Trazado_465216" data-name="Trazado 465216" d="M84.665,259.173a7.726,7.726,0,0,0,2.285.345c.893-.1,1.542-.763,1.458-1.391s-.819-.919-1.708-.772a3.6,3.6,0,0,0-2.036,1.818" transform="translate(-33.084 -96.6)" fill="#fff"/>
              <path id="Trazado_465217" data-name="Trazado 465217" d="M85.972,258.634a1.008,1.008,0,0,0,1.083.964,1.09,1.09,0,0,0,.787-1.274.841.841,0,0,0-1.066-.75.888.888,0,0,0-.8,1.06" transform="translate(-33.591 -96.69)" fill="#619168"/>
              <path id="Trazado_465218" data-name="Trazado 465218" d="M86.391,258.509a.685.685,0,0,0,.735.651.74.74,0,0,0,.534-.863.686.686,0,0,0-.735-.655.744.744,0,0,0-.534.866" transform="translate(-33.756 -96.719)"/>
              <path id="Trazado_465219" data-name="Trazado 465219" d="M87.965,258.558a.236.236,0,0,0,.288.184.255.255,0,0,0,.225-.267.236.236,0,0,0-.286-.184.258.258,0,0,0-.227.267" transform="translate(-34.373 -96.964)" fill="#fff"/>
              <path id="Trazado_465220" data-name="Trazado 465220" d="M88.991,257.958c.045.345-.669,1.317-2,1.483a1.63,1.63,0,0,0,1.379-1.16c-.185-.652-1.5-.846-2.306-.413a2.876,2.876,0,0,0-1.4,1.242,2.684,2.684,0,0,1,2.753-1.973c.851.073,1.026.563,1.574.821" transform="translate(-33.084 -96.529)"/>
              <path id="Trazado_465221" data-name="Trazado 465221" d="M73.481,260.24a11.846,11.846,0,0,1-2.612.748c-1.033.086-1.829-.54-1.828-1.214s.8-1.1,1.84-1.1a4.008,4.008,0,0,1,2.6,1.568" transform="translate(-26.979 -97.108)" fill="#fff"/>
              <path id="Trazado_465222" data-name="Trazado 465222" d="M72.185,259.9A1.1,1.1,0,1,1,70,259.889a.975.975,0,0,1,1.111-.967.953.953,0,0,1,1.077.976" transform="translate(-27.353 -97.202)" fill="#619168"/>
              <path id="Trazado_465223" data-name="Trazado 465223" d="M71.932,259.752a.744.744,0,1,1-.736-.818.776.776,0,0,1,.736.818" transform="translate(-27.53 -97.207)"/>
              <path id="Trazado_465224" data-name="Trazado 465224" d="M70.593,260.086a.286.286,0,0,1-.311.248.255.255,0,1,1,.311-.248" transform="translate(-27.344 -97.545)" fill="#fff"/>
              <path id="Trazado_465225" data-name="Trazado 465225" d="M67.926,259.7a2.359,2.359,0,0,0,2.507,1.219,1.74,1.74,0,0,1-1.75-.984c.118-.715,1.589-1.141,2.58-.824a3.176,3.176,0,0,1,1.784,1.066,3.076,3.076,0,0,0-3.442-1.6c-.963.221-1.091.765-1.68,1.129" transform="translate(-26.543 -97.043)"/>
              <path id="Trazado_465226" data-name="Trazado 465226" d="M80.926,259.555a34.338,34.338,0,0,0,1.566,4.659c.364.783-.415,1.467-.9,1.592a10.357,10.357,0,0,1-2.512-.036,5.465,5.465,0,0,0,2.494-.523,1.161,1.161,0,0,0,.35-1.27,19.584,19.584,0,0,1-1-4.422" transform="translate(-30.901 -97.44)" fill="#ea9f6c"/>
              <path id="Trazado_465227" data-name="Trazado 465227" d="M76.731,241.911c-.89-7.212-5.481-11.471-12.5-12.017-8-.621-15.323,3.812-15.879,13.156,0,0-1.077,8.02,2.333,24.6.1.464,3.409,17.8,3.409,17.8s5.832,1.4,6.8-4.52c1.881-11.512-2.464-24.809-3.186-28.782-.034-.09,4.262-12.021,14.754-13.607.911.636,4.216,1.144,3.569,8.461a9.506,9.506,0,0,0,.7-5.09" transform="translate(-18.831 -86.283)" fill="#754d3b"/>
              <path id="Trazado_465228" data-name="Trazado 465228" d="M60.542,250.186a28.936,28.936,0,0,0,1.992,7.158c.008.047.019.1.029.152a60.894,60.894,0,0,1,5.419-8.792s-4.505,4.29-4.2,2.879a24.967,24.967,0,0,1,2.415-4.734,22.313,22.313,0,0,0-3.477,3.994c-.752,1.157,1.741-5.909,2.27-6.861-2.037,1.355-3.184,6.731-3.172,4.848s2.053-5.15,2.053-5.15-1.471.568-2.865,4.349a8.421,8.421,0,0,0-.468,2.157" transform="translate(-23.658 -91.48)" fill="#603b2c"/>
              <path id="Trazado_465229" data-name="Trazado 465229" d="M96.215,326.351s1.435,9.213-2.662,12.427c1.069-.243,2.77-2.536,3.551-4.463a5.939,5.939,0,0,0,.384-1.31c.3-2-1.273-6.654-1.273-6.654" transform="translate(-36.558 -122.516)" fill="#a56c3d"/>
              <path id="Trazado_465230" data-name="Trazado 465230" d="M101,343.493a4.021,4.021,0,0,0,2.8,3.275s-3.7-.626-3.739-3.475.57-8.834.57-8.834l1.111-1.647s-1.091,8.261-.747,10.68" transform="translate(-39.103 -124.942)" fill="#a56c3d"/>
              <path id="Trazado_465231" data-name="Trazado 465231" d="M81.2,238.494s-.464-3.876-2.924-5.87-7.839-1.254-8.067-1.14,4.662.229,6.109,1.082a7.884,7.884,0,0,0-6.485,1.558c.655-.683,6.862-.859,7.54-.55a11.708,11.708,0,0,0-7.145,2.463c3.9-1.171,7.1-1.207,7.424-.859.68.675-.372-.1-2.632,1.776,2.372-.342,3.488-.645,4.114-.076s-1.89,1.025-2.259,2.014a8.035,8.035,0,0,1,4.326-.4" transform="translate(-27.289 -86.816)" fill="#603b2c"/>
              <path id="Trazado_465232" data-name="Trazado 465232" d="M48.94,269.229c.407,7.189,3.484,23.259,2.186,28.767-.815,3.466-1.547,10.8,5.458,15.261-2.2-2.781-3.828-3.7-4.221-8.964-.445-5.941.944-5.709.533-11.849-.649-9.714-1.64-10.176-3.956-23.215" transform="translate(-19.124 -101.072)" fill="#a56c3d"/>
              <path id="Trazado_465233" data-name="Trazado 465233" d="M58.835,318.559c-1.168-6.473-1.208-19.54-1.208-19.54s-.253,10.5-.246,14.033c.009,3.145.542,8.707,4.7,10.673l.194-.287a7.145,7.145,0,0,1-3.438-4.879" transform="translate(-22.423 -112.255)" fill="#a56c3d"/>
              <path id="Trazado_465234" data-name="Trazado 465234" d="M63.225,323.611c-2.609-6.2-4.2-19.161-4.2-19.161s.824,10.472,1.248,13.979a11.87,11.87,0,0,0,2.85,6.736c.167-.252.34-.507.517-.771a4.912,4.912,0,0,1-.417-.783" transform="translate(-23.066 -114.294)" fill="#a56c3d"/>
              <path id="Trazado_465235" data-name="Trazado 465235" d="M82.1,300.89s-3.1,2.077-3.1,2.09-1.724,1.385-3.086,2.747a16.62,16.62,0,0,1,1.609-1.65c-.469-.491-.888-1.024-1.74-.38-.451.344-2.715,2.475-2.9,3.512a36.381,36.381,0,0,0-.286,3.954c-.379.658-.581.965-.956,1.6-1.2,1.907-2.577,4.064-3.93,6.147-.858,1.324-4.276,6.425-4.648,6.954.166.165.335.325.512.477,1.039.9,2.689,3.877,3.409,6.663a17.772,17.772,0,0,0,3.518-4.546c.384-.759.965-2.042,1.635-3.556,1.258-2.847,2.823-6.516,3.944-9.1a5.053,5.053,0,0,1,2.586-2.1h0a30,30,0,0,0,2.813-1.714c.664-.478,1.976-1.9,1.932-2.446s-.188-.515-.342-.637-.006-.562-.027-.775a1.239,1.239,0,0,0-.283-.751c-.2-.184-.607-.365-.682-.48a.873.873,0,0,1-.114-.622,1.181,1.181,0,0,0-.107-.941c-.286-.428-.684-.354-1.07-.717a4.967,4.967,0,0,1-.34-.381,24.088,24.088,0,0,1,2.219-1.794c.98-.6,2.012-1.392,2.132-1.925.324-1.463-2.7.374-2.7.374" transform="translate(-24.643 -112.605)" fill="#fcc397"/>
              <path id="Trazado_465236" data-name="Trazado 465236" d="M67.895,339.448a.191.191,0,0,1,.016.011h0a.164.164,0,0,0-.019-.013" transform="translate(-26.531 -127.433)" fill="#a56c3d"/>
              <path id="Trazado_465237" data-name="Trazado 465237" d="M97.377,309.911s2.777,10.251,1.6,16.923a17.55,17.55,0,0,0-.806-4.476l-.467-2.179s.188-7.818-.332-10.268" transform="translate(-38.052 -116.344)" fill="#a56c3d"/>
              <path id="Trazado_465238" data-name="Trazado 465238" d="M99.21,305.393s3.566,11.271,2.067,18.425-.972.349-.972.349a55.336,55.336,0,0,0-1.094-18.774" transform="translate(-38.768 -114.648)" fill="#a56c3d"/>
              <path id="Trazado_465239" data-name="Trazado 465239" d="M96.464,301.279a3.325,3.325,0,0,1-.4-.734,3.354,3.354,0,0,1,1.053-.627.41.41,0,0,1,.472.61c-.193.339-1.129.751-1.129.751" transform="translate(-37.54 -112.587)" fill="#e26954"/>
              <path id="Trazado_465240" data-name="Trazado 465240" d="M92.956,485.889c0,25.451-20.126,46.083-44.953,46.083S3.054,511.34,3.054,485.889,23.179,439.8,48,439.8s44.953,20.632,44.953,46.085" transform="translate(-1.193 -147.107)" fill="#e2c140"/>
              <path id="Trazado_465241" data-name="Trazado 465241" d="M107.759,499.233a5.378,5.378,0,0,0-4.662-3.174l-2.176-.339s1.53,19.351,1.856,17.78c-.392,3.246-1.176,9.458-1.142,11.684.017,1.078-.132,10.862,5.587,5.834,4.456-3.919,3.149-27.342.537-31.785" transform="translate(-39.437 -168.099)" fill="#3870c1"/>
              <path id="Trazado_465242" data-name="Trazado 465242" d="M43.193,531.064c.048-3.168,1.275-19.206,1.447-18.939-.145.4.521-16.281.521-16.281l-1.677.261a5.429,5.429,0,0,0-4.655,3.16c-2.614,4.45-4.054,24.25-4.2,30.266-.08,3.393,8.545,2.625,8.56,1.533" transform="translate(-13.534 -168.145)" fill="#3870c1"/>
              <path id="Trazado_465243" data-name="Trazado 465243" d="M48.207,510.288s-.128,6.356-.128,10.211c0,7.828.81,8.546.81,8.546l.955-10.751Z" transform="translate(-18.788 -173.568)" fill="#024183"/>
              <path id="Trazado_465244" data-name="Trazado 465244" d="M103.894,510.831s.7,9,.361,12.249c-.555,5.407-2.033,6-2.033,6Z" transform="translate(-39.945 -173.772)" fill="#024183"/>
              <path id="Trazado_465245" data-name="Trazado 465245" d="M84.872,499.78c0-3.887-2.5-7.037-5.58-7.037l-5.16-.8-2.169-.337a5.378,5.378,0,0,1-4.014-4.383c-.084-.751-10.04-.009-10.036.037.13,2.336-2.576,3.951-5.033,4.353l-7.3,1.131c-3.081,0-5.579,3.15-5.579,7.037s2.5,7.035,5.579,7.035h.161a9.5,9.5,0,0,0,.215,1.134,8.012,8.012,0,0,0-.469,2.711,7.838,7.838,0,0,0,4.768,7.26,42.892,42.892,0,0,1,1.078,5.313,57.37,57.37,0,0,1,.612,10.389,19.464,19.464,0,0,0-5.184,6.159,20.667,20.667,0,0,0-2.134,6.105,44.048,44.048,0,0,0,36.1-.211,20.644,20.644,0,0,0-2.173-6.036,19.4,19.4,0,0,0-5.236-6.114,57.935,57.935,0,0,1,.618-10.292,43.5,43.5,0,0,1,1.044-5.2,7.84,7.84,0,0,0,4.658-7.214,8,8,0,0,0-.456-2.672,13.148,13.148,0,0,0,.189-1.338c3.046-.052,5.5-3.182,5.5-7.033" transform="translate(-15.632 -164.783)" fill="#3870c1"/>
              <path id="Trazado_465246" data-name="Trazado 465246" d="M87.964,465.179s8.831,2.863,10.192,9.035a9.75,9.75,0,0,1-1.337,7.74,18.78,18.78,0,0,1-5.777,5.322c-5.1,3.267-.741,6.314-.741,6.314s-12.808.1-7.646-11.537c2.654-5.987,6.265-3.919,2.972-13.934-3.171-9.649,2.337-2.939,2.337-2.939" transform="translate(-31.82 -155.781)" fill="#663412"/>
              <path id="Trazado_465247" data-name="Trazado 465247" d="M79.888,482.621c0,.6-2.855,1.084-6.378,1.084s-6.376-.484-6.376-1.084,2.855-1.081,6.376-1.081,6.378.485,6.378,1.081" transform="translate(-26.234 -162.775)" fill="#024183"/>
              <path id="Trazado_465248" data-name="Trazado 465248" d="M68.614,478.767l.292,2.985a18.225,18.225,0,0,0,4.335,1.532,1.325,1.325,0,0,0,1.075-.084c.812-.458,2.739.192,4.624-1.342l-.325-4.631Z" transform="translate(-26.812 -161.156)" fill="#ea9f6c"/>
              <path id="Trazado_465249" data-name="Trazado 465249" d="M79.888,491.016c0,.6-2.855,1.765-6.378,1.765s-6.376-1.169-6.376-1.765,2.855-1.083,6.376-1.083,6.378.484,6.378,1.083" transform="translate(-26.234 -165.926)" fill="#024183"/>
              <path id="Trazado_465250" data-name="Trazado 465250" d="M79.888,491.016c0,.6-2.855,1.082-6.378,1.082s-6.376-.485-6.376-1.082,2.855-1.083,6.376-1.083,6.378.484,6.378,1.083" transform="translate(-26.234 -165.926)" fill="#3870c1"/>
              <path id="Trazado_465251" data-name="Trazado 465251" d="M67.134,483.27v5.244H79.888V483.27s.2.979-6.378.979-6.376-.979-6.376-.979" transform="translate(-26.234 -163.425)" fill="#3870c1"/>
              <path id="Trazado_465252" data-name="Trazado 465252" d="M81.6,443.733c.941,8.536-4.757,16.248-12.737,17.125-10.187,1.122-11.644-5.247-12.584-13.783s1.207-16.2,9.18-17.122,15.2,5.245,16.141,13.781" transform="translate(-21.912 -143.374)" fill="#663412"/>
              <path id="Trazado_465253" data-name="Trazado 465253" d="M77.82,448.444a1.325,1.325,0,0,0-.993.2c-.027-3.5-.213-7.008-.816-7.772a13.443,13.443,0,0,0-11.485-5.134h0a13.626,13.626,0,0,0-10.079,7.629c-.418.874.149,4.277.872,7.661a1.212,1.212,0,0,0-.715.095c-.955.457-1.12,2.164-.369,3.811a3.456,3.456,0,0,0,2.544,2.265c.244.953.4,1.551.4,1.551,2.654,5.317,8.348,7.424,10.187,7.979a1.388,1.388,0,0,0,1.073-.1c1.619-.922,6.8-4.288,8.245-10.135,0,0,.027-.618.057-1.6.943-.041,1.909-1.215,2.252-2.819.381-1.777-.147-3.4-1.176-3.634" transform="translate(-21.009 -145.568)" fill="#fcc397"/>
              <path id="Trazado_465254" data-name="Trazado 465254" d="M78.246,454.767a4.32,4.32,0,0,1,5.213-.849c1.692.951-.871-.47-2.03-.193a6.62,6.62,0,0,0-2.855,1.561c-.362.327-.69-.192-.328-.52" transform="translate(-30.515 -152.194)" fill="#663412"/>
              <path id="Trazado_465255" data-name="Trazado 465255" d="M65.7,456.2a4.063,4.063,0,0,0-5.1.4c-1.4,1.328.727-.662,1.879-.668a6.158,6.158,0,0,1,3.017.847c.409.235.614-.349.2-.582" transform="translate(-23.501 -152.989)" fill="#663412"/>
              <path id="Trazado_465256" data-name="Trazado 465256" d="M67.358,460.729a9.561,9.561,0,0,1-2.332,1c-.986.156-1.859-.325-1.929-.961s.677-1.24,1.667-1.355a3.35,3.35,0,0,1,2.593,1.314" transform="translate(-24.655 -154.466)" fill="#fff"/>
              <path id="Trazado_465257" data-name="Trazado 465257" d="M66.3,460.52a1.1,1.1,0,0,1-.918,1.25,1.089,1.089,0,0,1-1.169-1.007,1.1,1.1,0,0,1,.919-1.25A1.084,1.084,0,0,1,66.3,460.52" transform="translate(-25.088 -154.504)" fill="#7b9368"/>
              <path id="Trazado_465258" data-name="Trazado 465258" d="M66.213,460.593a.746.746,0,0,1-.624.846.737.737,0,0,1-.791-.684.747.747,0,0,1,.623-.847.738.738,0,0,1,.792.685" transform="translate(-25.319 -154.653)"/>
              <path id="Trazado_465259" data-name="Trazado 465259" d="M66.865,460.684a.349.349,0,1,1-.367-.228.31.31,0,0,1,.367.228" transform="translate(-25.865 -154.859)" fill="#fff"/>
              <path id="Trazado_465260" data-name="Trazado 465260" d="M66.479,460.459a3.058,3.058,0,0,0-3.946-.648c-1,.518-1.226.33-1.275.284a2.415,2.415,0,0,0,1.857,1.488A1.252,1.252,0,0,1,62.45,461c.034-.685,1.4-1.253,2.374-1.07a3.028,3.028,0,0,1,1.819.8,1.159,1.159,0,0,0-.165-.269" transform="translate(-23.938 -154.456)"/>
              <path id="Trazado_465261" data-name="Trazado 465261" d="M78.639,459.42a9.688,9.688,0,0,0,2.528.438c1.008-.072,1.764-.742,1.7-1.38s-.941-1.052-1.946-.937a3.458,3.458,0,0,0-2.277,1.879" transform="translate(-30.73 -153.759)" fill="#fff"/>
              <path id="Trazado_465262" data-name="Trazado 465262" d="M80.975,458.868a1.1,1.1,0,0,0,1.183,1.006,1.112,1.112,0,0,0,.936-1.253,1.1,1.1,0,0,0-1.184-1.007,1.111,1.111,0,0,0-.934,1.254" transform="translate(-31.64 -153.791)" fill="#7b9368"/>
              <path id="Trazado_465263" data-name="Trazado 465263" d="M81.459,458.876a.742.742,0,0,0,.8.681.751.751,0,0,0,.632-.849.742.742,0,0,0-.8-.683.754.754,0,0,0-.634.851" transform="translate(-31.83 -153.946)"/>
              <path id="Trazado_465264" data-name="Trazado 465264" d="M83.078,458.951a.309.309,0,0,0,.37.227.316.316,0,0,0,.311-.307.309.309,0,0,0-.37-.227.313.313,0,0,0-.311.307" transform="translate(-32.464 -154.179)" fill="#fff"/>
              <path id="Trazado_465265" data-name="Trazado 465265" d="M83.828,457.543c-.038.058-.219.292-1.323.016a3.153,3.153,0,0,0-3.761,1.541,1.193,1.193,0,0,0-.105.3,3.14,3.14,0,0,1,1.624-1.2c.929-.4,2.4-.164,2.584.5a1.292,1.292,0,0,1-.529.726c.659-.334,1.564-1.135,1.511-1.879" transform="translate(-30.729 -153.73)"/>
              <path id="Trazado_465266" data-name="Trazado 465266" d="M79.44,441.583c-.809-7.351-7.931-12.564-15.906-11.64a13.563,13.563,0,0,0-12.306,14.981c.272,2.474.345,4.728,1.589,6.588-.227-1.2.044-2.245.762-2.588a1.146,1.146,0,0,1,.515-.112c.557,1.5,1.081,2.521.986,1.658-.112-1.017-.117-2.911-.1-4.308-.922-12.041,19.392-13.181,20.123-1.927.289,1.3.615,2.871.715,3.78.1.853.358-.225.555-1.784a1.114,1.114,0,0,1,.426.009c.809.179,1.306,1.227,1.3,2.527a12.653,12.653,0,0,0,1.346-7.185" transform="translate(-19.986 -143.366)" fill="#663412"/>
              <path id="Trazado_465267" data-name="Trazado 465267" d="M74.779,468.178l-1.351.156a1.067,1.067,0,0,1-1.067-.656,1.376,1.376,0,0,0-.026.442c.074.663.888.784,1.471.718l.718-.083c.582-.069,1.348-.372,1.275-1.036a1.318,1.318,0,0,0-.121-.425,1.083,1.083,0,0,1-.9.884" transform="translate(-28.263 -157.427)" fill="#ea9f6c"/>
              <path id="Trazado_465268" data-name="Trazado 465268" d="M54.249,462.091c-.025-.136.171-.787.511-.718.52.1.948,1.071,1.27,2.049s.3,1.721.161,1.467a14.9,14.9,0,0,0-1.2-2.636c-.48-.714-.543.915-.741-.161" transform="translate(-21.198 -155.203)" fill="#ea9f6c"/>
              <path id="Trazado_465269" data-name="Trazado 465269" d="M93.66,457.607c0-.141-.337-.729-.654-.585-.486.221-.691,1.26-.793,2.289s.077,1.745.161,1.463a15,15,0,0,1,.6-2.843c.313-.8.728.768.688-.325" transform="translate(-36.022 -153.563)" fill="#ea9f6c"/>
              <path id="Trazado_465270" data-name="Trazado 465270" d="M65.328,467.446c-.168.888-1.434,1.38-2.823,1.1s-2.38-1.224-2.21-2.111,1.434-1.381,2.824-1.1,2.377,1.222,2.209,2.11" transform="translate(-23.554 -156.663)" fill="#ffb18a"/>
              <path id="Trazado_465271" data-name="Trazado 465271" d="M81.369,465.565c.357.824,1.7,1.017,2.992.428s2.054-1.736,1.7-2.563-1.7-1.016-2.992-.428-2.053,1.736-1.7,2.563" transform="translate(-31.762 -155.688)" fill="#ffb18a"/>
              <path id="Trazado_465272" data-name="Trazado 465272" d="M70.337,474.821c1.016.861,2.107,1.834,3.615,1.659a4.534,4.534,0,0,0,3.075-2.423,18.241,18.241,0,0,1-3.246.783,18.5,18.5,0,0,1-3.445-.019" transform="translate(-27.486 -159.966)" fill="#fc7365"/>
              <path id="Trazado_465273" data-name="Trazado 465273" d="M74.816,475.372s1.575-.145,1.923-.791a25.844,25.844,0,0,0-3.9.366s-.286.614,1.981.425" transform="translate(-28.457 -160.154)" fill="#fff"/>
              <path id="Trazado_465274" data-name="Trazado 465274" d="M50.417,558.9a14.132,14.132,0,0,0-1.734,1.156l.211.395a11.851,11.851,0,0,0,1.727-1.363c.132-.276-.2-.187-.2-.187" transform="translate(-19.024 -191.813)" fill="#ea9f6c"/>
              <path id="Trazado_465275" data-name="Trazado 465275" d="M76.4,510.063l-25.99,3.828,6.012,32.163,22.636-1.172Z" transform="translate(-19.698 -173.484)" fill="#919191"/>
              <path id="Trazado_465276" data-name="Trazado 465276" d="M54.313,509.751l19.543-5.176,5.06,31.782.945,8.178-21.028.9Z" transform="translate(-21.224 -171.423)" fill="#e0e0e0"/>
              <path id="Trazado_465277" data-name="Trazado 465277" d="M50.3,508.384l18.754-5.4,5.719,24.4-18.783,6.361Z" transform="translate(-19.655 -170.826)" fill="#fff"/>
              <path id="Trazado_465278" data-name="Trazado 465278" d="M56.11,555.97a6.916,6.916,0,0,0-3.029-.51c-2.083,0-2.477.473-2.991.84a8.914,8.914,0,0,0-1.73,1.5,1.672,1.672,0,0,0,.2,1.023,10.278,10.278,0,0,1,1.731-.992c.205.029-1.321.922-1.583,1.171a1.132,1.132,0,0,0-.36,1.2c.09.354.565.511.565.932s-.263.951-.028,1.473a2.427,2.427,0,0,0,.8.8c.294.21.116.874.229,1.129.248.555.615.721,1.377.786.389.033.205.445.351.865s.618.9,1.76.482a15.192,15.192,0,0,0,4.9-2.887c1.379-1.383-2.192-7.818-2.192-7.818" transform="translate(-18.876 -190.526)" fill="#fcc397"/>
              <path id="Trazado_465279" data-name="Trazado 465279" d="M86.426,533.472s.207,1.381-.82,1.682-2.054,5.714-2.054,5.714-3.576,2.766-4.955,2.766a25.466,25.466,0,0,0-3.491-.151c-1.555.151-4.135.72-4.135.72s-2.78-3.035-1.137-6.1c-.205-.45,3.541-1.051,4.216-1.292a21.1,21.1,0,0,0,2.932-2.075c.792-.572,1.056-1.052,1.878-1.262s6.011.21,7.565,0" transform="translate(-27.086 -182.248)" fill="#fcc397"/>
              <path id="Trazado_465280" data-name="Trazado 465280" d="M85.2,534.4s2.662.385,3.52.52a.921.921,0,0,1,.529,1.488c-.308.406-.352.406-.221.834s.551,1.1.286,1.464-.264.339-.132.565a5.893,5.893,0,0,1,.261,1.172s2.023-.986,2.357-1.059c.925-.2,1.21-1.219.793-1.622s-.44-.227-.088-.34a1.066,1.066,0,0,0,.791-.993,1.011,1.011,0,0,0-.44-1.012,25.005,25.005,0,0,0-3.124-.476c-.835-.134-4.508-.81-4.531-.54" transform="translate(-33.293 -182.594)" fill="#ea9f6c"/>
              <path id="Trazado_465281" data-name="Trazado 465281" d="M60.678,549.837c-.433-.11-1.231,1.2-1,2.767a12.677,12.677,0,0,0,1.82,4.631,1.248,1.248,0,0,0,1.993.421,7.13,7.13,0,0,1,1.877-1.084c.528-.059.352.722,1.584.422s9.209-2.767,11.262-3.489,8.858-3.728,10.381-4.449,3.256-1.743,3.622-3.909-2.385-6.93-6.526-5.532a72.445,72.445,0,0,0-12.406,6.133,32.672,32.672,0,0,1-7.1,2.886,3.908,3.908,0,0,0-2.287,1.623c-.177.482-2.523-.239-3.227-.421" transform="translate(-23.305 -184.483)" fill="#3870c1"/>
              <path id="Trazado_465282" data-name="Trazado 465282" d="M35.261,542.463A4.612,4.612,0,0,1,39,539.887a17.332,17.332,0,0,1,5.177.181,26.148,26.148,0,0,0,6.921.55,14.012,14.012,0,0,1,3.036,0c.394-.055,3.654-.789,3.654-.789s-2.033,1.821.827,6.514c-1.215.411-4.219,1.257-4.219,1.257s.044.767-.526.9-8.262,2.027-12.971,1.237c-1.936-.323-4.2-.414-5.3-.909s-1.345-4.383-.333-6.365" transform="translate(-13.529 -184.635)" fill="#3870c1"/>
              <path id="Trazado_465283" data-name="Trazado 465283" d="M96.438,533.479l-1.531.072a.3.3,0,0,0,.027.254,2.941,2.941,0,0,0,1.377,0c.122-.088.127-.325.127-.325" transform="translate(-37.08 -182.274)" fill="#e26954"/>
              <path id="Trazado_465284" data-name="Trazado 465284" d="M92.976,483.27c-1.209,2.138-2.625,3.79-2.993,7.894s1.5,5.756,1.5,5.756-2.539-1.311-2.229-5.986a12.169,12.169,0,0,1,3.726-7.664" transform="translate(-34.866 -163.425)" fill="#843e09"/>
              <path id="Trazado_465285" data-name="Trazado 465285" d="M102.072,499.52s-1.514-1.284-.792-2.536,2.151-3.144,2.872-4.443c.418-.753.021-2.057-.868-1.083a18.585,18.585,0,0,0-2.657,4.152c-.512,1.409-1.055,3.224,1.446,3.91" transform="translate(-39.152 -166.368)" fill="#663412"/>
              <path id="Trazado_465286" data-name="Trazado 465286" d="M93.983,471.112s5.576,2.222,6.437,7.007c.8,4.47-1.273,7.593-4.493,10.125s-.468,4.894-.468,4.894-8.181-3.456-2.572-11.173c5.337-7.344,1.1-10.853,1.1-10.853" transform="translate(-35.529 -158.861)" fill="#843e09"/>
              <path id="Trazado_465287" data-name="Trazado 465287" d="M80.5,437.337a15.522,15.522,0,0,0-15.8-2.716c-2.926,1.18-1.977,4.438-1.977,4.438a3.9,3.9,0,0,1,3.962-2.446c3.221.337,7.394,2.447,11.431,6.709a15.058,15.058,0,0,1,2.735,4.3,1.109,1.109,0,0,1,.414.016c1.029.23,1.557,1.857,1.176,3.634a5.453,5.453,0,0,1-.171.624c.173.721.284,1.307.346,1.674,2.826-4.852.831-13.664-2.113-16.234" transform="translate(-24.452 -144.764)" fill="#843e09"/>
              <path id="Trazado_465288" data-name="Trazado 465288" d="M73.615,474.012c-1.077-.589-1.706.643-3.432.649.007.06,1.016.3,3.539.045a9.392,9.392,0,0,0,3.364-.844c-1.685.222-2.638-.577-3.471.15" transform="translate(-27.425 -159.832)" fill="#ef4141"/>
              <path id="Trazado_465290" data-name="Trazado 465290" d="M167.148,295.3l26.7,15.8-26.7,15.8Z" transform="translate(-65.316 -110.86)" fill="#e0e0e0"/>
              <path id="Trazado_465291" data-name="Trazado 465291" d="M167.148,495.3l26.7,15.8-26.7,15.8Z" transform="translate(-65.316 -167.942)" fill="#e0e0e0"/>
            </g>
          </g>
        </g>
      </g>
    </g>
  </g>
</svg>
