<svg xmlns="http://www.w3.org/2000/svg" xmlns:xlink="http://www.w3.org/1999/xlink" width="334.626" height="270.108" viewBox="0 0 334.626 270.108">
  <defs>
    <clipPath id="clip-path">
      <rect id="Rectángulo_49831" data-name="Rectángulo 49831" width="141.189" height="88.134" rx="1.375" fill="none"/>
    </clipPath>
    <linearGradient id="linear-gradient" x1="-0.628" y1="0.13" x2="0.888" y2="0.77" gradientUnits="objectBoundingBox">
      <stop offset="0" stop-color="#2484c6"/>
      <stop offset="1" stop-color="#2484c6" stop-opacity="0"/>
    </linearGradient>
  </defs>
  <g id="Grupo_711947" data-name="Grupo 711947" transform="translate(-203.888 -6080.244)">
    <g id="Grupo_152006" data-name="Grupo 152006" transform="translate(203.888 6080.244)" opacity="0.158">
      <path id="Trazado_183874" data-name="Trazado 183874" d="M533.166,158.787,504.434,138.91l28.732-19.878L561.9,138.91Zm-26.7-19.877,26.7,18.469,26.7-18.469-26.7-18.469Z" transform="translate(-227.278 -119.029)" fill="#173d7a"/>
      <path id="Trazado_183875" data-name="Trazado 183875" d="M472.813,158.787,444.08,138.909l28.732-19.877.254.177,28.48,19.7Zm-26.7-19.878,26.7,18.47,26.7-18.469-26.7-18.469Z" transform="translate(-222.355 -119.029)" fill="#173d7a"/>
      <path id="Trazado_183876" data-name="Trazado 183876" d="M502.99,176.209l-28.733-19.877,28.733-19.878,28.732,19.878Zm-26.7-19.877,26.7,18.469,26.7-18.469-26.7-18.469Z" transform="translate(-224.816 -117.279)" fill="#173d7a"/>
      <path id="Trazado_183877" data-name="Trazado 183877" d="M533.167,193.633l-.254-.176-28.48-19.7,28.732-19.878.254.176,28.48,19.7Zm-26.7-19.877,26.7,18.469,26.7-18.469-26.7-18.47Z" transform="translate(-227.278 -115.528)" fill="#173d7a"/>
      <path id="Trazado_183878" data-name="Trazado 183878" d="M412.458,158.786l-.254-.176-28.48-19.7,28.732-19.878.254.177,28.48,19.7Zm-26.7-19.877,26.7,18.469,26.7-18.469-26.7-18.469Z" transform="translate(-217.431 -119.03)" fill="#173d7a"/>
      <path id="Trazado_183879" data-name="Trazado 183879" d="M442.636,176.209l-.253-.176-28.48-19.7,28.732-19.878,28.733,19.879Zm-26.7-19.877,26.7,18.469,26.7-18.468-26.7-18.47Z" transform="translate(-219.893 -117.279)" fill="#173d7a"/>
      <path id="Trazado_183880" data-name="Trazado 183880" d="M472.814,193.631l-.253-.176-28.48-19.7,28.732-19.877,28.732,19.878Zm-26.7-19.877,26.7,18.469,26.7-18.468-26.7-18.47Z" transform="translate(-222.355 -115.528)" fill="#173d7a"/>
      <path id="Trazado_183881" data-name="Trazado 183881" d="M502.991,211.055l-28.733-19.879L502.99,171.3l.254.176,28.48,19.7Zm-26.7-19.879,26.7,18.471,26.7-18.47-26.7-18.469Z" transform="translate(-224.816 -113.778)" fill="#173d7a"/>
      <path id="Trazado_183882" data-name="Trazado 183882" d="M533.168,228.479l-.254-.176-28.479-19.7,28.732-19.877.254.176,28.48,19.7Zm-26.7-19.878,26.7,18.469,26.7-18.469-26.7-18.469Z" transform="translate(-227.278 -112.027)" fill="#173d7a"/>
      <path id="Trazado_183883" data-name="Trazado 183883" d="M352.1,158.786l-28.733-19.878L352.1,119.031l.254.177,28.48,19.7Zm-26.7-19.878,26.7,18.47,26.7-18.469L352.1,120.44Z" transform="translate(-212.508 -119.03)" fill="#173d7a"/>
      <path id="Trazado_183884" data-name="Trazado 183884" d="M382.282,176.209l-.254-.176-28.48-19.7,28.733-19.878.254.176,28.48,19.7Zm-26.7-19.877,26.7,18.469,26.7-18.469-26.7-18.469Z" transform="translate(-214.97 -117.279)" fill="#173d7a"/>
      <path id="Trazado_183885" data-name="Trazado 183885" d="M412.459,193.632l-.253-.176-28.48-19.7,28.732-19.878.254.176,28.48,19.7Zm-26.7-19.877,26.7,18.469,26.7-18.469-26.7-18.47Z" transform="translate(-217.432 -115.529)" fill="#173d7a"/>
      <path id="Trazado_183886" data-name="Trazado 183886" d="M442.637,211.054l-.253-.176-28.48-19.7L442.636,171.3l.254.176,28.479,19.7Zm-26.7-19.878,26.7,18.47,26.7-18.47-26.7-18.469Z" transform="translate(-219.893 -113.778)" fill="#173d7a"/>
      <path id="Trazado_183887" data-name="Trazado 183887" d="M472.814,228.478,444.082,208.6l28.732-19.877L501.546,208.6Zm-26.7-19.878,26.7,18.469,26.7-18.468-26.7-18.47Z" transform="translate(-222.355 -112.027)" fill="#173d7a"/>
      <path id="Trazado_183888" data-name="Trazado 183888" d="M502.992,245.9l-28.734-19.879,28.733-19.876.253.176,28.48,19.7Zm-26.7-19.879,26.7,18.47,26.7-18.469-26.7-18.469Z" transform="translate(-224.816 -110.277)" fill="#173d7a"/>
      <path id="Trazado_183889" data-name="Trazado 183889" d="M533.169,263.323l-.254-.176-28.48-19.7,28.732-19.878.254.177,28.479,19.7Zm-26.7-19.877,26.7,18.469,26.7-18.469-26.7-18.469Z" transform="translate(-227.278 -108.527)" fill="#173d7a"/>
      <path id="Trazado_183890" data-name="Trazado 183890" d="M291.749,158.784l-.253-.176-28.48-19.7,28.732-19.878.254.177,28.48,19.7Zm-26.7-19.877,26.7,18.469,26.7-18.469-26.7-18.469Z" transform="translate(-207.585 -119.03)" fill="#173d7a"/>
      <path id="Trazado_183891" data-name="Trazado 183891" d="M321.927,176.208l-.253-.176-28.48-19.7,28.732-19.878,28.733,19.879Zm-26.7-19.877,26.7,18.469,26.7-18.468-26.7-18.47Z" transform="translate(-210.047 -117.279)" fill="#173d7a"/>
      <path id="Trazado_183892" data-name="Trazado 183892" d="M352.105,193.63l-.254-.176-28.48-19.7L352.1,153.877l.254.176,28.48,19.7Zm-26.7-19.877,26.7,18.469,26.7-18.468-26.7-18.47Z" transform="translate(-212.508 -115.529)" fill="#173d7a"/>
      <path id="Trazado_183893" data-name="Trazado 183893" d="M382.283,211.054l-28.734-19.879L382.282,171.3l.254.176,28.48,19.7Zm-26.7-19.879,26.7,18.471,26.7-18.47-26.7-18.469Z" transform="translate(-214.97 -113.778)" fill="#173d7a"/>
      <path id="Trazado_183894" data-name="Trazado 183894" d="M412.46,228.478l-.253-.176-28.48-19.7,28.732-19.877.254.176,28.48,19.7Zm-26.7-19.878,26.7,18.469,26.7-18.469-26.7-18.469Z" transform="translate(-217.432 -112.027)" fill="#173d7a"/>
      <path id="Trazado_183895" data-name="Trazado 183895" d="M442.637,245.9l-28.732-19.878,28.732-19.877,28.732,19.877Zm-26.7-19.878,26.7,18.469,26.7-18.469-26.7-18.469Z" transform="translate(-219.893 -110.277)" fill="#173d7a"/>
      <path id="Trazado_183896" data-name="Trazado 183896" d="M472.815,263.322l-.255-.176-28.479-19.7,28.732-19.878,28.733,19.879Zm-26.7-19.877,26.7,18.469,26.7-18.468-26.7-18.47Z" transform="translate(-222.355 -108.527)" fill="#173d7a"/>
      <path id="Trazado_183897" data-name="Trazado 183897" d="M502.993,280.745l-.254-.176-28.48-19.7,28.733-19.877.253.176,28.48,19.7Zm-26.7-19.877,26.7,18.469,26.7-18.468-26.7-18.469Z" transform="translate(-224.816 -106.776)" fill="#173d7a"/>
      <path id="Trazado_183898" data-name="Trazado 183898" d="M533.17,298.169l-28.733-19.878,28.732-19.877.254.176,28.479,19.7Zm-26.7-19.878,26.7,18.47,26.7-18.469-26.7-18.47Z" transform="translate(-227.278 -105.025)" fill="#173d7a"/>
      <path id="Trazado_183899" data-name="Trazado 183899" d="M231.4,158.783l-.253-.176-28.48-19.7,28.732-19.877.253.177,28.48,19.7Zm-26.7-19.877,26.7,18.469,26.7-18.468-26.7-18.469Z" transform="translate(-202.662 -119.03)" fill="#173d7a"/>
      <path id="Trazado_183900" data-name="Trazado 183900" d="M261.573,176.208,232.84,156.33l28.732-19.877.254.176,28.48,19.7Zm-26.7-19.878,26.7,18.47,26.7-18.469-26.7-18.469Z" transform="translate(-205.124 -117.279)" fill="#173d7a"/>
      <path id="Trazado_183901" data-name="Trazado 183901" d="M291.75,193.631l-.253-.176-28.48-19.7,28.732-19.878.254.176,28.48,19.7Zm-26.7-19.877,26.7,18.469,26.7-18.469-26.7-18.47Z" transform="translate(-207.585 -115.529)" fill="#173d7a"/>
      <path id="Trazado_183902" data-name="Trazado 183902" d="M321.928,211.053l-.254-.176-28.48-19.7L321.927,171.3l.254.176,28.479,19.7Zm-26.7-19.878,26.7,18.47,26.7-18.47-26.7-18.469Z" transform="translate(-210.047 -113.778)" fill="#173d7a"/>
      <path id="Trazado_183903" data-name="Trazado 183903" d="M352.106,228.477l-.254-.176-28.479-19.7,28.732-19.877L380.838,208.6Zm-26.7-19.878,26.7,18.47L378.8,208.6l-26.7-18.47Z" transform="translate(-212.508 -112.028)" fill="#173d7a"/>
      <path id="Trazado_183904" data-name="Trazado 183904" d="M382.284,245.9l-.254-.176-28.48-19.7,28.733-19.876.253.176,28.48,19.7Zm-26.7-19.878,26.7,18.469,26.7-18.468-26.7-18.469Z" transform="translate(-214.97 -110.277)" fill="#173d7a"/>
      <path id="Trazado_183905" data-name="Trazado 183905" d="M412.461,263.322l-28.733-19.878,28.732-19.877,28.733,19.878Zm-26.7-19.878,26.7,18.47,26.7-18.469-26.7-18.469Z" transform="translate(-217.432 -108.527)" fill="#173d7a"/>
      <path id="Trazado_183906" data-name="Trazado 183906" d="M442.638,280.746l-28.732-19.877,28.731-19.878.253.176,28.48,19.7Zm-26.7-19.877,26.7,18.469,26.7-18.469-26.7-18.469Z" transform="translate(-219.893 -106.776)" fill="#173d7a"/>
      <path id="Trazado_183907" data-name="Trazado 183907" d="M472.816,298.169l-.254-.176-28.479-19.7,28.732-19.878.254.176,28.48,19.7Zm-26.7-19.877,26.7,18.469,26.7-18.469-26.7-18.47Z" transform="translate(-222.355 -105.026)" fill="#173d7a"/>
      <path id="Trazado_183908" data-name="Trazado 183908" d="M502.994,315.591l-.254-.176-28.48-19.7,28.733-19.877,28.733,19.878Zm-26.7-19.878,26.7,18.47,26.7-18.469-26.7-18.47Z" transform="translate(-224.817 -103.275)" fill="#173d7a"/>
      <path id="Trazado_183909" data-name="Trazado 183909" d="M533.171,333.016l-28.733-19.879,28.732-19.876.254.176,28.479,19.7Zm-26.7-19.879,26.7,18.47,26.7-18.469-26.7-18.469Z" transform="translate(-227.278 -101.525)" fill="#173d7a"/>
      <path id="Trazado_183910" data-name="Trazado 183910" d="M231.4,193.63l-.253-.176-28.48-19.7L231.4,153.875l28.733,19.879Zm-26.7-19.877,26.7,18.469,26.7-18.468-26.7-18.471Z" transform="translate(-202.662 -115.529)" fill="#173d7a"/>
      <path id="Trazado_183911" data-name="Trazado 183911" d="M261.574,211.053,232.84,191.175,261.573,171.3l.254.176,28.48,19.7Zm-26.7-19.879,26.7,18.471,26.7-18.47-26.7-18.469Z" transform="translate(-205.124 -113.778)" fill="#173d7a"/>
      <path id="Trazado_183912" data-name="Trazado 183912" d="M291.751,228.477l-.253-.176-28.48-19.7,28.732-19.877.254.176,28.48,19.7Zm-26.7-19.878,26.7,18.47,26.7-18.47-26.7-18.469Z" transform="translate(-207.585 -112.028)" fill="#173d7a"/>
      <path id="Trazado_183913" data-name="Trazado 183913" d="M321.929,245.9l-.253-.176-28.48-19.7,28.732-19.877.253.176,28.48,19.7Zm-26.7-19.878,26.7,18.469,26.7-18.469-26.7-18.469Z" transform="translate(-210.047 -110.277)" fill="#173d7a"/>
      <path id="Trazado_183914" data-name="Trazado 183914" d="M352.107,263.322l-.254-.177-28.479-19.7,28.732-19.877.253.176,28.48,19.7Zm-26.7-19.878,26.7,18.469,26.7-18.469-26.7-18.469Z" transform="translate(-212.509 -108.527)" fill="#173d7a"/>
      <path id="Trazado_183915" data-name="Trazado 183915" d="M382.285,280.745l-.254-.176-28.48-19.7,28.733-19.878,28.733,19.879Zm-26.7-19.877,26.7,18.469,26.7-18.468-26.7-18.47Z" transform="translate(-214.97 -106.776)" fill="#173d7a"/>
      <path id="Trazado_183916" data-name="Trazado 183916" d="M412.461,298.169l-28.732-19.878,28.732-19.877,28.733,19.878Zm-26.7-19.878,26.7,18.47,26.7-18.469-26.7-18.47Z" transform="translate(-217.432 -105.026)" fill="#173d7a"/>
      <path id="Trazado_183917" data-name="Trazado 183917" d="M442.639,315.591l-.253-.176-28.48-19.7,28.732-19.877.254.176,28.48,19.7Zm-26.7-19.878,26.7,18.47,26.7-18.47-26.7-18.469Z" transform="translate(-219.893 -103.275)" fill="#173d7a"/>
      <path id="Trazado_183918" data-name="Trazado 183918" d="M472.817,333.015l-.254-.176-28.479-19.7,28.732-19.877.253.176,28.48,19.7Zm-26.7-19.878,26.7,18.47,26.7-18.47-26.7-18.469Z" transform="translate(-222.355 -101.525)" fill="#173d7a"/>
      <path id="Trazado_183919" data-name="Trazado 183919" d="M502.995,350.438l-.254-.176-28.48-19.7,28.733-19.877,28.733,19.878ZM476.3,330.56l26.7,18.469,26.7-18.468-26.7-18.47Z" transform="translate(-224.817 -99.774)" fill="#173d7a"/>
      <path id="Trazado_183920" data-name="Trazado 183920" d="M533.172,367.86l-.253-.177-28.48-19.7,28.732-19.877.254.177,28.479,19.7Zm-26.7-19.878,26.7,18.469,26.7-18.468-26.7-18.469Z" transform="translate(-227.278 -98.024)" fill="#173d7a"/>
      <path id="Trazado_183921" data-name="Trazado 183921" d="M231.4,228.476l-.253-.176-28.48-19.7L231.4,188.721,260.129,208.6ZM204.7,208.6l26.7,18.47,26.7-18.469-26.7-18.47Z" transform="translate(-202.662 -112.028)" fill="#173d7a"/>
      <path id="Trazado_183922" data-name="Trazado 183922" d="M261.575,245.9l-.254-.176-28.48-19.7,28.733-19.876.254.176,28.48,19.7Zm-26.7-19.878,26.7,18.469,26.7-18.468-26.7-18.469Z" transform="translate(-205.124 -110.277)" fill="#173d7a"/>
      <path id="Trazado_183923" data-name="Trazado 183923" d="M291.752,263.322l-28.733-19.879,28.732-19.876.254.176,28.48,19.7Zm-26.7-19.879,26.7,18.47,26.7-18.469-26.7-18.469Z" transform="translate(-207.585 -108.527)" fill="#173d7a"/>
      <path id="Trazado_183924" data-name="Trazado 183924" d="M321.93,280.745l-.253-.176-28.48-19.7,28.732-19.878.253.176,28.48,19.7Zm-26.7-19.877,26.7,18.469,26.7-18.469-26.7-18.469Z" transform="translate(-210.047 -106.776)" fill="#173d7a"/>
      <path id="Trazado_183925" data-name="Trazado 183925" d="M352.108,298.167l-.254-.176-28.479-19.7,28.732-19.878.253.176,28.48,19.7Zm-26.7-19.877,26.7,18.469,26.7-18.469-26.7-18.469Z" transform="translate(-212.509 -105.026)" fill="#173d7a"/>
      <path id="Trazado_183926" data-name="Trazado 183926" d="M382.285,315.591l-28.733-19.877,28.733-19.878,28.732,19.878Zm-26.7-19.877,26.7,18.469,26.7-18.469-26.7-18.47Z" transform="translate(-214.97 -103.275)" fill="#173d7a"/>
      <path id="Trazado_183927" data-name="Trazado 183927" d="M412.462,333.013l-.254-.176-28.48-19.7,28.732-19.876.254.176,28.479,19.7Zm-26.7-19.878,26.7,18.47,26.7-18.469-26.7-18.469Z" transform="translate(-217.432 -101.525)" fill="#173d7a"/>
      <path id="Trazado_183928" data-name="Trazado 183928" d="M442.64,350.438l-28.733-19.879,28.732-19.876.254.176,28.48,19.7Zm-26.7-19.879,26.7,18.47,26.7-18.469-26.7-18.469Z" transform="translate(-219.893 -99.774)" fill="#173d7a"/>
      <path id="Trazado_183929" data-name="Trazado 183929" d="M472.818,367.86l-.255-.177-28.479-19.7,28.732-19.877.253.176,28.479,19.7Zm-26.7-19.878,26.7,18.469,26.7-18.469-26.7-18.469Z" transform="translate(-222.355 -98.024)" fill="#173d7a"/>
      <path id="Trazado_183930" data-name="Trazado 183930" d="M231.4,263.321l-.254-.177-28.479-19.7L231.4,223.567l.253.176,28.48,19.7Zm-26.7-19.878,26.7,18.469,26.7-18.469-26.7-18.469Z" transform="translate(-202.662 -108.527)" fill="#173d7a"/>
      <path id="Trazado_183931" data-name="Trazado 183931" d="M261.576,280.744l-.254-.176-28.48-19.7,28.733-19.878,28.733,19.879Zm-26.7-19.877,26.7,18.469,26.7-18.468-26.7-18.47Z" transform="translate(-205.124 -106.776)" fill="#173d7a"/>
      <path id="Trazado_183932" data-name="Trazado 183932" d="M291.753,298.167,263.02,278.29l28.732-19.877.254.176,28.48,19.7Zm-26.7-19.878,26.7,18.47,26.7-18.469-26.7-18.469Z" transform="translate(-207.585 -105.026)" fill="#173d7a"/>
      <path id="Trazado_183933" data-name="Trazado 183933" d="M321.931,315.591l-.253-.176-28.48-19.7,28.732-19.878.253.176,28.48,19.7Zm-26.7-19.877,26.7,18.469,26.7-18.469-26.7-18.47Z" transform="translate(-210.047 -103.275)" fill="#173d7a"/>
      <path id="Trazado_183934" data-name="Trazado 183934" d="M352.109,333.014l-.254-.176-28.479-19.7,28.732-19.877,28.732,19.877Zm-26.7-19.878,26.7,18.47,26.7-18.47-26.7-18.469Z" transform="translate(-212.509 -101.525)" fill="#173d7a"/>
      <path id="Trazado_183935" data-name="Trazado 183935" d="M382.286,350.437l-28.733-19.878,28.732-19.877.253.176,28.48,19.7Zm-26.7-19.878,26.7,18.469,26.7-18.469-26.7-18.469Z" transform="translate(-214.97 -99.774)" fill="#173d7a"/>
      <path id="Trazado_183936" data-name="Trazado 183936" d="M412.463,367.859l-.254-.177-28.48-19.7,28.732-19.877L441.2,347.983Zm-26.7-19.878,26.7,18.469,26.7-18.468-26.7-18.47Z" transform="translate(-217.432 -98.024)" fill="#173d7a"/>
      <path id="Trazado_183937" data-name="Trazado 183937" d="M231.4,298.167l-.254-.176-28.479-19.7L231.4,258.412l.253.176,28.48,19.7ZM204.7,278.29l26.7,18.469,26.7-18.469-26.7-18.469Z" transform="translate(-202.662 -105.026)" fill="#173d7a"/>
      <path id="Trazado_183938" data-name="Trazado 183938" d="M261.577,315.589l-.254-.176-28.479-19.7,28.733-19.878,28.733,19.879Zm-26.7-19.877,26.7,18.469,26.7-18.468-26.7-18.471Z" transform="translate(-205.124 -103.275)" fill="#173d7a"/>
      <path id="Trazado_183939" data-name="Trazado 183939" d="M291.754,333.012l-.253-.176-28.48-19.7,28.732-19.876.254.176,28.479,19.7Zm-26.7-19.878,26.7,18.47,26.7-18.469-26.7-18.469Z" transform="translate(-207.585 -101.525)" fill="#173d7a"/>
      <path id="Trazado_183940" data-name="Trazado 183940" d="M321.932,350.437,293.2,330.558l28.732-19.876.254.176,28.48,19.7Zm-26.7-19.879,26.7,18.47,26.7-18.469-26.7-18.469Z" transform="translate(-210.047 -99.774)" fill="#173d7a"/>
      <path id="Trazado_183941" data-name="Trazado 183941" d="M352.109,367.859l-28.732-19.878,28.732-19.877,28.732,19.877Zm-26.7-19.878,26.7,18.469,26.7-18.469-26.7-18.469Z" transform="translate(-212.509 -98.024)" fill="#173d7a"/>
      <path id="Trazado_183942" data-name="Trazado 183942" d="M231.4,333.012l-.254-.176-28.479-19.7L231.4,293.258l.253.176,28.48,19.7Zm-26.7-19.878,26.7,18.47,26.7-18.47-26.7-18.469Z" transform="translate(-202.662 -101.525)" fill="#173d7a"/>
      <path id="Trazado_183943" data-name="Trazado 183943" d="M261.578,350.435l-.254-.176-28.48-19.7,28.733-19.877.254.176,28.48,19.7Zm-26.7-19.878,26.7,18.469,26.7-18.469-26.7-18.469Z" transform="translate(-205.124 -99.774)" fill="#173d7a"/>
      <path id="Trazado_183944" data-name="Trazado 183944" d="M291.755,367.858l-.254-.177-28.48-19.7L291.754,328.1l28.733,19.878Zm-26.7-19.878,26.7,18.469,26.7-18.468-26.7-18.47Z" transform="translate(-207.586 -98.024)" fill="#173d7a"/>
      <path id="Trazado_183945" data-name="Trazado 183945" d="M231.4,367.858l-.254-.177-28.479-19.7L231.4,328.1l.253.176,28.48,19.7Zm-26.7-19.878,26.7,18.469,26.7-18.469-26.7-18.469Z" transform="translate(-202.662 -98.024)" fill="#173d7a"/>
    </g>
    <g id="Grupo_173378" data-name="Grupo 173378" transform="translate(-268.737 5804.485)">
      <g id="Grupo_167989" data-name="Grupo 167989" transform="translate(499.908 326.111)">
        <path id="Trazado_229631" data-name="Trazado 229631" d="M782.335,362.441v-4.565a.926.926,0,0,0-.925-.926H780.3a.807.807,0,0,1-.782-.634,16.781,16.781,0,0,0-2.09-5.062.808.808,0,0,1,.106-1l.782-.782a.926.926,0,0,0,0-1.31l-3.228-3.228a.926.926,0,0,0-1.309,0l-.781.781a.807.807,0,0,1-1,.105,16.758,16.758,0,0,0-5.063-2.092.807.807,0,0,1-.634-.783v-1.109a.926.926,0,0,0-.926-.925H760.8a.926.926,0,0,0-.925.925v1.109a.808.808,0,0,1-.635.783,16.772,16.772,0,0,0-5.064,2.092.808.808,0,0,1-1-.106l-.78-.78a.926.926,0,0,0-1.31,0l-3.228,3.228a.926.926,0,0,0,0,1.31l.781.781a.81.81,0,0,1,.106,1,16.782,16.782,0,0,0-2.091,5.063.807.807,0,0,1-.782.634h-1.112a.926.926,0,0,0-.926.926v4.565a.926.926,0,0,0,.926.926h1.112a.807.807,0,0,1,.783.634,16.782,16.782,0,0,0,2.091,5.062.81.81,0,0,1-.106,1l-.783.782a.926.926,0,0,0,0,1.31l3.228,3.229a.927.927,0,0,0,1.31,0l.782-.783a.808.808,0,0,1,1-.105,16.791,16.791,0,0,0,5.062,2.088.808.808,0,0,1,.634.783v1.116a.926.926,0,0,0,.925.925h4.566a.926.926,0,0,0,.926-.925v-1.117a.809.809,0,0,1,.634-.783,16.771,16.771,0,0,0,5.061-2.088.808.808,0,0,1,1,.106l.783.783a.927.927,0,0,0,1.309,0l3.228-3.229a.926.926,0,0,0,0-1.31l-.782-.782a.808.808,0,0,1-.105-1,16.772,16.772,0,0,0,2.09-5.061.807.807,0,0,1,.783-.634h1.114A.926.926,0,0,0,782.335,362.441ZM762,369.915a9.813,9.813,0,1,1,10.89-9.759A9.84,9.84,0,0,1,762,369.915Z" transform="translate(-528.859 -340.907)" fill="#a4d6ff"/>
        <path id="Trazado_229632" data-name="Trazado 229632" d="M807.522,381.267v-3.2a.648.648,0,0,0-.648-.648h-.779a.568.568,0,0,1-.549-.445,11.73,11.73,0,0,0-1.463-3.545.566.566,0,0,1,.074-.7l.548-.548a.649.649,0,0,0,0-.916L802.442,369a.648.648,0,0,0-.917,0l-.547.548a.566.566,0,0,1-.7.073,11.754,11.754,0,0,0-3.546-1.465.566.566,0,0,1-.445-.548v-.777a.649.649,0,0,0-.648-.648h-3.2a.648.648,0,0,0-.648.648v.777a.566.566,0,0,1-.445.548,11.733,11.733,0,0,0-3.546,1.465.565.565,0,0,1-.7-.074l-.547-.546a.648.648,0,0,0-.917,0l-2.261,2.261a.649.649,0,0,0,0,.916l.547.548a.565.565,0,0,1,.074.7,11.757,11.757,0,0,0-1.464,3.545.566.566,0,0,1-.549.445H781.2a.648.648,0,0,0-.649.648v3.2a.648.648,0,0,0,.649.648h.779a.566.566,0,0,1,.548.444A11.749,11.749,0,0,0,784,385.9a.565.565,0,0,1-.074.7l-.548.548a.65.65,0,0,0,0,.917l2.261,2.261a.648.648,0,0,0,.917,0l.549-.548a.566.566,0,0,1,.7-.074,11.731,11.731,0,0,0,3.544,1.463.566.566,0,0,1,.445.548v.782a.648.648,0,0,0,.648.648h3.2a.649.649,0,0,0,.648-.648v-.782a.566.566,0,0,1,.445-.548,11.771,11.771,0,0,0,3.544-1.463.567.567,0,0,1,.7.074l.548.548a.647.647,0,0,0,.917,0l2.262-2.261a.65.65,0,0,0,0-.917l-.548-.548a.567.567,0,0,1-.074-.7,11.747,11.747,0,0,0,1.464-3.545.565.565,0,0,1,.549-.444h.78A.648.648,0,0,0,807.522,381.267ZM793.28,386.5a6.873,6.873,0,1,1,7.628-6.834A6.891,6.891,0,0,1,793.28,386.5Z" transform="translate(-532.78 -343.605)" fill="#a4d6ff"/>
        <path id="Trazado_229633" data-name="Trazado 229633" d="M811.9,465.489v-2.206a.448.448,0,0,0-.448-.448h-.538a.39.39,0,0,1-.379-.306,8.105,8.105,0,0,0-1.009-2.446.39.39,0,0,1,.051-.484l.378-.378a.448.448,0,0,0,0-.632l-1.56-1.56a.449.449,0,0,0-.633,0l-.377.378a.391.391,0,0,1-.484.051,8.115,8.115,0,0,0-2.447-1.011.39.39,0,0,1-.306-.379v-.536a.448.448,0,0,0-.447-.447H801.49a.448.448,0,0,0-.448.447v.536a.39.39,0,0,1-.306.379,8.115,8.115,0,0,0-2.447,1.01.39.39,0,0,1-.484-.051l-.377-.377a.449.449,0,0,0-.633,0l-1.56,1.56a.448.448,0,0,0,0,.632l.378.377a.392.392,0,0,1,.051.485,8.075,8.075,0,0,0-1.01,2.446.389.389,0,0,1-.379.306h-.537a.448.448,0,0,0-.448.448v2.206a.447.447,0,0,0,.448.448h.538a.39.39,0,0,1,.378.306,8.123,8.123,0,0,0,1.01,2.446.39.39,0,0,1-.051.484l-.378.378a.449.449,0,0,0,0,.633l1.56,1.56a.448.448,0,0,0,.633,0l.378-.378a.39.39,0,0,1,.484-.052,8.111,8.111,0,0,0,2.446,1.009.39.39,0,0,1,.306.379v.539a.448.448,0,0,0,.448.448H803.7a.447.447,0,0,0,.447-.448v-.54a.39.39,0,0,1,.306-.378,8.094,8.094,0,0,0,2.445-1.009.392.392,0,0,1,.485.051l.378.379a.448.448,0,0,0,.633,0l1.56-1.56a.449.449,0,0,0,0-.633l-.379-.378a.391.391,0,0,1-.051-.484,8.1,8.1,0,0,0,1.01-2.446.39.39,0,0,1,.378-.306h.539A.447.447,0,0,0,811.9,465.489ZM802.07,469.1a4.742,4.742,0,1,1,5.262-4.716A4.755,4.755,0,0,1,802.07,469.1Z" transform="translate(-534.139 -353.095)" fill="#a4d6ff"/>
        <path id="Trazado_229634" data-name="Trazado 229634" d="M536.844,385.6V381.61a.81.81,0,0,0-.81-.81h-.973a.706.706,0,0,1-.685-.555,14.652,14.652,0,0,0-1.828-4.427.708.708,0,0,1,.093-.877l.683-.683a.81.81,0,0,0,0-1.145l-2.823-2.824a.81.81,0,0,0-1.145,0l-.683.682a.707.707,0,0,1-.877.092,14.673,14.673,0,0,0-4.428-1.829.707.707,0,0,1-.555-.685v-.97a.81.81,0,0,0-.809-.81H518.01a.809.809,0,0,0-.809.81v.97a.707.707,0,0,1-.556.685,14.655,14.655,0,0,0-4.429,1.829.706.706,0,0,1-.876-.092l-.682-.682a.81.81,0,0,0-1.145,0l-2.824,2.824a.81.81,0,0,0,0,1.145l.683.682a.707.707,0,0,1,.092.877,14.678,14.678,0,0,0-1.828,4.428.707.707,0,0,1-.685.555h-.973a.81.81,0,0,0-.809.81V385.6a.81.81,0,0,0,.809.81h.973a.706.706,0,0,1,.685.555,14.7,14.7,0,0,0,1.828,4.427.706.706,0,0,1-.092.876l-.684.684a.81.81,0,0,0,0,1.145l2.824,2.824a.81.81,0,0,0,1.145,0l.684-.684a.708.708,0,0,1,.877-.093,14.659,14.659,0,0,0,4.426,1.827.707.707,0,0,1,.556.685v.975a.809.809,0,0,0,.809.81H522a.81.81,0,0,0,.809-.81v-.976a.706.706,0,0,1,.556-.684,14.686,14.686,0,0,0,4.425-1.827.707.707,0,0,1,.877.092l.685.685a.81.81,0,0,0,1.145,0l2.823-2.824a.81.81,0,0,0,0-1.145l-.684-.684a.707.707,0,0,1-.092-.877,14.662,14.662,0,0,0,1.828-4.426.706.706,0,0,1,.685-.555h.974A.81.81,0,0,0,536.844,385.6Zm-17.785,6.536a8.582,8.582,0,1,1,9.525-8.534A8.606,8.606,0,0,1,519.059,392.139Z" transform="translate(-503.169 -343.668)" fill="#a4d6ff"/>
      </g>
      <path id="Trazado_229635" data-name="Trazado 229635" d="M529.794,513.771a15.766,15.766,0,0,0-8.09,2.223,16.966,16.966,0,0,0-33.722,3.77,12.956,12.956,0,1,0-2.4,25.687h44.213a15.84,15.84,0,0,0,0-31.679Z" transform="translate(0 -45.166)" fill="#a4d6ff"/>
      <path id="Trazado_229636" data-name="Trazado 229636" d="M612.518,572.674a10.3,10.3,0,0,0-5.292,1.454,11.1,11.1,0,0,0-22.128,1.25,11.36,11.36,0,0,0,.067,1.216,8.581,8.581,0,0,0-1.57-.147,8.476,8.476,0,0,0,0,16.952h28.923a10.362,10.362,0,1,0,0-20.724Z" transform="translate(-10.941 -57.574)" fill="#a4d6ff"/>
      <g id="Grupo_168007" data-name="Grupo 168007" transform="translate(516.745 313.398)">
        <g id="Grupo_168005" data-name="Grupo 168005" transform="translate(0 35.797)">
          <g id="Grupo_167991" data-name="Grupo 167991">
            <g id="Grupo_167990" data-name="Grupo 167990">
              <rect id="Rectángulo_49825" data-name="Rectángulo 49825" width="33.64" height="23.135" transform="translate(92.539 142.287)" fill="#5d95e8"/>
              <path id="Trazado_229637" data-name="Trazado 229637" d="M659.255,527.042l-33.64-3.33v-7.178h33.64Z" transform="translate(-533.077 -374.247)" fill="#4887d3"/>
              <path id="Trazado_229638" data-name="Trazado 229638" d="M674.039,542.027H605.758a3.9,3.9,0,0,0-3.9,3.905v3.9h76.09v-3.9A3.9,3.9,0,0,0,674.039,542.027Z" transform="translate(-530.54 -376.969)" fill="#4087dd"/>
              <path id="Trazado_229639" data-name="Trazado 229639" d="M736.63,357.243H526.122a4.1,4.1,0,0,0-4.1,4.1V500.363a4.1,4.1,0,0,0,4.1,4.1H736.63a4.1,4.1,0,0,0,4.1-4.1V361.347a4.1,4.1,0,0,0-4.1-4.1Z" transform="translate(-522.018 -357.243)" fill="#457cdd"/>
              <rect id="Rectángulo_49826" data-name="Rectángulo 49826" width="211.876" height="126.459" rx="2.49" transform="translate(3.421 4.104)" fill="#274f89"/>
              <path id="Trazado_229640" data-name="Trazado 229640" d="M648.022,511.649a4.062,4.062,0,1,1-4.062-4.062A4.062,4.062,0,0,1,648.022,511.649Z" transform="translate(-534.602 -373.292)" fill="#a0c8ef"/>
            </g>
          </g>
          <rect id="Rectángulo_49827" data-name="Rectángulo 49827" width="197.806" height="114.306" rx="2.274" transform="translate(10.285 10.18)" fill="#9dd2f2"/>
          <rect id="Rectángulo_49828" data-name="Rectángulo 49828" width="187.832" height="106.436" rx="1.967" transform="translate(15.271 14.115)" fill="#fff"/>
          <circle id="Elipse_11528" data-name="Elipse 11528" cx="3.015" cy="3.015" r="3.015" transform="translate(170.165 16.54)" fill="#9dd2f2"/>
          <circle id="Elipse_11529" data-name="Elipse 11529" cx="3.015" cy="3.015" r="3.015" transform="translate(181.777 16.54)" fill="#9dd2f2"/>
          <circle id="Elipse_11530" data-name="Elipse 11530" cx="3.015" cy="3.015" r="3.015" transform="translate(193.39 16.54)" fill="#9dd2f2"/>
          <line id="Línea_2053" data-name="Línea 2053" x1="180.772" transform="translate(18.648 25.347)" fill="none" stroke="#9dd2f2" stroke-linecap="round" stroke-miterlimit="10" stroke-width="1"/>
          <rect id="Rectángulo_49829" data-name="Rectángulo 49829" width="37.266" height="88.134" rx="1.375" transform="translate(18.648 29.429)" fill="#9dd2f2" opacity="0.46"/>
          <rect id="Rectángulo_49830" data-name="Rectángulo 49830" width="141.189" height="88.134" rx="1.375" transform="translate(58.844 29.429)" fill="#9dd2f2" opacity="0.46"/>
          <g id="Grupo_168002" data-name="Grupo 168002" transform="translate(58.844 29.429)" opacity="0.62">
            <g id="Grupo_168001" data-name="Grupo 168001" clip-path="url(#clip-path)">
              <g id="Grupo_167992" data-name="Grupo 167992" transform="translate(8.381 6.62)">
                <path id="Trazado_229641" data-name="Trazado 229641" d="M618.018,399.476v.382a1.8,1.8,0,0,1-1.8,1.8H603.294a1.8,1.8,0,0,0-1.8,1.8v17.569a1.8,1.8,0,0,0,1.8,1.8h26.321a1.8,1.8,0,0,0,1.8-1.8V399.476a1.876,1.876,0,0,0-1.876-1.876h-9.645A1.876,1.876,0,0,0,618.018,399.476Z" transform="translate(-597.727 -397.6)" fill="#5699e8"/>
                <path id="Trazado_229642" data-name="Trazado 229642" d="M626.6,422.221l-.143-.549h0l-2.977-11.43a2.454,2.454,0,0,0-2.374-1.836H598.448a1.17,1.17,0,0,0-1.133,1.466l3.141,12.056a2.745,2.745,0,0,0,2.656,2.054h25.91A2.459,2.459,0,0,1,626.6,422.221Z" transform="translate(-597.277 -398.754)" fill="#71b8ff"/>
              </g>
              <g id="Grupo_167993" data-name="Grupo 167993" transform="translate(52.374 6.62)">
                <path id="Trazado_229643" data-name="Trazado 229643" d="M667.268,399.476v.382a1.8,1.8,0,0,1-1.8,1.8H652.544a1.8,1.8,0,0,0-1.8,1.8v17.569a1.8,1.8,0,0,0,1.8,1.8h26.321a1.8,1.8,0,0,0,1.8-1.8V399.476a1.876,1.876,0,0,0-1.876-1.876h-9.645A1.876,1.876,0,0,0,667.268,399.476Z" transform="translate(-646.977 -397.6)" fill="#5699e8"/>
                <path id="Trazado_229644" data-name="Trazado 229644" d="M675.852,422.221l-.143-.549h0l-2.977-11.43a2.454,2.454,0,0,0-2.374-1.836H647.7a1.17,1.17,0,0,0-1.133,1.466l3.141,12.056a2.745,2.745,0,0,0,2.657,2.054h25.91A2.459,2.459,0,0,1,675.852,422.221Z" transform="translate(-646.527 -398.754)" fill="#71b8ff"/>
              </g>
              <g id="Grupo_167994" data-name="Grupo 167994" transform="translate(96.366 6.62)">
                <path id="Trazado_229645" data-name="Trazado 229645" d="M716.518,399.476v.382a1.8,1.8,0,0,1-1.8,1.8H701.794a1.8,1.8,0,0,0-1.8,1.8v17.569a1.8,1.8,0,0,0,1.8,1.8h26.321a1.8,1.8,0,0,0,1.8-1.8V399.476a1.876,1.876,0,0,0-1.876-1.876h-9.645A1.876,1.876,0,0,0,716.518,399.476Z" transform="translate(-696.227 -397.6)" fill="#5699e8"/>
                <path id="Trazado_229646" data-name="Trazado 229646" d="M725.1,422.221l-.143-.549h0l-2.977-11.43a2.454,2.454,0,0,0-2.374-1.836H696.948a1.17,1.17,0,0,0-1.133,1.466l3.141,12.056a2.745,2.745,0,0,0,2.656,2.054h25.91A2.459,2.459,0,0,1,725.1,422.221Z" transform="translate(-695.777 -398.754)" fill="#71b8ff"/>
              </g>
              <g id="Grupo_167995" data-name="Grupo 167995" transform="translate(8.381 40.643)">
                <path id="Trazado_229647" data-name="Trazado 229647" d="M618.018,437.564v.383a1.8,1.8,0,0,1-1.8,1.8H603.294a1.8,1.8,0,0,0-1.8,1.8v17.57a1.8,1.8,0,0,0,1.8,1.8h26.321a1.8,1.8,0,0,0,1.8-1.8V437.564a1.875,1.875,0,0,0-1.876-1.875h-9.645A1.875,1.875,0,0,0,618.018,437.564Z" transform="translate(-597.727 -435.689)" fill="#5699e8"/>
                <path id="Trazado_229648" data-name="Trazado 229648" d="M626.6,460.31l-.143-.549h0l-2.977-11.43a2.453,2.453,0,0,0-2.374-1.835H598.448a1.17,1.17,0,0,0-1.133,1.466l3.141,12.055a2.745,2.745,0,0,0,2.656,2.054h25.91A2.458,2.458,0,0,1,626.6,460.31Z" transform="translate(-597.277 -436.842)" fill="#71b8ff"/>
              </g>
              <g id="Grupo_167996" data-name="Grupo 167996" transform="translate(52.374 40.643)">
                <path id="Trazado_229649" data-name="Trazado 229649" d="M667.268,437.564v.383a1.8,1.8,0,0,1-1.8,1.8H652.544a1.8,1.8,0,0,0-1.8,1.8v17.57a1.8,1.8,0,0,0,1.8,1.8h26.321a1.8,1.8,0,0,0,1.8-1.8V437.564a1.875,1.875,0,0,0-1.876-1.875h-9.645A1.875,1.875,0,0,0,667.268,437.564Z" transform="translate(-646.977 -435.689)" fill="#5699e8"/>
                <path id="Trazado_229650" data-name="Trazado 229650" d="M675.852,460.31l-.143-.549h0l-2.977-11.43a2.453,2.453,0,0,0-2.374-1.835H647.7a1.17,1.17,0,0,0-1.133,1.466l3.141,12.055a2.745,2.745,0,0,0,2.657,2.054h25.91A2.458,2.458,0,0,1,675.852,460.31Z" transform="translate(-646.527 -436.842)" fill="#71b8ff"/>
              </g>
              <g id="Grupo_167997" data-name="Grupo 167997" transform="translate(96.366 40.643)">
                <path id="Trazado_229651" data-name="Trazado 229651" d="M716.518,437.564v.383a1.8,1.8,0,0,1-1.8,1.8H701.794a1.8,1.8,0,0,0-1.8,1.8v17.57a1.8,1.8,0,0,0,1.8,1.8h26.321a1.8,1.8,0,0,0,1.8-1.8V437.564a1.875,1.875,0,0,0-1.876-1.875h-9.645A1.875,1.875,0,0,0,716.518,437.564Z" transform="translate(-696.227 -435.689)" fill="#5699e8"/>
                <path id="Trazado_229652" data-name="Trazado 229652" d="M725.1,460.31l-.143-.549h0l-2.977-11.43a2.453,2.453,0,0,0-2.374-1.835H696.948a1.17,1.17,0,0,0-1.133,1.466l3.141,12.055a2.745,2.745,0,0,0,2.656,2.054h25.91A2.458,2.458,0,0,1,725.1,460.31Z" transform="translate(-695.777 -436.842)" fill="#71b8ff"/>
              </g>
              <g id="Grupo_167998" data-name="Grupo 167998" transform="translate(8.381 74.665)">
                <path id="Trazado_229653" data-name="Trazado 229653" d="M618.018,475.653v.382a1.8,1.8,0,0,1-1.8,1.8H603.294a1.8,1.8,0,0,0-1.8,1.8V497.2a1.8,1.8,0,0,0,1.8,1.8h26.321a1.8,1.8,0,0,0,1.8-1.8V475.653a1.876,1.876,0,0,0-1.876-1.876h-9.645A1.876,1.876,0,0,0,618.018,475.653Z" transform="translate(-597.727 -473.777)" fill="#5699e8"/>
                <path id="Trazado_229654" data-name="Trazado 229654" d="M626.6,498.4l-.143-.549h0l-2.977-11.43a2.454,2.454,0,0,0-2.374-1.836H598.448a1.17,1.17,0,0,0-1.133,1.466l3.141,12.056a2.745,2.745,0,0,0,2.656,2.054h25.91A2.459,2.459,0,0,1,626.6,498.4Z" transform="translate(-597.277 -474.93)" fill="#71b8ff"/>
              </g>
              <g id="Grupo_167999" data-name="Grupo 167999" transform="translate(52.374 74.665)">
                <path id="Trazado_229655" data-name="Trazado 229655" d="M667.268,475.653v.382a1.8,1.8,0,0,1-1.8,1.8H652.544a1.8,1.8,0,0,0-1.8,1.8V497.2a1.8,1.8,0,0,0,1.8,1.8h26.321a1.8,1.8,0,0,0,1.8-1.8V475.653a1.876,1.876,0,0,0-1.876-1.876h-9.645A1.876,1.876,0,0,0,667.268,475.653Z" transform="translate(-646.977 -473.777)" fill="#5699e8"/>
                <path id="Trazado_229656" data-name="Trazado 229656" d="M675.852,498.4l-.143-.549h0l-2.977-11.43a2.454,2.454,0,0,0-2.374-1.836H647.7a1.17,1.17,0,0,0-1.133,1.466l3.141,12.056a2.745,2.745,0,0,0,2.657,2.054h25.91A2.459,2.459,0,0,1,675.852,498.4Z" transform="translate(-646.527 -474.93)" fill="#71b8ff"/>
              </g>
              <g id="Grupo_168000" data-name="Grupo 168000" transform="translate(96.366 74.665)">
                <path id="Trazado_229657" data-name="Trazado 229657" d="M716.518,475.653v.382a1.8,1.8,0,0,1-1.8,1.8H701.794a1.8,1.8,0,0,0-1.8,1.8V497.2a1.8,1.8,0,0,0,1.8,1.8h26.321a1.8,1.8,0,0,0,1.8-1.8V475.653a1.876,1.876,0,0,0-1.876-1.876h-9.645A1.876,1.876,0,0,0,716.518,475.653Z" transform="translate(-696.227 -473.777)" fill="#5699e8"/>
                <path id="Trazado_229658" data-name="Trazado 229658" d="M725.1,498.4l-.143-.549h0l-2.977-11.43a2.454,2.454,0,0,0-2.374-1.836H696.948a1.17,1.17,0,0,0-1.133,1.466l3.141,12.056a2.745,2.745,0,0,0,2.656,2.054h25.91A2.459,2.459,0,0,1,725.1,498.4Z" transform="translate(-695.777 -474.93)" fill="#71b8ff"/>
              </g>
            </g>
          </g>
          <g id="Grupo_168003" data-name="Grupo 168003" transform="translate(196.442 30.806)">
            <rect id="Rectángulo_49832" data-name="Rectángulo 49832" width="2.308" height="85.417" rx="0.485" fill="#fff"/>
            <rect id="Rectángulo_49833" data-name="Rectángulo 49833" width="2.308" height="13.734" rx="0.542" transform="translate(0 17.753)" fill="#93c3db"/>
          </g>
          <g id="Grupo_168004" data-name="Grupo 168004" transform="translate(21.146 32.22)">
            <rect id="Rectángulo_49834" data-name="Rectángulo 49834" width="2.308" height="32.269" rx="0.325" transform="translate(32.269 0) rotate(90)" fill="#fff"/>
            <rect id="Rectángulo_49835" data-name="Rectángulo 49835" width="2.308" height="32.269" rx="0.325" transform="translate(32.269 4.466) rotate(90)" fill="#fff"/>
            <rect id="Rectángulo_49836" data-name="Rectángulo 49836" width="2.308" height="32.269" rx="0.325" transform="translate(32.269 8.933) rotate(90)" fill="#fff"/>
            <rect id="Rectángulo_49837" data-name="Rectángulo 49837" width="2.308" height="32.269" rx="0.325" transform="translate(32.269 13.399) rotate(90)" fill="#fff"/>
            <rect id="Rectángulo_49838" data-name="Rectángulo 49838" width="2.308" height="32.269" rx="0.325" transform="translate(32.269 17.865) rotate(90)" fill="#fff"/>
            <rect id="Rectángulo_49839" data-name="Rectángulo 49839" width="2.308" height="32.269" rx="0.325" transform="translate(32.269 22.331) rotate(90)" fill="#fff"/>
            <rect id="Rectángulo_49840" data-name="Rectángulo 49840" width="2.308" height="32.269" rx="0.325" transform="translate(32.269 26.798) rotate(90)" fill="#fff"/>
            <rect id="Rectángulo_49841" data-name="Rectángulo 49841" width="2.308" height="32.269" rx="0.325" transform="translate(32.269 31.264) rotate(90)" fill="#fff"/>
            <rect id="Rectángulo_49842" data-name="Rectángulo 49842" width="2.308" height="32.269" rx="0.325" transform="translate(32.269 35.73) rotate(90)" fill="#fff"/>
            <rect id="Rectángulo_49843" data-name="Rectángulo 49843" width="2.308" height="32.269" rx="0.325" transform="translate(32.269 40.196) rotate(90)" fill="#fff"/>
            <rect id="Rectángulo_49844" data-name="Rectángulo 49844" width="2.308" height="32.269" rx="0.325" transform="translate(32.269 44.663) rotate(90)" fill="#fff"/>
            <rect id="Rectángulo_49845" data-name="Rectángulo 49845" width="2.308" height="32.269" rx="0.325" transform="translate(32.269 49.129) rotate(90)" fill="#fff"/>
            <rect id="Rectángulo_49846" data-name="Rectángulo 49846" width="2.308" height="32.269" rx="0.325" transform="translate(32.269 53.595) rotate(90)" fill="#fff"/>
            <rect id="Rectángulo_49847" data-name="Rectángulo 49847" width="2.308" height="32.269" rx="0.325" transform="translate(32.269 58.061) rotate(90)" fill="#fff"/>
            <rect id="Rectángulo_49848" data-name="Rectángulo 49848" width="2.308" height="32.269" rx="0.325" transform="translate(32.269 62.528) rotate(90)" fill="#fff"/>
            <rect id="Rectángulo_49849" data-name="Rectángulo 49849" width="2.308" height="32.269" rx="0.325" transform="translate(32.269 66.994) rotate(90)" fill="#fff"/>
            <rect id="Rectángulo_49850" data-name="Rectángulo 49850" width="2.308" height="32.269" rx="0.325" transform="translate(32.269 71.46) rotate(90)" fill="#fff"/>
            <rect id="Rectángulo_49851" data-name="Rectángulo 49851" width="2.308" height="32.269" rx="0.325" transform="translate(32.269 75.926) rotate(90)" fill="#fff"/>
            <rect id="Rectángulo_49852" data-name="Rectángulo 49852" width="2.308" height="32.269" rx="0.325" transform="translate(32.269 80.393) rotate(90)" fill="#fff"/>
          </g>
        </g>
        <g id="Grupo_168006" data-name="Grupo 168006" transform="translate(50.505)">
          <path id="Trazado_229659" data-name="Trazado 229659" d="M696.264,348.233a8.39,8.39,0,0,0-7.11-8.224h0c-27.789-4.106-41.927-15.867-46.716-20.732a7.044,7.044,0,0,0-10.051,0c-4.79,4.866-18.929,16.627-46.717,20.732a8.39,8.39,0,0,0-7.11,8.224c-.027,8.153.694,29.3,7.954,49.522,9.189,25.6,25.258,41.048,47.761,45.926a14.941,14.941,0,0,0,6.275,0c22.5-4.878,38.571-20.33,47.76-45.926C695.569,377.531,696.291,356.385,696.264,348.233Z" transform="translate(-578.558 -317.168)" fill="#0a3d75"/>
          <path id="Trazado_229660" data-name="Trazado 229660" d="M640.214,440.585a11.044,11.044,0,0,1-4.748,0c-49.792-10.794-52.929-74.89-52.87-91.91a4.731,4.731,0,0,1,4.033-4.669c28.589-4.225,43.356-16.281,48.758-21.769a3.433,3.433,0,0,1,4.91,0c5.4,5.487,20.17,17.543,48.759,21.769a4.731,4.731,0,0,1,4.032,4.669C693.144,365.695,690.012,429.791,640.214,440.585Z" transform="translate(-578.989 -317.599)" fill="#054ca4"/>
          <circle id="Elipse_11531" data-name="Elipse 11531" cx="25.378" cy="25.378" r="25.378" transform="matrix(0.927, -0.376, 0.376, 0.927, 25.794, 47.175)" fill="#1b85bf" style="mix-blend-mode: color-dodge;isolation: isolate"/>
          <path id="Trazado_229661" data-name="Trazado 229661" d="M646.816,440.585a10.89,10.89,0,0,1-2.374.258V321.2a3.43,3.43,0,0,1,2.458,1.033c5.4,5.487,20.17,17.543,48.759,21.769a4.731,4.731,0,0,1,4.032,4.669C699.746,365.695,696.614,429.791,646.816,440.585Z" transform="translate(-585.591 -317.599)" fill="url(#linear-gradient)" style="mix-blend-mode: screen;isolation: isolate"/>
          <path id="Trazado_229662" data-name="Trazado 229662" d="M637.843,323.008a1.631,1.631,0,0,1,1.17.493c5.171,5.254,20.374,17.944,49.78,22.29a2.945,2.945,0,0,1,2.493,2.891c.026,7.867-.665,28.261-7.636,47.676-8.516,23.724-23.258,38.012-43.816,42.469a9.437,9.437,0,0,1-3.984,0c-20.558-4.456-35.3-18.745-43.816-42.469-6.97-19.415-7.662-39.809-7.635-47.676a2.945,2.945,0,0,1,2.492-2.891c29.406-4.346,44.609-17.036,49.781-22.29a1.63,1.63,0,0,1,1.17-.493m0-1.8a3.436,3.436,0,0,0-2.456,1.031c-5.4,5.488-20.17,17.546-48.759,21.771a4.732,4.732,0,0,0-4.032,4.669c-.056,17.021,3.076,81.117,52.872,91.912a11.233,11.233,0,0,0,4.748,0c49.8-10.795,52.93-74.891,52.872-91.912a4.732,4.732,0,0,0-4.031-4.669c-28.589-4.225-43.358-16.283-48.76-21.771a3.434,3.434,0,0,0-2.455-1.031Z" transform="translate(-578.989 -317.599)" fill="#3b75a8"/>
          <path id="Trazado_229663" data-name="Trazado 229663" d="M622.137,379.779s11.939.523,19.924,9.729c0,0,7.021-15.085,27.626-24.141,0,0-22.765,16.595-27.622,38.1C642.065,403.466,637.156,388.115,622.137,379.779Z" transform="translate(-583.21 -322.313)" fill="#1b85bf" style="mix-blend-mode: color-dodge;isolation: isolate"/>
        </g>
      </g>
      <g id="Grupo_168009" data-name="Grupo 168009" transform="translate(714.88 281.855)">
        <path id="Trazado_229664" data-name="Trazado 229664" d="M784.957,285.574v.758a3.567,3.567,0,0,1-3.567,3.568H755.762a3.57,3.57,0,0,0-3.57,3.569v34.412a4,4,0,0,0,4,3.995h51.765a3.569,3.569,0,0,0,3.569-3.569V285.574a3.719,3.719,0,0,0-3.719-3.719H788.677A3.719,3.719,0,0,0,784.957,285.574Z" transform="translate(-744.724 -281.855)" fill="#5699e8"/>
        <path id="Trazado_229665" data-name="Trazado 229665" d="M807.316,333.185h-48.81l-9.571-36.948a1.7,1.7,0,0,1,1.648-2.13H794.2a3.865,3.865,0,0,1,3.741,2.9Z" transform="translate(-744.37 -283.163)" fill="#ebf3ff"/>
        <path id="Trazado_229666" data-name="Trazado 229666" d="M803.756,333.567h-48.5l-8.788-33.928a1.563,1.563,0,0,1,1.513-1.956h43.729a3.548,3.548,0,0,1,3.435,2.659Z" transform="translate(-744.108 -283.545)" fill="#fff"/>
        <path id="Trazado_229667" data-name="Trazado 229667" d="M801.978,330.674l-.283-1.09h0l-5.9-22.663a4.866,4.866,0,0,0-4.708-3.638H746.154a2.32,2.32,0,0,0-2.246,2.906l6.227,23.905a5.444,5.444,0,0,0,5.268,4.071h51.374A4.878,4.878,0,0,1,801.978,330.674Z" transform="translate(-743.832 -284.142)" fill="#71b8ff"/>
        <g id="Grupo_168008" data-name="Grupo 168008" transform="translate(20.052 23.554)">
          <path id="Trazado_229668" data-name="Trazado 229668" d="M781.79,317.164h-.2v-2.247a6.691,6.691,0,1,0-13.382,0v2.247h-.045a1.877,1.877,0,0,0-1.878,1.878v8.472a1.877,1.877,0,0,0,1.878,1.878H781.79a1.877,1.877,0,0,0,1.878-1.878v-8.472A1.877,1.877,0,0,0,781.79,317.164ZM769.9,314.916a5,5,0,0,1,9.994,0v2.247H769.9Z" transform="translate(-766.28 -308.224)" fill="#fff"/>
          <path id="Trazado_229669" data-name="Trazado 229669" d="M777.958,322.846a2.184,2.184,0,1,0-3.285,1.883.391.391,0,0,1,.2.438l-.38,1.4a1.311,1.311,0,1,0,2.531,0l-.376-1.387a.393.393,0,0,1,.2-.442A2.174,2.174,0,0,0,777.958,322.846Z" transform="translate(-767.06 -309.552)" fill="#71b8ff"/>
        </g>
      </g>
      <g id="Grupo_168011" data-name="Grupo 168011" transform="translate(703.153 437.287)">
        <path id="Trazado_229670" data-name="Trazado 229670" d="M812.216,498.017a22.471,22.471,0,0,0-11.535,3.168,24.191,24.191,0,0,0-48.229,2.724,24.475,24.475,0,0,0,.147,2.649,18.473,18.473,0,1,0-3.423,36.626h63.04a22.584,22.584,0,1,0,0-45.168Z" transform="translate(-730.703 -479.717)" fill="#fff"/>
        <g id="Grupo_168010" data-name="Grupo 168010" transform="translate(41.198 20.689)">
          <path id="Trazado_229671" data-name="Trazado 229671" d="M796.182,514.037h-.255v-2.806a8.351,8.351,0,1,0-16.7,0v2.806h-.056a2.343,2.343,0,0,0-2.344,2.343v10.573a2.344,2.344,0,0,0,2.344,2.344h17.014a2.344,2.344,0,0,0,2.344-2.344V516.38A2.343,2.343,0,0,0,796.182,514.037Zm-14.842-2.806a6.236,6.236,0,1,1,12.472,0v2.806H781.339Z" transform="translate(-776.824 -502.879)" fill="#71b8ff"/>
          <path id="Trazado_229672" data-name="Trazado 229672" d="M791.4,521.128a2.726,2.726,0,1,0-4.1,2.349.49.49,0,0,1,.247.547l-.474,1.751a1.637,1.637,0,1,0,3.159,0l-.469-1.732a.491.491,0,0,1,.254-.551A2.713,2.713,0,0,0,791.4,521.128Z" transform="translate(-777.798 -504.536)" fill="#fff"/>
        </g>
        <path id="Trazado_229673" data-name="Trazado 229673" d="M797.521,536.365H777.829a1,1,0,0,1-1-1h0a1,1,0,0,1,1-1.005h19.692a1,1,0,0,1,1,1.005h0A1,1,0,0,1,797.521,536.365Z" transform="translate(-735.626 -485.549)" fill="#71b8ff"/>
        <path id="Trazado_229674" data-name="Trazado 229674" d="M797.521,540.178H777.829a1,1,0,0,1-1-1h0a1,1,0,0,1,1-1h19.692a1,1,0,0,1,1,1h0A1,1,0,0,1,797.521,540.178Z" transform="translate(-735.626 -485.957)" fill="#71b8ff"/>
      </g>
      <path id="Trazado_229675" data-name="Trazado 229675" d="M721.395,303.14a9.491,9.491,0,0,0-10.686,6.046,1.018,1.018,0,0,1-.947.688H680.116a.376.376,0,0,0-.376.376v4.426a.377.377,0,0,0,.376.377h1.428a.572.572,0,0,1,.573.572v2.121a.3.3,0,0,1-.3.3h-1.772a.3.3,0,0,0-.3.3v1.1a.3.3,0,0,0,.3.3h7.6a.3.3,0,0,0,.3-.3v-1.1a.3.3,0,0,0-.3-.3h-1.773a.3.3,0,0,1-.3-.3v-2.121a.572.572,0,0,1,.573-.572h2.484a.572.572,0,0,1,.573.572V319.5a.251.251,0,0,0,.25.251h4.126a.251.251,0,0,0,.25-.251v-3.871a.572.572,0,0,1,.573-.572h15.37a1.017,1.017,0,0,1,.947.687,9.488,9.488,0,1,0,10.686-12.6Zm-1.79,13.782a4.459,4.459,0,1,1,4.459-4.459A4.46,4.46,0,0,1,719.6,316.922Z" transform="translate(-22.109 -2.255)" fill="#71b8ff"/>
      <g id="Grupo_168013" data-name="Grupo 168013" transform="translate(503.66 310.727)">
        <path id="Trazado_229676" data-name="Trazado 229676" d="M769.619,430.9h14.319a2.968,2.968,0,0,1,2.968,2.967v38.866" transform="translate(-535.364 -339.62)" fill="none" stroke="#457cdd" stroke-linecap="round" stroke-linejoin="round" stroke-width="1" stroke-dasharray="2 3"/>
        <path id="Trazado_229677" data-name="Trazado 229677" d="M507.369,497.273V484.246a2.307,2.307,0,0,1,2.307-2.307h8.188" transform="translate(-507.369 -348.742)" fill="none" stroke="#457cdd" stroke-linecap="round" stroke-linejoin="round" stroke-width="1" stroke-dasharray="2 3"/>
        <path id="Trazado_229678" data-name="Trazado 229678" d="M790.619,436.711h29.169a2.874,2.874,0,0,0,2.875-2.874V316.265a2.089,2.089,0,0,0-2.089-2.088h-3.158" transform="translate(-537.606 -314.177)" fill="none" stroke="#457cdd" stroke-linecap="round" stroke-linejoin="round" stroke-width="1" stroke-dasharray="2 3"/>
        <path id="Trazado_229679" data-name="Trazado 229679" d="M723.1,326.328v19.245a2.845,2.845,0,0,1-2.844,2.844h-7.741" transform="translate(-529.269 -315.474)" fill="none" stroke="#457cdd" stroke-linecap="round" stroke-linejoin="round" stroke-width="1" stroke-dasharray="2 3"/>
        <path id="Trazado_229680" data-name="Trazado 229680" d="M598.341,594.911v3.3a3.848,3.848,0,0,0,3.848,3.848H764.674a3.848,3.848,0,0,0,3.848-3.848V556" transform="translate(-517.08 -367.416)" fill="none" stroke="#457cdd" stroke-linecap="round" stroke-linejoin="round" stroke-width="1" stroke-dasharray="2 3"/>
      </g>
      <g id="Grupo_168020" data-name="Grupo 168020" transform="translate(496.283 374.643)">
        <g id="Grupo_168014" data-name="Grupo 168014" transform="translate(15.942 64.591)">
          <path id="Trazado_229681" data-name="Trazado 229681" d="M548.144,489.458l0-.022Z" transform="translate(-520.286 -488.818)" fill="#29394a"/>
          <path id="Trazado_229682" data-name="Trazado 229682" d="M548.932,530.461c-1.585-24.933-4.04-40.593-4.117-41.076.024.177.036,1.386-4.2,1.148-5.787-.325-14.578-1.775-14.578-1.775-5.824-.549-7.66,15.747-7.221,22.583a141.914,141.914,0,0,1-.239,18.323c-3.085,16.782-.838,32.385-.766,35.63v5.142a4.765,4.765,0,0,0,4.407-.1l.342-3.614c2.512-13.382,4.672-24.563,10.983-53.41,1.165,4.341,3.2,10.543,4.81,15.376,0,.03.519,1.5.519,1.5.286,1.789-.466,14.448.495,21.808.62,4.735,1.806,9.753,2.116,14.314h0l.145,4.091a4.593,4.593,0,0,0,4.4,0l.238-3.977h0c1.014-11.02,2.482-27.672,2.716-33.035C549.007,532.979,548.974,531.128,548.932,530.461Z" transform="translate(-516.958 -488.744)" fill="#163754"/>
        </g>
        <path id="Trazado_229683" data-name="Trazado 229683" d="M540.34,530.612c-1.611-4.833-3.646-11.035-4.81-15.376l2.4-8.5S538.124,523.268,540.34,530.612Z" transform="translate(-502.999 -426.074)" fill="#1f2b38"/>
        <path id="Trazado_229684" data-name="Trazado 229684" d="M555.906,455.142l8.566,13.653s1,5.953-3.792,5.1-11.309-13.2-11.309-13.2" transform="translate(-504.476 -420.566)" fill="#e5918f"/>
        <path id="Trazado_229685" data-name="Trazado 229685" d="M554.263,467.915s3.324,4.411,4.765,5.5c1.16.874,3.055,1.82,4.694.74a116.832,116.832,0,0,0,15.828-14.9,22.185,22.185,0,0,1-1.852-2.086,45.809,45.809,0,0,1-8.2,4.607c-6.229,2.644-7.568,5.947-7.568,5.947" transform="translate(-504.998 -420.782)" fill="#e5918f"/>
        <path id="Trazado_229686" data-name="Trazado 229686" d="M559.956,459.637a17.6,17.6,0,0,1-6.638,5.008,12.88,12.88,0,0,1-1.651.51c-.183.043-.365.081-.554.113l-3.284-5.312-2.431-3.924,4.054-10.93S552.817,447.95,559.956,459.637Z" transform="translate(-504.052 -419.495)" fill="#9cd2ff"/>
        <path id="Trazado_229687" data-name="Trazado 229687" d="M551.958,466.705c-.183.043-.365.081-.554.113l-3.285-5.312c.489-.844.908-1.553.908-1.553l1.71-.333A65.576,65.576,0,0,0,551.958,466.705Z" transform="translate(-504.342 -421.044)" fill="#88c7f2"/>
        <path id="Trazado_229688" data-name="Trazado 229688" d="M545.058,471.947c-.941,5.6,1.951,14.4.419,14.574.3,1.731-5.881,2.484-9.612,2.484-4.2,0-11.174-1.921-13.324-3.163-.187-.1-1.057-1.435.335-5.539a16.434,16.434,0,0,0,.7-2.891c.631-4.35.86-8.063-.033-11.525-.489-1.893-1.069-3.667-1.639-5.344-1.43-4.214-2.753-7.827-2.183-11.192a15.2,15.2,0,0,1,2.07-2.785,11.624,11.624,0,0,1,4.436-3.1.122.122,0,0,0,.037-.017,43.017,43.017,0,0,1,8.779-1.435c6.221-.189,9.22.715,11.419,2.531,1.849,1.527,2.07,7.758.983,14.962C546.881,463.27,545.735,467.92,545.058,471.947Z" transform="translate(-501.297 -419.162)" fill="#9cd2ff"/>
        <g id="Grupo_168015" data-name="Grupo 168015" transform="translate(26.369)">
          <path id="Trazado_229689" data-name="Trazado 229689" d="M545.8,422.391s.667,5.383-1.085,5.926-1.544-1.794-1.544-1.794l-.007-2.588" transform="translate(-530.182 -417.07)" fill="#192c51"/>
          <path id="Trazado_229690" data-name="Trazado 229690" d="M531.528,442.22a10.144,10.144,0,0,0,.29-2.419,47.6,47.6,0,0,0,.356-8.064l4.322,3.635,2.037,1.715c.221,1.021.581,2.328.882,3.386a2.82,2.82,0,0,1-.082,1.9Z" transform="translate(-528.94 -418.068)" fill="#e5918f"/>
          <path id="Trazado_229691" data-name="Trazado 229691" d="M534.1,435.809a10.336,10.336,0,0,0,5.594,5.1c-.3-1.058-.662-2.362-.883-3.385l-2.038-1.715Z" transform="translate(-529.214 -418.502)" fill="#cc6362"/>
          <path id="Trazado_229692" data-name="Trazado 229692" d="M543.744,425.751s.869,9.109-2.106,10.767c-1.633.909-5.083.56-7.32-1.528a8.6,8.6,0,0,1-2.025-3.436c-.746-2.048-1.889-5.85-1.163-8.283C532.164,419.806,542.8,417.661,543.744,425.751Z" transform="translate(-528.873 -416.834)" fill="#e5918f"/>
          <path id="Trazado_229693" data-name="Trazado 229693" d="M546.336,419.267c-2.126-2.131-9.065-2.786-9.065-2.786l-.005.011a6.077,6.077,0,0,0-5.911,2.775c-4.94,1.748-1.653,9.313-1.653,9.313h0a12.207,12.207,0,0,0,1.188,2.72c1.033,1.635.512,3.656,1.3,3.652s.272-3.459.726-5.892c.033-.18.074-.344.119-.5a5.584,5.584,0,0,0,3.309-1.115c1.516-1.581.328-2.932.536-4.151a9.611,9.611,0,0,0,3.679.7C544.37,424.1,547.4,420.329,546.336,419.267Z" transform="translate(-528.631 -416.434)" fill="#192c51"/>
          <path id="Trazado_229694" data-name="Trazado 229694" d="M533.293,431.629" transform="translate(-529.128 -418.056)" fill="none" stroke="#fff" stroke-miterlimit="10" stroke-width="0.288"/>
          <path id="Trazado_229695" data-name="Trazado 229695" d="M535.633,429.261" transform="translate(-529.378 -417.803)" fill="none" stroke="#fff" stroke-miterlimit="10" stroke-width="0.288"/>
          <path id="Trazado_229696" data-name="Trazado 229696" d="M535.052,432.276c-2.073,1.131-3.479-4.157-1.435-4.675,1.55-.392,1.909,1.8,1.909,1.8S536.236,431.63,535.052,432.276Z" transform="translate(-529.056 -417.621)" fill="#e5918f"/>
        </g>
        <path id="Trazado_229697" data-name="Trazado 229697" d="M522.027,459.106a97.171,97.171,0,0,1-5.739,10,8.393,8.393,0,0,1-2.347,2.526c-2.011.976-5.417-.65-6.506-2.027.013-.253.035-.5.065-.743.008-.054.01-.1.021-.152a1.132,1.132,0,0,1,.02-.164,2.671,2.671,0,0,1,.057-.329,14.5,14.5,0,0,1,.735-2.249c.321-.8.634-1.5.75-1.758l0-.005c.006-.015.017-.029.022-.044a.419.419,0,0,0,.025-.054c2.349-4.774,5.892-11.418,5.892-11.418Z" transform="translate(-499.999 -420.304)" fill="#e5918f"/>
        <path id="Trazado_229698" data-name="Trazado 229698" d="M525.03,458.44l-1.205,9.2c-.489-1.893-1.069-3.667-1.639-5.344Z" transform="translate(-501.574 -420.918)" fill="#88c7f2"/>
        <path id="Trazado_229699" data-name="Trazado 229699" d="M525.587,454.257a101.432,101.432,0,0,1-4.482,9.386c-1.821.093-4.012-.852-5.862-1.9a39.049,39.049,0,0,1-4.25-2.885,60.91,60.91,0,0,1,3.809-6.713,28.874,28.874,0,0,1,4.4-5.139,15.234,15.234,0,0,1,2.9-1.9Z" transform="translate(-500.379 -419.495)" fill="#9cd2ff"/>
        <path id="Trazado_229700" data-name="Trazado 229700" d="M525.962,443.642s-4.478,1.35-5.728,3.209c-1.224,1.822-3.152,9.013-3.152,9.013l4.969-2.142" transform="translate(-501.029 -419.339)" fill="#9cd2ff"/>
        <path id="Trazado_229701" data-name="Trazado 229701" d="M587.571,453.573c-.212.165-1.678,1.071-1.982,1.261.17-.087.9.563.956.537a7.147,7.147,0,0,1,.11,1.852c-.223.229-.618.288-.757.376a6.469,6.469,0,0,1-2.4.88c-.525-.021-.917-.077-1.2.216l-2.275-1.776s2.013-4.2,3.393-5.174a.555.555,0,0,1,.422.665c-.067.587-.907,1.3-.948,1.848s.324.473.777.375,3.836-1.93,4.165-1.761S587.813,453.388,587.571,453.573Z" transform="translate(-507.748 -420.203)" fill="#e5918f"/>
        <path id="Trazado_229702" data-name="Trazado 229702" d="M522.764,491.083a41,41,0,0,0,22.933.679,6.346,6.346,0,0,1,.388,3.331s-12.663,3.1-24.411-1.22A8.058,8.058,0,0,1,522.764,491.083Z" transform="translate(-501.519 -424.403)" fill="#1f2b38"/>
        <g id="Grupo_168017" data-name="Grupo 168017" transform="translate(0 41.381)">
          <rect id="Rectángulo_49853" data-name="Rectángulo 49853" width="23.974" height="34.324" rx="1.818" transform="matrix(0.652, 0.758, -0.758, 0.652, 26.021, 0)" fill="#fff"/>
          <rect id="Rectángulo_49854" data-name="Rectángulo 49854" width="20.928" height="31.657" rx="0.84" transform="matrix(0.652, 0.758, -0.758, 0.652, 25.952, 2.055)" fill="#9dd2f2" opacity="0.46"/>
          <rect id="Rectángulo_49855" data-name="Rectángulo 49855" width="11.315" height="2.549" rx="0.309" transform="matrix(0.652, 0.758, -0.758, 0.652, 29.701, 5.183)" fill="#9dd2f2"/>
          <g id="Grupo_168016" data-name="Grupo 168016" transform="translate(5.22 5.038)">
            <line id="Línea_2056" data-name="Línea 2056" x2="11.978" y2="13.924" transform="translate(1.749 15.048)" fill="none" stroke="#fff" stroke-linecap="round" stroke-miterlimit="10" stroke-width="1"/>
            <line id="Línea_2057" data-name="Línea 2057" x2="11.978" y2="13.924" transform="translate(0 16.553)" fill="none" stroke="#fff" stroke-linecap="round" stroke-miterlimit="10" stroke-width="1"/>
            <line id="Línea_2058" data-name="Línea 2058" x2="11.978" y2="13.924" transform="translate(17.494 1.505)" fill="none" stroke="#fff" stroke-linecap="round" stroke-miterlimit="10" stroke-width="1"/>
            <line id="Línea_2059" data-name="Línea 2059" x2="11.978" y2="13.924" transform="translate(15.744 3.01)" fill="none" stroke="#fff" stroke-linecap="round" stroke-miterlimit="10" stroke-width="1"/>
            <line id="Línea_2060" data-name="Línea 2060" x2="11.978" y2="13.924" transform="translate(13.995 4.514)" fill="none" stroke="#fff" stroke-linecap="round" stroke-miterlimit="10" stroke-width="1"/>
            <line id="Línea_2061" data-name="Línea 2061" x2="11.978" y2="13.924" transform="translate(12.246 6.019)" fill="none" stroke="#fff" stroke-linecap="round" stroke-miterlimit="10" stroke-width="1"/>
            <line id="Línea_2062" data-name="Línea 2062" x2="11.978" y2="13.924" transform="translate(10.496 7.524)" fill="none" stroke="#fff" stroke-linecap="round" stroke-miterlimit="10" stroke-width="1"/>
            <line id="Línea_2063" data-name="Línea 2063" x2="11.978" y2="13.924" transform="translate(8.747 9.029)" fill="none" stroke="#fff" stroke-linecap="round" stroke-miterlimit="10" stroke-width="1"/>
            <line id="Línea_2064" data-name="Línea 2064" x2="11.978" y2="13.924" transform="translate(6.997 10.534)" fill="none" stroke="#fff" stroke-linecap="round" stroke-miterlimit="10" stroke-width="1"/>
            <line id="Línea_2065" data-name="Línea 2065" x2="11.978" y2="13.924" transform="translate(5.248 12.039)" fill="none" stroke="#fff" stroke-linecap="round" stroke-miterlimit="10" stroke-width="1"/>
            <line id="Línea_2066" data-name="Línea 2066" x2="11.978" y2="13.924" transform="translate(3.499 13.544)" fill="none" stroke="#fff" stroke-linecap="round" stroke-miterlimit="10" stroke-width="1"/>
            <line id="Línea_2067" data-name="Línea 2067" x2="11.978" y2="13.924" transform="translate(19.243)" fill="none" stroke="#fff" stroke-linecap="round" stroke-miterlimit="10" stroke-width="1"/>
          </g>
        </g>
        <path id="Trazado_229703" data-name="Trazado 229703" d="M522.493,490.519A128.169,128.169,0,0,1,508.41,477.9c-.172-.184-.338-.359-.49-.523-1.786-1.992-.82-4.05.491-5.545.165-.191.337-.374.509-.545.077-.08.153-.152.228-.224a2.681,2.681,0,0,1,.247-.223,14.514,14.514,0,0,1,1.964-1.319l2.121,2.4a22.08,22.08,0,0,1,2.386,4.233,53.143,53.143,0,0,0,8.577,12.372A22.257,22.257,0,0,0,522.493,490.519Z" transform="translate(-499.947 -422.101)" fill="#e5918f"/>
        <path id="Trazado_229704" data-name="Trazado 229704" d="M525.7,490.264a3.154,3.154,0,0,0,1.746,1.071c.567.088.859-.047,1.274.03a9.325,9.325,0,0,0,2.1.282c.607-.058.818-.011.606.5s-1.39.572-1.718.611a2.8,2.8,0,0,0-.9.409c-.058.043,1.324,1.594,1.856,1.585a1.438,1.438,0,0,1-.184.669c-.166.2-.551.149-.622.255s-.053.384-.2.541-.463.037-.7.288-.1.31-.313.588-.632.183-.769.316-.167.337-.377.384a8.324,8.324,0,0,1-2.045-1.487c-.474-.456-1.166-3.2-2.557-4.571" transform="translate(-501.65 -424.315)" fill="#e5918f"/>
        <path id="Trazado_229705" data-name="Trazado 229705" d="M508.909,465.866s-3.874,7.867-1,11.117,3.367-5.889,3.389-6.057S508.909,465.866,508.909,465.866Z" transform="translate(-499.937 -421.711)" fill="#e5918f"/>
        <path id="Trazado_229706" data-name="Trazado 229706" d="M530.476,442.612l1.23-1.847s.448,1.167,5.59,2.526l-.8,2.9A14.146,14.146,0,0,1,530.476,442.612Z" transform="translate(-502.459 -419.031)" fill="#c5e8ff"/>
        <path id="Trazado_229707" data-name="Trazado 229707" d="M539.962,440.889s.127.56-.638,1.46a10.428,10.428,0,0,1-1.213.955l1.411,2.443a5.546,5.546,0,0,0,1.172-3.82Z" transform="translate(-503.274 -419.045)" fill="#c5e8ff"/>
        <path id="Trazado_229708" data-name="Trazado 229708" d="M557.634,583.818H549.06l-.565-.8-.646.8h-3.967a6.5,6.5,0,0,1,.516-5.645s1.14.915,4.553.3a15.144,15.144,0,0,0,2.409,1.682C552.349,580.63,558.016,581.743,557.634,583.818Z" transform="translate(-503.847 -433.7)" fill="#1e2a36"/>
        <path id="Trazado_229709" data-name="Trazado 229709" d="M517.726,577.613a7.188,7.188,0,0,0,4.582.363,5.964,5.964,0,0,1,.614,1.321c.282.773,1.981,2.317,2.306,3.984a.405.405,0,0,1-.4.478h-8.2a.4.4,0,0,1-.394-.318A7.4,7.4,0,0,1,517.726,577.613Z" transform="translate(-500.927 -433.64)" fill="#1e2a36"/>
        <g id="Grupo_168018" data-name="Grupo 168018" transform="translate(35.294 10.618)">
          <ellipse id="Elipse_11532" data-name="Elipse 11532" cx="0.381" cy="0.574" rx="0.381" ry="0.574" transform="translate(0.417 0.71)" fill="#192c51"/>
          <path id="Trazado_229710" data-name="Trazado 229710" d="M544.352,429.69c0,.317-.171.574-.381.574s-.38-.257-.38-.574.171-.574.38-.574S544.352,429.373,544.352,429.69Z" transform="translate(-539.153 -428.406)" fill="#192c51"/>
          <path id="Trazado_229711" data-name="Trazado 229711" d="M538.623,428.894a.81.81,0,0,1,.8-.573.745.745,0,0,1,.7.573" transform="translate(-538.623 -428.321)" fill="none" stroke="#192c51" stroke-linecap="round" stroke-linejoin="round" stroke-width="0.144"/>
          <path id="Trazado_229712" data-name="Trazado 229712" d="M543.084,428.894a.81.81,0,0,1,.8-.573.745.745,0,0,1,.7.573" transform="translate(-539.099 -428.321)" fill="none" stroke="#192c51" stroke-linecap="round" stroke-linejoin="round" stroke-width="0.144"/>
        </g>
        <g id="Grupo_168019" data-name="Grupo 168019" transform="translate(30.762 10.854)" opacity="0.5">
          <path id="Trazado_229713" data-name="Trazado 229713" d="M533.777,428.585s1.384.509.837,2.719" transform="translate(-533.573 -428.585)" fill="none" stroke="#cc6362" stroke-miterlimit="10" stroke-width="0.432"/>
          <path id="Trazado_229714" data-name="Trazado 229714" d="M533.549,429.779a1.152,1.152,0,0,1,1.168.645" transform="translate(-533.549 -428.712)" fill="none" stroke="#cc6362" stroke-miterlimit="10" stroke-width="0.432"/>
        </g>
        <path id="Trazado_229715" data-name="Trazado 229715" d="M538.7,493.354c.009.514.03,2.039,0,2.873a.175.175,0,0,0,.18.185,33.293,33.293,0,0,0,3.4-.19.175.175,0,0,0,.147-.172,21.173,21.173,0,0,0-.074-2.973.175.175,0,0,0-.2-.15c-.478.054-1.893.2-3.279.248A.178.178,0,0,0,538.7,493.354Z" transform="translate(-503.337 -424.599)" fill="#2b435d"/>
        <path id="Trazado_229716" data-name="Trazado 229716" d="M584,452.41c-.052.489-.639,1.06-.865,1.554l-1.535.34a9.306,9.306,0,0,1,1.982-2.559A.553.553,0,0,1,584,452.41Z" transform="translate(-507.916 -420.203)" fill="#e5918f"/>
        <path id="Trazado_229717" data-name="Trazado 229717" d="M587.418,454.51a3.664,3.664,0,0,0-2.083.7c-.225.217.056.643.611.659a5.706,5.706,0,0,0,1.472-.288S588.066,454.7,587.418,454.51Z" transform="translate(-508.307 -420.496)" fill="#e5918f"/>
        <path id="Trazado_229718" data-name="Trazado 229718" d="M587.366,455.606a4.072,4.072,0,0,0-2.311.78c-.249.241.063.714.678.732a4.315,4.315,0,0,0,1.451-.339S588.084,455.816,587.366,455.606Z" transform="translate(-508.276 -420.613)" fill="#e5918f"/>
        <path id="Trazado_229719" data-name="Trazado 229719" d="M587.4,456.7a14.1,14.1,0,0,0-1.814.754c-.18.172.045.511.485.523a4.545,4.545,0,0,0,1.168-.228S587.769,457.095,587.4,456.7Z" transform="translate(-508.336 -420.733)" fill="#e5918f"/>
        <path id="Trazado_229720" data-name="Trazado 229720" d="M540.458,435.47a4,4,0,0,0,2.755-.08" transform="translate(-503.525 -418.458)" fill="none" stroke="#cc6362" stroke-linecap="round" stroke-miterlimit="10" stroke-width="0.25"/>
        <path id="Trazado_229721" data-name="Trazado 229721" d="M541.986,430.137s.617,2.2.665,2.573c.062.487-.782.729-.782.729" transform="translate(-503.675 -417.897)" fill="none" stroke="#cc6362" stroke-linecap="round" stroke-miterlimit="10" stroke-width="0.25"/>
      </g>
      <g id="Grupo_168026" data-name="Grupo 168026" transform="translate(660.307 374.525)">
        <path id="Trazado_229722" data-name="Trazado 229722" d="M734.719,583.058h14.129a7.71,7.71,0,0,0-.921-5.633s-1.138.912-4.544.295a15.187,15.187,0,0,1-2.4,1.679C739.992,579.876,734.338,580.987,734.719,583.058Z" transform="translate(-688.283 -433.502)" fill="#1e2a36"/>
        <path id="Trazado_229723" data-name="Trazado 229723" d="M730.559,490.113c-1.832.066-3.589.133-5.011.194a33.368,33.368,0,0,1-6.673-.223s-.677,5.452-1.289,18.891c-.3,8.211-.7,15.368-.687,18.948,0,.3,0,1.625,0,1.9l9.357.393c.3-.863.982-2.8.982-2.832,1.628-4.671,3.686-10.665,4.874-14.865L731.545,503Z" transform="translate(-686.383 -424.179)" fill="#163754"/>
        <path id="Trazado_229724" data-name="Trazado 229724" d="M728.474,528.926c1.628-4.671,3.686-10.665,4.874-14.865l-.567-9.518S730.723,521.826,728.474,528.926Z" transform="translate(-687.618 -425.722)" fill="#1d2a33"/>
        <path id="Trazado_229725" data-name="Trazado 229725" d="M735.331,533.841c.913,5.445,5.124,23.869,6.934,34.752A16.6,16.6,0,0,0,748,568.3c-.164-3.795-.491-12.873-.453-16.854.063-6.729.379-15.6-2.583-20.47.715-5.716,2.357-14.685,2.646-20.432.185-4.077-.074-13.787-4.956-20.942,0,0-6.053.346-11.456.681l1.321,12.856.816,9.5c.607,7.344,1.436,17.88,1.834,20.379C735.222,533.313,735.276,533.585,735.331,533.841Z" transform="translate(-687.91 -424.127)" fill="#163754"/>
        <path id="Trazado_229726" data-name="Trazado 229726" d="M713.343,455.454l-5.757,16.161s.021,4.229,4.45,2.585,8.514-14.568,8.514-14.568" transform="translate(-685.389 -420.482)" fill="#e5918f"/>
        <path id="Trazado_229727" data-name="Trazado 229727" d="M710.6,461.462a21.461,21.461,0,0,0,6.966,2.683,12.109,12.109,0,0,0,2.212.218l-2-9.855,1.238-8.734S714.824,448.832,710.6,461.462Z" transform="translate(-685.711 -419.449)" fill="#fff"/>
        <g id="Grupo_168021" data-name="Grupo 168021" transform="translate(3.069 37.388)">
          <path id="Trazado_229728" data-name="Trazado 229728" d="M709.143,470.13s7.1-3.1,5.937-.8c-.814,1.613-4.469,7.943-6.253,7.273a113.478,113.478,0,0,1-18.194-10.7,21.551,21.551,0,0,0,1.3-2.374,46.609,46.609,0,0,0,8.459,3.243,50.385,50.385,0,0,1,8.747,3.352" transform="translate(-686.648 -458.733)" fill="#e5918f"/>
          <path id="Trazado_229729" data-name="Trazado 229729" d="M692.559,463.495l-1.313,2.617a8.721,8.721,0,0,0-2.769-1.411,4.752,4.752,0,0,1-1.572-.509,1.308,1.308,0,0,1-.724-1.331v-.018c.009-.054.027-.107.036-.161a.272.272,0,0,1,.018-.062,7.718,7.718,0,0,1,.992-2.2,11.644,11.644,0,0,0,1.161.536c.446.107.795.179.768-.348a.8.8,0,0,0-.071-.268c-.2-.482-.777-1.063-.822-1.545a.539.539,0,0,1,.42-.634,6.547,6.547,0,0,1,1.259,1.519c.643.974,1.286,2.153,1.786,2.948A2.779,2.779,0,0,0,692.559,463.495Z" transform="translate(-686.172 -458.159)" fill="#e5918f"/>
          <path id="Trazado_229730" data-name="Trazado 229730" d="M689.335,460.342c-.2-.487-.776-1.065-.819-1.544a.541.541,0,0,1,.42-.64,6.464,6.464,0,0,1,1.255,1.521Z" transform="translate(-686.422 -458.159)" fill="#e5918f"/>
        </g>
        <path id="Trazado_229731" data-name="Trazado 229731" d="M718.879,482.245c-.3,1.678-.874,2.893-.242,3.73.682.911,6.116,1.489,9.736,1.489,4.076,0,12.179-.174,14.264-1.378.2-.111.683-.507.683-.889a8.688,8.688,0,0,0-.5-2.548c-1.683-5.522.092-8.239.312-11.867.045-.757,1.242-4.99,1.308-5.79.419-5.273,1.153-11.368,1.292-14.761a14.788,14.788,0,0,0-2.011-2.7,11.359,11.359,0,0,0-4.3-3.01.367.367,0,0,1-.037-.015,41.442,41.442,0,0,0-8.526-1.4c-6.037-.183-9.769,1.029-11.193,2.571-.925,1-.154,9.466,0,19.59C719.745,470.733,720.214,474.676,718.879,482.245Z" transform="translate(-686.538 -419.162)" fill="#fff"/>
        <path id="Trazado_229732" data-name="Trazado 229732" d="M740.032,460.624l-.242,6.942,2.017.521,2.084,5.806,1.265-4.11Z" transform="translate(-688.827 -421.034)" fill="#e1f1ff"/>
        <g id="Grupo_168022" data-name="Grupo 168022" transform="translate(33.819 0)">
          <path id="Trazado_229733" data-name="Trazado 229733" d="M723.251,423.438s-.863,5.457.9,6.069,1.632-1.774,1.632-1.774l.1-2.633" transform="translate(-720.857 -417.064)" fill="#192c51"/>
          <path id="Trazado_229734" data-name="Trazado 229734" d="M729.664,446.117c-4.422-.349-1.208-4.1-1.208-4.1s.085-.364.4-1.327c.305-.941.665-2.1.9-3.014l1.883-1.48,3.991-3.138s-.667,6.3.607,9.449C736.931,443.239,734.72,446.517,729.664,446.117Z" transform="translate(-721.315 -418.091)" fill="#e5918f"/>
          <path id="Trazado_229735" data-name="Trazado 229735" d="M734.215,436.655a9.292,9.292,0,0,1-5.179,4.411c.305-.941.665-2.1.895-3.014l1.883-1.48Z" transform="translate(-721.498 -418.466)" fill="#cc6362"/>
          <path id="Trazado_229736" data-name="Trazado 229736" d="M724.611,423.956s-1.738,11.316,1.2,12.693a6.79,6.79,0,0,0,7.509-1.428,10.463,10.463,0,0,0,2.179-3.428c.828-2.06,2.121-5.89,1.465-8.392C736.028,419.838,725.847,415.754,724.611,423.956Z" transform="translate(-720.971 -416.609)" fill="#e5918f"/>
          <path id="Trazado_229737" data-name="Trazado 229737" d="M736.887,421.226a8.013,8.013,0,0,0-1.455-1.668l0,0c-1.176-1.134-4.853-3.364-5.4-3.185-.952.31.344,1.533.344,1.533-2.23-.982-8.481-3.033-5.571-.036a26.687,26.687,0,0,0-3.553-.649c-.936.543-.59,2.956-.59,2.956,1.018,5.434,7.568,4.591,9.554,4.2.272,1.4-.037,3.255.96,4.367a3.721,3.721,0,0,0,2.842.763,5.113,5.113,0,0,1,.25.985,33.92,33.92,0,0,1,.114,4.517l.841-.2a13.642,13.642,0,0,1,1.035-1.968,12.794,12.794,0,0,0,1.688-4.113C738.181,428.066,741.115,421.49,736.887,421.226Z" transform="translate(-720.597 -416.302)" fill="#192c51"/>
        </g>
        <path id="Trazado_229738" data-name="Trazado 229738" d="M750.054,457.471s2.25,16.04,1.883,17.325-4.834,2.172-6.671.276S741.533,461,741.533,461" transform="translate(-689.012 -420.697)" fill="#e5918f"/>
        <path id="Trazado_229739" data-name="Trazado 229739" d="M739.79,455.248a98.618,98.618,0,0,0,.962,10.053c1.63.691,3.944.558,5.978.221a38.011,38.011,0,0,0,4.838-1.217,59.115,59.115,0,0,0-1.239-7.391,28.014,28.014,0,0,0-2.306-6.154,14.793,14.793,0,0,0-2.011-2.7Z" transform="translate(-688.826 -419.692)" fill="#fff"/>
        <path id="Trazado_229740" data-name="Trazado 229740" d="M728.758,470v-5.458a1.107,1.107,0,0,0-1.107-1.107h-1.33a.966.966,0,0,1-.936-.758,20.045,20.045,0,0,0-2.5-6.05.967.967,0,0,1,.127-1.2l.934-.934a1.106,1.106,0,0,0,0-1.565l-3.859-3.859a1.106,1.106,0,0,0-1.565,0l-.934.934a.966.966,0,0,1-1.2.126,20.06,20.06,0,0,0-6.052-2.5.965.965,0,0,1-.758-.935v-1.326a1.107,1.107,0,0,0-1.107-1.107h-5.457a1.107,1.107,0,0,0-1.107,1.107v1.326a.965.965,0,0,1-.758.936,20.03,20.03,0,0,0-6.053,2.5.966.966,0,0,1-1.2-.126l-.932-.933a1.107,1.107,0,0,0-1.566,0l-3.858,3.859a1.106,1.106,0,0,0,0,1.565l.933.933a.966.966,0,0,1,.126,1.2,20.069,20.069,0,0,0-2.5,6.052.966.966,0,0,1-.936.758h-1.329a1.107,1.107,0,0,0-1.107,1.107V470a1.107,1.107,0,0,0,1.107,1.107h1.33a.965.965,0,0,1,.936.757,20.065,20.065,0,0,0,2.5,6.051.965.965,0,0,1-.126,1.2l-.934.934a1.106,1.106,0,0,0,0,1.565l3.858,3.86a1.109,1.109,0,0,0,1.566,0l.935-.936a.966.966,0,0,1,1.2-.127,20.059,20.059,0,0,0,6.05,2.5.966.966,0,0,1,.758.936v1.334a1.106,1.106,0,0,0,1.107,1.107h5.457a1.107,1.107,0,0,0,1.107-1.107v-1.334a.965.965,0,0,1,.758-.936,20.066,20.066,0,0,0,6.049-2.5.967.967,0,0,1,1.2.126l.936.937a1.108,1.108,0,0,0,1.565,0l3.859-3.859a1.107,1.107,0,0,0,0-1.566l-.935-.935a.965.965,0,0,1-.127-1.2,20.042,20.042,0,0,0,2.5-6.049.966.966,0,0,1,.936-.758h1.331A1.107,1.107,0,0,0,728.758,470Zm-24.305,8.932a11.729,11.729,0,1,1,13.017-11.664A11.761,11.761,0,0,1,704.453,478.933Z" transform="translate(-682.736 -419.287)" fill="#0a3d75"/>
        <path id="Trazado_229741" data-name="Trazado 229741" d="M750.456,475.637v.044c0,.512-.105,5.4-4.16,4.741-.1-.017-.2-.035-.3-.057-.154-.035-.3-.062-.431-.079a123,123,0,0,1-18.38-5.275,21.469,21.469,0,0,0,.639-2.631,46.751,46.751,0,0,0,9.011.93,50.4,50.4,0,0,1,9.32.965l4.138-.886S750.381,474.426,750.456,475.637Z" transform="translate(-687.48 -422.289)" fill="#e5918f"/>
        <path id="Trazado_229742" data-name="Trazado 229742" d="M689.469,461.72l0,0c.263.034.629-.126.388-.4a3.112,3.112,0,0,0-1.532-1.035c-.766-.19-1.075.087-1.075.087a1.264,1.264,0,0,0-.4.491,7.15,7.15,0,0,1-.443.789,4.842,4.842,0,0,0-.237,1.466l.5-1.012-.1.557.186,0-.074.9a.556.556,0,0,1,.508-.222c.318.061,1.044.321,1.249.347s.491-.1.3-.312a3.443,3.443,0,0,0-.4-.394c.213.059.4.106.478.117.255.033.608-.122.376-.387-.067-.077-.164-.179-.275-.287.226.062.421.111.507.122.29.038.695-.139.43-.442C689.765,462.009,689.628,461.868,689.469,461.72Z" transform="translate(-683.103 -420.99)" fill="#e5918f"/>
        <path id="Trazado_229743" data-name="Trazado 229743" d="M750.556,456.553l-4.821-2.079-3.8-9.787s.7.212,1.612.582h0c.018.009.057.021.123.048a.6.6,0,0,1,.071.03c.82.384,4,2.256,6.2,9.06l.053.172c.234.784.406,1.415.5,1.741.008.03.017.062.026.1S750.543,456.509,750.556,456.553Z" transform="translate(-689.056 -419.332)" fill="#fff"/>
        <path id="Trazado_229744" data-name="Trazado 229744" d="M727.738,472.04a3.061,3.061,0,0,1-1.779-.889c-.363-.423-.4-.733-.679-1.034a9.066,9.066,0,0,1-1.313-1.589c-.264-.531-.411-.68-.721-.245s.243,1.439.38,1.73a2.7,2.7,0,0,1,.126.953c-.005.071-1.993-.272-2.259-.716a1.4,1.4,0,0,0-.456.495c-.081.24.159.531.109.644s-.29.24-.344.44.207.4.123.728-.2.244-.323.56.173.615.134.8-.191.311-.123.508a8.083,8.083,0,0,0,2.276.921c.618.157,3.234-.682,5.079-.238" transform="translate(-686.775 -421.824)" fill="#e5918f"/>
        <path id="Trazado_229745" data-name="Trazado 229745" d="M717.167,521.2s-.589,11.879-.788,19.3c-.029,6.44,3.355-4.742,3.41-5.018S717.167,521.2,717.167,521.2Z" transform="translate(-686.327 -427.5)" fill="#163754"/>
        <g id="Grupo_168023" data-name="Grupo 168023" transform="translate(37.624 10.349)">
          <path id="Trazado_229746" data-name="Trazado 229746" d="M729.669,429.254c0,.316.17.573.38.573s.38-.256.38-.573-.17-.573-.38-.573S729.669,428.937,729.669,429.254Z" transform="translate(-725.37 -427.973)" fill="#192c51"/>
          <path id="Trazado_229747" data-name="Trazado 229747" d="M725.177,429.254c0,.316.17.573.38.573s.38-.256.38-.573-.17-.573-.38-.573S725.177,428.937,725.177,429.254Z" transform="translate(-724.89 -427.973)" fill="#192c51"/>
          <path id="Trazado_229748" data-name="Trazado 229748" d="M730.806,428.46a.807.807,0,0,0-.8-.572.742.742,0,0,0-.7.572" transform="translate(-725.331 -427.888)" fill="none" stroke="#192c51" stroke-linecap="round" stroke-linejoin="round" stroke-width="0.144"/>
          <path id="Trazado_229749" data-name="Trazado 229749" d="M726.354,428.46a.807.807,0,0,0-.8-.572.743.743,0,0,0-.7.572" transform="translate(-724.856 -427.888)" fill="none" stroke="#192c51" stroke-linecap="round" stroke-linejoin="round" stroke-width="0.144"/>
        </g>
        <g id="Grupo_168024" data-name="Grupo 168024" transform="translate(45.102 10.739)">
          <path id="Trazado_229750" data-name="Trazado 229750" d="M733.911,433.037c2.07,1.129,3.472-4.148,1.433-4.665-1.547-.391-1.905,1.792-1.905,1.792S732.731,432.393,733.911,433.037Z" transform="translate(-733.228 -428.324)" fill="#e5918f"/>
        </g>
        <g id="Grupo_168025" data-name="Grupo 168025" transform="translate(46.075 11.586)" opacity="0.5">
          <path id="Trazado_229751" data-name="Trazado 229751" d="M735.28,429.273s-1.381.508-.835,2.713" transform="translate(-734.317 -429.273)" fill="none" stroke="#cc6362" stroke-miterlimit="10" stroke-width="0.431"/>
          <path id="Trazado_229752" data-name="Trazado 229752" d="M735.483,430.464a1.15,1.15,0,0,0-1.165.644" transform="translate(-734.317 -429.399)" fill="none" stroke="#cc6362" stroke-miterlimit="10" stroke-width="0.431"/>
        </g>
        <path id="Trazado_229753" data-name="Trazado 229753" d="M706.107,583.058h14.13a7.708,7.708,0,0,0-.922-5.633s-1.137.912-4.544.295a15.186,15.186,0,0,1-2.4,1.679C711.38,579.876,705.726,580.987,706.107,583.058Z" transform="translate(-685.229 -433.502)" fill="#1e2a36"/>
        <path id="Trazado_229754" data-name="Trazado 229754" d="M716.551,536.107c-.3,5.2-1.088,26.129-1.2,36.873a16.2,16.2,0,0,0,5.582.5c.751-4.374,1.938-14,3.007-18.512,1.657-7.013,3.279-16.657,2.152-20.1l-9.313-1.184C716.744,533.995,716.57,535.711,716.551,536.107Z" transform="translate(-686.217 -428.833)" fill="#163754"/>
        <path id="Trazado_229755" data-name="Trazado 229755" d="M728.673,435.849a12.512,12.512,0,0,1-2.755-.08s.114.918,1.494.918A1.386,1.386,0,0,0,728.673,435.849Z" transform="translate(-687.346 -418.381)" fill="#cc6362"/>
        <path id="Trazado_229756" data-name="Trazado 229756" d="M726.926,430.837s-.342,1.53-.389,1.9c-.062.488.782.73.782.73" transform="translate(-687.411 -417.854)" fill="none" stroke="#cc6362" stroke-linecap="round" stroke-miterlimit="10" stroke-width="0.25"/>
      </g>
      <g id="Grupo_168039" data-name="Grupo 168039" transform="translate(499.016 387.602)">
        <path id="Trazado_229760" data-name="Trazado 229760" d="M519.122,418.9c0-3.128-3.794-5.664-8.476-5.664s-8.476,2.536-8.476,5.664,3.8,5.663,8.476,5.663a12.376,12.376,0,0,0,2.33-.218.688.688,0,0,1,.541.121l3.231,2.411a.226.226,0,0,0,.35-.249l-.906-2.835a.683.683,0,0,1,.287-.784A5.019,5.019,0,0,0,519.122,418.9Z" transform="translate(-502.17 -413.235)" fill="#1b1978"/>
        <g id="Grupo_168038" data-name="Grupo 168038" transform="translate(3.914 4.885)">
          <path id="Trazado_229761" data-name="Trazado 229761" d="M508.129,419.492a.788.788,0,1,1-.788-.788A.788.788,0,0,1,508.129,419.492Z" transform="translate(-506.552 -418.704)" fill="#ecf6ff"/>
          <circle id="Elipse_11535" data-name="Elipse 11535" cx="0.788" cy="0.788" r="0.788" transform="translate(3.774)" fill="#ecf6ff"/>
          <path id="Trazado_229762" data-name="Trazado 229762" d="M516.579,419.492a.789.789,0,1,1-.789-.788A.789.789,0,0,1,516.579,419.492Z" transform="translate(-507.454 -418.704)" fill="#ecf6ff"/>
        </g>
      </g>
      <g id="Grupo_168041" data-name="Grupo 168041" transform="translate(718.049 397.041)">
        <path id="Trazado_229763" data-name="Trazado 229763" d="M747.379,430.625c0-3.128,3.8-5.663,8.476-5.663s8.477,2.535,8.477,5.663-3.8,5.663-8.477,5.663a12.441,12.441,0,0,1-2.329-.217.69.69,0,0,0-.542.121l-3.23,2.412a.226.226,0,0,1-.35-.25l.9-2.834a.683.683,0,0,0-.286-.785A5.02,5.02,0,0,1,747.379,430.625Z" transform="translate(-747.379 -424.962)" fill="#1b1978"/>
        <g id="Grupo_168040" data-name="Grupo 168040" transform="translate(3.914 4.884)">
          <path id="Trazado_229764" data-name="Trazado 229764" d="M760.211,431.218a.788.788,0,1,0,.788-.788A.788.788,0,0,0,760.211,431.218Z" transform="translate(-752.663 -430.43)" fill="#ecf6ff"/>
          <path id="Trazado_229765" data-name="Trazado 229765" d="M755.986,431.218a.788.788,0,1,0,.788-.788A.788.788,0,0,0,755.986,431.218Z" transform="translate(-752.212 -430.43)" fill="#ecf6ff"/>
          <path id="Trazado_229766" data-name="Trazado 229766" d="M751.761,431.218a.788.788,0,1,0,.789-.788A.788.788,0,0,0,751.761,431.218Z" transform="translate(-751.761 -430.43)" fill="#ecf6ff"/>
        </g>
      </g>
    </g>
  </g>
</svg>
