<svg xmlns="http://www.w3.org/2000/svg" xmlns:xlink="http://www.w3.org/1999/xlink" width="1030.507" height="666.15" viewBox="0 0 1030.507 666.15">
  <defs>
    <clipPath id="clip-path">
      <rect id="Rectángulo_262989" data-name="Rectángulo 262989" width="1030" height="666.15" fill="none"/>
    </clipPath>
    <clipPath id="clip-path-2">
      <rect id="Rectángulo_262958" data-name="Rectángulo 262958" width="1029.999" height="666.152" fill="none"/>
    </clipPath>
    <clipPath id="clip-path-3">
      <path id="Trazado_465681" data-name="Trazado 465681" d="M520.067,493.488a5.438,5.438,0,0,0-5.439,5.438V771.962H1005.2V498.926a5.438,5.438,0,0,0-5.438-5.438Z" transform="translate(-514.628 -493.488)" fill="none"/>
    </clipPath>
    <linearGradient id="linear-gradient" x1="-0.577" y1="1.417" x2="-0.576" y2="1.417" gradientUnits="objectBoundingBox">
      <stop offset="0" stop-color="#fff"/>
      <stop offset="0.124" stop-color="#ebf8fc"/>
      <stop offset="0.351" stop-color="#ceedf9"/>
      <stop offset="0.575" stop-color="#b8e6f7"/>
      <stop offset="0.794" stop-color="#ace1f6"/>
      <stop offset="1" stop-color="#a8e0f6"/>
    </linearGradient>
    <clipPath id="clip-path-5">
      <rect id="Rectángulo_262962" data-name="Rectángulo 262962" width="92.666" height="11.047" fill="none"/>
    </clipPath>
    <linearGradient id="linear-gradient-2" x1="-2.541" y1="23.155" x2="-2.535" y2="23.155" xlink:href="#linear-gradient"/>
    <clipPath id="clip-path-6">
      <rect id="Rectángulo_262964" data-name="Rectángulo 262964" width="134.155" height="11.047" fill="none"/>
    </clipPath>
    <linearGradient id="linear-gradient-3" x1="-1.755" y1="21.172" x2="-1.751" y2="21.172" xlink:href="#linear-gradient"/>
    <clipPath id="clip-path-7">
      <path id="Rectángulo_262966" data-name="Rectángulo 262966" d="M10.8,0H42.625a10.8,10.8,0,0,1,10.8,10.8V42.624a10.8,10.8,0,0,1-10.8,10.8H10.8A10.8,10.8,0,0,1,0,42.625V10.8A10.8,10.8,0,0,1,10.8,0Z" fill="none"/>
    </clipPath>
    <linearGradient id="linear-gradient-4" x1="-7.121" y1="6.092" x2="-7.111" y2="6.092" xlink:href="#linear-gradient"/>
    <clipPath id="clip-path-9">
      <path id="Trazado_465727" data-name="Trazado 465727" d="M799.448,592.727S780.911,725.336,888.463,772.8c108.5-45.2,92.674-178.167,92.674-178.167-43.258-1.695-90.565-28.393-90.565-28.393s-47.842,25.7-91.124,26.486" transform="translate(-798.23 -566.241)" fill="none"/>
    </clipPath>
    <linearGradient id="linear-gradient-5" x1="-2.037" y1="1.652" x2="-2.035" y2="1.652" gradientUnits="objectBoundingBox">
      <stop offset="0" stop-color="#e0e0df"/>
      <stop offset="0.155" stop-color="#dcdcdb"/>
      <stop offset="0.297" stop-color="#d1d1d0"/>
      <stop offset="0.433" stop-color="#bebebe"/>
      <stop offset="0.565" stop-color="#a4a4a4"/>
      <stop offset="0.695" stop-color="#838382"/>
      <stop offset="0.823" stop-color="#5a5a59"/>
      <stop offset="0.948" stop-color="#2a2a2a"/>
      <stop offset="1" stop-color="#141414"/>
    </linearGradient>
    <clipPath id="clip-path-11">
      <rect id="Rectángulo_262982" data-name="Rectángulo 262982" width="171.913" height="193.288" fill="none"/>
    </clipPath>
    <clipPath id="clip-path-12">
      <path id="Trazado_465729" data-name="Trazado 465729" d="M830.029,616S814.72,733.027,903.043,774.844c89.158-39.954,76.242-157.279,76.242-157.279-35.535-1.468-74.381-25-74.381-25S865.586,615.276,830.029,616" transform="translate(-829.015 -592.567)" fill="none"/>
    </clipPath>
    <linearGradient id="linear-gradient-6" x1="-2.489" y1="1.866" x2="-2.486" y2="1.866" gradientUnits="objectBoundingBox">
      <stop offset="0" stop-color="#009cdc"/>
      <stop offset="0.285" stop-color="#0099d9"/>
      <stop offset="0.462" stop-color="#0090d2"/>
      <stop offset="0.609" stop-color="#0182c7"/>
      <stop offset="0.74" stop-color="#036db6"/>
      <stop offset="0.86" stop-color="#0553a0"/>
      <stop offset="0.97" stop-color="#073386"/>
      <stop offset="1" stop-color="#08297e"/>
    </linearGradient>
    <clipPath id="clip-path-13">
      <path id="Trazado_465730" data-name="Trazado 465730" d="M830.027,616.75s-15.15,112.891,72.449,153.255c88.4-38.517,75.563-151.7,75.563-151.7-35.239-1.426-73.768-24.135-73.768-24.135s-38.984,21.895-74.244,22.582" transform="translate(-829.027 -594.168)" fill="none"/>
    </clipPath>
    <linearGradient id="linear-gradient-7" x1="-2.511" y1="1.93" x2="-2.507" y2="1.93" gradientUnits="objectBoundingBox">
      <stop offset="0" stop-color="#009cdc"/>
      <stop offset="0.246" stop-color="#0184c8"/>
      <stop offset="0.763" stop-color="#054796"/>
      <stop offset="1" stop-color="#08297e"/>
    </linearGradient>
    <clipPath id="clip-path-15">
      <rect id="Rectángulo_262986" data-name="Rectángulo 262986" width="120.244" height="148.454" fill="none"/>
    </clipPath>
    <clipPath id="clip-path-16">
      <rect id="Rectángulo_262987" data-name="Rectángulo 262987" width="42.8" height="56.2" fill="none"/>
    </clipPath>
  </defs>
  <g id="Grupo_712072" data-name="Grupo 712072" transform="translate(-285 -7410.884)">
    <g id="Grupo_712071" data-name="Grupo 712071">
      <g id="Grupo_709512" data-name="Grupo 709512" transform="translate(285 7410.884)">
        <g id="Grupo_709511" data-name="Grupo 709511" clip-path="url(#clip-path)">
          <g id="Grupo_709479" data-name="Grupo 709479" transform="translate(0 -0.002)">
            <g id="Grupo_709478" data-name="Grupo 709478" clip-path="url(#clip-path-2)">
              <path id="Trazado_465658" data-name="Trazado 465658" d="M1466.428,407.195a50.325,50.325,0,0,0-2.778-17.635l12.9-11.433L1468.1,364.5l-15.893,6.448a50.278,50.278,0,0,0-14.624-10.5l1.031-17.13-15.6-3.657-6.715,15.888a50.236,50.236,0,0,0-17.583,2.993l-11.523-13-13.618,8.451,6.608,16.292a50.319,50.319,0,0,0-10.05,14.271l-17.73-1.069-3.655,15.608,16.553,7a50.329,50.329,0,0,0,2.862,16.831l-13.536,12,8.449,13.623,16.838-6.832a50.274,50.274,0,0,0,13.74,9.866l-1.092,18.15,15.6,3.656,7.041-16.661a50.225,50.225,0,0,0,16.871-2.656l11.909,13.441,13.617-8.45-6.672-16.452a50.255,50.255,0,0,0,10.3-14.1l17.541,1.058,3.654-15.609Zm-37.214,20.466a25.323,25.323,0,1,1,8.163-34.87,25.312,25.312,0,0,1-8.163,34.87" transform="translate(-606.859 -152.828)" fill="#96c4e4"/>
              <path id="Trazado_465659" data-name="Trazado 465659" d="M1455.365,412.939a50.317,50.317,0,0,0-2.778-17.634l12.9-11.434-8.449-13.623L1441.14,376.7a50.274,50.274,0,0,0-14.624-10.5l1.031-17.13-15.6-3.657-6.715,15.889a50.241,50.241,0,0,0-17.584,2.993l-11.523-13-13.617,8.451,6.608,16.292a50.313,50.313,0,0,0-10.051,14.271l-17.73-1.069-3.655,15.608,16.553,7a50.291,50.291,0,0,0,2.862,16.83l-13.537,12,8.449,13.623,16.838-6.832a50.282,50.282,0,0,0,13.74,9.866l-1.092,18.149,15.6,3.656,7.041-16.661a50.254,50.254,0,0,0,16.871-2.656l11.909,13.441,13.617-8.451-6.672-16.451a50.263,50.263,0,0,0,10.3-14.1l17.541,1.058,3.655-15.608ZM1418.151,433.4a25.323,25.323,0,1,1,8.163-34.87,25.312,25.312,0,0,1-8.163,34.87" transform="translate(-601.881 -155.412)" fill="#a8d2f0"/>
              <path id="Trazado_465660" data-name="Trazado 465660" d="M1344.322,422.491l5.271.317.814-3.477Z" transform="translate(-604.87 -188.674)" fill="#96c4e4"/>
              <path id="Trazado_465661" data-name="Trazado 465661" d="M1472.692,342.824l6.085-3.159-1.764,4.172Z" transform="translate(-662.63 -152.828)" fill="#96c4e4"/>
              <path id="Trazado_465662" data-name="Trazado 465662" d="M1407.569,353.508l6.085-3.159-5.733,3.558Z" transform="translate(-633.328 -157.635)" fill="#96c4e4"/>
              <path id="Trazado_465663" data-name="Trazado 465663" d="M1445.7,585.108l6.085-3.159-4.322-1.013Z" transform="translate(-650.485 -261.387)" fill="#96c4e4"/>
              <path id="Trazado_465664" data-name="Trazado 465664" d="M1574.07,506.01l6.085-3.159-5.271-.319Z" transform="translate(-708.244 -226.109)" fill="#96c4e4"/>
              <path id="Trazado_465665" data-name="Trazado 465665" d="M1510.823,574.928l6.085-3.16-.353-.4Z" transform="translate(-679.787 -257.083)" fill="#96c4e4"/>
              <path id="Trazado_465666" data-name="Trazado 465666" d="M1580.557,212.4a28.277,28.277,0,0,0-1.561-9.907l7.244-6.423-4.747-7.653-8.928,3.623a28.245,28.245,0,0,0-8.215-5.9l.579-9.623-8.765-2.054-3.773,8.925a28.227,28.227,0,0,0-9.877,1.682l-6.474-7.306-7.65,4.748,3.712,9.152a28.275,28.275,0,0,0-5.645,8.017l-9.96-.6-2.053,8.768,9.3,3.933a28.276,28.276,0,0,0,1.607,9.455l-7.6,6.743,4.747,7.652,9.459-3.837a28.244,28.244,0,0,0,7.719,5.542l-.614,10.2,8.766,2.054,3.955-9.36a28.227,28.227,0,0,0,9.478-1.492l6.69,7.551,7.65-4.748-3.749-9.242a28.216,28.216,0,0,0,5.788-7.921l9.855.595,2.053-8.769Zm-20.906,11.5a14.226,14.226,0,1,1,4.586-19.589,14.22,14.22,0,0,1-4.586,19.589" transform="translate(-681.416 -78.494)" fill="#96c4e4"/>
              <path id="Trazado_465667" data-name="Trazado 465667" d="M1574.342,215.622a28.267,28.267,0,0,0-1.561-9.906l7.244-6.424-4.746-7.653-8.928,3.623a28.241,28.241,0,0,0-8.216-5.9l.579-9.624-8.766-2.054-3.772,8.926a28.221,28.221,0,0,0-9.879,1.682l-6.473-7.306-7.65,4.748,3.712,9.152a28.27,28.27,0,0,0-5.646,8.017l-9.961-.6-2.053,8.768,9.3,3.933a28.257,28.257,0,0,0,1.609,9.455l-7.6,6.743,4.746,7.653,9.46-3.838a28.249,28.249,0,0,0,7.719,5.543l-.614,10.2,8.766,2.054,3.955-9.36a28.224,28.224,0,0,0,9.478-1.492l6.69,7.551,7.65-4.747-3.749-9.241a28.251,28.251,0,0,0,5.789-7.922l9.854.595,2.053-8.768Zm-20.906,11.5a14.226,14.226,0,1,1,4.586-19.589,14.22,14.22,0,0,1-4.586,19.589" transform="translate(-678.619 -79.946)" fill="#a8d2f0"/>
              <path id="Trazado_465668" data-name="Trazado 465668" d="M1511.96,220.988l2.961.178.457-1.953Z" transform="translate(-680.299 -98.632)" fill="#96c4e4"/>
              <path id="Trazado_465669" data-name="Trazado 465669" d="M1584.076,176.233l3.419-1.775-.991,2.344Z" transform="translate(-712.747 -78.494)" fill="#96c4e4"/>
              <path id="Trazado_465670" data-name="Trazado 465670" d="M1547.491,182.235l3.419-1.775-3.221,2Z" transform="translate(-696.286 -81.195)" fill="#96c4e4"/>
              <path id="Trazado_465671" data-name="Trazado 465671" d="M1568.912,312.344l3.419-1.775L1569.9,310Z" transform="translate(-705.924 -139.481)" fill="#96c4e4"/>
              <path id="Trazado_465672" data-name="Trazado 465672" d="M1641.028,267.908l3.418-1.775-2.961-.179Z" transform="translate(-738.372 -119.663)" fill="#96c4e4"/>
              <path id="Trazado_465673" data-name="Trazado 465673" d="M1605.5,306.624l3.419-1.775-.2-.224Z" transform="translate(-722.385 -137.063)" fill="#96c4e4"/>
              <path id="Trazado_465674" data-name="Trazado 465674" d="M5.131,274.673h0c0-48.207,52.8-87.287,117.941-87.287h24.243c-11.466-7.345-18.73-18.187-18.73-30.29h0c0-22.124,24.234-40.059,54.128-40.059h81.616c-8.108-5.166-13.263-12.8-13.263-21.339,0-15.556,17.04-28.167,38.059-28.167H494.169c21.388,0,38.727,12.832,38.727,28.661s-17.339,28.661-38.727,28.661h-76.8c-14.087,7.113-23.338,19.085-23.338,32.657h0c0,11.938,7.164,22.631,18.473,29.876H538.415c65.138,0,117.941,39.079,117.941,87.287s-52.8,87.287-117.941,87.287H705.447c30.137,0,54.569,18.081,54.569,40.386s-24.432,40.386-54.569,40.386h71.605c73.438,0,134.4,39.4,146.5,91.195h23.537c45.79,0,82.911,27.472,82.911,61.361v9.062c0,34.5-37.786,62.461-84.4,62.461H151.387C67.779,666.81,0,616.648,0,554.771H0c0-61.878,67.779-112.039,151.387-112.039h268.4c-30.139,0-54.57-18.081-54.57-40.386s24.431-40.386,54.57-40.386H123.072c-65.137,0-117.941-39.08-117.941-87.287" transform="translate(0 -30.383)" fill="#c2e8f5"/>
              <path id="Trazado_465675" data-name="Trazado 465675" d="M1201.51,126.626a30.943,30.943,0,1,1,30.943-30.943,30.943,30.943,0,0,1-30.943,30.943" transform="translate(-526.69 -29.127)" fill="#c2e8f5"/>
              <path id="Trazado_465676" data-name="Trazado 465676" d="M451.255,503.051a193.052,193.052,0,0,0-5.7-235.726l.164-.128-5.925-6.618q-.97-1.086-1.957-2.159-.9-.986-1.821-1.956c-.425-.45-.854-.9-1.284-1.342-.8-.832-1.605-1.659-2.42-2.475-.207-.207-.413-.41-.619-.614q-1.4-1.391-2.823-2.749c-.08-.078-.159-.159-.24-.235-.03-.029-.062-.057-.091-.086q-1.524-1.446-3.076-2.852c-.2-.185-.4-.37-.6-.552q-1.408-1.27-2.839-2.507-.529-.459-1.059-.914-1.219-1.041-2.454-2.064-.871-.719-1.75-1.427c-.2-.159-.394-.315-.592-.474a191.145,191.145,0,0,0-109.175-41.9l-.408-.025c-.781-.042-1.562-.083-2.345-.117q-1.557-.068-3.118-.111-.729-.02-1.46-.033-1.876-.037-3.757-.043l-.758,0q-2.13,0-4.266.055h-.057q-2.465.064-4.921.187c-.591.03-1.179.075-1.77.109-1.035.061-2.071.12-3.1.2-.761.058-1.519.133-2.278.2-.86.075-1.721.142-2.578.229-.8.081-1.587.176-2.38.265-.825.092-1.65.18-2.471.284-.762.1-1.521.206-2.279.31-.864.118-1.725.234-2.585.365-.676.1-1.349.215-2.021.325-.96.156-1.922.312-2.878.481-.547.1-1.089.2-1.634.305-1.106.206-2.212.417-3.314.643-.376.076-.752.159-1.129.239q-1.95.411-3.891.861l-.5.118a190.859,190.859,0,0,0-77.413,38.272l-.1.077c-.8.652-1.579,1.321-2.364,1.986-.466.395-.938.782-1.4,1.181-.364.314-.719.637-1.08.953-.859.753-1.719,1.506-2.565,2.276l-.048.042q-5.271,4.79-10.218,9.992l-.046.045c-.575.606-1.136,1.226-1.7,1.837-.479.516-.964,1.024-1.437,1.546l-.072.082c-.042.046-.085.091-.125.137l-5.936,6.549.164.135A192.939,192.939,0,0,0,435.525,521.813q6.633-6.978,12.484-14.478l3.608-3.986ZM346.7,220.953c.389.118.778.23,1.166.35q1.963.614,3.912,1.271a.05.05,0,0,0,.017.005,176.026,176.026,0,0,1,68.036,42.367,188.99,188.99,0,0,1-38.31,20.3,224.62,224.62,0,0,0-14.408-32.472c-7.178-13.114-15.179-24.1-23.784-32.816.177.05.354.1.529.145.952.272,1.9.558,2.842.847m52.258,157.4a337.343,337.343,0,0,0-12.12-76.468,206.02,206.02,0,0,0,44.777-23.9,174.584,174.584,0,0,1,39.135,98.557ZM387.735,484.3a177.828,177.828,0,0,1,38.31,20.945A173.751,173.751,0,0,1,358.384,547.1,158.8,158.8,0,0,0,373.9,521.2a228.094,228.094,0,0,0,13.839-36.9M358.192,513.6c-8.95,18.514-19.586,32.327-31.18,40.828a178.967,178.967,0,0,1-18.715,1.6l-2.211-87.5a234.019,234.019,0,0,1,65.179,9.958A211.937,211.937,0,0,1,358.192,513.6M178.31,504.687a185.528,185.528,0,0,1,29.961-16.831,228.89,228.89,0,0,0,16.009,37.121,168.781,168.781,0,0,0,11.26,17.91,175.447,175.447,0,0,1-57.23-38.2M239.58,516.6a212.621,212.621,0,0,1-15.088-35.2,234.688,234.688,0,0,1,65.112-12.55l2.2,86.949a175.419,175.419,0,0,1-23.153-2.953c-10.47-8.082-20.336-20.295-29.068-36.249m60.076-302.515c18.949,3.384,37.208,19.757,52.155,47.064a207.822,207.822,0,0,1,13.242,29.827,239.392,239.392,0,0,1-63.2,9.962Zm-16.481.36,2.182,86.353A230.94,230.94,0,0,1,223,289.752a203.1,203.1,0,0,1,10.2-25.6c13.611-28.158,31.12-45.468,49.975-49.7m2.624,103.83,1.589,62.9-77.915,1.968a316.534,316.534,0,0,1,8.745-76.641A249.157,249.157,0,0,0,285.8,318.275m2.005,79.378,1.359,53.76a252.523,252.523,0,0,0-69.6,13.253,323.725,323.725,0,0,1-9.666-65.046Zm17.84,53.428-1.36-53.845,77.636-1.962a323.145,323.145,0,0,1-6.537,66.267,251.9,251.9,0,0,0-69.738-10.459m-1.778-70.325-1.576-62.382a256.674,256.674,0,0,0,68.045-10.79,320.091,320.091,0,0,1,11.18,71.21ZM239.6,222.574c-8.156,9.14-15.594,20.52-22.1,33.983a219.411,219.411,0,0,0-10.823,27.049,176.022,176.022,0,0,1-34.425-19.338A175.613,175.613,0,0,1,239.6,222.574m-37.821,77.874c-6.505,25.485-9.864,53.781-9.744,83.136l-71.79,1.815a174.742,174.742,0,0,1,40.174-108.187,193.476,193.476,0,0,0,41.36,23.236m-9.314,99.614a340.312,340.312,0,0,0,10.758,70.971,199.546,199.546,0,0,0-43.4,25.623l-1.569,1.229a174.547,174.547,0,0,1-37.572-96.009Zm199.528,67.184a339.67,339.67,0,0,0,7.368-72.413l71.777-1.815a174.561,174.561,0,0,1-33.585,99.039,195.675,195.675,0,0,0-45.56-24.812" transform="translate(-46.235 -88.16)" fill="#008ed1"/>
              <path id="Trazado_465677" data-name="Trazado 465677" d="M330.725,1110.416h691.917l-66.171-96.472H398.335Z" transform="translate(-148.808 -456.217)" fill="#86becf"/>
              <path id="Trazado_465678" data-name="Trazado 465678" d="M330.725,1189.331l5.018,9.265a5.427,5.427,0,0,0,4.807,2.687h671.2a6.323,6.323,0,0,0,5.446-2.9l5.446-9.051Z" transform="translate(-148.808 -535.131)" fill="#0c2866"/>
              <path id="Trazado_465679" data-name="Trazado 465679" d="M1011.322,759.838h-557.8V475.465a26.269,26.269,0,0,1,26.27-26.269H986.653a24.668,24.668,0,0,1,24.668,24.668Z" transform="translate(-204.058 -202.111)" fill="#052e6e"/>
              <path id="Trazado_465680" data-name="Trazado 465680" d="M456.811,475.67c0-12.939,11.334-23.427,25.317-23.427H989.3a26.466,26.466,0,0,1,16.177,5.411,26.106,26.106,0,0,0-19.469-8.457H478.835c-13.981,0-25.316,10.489-25.316,23.427V759.838h3.292Z" transform="translate(-204.058 -202.111)" fill="#2cb8ee"/>
            </g>
          </g>
          <g id="Grupo_709481" data-name="Grupo 709481" transform="translate(283.074 271.446)">
            <g id="Grupo_709480" data-name="Grupo 709480" clip-path="url(#clip-path-3)">
              <rect id="Rectángulo_262959" data-name="Rectángulo 262959" width="490.576" height="278.474" transform="translate(0 0)" fill="url(#linear-gradient)"/>
            </g>
          </g>
          <g id="Grupo_709483" data-name="Grupo 709483" transform="translate(0 -0.002)">
            <g id="Grupo_709482" data-name="Grupo 709482" clip-path="url(#clip-path-2)">
              <path id="Trazado_465682" data-name="Trazado 465682" d="M1009.279,1093.84l-34.762-61.2H500.5L465,1093.824a2.115,2.115,0,0,0,2.094,3.057h540.088a2.116,2.116,0,0,0,2.1-3.041" transform="translate(-209.103 -464.629)" fill="#2f88ca"/>
              <path id="Trazado_465683" data-name="Trazado 465683" d="M620.368,731.8h-224.3a6.8,6.8,0,0,1-6.8-6.8V602.213a6.8,6.8,0,0,1,6.8-6.8h224.3a6.8,6.8,0,0,1,6.8,6.8V725a6.8,6.8,0,0,1-6.8,6.8" transform="translate(-175.149 -267.901)" fill="#85cff4"/>
              <path id="Trazado_465684" data-name="Trazado 465684" d="M483.532,672.75H431.8a3.816,3.816,0,0,1-3.816-3.816V623.14a3.816,3.816,0,0,1,3.816-3.816h51.73a3.816,3.816,0,0,1,3.816,3.816v45.794a3.816,3.816,0,0,1-3.816,3.816" transform="translate(-192.57 -278.659)" fill="#1175bc"/>
              <path id="Trazado_465685" data-name="Trazado 465685" d="M480.178,669.523H431.573a3.585,3.585,0,0,1-3.586-3.586V622.91a3.586,3.586,0,0,1,3.586-3.586h48.605a3.586,3.586,0,0,1,3.586,3.586v43.028a3.586,3.586,0,0,1-3.586,3.586" transform="translate(-192.571 -278.659)" fill="#fff"/>
              <path id="Trazado_465686" data-name="Trazado 465686" d="M466.687,653.186l-5.179,9.163-10.756-19.123-22.642,33.8a3.553,3.553,0,0,0,3.518,3.249h48.605a3.585,3.585,0,0,0,3.586-3.585v-5.015Z" transform="translate(-192.625 -289.414)" fill="#1175bc"/>
              <path id="Trazado_465687" data-name="Trazado 465687" d="M507.447,637.422a4.336,4.336,0,1,1-4.336-4.336,4.336,4.336,0,0,1,4.336,4.336" transform="translate(-224.421 -284.852)" fill="#1175bc"/>
              <path id="Trazado_465688" data-name="Trazado 465688" d="M614.839,672.75h-51.73a3.816,3.816,0,0,1-3.816-3.816V623.14a3.816,3.816,0,0,1,3.816-3.816h51.73a3.816,3.816,0,0,1,3.816,3.816v45.794a3.816,3.816,0,0,1-3.816,3.816" transform="translate(-251.651 -278.659)" fill="#1175bc"/>
              <path id="Trazado_465689" data-name="Trazado 465689" d="M611.484,669.523H562.878a3.585,3.585,0,0,1-3.585-3.586V622.91a3.586,3.586,0,0,1,3.585-3.586h48.606a3.586,3.586,0,0,1,3.586,3.586v43.028a3.586,3.586,0,0,1-3.586,3.586" transform="translate(-251.651 -278.659)" fill="#fff"/>
              <path id="Trazado_465690" data-name="Trazado 465690" d="M597.994,653.186l-5.179,9.163-10.756-19.123-22.642,33.8a3.552,3.552,0,0,0,3.518,3.249H611.54a3.585,3.585,0,0,0,3.585-3.585v-5.015Z" transform="translate(-251.706 -289.414)" fill="#1175bc"/>
              <path id="Trazado_465691" data-name="Trazado 465691" d="M638.754,637.422a4.336,4.336,0,1,1-4.336-4.336,4.336,4.336,0,0,1,4.336,4.336" transform="translate(-283.502 -284.852)" fill="#1175bc"/>
            </g>
          </g>
          <g id="Grupo_709485" data-name="Grupo 709485" transform="translate(235.484 410.346)">
            <g id="Grupo_709484" data-name="Grupo 709484" clip-path="url(#clip-path-5)">
              <rect id="Rectángulo_262961" data-name="Rectángulo 262961" width="92.666" height="11.047" fill="url(#linear-gradient-2)"/>
            </g>
          </g>
          <g id="Grupo_709487" data-name="Grupo 709487" transform="translate(235.484 432.258)">
            <g id="Grupo_709486" data-name="Grupo 709486" clip-path="url(#clip-path-6)">
              <rect id="Rectángulo_262963" data-name="Rectángulo 262963" width="134.155" height="11.047" fill="url(#linear-gradient-3)"/>
            </g>
          </g>
          <g id="Grupo_709489" data-name="Grupo 709489" transform="translate(380.47 340.662)">
            <g id="Grupo_709488" data-name="Grupo 709488" clip-path="url(#clip-path-7)">
              <rect id="Rectángulo_262965" data-name="Rectángulo 262965" width="53.426" height="53.426" fill="url(#linear-gradient-4)"/>
            </g>
          </g>
          <g id="Grupo_709491" data-name="Grupo 709491" transform="translate(0 -0.002)">
            <g id="Grupo_709490" data-name="Grupo 709490" clip-path="url(#clip-path-2)">
              <path id="Trazado_465692" data-name="Trazado 465692" d="M1305.574,727.636H1082.563a.287.287,0,0,1-.287-.287V595.024a.287.287,0,0,1,.287-.287h223.011a.287.287,0,0,1,.287.287V727.349a.287.287,0,0,1-.287.287" transform="translate(-486.964 -267.597)" fill="#111e57"/>
              <path id="Trazado_465693" data-name="Trazado 465693" d="M1303.165,725.577H1082.559a.283.283,0,0,1-.283-.283V595.021a.283.283,0,0,1,.283-.283h220.606a.284.284,0,0,1,.283.283V725.294a.284.284,0,0,1-.283.283" transform="translate(-486.964 -267.597)" fill="#85cff4"/>
              <path id="Trazado_465694" data-name="Trazado 465694" d="M1227.773,760.472H1101.916v8.336h125.858v-8.336Z" transform="translate(-495.801 -342.168)" fill="#003a8f"/>
              <path id="Trazado_465695" data-name="Trazado 465695" d="M1227.773,709.137H1101.916V646.381h125.858v62.756h0" transform="translate(-495.801 -290.833)" fill="#111e57"/>
              <path id="Trazado_465696" data-name="Trazado 465696" d="M1219.782,687.87a19.017,19.017,0,1,1-19.017-19.018,19.017,19.017,0,0,1,19.017,19.018" transform="translate(-531.721 -300.944)" fill="#e93634"/>
              <path id="Trazado_465697" data-name="Trazado 465697" d="M1201.041,685.849v19.337l16.809-9.668Z" transform="translate(-540.402 -308.592)" fill="#fff"/>
              <path id="Trazado_465698" data-name="Trazado 465698" d="M1113.522,768.418h-5.3a.216.216,0,0,1-.216-.216v-3.628a.216.216,0,0,1,.216-.217h5.3a.216.216,0,0,1,.216.217V768.2a.216.216,0,0,1-.216.216" transform="translate(-498.539 -343.917)" fill="#f1fafc"/>
              <path id="Trazado_465699" data-name="Trazado 465699" d="M1113.454,766.983a1.3,1.3,0,1,1-1.3-1.3,1.3,1.3,0,0,1,1.3,1.3" transform="translate(-499.819 -344.511)" fill="#f1fafc"/>
              <path id="Trazado_465700" data-name="Trazado 465700" d="M1111.807,766.429v1.783l1.55-.892Z" transform="translate(-500.252 -344.848)" fill="#003a8f"/>
              <path id="Trazado_465701" data-name="Trazado 465701" d="M1411.814,676.989h-64.685v-34.6h64.685v34.6" transform="translate(-606.134 -289.038)" fill="#111e57"/>
              <path id="Trazado_465702" data-name="Trazado 465702" d="M1407.582,666.408a9.087,9.087,0,1,1-9.087-9.087,9.087,9.087,0,0,1,9.087,9.087" transform="translate(-625.157 -295.756)" fill="#28a5c3"/>
              <path id="Trazado_465703" data-name="Trazado 465703" d="M1398.628,665.442v9.24l8.032-4.62Z" transform="translate(-629.305 -299.41)" fill="#c9eaf2"/>
              <path id="Trazado_465704" data-name="Trazado 465704" d="M1376.432,727.8h-30.3V710.288h30.3V727.8" transform="translate(-605.685 -319.588)" fill="#111e57"/>
              <path id="Trazado_465705" data-name="Trazado 465705" d="M1374.468,722.641a4.359,4.359,0,1,1-4.359-4.359,4.359,4.359,0,0,1,4.359,4.359" transform="translate(-614.512 -323.185)" fill="#28a5c3"/>
              <path id="Trazado_465706" data-name="Trazado 465706" d="M1370.172,722.178v4.432l3.853-2.216Z" transform="translate(-616.502 -324.938)" fill="#c9eaf2"/>
              <rect id="Rectángulo_262967" data-name="Rectángulo 262967" width="28.867" height="2.66" transform="translate(773.339 392.914)" fill="#111e57"/>
              <rect id="Rectángulo_262968" data-name="Rectángulo 262968" width="28.867" height="2.66" transform="translate(773.339 398.127)" fill="#111e57"/>
              <rect id="Rectángulo_262969" data-name="Rectángulo 262969" width="18.076" height="2.66" transform="translate(773.339 403.34)" fill="#111e57"/>
              <path id="Trazado_465707" data-name="Trazado 465707" d="M1376.432,763.214h-30.3V745.7h30.3v17.513" transform="translate(-605.685 -335.522)" fill="#111e57"/>
              <path id="Trazado_465708" data-name="Trazado 465708" d="M1374.468,758.054a4.359,4.359,0,1,1-4.359-4.359,4.359,4.359,0,0,1,4.359,4.359" transform="translate(-614.512 -339.119)" fill="#28a5c3"/>
              <path id="Trazado_465709" data-name="Trazado 465709" d="M1370.172,757.591v4.432l3.853-2.216Z" transform="translate(-616.502 -340.872)" fill="#c9eaf2"/>
              <rect id="Rectángulo_262970" data-name="Rectángulo 262970" width="28.867" height="2.66" transform="translate(773.339 412.393)" fill="#111e57"/>
              <rect id="Rectángulo_262971" data-name="Rectángulo 262971" width="28.867" height="2.66" transform="translate(773.339 417.605)" fill="#111e57"/>
              <rect id="Rectángulo_262972" data-name="Rectángulo 262972" width="18.076" height="2.66" transform="translate(773.339 422.818)" fill="#111e57"/>
              <path id="Trazado_465710" data-name="Trazado 465710" d="M1376.432,798.626h-30.3V781.113h30.3v17.513" transform="translate(-605.685 -351.455)" fill="#111e57"/>
              <path id="Trazado_465711" data-name="Trazado 465711" d="M1374.468,793.467a4.359,4.359,0,1,1-4.359-4.359,4.359,4.359,0,0,1,4.359,4.359" transform="translate(-614.512 -355.053)" fill="#28a5c3"/>
              <path id="Trazado_465712" data-name="Trazado 465712" d="M1370.172,793v4.432l3.853-2.216Z" transform="translate(-616.502 -356.806)" fill="#c9eaf2"/>
              <rect id="Rectángulo_262973" data-name="Rectángulo 262973" width="28.867" height="2.66" transform="translate(773.339 431.871)" fill="#111e57"/>
              <rect id="Rectángulo_262974" data-name="Rectángulo 262974" width="28.867" height="2.66" transform="translate(773.339 437.084)" fill="#111e57"/>
              <rect id="Rectángulo_262975" data-name="Rectángulo 262975" width="18.076" height="2.66" transform="translate(773.339 442.297)" fill="#111e57"/>
              <path id="Trazado_465713" data-name="Trazado 465713" d="M1225.18,767.931H1123.932a.433.433,0,0,1-.432-.432v-.918a.433.433,0,0,1,.432-.433H1225.18a.433.433,0,0,1,.432.433v.918a.433.433,0,0,1-.432.432" transform="translate(-505.513 -344.722)" fill="#85cff4"/>
              <path id="Trazado_465714" data-name="Trazado 465714" d="M1174.983,795.59h-70.574a2.493,2.493,0,0,1,0-4.986h70.574a2.493,2.493,0,0,1,0,4.986" transform="translate(-495.801 -355.726)" fill="#111e57"/>
              <path id="Trazado_465715" data-name="Trazado 465715" d="M1187.42,812.382h-83.012a2.493,2.493,0,0,1,0-4.986h83.012a2.493,2.493,0,0,1,0,4.986" transform="translate(-495.801 -363.281)" fill="#111e57"/>
              <path id="Trazado_465716" data-name="Trazado 465716" d="M1310.681,795.683h-13.909a3.288,3.288,0,1,1,0-6.575h13.909a3.288,3.288,0,0,1,0,6.575" transform="translate(-581.996 -355.053)" fill="#e93634"/>
              <path id="Trazado_465717" data-name="Trazado 465717" d="M1117.21,621.262h-10.1a5.191,5.191,0,0,1,0-10.382h10.1a5.191,5.191,0,0,1,0,10.382" transform="translate(-495.801 -274.86)" fill="#e93634"/>
              <path id="Trazado_465718" data-name="Trazado 465718" d="M1267.789,621.262H1157.171a5.191,5.191,0,0,1,0-10.382h110.618a5.191,5.191,0,0,1,0,10.382" transform="translate(-518.327 -274.86)" fill="#111e57"/>
              <rect id="Rectángulo_262976" data-name="Rectángulo 262976" width="11.157" height="2.195" transform="translate(794.524 337.257)" fill="#111e57"/>
              <rect id="Rectángulo_262977" data-name="Rectángulo 262977" width="11.157" height="2.195" transform="translate(794.524 340.122)" fill="#111e57"/>
              <rect id="Rectángulo_262978" data-name="Rectángulo 262978" width="11.157" height="2.195" transform="translate(794.524 342.988)" fill="#111e57"/>
              <path id="Trazado_465719" data-name="Trazado 465719" d="M1159.4,767.931h-35.5a.4.4,0,0,1-.4-.4v-.981a.4.4,0,0,1,.4-.4h35.5Z" transform="translate(-505.513 -344.722)" fill="#e93634"/>
              <path id="Trazado_465720" data-name="Trazado 465720" d="M955.678,381.655l-2.3-.008.068-9.508a16.1,16.1,0,0,0-32.206-.188l-.069,9.578-2.221-.008c-2-.007-3.634,1.266-3.648,2.843l-.271,28.163c-.015,1.578,1.594,2.862,3.594,2.87l36.732.134c2,.007,3.634-1.266,3.648-2.843l.271-28.163c.015-1.577-1.594-2.862-3.594-2.87m-18.267-19.639A10.05,10.05,0,0,1,947.42,372.1l-.068,9.521-20.163-.074.069-9.565a10.082,10.082,0,0,1,10.153-9.969m2.69,42.747-6.427-.024,1.172-5.494a4.041,4.041,0,0,1-1.585-3.294,3.883,3.883,0,0,1,3.75-3.971,3.828,3.828,0,0,1,3.673,4,4.1,4.1,0,0,1-1.648,3.283Z" transform="translate(-411.712 -160.253)" fill="#fb990e"/>
              <path id="Trazado_465721" data-name="Trazado 465721" d="M942.476,356.166A16.035,16.035,0,0,0,926.26,371.95l-.068,9.413h6.022l.068-9.377a10.081,10.081,0,0,1,20.161.118l-.065,9.259H958.4l.067-9.224a15.986,15.986,0,0,0-15.99-15.973" transform="translate(-416.735 -160.253)" fill="#fbfdf9"/>
              <path id="Trazado_465722" data-name="Trazado 465722" d="M1206,295.053c-1.5-16.487-17.906-29.475-37.938-29.475-19.938,0-36.285,12.867-37.917,29.244h-8.006c-14.212,0-25.733,10.579-25.733,23.629s11.521,23.629,25.733,23.629h80.453c14.212,0,25.733-10.58,25.733-23.629,0-11.986-9.728-21.863-22.324-23.4" transform="translate(-493.322 -119.493)" fill="#052e6e"/>
              <path id="Trazado_465723" data-name="Trazado 465723" d="M1201.014,293.712c-1.432-15.736-17.091-28.133-36.212-28.133-19.031,0-34.634,12.281-36.192,27.913h-7.642c-13.565,0-24.562,10.1-24.562,22.554s11,22.554,24.562,22.554h76.792c13.565,0,24.562-10.1,24.562-22.554,0-11.441-9.285-20.868-21.308-22.333" transform="translate(-493.322 -119.494)" fill="#fff"/>
              <path id="Trazado_465724" data-name="Trazado 465724" d="M1210.151,341.255l-18.513,21.738c-.266.312.044.715.552.715h37.025c.508,0,.819-.4.552-.715l-18.513-21.738a.8.8,0,0,0-1.1,0" transform="translate(-536.127 -153.443)" fill="#0c2756"/>
              <rect id="Rectángulo_262979" data-name="Rectángulo 262979" width="19.64" height="25.822" transform="translate(664.755 207.739)" fill="#0c2756"/>
              <path id="Trazado_465725" data-name="Trazado 465725" d="M977.508,564.392c-49.369-1.937-103.359-32.458-103.359-32.458s-54.6,29.381-104,30.282c0,0-17.568,151.636,105.177,205.9C997.6,716.046,977.508,564.392,977.508,564.392" transform="translate(-346.134 -239.339)" fill="#0060ad"/>
              <path id="Trazado_465726" data-name="Trazado 465726" d="M982.871,578.047C935.191,576.176,883.05,546.7,883.05,546.7s-52.731,28.375-100.438,29.245c0,0-20.432,146.41,98.111,198.813,119.588-49.9,102.149-196.711,102.149-196.711" transform="translate(-351.528 -245.983)" fill="#fff"/>
            </g>
          </g>
          <g id="Grupo_709493" data-name="Grupo 709493" transform="translate(439.07 311.464)">
            <g id="Grupo_709492" data-name="Grupo 709492" clip-path="url(#clip-path-9)">
              <rect id="Rectángulo_262981" data-name="Rectángulo 262981" width="208.796" height="218.186" transform="matrix(0.01, -1, 1, 0.01, -19.467, 206.538)" fill="url(#linear-gradient-5)"/>
            </g>
          </g>
          <g id="Grupo_709498" data-name="Grupo 709498" transform="translate(0 -0.002)">
            <g id="Grupo_709497" data-name="Grupo 709497" clip-path="url(#clip-path-2)">
              <g id="Grupo_709496" data-name="Grupo 709496" transform="translate(444.935 318.101)" opacity="0.54">
                <g id="Grupo_709495" data-name="Grupo 709495">
                  <g id="Grupo_709494" data-name="Grupo 709494" clip-path="url(#clip-path-11)">
                    <path id="Trazado_465728" data-name="Trazado 465728" d="M980.048,604.873c-40.479-1.586-84.746-26.568-84.746-26.568s-44.768,24.048-85.27,24.784c0,0-17.344,124.088,83.3,168.5,101.526-42.293,86.719-166.719,86.719-166.719" transform="translate(-808.892 -578.305)" fill="#818181"/>
                  </g>
                </g>
              </g>
            </g>
          </g>
          <g id="Grupo_709500" data-name="Grupo 709500" transform="translate(456.004 325.945)">
            <g id="Grupo_709499" data-name="Grupo 709499" clip-path="url(#clip-path-12)">
              <rect id="Rectángulo_262984" data-name="Rectángulo 262984" width="177.481" height="182.277" transform="translate(-14.295 0)" fill="url(#linear-gradient-6)"/>
            </g>
          </g>
          <g id="Grupo_709502" data-name="Grupo 709502" transform="translate(456.011 326.825)">
            <g id="Grupo_709501" data-name="Grupo 709501" clip-path="url(#clip-path-13)">
              <rect id="Rectángulo_262985" data-name="Rectángulo 262985" width="176.004" height="175.837" transform="translate(-14.149)" fill="url(#linear-gradient-7)"/>
            </g>
          </g>
          <g id="Grupo_709510" data-name="Grupo 709510" transform="translate(0 -0.002)">
            <g id="Grupo_709509" data-name="Grupo 709509" clip-path="url(#clip-path-2)">
              <g id="Grupo_709505" data-name="Grupo 709505" transform="translate(456.011 354.211)" opacity="0.15">
                <g id="Grupo_709504" data-name="Grupo 709504">
                  <g id="Grupo_709503" data-name="Grupo 709503" clip-path="url(#clip-path-15)">
                    <path id="Trazado_465731" data-name="Trazado 465731" d="M949.269,755.635c-14.135,5.663-36.316,12.345-60.121-.96-32.444-18.134-52.333-84.309-59.591-110.723-1.7,21.931-3.881,113.066,72.92,148.454a114.846,114.846,0,0,0,46.793-36.77" transform="translate(-829.027 -643.951)" fill="#121a50"/>
                  </g>
                </g>
              </g>
              <g id="Grupo_709508" data-name="Grupo 709508" transform="translate(558.988 344.063)" opacity="0.36">
                <g id="Grupo_709507" data-name="Grupo 709507">
                  <g id="Grupo_709506" data-name="Grupo 709506" clip-path="url(#clip-path-16)">
                    <path id="Trazado_465732" data-name="Trazado 465732" d="M1016.243,625.5s14.484,7.869,40.387,10.147c0,0,6.963,18.941-2.785,46.052,0,0,6.964-29.9-37.6-56.2" transform="translate(-1016.241 -625.503)" fill="#fff"/>
                  </g>
                </g>
              </g>
              <path id="Trazado_465733" data-name="Trazado 465733" d="M983.34,683.039a91.354,91.354,0,0,0-17.99,10.218,181.9,181.9,0,0,0-16.317,13.183c-5.251,4.67-10.278,9.615-15.2,14.7-3,3.12-5.916,6.284-8.813,9.52L900.625,705.9l-2.728,2.5,21.648,39.119,4.167,7.529,7.568-7.689,0,0c3.474-5.748,7.406-11.625,11.356-17.262,3.988-5.656,8.109-11.22,12.462-16.533a183.658,183.658,0,0,1,13.694-15.238,91.488,91.488,0,0,1,15.6-12.635Z" transform="translate(-404.004 -307.328)" fill="#fff"/>
              <path id="Trazado_465734" data-name="Trazado 465734" d="M426.664,96.884a5.414,5.414,0,0,1-3.215-1.022A3.682,3.682,0,0,1,423,90.057a34.692,34.692,0,0,1,20.988-8.6c8.288-.386,16.351,2.411,23.937,8.288a3.678,3.678,0,0,1,.293,5.812,5.534,5.534,0,0,1-6.892.248c-5.58-4.322-11.232-6.376-16.812-6.131a24.4,24.4,0,0,0-14.182,5.815,5.3,5.3,0,0,1-3.668,1.4" transform="translate(-189.781 -36.631)" fill="#00378d"/>
              <path id="Trazado_465735" data-name="Trazado 465735" d="M466.858,64.646a5.209,5.209,0,0,1-3.268-1.122c-29.2-23.526-54.721-1.132-55.792-.167a5.307,5.307,0,0,1-6.9.028,4.027,4.027,0,0,1-.031-6.153c.33-.3,33.229-29.192,69.262-.166a4.03,4.03,0,0,1,.35,6.145,5.153,5.153,0,0,1-3.622,1.434" transform="translate(-179.733 -19.86)" fill="#00378d"/>
              <path id="Trazado_465736" data-name="Trazado 465736" d="M385.147,30.392a5.065,5.065,0,0,1-3.246-1.155,4.334,4.334,0,0,1-.4-6.411c.4-.419,40.443-41.365,90.415-2.3a4.341,4.341,0,0,1,.605,6.409,5.124,5.124,0,0,1-6.872.564c-42.618-33.315-75.487-.049-76.865,1.383a5.042,5.042,0,0,1-3.639,1.513" transform="translate(-171.101 -1.64)" fill="#00378d"/>
              <path id="Trazado_465737" data-name="Trazado 465737" d="M467.078,123.685a10.492,10.492,0,1,1-10.492-10.492,10.492,10.492,0,0,1,10.492,10.492" transform="translate(-200.718 -50.928)" fill="#00378d"/>
              <path id="Trazado_465738" data-name="Trazado 465738" d="M424.228,93.23a5.411,5.411,0,0,1-3.215-1.022,3.682,3.682,0,0,1-.449-5.805A34.69,34.69,0,0,1,441.552,77.8c8.289-.386,16.352,2.412,23.937,8.288a3.678,3.678,0,0,1,.293,5.812,5.534,5.534,0,0,1-6.892.248c-5.58-4.322-11.232-6.376-16.814-6.131A24.4,24.4,0,0,0,427.9,91.829a5.3,5.3,0,0,1-3.668,1.4" transform="translate(-188.685 -34.987)" fill="#008ed1"/>
              <path id="Trazado_465739" data-name="Trazado 465739" d="M464.422,60.992a5.209,5.209,0,0,1-3.268-1.122c-29.2-23.526-54.721-1.131-55.792-.167a5.307,5.307,0,0,1-6.9.028,4.026,4.026,0,0,1-.031-6.152c.33-.3,33.229-29.192,69.262-.166a4.029,4.029,0,0,1,.35,6.145,5.153,5.153,0,0,1-3.622,1.434" transform="translate(-178.636 -18.216)" fill="#008ed1"/>
              <path id="Trazado_465740" data-name="Trazado 465740" d="M382.71,26.737a5.065,5.065,0,0,1-3.246-1.155,4.334,4.334,0,0,1-.4-6.411c.4-.419,40.443-41.365,90.415-2.3a4.341,4.341,0,0,1,.605,6.409,5.124,5.124,0,0,1-6.872.564c-42.618-33.315-75.487-.049-76.865,1.383a5.042,5.042,0,0,1-3.639,1.513" transform="translate(-170.005 0.004)" fill="#008ed1"/>
              <path id="Trazado_465741" data-name="Trazado 465741" d="M462.839,119.447a10.492,10.492,0,1,1-10.492-10.492,10.492,10.492,0,0,1,10.492,10.492" transform="translate(-198.811 -49.022)" fill="#008ed1"/>
              <path id="Trazado_465742" data-name="Trazado 465742" d="M477.183,951.669l3.719-7.883h15.069l.772,10.8s-10.007,18.321-19.561-2.919" transform="translate(-214.706 -424.649)" fill="#f0b7b0"/>
              <path id="Trazado_465743" data-name="Trazado 465743" d="M469.1,919.6s-.294,5.142,1.763,6.9,10.136,7.346,12.194,6.9,9.255-6.023,9.843-7.786a31.555,31.555,0,0,0,.735-6.024s3.82,1.469,4.113-2.056-.588-7.527-3.526-3.911c0,0-.294-3.582-1.469-5.2,0,0,2.2-9.4-2.644-9.843s-10.724,2.645-14.544-1.322c0,0-2.673,3.82-6.479,5.142a15.707,15.707,0,0,0-.867,5.582,17.622,17.622,0,0,1-.047,4.407s-3.037-1.65-3.479,1.232,1.029,8.612,4.408,5.967" transform="translate(-209.053 -403.718)" fill="#f2a79d"/>
              <path id="Trazado_465744" data-name="Trazado 465744" d="M467.774,901.819a17.61,17.61,0,0,0,.048-4.408,15.709,15.709,0,0,1,.867-5.582c3.805-1.322,6.479-5.142,6.479-5.142,3.82,3.967,9.7.882,14.544,1.322s2.645,9.843,2.645,9.843c1.175,1.616,1.469,5.2,1.469,5.2,1.146-1.411,1.978-1.659,2.551-1.232,3.285-17.923,4.354-18.364-7.546-25.415s-18.8,2.2-18.8,2.2c-9.843.44-5.2,23.212-5.2,23.212,1-1.055,2.947,0,2.947,0" transform="translate(-208.654 -393.139)" fill="#0c2550"/>
              <path id="Trazado_465745" data-name="Trazado 465745" d="M508.483,978.747c-3.078-6.495-12.235-15.776-19.425-17.493a60.852,60.852,0,0,0-9.262-1.61c-.7,1.707-4.787,6.174-6.353,6.574a17.319,17.319,0,0,1-4.561.365,11.217,11.217,0,0,1-7.739-5.222c-.189-.184-1.089-4.8-1.266-5.006,0,0-29.094,10.694-19.858,34.567,6.793,17.559,8.537,18.054,6.524,25.974-1.532,6.026-2.472,22.046-4.3,38.176H502.1c-.212-7.873.764-12.418,1.3-18.058.076-.777.144-40.118-2.167-54.44Z" transform="translate(-197.169 -430.305)" fill="#cf0072"/>
              <path id="Trazado_465746" data-name="Trazado 465746" d="M431.536,1030.508s-1.749,24.82,3.705,36.184,20.652,16.789,21.828,14.07,5.362-12.792-7-8.943c0,0-6.722-4.915-6.07-15.9s-1.762-24.107-1.762-24.107,2.6.466-10.7-1.3" transform="translate(-194.047 -463.67)" fill="#d09faa"/>
              <path id="Trazado_465747" data-name="Trazado 465747" d="M437.006,985.214s-5.124,3.547-7.358,26.543l15.858,2.344s4.1-29-8.5-28.887" transform="translate(-193.318 -443.289)" fill="#cf0072"/>
              <path id="Trazado_465748" data-name="Trazado 465748" d="M437.532,1139.751s-.833,4.891,5.661,6.454,11.123,2.6,12.267-.562,2.164-5.011,0-5.471-17.927-.421-17.927-.421" transform="translate(-196.849 -512.823)" fill="#062444"/>
              <path id="Trazado_465749" data-name="Trazado 465749" d="M497.736,1108.985s36.82-22.14,45.8-22.14,20.845,6.591,17,14.681-26.3,14.5-37.2,16.426-24.894-6.068-25.6-8.967" transform="translate(-223.954 -489.018)" fill="#003058"/>
              <path id="Trazado_465750" data-name="Trazado 465750" d="M449.075,1108.156s-38.8-23.731-47.463-26.618-20.2,2.565-18.921,10.262,10.9,14.431,22.769,19.242,39.766,5.772,39.766,5.772Z" transform="translate(-172.146 -486.278)" fill="#003058"/>
              <path id="Trazado_465751" data-name="Trazado 465751" d="M516.355,1142.851s4.161,4.957,10.254,2.392,12.03-5.733,7.939-7.837-14.353.3-14.353.3a10.83,10.83,0,0,0-3.84,5.144" transform="translate(-232.331 -511.379)" fill="#062444"/>
              <path id="Trazado_465752" data-name="Trazado 465752" d="M496.461,1139.23s9.22,2.692,12.927,2.365c0,0,4.312-4.89,2.246-6.717-1.924-1.7-11.324-4.307-11.324-4.307Z" transform="translate(-223.38 -508.692)" fill="#e3bac4"/>
              <path id="Trazado_465753" data-name="Trazado 465753" d="M536.761,1024.765s9.347,35.345,2.829,40.255-28.618,9.211-34.128,8.8c-5.32-.4-12.4,4.285-15.2.525s-1.887-7.365,0-9.4c3.765-4.052,8.532-2.285,11.183-.957s21.309-3.68,26.639-8.4c0,0-5.2-14.057-5.231-21.844s13.909-8.98,13.909-8.98" transform="translate(-219.793 -461.086)" fill="#d09faa"/>
              <path id="Trazado_465754" data-name="Trazado 465754" d="M537.481,979.784s12.258-2.543,19.083,24.7c0,0-2.759,5.561-16.179,8.453,0,0-15.6-25.26-2.9-33.152" transform="translate(-239.597 -440.818)" fill="#cf0072"/>
              <path id="Trazado_465755" data-name="Trazado 465755" d="M489.042,1116.336H406.636a.738.738,0,0,1-.738-.738v-1.63a.738.738,0,0,1,.738-.739h82.406a.739.739,0,0,1,.738.739v1.63a.739.739,0,0,1-.738.739" transform="translate(-182.632 -500.889)" fill="#003b5b"/>
              <path id="Trazado_465756" data-name="Trazado 465756" d="M467.986,1116.683v-1.218c.157-.666-.34-1.2-.953-2.237h-60.3c-.613,1.033-1.111,1.571-.882,2.237v1.218c-.229.665.268,1.2.882-.349h60.3c.613,1.553,1.111,1.014.953.349" transform="translate(-182.585 -500.889)" fill="#00477c"/>
              <path id="Trazado_465757" data-name="Trazado 465757" d="M406.633,1077.65l-2.75-42.247a1.132,1.132,0,0,1,1.073-1.248H462.9a1.117,1.117,0,0,1,1.073,1.094l2.442,42.4Z" transform="translate(-181.724 -465.311)" fill="#00477c"/>
              <path id="Trazado_465758" data-name="Trazado 465758" d="M405.35,1077.65,402.6,1035.4a1.131,1.131,0,0,1,1.073-1.249h57.939a1.118,1.118,0,0,1,1.074,1.094l2.441,42.4Z" transform="translate(-181.147 -465.311)" fill="#7daede"/>
              <path id="Trazado_465759" data-name="Trazado 465759" d="M454.859,1071.889c0,1.942-1.218,3.517-2.719,3.517s-3.454-.782-2.719-3.517c.5-1.86.593-4.586,2.095-4.586s3.344,2.644,3.344,4.586" transform="translate(-202.142 -480.225)" fill="#95c0e4"/>
              <path id="Trazado_465760" data-name="Trazado 465760" d="M476.223,957.24a14.2,14.2,0,0,0,9.005,10.227s-6.512.805-5.966,5.457c0,0-8.147-10.624-3.04-15.684" transform="translate(-213.517 -430.703)" fill="#fbfdf9"/>
              <path id="Trazado_465761" data-name="Trazado 465761" d="M505.5,959.088s-.866,7.481-8.475,9.21c0,0,7.013,1.682,7.549,6.047,0,0,6.145-7.195.926-15.257" transform="translate(-223.635 -431.534)" fill="#fbfdf9"/>
            </g>
          </g>
        </g>
      </g>
    </g>
    <g id="Grupo_706471" data-name="Grupo 706471" transform="translate(-816.494 6861.791)">
      <path id="Trazado_465763" data-name="Trazado 465763" d="M12.5,0A12.5,12.5,0,1,1,0,12.5,12.5,12.5,0,0,1,12.5,0Z" transform="translate(1310 1057)" fill="#ffcf8a"/>
      <path id="Trazado_465762" data-name="Trazado 465762" d="M7.5,0A7.5,7.5,0,1,1,0,7.5,7.5,7.5,0,0,1,7.5,0Z" transform="translate(1315 1062)" fill="#fb990e"/>
    </g>
    <g id="Grupo_710327" data-name="Grupo 710327" transform="translate(-194.494 6684.813)">
      <path id="Trazado_242537" data-name="Trazado 242537" d="M15.094,0A15.094,15.094,0,1,1,0,15.094,15.094,15.094,0,0,1,15.094,0Z" transform="translate(1310 1057)" fill="#fdc4e2"/>
      <path id="Trazado_242538" data-name="Trazado 242538" d="M9.057,0A9.057,9.057,0,1,1,0,9.057,9.057,9.057,0,0,1,9.057,0Z" transform="translate(1316.038 1063.037)" fill="#ff2c9c"/>
      <text id="_" data-name="+" transform="translate(1325.094 1077.594)" fill="#fff" font-size="16" font-family="Roboto-Black, Roboto" font-weight="800"><tspan x="-4.273" y="0">+</tspan></text>
    </g>
    <g id="Grupo_710340" data-name="Grupo 710340" transform="translate(-134.311 2533.128)">
      <g id="Grupo_710327-2" data-name="Grupo 710327" transform="translate(-685.183 4327.872)">
        <path id="Trazado_242537-2" data-name="Trazado 242537" d="M15.094,0A15.094,15.094,0,1,1,0,15.094,15.094,15.094,0,0,1,15.094,0Z" transform="translate(1310 1057)" fill="#fdc4e2"/>
        <path id="Trazado_242538-2" data-name="Trazado 242538" d="M9.057,0A9.057,9.057,0,1,1,0,9.057,9.057,9.057,0,0,1,9.057,0Z" transform="translate(1316.038 1063.037)" fill="#ff2c9c"/>
        <text id="_2" data-name="+" transform="translate(1325.094 1077.594)" fill="#fff" font-size="16" font-family="Roboto-Black, Roboto" font-weight="800"><tspan x="-4.273" y="0">+</tspan></text>
      </g>
    </g>
    <text id="CLASIFICACIÓN_" data-name="CLASIFICACIÓN
" transform="translate(337.506 7919)" fill="#12263f" font-size="20" font-family="Roboto-Black, Roboto" font-weight="800"><tspan x="0" y="21">CLASIFICACIÓN</tspan></text>
    <text id="CONTROLES" transform="translate(1159.506 7743.959)" fill="#12263f" font-size="20" font-family="Roboto-Black, Roboto" font-weight="800"><tspan x="0" y="21">CONTROLES</tspan></text>
  </g>
</svg>
