<svg xmlns="http://www.w3.org/2000/svg" xmlns:xlink="http://www.w3.org/1999/xlink" width="1049.506" height="433.759" viewBox="0 0 1049.506 433.759">
  <defs>
    <clipPath id="clip-path">
      <rect id="Rectángulo_264385" data-name="Rectángulo 264385" width="276.897" height="246.463" transform="translate(0 0)" fill="none"/>
    </clipPath>
  </defs>
  <g id="Grupo_712069" data-name="Grupo 712069" transform="translate(-265 -2957.602)">
    <g id="Grupo_710396" data-name="Grupo 710396" transform="translate(0 7.443)">
      <path id="Path_174439" data-name="Path 174439" d="M5.125,0,0,8.88H10.25Z" transform="translate(649.643 3010.519) rotate(-150)" fill="#ff2c9c"/>
      <path id="Path_174439-2" data-name="Path 174439" d="M5.125,0,0,8.88H10.25Z" transform="translate(649.643 3037.519) rotate(-150)" fill="#ff2c9c"/>
      <path id="Path_174439-3" data-name="Path 174439" d="M5.125,0,0,8.88H10.25Z" transform="translate(649.643 3064.519) rotate(-150)" fill="#ff2c9c"/>
      <path id="Path_174439-4" data-name="Path 174439" d="M5.125,0,0,8.88H10.25Z" transform="translate(649.643 3091.519) rotate(-150)" fill="#ff2c9c"/>
      <path id="Path_174439-5" data-name="Path 174439" d="M5.125,0,0,8.88H10.25Z" transform="translate(649.643 3118.519) rotate(-150)" fill="#ff2c9c"/>
      <path id="Path_174439-6" data-name="Path 174439" d="M5.125,0,0,8.88H10.25Z" transform="translate(649.643 3145.519) rotate(-150)" fill="#ff2c9c"/>
      <path id="Path_174439-7" data-name="Path 174439" d="M5.125,0,0,8.88H10.25Z" transform="translate(649.643 3172.519) rotate(-150)" fill="#ff2c9c"/>
      <path id="Path_174439-8" data-name="Path 174439" d="M5.125,0,0,8.88H10.25Z" transform="translate(649.643 3199.519) rotate(-150)" fill="#ff2c9c"/>
      <path id="Path_174439-9" data-name="Path 174439" d="M5.125,0,0,8.88H10.25Z" transform="translate(649.643 3226.519) rotate(-150)" fill="#ff2c9c"/>
      <path id="Path_174439-10" data-name="Path 174439" d="M5.125,0,0,8.88H10.25Z" transform="translate(649.643 3253.519) rotate(-150)" fill="#ff2c9c"/>
      <path id="Path_174439-11" data-name="Path 174439" d="M5.125,0,0,8.88H10.25Z" transform="translate(649.643 3280.519) rotate(-150)" fill="#ff2c9c"/>
      <path id="Path_174439-12" data-name="Path 174439" d="M5.125,0,0,8.88H10.25Z" transform="translate(649.643 3307.519) rotate(-150)" fill="#ff2c9c"/>
      <path id="Path_174439-13" data-name="Path 174439" d="M5.125,0,0,8.88H10.25Z" transform="translate(649.643 3334.519) rotate(-150)" fill="#ff2c9c"/>
      <path id="Path_174439-14" data-name="Path 174439" d="M5.125,0,0,8.88H10.25Z" transform="translate(649.643 3361.519) rotate(-150)" fill="#ff2c9c"/>
    </g>
    <text id="Dominio_1._Políticas_de_seguridad_Dominio_2._Aspectos_organizativos_Dominio_3._Seguridad_en_cuanto_a_los_recursos_humanos_Dominio_4._Gestión_de_activos_Dominio_5._Control_de_acceso_Dominio_6._Cifrado_Criptografía_Dominio_7._Seguridad_física_y_ambiental" data-name="Dominio 1. Políticas de seguridad
Dominio 2. Aspectos organizativos
Dominio 3. Seguridad en cuanto a los recursos humanos
Dominio 4. Gestión de activos 
Dominio 5. Control de acceso 
Dominio 6. Cifrado – Criptografía
Dominio 7. Seguridad física y ambiental" transform="translate(668.506 2999.443)" fill="#12263f" font-size="16" font-family="Roboto-Regular, Roboto"><tspan x="0" y="17">Dominio 1. Políticas de seguridad</tspan><tspan x="0" y="44">Dominio 2. Aspectos organizativos</tspan><tspan x="0" y="71">Dominio 3. Seguridad en cuanto a los recursos humanos</tspan><tspan x="0" y="98">Dominio 4. Gestión de activos </tspan><tspan x="0" y="125">Dominio 5. Control de acceso </tspan><tspan x="0" y="152">Dominio 6. Cifrado – Criptografía</tspan><tspan x="0" y="179">Dominio 7. Seguridad física y ambiental </tspan><tspan x="0" y="206">Dominio 8. Seguridad en la operaciones</tspan><tspan x="0" y="233">Dominio 9. Seguridad de las comunicaciones</tspan><tspan x="0" y="260">Dominio 10. Adquisición, desarrollo y mantenimiento de sistemas informáticos.</tspan><tspan x="0" y="287">Dominio 11. Relación con los proveedores</tspan><tspan x="0" y="314">Dominio 12. Gestión de incidentes de seguridad</tspan><tspan x="0" y="341">Dominio 13. Seguridad de la información y la continuidad del negocio</tspan><tspan x="0" y="368">Dominio 14. Cumplimiento</tspan></text>
    <g id="Grupo_711955" data-name="Grupo 711955" transform="translate(275.143 2965.794)">
      <g id="Grupo_711954" data-name="Grupo 711954" transform="translate(0 0.005)" clip-path="url(#clip-path)">
        <path id="Trazado_468181" data-name="Trazado 468181" d="M201.791,85.677c32.356,0,28.661,59.033,52.017,77.026,30.913,23.819,84.093,12.025,84.093,52.9,0,71.748-68.979,97.748-144.152,97.748S54.433,273.554,76.819,201.989s49.8-116.312,124.971-116.312" transform="translate(-61.003 -72.294)" fill="#ede4f1" fill-rule="evenodd"/>
        <path id="Trazado_468182" data-name="Trazado 468182" d="M80.96,1502.576c29.049,0,52.739-3.13,52.739-6.959s-23.69-6.965-52.739-6.965-52.744,3.13-52.744,6.965,23.69,6.959,52.744,6.959" transform="translate(-23.808 -1256.114)" fill="#d1c6e2" fill-rule="evenodd"/>
        <path id="Trazado_468183" data-name="Trazado 468183" d="M1235.954,1495.06c18.61,0,33.784-3.415,33.784-7.6s-15.174-7.6-33.784-7.6-33.778,3.415-33.778,7.6,15.174,7.6,33.778,7.6" transform="translate(-1014.387 -1248.694)" fill="#d1c6e2" fill-rule="evenodd"/>
        <path id="Trazado_468184" data-name="Trazado 468184" d="M1166.651,1088.226l-1.821-4.078-4.519.48a2.049,2.049,0,0,1-1-.226,1.37,1.37,0,0,1-.614-.668,1.335,1.335,0,0,1-.043-.9,1.978,1.978,0,0,1,.544-.84l3.329-3.006-1.842-4.148a1.9,1.9,0,0,1-.1-1.029,1.339,1.339,0,0,1,.442-.781,1.376,1.376,0,0,1,.851-.323,1.974,1.974,0,0,1,.97.259l3.884,2.235c1.061-.953,2.278-2.182,3.377-3.038a2.03,2.03,0,0,1,.932-.415,1.415,1.415,0,0,1,.878.172,1.3,1.3,0,0,1,.582.722,1.9,1.9,0,0,1,.054,1l-.921,4.385,3.927,2.268a1.993,1.993,0,0,1,.679.765,1.344,1.344,0,0,1,.113.91,1.373,1.373,0,0,1-.5.76,1.89,1.89,0,0,1-.926.355l-4.465.474c-.275,1.3-.566,3.259-.943,4.449a2.1,2.1,0,0,1-.512.878,1.356,1.356,0,0,1-.835.383,1.379,1.379,0,0,1-.883-.243,1.934,1.934,0,0,1-.619-.77Z" transform="translate(-977.612 -904.322)" fill="#d1c6e2" fill-rule="evenodd"/>
        <path id="Trazado_468185" data-name="Trazado 468185" d="M554.17,758.152l.269-2.954-2.774-1.188a1.329,1.329,0,0,1-.512-.453.882.882,0,0,1,.129-1.126,1.369,1.369,0,0,1,.582-.31l2.909-.663.28-3a1.317,1.317,0,0,1,.269-.63.937.937,0,0,1,.506-.31.922.922,0,0,1,.6.089,1.259,1.259,0,0,1,.474.466l1.53,2.553c.927-.213,2.025-.522,2.941-.668a1.38,1.38,0,0,1,.679.065.908.908,0,0,1,.452.382.873.873,0,0,1,.1.609,1.289,1.289,0,0,1-.3.6l-1.95,2.241,1.541,2.588a1.308,1.308,0,0,1,.145.662.923.923,0,0,1-.232.566.9.9,0,0,1-.539.277,1.286,1.286,0,0,1-.647-.092l-2.747-1.174c-.582.665-1.379,1.7-1.993,2.273a1.332,1.332,0,0,1-.576.342.882.882,0,0,1-.6-.049.916.916,0,0,1-.436-.426,1.289,1.289,0,0,1-.108-.649Z" transform="translate(-464.937 -630.735)" fill="#d1c6e2" fill-rule="evenodd"/>
        <path id="Trazado_468186" data-name="Trazado 468186" d="M4.445,887.416a1.734,1.734,0,0,0-.873-2c-.662-.237-1.347.275-1.53,1.142q-5.567,26.711,4.029,48.554a1.1,1.1,0,0,0,1.7.6,1.926,1.926,0,0,0,.453-2.225q-9.073-20.652-3.776-46.065m3.189,10.563a112.637,112.637,0,0,0,.135,13.073,61.164,61.164,0,0,0,1.874,11.538,1.79,1.79,0,0,1-.749,2.079c-.646.3-1.357-.14-1.589-.991a65.137,65.137,0,0,1-2.014-12.3,118.919,118.919,0,0,1-.14-13.574c.043-.894.625-1.583,1.314-1.535a1.527,1.527,0,0,1,1.169,1.713" transform="translate(0 -747.055)" fill="#ede4f1" fill-rule="evenodd"/>
        <path id="Trazado_468187" data-name="Trazado 468187" d="M1643.043,802.482a1.645,1.645,0,0,1,2.214-2.435,23.347,23.347,0,0,1,6.927,11.3,35.25,35.25,0,0,1,.437,15.023,1.641,1.641,0,0,1-3.243-.512,32.123,32.123,0,0,0-.361-13.638,20.129,20.129,0,0,0-5.973-9.736m-2.86,6.72a10.788,10.788,0,0,1,2.958,4.956,12.875,12.875,0,0,1-.049,6.205,1.644,1.644,0,1,0,3.205.733,16.03,16.03,0,0,0,.021-7.778,14.1,14.1,0,0,0-3.813-6.453,1.647,1.647,0,0,0-2.322,2.338" transform="translate(-1383.565 -674.713)" fill="#fff" fill-rule="evenodd"/>
        <path id="Trazado_468188" data-name="Trazado 468188" d="M422.078,1.871l-1.885,1.091a1.339,1.339,0,0,0-.485,1.823l.42.716c.49.84.275,1.22.124,1.357-.42.374-.808.781-1.2,1.188-.113.119-.479.525-1.438-.03l-.657-.382a1.337,1.337,0,0,0-1.821.482L414.052,10a1.339,1.339,0,0,0,.474,1.826l.657.374c.894.523.873.789.754,1.172-.151.52-.323,1.042-.431,1.584-.108.48-.059.824-1.282.824h-.743a1.335,1.335,0,0,0-1.336,1.333v2.176a1.335,1.335,0,0,0,1.336,1.333h.743c1.223,0,1.174.345,1.282.824.108.541.28,1.064.431,1.586.119.38.14.646-.754,1.166l-.657.38a1.336,1.336,0,0,0-.474,1.823l1.088,1.88a1.334,1.334,0,0,0,1.821.482l.657-.38c.959-.558,1.325-.151,1.438-.032.388.407.776.814,1.2,1.188.151.137.366.517-.124,1.36l-.42.714a1.34,1.34,0,0,0,.485,1.823l1.885,1.093a1.337,1.337,0,0,0,1.821-.482l.409-.711c.5-.856.991-.821,1.2-.757.6.191,1.153.315,1.772.477.232.059.62.224.62,1.242v.762a1.329,1.329,0,0,0,1.325,1.333H431.4a1.335,1.335,0,0,0,1.336-1.333V34.3c0-1.018.388-1.182.614-1.242.62-.162,1.174-.286,1.778-.477.2-.065.689-.1,1.19.757l.415.711a1.334,1.334,0,0,0,1.821.482l1.885-1.093a1.336,1.336,0,0,0,.474-1.823L440.5,30.9c-.49-.843-.28-1.223-.129-1.36.42-.374.808-.781,1.2-1.188.119-.118.485-.525,1.438.032l.652.38a1.339,1.339,0,0,0,1.826-.482l1.093-1.88a1.334,1.334,0,0,0-.485-1.823l-.646-.38c-.894-.52-.873-.787-.759-1.166.156-.523.323-1.045.436-1.586.1-.479.054-.824,1.277-.824h.749a1.339,1.339,0,0,0,1.336-1.333V17.11a1.339,1.339,0,0,0-1.336-1.333H446.4c-1.223,0-1.174-.345-1.277-.824-.113-.541-.28-1.064-.436-1.584-.113-.382-.135-.649.759-1.172l.646-.374A1.337,1.337,0,0,0,446.575,10l-1.093-1.88a1.342,1.342,0,0,0-1.826-.482L443,8.017c-.953.555-1.32.148-1.438.03-.388-.407-.776-.813-1.2-1.188-.151-.137-.361-.517.129-1.357l.409-.716a1.336,1.336,0,0,0-.474-1.823l-1.885-1.091a1.333,1.333,0,0,0-1.821.479l-.415.714c-.5.854-.986.821-1.19.754-.6-.191-1.158-.312-1.778-.477-.226-.057-.614-.221-.614-1.242V1.338A1.335,1.335,0,0,0,431.4,0H429.22a1.329,1.329,0,0,0-1.325,1.333V2.1c0,1.021-.388,1.185-.62,1.242-.619.164-1.169.285-1.772.477-.2.067-.695.1-1.2-.754l-.409-.714a1.336,1.336,0,0,0-1.821-.479m8.23,7.789a8.538,8.538,0,1,1-8.532,8.538,8.541,8.541,0,0,1,8.532-8.538m0-2.133A10.671,10.671,0,1,1,419.643,18.2,10.672,10.672,0,0,1,430.308,7.527" transform="translate(-347.765 -0.005)" fill="#d1c6e2" fill-rule="evenodd"/>
        <path id="Trazado_468189" data-name="Trazado 468189" d="M250.5,919.517l-3.835,2.23a2.724,2.724,0,0,0-.98,3.717l.846,1.449c1,1.718.566,2.494.253,2.768-.851.76-1.643,1.589-2.435,2.419-.237.237-.975,1.067-2.919-.065l-1.336-.776a2.724,2.724,0,0,0-3.717.98l-2.225,3.83a2.723,2.723,0,0,0,.986,3.711l1.32.77c1.826,1.061,1.783,1.605,1.546,2.381-.312,1.061-.657,2.128-.889,3.226-.21.98-.113,1.681-2.6,1.681H233a2.717,2.717,0,0,0-2.715,2.715v4.428A2.717,2.717,0,0,0,233,957.7h1.524c2.483,0,2.386.7,2.6,1.681.232,1.1.576,2.165.889,3.232.237.77.28,1.314-1.546,2.375l-1.32.77a2.725,2.725,0,0,0-.986,3.711l2.225,3.83a2.724,2.724,0,0,0,3.717.981l1.336-.776c1.944-1.131,2.682-.3,2.919-.059.792.824,1.584,1.654,2.435,2.418.312.269.743,1.05-.253,2.763l-.846,1.454a2.716,2.716,0,0,0,.98,3.711l3.835,2.23a2.716,2.716,0,0,0,3.706-.981l.846-1.454c1.013-1.74,2.009-1.67,2.429-1.535,1.223.388,2.348.641,3.609.964.463.124,1.25.458,1.25,2.532V987.1a2.717,2.717,0,0,0,2.715,2.715h4.428a2.722,2.722,0,0,0,2.72-2.715v-1.551c0-2.074.792-2.408,1.25-2.532,1.255-.323,2.386-.576,3.609-.964.42-.135,1.417-.2,2.429,1.535l.84,1.454a2.728,2.728,0,0,0,3.717.981l3.83-2.23a2.726,2.726,0,0,0,.98-3.711l-.846-1.454c-1-1.713-.56-2.494-.253-2.763.851-.765,1.643-1.594,2.44-2.418.226-.242.97-1.072,2.914.059l1.336.776a2.716,2.716,0,0,0,3.711-.981l2.23-3.83a2.719,2.719,0,0,0-.98-3.711l-1.325-.77c-1.826-1.061-1.778-1.605-1.551-2.375.323-1.066.662-2.133.894-3.232.2-.98.119-1.681,2.6-1.681h1.519a2.722,2.722,0,0,0,2.72-2.715v-4.428a2.722,2.722,0,0,0-2.72-2.715h-1.519c-2.478,0-2.392-.7-2.6-1.681-.232-1.1-.571-2.165-.894-3.226-.226-.776-.275-1.32,1.551-2.381l1.325-.77a2.716,2.716,0,0,0,.98-3.711l-2.23-3.83a2.716,2.716,0,0,0-3.711-.98l-1.336.776c-1.944,1.131-2.688.3-2.914.065-.8-.829-1.589-1.659-2.44-2.419-.307-.275-.743-1.05.253-2.768l.846-1.449a2.733,2.733,0,0,0-.98-3.717l-3.83-2.23a2.73,2.73,0,0,0-3.717.986l-.84,1.449c-1.013,1.74-2.009,1.67-2.429,1.54-1.223-.388-2.354-.646-3.609-.97-.458-.119-1.25-.458-1.25-2.532V918.44a2.722,2.722,0,0,0-2.72-2.715h-4.428a2.717,2.717,0,0,0-2.715,2.715v1.551c0,2.074-.786,2.413-1.25,2.532-1.26.323-2.386.582-3.609.97-.42.129-1.417.2-2.429-1.54l-.846-1.449a2.717,2.717,0,0,0-3.706-.986m16.773,15.869a17.382,17.382,0,1,1-17.387,17.382,17.384,17.384,0,0,1,17.387-17.382m0-4.341a21.726,21.726,0,1,1-21.729,21.723,21.723,21.723,0,0,1,21.729-21.723" transform="translate(-194.312 -772.682)" fill="#d1c6e2" fill-rule="evenodd"/>
        <path id="Trazado_468190" data-name="Trazado 468190" d="M651.214,1177.034h59.3a6.663,6.663,0,0,1,6.641,6.647v35.787a6.662,6.662,0,0,1-6.641,6.641h-79.2l13.25-10.789v-31.64a6.664,6.664,0,0,1,6.647-6.647" transform="translate(-532.7 -993.173)" fill="#9588c0" fill-rule="evenodd"/>
        <path id="Trazado_468191" data-name="Trazado 468191" d="M774.15,1235.688h51.317a1.869,1.869,0,0,1,0,3.739H774.15a1.869,1.869,0,0,1,0-3.739m0,27.013h51.317a1.869,1.869,0,0,1,0,3.738H774.15a1.869,1.869,0,1,1,0-3.738m0-9.006h51.317a1.869,1.869,0,0,1,0,3.738H774.15a1.869,1.869,0,1,1,0-3.738m0-9.006h51.317a1.869,1.869,0,0,1,0,3.738H774.15a1.869,1.869,0,0,1,0-3.738" transform="translate(-651.645 -1042.664)" fill="#fff" fill-rule="evenodd"/>
        <path id="Trazado_468192" data-name="Trazado 468192" d="M735.518,919.311H700.872a9.211,9.211,0,0,0,0,18.422h86.582c-4.3,0-7.81-4.147-7.81-9.211s3.512-9.211,7.81-9.211H735.518Z" transform="translate(-583.618 -775.708)" fill="#d7cce5" fill-rule="evenodd"/>
        <path id="Trazado_468193" data-name="Trazado 468193" d="M673.039,286.254a9.241,9.241,0,0,1,9.211-9.211h29.712l55.48.005c.075-.005.14-.005.215-.005h1.174c-4.3,0-7.81,4.148-7.81,9.211s3.512,9.211,7.81,9.211H682.25a9.241,9.241,0,0,1-9.211-9.211M716.9,158.143H681.814a12.257,12.257,0,0,0-12.222,12.219V286.739a11.333,11.333,0,0,0,11.3,11.3h86.55a5.225,5.225,0,0,0,5.209-5.214V163.47a5.343,5.343,0,0,0-5.327-5.327Z" transform="translate(-564.996 -133.441)" fill="#38308d" fill-rule="evenodd"/>
        <path id="Trazado_468194" data-name="Trazado 468194" d="M830.557,980.759H843.71v22.149l-6.469-6.415-6.685,6.415Z" transform="translate(-700.817 -827.557)" fill="#f59b1d" fill-rule="evenodd"/>
        <path id="Trazado_468195" data-name="Trazado 468195" d="M834.851,277.043q3.482-1.236,3.819-4.212V163.47a5.343,5.343,0,0,0-5.327-5.327h-85.51v118.9h30.148l55.48.005.215-.005Z" transform="translate(-631.016 -133.441)" fill="#9588c0" fill-rule="evenodd"/>
        <path id="Trazado_468196" data-name="Trazado 468196" d="M898.355,199.965a44.568,44.568,0,0,1,59.8,65.72l.21.272a2.535,2.535,0,0,1-.452,3.55l-7.148,5.532a2.539,2.539,0,0,1-3.55-.452l-.21-.269a44.568,44.568,0,0,1-48.651-74.352m3.8,4.918a38.349,38.349,0,1,0,53.8,6.843,38.351,38.351,0,0,0-53.8-6.843" transform="translate(-743.44 -160.857)" fill="#2b2870" fill-rule="evenodd"/>
        <path id="Trazado_468197" data-name="Trazado 468197" d="M1334.391,695.553l13.924,17.98-7.142,5.532-13.929-17.98Z" transform="translate(-1119.918 -586.903)" fill="#7162aa" fill-rule="evenodd"/>
        <path id="Trazado_468198" data-name="Trazado 468198" d="M1411.111,813.348l7.142-5.532a2.541,2.541,0,0,1,3.55.452l35.023,45.23a2.536,2.536,0,0,1-.452,3.555l-7.143,5.532a2.534,2.534,0,0,1-3.55-.452l-35.023-45.23a2.537,2.537,0,0,1,.453-3.555" transform="translate(-1189.856 -681.187)" fill="#2b2870" fill-rule="evenodd"/>
        <path id="Trazado_468199" data-name="Trazado 468199" d="M120.482,1486.154c-4.18-1.476-4.514-3.63-6.766-4.675-2.262-1.061-2.526-2.952-.312-5,1.637,1.309,3.674,2.92,4.751,2.068.716-.571,3.156-.533,3.636.3,2.122,4.934,5.074,3.367,5.656,5.618.07,2.984-5.047,2.365-6.965,1.691" transform="translate(-94.399 -1245.843)" fill="#1b2452" fill-rule="evenodd"/>
        <path id="Trazado_468200" data-name="Trazado 468200" d="M298.639,1502.935c-7.713-.129-13.477-.221-16.143-1.061-2.871-.91-2.279-2.661-.63-5.467,7.272,3.35,5.333-.684,8.737-.172q3.579,2.884,10.611,3.867c1.982,1.465,1.174,2.763-2.575,2.833" transform="translate(-236.672 -1262.473)" fill="#1b2452" fill-rule="evenodd"/>
        <path id="Trazado_468201" data-name="Trazado 468201" d="M226.077,209.453c1.228.086,3.167-.148,3.512-.585a15.579,15.579,0,0,0,2.559-4.495c-.259-.727-.523-1.648-.8-2.758q-7.126-4.836-1.95-7.156,1.05.586,2.591,3.6a2.111,2.111,0,0,0,1.869-1.26,62.508,62.508,0,0,1-1.912-8.271c2.343-3.474,7.805-3.97,15.05-3.032.339,1.928.609,3.97.824,6.124,1.282,1.18,1.12,5.554-.065,10.592q.889,4.3-5.306,4.692a11.155,11.155,0,0,0,.1,2.405,1.782,1.782,0,0,0,.98.614q.2,7.1-17.452-.471" transform="translate(-190.762 -156.17)" fill="#fab688" fill-rule="evenodd"/>
        <path id="Trazado_468202" data-name="Trazado 468202" d="M223.93,140c-7.245-.937-12.707-.442-15.05,3.033a62.479,62.479,0,0,0,1.912,8.271,2.115,2.115,0,0,1-1.869,1.26q-1.543-3.014-2.591-3.6-5.171,2.319,1.95,7.156c.28,1.11.544,2.031.8,2.758-4.271-.959-7.843-4.775-8.344-6.426-4.983-9.817.571-13.964,3.544-15.475,1.314-9.723,15.427-1.128,22.5-5.815,2.812,3.884-.662,8.753-2.855,8.839" transform="translate(-167.699 -110.673)" fill="#733e19" fill-rule="evenodd"/>
        <path id="Trazado_468203" data-name="Trazado 468203" d="M177.383,358.309q-5.373,23.019-18.88,35.726a16.89,16.89,0,0,1-8.64-6.655q.194,16.648-.829,33.14-9.865,4.67-26.189-.6l-4.412-5.438c-1.131-.221-3.706,1.031-4.939,2.938-10.337-7.883-17.307-16.359-21.417-24.78q1.665-27.136,7.374-42.822,2.884-4.44,13.558-8.726,17.662,7.571,17.452.474a106.715,106.715,0,0,1,13.779,6.033q7.158,5.438,12.195,29.483,8.193-10.269,17-21.772a8.275,8.275,0,0,1,3.948,3m-61.325,51.266q5.139-16.9-5.677-41.694-2.715,12.237-5.882,24.083,3.668,1.745,11.559,17.611" transform="translate(-77.695 -287.809)" fill="#f59b1d" fill-rule="evenodd"/>
        <path id="Trazado_468204" data-name="Trazado 468204" d="M142.389,836.566q2.5-.194,8.069-4.342,16.329,5.276,26.189.6c1.163,18.508-3.383,37.91-9.157,59.531-5.65,9.5-5.408,16.17-8.424,38.071q-2.5,1.794-8.3-.517c-1.217-18.675-.377-31.042,4.471-38.012-.759-6.264,1.228-21.659,1.314-31.322-3.523,7.864-5.947,18.481-10.536,29.205-5.591,13.057-9.491,27.029-12.443,39.774a13.65,13.65,0,0,1-8.775-1.072q4.7-31.422,10.417-43.258-.218-30.9,5.887-55.5a20.989,20.989,0,0,1,1.282,6.841" transform="translate(-105.307 -700.116)" fill="#1b2452" fill-rule="evenodd"/>
        <path id="Trazado_468205" data-name="Trazado 468205" d="M238.531,816.216q-5.559,4.145-8.069,4.341a20.985,20.985,0,0,0-1.282-6.841c1.234-1.907,3.808-3.159,4.939-2.938Z" transform="translate(-193.38 -684.108)" fill="#fab688" fill-rule="evenodd"/>
        <path id="Trazado_468206" data-name="Trazado 468206" d="M447.983,494.207a169.672,169.672,0,0,0-2.6-26.515q5.235,21.965,10.137,29.151,3.1-.1,7.853-3.676a54.763,54.763,0,0,1-6.755,7.695,16.89,16.89,0,0,1-8.64-6.655" transform="translate(-375.814 -394.636)" fill="#ea7924" fill-rule="evenodd"/>
        <path id="Trazado_468207" data-name="Trazado 468207" d="M217.3,559.2a43.548,43.548,0,0,0-2.375-4.9q5.138-16.9-5.677-41.694,15.723,22.353,8.92,47.668Z" transform="translate(-176.563 -432.533)" fill="#ea7924" fill-rule="evenodd"/>
        <path id="Trazado_468208" data-name="Trazado 468208" d="M300.422,318.4a12.146,12.146,0,0,0,4.756,1,15.12,15.12,0,0,0,.032,1.955,7.473,7.473,0,0,1-4.789-2.954" transform="translate(-253.494 -268.664)" fill="#ed7d57" fill-rule="evenodd"/>
        <path id="Trazado_468209" data-name="Trazado 468209" d="M151.466,1469.573a11.6,11.6,0,0,0,.436-4.121q4.412,1.584,6.738.55a7.254,7.254,0,0,0,.372,3.027c-2.677-.1-1.46,3.151-7.546.544m-19.445-1.81a3.8,3.8,0,0,0-2.726.253c-.97.76-2.693-.447-4.218-1.643a16.339,16.339,0,0,0,.652-2.375,13.45,13.45,0,0,0,5.774,1.029,5.553,5.553,0,0,0,.517,2.736" transform="translate(-105.54 -1235.311)" fill="#fab688" fill-rule="evenodd"/>
        <path id="Trazado_468210" data-name="Trazado 468210" d="M236.7,852.695a15.367,15.367,0,0,0,.108-2.628q2.5-.194,8.074-4.341c.878.28,1.75.55,2.6.786a24.566,24.566,0,0,1-10.784,6.184" transform="translate(-199.724 -713.617)" fill="#3c3392" fill-rule="evenodd"/>
        <path id="Trazado_468211" data-name="Trazado 468211" d="M616.851,363.213c.221-.544,1.1-2.252,1.971-4.382q3.224-1.665,5.155-7.248a6.483,6.483,0,0,0-4.869-4.683,13.519,13.519,0,0,1-3.749,6.806q.614-4.832-1.594-3.027a2.127,2.127,0,0,1,.032,1.562q-1.495,2.444.269,5.564c-.453.94-.937,1.891-1.164,2.4a8.665,8.665,0,0,1,3.948,3" transform="translate(-517.163 -292.712)" fill="#fab688" fill-rule="evenodd"/>
        <path id="Trazado_468212" data-name="Trazado 468212" d="M935.757,238.492a38.353,38.353,0,1,0,25.65-7.964,38.351,38.351,0,0,0-25.65,7.964" transform="translate(-777.039 -194.465)" fill="#d7cce5" fill-rule="evenodd"/>
        <path id="Trazado_468213" data-name="Trazado 468213" d="M1093.735,313.851a6.145,6.145,0,0,1,1.907-4.541,6.273,6.273,0,0,1,4.573-1.893,5.992,5.992,0,0,1,4.449,1.864,6.3,6.3,0,0,1,1.815,4.57,6.377,6.377,0,0,1-1.842,4.589,6.012,6.012,0,0,1-4.5,1.909,6.089,6.089,0,0,1-4.541-1.909,6.31,6.31,0,0,1-1.864-4.589m-5.176,46.219V357.3h5.451V326.811H1088l.048-2.771c3.339-.092,6.555-.232,9.669-.415s6.13-.415,9.039-.695V357.3h5.731v2.771Z" transform="translate(-918.049 -259.397)" fill="#2b2870" fill-rule="evenodd"/>
        <path id="Trazado_468214" data-name="Trazado 468214" d="M1352.738,1374.791h-26.5a2.171,2.171,0,0,0-2.166,2.16v6.087a2.173,2.173,0,0,0,2.166,2.166h26.5a2.171,2.171,0,0,0,2.16-2.166v-6.087a2.17,2.17,0,0,0-2.16-2.16" transform="translate(-1117.241 -1160.039)" fill="#3f4979" fill-rule="evenodd"/>
        <path id="Trazado_468215" data-name="Trazado 468215" d="M1365.478,1441.446H1339.45L1342,1454.9h20.916Z" transform="translate(-1130.218 -1216.282)" fill="#3f4979" fill-rule="evenodd"/>
        <path id="Trazado_468216" data-name="Trazado 468216" d="M1339.45,1441.446h26.027l-.463,2.435h-25.1Z" transform="translate(-1130.217 -1216.282)" fill="#1b2452" fill-rule="evenodd"/>
        <path id="Trazado_468217" data-name="Trazado 468217" d="M1386.518,1037.24q-6.634,18.374-1.541,43.469a47.832,47.832,0,0,1,1.961,8.311c.086.318.167.63.259.948h1.616q.574-9.372.383-19.052a265.437,265.437,0,0,0-2.359-30.073.511.511,0,0,1,.442-.565.5.5,0,0,1,.56.436,267.071,267.071,0,0,1,2.37,30.18q.194,9.7-.382,19.073h1.136a52.567,52.567,0,0,1,3.63-14.953q3.1-22.058-8.074-37.775" transform="translate(-1166.765 -875.216)" fill="#5a53a2" fill-rule="evenodd"/>
        <path id="Trazado_468218" data-name="Trazado 468218" d="M1456.7,1163.274q-1.018,16.507-16.973,33.041h-2.322q2.569-5.987,5.785-11.9a168.225,168.225,0,0,1,12.039-18.89.376.376,0,0,0-.156-.533.448.448,0,0,0-.6.075,167.544,167.544,0,0,0-12.082,18.96q-3.313,6.108-5.957,12.287h-1.2q2.594-24.877,21.46-33.041" transform="translate(-1211.047 -981.562)" fill="#9588c0" fill-rule="evenodd"/>
        <path id="Trazado_468219" data-name="Trazado 468219" d="M1277.589,1195.826q.937,14.713,14.317,27.956h3.641q-2.182-4.557-4.783-9.012a137.825,137.825,0,0,0-11.737-16.935.389.389,0,0,1,.151-.533.44.44,0,0,1,.587,0,138.986,138.986,0,0,1,11.775,16.994q2.747,4.686,5.015,9.486h1.772q-2.973-22.445-20.738-27.956" transform="translate(-1078.019 -1009.029)" fill="#c2b5d9" fill-rule="evenodd"/>
      </g>
    </g>
    <g id="Grupo_711957" data-name="Grupo 711957" transform="translate(-19.506 -7.645)">
      <path id="Trazado_466626" data-name="Trazado 466626" d="M-4797.146,9932.959h28.377l3.374,1.367v92.252s.572,1.205,2.834,1.777,29.1,1.656,29.1,1.656" transform="translate(5368.693 -6632.006)" fill="none" stroke="#1565c0" stroke-width="2"/>
      <path id="Trazado_466631" data-name="Trazado 466631" d="M-4797.146,10267.675h28.377l3.374-1.718V9944.792s.572-4.146,2.834-6.128,29.1-5.705,29.1-5.705" transform="translate(5368.693 -6966.723)" fill="none" stroke="#1565c0" stroke-width="2"/>
    </g>
    <g id="Grupo_710398" data-name="Grupo 710398" transform="translate(-19.506 101.629)">
      <path id="Trazado_468220" data-name="Trazado 468220" d="M4,0H293.182a4,4,0,0,1,4,4V83.357a4,4,0,0,1-4,4H4a4,4,0,0,1-4-4V4A4,4,0,0,1,4,0Z" transform="translate(284.506 3148)" fill="#e1edf7"/>
      <path id="Trazado_468363" data-name="Trazado 468363" d="M99.793,17H97.449V5.625h2.344Zm8.07-2.984a1.2,1.2,0,0,0-.469-1.02,6.148,6.148,0,0,0-1.687-.75,11.963,11.963,0,0,1-1.93-.777,3.153,3.153,0,0,1-1.937-2.82A2.747,2.747,0,0,1,102.359,7a3.389,3.389,0,0,1,1.492-1.129,5.616,5.616,0,0,1,2.184-.406,5.112,5.112,0,0,1,2.172.441,3.458,3.458,0,0,1,1.48,1.246,3.261,3.261,0,0,1,.527,1.828h-2.344a1.534,1.534,0,0,0-.492-1.215A2.023,2.023,0,0,0,106,7.336a2.162,2.162,0,0,0-1.336.363,1.146,1.146,0,0,0-.477.957,1.1,1.1,0,0,0,.559.93,6.311,6.311,0,0,0,1.645.7,7.106,7.106,0,0,1,2.914,1.492A2.972,2.972,0,0,1,110.215,14a2.737,2.737,0,0,1-1.117,2.316,4.891,4.891,0,0,1-3.008.84,5.808,5.808,0,0,1-2.391-.48,3.783,3.783,0,0,1-1.645-1.316,3.371,3.371,0,0,1-.566-1.937h2.352q0,1.883,2.25,1.883a2.189,2.189,0,0,0,1.3-.34A1.106,1.106,0,0,0,107.863,14.016Zm13.281-2.445a6.867,6.867,0,0,1-.594,2.945,4.472,4.472,0,0,1-1.7,1.953,5.021,5.021,0,0,1-5.059.008,4.515,4.515,0,0,1-1.719-1.941,6.67,6.67,0,0,1-.617-2.9V11.07a6.831,6.831,0,0,1,.605-2.957,4.508,4.508,0,0,1,1.711-1.961,5.014,5.014,0,0,1,5.055,0,4.508,4.508,0,0,1,1.711,1.961,6.811,6.811,0,0,1,.605,2.949Zm-2.375-.516a4.787,4.787,0,0,0-.641-2.719,2.263,2.263,0,0,0-3.648-.012,4.732,4.732,0,0,0-.648,2.691v.555a4.847,4.847,0,0,0,.641,2.7,2.243,2.243,0,0,0,3.656.035,4.819,4.819,0,0,0,.641-2.7ZM134.387,17h-7.8V15.453l3.68-3.922a9.078,9.078,0,0,0,1.121-1.445,2.322,2.322,0,0,0,.363-1.172,1.738,1.738,0,0,0-.383-1.191,1.382,1.382,0,0,0-1.094-.434,1.49,1.49,0,0,0-1.207.527,2.089,2.089,0,0,0-.441,1.387h-2.266a3.729,3.729,0,0,1,.5-1.9,3.5,3.5,0,0,1,1.4-1.348,4.262,4.262,0,0,1,2.055-.488,4.036,4.036,0,0,1,2.73.844A2.985,2.985,0,0,1,134.02,8.7a3.825,3.825,0,0,1-.437,1.719,9.552,9.552,0,0,1-1.5,2.039L129.5,15.18h4.891ZM143.5,6.885,139.105,17h-2.383l4.406-9.555h-5.656V5.625H143.5Zm9.1,5.412a5.762,5.762,0,0,1-.977,3.609,3.9,3.9,0,0,1-5.7.023,5.594,5.594,0,0,1-1.008-3.516V10.32a5.687,5.687,0,0,1,.988-3.617,3.91,3.91,0,0,1,5.691-.012,5.576,5.576,0,0,1,1.008,3.512Zm-2.258-2.3a4.165,4.165,0,0,0-.387-2.061,1.307,1.307,0,0,0-1.207-.645,1.284,1.284,0,0,0-1.176.614,3.9,3.9,0,0,0-.4,1.92v2.768a4.372,4.372,0,0,0,.379,2.068,1.29,1.29,0,0,0,1.215.676,1.268,1.268,0,0,0,1.2-.649,4.268,4.268,0,0,0,.383-1.986ZM159.613,17h-2.258V8.3l-2.7.836V7.3l4.711-1.687h.242Zm11.43-10.115L166.645,17h-2.383l4.406-9.555h-5.656V5.625h8.031ZM9.66,41H7.4V32.3l-2.7.836V31.3l4.711-1.687H9.66Zm10.375-4.281h1.289v1.82H20.035V41H17.777V38.539H13.113l-.1-1.422,4.742-7.492h2.281Zm-4.773,0h2.516V32.7l-.148.258Zm11-.008a5.094,5.094,0,0,1,.887-3.148,2.877,2.877,0,0,1,2.426-1.172,2.589,2.589,0,0,1,2.039.922V29h2.266V41H31.84l-.109-.9a2.657,2.657,0,0,1-2.172,1.055,2.869,2.869,0,0,1-2.395-1.176A5.258,5.258,0,0,1,26.262,36.711Zm2.258.168a3.337,3.337,0,0,0,.414,1.823,1.349,1.349,0,0,0,1.2.634,1.511,1.511,0,0,0,1.477-.884V35.111a1.489,1.489,0,0,0-1.461-.884Q28.52,34.227,28.52,36.879Zm6.758-.184a5.013,5.013,0,0,1,.484-2.242,3.546,3.546,0,0,1,1.395-1.523,4.069,4.069,0,0,1,2.113-.539,3.849,3.849,0,0,1,2.793,1.047,4.2,4.2,0,0,1,1.207,2.844l.016.578A4.418,4.418,0,0,1,42.2,39.98a4.209,4.209,0,0,1-5.832,0,4.5,4.5,0,0,1-1.09-3.187Zm2.258.16a3.16,3.16,0,0,0,.453,1.843,1.628,1.628,0,0,0,2.578.008,3.457,3.457,0,0,0,.461-2.015,3.128,3.128,0,0,0-.461-1.831,1.5,1.5,0,0,0-1.3-.649,1.474,1.474,0,0,0-1.281.646A3.516,3.516,0,0,0,37.535,36.856Zm9.258-4.309.07.945a2.971,2.971,0,0,1,2.43-1.1,2.255,2.255,0,0,1,2.242,1.289,2.9,2.9,0,0,1,2.539-1.289,2.521,2.521,0,0,1,2.047.8,3.681,3.681,0,0,1,.672,2.41V41H54.527V35.609a1.61,1.61,0,0,0-.281-1.051,1.246,1.246,0,0,0-.992-.332,1.409,1.409,0,0,0-1.406.969l.008,5.8H49.6V35.617a1.59,1.59,0,0,0-.289-1.062,1.259,1.259,0,0,0-.984-.328,1.463,1.463,0,0,0-1.391.8V41H44.676V32.547ZM60.91,41H58.645V32.547H60.91Zm-2.4-10.641a1.112,1.112,0,0,1,.34-.836,1.465,1.465,0,0,1,1.848,0,1.193,1.193,0,0,1,0,1.68,1.448,1.448,0,0,1-1.836,0A1.108,1.108,0,0,1,58.512,30.359Zm6.336,2.188.07.977a2.951,2.951,0,0,1,2.43-1.133,2.453,2.453,0,0,1,2,.789,3.682,3.682,0,0,1,.672,2.359V41H67.762V35.594a1.465,1.465,0,0,0-.312-1.043,1.4,1.4,0,0,0-1.039-.324,1.553,1.553,0,0,0-1.43.813V41H62.723V32.547ZM74.113,41H71.848V32.547h2.266Zm-2.4-10.641a1.112,1.112,0,0,1,.34-.836,1.465,1.465,0,0,1,1.848,0,1.193,1.193,0,0,1,0,1.68,1.448,1.448,0,0,1-1.836,0A1.108,1.108,0,0,1,71.715,30.359ZM75.621,36.7a5.013,5.013,0,0,1,.484-2.242A3.546,3.546,0,0,1,77.5,32.93a4.069,4.069,0,0,1,2.113-.539,3.849,3.849,0,0,1,2.793,1.047,4.2,4.2,0,0,1,1.207,2.844l.016.578a4.418,4.418,0,0,1-1.086,3.121,4.209,4.209,0,0,1-5.832,0,4.5,4.5,0,0,1-1.09-3.187Zm2.258.16a3.16,3.16,0,0,0,.453,1.843,1.628,1.628,0,0,0,2.578.008,3.457,3.457,0,0,0,.461-2.015,3.128,3.128,0,0,0-.461-1.831,1.5,1.5,0,0,0-1.3-.649,1.474,1.474,0,0,0-1.281.646A3.516,3.516,0,0,0,77.879,36.856ZM89.6,38.664a.727.727,0,0,0-.41-.652,4.659,4.659,0,0,0-1.316-.426q-3.016-.633-3.016-2.562a2.323,2.323,0,0,1,.934-1.879,3.766,3.766,0,0,1,2.441-.754,4.053,4.053,0,0,1,2.574.758,2.388,2.388,0,0,1,.965,1.969H89.512a1.092,1.092,0,0,0-.312-.8A1.322,1.322,0,0,0,88.223,34a1.351,1.351,0,0,0-.883.258.814.814,0,0,0-.312.656.7.7,0,0,0,.355.605,3.657,3.657,0,0,0,1.2.4A9.8,9.8,0,0,1,90,36.3a2.336,2.336,0,0,1,1.789,2.273,2.2,2.2,0,0,1-.992,1.871,4.28,4.28,0,0,1-2.562.715,4.47,4.47,0,0,1-1.887-.379,3.166,3.166,0,0,1-1.293-1.039,2.414,2.414,0,0,1-.469-1.426H86.73a1.179,1.179,0,0,0,.445.922,1.766,1.766,0,0,0,1.109.32,1.635,1.635,0,0,0,.98-.246A.766.766,0,0,0,89.6,38.664Zm4.234,5.188-1.18-.617.281-.508a4.059,4.059,0,0,0,.539-1.9v-1.75h1.906l-.008,1.563a4.059,4.059,0,0,1-.437,1.75A4.486,4.486,0,0,1,93.832,43.852Zm9.508-9.539h1.2a1.7,1.7,0,0,0,1.273-.43,1.575,1.575,0,0,0,.414-1.141,1.392,1.392,0,0,0-.41-1.07,1.59,1.59,0,0,0-1.129-.383,1.666,1.666,0,0,0-1.086.355,1.137,1.137,0,0,0-.437.926H100.91a2.777,2.777,0,0,1,.48-1.6,3.2,3.2,0,0,1,1.344-1.105,4.485,4.485,0,0,1,1.9-.4,4.253,4.253,0,0,1,2.828.863,2.945,2.945,0,0,1,1.023,2.379,2.394,2.394,0,0,1-.477,1.438,3.1,3.1,0,0,1-1.25,1.008,2.826,2.826,0,0,1,1.434,1.031,2.8,2.8,0,0,1,.473,1.625,2.994,2.994,0,0,1-1.105,2.43,4.445,4.445,0,0,1-2.926.914,4.214,4.214,0,0,1-2.785-.9,2.934,2.934,0,0,1-1.082-2.375h2.258a1.308,1.308,0,0,0,.48,1.047,2,2,0,0,0,2.445-.02,1.47,1.47,0,0,0,.457-1.129q0-1.7-1.875-1.7h-1.2Zm7.219,1.094.656-5.781h6.375v1.883h-4.523l-.281,2.445a3.58,3.58,0,0,1,1.711-.43,3.279,3.279,0,0,1,2.547,1.008,4.026,4.026,0,0,1,.922,2.82,4.124,4.124,0,0,1-.465,1.973,3.281,3.281,0,0,1-1.332,1.352,4.158,4.158,0,0,1-2.047.48,4.416,4.416,0,0,1-1.914-.418,3.4,3.4,0,0,1-1.395-1.176,3.2,3.2,0,0,1-.543-1.727H112.5a1.669,1.669,0,0,0,.5,1.105,1.573,1.573,0,0,0,1.113.395,1.388,1.388,0,0,0,1.18-.551,2.551,2.551,0,0,0,.414-1.559,2.11,2.11,0,0,0-.477-1.484,1.749,1.749,0,0,0-1.352-.516,1.954,1.954,0,0,0-1.3.422l-.219.2Zm12.57,1.289a5.013,5.013,0,0,1,.484-2.242,3.546,3.546,0,0,1,1.395-1.523,4.069,4.069,0,0,1,2.113-.539,3.849,3.849,0,0,1,2.793,1.047,4.2,4.2,0,0,1,1.207,2.844l.016.578a4.418,4.418,0,0,1-1.086,3.121,4.209,4.209,0,0,1-5.832,0,4.5,4.5,0,0,1-1.09-3.187Zm2.258.16a3.16,3.16,0,0,0,.453,1.843,1.628,1.628,0,0,0,2.578.008,3.457,3.457,0,0,0,.461-2.015,3.128,3.128,0,0,0-.461-1.831,1.5,1.5,0,0,0-1.3-.649,1.474,1.474,0,0,0-1.281.646A3.516,3.516,0,0,0,125.387,36.856Zm14.758,0a5.119,5.119,0,0,1-.867,3.168,2.872,2.872,0,0,1-2.422,1.137,2.639,2.639,0,0,1-2.2-1.055l-.1.9h-2.031V29h2.258v4.3a2.571,2.571,0,0,1,2.055-.914,2.9,2.9,0,0,1,2.426,1.137,5.126,5.126,0,0,1,.879,3.2Zm-2.258-.164a3.363,3.363,0,0,0-.406-1.871,1.374,1.374,0,0,0-1.211-.59,1.489,1.489,0,0,0-1.484.883v3.336a1.509,1.509,0,0,0,1.5.891,1.394,1.394,0,0,0,1.438-1.078A5.562,5.562,0,0,0,137.887,36.688Zm6.039-4.141v8.914a3.024,3.024,0,0,1-.742,2.176,2.821,2.821,0,0,1-2.141.777,4.591,4.591,0,0,1-1.117-.133V42.492a4.238,4.238,0,0,0,.711.07q1.023,0,1.023-1.086v-8.93Zm-2.445-2.187a1.112,1.112,0,0,1,.34-.836,1.47,1.47,0,0,1,1.852,0,1.2,1.2,0,0,1-.008,1.68,1.448,1.448,0,0,1-1.836,0A1.109,1.109,0,0,1,141.48,30.359Zm8.1,10.8a4.15,4.15,0,0,1-3.027-1.141,4.054,4.054,0,0,1-1.168-3.039v-.219a5.106,5.106,0,0,1,.492-2.277,3.612,3.612,0,0,1,1.395-1.547,3.914,3.914,0,0,1,2.059-.543,3.508,3.508,0,0,1,2.73,1.094,4.444,4.444,0,0,1,1,3.1v.922h-5.383a2.1,2.1,0,0,0,.66,1.328,2,2,0,0,0,1.395.5,2.437,2.437,0,0,0,2.039-.945l1.109,1.242a3.389,3.389,0,0,1-1.375,1.121A4.511,4.511,0,0,1,149.582,41.156Zm-.258-6.945a1.411,1.411,0,0,0-1.09.455,2.357,2.357,0,0,0-.535,1.3h3.141v-.181a1.681,1.681,0,0,0-.406-1.165A1.456,1.456,0,0,0,149.324,34.211Zm7.719-3.742v2.078h1.445V34.2h-1.445v4.219a1.007,1.007,0,0,0,.18.672.9.9,0,0,0,.688.2,3.6,3.6,0,0,0,.664-.055v1.711a4.648,4.648,0,0,1-1.367.2,2.156,2.156,0,0,1-2.422-2.4V34.2h-1.234V32.547h1.234V30.469ZM162.129,41h-2.266V32.547h2.266Zm-2.4-10.641a1.112,1.112,0,0,1,.34-.836,1.465,1.465,0,0,1,1.848,0,1.193,1.193,0,0,1,0,1.68,1.448,1.448,0,0,1-1.836,0A1.109,1.109,0,0,1,159.73,30.359Zm7.422,7.883,1.57-5.7h2.359L168.23,41h-2.156l-2.852-8.453h2.359Zm4.453-1.547a5.013,5.013,0,0,1,.484-2.242,3.546,3.546,0,0,1,1.395-1.523,4.069,4.069,0,0,1,2.113-.539,3.849,3.849,0,0,1,2.793,1.047,4.2,4.2,0,0,1,1.207,2.844l.016.578a4.418,4.418,0,0,1-1.086,3.121,4.209,4.209,0,0,1-5.832,0,4.5,4.5,0,0,1-1.09-3.187Zm2.258.16a3.16,3.16,0,0,0,.453,1.843,1.628,1.628,0,0,0,2.578.008,3.457,3.457,0,0,0,.461-2.015,3.128,3.128,0,0,0-.461-1.831,1.5,1.5,0,0,0-1.3-.649,1.474,1.474,0,0,0-1.281.646A3.516,3.516,0,0,0,173.863,36.856Zm11.719,1.808a.727.727,0,0,0-.41-.652,4.659,4.659,0,0,0-1.316-.426q-3.016-.633-3.016-2.562a2.323,2.323,0,0,1,.934-1.879,3.766,3.766,0,0,1,2.441-.754,4.053,4.053,0,0,1,2.574.758,2.388,2.388,0,0,1,.965,1.969H185.5a1.092,1.092,0,0,0-.312-.8,1.322,1.322,0,0,0-.977-.316,1.351,1.351,0,0,0-.883.258.814.814,0,0,0-.312.656.7.7,0,0,0,.355.605,3.657,3.657,0,0,0,1.2.4,9.8,9.8,0,0,1,1.422.379,2.336,2.336,0,0,1,1.789,2.273,2.205,2.205,0,0,1-.992,1.871,4.28,4.28,0,0,1-2.562.715,4.47,4.47,0,0,1-1.887-.379,3.166,3.166,0,0,1-1.293-1.039,2.414,2.414,0,0,1-.469-1.426h2.141a1.179,1.179,0,0,0,.445.922,1.766,1.766,0,0,0,1.109.32,1.635,1.635,0,0,0,.98-.246A.766.766,0,0,0,185.582,38.664Zm7.281-1.953a5.094,5.094,0,0,1,.887-3.148,2.877,2.877,0,0,1,2.426-1.172,2.589,2.589,0,0,1,2.039.922V29h2.266V41h-2.039l-.109-.9a2.657,2.657,0,0,1-2.172,1.055,2.869,2.869,0,0,1-2.395-1.176A5.258,5.258,0,0,1,192.863,36.711Zm2.258.168a3.337,3.337,0,0,0,.414,1.823,1.349,1.349,0,0,0,1.2.634,1.511,1.511,0,0,0,1.477-.884V35.111a1.489,1.489,0,0,0-1.461-.884Q195.121,34.227,195.121,36.879Zm11,4.277a4.15,4.15,0,0,1-3.027-1.141,4.054,4.054,0,0,1-1.168-3.039v-.219a5.106,5.106,0,0,1,.492-2.277,3.612,3.612,0,0,1,1.395-1.547,3.914,3.914,0,0,1,2.059-.543,3.508,3.508,0,0,1,2.73,1.094,4.444,4.444,0,0,1,1,3.1v.922h-5.383a2.1,2.1,0,0,0,.66,1.328,2,2,0,0,0,1.395.5,2.437,2.437,0,0,0,2.039-.945l1.109,1.242a3.389,3.389,0,0,1-1.375,1.121A4.511,4.511,0,0,1,206.121,41.156Zm-.258-6.945a1.411,1.411,0,0,0-1.09.455,2.357,2.357,0,0,0-.535,1.3h3.141v-.181a1.681,1.681,0,0,0-.406-1.165A1.456,1.456,0,0,0,205.863,34.211Zm12.516,5.125a1.481,1.481,0,0,0,1.016-.344,1.2,1.2,0,0,0,.406-.914h2.117a2.9,2.9,0,0,1-.469,1.574,3.093,3.093,0,0,1-1.262,1.109,3.949,3.949,0,0,1-1.77.395A3.67,3.67,0,0,1,215.559,40a4.56,4.56,0,0,1-1.047-3.184v-.148a4.508,4.508,0,0,1,1.039-3.117,3.627,3.627,0,0,1,2.852-1.164,3.555,3.555,0,0,1,2.543.9,3.2,3.2,0,0,1,.973,2.4H219.8a1.551,1.551,0,0,0-.406-1.072,1.51,1.51,0,0,0-2.223.163,3.333,3.333,0,0,0-.4,1.866v.235a3.375,3.375,0,0,0,.4,1.878A1.377,1.377,0,0,0,218.379,39.336Zm4.477-2.641a5.013,5.013,0,0,1,.484-2.242,3.546,3.546,0,0,1,1.395-1.523,4.069,4.069,0,0,1,2.113-.539,3.849,3.849,0,0,1,2.793,1.047,4.2,4.2,0,0,1,1.207,2.844l.016.578a4.418,4.418,0,0,1-1.086,3.121,4.209,4.209,0,0,1-5.832,0,4.5,4.5,0,0,1-1.09-3.187Zm2.258.16a3.16,3.16,0,0,0,.453,1.843,1.628,1.628,0,0,0,2.578.008,3.457,3.457,0,0,0,.461-2.015,3.128,3.128,0,0,0-.461-1.831,1.5,1.5,0,0,0-1.3-.649,1.474,1.474,0,0,0-1.281.646A3.516,3.516,0,0,0,225.113,36.856Zm9.219-4.309.07.977a2.951,2.951,0,0,1,2.43-1.133,2.453,2.453,0,0,1,2,.789,3.682,3.682,0,0,1,.672,2.359V41h-2.258V35.594a1.465,1.465,0,0,0-.312-1.043,1.4,1.4,0,0,0-1.039-.324,1.553,1.553,0,0,0-1.43.813V41h-2.258V32.547Zm9.586-2.078v2.078h1.445V34.2h-1.445v4.219a1.007,1.007,0,0,0,.18.672.9.9,0,0,0,.688.2,3.6,3.6,0,0,0,.664-.055v1.711a4.648,4.648,0,0,1-1.367.2,2.156,2.156,0,0,1-2.422-2.4V34.2h-1.234V32.547h1.234V30.469Zm7.453,4.2a6.134,6.134,0,0,0-.812-.062,1.654,1.654,0,0,0-1.68.867V41h-2.258V32.547h2.133l.063,1.008a2.092,2.092,0,0,1,1.883-1.164,2.366,2.366,0,0,1,.7.1Zm.453,2.031a5.013,5.013,0,0,1,.484-2.242A3.546,3.546,0,0,1,253.7,32.93a4.069,4.069,0,0,1,2.113-.539,3.849,3.849,0,0,1,2.793,1.047,4.2,4.2,0,0,1,1.207,2.844l.016.578a4.418,4.418,0,0,1-1.086,3.121,4.209,4.209,0,0,1-5.832,0,4.5,4.5,0,0,1-1.09-3.187Zm2.258.16a3.16,3.16,0,0,0,.453,1.843,1.628,1.628,0,0,0,2.578.008,3.458,3.458,0,0,0,.461-2.015,3.128,3.128,0,0,0-.461-1.831,1.5,1.5,0,0,0-1.3-.649,1.474,1.474,0,0,0-1.281.646A3.516,3.516,0,0,0,254.082,36.856ZM263.605,41H261.34V29h2.266ZM82.516,61.8l1.563-5.258H86.5l-3.4,9.766-.187.445a2.577,2.577,0,0,1-2.5,1.656,3.552,3.552,0,0,1-1-.148V66.555l.344.008a1.857,1.857,0,0,0,.957-.2,1.283,1.283,0,0,0,.5-.648l.266-.7-2.961-8.477h2.43ZM96.766,65H94.508V56.3l-2.7.836V55.3l4.711-1.687h.242Zm9.18,0h-2.258V56.3l-2.7.836V55.3l4.711-1.687h.242Zm10.375-4.281h1.289v1.82H116.32V65h-2.258V62.539H109.4l-.1-1.422,4.742-7.492h2.281Zm-4.773,0h2.516V56.7l-.148.258Zm14.867,2.617a1.481,1.481,0,0,0,1.016-.344,1.2,1.2,0,0,0,.406-.914h2.117a2.9,2.9,0,0,1-.469,1.574,3.093,3.093,0,0,1-1.262,1.109,3.949,3.949,0,0,1-1.77.395A3.67,3.67,0,0,1,123.594,64a4.56,4.56,0,0,1-1.047-3.184v-.148a4.508,4.508,0,0,1,1.039-3.117,3.627,3.627,0,0,1,2.852-1.164,3.555,3.555,0,0,1,2.543.9,3.2,3.2,0,0,1,.973,2.4h-2.117a1.551,1.551,0,0,0-.406-1.072,1.51,1.51,0,0,0-2.223.163,3.333,3.333,0,0,0-.4,1.866v.235a3.375,3.375,0,0,0,.4,1.878A1.377,1.377,0,0,0,126.414,63.336Zm4.477-2.641a5.013,5.013,0,0,1,.484-2.242,3.546,3.546,0,0,1,1.395-1.523,4.069,4.069,0,0,1,2.113-.539,3.849,3.849,0,0,1,2.793,1.047,4.2,4.2,0,0,1,1.207,2.844l.016.578a4.418,4.418,0,0,1-1.086,3.121,4.209,4.209,0,0,1-5.832,0,4.5,4.5,0,0,1-1.09-3.187Zm2.258.16A3.16,3.16,0,0,0,133.6,62.7a1.628,1.628,0,0,0,2.578.008,3.457,3.457,0,0,0,.461-2.015,3.128,3.128,0,0,0-.461-1.831,1.5,1.5,0,0,0-1.3-.649,1.474,1.474,0,0,0-1.281.646A3.516,3.516,0,0,0,133.148,60.856Zm9.219-4.309.07.977a2.951,2.951,0,0,1,2.43-1.133,2.453,2.453,0,0,1,2,.789,3.682,3.682,0,0,1,.672,2.359V65h-2.258V59.594a1.465,1.465,0,0,0-.312-1.043,1.4,1.4,0,0,0-1.039-.324,1.553,1.553,0,0,0-1.43.813V65h-2.258V56.547Zm9.586-2.078v2.078H153.4V58.2h-1.445v4.219a1.007,1.007,0,0,0,.18.672.9.9,0,0,0,.688.2,3.6,3.6,0,0,0,.664-.055v1.711a4.648,4.648,0,0,1-1.367.2,2.156,2.156,0,0,1-2.422-2.4V58.2h-1.234V56.547H149.7V54.469Zm7.453,4.2a6.134,6.134,0,0,0-.812-.062,1.654,1.654,0,0,0-1.68.867V65h-2.258V56.547h2.133l.063,1.008a2.092,2.092,0,0,1,1.883-1.164,2.366,2.366,0,0,1,.7.1Zm.453,2.031a5.013,5.013,0,0,1,.484-2.242,3.546,3.546,0,0,1,1.395-1.523,4.069,4.069,0,0,1,2.113-.539,3.849,3.849,0,0,1,2.793,1.047,4.2,4.2,0,0,1,1.207,2.844l.016.578a4.418,4.418,0,0,1-1.086,3.121,4.209,4.209,0,0,1-5.832,0,4.5,4.5,0,0,1-1.09-3.187Zm2.258.16a3.16,3.16,0,0,0,.453,1.843,1.628,1.628,0,0,0,2.578.008,3.457,3.457,0,0,0,.461-2.015,3.128,3.128,0,0,0-.461-1.831,1.5,1.5,0,0,0-1.3-.649,1.474,1.474,0,0,0-1.281.646A3.516,3.516,0,0,0,162.117,60.856ZM171.641,65h-2.266V53h2.266Zm5.75.156a4.15,4.15,0,0,1-3.027-1.141,4.054,4.054,0,0,1-1.168-3.039v-.219a5.106,5.106,0,0,1,.492-2.277,3.612,3.612,0,0,1,1.395-1.547,3.914,3.914,0,0,1,2.059-.543,3.508,3.508,0,0,1,2.73,1.094,4.444,4.444,0,0,1,1,3.1v.922h-5.383a2.1,2.1,0,0,0,.66,1.328,2,2,0,0,0,1.395.5,2.437,2.437,0,0,0,2.039-.945l1.109,1.242a3.389,3.389,0,0,1-1.375,1.121A4.511,4.511,0,0,1,177.391,65.156Zm-.258-6.945a1.411,1.411,0,0,0-1.09.455,2.357,2.357,0,0,0-.535,1.3h3.141v-.181a1.681,1.681,0,0,0-.406-1.165A1.456,1.456,0,0,0,177.133,58.211Zm9.594,4.453a.727.727,0,0,0-.41-.652A4.659,4.659,0,0,0,185,61.586q-3.016-.633-3.016-2.562a2.323,2.323,0,0,1,.934-1.879,3.766,3.766,0,0,1,2.441-.754,4.053,4.053,0,0,1,2.574.758,2.388,2.388,0,0,1,.965,1.969h-2.258a1.092,1.092,0,0,0-.312-.8,1.322,1.322,0,0,0-.977-.316,1.351,1.351,0,0,0-.883.258.814.814,0,0,0-.312.656.7.7,0,0,0,.355.605,3.657,3.657,0,0,0,1.2.4,9.8,9.8,0,0,1,1.422.379,2.336,2.336,0,0,1,1.789,2.273,2.205,2.205,0,0,1-.992,1.871,4.28,4.28,0,0,1-2.562.715,4.47,4.47,0,0,1-1.887-.379,3.166,3.166,0,0,1-1.293-1.039,2.414,2.414,0,0,1-.469-1.426h2.141a1.179,1.179,0,0,0,.445.922,1.766,1.766,0,0,0,1.109.32,1.635,1.635,0,0,0,.98-.246A.766.766,0,0,0,186.727,62.664Z" transform="translate(299.506 3156)" fill="#12263f"/>
    </g>
  </g>
</svg>
