<svg xmlns="http://www.w3.org/2000/svg" xmlns:xlink="http://www.w3.org/1999/xlink" width="347.924" height="313.283" viewBox="0 0 347.924 313.283">
  <defs>
    <clipPath id="clip-path">
      <rect id="Rectángulo_263755" data-name="Rectángulo 263755" width="264.449" height="313.283" fill="none"/>
    </clipPath>
  </defs>
  <g id="Grupo_710426" data-name="Grupo 710426" transform="translate(-986.443 -429.799)">
    <g id="Grupo_152006" data-name="Grupo 152006" transform="translate(986.443 496.951)" opacity="0.158">
      <path id="Trazado_183874" data-name="Trazado 183874" d="M534.308,153.529l-29.874-17.248,29.874-17.249,29.875,17.249Zm-27.759-17.248,27.759,16.027,27.76-16.027-27.76-16.027Z" transform="translate(-216.263 -119.03)" fill="#173d7a"/>
      <path id="Trazado_183875" data-name="Trazado 183875" d="M473.955,153.529,444.08,136.28l29.874-17.248.264.154,29.611,17.1ZM446.2,136.28l27.76,16.028,27.759-16.027-27.76-16.027Z" transform="translate(-213.543 -119.03)" fill="#173d7a"/>
      <path id="Trazado_183876" data-name="Trazado 183876" d="M504.132,170.952,474.257,153.7l29.875-17.249L534.006,153.7ZM476.372,153.7l27.76,16.027L531.891,153.7l-27.759-16.027Z" transform="translate(-214.903 -119.815)" fill="#173d7a"/>
      <path id="Trazado_183877" data-name="Trazado 183877" d="M534.309,188.375l-.264-.153-29.611-17.1,29.874-17.249.264.153,29.611,17.1Zm-27.76-17.248,27.76,16.027,27.76-16.027L534.308,155.1Z" transform="translate(-216.263 -120.601)" fill="#173d7a"/>
      <path id="Trazado_183878" data-name="Trazado 183878" d="M413.6,153.528l-.264-.153-29.611-17.1L413.6,119.031l.265.154,29.611,17.1ZM385.84,136.28l27.76,16.027,27.76-16.027L413.6,120.253Z" transform="translate(-210.823 -119.03)" fill="#173d7a"/>
      <path id="Trazado_183879" data-name="Trazado 183879" d="M443.778,170.951l-.264-.153L413.9,153.7l29.874-17.249,29.875,17.25ZM416.018,153.7l27.76,16.027L471.537,153.7l-27.76-16.028Z" transform="translate(-212.183 -119.815)" fill="#173d7a"/>
      <path id="Trazado_183880" data-name="Trazado 183880" d="M473.956,188.374l-.264-.153-29.611-17.1,29.874-17.248,29.874,17.249ZM446.2,171.126l27.76,16.027,27.758-16.026L473.955,155.1Z" transform="translate(-213.543 -120.601)" fill="#173d7a"/>
      <path id="Trazado_183881" data-name="Trazado 183881" d="M504.133,205.8l-29.875-17.25L504.132,171.3l.264.153,29.611,17.1Zm-27.76-17.25,27.76,16.029,27.759-16.028-27.76-16.027Z" transform="translate(-214.903 -121.386)" fill="#173d7a"/>
      <path id="Trazado_183882" data-name="Trazado 183882" d="M534.31,223.221l-.264-.153-29.611-17.1,29.874-17.248.265.153,29.611,17.1Zm-27.76-17.249L534.31,222l27.76-16.027-27.761-16.027Z" transform="translate(-216.263 -122.171)" fill="#173d7a"/>
      <path id="Trazado_183883" data-name="Trazado 183883" d="M353.246,153.528l-29.875-17.249,29.874-17.248.264.154,29.611,17.1Zm-27.76-17.249,27.76,16.028L381,136.28l-27.76-16.027Z" transform="translate(-208.103 -119.03)" fill="#173d7a"/>
      <path id="Trazado_183884" data-name="Trazado 183884" d="M383.424,170.951l-.265-.153-29.611-17.1,29.875-17.249.264.153L413.3,153.7ZM355.663,153.7l27.761,16.027L411.183,153.7l-27.76-16.027Z" transform="translate(-209.463 -119.815)" fill="#173d7a"/>
      <path id="Trazado_183885" data-name="Trazado 183885" d="M413.6,188.374l-.264-.153-29.611-17.1L413.6,153.877l.264.153,29.611,17.1Zm-27.76-17.248,27.76,16.027,27.76-16.027L413.6,155.1Z" transform="translate(-210.823 -120.601)" fill="#173d7a"/>
      <path id="Trazado_183886" data-name="Trazado 183886" d="M443.779,205.8l-.264-.153-29.611-17.1L443.778,171.3l.265.153,29.61,17.1Zm-27.76-17.249,27.76,16.028,27.759-16.028-27.76-16.027Z" transform="translate(-212.183 -121.386)" fill="#173d7a"/>
      <path id="Trazado_183887" data-name="Trazado 183887" d="M473.956,223.22l-29.874-17.249,29.874-17.248,29.874,17.249ZM446.2,205.971,473.956,222l27.759-16.026-27.759-16.028Z" transform="translate(-213.543 -122.171)" fill="#173d7a"/>
      <path id="Trazado_183888" data-name="Trazado 183888" d="M504.134,240.644l-29.876-17.25,29.875-17.247.264.153,29.611,17.1Zm-27.761-17.25,27.761,16.028,27.759-16.027-27.76-16.027Z" transform="translate(-214.903 -122.956)" fill="#173d7a"/>
      <path id="Trazado_183889" data-name="Trazado 183889" d="M534.311,258.066l-.264-.153-29.611-17.1,29.874-17.249.265.154,29.611,17.1Zm-27.76-17.248,27.76,16.027,27.76-16.027L534.31,224.791Z" transform="translate(-216.263 -123.741)" fill="#173d7a"/>
      <path id="Trazado_183890" data-name="Trazado 183890" d="M292.891,153.527l-.264-.153-29.611-17.1L292.89,119.03l.265.154,29.611,17.1Zm-27.76-17.248,27.76,16.027,27.76-16.027L292.89,120.252Z" transform="translate(-205.382 -119.03)" fill="#173d7a"/>
      <path id="Trazado_183891" data-name="Trazado 183891" d="M323.069,170.95l-.264-.153-29.611-17.1,29.874-17.249,29.875,17.25ZM295.309,153.7l27.76,16.027L350.828,153.7l-27.76-16.028Z" transform="translate(-206.742 -119.815)" fill="#173d7a"/>
      <path id="Trazado_183892" data-name="Trazado 183892" d="M353.247,188.373l-.264-.153-29.611-17.1,29.874-17.248.264.153,29.611,17.1Zm-27.76-17.248,27.76,16.027,27.759-16.026L353.246,155.1Z" transform="translate(-208.103 -120.601)" fill="#173d7a"/>
      <path id="Trazado_183893" data-name="Trazado 183893" d="M383.425,205.8l-29.876-17.25L383.424,171.3l.264.153,29.611,17.1Zm-27.761-17.25,27.761,16.029,27.759-16.028-27.76-16.027Z" transform="translate(-209.463 -121.386)" fill="#173d7a"/>
      <path id="Trazado_183894" data-name="Trazado 183894" d="M413.6,223.22l-.264-.153-29.611-17.1L413.6,188.723l.264.153,29.611,17.1Zm-27.76-17.249L413.6,222l27.76-16.027L413.6,189.944Z" transform="translate(-210.823 -122.171)" fill="#173d7a"/>
      <path id="Trazado_183895" data-name="Trazado 183895" d="M443.779,240.643,413.9,223.394l29.874-17.248,29.874,17.248ZM416.02,223.394l27.759,16.027,27.759-16.027-27.759-16.027Z" transform="translate(-212.183 -122.956)" fill="#173d7a"/>
      <path id="Trazado_183896" data-name="Trazado 183896" d="M473.957,258.065l-.265-.153-29.61-17.1,29.874-17.249,29.875,17.25ZM446.2,240.817l27.76,16.027,27.759-16.026-27.76-16.028Z" transform="translate(-213.543 -123.741)" fill="#173d7a"/>
      <path id="Trazado_183897" data-name="Trazado 183897" d="M504.135,275.488l-.265-.153-29.611-17.1,29.875-17.248.264.153,29.611,17.1ZM476.374,258.24l27.761,16.027,27.759-16.026-27.76-16.027Z" transform="translate(-214.903 -124.527)" fill="#173d7a"/>
      <path id="Trazado_183898" data-name="Trazado 183898" d="M534.312,292.912l-29.875-17.249,29.874-17.248.265.153,29.61,17.1Zm-27.76-17.249,27.76,16.028,27.76-16.027-27.761-16.028Z" transform="translate(-216.263 -125.312)" fill="#173d7a"/>
      <path id="Trazado_183899" data-name="Trazado 183899" d="M232.537,153.526l-.264-.153-29.611-17.1,29.874-17.248.264.154,29.611,17.1Zm-27.76-17.248,27.76,16.027L260.3,136.279l-27.76-16.027Z" transform="translate(-202.662 -119.03)" fill="#173d7a"/>
      <path id="Trazado_183900" data-name="Trazado 183900" d="M262.715,170.95,232.84,153.7l29.874-17.248.264.153,29.611,17.1ZM234.954,153.7l27.761,16.028L290.474,153.7l-27.76-16.027Z" transform="translate(-204.022 -119.815)" fill="#173d7a"/>
      <path id="Trazado_183901" data-name="Trazado 183901" d="M292.892,188.373l-.264-.153-29.611-17.1,29.874-17.249.265.153,29.611,17.1Zm-27.76-17.248,27.76,16.027,27.76-16.027L292.891,155.1Z" transform="translate(-205.382 -120.6)" fill="#173d7a"/>
      <path id="Trazado_183902" data-name="Trazado 183902" d="M323.07,205.8l-.264-.153-29.611-17.1L323.069,171.3l.265.153,29.61,17.1Zm-27.76-17.249,27.76,16.028,27.759-16.028-27.76-16.027Z" transform="translate(-206.742 -121.386)" fill="#173d7a"/>
      <path id="Trazado_183903" data-name="Trazado 183903" d="M353.248,223.219l-.265-.153-29.61-17.1,29.874-17.248,29.875,17.249Zm-27.76-17.249L353.248,222l27.759-16.027-27.76-16.028Z" transform="translate(-208.103 -122.171)" fill="#173d7a"/>
      <path id="Trazado_183904" data-name="Trazado 183904" d="M383.426,240.642l-.265-.153-29.611-17.1,29.875-17.247.264.153,29.611,17.1Zm-27.761-17.249,27.761,16.027,27.759-16.026-27.76-16.027Z" transform="translate(-209.463 -122.956)" fill="#173d7a"/>
      <path id="Trazado_183905" data-name="Trazado 183905" d="M413.6,258.065l-29.875-17.249L413.6,223.568l29.875,17.249Zm-27.76-17.249,27.76,16.028,27.759-16.027L413.6,224.79Z" transform="translate(-210.823 -123.741)" fill="#173d7a"/>
      <path id="Trazado_183906" data-name="Trazado 183906" d="M443.78,275.488,413.906,258.24l29.873-17.249.264.153,29.611,17.1ZM416.021,258.24l27.759,16.027,27.759-16.027-27.76-16.027Z" transform="translate(-212.183 -124.527)" fill="#173d7a"/>
      <path id="Trazado_183907" data-name="Trazado 183907" d="M473.958,292.911l-.264-.153-29.61-17.1,29.874-17.249.264.153,29.611,17.1ZM446.2,275.663l27.76,16.027,27.759-16.027-27.76-16.028Z" transform="translate(-213.543 -125.312)" fill="#173d7a"/>
      <path id="Trazado_183908" data-name="Trazado 183908" d="M504.136,310.334l-.264-.153-29.611-17.1,29.875-17.248,29.875,17.249Zm-27.761-17.249,27.761,16.028,27.759-16.027-27.76-16.028Z" transform="translate(-214.903 -126.097)" fill="#173d7a"/>
      <path id="Trazado_183909" data-name="Trazado 183909" d="M534.313,327.758l-29.875-17.25,29.874-17.247.265.153,29.61,17.1Zm-27.76-17.25,27.76,16.028,27.76-16.027-27.761-16.027Z" transform="translate(-216.263 -126.882)" fill="#173d7a"/>
      <path id="Trazado_183910" data-name="Trazado 183910" d="M232.538,188.372l-.264-.153-29.611-17.1,29.874-17.249,29.875,17.25Zm-27.76-17.248,27.76,16.027L260.3,171.125,232.537,155.1Z" transform="translate(-202.662 -120.6)" fill="#173d7a"/>
      <path id="Trazado_183911" data-name="Trazado 183911" d="M262.716,205.8l-29.876-17.25L262.715,171.3l.264.153,29.611,17.1Zm-27.761-17.25,27.761,16.028,27.759-16.028-27.76-16.027Z" transform="translate(-204.022 -121.386)" fill="#173d7a"/>
      <path id="Trazado_183912" data-name="Trazado 183912" d="M292.893,223.219l-.264-.153-29.611-17.1,29.874-17.248.265.153,29.611,17.1Zm-27.76-17.249L292.893,222l27.76-16.028-27.761-16.027Z" transform="translate(-205.382 -122.171)" fill="#173d7a"/>
      <path id="Trazado_183913" data-name="Trazado 183913" d="M323.071,240.642l-.264-.153-29.611-17.1,29.874-17.248.264.153,29.611,17.1Zm-27.76-17.249,27.76,16.027,27.759-16.027-27.76-16.027Z" transform="translate(-206.743 -122.956)" fill="#173d7a"/>
      <path id="Trazado_183914" data-name="Trazado 183914" d="M353.249,258.065l-.265-.154-29.61-17.1,29.874-17.248.263.153,29.611,17.1Zm-27.76-17.249,27.76,16.027,27.759-16.027-27.76-16.027Z" transform="translate(-208.103 -123.741)" fill="#173d7a"/>
      <path id="Trazado_183915" data-name="Trazado 183915" d="M383.427,275.487l-.265-.153-29.611-17.1,29.875-17.249L413.3,258.24Zm-27.761-17.248,27.761,16.027,27.759-16.026-27.76-16.028Z" transform="translate(-209.463 -124.527)" fill="#173d7a"/>
      <path id="Trazado_183916" data-name="Trazado 183916" d="M413.6,292.911l-29.874-17.249L413.6,258.414l29.875,17.249Zm-27.759-17.249L413.6,291.69l27.76-16.027L413.6,259.635Z" transform="translate(-210.823 -125.312)" fill="#173d7a"/>
      <path id="Trazado_183917" data-name="Trazado 183917" d="M443.781,310.334l-.264-.153-29.611-17.1,29.874-17.248.264.153,29.611,17.1Zm-27.76-17.249,27.76,16.028,27.759-16.028-27.76-16.027Z" transform="translate(-212.183 -126.097)" fill="#173d7a"/>
      <path id="Trazado_183918" data-name="Trazado 183918" d="M473.959,327.757l-.264-.153-29.61-17.1,29.874-17.248.264.153,29.611,17.1ZM446.2,310.508l27.761,16.028,27.759-16.028-27.76-16.027Z" transform="translate(-213.543 -126.882)" fill="#173d7a"/>
      <path id="Trazado_183919" data-name="Trazado 183919" d="M504.137,345.18l-.264-.153-29.611-17.1,29.875-17.248,29.875,17.249Zm-27.761-17.249,27.761,16.027L531.9,327.932,504.136,311.9Z" transform="translate(-214.903 -127.668)" fill="#173d7a"/>
      <path id="Trazado_183920" data-name="Trazado 183920" d="M534.314,362.6l-.263-.154-29.611-17.1,29.874-17.248.264.154,29.61,17.1Zm-27.76-17.249,27.76,16.027,27.76-16.026-27.761-16.027Z" transform="translate(-216.264 -128.453)" fill="#173d7a"/>
      <path id="Trazado_183921" data-name="Trazado 183921" d="M232.539,223.218l-.264-.153-29.611-17.1,29.874-17.248,29.875,17.249Zm-27.76-17.249L232.539,222,260.3,205.97l-27.76-16.028Z" transform="translate(-202.662 -122.171)" fill="#173d7a"/>
      <path id="Trazado_183922" data-name="Trazado 183922" d="M262.717,240.641l-.265-.153-29.611-17.1,29.875-17.247.264.153,29.611,17.1Zm-27.761-17.249,27.761,16.027,27.759-16.026-27.76-16.027Z" transform="translate(-204.022 -122.956)" fill="#173d7a"/>
      <path id="Trazado_183923" data-name="Trazado 183923" d="M292.894,258.065l-29.875-17.25,29.874-17.247.265.153,29.611,17.1Zm-27.76-17.25,27.76,16.028,27.76-16.027-27.761-16.027Z" transform="translate(-205.382 -123.741)" fill="#173d7a"/>
      <path id="Trazado_183924" data-name="Trazado 183924" d="M323.072,275.487l-.264-.153-29.611-17.1,29.874-17.249.264.153,29.611,17.1Zm-27.76-17.248,27.76,16.027,27.759-16.027-27.76-16.027Z" transform="translate(-206.743 -124.527)" fill="#173d7a"/>
      <path id="Trazado_183925" data-name="Trazado 183925" d="M353.25,292.91l-.265-.153-29.61-17.1,29.874-17.249.264.153,29.611,17.1Zm-27.76-17.248,27.76,16.027,27.759-16.027-27.76-16.027Z" transform="translate(-208.103 -125.312)" fill="#173d7a"/>
      <path id="Trazado_183926" data-name="Trazado 183926" d="M383.427,310.333l-29.875-17.248,29.875-17.249L413.3,293.085Zm-27.76-17.248,27.76,16.027,27.759-16.027-27.759-16.028Z" transform="translate(-209.463 -126.097)" fill="#173d7a"/>
      <path id="Trazado_183927" data-name="Trazado 183927" d="M413.6,327.756l-.264-.153-29.611-17.1L413.6,293.26l.265.153,29.61,17.1Zm-27.76-17.249,27.76,16.028,27.76-16.027L413.6,294.481Z" transform="translate(-210.823 -126.882)" fill="#173d7a"/>
      <path id="Trazado_183928" data-name="Trazado 183928" d="M443.782,345.18l-29.875-17.25,29.874-17.247.264.153,29.611,17.1Zm-27.76-17.25,27.76,16.028,27.759-16.027L443.781,311.9Z" transform="translate(-212.183 -127.668)" fill="#173d7a"/>
      <path id="Trazado_183929" data-name="Trazado 183929" d="M473.96,362.6l-.265-.154-29.61-17.1,29.874-17.248.264.153,29.611,17.1ZM446.2,345.354l27.761,16.027,27.759-16.027-27.76-16.027Z" transform="translate(-213.543 -128.453)" fill="#173d7a"/>
      <path id="Trazado_183930" data-name="Trazado 183930" d="M232.54,258.064l-.264-.154-29.61-17.1,29.874-17.248.264.153,29.611,17.1Zm-27.76-17.249,27.76,16.027L260.3,240.815l-27.76-16.027Z" transform="translate(-202.662 -123.741)" fill="#173d7a"/>
      <path id="Trazado_183931" data-name="Trazado 183931" d="M262.718,275.486l-.264-.153-29.611-17.1,29.875-17.249,29.875,17.25Zm-27.761-17.248,27.761,16.027,27.759-16.026-27.76-16.028Z" transform="translate(-204.022 -124.527)" fill="#173d7a"/>
      <path id="Trazado_183932" data-name="Trazado 183932" d="M292.895,292.91,263.02,275.661l29.874-17.248.265.153,29.611,17.1Zm-27.76-17.249,27.76,16.028,27.76-16.027-27.761-16.027Z" transform="translate(-205.382 -125.312)" fill="#173d7a"/>
      <path id="Trazado_183933" data-name="Trazado 183933" d="M323.073,310.333l-.264-.153-29.611-17.1,29.874-17.249.264.153,29.611,17.1Zm-27.76-17.248,27.76,16.027,27.759-16.027-27.76-16.028Z" transform="translate(-206.743 -126.097)" fill="#173d7a"/>
      <path id="Trazado_183934" data-name="Trazado 183934" d="M353.251,327.756l-.265-.153-29.61-17.1,29.874-17.248,29.874,17.248ZM325.49,310.507l27.761,16.028,27.758-16.028L353.25,294.48Z" transform="translate(-208.103 -126.882)" fill="#173d7a"/>
      <path id="Trazado_183935" data-name="Trazado 183935" d="M383.428,345.179,353.553,327.93l29.874-17.248.263.153,29.611,17.1Zm-27.76-17.249,27.76,16.027,27.759-16.027L383.427,311.9Z" transform="translate(-209.463 -127.668)" fill="#173d7a"/>
      <path id="Trazado_183936" data-name="Trazado 183936" d="M413.6,362.6l-.264-.154-29.611-17.1L413.6,328.105l29.875,17.249Zm-27.76-17.249L413.6,361.38l27.76-16.026L413.6,329.326Z" transform="translate(-210.823 -128.453)" fill="#173d7a"/>
      <path id="Trazado_183937" data-name="Trazado 183937" d="M232.541,292.909l-.265-.153-29.61-17.1,29.874-17.249.264.153,29.611,17.1Zm-27.76-17.248,27.76,16.027L260.3,275.661l-27.76-16.027Z" transform="translate(-202.662 -125.312)" fill="#173d7a"/>
      <path id="Trazado_183938" data-name="Trazado 183938" d="M262.719,310.332l-.265-.153-29.611-17.1,29.875-17.249,29.875,17.25Zm-27.761-17.248,27.761,16.027,27.759-16.026-27.76-16.029Z" transform="translate(-204.022 -126.097)" fill="#173d7a"/>
      <path id="Trazado_183939" data-name="Trazado 183939" d="M292.9,327.755l-.264-.153-29.611-17.1,29.874-17.247.264.153,29.61,17.1Zm-27.76-17.249,27.76,16.028,27.76-16.027L292.895,294.48Z" transform="translate(-205.382 -126.882)" fill="#173d7a"/>
      <path id="Trazado_183940" data-name="Trazado 183940" d="M323.074,345.179,293.2,327.929l29.874-17.247.264.153,29.611,17.1Zm-27.76-17.25,27.76,16.028,27.759-16.027L323.073,311.9Z" transform="translate(-206.743 -127.668)" fill="#173d7a"/>
      <path id="Trazado_183941" data-name="Trazado 183941" d="M353.251,362.6l-29.874-17.249,29.874-17.248,29.874,17.248Zm-27.76-17.249,27.76,16.027,27.759-16.027-27.759-16.027Z" transform="translate(-208.103 -128.453)" fill="#173d7a"/>
      <path id="Trazado_183942" data-name="Trazado 183942" d="M232.542,327.755l-.265-.153-29.61-17.1,29.874-17.248.264.153,29.611,17.1Zm-27.761-17.249,27.761,16.028L260.3,310.506l-27.76-16.027Z" transform="translate(-202.662 -126.882)" fill="#173d7a"/>
      <path id="Trazado_183943" data-name="Trazado 183943" d="M262.72,345.178l-.265-.153-29.611-17.1,29.875-17.248.264.153,29.611,17.1Zm-27.761-17.249,27.761,16.027,27.759-16.027L262.719,311.9Z" transform="translate(-204.022 -127.667)" fill="#173d7a"/>
      <path id="Trazado_183944" data-name="Trazado 183944" d="M292.9,362.6l-.264-.154-29.611-17.1L292.9,328.1l29.875,17.249Zm-27.76-17.249,27.76,16.027,27.76-16.026L292.9,329.325Z" transform="translate(-205.382 -128.453)" fill="#173d7a"/>
      <path id="Trazado_183945" data-name="Trazado 183945" d="M232.543,362.6l-.265-.154-29.61-17.1L232.542,328.1l.264.153,29.611,17.1Zm-27.761-17.249,27.761,16.027L260.3,345.352l-27.76-16.027Z" transform="translate(-202.662 -128.453)" fill="#173d7a"/>
    </g>
    <g id="Grupo_710388" data-name="Grupo 710388" transform="translate(1010.555 429.799)">
      <g id="Grupo_710388-2" data-name="Grupo 710388" clip-path="url(#clip-path)">
        <path id="Trazado_467082" data-name="Trazado 467082" d="M26.307,197.14a.6.6,0,0,1-.309-.085L16.946,191.7a1.893,1.893,0,0,1,.042-3.283L83.02,151.6a6.815,6.815,0,0,0,3.494-5.947V110.4a1.64,1.64,0,0,1,2.461-1.42l6.238,3.6a.609.609,0,0,1-.609,1.055l-6.239-3.6a.423.423,0,0,0-.634.366v35.251a8.034,8.034,0,0,1-4.117,7.01L17.581,189.481a.676.676,0,0,0-.014,1.172l9.052,5.355a.609.609,0,0,1-.311,1.132" transform="translate(-1.003 -6.807)" fill="#5793ce"/>
        <rect id="Rectángulo_263745" data-name="Rectángulo 263745" width="5.026" height="10.846" transform="translate(20.363 189.723) rotate(-60.169)" fill="#5793ce"/>
        <path id="Trazado_467083" data-name="Trazado 467083" d="M21.164,200.945a3.928,3.928,0,0,1,1.768-3.083c.98-.569,1.776-.112,1.78,1.021a3.93,3.93,0,0,1-1.768,3.083c-.98.569-1.776.113-1.78-1.021" transform="translate(-1.325 -12.37)" fill="#5793ce"/>
        <rect id="Rectángulo_263746" data-name="Rectángulo 263746" width="8.144" height="17.01" transform="translate(27.352 195.529) rotate(-60.168)" fill="#5793ce"/>
        <path id="Trazado_467084" data-name="Trazado 467084" d="M32.4,202.428,29.211,200.6a6.5,6.5,0,0,0-2.5,4.36l3.184,1.826a6.5,6.5,0,0,0,2.5-4.36" transform="translate(-1.672 -12.557)" fill="#396caa"/>
        <path id="Trazado_467085" data-name="Trazado 467085" d="M28.273,206.239a6.364,6.364,0,0,1,2.865-5c1.588-.923,2.879-.183,2.884,1.654a6.361,6.361,0,0,1-2.865,5c-1.588.923-2.879.183-2.884-1.654" transform="translate(-1.77 -12.572)" fill="#5793ce"/>
        <path id="Trazado_467086" data-name="Trazado 467086" d="M24.307,199.847a.508.508,0,0,1,0-.963,1.844,1.844,0,0,1,1.668,0,.508.508,0,0,1,0,.963,1.844,1.844,0,0,1-1.668,0" transform="translate(-1.5 -12.436)" fill="#d4ecff"/>
        <rect id="Rectángulo_263747" data-name="Rectángulo 263747" width="5.026" height="10.846" transform="translate(91.808 107.977) rotate(-60.169)" fill="#5793ce"/>
        <path id="Trazado_467087" data-name="Trazado 467087" d="M97.38,113.74a3.928,3.928,0,0,1,1.768-3.083c.98-.569,1.776-.112,1.78,1.021a3.93,3.93,0,0,1-1.768,3.083c-.98.569-1.776.112-1.78-1.021" transform="translate(-6.095 -6.911)" fill="#5793ce"/>
        <rect id="Rectángulo_263748" data-name="Rectángulo 263748" width="8.144" height="17.01" transform="translate(98.798 113.782) rotate(-60.168)" fill="#5793ce"/>
        <path id="Trazado_467088" data-name="Trazado 467088" d="M108.612,115.223l-3.185-1.826a6.5,6.5,0,0,0-2.5,4.36l3.184,1.826a6.506,6.506,0,0,0,2.5-4.36" transform="translate(-6.443 -7.098)" fill="#396caa"/>
        <path id="Trazado_467089" data-name="Trazado 467089" d="M104.489,119.034a6.361,6.361,0,0,1,2.865-5c1.588-.923,2.879-.183,2.884,1.654a6.361,6.361,0,0,1-2.865,5c-1.588.923-2.879.183-2.884-1.654" transform="translate(-6.54 -7.113)" fill="#5793ce"/>
        <path id="Trazado_467090" data-name="Trazado 467090" d="M100.523,112.642a.508.508,0,0,1,0-.963,1.844,1.844,0,0,1,1.668,0,.508.508,0,0,1,0,.963,1.844,1.844,0,0,1-1.668,0" transform="translate(-6.27 -6.978)" fill="#d4ecff"/>
        <path id="Trazado_467091" data-name="Trazado 467091" d="M139.354,132.517a.609.609,0,0,1-.306-1.136l22.758-13.14a6.227,6.227,0,0,0,3.106-5.377V78.539a1.868,1.868,0,0,1,2.806-1.617L204.5,98.241V69.59a.609.609,0,1,1,1.218,0V99.3a.609.609,0,0,1-.915.527L167.106,77.975a.651.651,0,0,0-.977.563v34.326a7.446,7.446,0,0,1-3.713,6.432l-22.758,13.14a.608.608,0,0,1-.3.082" transform="translate(-8.685 -4.318)" fill="#5793ce"/>
        <path id="Trazado_467092" data-name="Trazado 467092" d="M187.92,158.539a.609.609,0,0,1-.306-1.136l28.306-16.343a6.227,6.227,0,0,0,3.106-5.377V76.563a.608.608,0,0,1,1.217,0v59.119a7.446,7.446,0,0,1-3.713,6.432l-28.306,16.343a.608.608,0,0,1-.3.082" transform="translate(-11.725 -4.754)" fill="#5793ce"/>
        <path id="Trazado_467093" data-name="Trazado 467093" d="M241.556,187.393a.655.655,0,0,1-.328-1.221l25.666-14.819A6.177,6.177,0,0,0,269.975,166l-.084-27.6a6.183,6.183,0,0,0-3.088-5.324L233.676,114a.657.657,0,0,1-.328-.567v-29.9a.655.655,0,0,1,1.31,0v29.518l32.8,18.889A7.5,7.5,0,0,1,271.2,138.4l.084,27.6a7.489,7.489,0,0,1-3.737,6.493l-25.665,14.819a.647.647,0,0,1-.326.088" transform="translate(-14.606 -5.188)" fill="#5793ce"/>
        <rect id="Rectángulo_263749" data-name="Rectángulo 263749" width="5.025" height="10.846" transform="translate(216.884 76.527)" fill="#5793ce"/>
        <path id="Trazado_467094" data-name="Trazado 467094" d="M235.656,94.136a3.93,3.93,0,0,1-3.554,0,1.083,1.083,0,0,1,0-2.052,3.93,3.93,0,0,1,3.554,0,1.083,1.083,0,0,1,0,2.052" transform="translate(-14.482 -5.737)" fill="#5793ce"/>
        <rect id="Rectángulo_263750" data-name="Rectángulo 263750" width="8.144" height="17.01" transform="translate(215.324 61.412)" fill="#5793ce"/>
        <path id="Trazado_467095" data-name="Trazado 467095" d="M231.366,83.506v3.671a6.506,6.506,0,0,0,5.025,0V83.506a6.506,6.506,0,0,0-5.025,0" transform="translate(-14.482 -5.195)" fill="#396caa"/>
        <path id="Trazado_467096" data-name="Trazado 467096" d="M236.654,85.164a6.366,6.366,0,0,1-5.758,0c-1.591-.919-1.591-2.407,0-3.325a6.366,6.366,0,0,1,5.758,0c1.59.919,1.59,2.407,0,3.325" transform="translate(-14.378 -5.08)" fill="#5793ce"/>
        <rect id="Rectángulo_263751" data-name="Rectángulo 263751" width="5.025" height="10.846" transform="translate(205.397 69.989)" fill="#5793ce"/>
        <path id="Trazado_467097" data-name="Trazado 467097" d="M223.4,87.163a3.93,3.93,0,0,1-3.554,0,1.083,1.083,0,0,1,0-2.052,3.93,3.93,0,0,1,3.554,0,1.083,1.083,0,0,1,0,2.052" transform="translate(-13.715 -5.301)" fill="#5793ce"/>
        <rect id="Rectángulo_263752" data-name="Rectángulo 263752" width="8.144" height="17.01" transform="translate(203.838 54.875)" fill="#5793ce"/>
        <path id="Trazado_467098" data-name="Trazado 467098" d="M219.112,76.533V80.2a6.5,6.5,0,0,0,5.025,0V76.533a6.5,6.5,0,0,0-5.025,0" transform="translate(-13.715 -4.759)" fill="#396caa"/>
        <path id="Trazado_467099" data-name="Trazado 467099" d="M224.4,78.19a6.366,6.366,0,0,1-5.758,0c-1.591-.919-1.591-2.406,0-3.325a6.366,6.366,0,0,1,5.758,0c1.59.919,1.59,2.406,0,3.325" transform="translate(-13.611 -4.643)" fill="#5793ce"/>
        <rect id="Rectángulo_263753" data-name="Rectángulo 263753" width="5.026" height="10.846" transform="translate(193.909 63.452)" fill="#5793ce"/>
        <path id="Trazado_467100" data-name="Trazado 467100" d="M211.148,80.189a3.93,3.93,0,0,1-3.554,0,1.083,1.083,0,0,1,0-2.052,3.93,3.93,0,0,1,3.554,0,1.083,1.083,0,0,1,0,2.052" transform="translate(-12.948 -4.864)" fill="#5793ce"/>
        <rect id="Rectángulo_263754" data-name="Rectángulo 263754" width="8.144" height="17.01" transform="translate(192.351 48.337)" fill="#5793ce"/>
        <path id="Trazado_467101" data-name="Trazado 467101" d="M206.858,69.559v3.67a6.5,6.5,0,0,0,5.025,0v-3.67a6.5,6.5,0,0,0-5.025,0" transform="translate(-12.948 -4.322)" fill="#396caa"/>
        <path id="Trazado_467102" data-name="Trazado 467102" d="M212.147,71.216a6.368,6.368,0,0,1-5.759,0c-1.591-.919-1.591-2.406,0-3.325a6.368,6.368,0,0,1,5.759,0c1.59.919,1.59,2.407,0,3.325" transform="translate(-12.844 -4.207)" fill="#5793ce"/>
        <path id="Trazado_467103" data-name="Trazado 467103" d="M266.95,96.392l10.92-6.432-10.4-12.979-2.734,4.467Z" transform="translate(-16.571 -4.819)" fill="#5793ce"/>
        <path id="Trazado_467104" data-name="Trazado 467104" d="M182.516,21.026,199.942,11s-.654,10.006-.654,10.026-10.012,3.1-10.012,3.1Z" transform="translate(-11.425 -0.689)" fill="#5793ce"/>
        <path id="Trazado_467105" data-name="Trazado 467105" d="M265.7,58.936a10.978,10.978,0,0,0-3.77-1.4C260.176,48.3,253.75,38.5,246.088,34.074a15.5,15.5,0,0,0-6.484-2.194c-1.046-11.194-8.828-23.914-18.279-29.37C216.389-.341,211.91-.678,208.6,1.067V1.058l-.16.093c-.084.047-.168.095-.25.144l-10.277,6.07,3.414,2.7c-3.065,1.34-5,4.777-5,9.859,0,9.371,6.579,20.767,14.695,25.452L265.7,84.419c6.094,3.518,11.035.666,11.035-6.371S271.8,62.455,265.7,58.936" transform="translate(-12.289 0)" fill="#5793ce"/>
        <path id="Trazado_467106" data-name="Trazado 467106" d="M196.87,15.794,220.457,2.014c-4.579-2.389-8.716-2.585-11.819-.947V1.058l-.161.092c-.084.047-.168.095-.25.144l-10.277,6.07,3.415,2.7a8.24,8.24,0,0,0-4.5,5.733" transform="translate(-12.323 0)" fill="#5793ce"/>
        <path id="Trazado_467107" data-name="Trazado 467107" d="M242.138,58.551l17.21-10.1a33.335,33.335,0,0,0-11.516-12.163c-.6-.344-1.183-.645-1.762-.907l-21.889,12.8Z" transform="translate(-14.032 -2.215)" fill="#5793ce"/>
        <path id="Trazado_467108" data-name="Trazado 467108" d="M203.2,8.522l7.67,4.428L224.91,4.678a28.073,28.073,0,0,0-3.155-2.139A19.741,19.741,0,0,0,216.846.477Z" transform="translate(-12.719 -0.03)" fill="#d4ecff"/>
        <path id="Trazado_467109" data-name="Trazado 467109" d="M258.754,46.154l-13.736,8.094,4.778,5.328,12.468-7.362a40.023,40.023,0,0,0-3.511-6.059" transform="translate(-15.337 -2.889)" fill="#d4ecff"/>
        <path id="Trazado_467110" data-name="Trazado 467110" d="M253.752,65.715a10.977,10.977,0,0,0-3.77-1.4c-1.758-9.234-8.184-19.042-15.845-23.465a15.509,15.509,0,0,0-6.484-2.194c-1.046-11.194-8.828-23.914-18.279-29.37-10.163-5.868-18.4-1.112-18.4,10.624,0,.4.011.8.03,1.2-7.432-3.447-13.239.437-13.239,9.241,0,9.371,6.58,20.766,14.695,25.452l61.3,35.389c6.094,3.518,11.035.666,11.035-6.371s-4.941-15.594-11.035-19.113" transform="translate(-11.127 -0.424)" fill="#d4ecff"/>
        <path id="Trazado_467111" data-name="Trazado 467111" d="M191.224,21.932c-.019-.4-.03-.8-.03-1.2v-.05c-4.106-1.6-7.634-.9-9.848,1.661,2.405-1.981,5.9-2.251,9.877-.409" transform="translate(-11.351 -1.241)" fill="#fff"/>
        <path id="Trazado_467112" data-name="Trazado 467112" d="M255.8,64.782a10.975,10.975,0,0,0-3.771-1.4c-1.757-9.234-8.183-19.042-15.844-23.464a15.5,15.5,0,0,0-6.484-2.194c-1.046-11.194-8.828-23.914-18.279-29.37C205.092,4.7,199.508,5.17,196.2,8.88c3.374-2.883,8.538-2.994,14.33.351,9.451,5.456,17.233,18.176,18.279,29.37a15.518,15.518,0,0,1,6.484,2.194c7.661,4.424,14.087,14.231,15.844,23.465a10.974,10.974,0,0,1,3.771,1.4C261,69.176,265.94,77.733,265.94,84.77a9.1,9.1,0,0,1-1.759,5.87c1.653-1.273,2.657-3.582,2.657-6.745,0-7.037-4.941-15.595-11.035-19.113" transform="translate(-12.281 -0.366)" fill="#fff"/>
        <path id="Trazado_467113" data-name="Trazado 467113" d="M189.91,24.116l4.607,2.136-.234-5.073c-.016-.356-.026-.71-.026-1.061,0-4.529,1.367-7.812,3.85-9.246s6.011-.975,9.932,1.289c8.435,4.87,15.793,16.725,16.752,26.989l.242,2.586,2.589.2a12.458,12.458,0,0,1,5.18,1.79c6.7,3.869,12.738,12.857,14.358,21.373l.406,2.132,2.144.336a7.963,7.963,0,0,1,2.707,1.023c5.146,2.972,9.495,10.5,9.495,16.444,0,2.224-.617,3.856-1.692,4.476s-2.8.339-4.722-.773L194.2,53.346c-7.131-4.116-13.155-14.55-13.155-22.785,0-3.231.952-5.692,2.613-6.754a4.481,4.481,0,0,1,2.444-.653,9.213,9.213,0,0,1,3.8.962" transform="translate(-11.333 -0.629)" fill="#173d7a"/>
        <path id="Trazado_467114" data-name="Trazado 467114" d="M223.137,65.9l1.617-.812-1.592-1.205Z" transform="translate(-13.967 -3.999)" fill="#5793ce"/>
        <path id="Trazado_467115" data-name="Trazado 467115" d="M217.956,42.683l1.57-.794.028.822Z" transform="translate(-13.643 -2.622)" fill="#5793ce"/>
        <path id="Trazado_467116" data-name="Trazado 467116" d="M227.956,60.335l1.638-.824-3.152-3Z" transform="translate(-14.174 -3.537)" fill="#5793ce"/>
        <path id="Trazado_467117" data-name="Trazado 467117" d="M223.8,64.136l-7.656-4.509a1.63,1.63,0,0,1-.7-1.287l.024-8.863,9.063,5.338-.025,8.863c0,.482-.317.687-.706.458" transform="translate(-13.486 -3.097)" fill="#5793ce"/>
        <path id="Trazado_467118" data-name="Trazado 467118" d="M219.051,41.894l-8.268,5.321c-.352.226-.067,1.067.465,1.381l8.444,4.974,8.445,4.973c.532.314.82-.191.472-.829L220.4,42.688c-.354-.649-.99-1.023-1.347-.793" transform="translate(-13.184 -2.618)" fill="#5793ce"/>
        <path id="Trazado_467119" data-name="Trazado 467119" d="M222.047,65.018l-7.656-4.509a1.63,1.63,0,0,1-.7-1.287l.024-8.863,9.063,5.338-.025,8.863c0,.482-.317.687-.706.458" transform="translate(-13.376 -3.152)" fill="#d4ecff"/>
        <path id="Trazado_467120" data-name="Trazado 467120" d="M217.3,42.776,209.031,48.1c-.352.226-.067,1.067.465,1.381l8.444,4.974,8.445,4.973c.532.314.82-.191.472-.829L218.646,43.57c-.354-.649-.99-1.023-1.347-.793" transform="translate(-13.074 -2.673)" fill="#d4ecff"/>
        <path id="Trazado_467121" data-name="Trazado 467121" d="M208.671,78.121c0,.532-.373.747-.833.481A1.842,1.842,0,0,1,207,77.158c0-.532.374-.747.834-.481a1.842,1.842,0,0,1,.833,1.444" transform="translate(-12.957 -4.792)" fill="#d4ecff"/>
        <path id="Trazado_467122" data-name="Trazado 467122" d="M134.6,202.9l22.983-13.269c1.41-.815,1.234-2.238-.4-3.178L135,173.639a6.115,6.115,0,0,0-5.5-.228L106.513,186.68c-1.411.815-1.234,2.237.4,3.178L129.1,202.671a6.117,6.117,0,0,0,5.5.228" transform="translate(-6.608 -10.82)" fill="#b2d3ea"/>
        <path id="Trazado_467123" data-name="Trazado 467123" d="M98.443,175.814h0v-9.93l22.267-.013,7.7-4.443a7.659,7.659,0,0,1,6.891.286l7.181,4.146,22.287-.013V176.06a2,2,0,0,1-1.183,1.847L134.8,194.522a7.656,7.656,0,0,1-6.891-.286l-27.789-16.044a2.731,2.731,0,0,1-1.678-2.378" transform="translate(-6.162 -10.061)" fill="#173d7a"/>
        <path id="Trazado_467124" data-name="Trazado 467124" d="M133.818,160.745a7.954,7.954,0,0,1,3.694.969l7.181,4.145,22.287-.012V176.06a2,2,0,0,1-1.184,1.846l-28.779,16.616a6.248,6.248,0,0,1-3.2.683Z" transform="translate(-8.376 -10.062)" fill="#396caa"/>
        <path id="Trazado_467125" data-name="Trazado 467125" d="M166.5,166.19h2.523V176.4a2,2,0,0,1-1.184,1.847l-1.339.772Z" transform="translate(-10.422 -10.403)" fill="#5793ce"/>
        <path id="Trazado_467126" data-name="Trazado 467126" d="M136.389,196.232a7.85,7.85,0,0,1-5.508-.063v-11.6h5.508Z" transform="translate(-8.192 -11.553)" fill="#5793ce"/>
        <path id="Trazado_467127" data-name="Trazado 467127" d="M134.8,183.411l28.78-16.616c1.766-1.02,1.545-2.8-.495-3.979L135.3,146.773a7.659,7.659,0,0,0-6.891-.286L99.626,163.1c-1.766,1.019-1.545,2.8.495,3.978l27.789,16.044a7.656,7.656,0,0,0,6.891.286" transform="translate(-6.161 -9.126)" fill="#d4ecff"/>
        <path id="Trazado_467128" data-name="Trazado 467128" d="M134.642,180.627,158.76,166.7c1.48-.855,1.295-2.347-.414-3.334l-23.288-13.445a6.416,6.416,0,0,0-5.774-.239l-24.118,13.924c-1.48.855-1.295,2.347.414,3.334l23.288,13.445a6.418,6.418,0,0,0,5.774.239" transform="translate(-6.52 -9.333)" fill="#5793ce"/>
        <path id="Trazado_467129" data-name="Trazado 467129" d="M109.736,179.562a2.57,2.57,0,0,0,1.162,2.014c.642.37,1.162.07,1.162-.671a2.57,2.57,0,0,0-1.162-2.014c-.642-.37-1.162-.07-1.162.671" transform="translate(-6.869 -11.188)" fill="#d4ecff"/>
        <path id="Trazado_467130" data-name="Trazado 467130" d="M105.746,177.258a2.57,2.57,0,0,0,1.162,2.014c.642.37,1.162.07,1.162-.671a2.568,2.568,0,0,0-1.162-2.014c-.642-.37-1.162-.07-1.162.671" transform="translate(-6.619 -11.043)" fill="#d4ecff"/>
        <path id="Trazado_467131" data-name="Trazado 467131" d="M101.756,174.955a2.57,2.57,0,0,0,1.162,2.014c.642.37,1.162.07,1.162-.671a2.57,2.57,0,0,0-1.162-2.014c-.642-.37-1.162-.07-1.162.671" transform="translate(-6.369 -10.899)" fill="#ff2c9c"/>
        <path id="Trazado_467132" data-name="Trazado 467132" d="M98.443,158.885h0v-9.93l22.267-.012,7.7-4.444a7.659,7.659,0,0,1,6.891.286l7.181,4.146,22.287-.013v10.213a2,2,0,0,1-1.183,1.847L134.8,177.593a7.656,7.656,0,0,1-6.891-.286l-27.789-16.044a2.731,2.731,0,0,1-1.678-2.378" transform="translate(-6.162 -9.002)" fill="#173d7a"/>
        <path id="Trazado_467133" data-name="Trazado 467133" d="M133.818,143.817a7.953,7.953,0,0,1,3.694.968l7.181,4.146,22.287-.012v10.213a2,2,0,0,1-1.184,1.846l-28.779,16.616a6.248,6.248,0,0,1-3.2.683Z" transform="translate(-8.376 -9.002)" fill="#396caa"/>
        <path id="Trazado_467134" data-name="Trazado 467134" d="M166.5,149.261h2.523v10.212a2,2,0,0,1-1.184,1.847l-1.339.772Z" transform="translate(-10.422 -9.343)" fill="#5793ce"/>
        <path id="Trazado_467135" data-name="Trazado 467135" d="M136.389,179.3a7.85,7.85,0,0,1-5.508-.063v-11.6h5.508Z" transform="translate(-8.192 -10.494)" fill="#5793ce"/>
        <path id="Trazado_467136" data-name="Trazado 467136" d="M134.8,166.482l28.78-16.616c1.766-1.02,1.545-2.8-.495-3.978L135.3,129.844a7.656,7.656,0,0,0-6.891-.286l-28.78,16.616c-1.766,1.02-1.545,2.8.495,3.979L127.911,166.2a7.656,7.656,0,0,0,6.891.286" transform="translate(-6.161 -8.067)" fill="#d4ecff"/>
        <path id="Trazado_467137" data-name="Trazado 467137" d="M134.642,163.7l24.118-13.924c1.48-.855,1.295-2.347-.414-3.334L135.057,133a6.416,6.416,0,0,0-5.774-.239l-24.118,13.924c-1.48.855-1.295,2.347.414,3.334l23.288,13.445a6.418,6.418,0,0,0,5.774.239" transform="translate(-6.52 -8.274)" fill="#5793ce"/>
        <path id="Trazado_467138" data-name="Trazado 467138" d="M109.736,162.633a2.57,2.57,0,0,0,1.162,2.014c.642.37,1.162.07,1.162-.671a2.57,2.57,0,0,0-1.162-2.014c-.642-.37-1.162-.07-1.162.671" transform="translate(-6.869 -10.128)" fill="#ff2c9c"/>
        <path id="Trazado_467139" data-name="Trazado 467139" d="M105.746,160.329a2.57,2.57,0,0,0,1.162,2.014c.642.37,1.162.07,1.162-.671a2.568,2.568,0,0,0-1.162-2.014c-.642-.37-1.162-.07-1.162.671" transform="translate(-6.619 -9.984)" fill="#5793ce"/>
        <path id="Trazado_467140" data-name="Trazado 467140" d="M101.756,158.026a2.57,2.57,0,0,0,1.162,2.014c.642.37,1.162.07,1.162-.671a2.568,2.568,0,0,0-1.162-2.014c-.642-.37-1.162-.07-1.162.671" transform="translate(-6.369 -9.84)" fill="#5793ce"/>
        <path id="Trazado_467141" data-name="Trazado 467141" d="M98.443,141.957h0v-9.93l22.267-.012,7.7-4.444a7.659,7.659,0,0,1,6.891.286L142.477,132l22.287-.013V142.2a2,2,0,0,1-1.183,1.847L134.8,160.665a7.656,7.656,0,0,1-6.891-.286l-27.789-16.044a2.731,2.731,0,0,1-1.678-2.378" transform="translate(-6.162 -7.942)" fill="#173d7a"/>
        <path id="Trazado_467142" data-name="Trazado 467142" d="M133.818,126.888a7.953,7.953,0,0,1,3.694.968L144.693,132l22.287-.012V142.2a2,2,0,0,1-1.184,1.846l-28.779,16.616a6.248,6.248,0,0,1-3.2.682Z" transform="translate(-8.376 -7.943)" fill="#396caa"/>
        <path id="Trazado_467143" data-name="Trazado 467143" d="M166.5,132.332h2.523v10.212a2,2,0,0,1-1.184,1.847l-1.339.772Z" transform="translate(-10.422 -8.283)" fill="#5793ce"/>
        <path id="Trazado_467144" data-name="Trazado 467144" d="M136.389,162.373a7.85,7.85,0,0,1-5.508-.063v-11.6h5.508Z" transform="translate(-8.192 -9.434)" fill="#5793ce"/>
        <path id="Trazado_467145" data-name="Trazado 467145" d="M134.8,149.553l28.78-16.616c1.766-1.02,1.545-2.8-.495-3.978L135.3,112.915a7.656,7.656,0,0,0-6.891-.286l-28.78,16.615c-1.766,1.02-1.545,2.8.495,3.979l27.789,16.044a7.659,7.659,0,0,0,6.891.286" transform="translate(-6.161 -7.007)" fill="#d4ecff"/>
        <path id="Trazado_467146" data-name="Trazado 467146" d="M100.122,132.477l27.789,16.044a7.656,7.656,0,0,0,6.891.286l28.78-16.616a2.666,2.666,0,0,0,.881-.782,1.85,1.85,0,0,1-.881,2.735L134.8,150.761a7.659,7.659,0,0,1-6.891-.286l-27.789-16.044c-1.585-.915-2.066-2.194-1.376-3.2a3.844,3.844,0,0,0,1.376,1.242" transform="translate(-6.162 -8.215)" fill="#fff"/>
        <path id="Trazado_467147" data-name="Trazado 467147" d="M109.736,145.7a2.57,2.57,0,0,0,1.162,2.014c.642.37,1.162.07,1.162-.671a2.568,2.568,0,0,0-1.162-2.014c-.642-.37-1.162-.07-1.162.671" transform="translate(-6.869 -9.068)" fill="#5793ce"/>
        <path id="Trazado_467148" data-name="Trazado 467148" d="M105.746,143.4a2.57,2.57,0,0,0,1.162,2.014c.642.37,1.162.07,1.162-.671a2.57,2.57,0,0,0-1.162-2.014c-.642-.37-1.162-.07-1.162.671" transform="translate(-6.619 -8.924)" fill="#d4ecff"/>
        <path id="Trazado_467149" data-name="Trazado 467149" d="M101.756,141.1a2.57,2.57,0,0,0,1.162,2.014c.642.37,1.162.07,1.162-.671a2.57,2.57,0,0,0-1.162-2.014c-.642-.37-1.162-.07-1.162.671" transform="translate(-6.369 -8.78)" fill="#ff2c9c"/>
        <path id="Trazado_467150" data-name="Trazado 467150" d="M134.278,139.9l13.468-7.776c.827-.477.723-1.311-.232-1.862l-13-7.508a3.584,3.584,0,0,0-3.225-.134L117.818,130.4c-.827.477-.724,1.31.232,1.862l13,7.508a3.584,3.584,0,0,0,3.225.134" transform="translate(-7.34 -7.655)" fill="#173d7a"/>
        <path id="Trazado_467151" data-name="Trazado 467151" d="M133.882,133.968l1.864-1.076c.114-.066.1-.181-.032-.257l-1.8-1.04a.5.5,0,0,0-.446-.018l-1.863,1.075c-.114.067-.1.182.032.258l1.8,1.039a.493.493,0,0,0,.446.019" transform="translate(-8.233 -8.233)" fill="#ff2c9c"/>
        <path id="Trazado_467152" data-name="Trazado 467152" d="M147.746,132.125l-.038.022c-.063-.044-.121-.091-.193-.132l-13-7.509a3.587,3.587,0,0,0-3.225-.133l-13.43,7.753c-.761-.546-.8-1.288-.037-1.729l13.468-7.776a3.584,3.584,0,0,1,3.225.134l13,7.508c.954.551,1.058,1.385.232,1.862" transform="translate(-7.34 -7.655)" fill="#396caa"/>
        <path id="Trazado_467153" data-name="Trazado 467153" d="M188.745,233.357l22.983-13.269c1.41-.814,1.234-2.238-.4-3.178L189.14,204.1a6.115,6.115,0,0,0-5.5-.227L160.654,217.14c-1.411.814-1.234,2.237.4,3.177l22.191,12.812a6.117,6.117,0,0,0,5.5.228" transform="translate(-9.996 -12.727)" fill="#b2d3ea"/>
        <path id="Trazado_467154" data-name="Trazado 467154" d="M152.585,206.274h0v-9.93l22.266-.013,7.7-4.443a7.659,7.659,0,0,1,6.891.286l7.181,4.145,22.287-.012V206.52a2,2,0,0,1-1.183,1.846l-28.78,16.616a7.659,7.659,0,0,1-6.891-.286l-27.789-16.044a2.731,2.731,0,0,1-1.678-2.378" transform="translate(-9.551 -11.968)" fill="#173d7a"/>
        <path id="Trazado_467155" data-name="Trazado 467155" d="M187.959,191.205a7.936,7.936,0,0,1,3.693.969l7.181,4.145,22.287-.012V206.52a2,2,0,0,1-1.184,1.846l-28.779,16.616a6.248,6.248,0,0,1-3.2.683Z" transform="translate(-11.765 -11.968)" fill="#396caa"/>
        <path id="Trazado_467156" data-name="Trazado 467156" d="M220.644,196.65h2.523v10.212a2,2,0,0,1-1.184,1.847l-1.339.772Z" transform="translate(-13.811 -12.309)" fill="#5793ce"/>
        <path id="Trazado_467157" data-name="Trazado 467157" d="M190.53,226.692a7.85,7.85,0,0,1-5.508-.063v-11.6h5.508Z" transform="translate(-11.581 -13.46)" fill="#5793ce"/>
        <path id="Trazado_467158" data-name="Trazado 467158" d="M188.943,213.871l28.78-16.616c1.766-1.019,1.545-2.8-.495-3.978l-27.789-16.044a7.656,7.656,0,0,0-6.891-.286l-28.78,16.616c-1.766,1.02-1.545,2.8.495,3.979l27.789,16.044a7.659,7.659,0,0,0,6.891.286" transform="translate(-9.55 -11.033)" fill="#d4ecff"/>
        <path id="Trazado_467159" data-name="Trazado 467159" d="M188.783,211.087,212.9,197.163c1.48-.855,1.295-2.347-.414-3.334L189.2,180.383a6.416,6.416,0,0,0-5.774-.239l-24.118,13.924c-1.48.855-1.295,2.347.415,3.334l23.287,13.445a6.421,6.421,0,0,0,5.775.239" transform="translate(-9.909 -11.24)" fill="#5793ce"/>
        <path id="Trazado_467160" data-name="Trazado 467160" d="M163.877,210.022a2.57,2.57,0,0,0,1.162,2.014c.642.37,1.162.07,1.162-.671a2.57,2.57,0,0,0-1.162-2.014c-.642-.37-1.162-.07-1.162.671" transform="translate(-10.258 -13.094)" fill="#ff2c9c"/>
        <path id="Trazado_467161" data-name="Trazado 467161" d="M159.887,207.718a2.57,2.57,0,0,0,1.162,2.014c.642.37,1.162.07,1.162-.671a2.57,2.57,0,0,0-1.162-2.014c-.642-.37-1.162-.07-1.162.671" transform="translate(-10.008 -12.95)" fill="#5793ce"/>
        <path id="Trazado_467162" data-name="Trazado 467162" d="M155.9,205.415a2.57,2.57,0,0,0,1.162,2.014c.642.37,1.162.07,1.162-.671a2.57,2.57,0,0,0-1.162-2.014c-.642-.37-1.162-.07-1.162.671" transform="translate(-9.758 -12.806)" fill="#d4ecff"/>
        <path id="Trazado_467163" data-name="Trazado 467163" d="M152.585,189.345h0v-9.93l22.266-.013,7.7-4.443a7.659,7.659,0,0,1,6.891.286l7.181,4.146,22.287-.013v10.213a2,2,0,0,1-1.183,1.847l-28.78,16.616a7.656,7.656,0,0,1-6.891-.286l-27.789-16.044a2.731,2.731,0,0,1-1.678-2.378" transform="translate(-9.551 -10.908)" fill="#173d7a"/>
        <path id="Trazado_467164" data-name="Trazado 467164" d="M187.959,174.277a7.947,7.947,0,0,1,3.693.969l7.181,4.145,22.287-.012v10.213a2,2,0,0,1-1.184,1.846l-28.779,16.616a6.248,6.248,0,0,1-3.2.683Z" transform="translate(-11.765 -10.909)" fill="#396caa"/>
        <path id="Trazado_467165" data-name="Trazado 467165" d="M220.644,179.721l2.523,0v10.213a2,2,0,0,1-1.184,1.847l-1.339.772Z" transform="translate(-13.811 -11.249)" fill="#5793ce"/>
        <path id="Trazado_467166" data-name="Trazado 467166" d="M190.53,209.763a7.85,7.85,0,0,1-5.508-.063V198.1h5.508Z" transform="translate(-11.581 -12.4)" fill="#5793ce"/>
        <path id="Trazado_467167" data-name="Trazado 467167" d="M188.943,196.942l28.78-16.616c1.766-1.019,1.545-2.8-.495-3.978L189.438,160.3a7.656,7.656,0,0,0-6.891-.286l-28.78,16.616c-1.766,1.02-1.545,2.8.495,3.979l27.789,16.044a7.659,7.659,0,0,0,6.891.286" transform="translate(-9.55 -9.973)" fill="#d4ecff"/>
        <path id="Trazado_467168" data-name="Trazado 467168" d="M188.783,194.159,212.9,180.235c1.48-.855,1.295-2.347-.414-3.334L189.2,163.455a6.416,6.416,0,0,0-5.774-.239l-24.118,13.924c-1.48.855-1.295,2.347.415,3.334l23.287,13.445a6.421,6.421,0,0,0,5.775.239" transform="translate(-9.909 -10.18)" fill="#5793ce"/>
        <path id="Trazado_467169" data-name="Trazado 467169" d="M163.877,193.093a2.57,2.57,0,0,0,1.162,2.014c.642.37,1.162.07,1.162-.671a2.57,2.57,0,0,0-1.162-2.014c-.642-.37-1.162-.07-1.162.671" transform="translate(-10.258 -12.035)" fill="#d4ecff"/>
        <path id="Trazado_467170" data-name="Trazado 467170" d="M159.887,190.789a2.57,2.57,0,0,0,1.162,2.014c.642.37,1.162.07,1.162-.671a2.57,2.57,0,0,0-1.162-2.014c-.642-.37-1.162-.07-1.162.671" transform="translate(-10.008 -11.89)" fill="#ff2c9c"/>
        <path id="Trazado_467171" data-name="Trazado 467171" d="M155.9,188.486a2.57,2.57,0,0,0,1.162,2.014c.642.37,1.162.07,1.162-.671a2.568,2.568,0,0,0-1.162-2.014c-.642-.37-1.162-.07-1.162.671" transform="translate(-9.758 -11.746)" fill="#5793ce"/>
        <path id="Trazado_467172" data-name="Trazado 467172" d="M152.585,172.416h0v-9.929l22.266-.014,7.7-4.443a7.659,7.659,0,0,1,6.891.287l7.181,4.146,22.287-.014v10.214a2,2,0,0,1-1.183,1.845l-28.78,16.616a7.653,7.653,0,0,1-6.891-.285l-27.789-16.045a2.729,2.729,0,0,1-1.678-2.378" transform="translate(-9.551 -9.849)" fill="#173d7a"/>
        <path id="Trazado_467173" data-name="Trazado 467173" d="M187.959,157.348a7.936,7.936,0,0,1,3.693.969l7.181,4.145,22.287-.012v10.213a2,2,0,0,1-1.184,1.846l-28.779,16.616a6.248,6.248,0,0,1-3.2.683Z" transform="translate(-11.765 -9.849)" fill="#396caa"/>
        <path id="Trazado_467174" data-name="Trazado 467174" d="M220.644,162.792h2.523V173a2,2,0,0,1-1.184,1.847l-1.339.772Z" transform="translate(-13.811 -10.19)" fill="#5793ce"/>
        <path id="Trazado_467175" data-name="Trazado 467175" d="M190.53,192.833a7.85,7.85,0,0,1-5.508-.063v-11.6h5.508Z" transform="translate(-11.581 -11.341)" fill="#5793ce"/>
        <path id="Trazado_467176" data-name="Trazado 467176" d="M188.943,180.013l28.78-16.616c1.766-1.019,1.545-2.8-.495-3.978l-27.789-16.044a7.659,7.659,0,0,0-6.891-.286l-28.78,16.616c-1.766,1.019-1.545,2.8.495,3.978l27.789,16.044a7.656,7.656,0,0,0,6.891.286" transform="translate(-9.55 -8.914)" fill="#d4ecff"/>
        <path id="Trazado_467177" data-name="Trazado 467177" d="M154.263,162.937l27.789,16.044a7.656,7.656,0,0,0,6.891.286l28.78-16.616a2.657,2.657,0,0,0,.881-.783,1.851,1.851,0,0,1-.881,2.736l-28.78,16.616a7.659,7.659,0,0,1-6.891-.286l-27.789-16.044c-1.585-.915-2.066-2.194-1.376-3.2a3.838,3.838,0,0,0,1.376,1.243" transform="translate(-9.551 -10.121)" fill="#fff"/>
        <path id="Trazado_467178" data-name="Trazado 467178" d="M163.877,176.164a2.57,2.57,0,0,0,1.162,2.014c.642.37,1.162.07,1.162-.671a2.57,2.57,0,0,0-1.162-2.014c-.642-.37-1.162-.07-1.162.671" transform="translate(-10.258 -10.975)" fill="#5793ce"/>
        <path id="Trazado_467179" data-name="Trazado 467179" d="M159.887,173.861a2.57,2.57,0,0,0,1.162,2.014c.642.37,1.162.07,1.162-.671a2.57,2.57,0,0,0-1.162-2.014c-.642-.37-1.162-.07-1.162.671" transform="translate(-10.008 -10.831)" fill="#5793ce"/>
        <path id="Trazado_467180" data-name="Trazado 467180" d="M155.9,171.557a2.57,2.57,0,0,0,1.162,2.014c.642.37,1.162.07,1.162-.671a2.57,2.57,0,0,0-1.162-2.014c-.642-.37-1.162-.07-1.162.671" transform="translate(-9.758 -10.687)" fill="#ff2c9c"/>
        <path id="Trazado_467181" data-name="Trazado 467181" d="M188.42,170.361l13.468-7.776c.827-.477.723-1.31-.232-1.862l-13-7.508a3.584,3.584,0,0,0-3.225-.134l-13.467,7.776c-.827.477-.724,1.311.232,1.862l13,7.508a3.584,3.584,0,0,0,3.225.134" transform="translate(-10.729 -9.562)" fill="#173d7a"/>
        <path id="Trazado_467182" data-name="Trazado 467182" d="M188.023,164.428l1.864-1.076c.114-.066.1-.181-.032-.258l-1.8-1.039a.5.5,0,0,0-.446-.018l-1.863,1.075c-.114.067-.1.182.032.258l1.8,1.039a.5.5,0,0,0,.446.019" transform="translate(-11.622 -10.14)" fill="#ff2c9c"/>
        <path id="Trazado_467183" data-name="Trazado 467183" d="M201.888,162.585l-.038.022a2.347,2.347,0,0,0-.194-.132l-13-7.509a3.587,3.587,0,0,0-3.225-.133L172,162.586c-.761-.546-.8-1.288-.037-1.729l13.468-7.776a3.584,3.584,0,0,1,3.225.134l13,7.508c.954.551,1.058,1.385.232,1.862" transform="translate(-10.729 -9.562)" fill="#396caa"/>
        <path id="Trazado_467184" data-name="Trazado 467184" d="M194.1,201.875c0,.532.372.747.832.481a1.843,1.843,0,0,0,.834-1.444c0-.532-.374-.747-.834-.481a1.84,1.84,0,0,0-.832,1.444" transform="translate(-12.15 -12.539)" fill="#d4ecff"/>
        <path id="Trazado_467185" data-name="Trazado 467185" d="M196.858,200.293c0,.532.373.747.833.481a1.843,1.843,0,0,0,.834-1.444c0-.532-.374-.747-.834-.481a1.842,1.842,0,0,0-.833,1.444" transform="translate(-12.322 -12.44)" fill="#d4ecff"/>
        <path id="Trazado_467186" data-name="Trazado 467186" d="M194.1,205.2c0,.532.372.747.832.481a1.843,1.843,0,0,0,.834-1.444c0-.532-.374-.747-.834-.481a1.841,1.841,0,0,0-.832,1.444" transform="translate(-12.15 -12.747)" fill="#d4ecff"/>
        <path id="Trazado_467187" data-name="Trazado 467187" d="M196.858,203.622c0,.532.373.747.833.481a1.842,1.842,0,0,0,.834-1.444c0-.532-.374-.747-.834-.481a1.842,1.842,0,0,0-.833,1.444" transform="translate(-12.322 -12.648)" fill="#5793ce"/>
        <path id="Trazado_467188" data-name="Trazado 467188" d="M242.886,263.817l22.983-13.269c1.41-.815,1.234-2.238-.4-3.178l-22.192-12.812a6.112,6.112,0,0,0-5.5-.227L214.8,247.6c-1.411.815-1.234,2.238.395,3.178l22.192,12.812a6.117,6.117,0,0,0,5.5.228" transform="translate(-13.385 -14.633)" fill="#b2d3ea"/>
        <path id="Trazado_467189" data-name="Trazado 467189" d="M206.726,236.734h0V226.8l22.266-.012,7.7-4.444a7.659,7.659,0,0,1,6.891.286l7.181,4.146,22.287-.013V236.98a2,2,0,0,1-1.183,1.847l-28.78,16.615a7.656,7.656,0,0,1-6.891-.286L208.4,239.113a2.731,2.731,0,0,1-1.678-2.378" transform="translate(-12.94 -13.875)" fill="#173d7a"/>
        <path id="Trazado_467190" data-name="Trazado 467190" d="M242.1,221.665a7.953,7.953,0,0,1,3.694.968l7.181,4.146,22.287-.012V236.98a2,2,0,0,1-1.184,1.846L245.3,255.443a6.238,6.238,0,0,1-3.2.682Z" transform="translate(-15.154 -13.875)" fill="#396caa"/>
        <path id="Trazado_467191" data-name="Trazado 467191" d="M274.785,227.11h2.523v10.212a2,2,0,0,1-1.184,1.847l-1.339.772Z" transform="translate(-17.2 -14.216)" fill="#5793ce"/>
        <path id="Trazado_467192" data-name="Trazado 467192" d="M244.671,257.151a7.85,7.85,0,0,1-5.508-.063v-11.6h5.508Z" transform="translate(-14.97 -15.367)" fill="#5793ce"/>
        <path id="Trazado_467193" data-name="Trazado 467193" d="M243.084,244.331l28.78-16.616c1.766-1.02,1.545-2.8-.495-3.978l-27.789-16.044a7.656,7.656,0,0,0-6.891-.286l-28.78,16.615c-1.766,1.02-1.545,2.8.495,3.979l27.789,16.044a7.659,7.659,0,0,0,6.891.286" transform="translate(-12.939 -12.939)" fill="#d4ecff"/>
        <path id="Trazado_467194" data-name="Trazado 467194" d="M242.925,241.547l24.118-13.924c1.48-.855,1.295-2.347-.414-3.334L243.34,210.843a6.416,6.416,0,0,0-5.774-.239l-24.118,13.924c-1.481.855-1.295,2.347.414,3.334l23.288,13.445a6.418,6.418,0,0,0,5.774.239" transform="translate(-13.298 -13.147)" fill="#5793ce"/>
        <path id="Trazado_467195" data-name="Trazado 467195" d="M218.018,240.482a2.57,2.57,0,0,0,1.162,2.014c.642.37,1.162.07,1.162-.671a2.568,2.568,0,0,0-1.162-2.014c-.642-.37-1.162-.07-1.162.671" transform="translate(-13.647 -15.001)" fill="#ff2c9c"/>
        <path id="Trazado_467196" data-name="Trazado 467196" d="M214.029,238.178a2.57,2.57,0,0,0,1.162,2.014c.642.37,1.162.07,1.162-.671a2.57,2.57,0,0,0-1.162-2.014c-.642-.37-1.162-.07-1.162.671" transform="translate(-13.397 -14.857)" fill="#5793ce"/>
        <path id="Trazado_467197" data-name="Trazado 467197" d="M210.039,235.875a2.57,2.57,0,0,0,1.162,2.014c.642.37,1.162.07,1.162-.671A2.57,2.57,0,0,0,211.2,235.2c-.642-.37-1.162-.07-1.162.671" transform="translate(-13.147 -14.713)" fill="#d4ecff"/>
        <path id="Trazado_467198" data-name="Trazado 467198" d="M206.726,219.805h0v-9.93l22.266-.013,7.7-4.443a7.659,7.659,0,0,1,6.891.286l7.181,4.145,22.287-.012v10.213a2,2,0,0,1-1.183,1.846l-28.78,16.616a7.659,7.659,0,0,1-6.891-.286L208.4,222.184a2.731,2.731,0,0,1-1.678-2.378" transform="translate(-12.94 -12.815)" fill="#173d7a"/>
        <path id="Trazado_467199" data-name="Trazado 467199" d="M242.1,204.737a7.954,7.954,0,0,1,3.694.969l7.181,4.145,22.287-.012v10.213a2,2,0,0,1-1.184,1.846L245.3,238.515a6.248,6.248,0,0,1-3.2.683Z" transform="translate(-15.154 -12.815)" fill="#396caa"/>
        <path id="Trazado_467200" data-name="Trazado 467200" d="M274.785,210.181h2.523v10.212a2,2,0,0,1-1.184,1.847l-1.339.772Z" transform="translate(-17.2 -13.156)" fill="#5793ce"/>
        <path id="Trazado_467201" data-name="Trazado 467201" d="M244.671,240.223a7.855,7.855,0,0,1-5.508-.063v-11.6h5.508Z" transform="translate(-14.97 -14.307)" fill="#5793ce"/>
        <path id="Trazado_467202" data-name="Trazado 467202" d="M243.084,227.4l28.78-16.616c1.766-1.019,1.545-2.8-.495-3.978l-27.789-16.044a7.656,7.656,0,0,0-6.891-.286l-28.78,16.615c-1.766,1.02-1.545,2.8.495,3.979l27.789,16.044a7.659,7.659,0,0,0,6.891.286" transform="translate(-12.939 -11.88)" fill="#d4ecff"/>
        <path id="Trazado_467203" data-name="Trazado 467203" d="M242.925,224.619,267.043,210.7c1.48-.855,1.295-2.347-.414-3.334L243.34,193.915a6.416,6.416,0,0,0-5.774-.239L213.448,207.6c-1.481.855-1.295,2.347.414,3.334l23.288,13.445a6.418,6.418,0,0,0,5.774.239" transform="translate(-13.298 -12.087)" fill="#5793ce"/>
        <path id="Trazado_467204" data-name="Trazado 467204" d="M218.018,223.553a2.57,2.57,0,0,0,1.162,2.014c.642.37,1.162.07,1.162-.671a2.57,2.57,0,0,0-1.162-2.014c-.642-.37-1.162-.07-1.162.671" transform="translate(-13.647 -13.941)" fill="#5793ce"/>
        <path id="Trazado_467205" data-name="Trazado 467205" d="M214.029,221.249a2.57,2.57,0,0,0,1.162,2.014c.642.37,1.162.07,1.162-.671a2.57,2.57,0,0,0-1.162-2.014c-.642-.37-1.162-.07-1.162.671" transform="translate(-13.397 -13.797)" fill="#5793ce"/>
        <path id="Trazado_467206" data-name="Trazado 467206" d="M210.039,218.946a2.57,2.57,0,0,0,1.162,2.014c.642.37,1.162.07,1.162-.671a2.57,2.57,0,0,0-1.162-2.014c-.642-.37-1.162-.07-1.162.671" transform="translate(-13.147 -13.653)" fill="#ff2c9c"/>
        <path id="Trazado_467207" data-name="Trazado 467207" d="M206.726,202.876h0v-9.929l22.266-.012,7.7-4.445a7.662,7.662,0,0,1,6.891.287l7.181,4.146,22.287-.013v10.213a2,2,0,0,1-1.183,1.847l-28.78,16.615a7.65,7.65,0,0,1-6.891-.286L208.4,205.256a2.731,2.731,0,0,1-1.678-2.379" transform="translate(-12.94 -11.755)" fill="#173d7a"/>
        <path id="Trazado_467208" data-name="Trazado 467208" d="M242.1,187.808a7.943,7.943,0,0,1,3.694.969l7.181,4.145,22.287-.012v10.213a2,2,0,0,1-1.184,1.846L245.3,221.586a6.248,6.248,0,0,1-3.2.683Z" transform="translate(-15.154 -11.756)" fill="#396caa"/>
        <path id="Trazado_467209" data-name="Trazado 467209" d="M274.785,193.252h2.523v10.212a2,2,0,0,1-1.184,1.847l-1.339.772Z" transform="translate(-17.2 -12.096)" fill="#5793ce"/>
        <path id="Trazado_467210" data-name="Trazado 467210" d="M244.671,223.294a7.85,7.85,0,0,1-5.508-.063v-11.6h5.508Z" transform="translate(-14.97 -13.247)" fill="#5793ce"/>
        <path id="Trazado_467211" data-name="Trazado 467211" d="M243.084,210.473l28.78-16.616c1.766-1.019,1.545-2.8-.495-3.978l-27.789-16.044a7.656,7.656,0,0,0-6.891-.286l-28.78,16.616c-1.766,1.02-1.545,2.8.495,3.979l27.789,16.044a7.659,7.659,0,0,0,6.891.286" transform="translate(-12.939 -10.82)" fill="#d4ecff"/>
        <path id="Trazado_467212" data-name="Trazado 467212" d="M208.4,193.4l27.789,16.044a7.656,7.656,0,0,0,6.891.286l28.78-16.615a2.657,2.657,0,0,0,.881-.783,1.851,1.851,0,0,1-.881,2.736l-28.78,16.616a7.659,7.659,0,0,1-6.891-.286L208.4,195.352c-1.585-.915-2.066-2.194-1.376-3.2A3.844,3.844,0,0,0,208.4,193.4" transform="translate(-12.94 -12.028)" fill="#fff"/>
        <path id="Trazado_467213" data-name="Trazado 467213" d="M218.018,206.624a2.57,2.57,0,0,0,1.162,2.014c.642.37,1.162.07,1.162-.671a2.57,2.57,0,0,0-1.162-2.014c-.642-.37-1.162-.07-1.162.671" transform="translate(-13.647 -12.882)" fill="#ff2c9c"/>
        <path id="Trazado_467214" data-name="Trazado 467214" d="M214.029,204.321a2.57,2.57,0,0,0,1.162,2.014c.642.37,1.162.07,1.162-.671a2.568,2.568,0,0,0-1.162-2.014c-.642-.37-1.162-.07-1.162.671" transform="translate(-13.397 -12.737)" fill="#d4ecff"/>
        <path id="Trazado_467215" data-name="Trazado 467215" d="M210.039,202.017a2.57,2.57,0,0,0,1.162,2.014c.642.37,1.162.07,1.162-.671a2.57,2.57,0,0,0-1.162-2.014c-.642-.37-1.162-.07-1.162.671" transform="translate(-13.147 -12.593)" fill="#5793ce"/>
        <path id="Trazado_467216" data-name="Trazado 467216" d="M242.561,200.821l13.468-7.776c.827-.477.723-1.311-.232-1.862l-13-7.508a3.584,3.584,0,0,0-3.225-.134L226.1,191.317c-.827.477-.724,1.31.232,1.862l13,7.508a3.584,3.584,0,0,0,3.225.134" transform="translate(-14.118 -11.469)" fill="#173d7a"/>
        <path id="Trazado_467217" data-name="Trazado 467217" d="M242.165,194.888l1.863-1.076c.114-.066.1-.181-.033-.257l-1.8-1.04a.493.493,0,0,0-.445-.018l-1.865,1.075c-.113.067-.1.182.033.258l1.8,1.039a.5.5,0,0,0,.447.019" transform="translate(-15.011 -12.047)" fill="#ff2c9c"/>
        <path id="Trazado_467218" data-name="Trazado 467218" d="M256.029,193.045l-.038.022a2.052,2.052,0,0,0-.193-.132l-13-7.509a3.587,3.587,0,0,0-3.225-.133l-13.43,7.753c-.761-.546-.8-1.288-.037-1.729l13.468-7.776a3.584,3.584,0,0,1,3.225.134l13,7.508c.954.551,1.058,1.385.232,1.862" transform="translate(-14.118 -11.469)" fill="#396caa"/>
        <path id="Trazado_467219" data-name="Trazado 467219" d="M247.85,215.648c0,.532.372.747.832.483a1.849,1.849,0,0,0,.834-1.445c0-.532-.374-.748-.834-.481a1.839,1.839,0,0,0-.832,1.443" transform="translate(-15.514 -13.401)" fill="#d4ecff"/>
        <path id="Trazado_467220" data-name="Trazado 467220" d="M250.608,214.066c0,.532.373.747.833.481a1.842,1.842,0,0,0,.834-1.444c0-.532-.374-.747-.834-.481a1.841,1.841,0,0,0-.833,1.444" transform="translate(-15.687 -13.302)" fill="#d4ecff"/>
        <path id="Trazado_467221" data-name="Trazado 467221" d="M247.85,218.978c0,.532.372.747.832.481a1.843,1.843,0,0,0,.834-1.444c0-.531-.374-.747-.834-.481a1.841,1.841,0,0,0-.832,1.444" transform="translate(-15.514 -13.609)" fill="#d4ecff"/>
        <path id="Trazado_467222" data-name="Trazado 467222" d="M250.608,217.4c0,.532.373.747.833.481a1.842,1.842,0,0,0,.834-1.444c0-.532-.374-.747-.834-.481a1.841,1.841,0,0,0-.833,1.444" transform="translate(-15.687 -13.51)" fill="#5793ce"/>
        <path id="Trazado_467223" data-name="Trazado 467223" d="M247.85,232.577c0,.532.372.747.832.481a1.843,1.843,0,0,0,.834-1.444c0-.532-.374-.747-.834-.481a1.84,1.84,0,0,0-.832,1.444" transform="translate(-15.514 -14.461)" fill="#5793ce"/>
        <path id="Trazado_467224" data-name="Trazado 467224" d="M250.608,230.995c0,.532.373.747.833.481a1.842,1.842,0,0,0,.834-1.444c0-.532-.374-.747-.834-.481a1.841,1.841,0,0,0-.833,1.444" transform="translate(-15.687 -14.362)" fill="#d4ecff"/>
        <path id="Trazado_467225" data-name="Trazado 467225" d="M247.85,235.907c0,.532.372.747.832.481a1.843,1.843,0,0,0,.834-1.444c0-.531-.374-.747-.834-.481a1.841,1.841,0,0,0-.832,1.444" transform="translate(-15.514 -14.669)" fill="#5793ce"/>
        <path id="Trazado_467226" data-name="Trazado 467226" d="M250.608,234.324c0,.532.373.747.833.482a1.846,1.846,0,0,0,.834-1.445c0-.532-.374-.747-.834-.481a1.842,1.842,0,0,0-.833,1.444" transform="translate(-15.687 -14.57)" fill="#d4ecff"/>
        <path id="Trazado_467227" data-name="Trazado 467227" d="M247.85,249.506c0,.532.372.747.832.481a1.843,1.843,0,0,0,.834-1.444c0-.531-.374-.747-.834-.481a1.841,1.841,0,0,0-.832,1.444" transform="translate(-15.514 -15.52)" fill="#d4ecff"/>
        <path id="Trazado_467228" data-name="Trazado 467228" d="M250.608,247.924c0,.532.373.747.833.481a1.842,1.842,0,0,0,.834-1.444c0-.532-.374-.747-.834-.481a1.841,1.841,0,0,0-.833,1.444" transform="translate(-15.687 -15.421)" fill="#5793ce"/>
        <path id="Trazado_467229" data-name="Trazado 467229" d="M247.85,252.835c0,.532.372.747.832.481a1.842,1.842,0,0,0,.834-1.444c0-.532-.374-.747-.834-.481a1.841,1.841,0,0,0-.832,1.444" transform="translate(-15.514 -15.729)" fill="#d4ecff"/>
        <path id="Trazado_467230" data-name="Trazado 467230" d="M250.608,251.253c0,.532.373.747.833.481a1.842,1.842,0,0,0,.834-1.444c0-.532-.374-.747-.834-.481a1.842,1.842,0,0,0-.833,1.444" transform="translate(-15.687 -15.63)" fill="#d4ecff"/>
        <path id="Trazado_467231" data-name="Trazado 467231" d="M246.975,161.773l1.867-.752L247.39,159.9Z" transform="translate(-15.459 -10.009)" fill="#5793ce"/>
        <path id="Trazado_467232" data-name="Trazado 467232" d="M245.979,140.269l1.814-.735-.128.761Z" transform="translate(-15.397 -8.734)" fill="#5793ce"/>
        <path id="Trazado_467233" data-name="Trazado 467233" d="M253.172,156.617l1.892-.763-2.759-2.778Z" transform="translate(-15.793 -9.582)" fill="#5793ce"/>
        <path id="Trazado_467234" data-name="Trazado 467234" d="M247.926,160.138l-7.232-4.175a1.171,1.171,0,0,1-.494-1.192l1.732-8.208,8.562,4.943-1.733,8.208a.545.545,0,0,1-.835.425" transform="translate(-15.034 -9.174)" fill="#5793ce"/>
        <path id="Trazado_467235" data-name="Trazado 467235" d="M247.224,139.54l-9.773,4.927c-.414.209-.277.989.227,1.28l7.978,4.605,7.977,4.606c.5.291.9-.177.659-.768l-5.8-13.916c-.25-.6-.851-.948-1.273-.735" transform="translate(-14.848 -8.73)" fill="#5793ce"/>
        <path id="Trazado_467236" data-name="Trazado 467236" d="M245.9,160.954l-7.232-4.175a1.171,1.171,0,0,1-.494-1.192l1.732-8.208,8.562,4.943-1.733,8.208a.545.545,0,0,1-.835.425" transform="translate(-14.907 -9.225)" fill="#d4ecff"/>
        <path id="Trazado_467237" data-name="Trazado 467237" d="M245.2,140.356l-9.773,4.927c-.414.209-.277.989.227,1.28l7.978,4.605,7.977,4.606c.5.291.9-.177.659-.768l-5.8-13.916c-.25-.6-.851-.948-1.273-.735" transform="translate(-14.721 -8.782)" fill="#d4ecff"/>
        <path id="Trazado_467238" data-name="Trazado 467238" d="M193.438,131.062l1.867-.752-1.452-1.116Z" transform="translate(-12.108 -8.087)" fill="#5793ce"/>
        <path id="Trazado_467239" data-name="Trazado 467239" d="M192.443,109.558l1.814-.735-.128.761Z" transform="translate(-12.046 -6.812)" fill="#5793ce"/>
        <path id="Trazado_467240" data-name="Trazado 467240" d="M199.636,125.906l1.892-.763-2.759-2.778Z" transform="translate(-12.442 -7.659)" fill="#5793ce"/>
        <path id="Trazado_467241" data-name="Trazado 467241" d="M194.39,129.426l-7.232-4.175a1.171,1.171,0,0,1-.494-1.192l1.732-8.208,8.562,4.943L195.225,129a.545.545,0,0,1-.835.425" transform="translate(-11.683 -7.252)" fill="#5793ce"/>
        <path id="Trazado_467242" data-name="Trazado 467242" d="M193.687,108.829l-9.773,4.927c-.414.21-.277.989.227,1.28l7.978,4.606,7.977,4.605c.5.291.9-.177.659-.768l-5.8-13.916c-.25-.6-.851-.948-1.273-.735" transform="translate(-11.497 -6.808)" fill="#5793ce"/>
        <path id="Trazado_467243" data-name="Trazado 467243" d="M192.367,130.243l-7.232-4.175a1.171,1.171,0,0,1-.494-1.192l1.732-8.208,8.562,4.943-1.733,8.208a.545.545,0,0,1-.835.425" transform="translate(-11.556 -7.303)" fill="#d4ecff"/>
        <path id="Trazado_467244" data-name="Trazado 467244" d="M191.664,109.645l-9.773,4.927c-.414.209-.277.989.227,1.28l7.977,4.605,7.978,4.606c.5.291.9-.177.659-.768l-5.8-13.916c-.25-.6-.851-.948-1.273-.735" transform="translate(-11.37 -6.859)" fill="#d4ecff"/>
        <path id="Trazado_467245" data-name="Trazado 467245" d="M7.588,250.185l54.356-31.231c4.287-2.463,11.764-2.137,16.7.727L190.12,284.354c4.937,2.865,5.465,7.183,1.178,9.647l-54.355,31.231c-4.287,2.463-11.765,2.137-16.7-.727L8.768,259.832c-4.938-2.865-5.466-7.184-1.179-9.647" transform="translate(-0.294 -13.602)" fill="#0a254f"/>
        <path id="Trazado_467246" data-name="Trazado 467246" d="M138.815,313.773l55.662-31.981c2.437-1.4,3.661-3.267,3.724-5.232h0l.047-9.582-1.789,3.082a13.4,13.4,0,0,0-3.492-2.812L80.879,202.22c-6.351-3.684-15.969-4.1-21.482-.936L3.735,233.265a9.879,9.879,0,0,0-1.554,1.1L.046,231.627,0,240.635l0,0c-.08,2.481,1.7,5.12,5.24,7.176l112.09,65.03c6.35,3.684,15.968,4.1,21.482.936" transform="translate(0 -12.466)" fill="#173d7a"/>
        <path id="Trazado_467247" data-name="Trazado 467247" d="M3.777,225.668l55.662-31.981c5.514-3.167,15.132-2.748,21.483.936l112.089,65.029c6.351,3.685,7.03,9.24,1.517,12.408l-55.662,31.98c-5.514,3.168-15.132,2.749-21.483-.936L5.294,238.075c-6.351-3.684-7.03-9.239-1.517-12.407" transform="translate(-0.003 -11.991)" fill="#d4ecff"/>
        <path id="Trazado_467248" data-name="Trazado 467248" d="M194.529,274.752l-55.662,31.981c-5.514,3.168-15.132,2.748-21.482-.936L5.295,240.768C2.218,238.983.486,236.76.131,234.582c-.443,2.663,1.308,5.589,5.164,7.826l112.089,65.03c6.351,3.684,15.969,4.1,21.482.936l55.662-31.981c2.843-1.633,4.026-3.9,3.647-6.221a6.735,6.735,0,0,1-3.647,4.58" transform="translate(-0.004 -14.684)" fill="#fff"/>
        <path id="Trazado_467249" data-name="Trazado 467249" d="M7.588,227.124l54.356-31.231c4.287-2.463,11.764-2.137,16.7.727L190.12,261.293c4.937,2.865,5.465,7.183,1.178,9.647L136.943,302.17c-4.287,2.463-11.765,2.137-16.7-.727L8.768,236.771c-4.938-2.865-5.466-7.184-1.179-9.647" transform="translate(-0.294 -12.158)" fill="#fff"/>
        <path id="Trazado_467250" data-name="Trazado 467250" d="M220.963,84.759c0,.532-.373.747-.833.481a1.843,1.843,0,0,1-.834-1.444c0-.532.374-.747.834-.481a1.842,1.842,0,0,1,.833,1.444" transform="translate(-13.727 -5.208)" fill="#d4ecff"/>
        <path id="Trazado_467251" data-name="Trazado 467251" d="M233.255,91.4c0,.532-.373.747-.833.481a1.842,1.842,0,0,1-.834-1.444c0-.532.374-.747.834-.481a1.842,1.842,0,0,1,.833,1.444" transform="translate(-14.496 -5.624)" fill="#d4ecff"/>
        <path id="Trazado_467252" data-name="Trazado 467252" d="M99.824,240.525,79.7,228.907c-.746-.431-.652-1.183.209-1.681a3.237,3.237,0,0,1,2.912-.121l20.121,11.618c.746.43.652,1.183-.209,1.68a3.232,3.232,0,0,1-2.911.121" transform="translate(-4.957 -14.197)" fill="#b2d3ea"/>
        <path id="Trazado_467253" data-name="Trazado 467253" d="M80.342,236.826l-7.178-4.144c-.746-.431-.652-1.183.209-1.681a3.235,3.235,0,0,1,2.911-.12l7.178,4.143c.746.431.652,1.184-.209,1.681a3.235,3.235,0,0,1-2.911.121" transform="translate(-4.548 -14.434)" fill="#b2d3ea"/>
        <path id="Trazado_467254" data-name="Trazado 467254" d="M93.192,244.245,86.014,240.1c-.746-.43-.652-1.183.209-1.681a3.235,3.235,0,0,1,2.911-.12l7.178,4.143c.746.431.652,1.184-.209,1.681a3.232,3.232,0,0,1-2.911.121" transform="translate(-5.353 -14.898)" fill="#ff2c9c"/>
        <path id="Trazado_467255" data-name="Trazado 467255" d="M118.354,258.772l-19.49-11.253c-.746-.43-.652-1.183.209-1.68a3.232,3.232,0,0,1,2.911-.121l19.49,11.252c.746.431.652,1.184-.209,1.681a3.232,3.232,0,0,1-2.911.121" transform="translate(-6.157 -15.362)" fill="#b2d3ea"/>
        <path id="Trazado_467256" data-name="Trazado 467256" d="M91.768,250.971,66.626,236.456c-.746-.431-.652-1.184.209-1.681a3.232,3.232,0,0,1,2.911-.121L94.887,249.17c.746.43.652,1.183-.209,1.68a3.232,3.232,0,0,1-2.911.121" transform="translate(-4.139 -14.67)" fill="#b2d3ea"/>
        <path id="Trazado_467257" data-name="Trazado 467257" d="M121.594,275.744,60.088,240.23c-.746-.43-.652-1.183.209-1.681a3.238,3.238,0,0,1,2.911-.121l61.506,35.514c.746.431.652,1.184-.209,1.681a3.232,3.232,0,0,1-2.911.121" transform="translate(-3.73 -14.906)" fill="#173d7a"/>
        <path id="Trazado_467258" data-name="Trazado 467258" d="M142.484,265.154l-35.391-20.433c-.746-.431-.652-1.183.209-1.681a3.235,3.235,0,0,1,2.911-.121L145.6,263.353c.746.43.652,1.183-.209,1.68a3.232,3.232,0,0,1-2.911.121" transform="translate(-6.672 -15.187)" fill="#ff2c9c"/>
        <path id="Trazado_467259" data-name="Trazado 467259" d="M79.392,301.877l-5.175-2.986a2.234,2.234,0,0,1-.933-1.782c0-.686.418-1,.933-.7l5.175,2.986a2.234,2.234,0,0,1,.933,1.782c0,.686-.418,1-.933.7" transform="translate(-4.587 -18.546)" fill="#d4ecff"/>
        <path id="Trazado_467260" data-name="Trazado 467260" d="M88.079,306.908,82.9,303.922a2.234,2.234,0,0,1-.933-1.782c0-.686.418-1,.933-.7l5.175,2.986a2.237,2.237,0,0,1,.933,1.782c0,.686-.418,1-.933.7" transform="translate(-5.131 -18.861)" fill="#d4ecff"/>
        <path id="Trazado_467261" data-name="Trazado 467261" d="M198.076,288.487a3.743,3.743,0,0,1-1.695,2.935c-.936.541-1.695.1-1.695-.979a3.749,3.749,0,0,1,1.695-2.935c.936-.54,1.695-.1,1.695.979" transform="translate(-12.186 -17.982)" fill="#ff2c9c"/>
        <path id="Trazado_467262" data-name="Trazado 467262" d="M151.46,138.153l1.864-1.076c.114-.066.1-.181-.032-.257l-1.8-1.04a.5.5,0,0,0-.446-.018l-1.863,1.075c-.114.067-.1.182.032.258l1.8,1.039a.5.5,0,0,0,.446.019" transform="translate(-9.333 -8.495)" fill="#396caa"/>
        <path id="Trazado_467263" data-name="Trazado 467263" d="M146.878,140.8l1.864-1.076c.114-.066.1-.181-.032-.257l-1.8-1.04a.5.5,0,0,0-.446-.018l-1.863,1.075c-.114.067-.1.182.032.258l1.8,1.039a.5.5,0,0,0,.446.019" transform="translate(-9.046 -8.661)" fill="#396caa"/>
        <path id="Trazado_467264" data-name="Trazado 467264" d="M142.3,143.444l1.864-1.076c.114-.066.1-.181-.032-.257l-1.8-1.04a.5.5,0,0,0-.446-.018l-1.863,1.075c-.114.067-.1.182.032.258l1.8,1.039a.5.5,0,0,0,.446.019" transform="translate(-8.76 -8.826)" fill="#396caa"/>
        <path id="Trazado_467265" data-name="Trazado 467265" d="M125.21,122.422l1.864-1.076c.114-.066.1-.181-.032-.257l-1.8-1.04a.5.5,0,0,0-.446-.018l-1.863,1.075c-.114.067-.1.182.032.258l1.8,1.039a.5.5,0,0,0,.446.019" transform="translate(-7.69 -7.511)" fill="#396caa"/>
        <path id="Trazado_467266" data-name="Trazado 467266" d="M120.628,125.067l1.864-1.076c.114-.066.1-.181-.032-.257l-1.8-1.04a.5.5,0,0,0-.446-.018l-1.863,1.075c-.114.067-.1.182.032.258l1.8,1.039a.5.5,0,0,0,.446.019" transform="translate(-7.403 -7.676)" fill="#396caa"/>
        <path id="Trazado_467267" data-name="Trazado 467267" d="M116.046,127.713l1.864-1.076c.114-.066.1-.181-.032-.257l-1.8-1.04a.5.5,0,0,0-.446-.018l-1.863,1.075c-.114.067-.1.182.032.258l1.8,1.039a.5.5,0,0,0,.446.019" transform="translate(-7.116 -7.842)" fill="#396caa"/>
      </g>
    </g>
  </g>
</svg>
