<svg xmlns="http://www.w3.org/2000/svg" xmlns:xlink="http://www.w3.org/1999/xlink" width="813" height="454" viewBox="0 0 813 454">
  <defs>
    <clipPath id="clip-path">
      <rect id="Rectángulo_263714" data-name="Rectángulo 263714" width="117.348" height="125.021" fill="none"/>
    </clipPath>
    <filter id="Trazado_467038" x="-8.999" y="251.577" width="93.222" height="143.02" filterUnits="userSpaceOnUse">
      <feOffset dy="3" input="SourceAlpha"/>
      <feGaussianBlur stdDeviation="3" result="blur"/>
      <feFlood flood-opacity="0.161"/>
      <feComposite operator="in" in2="blur"/>
      <feComposite in="SourceGraphic"/>
    </filter>
    <filter id="Trazado_467039" x="57.049" y="275.493" width="69.3" height="95.177" filterUnits="userSpaceOnUse">
      <feOffset dy="3" input="SourceAlpha"/>
      <feGaussianBlur stdDeviation="3" result="blur-2"/>
      <feFlood flood-opacity="0.161"/>
      <feComposite operator="in" in2="blur-2"/>
      <feComposite in="SourceGraphic"/>
    </filter>
    <filter id="Trazado_467038-2" x="728.777" y="251.577" width="93.222" height="143.02" filterUnits="userSpaceOnUse">
      <feOffset dy="3" input="SourceAlpha"/>
      <feGaussianBlur stdDeviation="3" result="blur-3"/>
      <feFlood flood-opacity="0.161"/>
      <feComposite operator="in" in2="blur-3"/>
      <feComposite in="SourceGraphic"/>
    </filter>
    <filter id="Trazado_467039-2" x="686.652" y="275.492" width="69.3" height="95.177" filterUnits="userSpaceOnUse">
      <feOffset dy="3" input="SourceAlpha"/>
      <feGaussianBlur stdDeviation="3" result="blur-4"/>
      <feFlood flood-opacity="0.161"/>
      <feComposite operator="in" in2="blur-4"/>
      <feComposite in="SourceGraphic"/>
    </filter>
    <filter id="Rectángulo_263709" x="284.506" y="36" width="97" height="418" filterUnits="userSpaceOnUse">
      <feOffset dy="3" input="SourceAlpha"/>
      <feGaussianBlur stdDeviation="3" result="blur-5"/>
      <feFlood flood-opacity="0.161"/>
      <feComposite operator="in" in2="blur-5"/>
      <feComposite in="SourceGraphic"/>
    </filter>
    <filter id="Rectángulo_263711" x="415.506" y="36" width="97" height="418" filterUnits="userSpaceOnUse">
      <feOffset dy="3" input="SourceAlpha"/>
      <feGaussianBlur stdDeviation="3" result="blur-6"/>
      <feFlood flood-opacity="0.161"/>
      <feComposite operator="in" in2="blur-6"/>
      <feComposite in="SourceGraphic"/>
    </filter>
    <filter id="Rectángulo_263712" x="557.506" y="36" width="97" height="418" filterUnits="userSpaceOnUse">
      <feOffset dy="3" input="SourceAlpha"/>
      <feGaussianBlur stdDeviation="3" result="blur-7"/>
      <feFlood flood-opacity="0.161"/>
      <feComposite operator="in" in2="blur-7"/>
      <feComposite in="SourceGraphic"/>
    </filter>
    <filter id="Rectángulo_263710" x="158.506" y="36" width="97" height="418" filterUnits="userSpaceOnUse">
      <feOffset dy="3" input="SourceAlpha"/>
      <feGaussianBlur stdDeviation="3" result="blur-8"/>
      <feFlood flood-opacity="0.161"/>
      <feComposite operator="in" in2="blur-8"/>
      <feComposite in="SourceGraphic"/>
    </filter>
    <filter id="Rectángulo_263713" x="119.506" y="213" width="573" height="75" filterUnits="userSpaceOnUse">
      <feOffset dy="3" input="SourceAlpha"/>
      <feGaussianBlur stdDeviation="3" result="blur-9"/>
      <feFlood flood-opacity="0.161"/>
      <feComposite operator="in" in2="blur-9"/>
      <feComposite in="SourceGraphic"/>
    </filter>
    <filter id="Rectángulo_263715" x="119.506" y="279" width="573" height="75" filterUnits="userSpaceOnUse">
      <feOffset dy="3" input="SourceAlpha"/>
      <feGaussianBlur stdDeviation="3" result="blur-10"/>
      <feFlood flood-opacity="0.161"/>
      <feComposite operator="in" in2="blur-10"/>
      <feComposite in="SourceGraphic"/>
    </filter>
    <filter id="Rectángulo_263716" x="119.506" y="345" width="573" height="75" filterUnits="userSpaceOnUse">
      <feOffset dy="3" input="SourceAlpha"/>
      <feGaussianBlur stdDeviation="3" result="blur-11"/>
      <feFlood flood-opacity="0.161"/>
      <feComposite operator="in" in2="blur-11"/>
      <feComposite in="SourceGraphic"/>
    </filter>
  </defs>
  <g id="Grupo_710523" data-name="Grupo 710523" transform="translate(-394 -3394)">
    <text id="NIVEL_1_" data-name="NIVEL 1 " transform="translate(548.506 3394)" fill="#12263f" font-size="24" font-family="Roboto-Bold, Roboto" font-weight="700"><tspan x="0" y="25">NIVEL 1 </tspan></text>
    <text id="NIVEL_2_" data-name="NIVEL 2 " transform="translate(675.506 3394)" fill="#12263f" font-size="24" font-family="Roboto-Bold, Roboto" font-weight="700"><tspan x="0" y="25">NIVEL 2 </tspan></text>
    <text id="NIVEL_3_" data-name="NIVEL 3 " transform="translate(802.506 3394)" fill="#12263f" font-size="24" font-family="Roboto-Bold, Roboto" font-weight="700"><tspan x="0" y="25">NIVEL 3 </tspan></text>
    <text id="NIVEL_4_" data-name="NIVEL 4 " transform="translate(947.506 3394)" fill="#12263f" font-size="24" font-family="Roboto-Bold, Roboto" font-weight="700"><tspan x="0" y="25">NIVEL 4 </tspan></text>
    <g id="Grupo_710292" data-name="Grupo 710292" transform="translate(394 3651.574)">
      <g id="Grupo_710291" data-name="Grupo 710291" transform="translate(0 0)" clip-path="url(#clip-path)">
        <g transform="matrix(1, 0, 0, 1, 0, -257.57)" filter="url(#Trazado_467038)">
          <path id="Trazado_467038-3" data-name="Trazado 467038" d="M84.14,121.5h0a12.028,12.028,0,0,0,0-17.013L53.648,73.993a16.239,16.239,0,0,1,0-22.965L84.14,20.53A12.028,12.028,0,0,0,67.13,3.52L15.482,55.172a10.375,10.375,0,0,0,0,14.674L67.13,121.5a12.03,12.03,0,0,0,17.01,0" transform="translate(-12.44 257.58)" fill="#18b8c4"/>
        </g>
        <g transform="matrix(1, 0, 0, 1, 0, -257.57)" filter="url(#Trazado_467039)">
          <path id="Trazado_467039-3" data-name="Trazado 467039" d="M47.778,80.719h0a12.026,12.026,0,0,0,0-17.006L37.966,53.9a11.654,11.654,0,0,1,0-16.485L47.778,27.6a12.03,12.03,0,0,0,0-17.01h0a12.013,12.013,0,0,0-17.006,0L3.039,38.32a10.375,10.375,0,0,0,0,14.674L30.768,80.719a12.03,12.03,0,0,0,17.01,0" transform="translate(66.05 274.43)" fill="#18b8c4"/>
        </g>
      </g>
    </g>
    <g id="Grupo_710293" data-name="Grupo 710293" transform="translate(1089.652 3651.574)">
      <g id="Grupo_710291-2" data-name="Grupo 710291" transform="translate(0 0)" clip-path="url(#clip-path)">
        <g transform="matrix(1, 0, 0, 1, -695.65, -257.57)" filter="url(#Trazado_467038-2)">
          <path id="Trazado_467038-4" data-name="Trazado 467038" d="M15.966,121.5h0a12.028,12.028,0,0,1,0-17.013L46.458,73.993a16.239,16.239,0,0,0,0-22.965L15.966,20.53A12.028,12.028,0,0,1,32.976,3.52L84.625,55.172a10.375,10.375,0,0,1,0,14.674L32.976,121.5a12.03,12.03,0,0,1-17.01,0" transform="translate(725.34 257.58)" fill="#18b8c4"/>
        </g>
        <g transform="matrix(1, 0, 0, 1, -695.65, -257.57)" filter="url(#Trazado_467039-2)">
          <path id="Trazado_467039-4" data-name="Trazado 467039" d="M3.522,80.719h0a12.026,12.026,0,0,1,0-17.006L13.333,53.9a11.654,11.654,0,0,0,0-16.485L3.522,27.6a12.03,12.03,0,0,1,0-17.01h0a12.013,12.013,0,0,1,17.006,0L48.26,38.32a10.375,10.375,0,0,1,0,14.674L20.531,80.719a12.03,12.03,0,0,1-17.01,0" transform="translate(695.65 274.43)" fill="#18b8c4"/>
        </g>
      </g>
    </g>
    <g id="Grupo_710385" data-name="Grupo 710385" transform="translate(-3)">
      <g id="Grupo_710384" data-name="Grupo 710384" transform="translate(13)">
        <g transform="matrix(1, 0, 0, 1, 384, 3394)" filter="url(#Rectángulo_263709)">
          <rect id="Rectángulo_263709-2" data-name="Rectángulo 263709" width="79" height="400" rx="38" transform="translate(293.51 42)" fill="#a9b5c1"/>
        </g>
        <g transform="matrix(1, 0, 0, 1, 384, 3394)" filter="url(#Rectángulo_263711)">
          <rect id="Rectángulo_263711-2" data-name="Rectángulo 263711" width="79" height="400" rx="38" transform="translate(424.51 42)" fill="#989ea4"/>
        </g>
        <g transform="matrix(1, 0, 0, 1, 384, 3394)" filter="url(#Rectángulo_263712)">
          <rect id="Rectángulo_263712-2" data-name="Rectángulo 263712" width="79" height="400" rx="38" transform="translate(566.51 42)" fill="#5f666d"/>
        </g>
        <g transform="matrix(1, 0, 0, 1, 384, 3394)" filter="url(#Rectángulo_263710)">
          <rect id="Rectángulo_263710-2" data-name="Rectángulo 263710" width="79" height="400" rx="38" transform="translate(167.51 42)" fill="#b8cbdf"/>
        </g>
        <text id="Riesgo_informado" data-name="Riesgo 
informado" transform="translate(688.506 3597) rotate(-90)" fill="#12263f" font-size="24" font-family="Roboto-Bold, Roboto" font-weight="700"><tspan x="0" y="25">Riesgo </tspan><tspan x="0" y="49">informado</tspan></text>
        <text id="Parcial" transform="translate(572.506 3597) rotate(-90)" fill="#12263f" font-size="24" font-family="Roboto-Bold, Roboto" font-weight="700"><tspan x="0" y="25">Parcial</tspan></text>
        <text id="Repetible" transform="translate(834.506 3597) rotate(-90)" fill="#12263f" font-size="24" font-family="Roboto-Bold, Roboto" font-weight="700"><tspan x="0" y="25">Repetible</tspan></text>
        <text id="Adaptado" transform="translate(976.506 3597) rotate(-90)" fill="#12263f" font-size="24" font-family="Roboto-Bold, Roboto" font-weight="700"><tspan x="0" y="25">Adaptado</tspan></text>
      </g>
      <g id="Grupo_710383" data-name="Grupo 710383">
        <g id="Grupo_710381" data-name="Grupo 710381">
          <g transform="matrix(1, 0, 0, 1, 397, 3394)" filter="url(#Rectángulo_263713)">
            <rect id="Rectángulo_263713-2" data-name="Rectángulo 263713" width="57" height="555" rx="28.5" transform="translate(683.51 219) rotate(90)" fill="#e2c140" opacity="0.82"/>
          </g>
          <g transform="matrix(1, 0, 0, 1, 397, 3394)" filter="url(#Rectángulo_263715)">
            <rect id="Rectángulo_263715-2" data-name="Rectángulo 263715" width="57" height="555" rx="28.5" transform="translate(683.51 285) rotate(90)" fill="#e2c140" opacity="0.82"/>
          </g>
          <g transform="matrix(1, 0, 0, 1, 397, 3394)" filter="url(#Rectángulo_263716)">
            <rect id="Rectángulo_263716-2" data-name="Rectángulo 263716" width="57" height="555" rx="28.5" transform="translate(683.51 351) rotate(90)" fill="#e2c140" opacity="0.82"/>
          </g>
        </g>
        <g id="Grupo_710382" data-name="Grupo 710382">
          <text id="Proceso_de_gestión_de_riesgo" data-name="Proceso de gestión de riesgo" transform="translate(625.506 3625)" fill="#12263f" font-size="24" font-family="Roboto-Bold, Roboto" font-weight="700"><tspan x="0" y="25">Proceso de gestión de riesgo</tspan></text>
          <text id="Participación_externa" data-name="Participación externa" transform="translate(684.506 3757)" fill="#12263f" font-size="24" font-family="Roboto-Bold, Roboto" font-weight="700"><tspan x="0" y="25">Participación externa</tspan></text>
          <text id="Programa_de_gestión_integrado_de_riesgos" data-name="Programa de gestión integrado de riesgos" transform="translate(574.506 3691)" fill="#12263f" font-size="24" font-family="Roboto-Bold, Roboto" font-weight="700"><tspan x="0" y="25">Programa de gestión integrado de riesgos</tspan></text>
        </g>
      </g>
    </g>
  </g>
</svg>
