<svg xmlns="http://www.w3.org/2000/svg" xmlns:xlink="http://www.w3.org/1999/xlink" width="1240.368" height="561.752" viewBox="0 0 1240.368 561.752">
  <defs>
    <linearGradient id="linear-gradient" x1="0.5" x2="0.5" y2="1" gradientUnits="objectBoundingBox">
      <stop offset="0" stop-color="#039be5"/>
      <stop offset="1" stop-color="#027fbc"/>
    </linearGradient>
    <linearGradient id="linear-gradient-2" x1="0.5" x2="0.5" y2="1" gradientUnits="objectBoundingBox">
      <stop offset="0" stop-color="#f5f5f5"/>
      <stop offset="0.25" stop-color="#f5f5f5"/>
      <stop offset="1" stop-color="#afafaf"/>
    </linearGradient>
  </defs>
  <g id="Grupo_710427" data-name="Grupo 710427" transform="translate(-180 -1060.787)">
    <path id="Unión_89" data-name="Unión 89" d="M-3791.324,11742.591h8.777V11700h352.558v11.216h-340.157v31.374h7.587l-14.382,20.142Z" transform="translate(4230.905 -10547.566)" fill="#bec1c7"/>
    <path id="Unión_93" data-name="Unión 93" d="M0,20.142H8.777v42.59H361.334V51.516H21.178V20.142h7.587L14.383,0Z" transform="translate(1161.619 1215.165) rotate(180)" fill="#bec1c7"/>
    <rect id="Rectángulo_37274" data-name="Rectángulo 37274" width="332.169" height="60.061" rx="10" transform="translate(634.831 1061)" fill="url(#linear-gradient)"/>
    <g id="Rectángulo_37275" data-name="Rectángulo 37275" transform="translate(633.676 1060.787)" fill="#fff" stroke="#1565c0" stroke-width="1">
      <rect width="56.596" height="60.061" rx="10" stroke="none"/>
      <rect x="0.5" y="0.5" width="55.596" height="59.061" rx="9.5" fill="none"/>
    </g>
    <text id="MARCOS_DE_SEGURIDAD_CLOUD" data-name="MARCOS DE SEGURIDAD CLOUD" transform="translate(827.417 1097)" fill="#fff" font-size="17" font-family="Roboto-Regular, Roboto"><tspan x="-123.516" y="0">MARCOS DE SEGURIDAD CLOUD</tspan></text>
    <g id="Grupo_163734" data-name="Grupo 163734" transform="translate(-496.853 30.637)">
      <path id="Trazado_221311" data-name="Trazado 221311" d="M1179.733,1069.747a2,2,0,0,0-2.509.622,1.41,1.41,0,0,1-1.536.672c-.382-.023-.766,0-1.149-.006a.742.742,0,0,1-.822-.826c-.006-1.578,0-3.155-.008-4.733,0-.26.071-.329.329-.329a13.328,13.328,0,0,0,2.017-.062,5.878,5.878,0,0,0,.528-11.526,9.3,9.3,0,0,0-2-.181,10.346,10.346,0,0,0-4.694-14.5,9.964,9.964,0,0,0-7.811-.271,10.272,10.272,0,0,0-6.319,6.7c-.175-.146-.325-.276-.479-.4a7.908,7.908,0,0,0-4.855-1.8,8.071,8.071,0,0,0-8.107,9.9c.086.381-.026.423-.333.467a5.852,5.852,0,0,0-5,5.178,5.783,5.783,0,0,0,3.46,5.962,1.758,1.758,0,0,1,1.033,1.266l-.386.024a4.41,4.41,0,0,0,.27,8.811c1.838.016,3.676.01,5.513,0,.293,0,.385.065.379.372-.02,1.056,0,2.113-.009,3.17,0,.6-.273.873-.867.874-1.608,0-3.216,0-4.824.007a.429.429,0,0,1-.451-.272,2.143,2.143,0,0,0-2.463-1.136,2.2,2.2,0,0,0-.015,4.271,2.135,2.135,0,0,0,2.469-1.12.462.462,0,0,1,.491-.283q2.412.014,4.824,0a2.209,2.209,0,0,0,2.306-2.314c0-1.088.007-2.175,0-3.262,0-.233.051-.31.3-.31q4.48.014,8.959,0c.234,0,.317.053.309.3-.019.551-.006,1.1-.006,1.654a2.234,2.234,0,0,0,2.481,2.461q6.341,0,12.681,0c.232,0,.405,0,.544.27a2.123,2.123,0,0,0,2.461,1.132,2.2,2.2,0,0,0,0-4.27,2.134,2.134,0,0,0-2.466,1.125.459.459,0,0,1-.492.279q-6.432-.009-12.865-.005c-.6,0-.871-.27-.877-.863-.005-.536.024-1.074-.01-1.608-.023-.37.064-.484.461-.479,2.1.022,4.2.039,6.294,0a4.377,4.377,0,0,0,4.108-5.569,4.265,4.265,0,0,0-3.455-3.166c-.108-.023-.266.019-.3-.141-.056-.266.307-.671.593-.671,1.47,0,2.941.01,4.411-.008.318,0,.407.069.4.4-.02,1.516-.01,3.032-.009,4.549a2.225,2.225,0,0,0,2.436,2.415c.551,0,1.1.012,1.654,0a.573.573,0,0,1,.633.354,2.13,2.13,0,0,0,2.33,1.072,2.2,2.2,0,0,0,.435-4.181Zm-40.56,10.847a.735.735,0,1,1,.725-.734A.743.743,0,0,1,1139.172,1080.593Zm36.742-2.94a.735.735,0,1,1-.727.776A.742.742,0,0,1,1175.914,1077.654Zm-6.619-7.084a2.944,2.944,0,0,1-2.987,2.67q-5.972.01-11.945,0c-4.319,0-8.637.009-12.956-.005a2.937,2.937,0,0,1-.095-5.874q.643-.016,1.286,0a.846.846,0,0,0,.9-.411.835.835,0,0,0-.173-.929,6.6,6.6,0,0,1,6.564-10.323c.224.044.352.1.279.38-.084.326.168.57.324.88-.175.047-.307.079-.438.118a.747.747,0,0,0-.6.768q0,1.424,0,2.849a.751.751,0,0,0,.59.773c.13.041.264.071.4.108.014.179-.117.28-.184.405a.743.743,0,0,0,.124.963q1,1.011,2.014,2.014c.465.463.895.182,1.343-.106.047.151.09.276.123.4a.771.771,0,0,0,.83.636c.9,0,1.807-.008,2.711,0a.784.784,0,0,0,.876-.691c.046-.229.082-.4.39-.2.5.323.746.272,1.172-.151.522-.518,1.04-1.039,1.56-1.559.752-.752.753-.76.257-1.719.637-.1,1.145-.341,1-1.191a4.611,4.611,0,0,1,1.767,1.257,4.9,4.9,0,0,1,1.181,2.734,1.816,1.816,0,0,1-.233,1.1,7.543,7.543,0,0,0-.4.821.728.728,0,0,0,.719,1.061,8.946,8.946,0,0,1,1.1.038A2.939,2.939,0,0,1,1169.3,1070.57Zm-18.378-11.779c-.05-.364.131-.475.433-.524a2.965,2.965,0,0,0,.445-.106.75.75,0,0,0,.47-1.127c-.13-.279-.493-.514-.37-.827.1-.262.407-.444.622-.661a.719.719,0,0,0,.1-.1c.285-.43.585-.414,1.006-.136.763.5,1.223.308,1.4-.6.094-.482.282-.685.767-.591a1.463,1.463,0,0,0,.275,0c.86,0,.86,0,1.113.838a.736.736,0,0,0,1.141.486c.8-.41.8-.41,1.458.246l.032.033c.526.526.526.526.153,1.172-.382.662-.2,1.1.548,1.292.71.185.71.185.71.944v.184c0,.821,0,.821-.8,1.05a.745.745,0,0,0-.5,1.2c.4.739.4.739-.209,1.35s-.6.6-1.354.2a.737.737,0,0,0-1.186.512c-.222.79-.222.79-1.062.79h-.046c-.85,0-.858,0-1.084-.815a.8.8,0,0,0-.738-.645,2.115,2.115,0,0,0-.9.432.328.328,0,0,1-.5-.066,10.329,10.329,0,0,0-.81-.812c-.177-.159-.238-.3-.073-.5a1.146,1.146,0,0,0,.1-.155c.57-.951.422-1.323-.658-1.572-.337-.078-.54-.177-.477-.583A3.208,3.208,0,0,0,1150.917,1058.791Zm16.365,4.9c-.242,0-.308-.1-.359-.3a6.158,6.158,0,0,0-3.961-4.474c-.207-.08-.3-.167-.277-.388a5.284,5.284,0,0,0,0-.551c0-.564-.154-.77-.692-.916-.233-.063-.385-.094-.19-.4.322-.5.269-.745-.155-1.171q-.777-.783-1.559-1.56c-.748-.748-.748-.748-1.709-.261-.041-.151-.074-.3-.121-.442a.737.737,0,0,0-.738-.575c-.965,0-1.93,0-2.894,0a.739.739,0,0,0-.745.565c-.048.143-.08.292-.126.466-.141-.079-.258-.142-.373-.208a.757.757,0,0,0-1,.123c-.327.322-.61.8-1,.914-.364.109-.839-.18-1.271-.265a8.094,8.094,0,0,0-9.4,6.834,12.374,12.374,0,0,0-.054,1.948,1.1,1.1,0,0,1-.584-.336,4.411,4.411,0,0,1,2.7-7.835c.184,0,.367,0,.551,0a.754.754,0,0,0,.76-1.138,6.751,6.751,0,0,1-.509-2.729,6.614,6.614,0,0,1,11.787-3.922c.076.1.15.194.228.288a.735.735,0,0,0,1.31-.359,9.138,9.138,0,0,1,.761-2.537,8.816,8.816,0,0,1,16.672,2.357,8.582,8.582,0,0,1-1.61,6.635c-.225.308-.427.606-.228,1s.565.4.945.409a11.594,11.594,0,0,1,2.968.172,4.439,4.439,0,0,1,3.168,4.7,4.388,4.388,0,0,1-4.21,3.937C1172.673,1063.71,1169.978,1063.678,1167.282,1063.691Zm11.555,8.815a.735.735,0,1,1,.759-.746A.745.745,0,0,1,1178.837,1072.506Z" transform="translate(0)"/>
      <path id="Trazado_221312" data-name="Trazado 221312" d="M1329.244,1078.354a.753.753,0,0,0,.14-1c-.068-.118-.134-.238-.208-.369.086-.032.156-.061.228-.083.7-.212.8-.343.8-1.07q0-1.057,0-2.113c0-1.033,0-1.033-.961-1.366-.018-.006-.025-.044-.037-.067.4-.7.424-.925.078-1.282-.672-.692-1.359-1.37-2.045-2.048a.72.72,0,0,0-.924-.117c-.131.07-.26.144-.415.23-.046-.174-.077-.323-.125-.466a.74.74,0,0,0-.747-.563c-.965,0-1.929,0-2.894,0a.735.735,0,0,0-.737.575c-.046.143-.079.289-.119.44-.957-.486-.958-.486-1.711.266q-.78.779-1.559,1.56c-.425.428-.475.664-.154,1.172.188.3.052.348-.193.392a.724.724,0,0,0-.685.734c-.015.98-.01,1.96,0,2.94a.726.726,0,0,0,.584.729,1.006,1.006,0,0,1,.432.157c-.244.408-.557.829-.117,1.282.682.7,1.38,1.392,2.077,2.081a.718.718,0,0,0,.888.119c.143-.07.281-.149.425-.226.349,1.013.349,1.013,1.411,1.013q1.079,0,2.159,0c.63,0,.81-.124.971-.734.072-.273.156-.283.386-.145.511.307.749.266,1.175-.157C1327.99,1079.613,1328.615,1078.981,1329.244,1078.354Zm-3.4.139a.732.732,0,0,0-1.167.485c-.242.824-.242.824-1.081.824h-.046c-.844,0-.844,0-1.066-.787a.743.743,0,0,0-1.222-.5c-.7.393-.7.393-1.279-.182-.638-.638-.638-.638-.23-1.421a.734.734,0,0,0-.508-1.159c-.812-.244-.812-.244-.812-1.09,0-.869,0-.869.8-1.1a.739.739,0,0,0,.5-1.192c-.4-.743-.4-.736.2-1.354a8.995,8.995,0,0,0,.566-.709l.12.109c.2.118.391.238.588.353.661.386,1.089.2,1.289-.549.188-.708.188-.708.947-.708h.138c.856,0,.856,0,1.092.812a.739.739,0,0,0,1.2.482c.726-.4.726-.4,1.315.191l.032.032c.6.6.6.6.19,1.352a.734.734,0,0,0,.523,1.178c.787.214.787.214.787,1.022v.092c0,.852,0,.852-.822,1.083a.733.733,0,0,0-.494,1.163c.41.767.41.767-.208,1.386C1326.613,1078.9,1326.613,1078.9,1325.848,1078.493Z" transform="translate(-157.955 -26.414)"/>
      <path id="Trazado_221313" data-name="Trazado 221313" d="M1406.419,1205.96c-.857.013-1.715.005-2.572.005h-1.883c-1.068,0-1.054,0-1.073,1.05-.006.33.058.437.416.431,1.454-.024,2.909-.01,4.363-.01,1.136,0,1.121,0,1.12-1.142C1406.789,1205.981,1406.672,1205.956,1406.419,1205.96Z" transform="translate(-231.594 -147.427)"/>
      <path id="Trazado_221314" data-name="Trazado 221314" d="M1377.682,1206c-.711,0-.711,0-.711.713,0,.757,0,.757.759.757.711,0,.711,0,.711-.713C1378.441,1206,1378.441,1206,1377.682,1206Z" transform="translate(-210.607 -147.466)"/>
      <path id="Trazado_221315" data-name="Trazado 221315" d="M1461.648,1207.474c.757,0,.757,0,.757-.759,0-.711,0-.711-.713-.711-.757,0-.757,0-.757.759C1460.935,1207.474,1460.935,1207.474,1461.648,1207.474Z" transform="translate(-284.279 -147.466)"/>
      <path id="Trazado_221316" data-name="Trazado 221316" d="M1206.574,1295.907c-3.522.013-7.045.008-10.567.008h-10.062c-.986,0-.961,0-1,.991-.015.415.107.49.5.489q10.268-.02,20.536-.009c1.034,0,1.015,0,1.041-1.037C1207.035,1295.979,1206.923,1295.906,1206.574,1295.907Z" transform="translate(-42.122 -226.349)"/>
      <path id="Trazado_221317" data-name="Trazado 221317" d="M1161.815,1295.972c-.751,0-.751,0-.751.766,0,.7,0,.7.72.7.751,0,.751,0,.751-.766C1162.534,1295.972,1162.534,1295.972,1161.815,1295.972Z" transform="translate(-21.166 -226.406)"/>
      <path id="Trazado_221318" data-name="Trazado 221318" d="M1376.971,1296.685c0,.757,0,.757.759.757.711,0,.711,0,.711-.713,0-.757,0-.757-.759-.757C1376.971,1295.972,1376.971,1295.972,1376.971,1296.685Z" transform="translate(-210.607 -226.406)"/>
      <path id="Trazado_221319" data-name="Trazado 221319" d="M1271.956,1193.893a2.941,2.941,0,1,0-2.936-2.957A2.948,2.948,0,0,0,1271.956,1193.893Zm-.034-4.411a1.47,1.47,0,1,1-1.432,1.485A1.48,1.48,0,0,1,1271.922,1189.482Z" transform="translate(-115.889 -131.679)"/>
      <path id="Trazado_221320" data-name="Trazado 221320" d="M1349.946,1098.042a2.941,2.941,0,1,0,2.922,2.924A2.944,2.944,0,0,0,1349.946,1098.042Zm-.018,4.409a1.469,1.469,0,1,1,1.469-1.492A1.477,1.477,0,0,1,1349.928,1102.45Z" transform="translate(-184.299 -52.738)"/>
    </g>
    <path id="Unión_72" data-name="Unión 72" d="M0,0H36.192V11.217H0Z" transform="translate(805.893 1120.849) rotate(90)" fill="#bec1c7"/>
    <rect id="Rectángulo_263723" data-name="Rectángulo 263723" width="326.566" height="44.248" rx="10" transform="translate(984.676 1226)" fill="#ffca28" opacity="0.37"/>
    <rect id="Rectángulo_263724" data-name="Rectángulo 263724" width="326.566" height="58.248" rx="10" transform="translate(290.68 1226)" fill="#ffca28" opacity="0.4"/>
    <g id="Grupo_710305" data-name="Grupo 710305" transform="translate(126.355 -9677.496)">
      <g id="Grupo_162467" data-name="Grupo 162467" transform="translate(327.676 10961.743)">
        <line id="Línea_1863" data-name="Línea 1863" y2="45.528" fill="none" stroke="#ffca28" stroke-width="2"/>
      </g>
    </g>
    <g id="Grupo_710306" data-name="Grupo 710306" transform="translate(820 -9691.133)">
      <g id="Grupo_162467-2" data-name="Grupo 162467" transform="translate(327.676 10961.743)">
        <path id="Trazado_467075" data-name="Trazado 467075" d="M-.46.657,93,54" transform="translate(0.5 -0.11)" fill="none" stroke="#ffca28" stroke-linecap="round" stroke-width="2"/>
      </g>
    </g>
    <text id="Metodología_de_análisis_y_evaluación_de_riesgos" data-name="Metodología de análisis y evaluación de riesgos" transform="translate(322.031 1233)" fill="#12263f" font-size="16" font-family="Roboto-Regular, Roboto"><tspan x="7.473" y="17">Metodología de análisis y evaluación </tspan><tspan x="101.082" y="41">de riesgos</tspan></text>
    <text id="Controles_de_seguridad_" data-name="Controles de seguridad
" transform="translate(1009.676 1237)" fill="#12263f" font-size="16" font-family="Roboto-Regular, Roboto"><tspan x="55.711" y="17">Controles de seguridad</tspan></text>
    <text id="_Cuáles_son_" data-name="¿Cuáles son?" transform="translate(399.031 1335)" fill="#12263f" font-size="16" font-family="Roboto-Regular, Roboto"><tspan x="8.082" y="17">¿Cuáles son?</tspan></text>
    <text id="Marcos_de_referencia_" data-name="Marcos de referencia
" transform="translate(1192 1328)" fill="#12263f" font-size="16" font-family="Roboto-Regular, Roboto"><tspan x="20.502" y="17">Marcos de </tspan><tspan x="22.275" y="41">referencia</tspan></text>
    <rect id="Rectángulo_263727" data-name="Rectángulo 263727" width="142.693" height="41.566" rx="10" transform="translate(180 1446.478)" opacity="0.5" fill="url(#linear-gradient-2)"/>
    <g id="Rectángulo_263738" data-name="Rectángulo 263738" transform="translate(740.33 1532.973)" fill="none" stroke="#173d7a" stroke-width="1" stroke-dasharray="3">
      <rect width="230.693" height="89.566" rx="10" stroke="none"/>
      <rect x="0.5" y="0.5" width="229.693" height="88.566" rx="9.5" fill="none"/>
    </g>
    <rect id="Rectángulo_263728" data-name="Rectángulo 263728" width="115.693" height="41.566" rx="10" transform="translate(271.676 1497.478)" opacity="0.5" fill="url(#linear-gradient-2)"/>
    <rect id="Rectángulo_263729" data-name="Rectángulo 263729" width="115.693" height="41.566" rx="10" transform="translate(389.676 1552.478)" opacity="0.5" fill="url(#linear-gradient-2)"/>
    <rect id="Rectángulo_263730" data-name="Rectángulo 263730" width="115.693" height="41.566" rx="10" transform="translate(484.308 1488.044)" opacity="0.5" fill="url(#linear-gradient-2)"/>
    <rect id="Rectángulo_263734" data-name="Rectángulo 263734" width="115.693" height="41.566" rx="10" transform="translate(1304.676 1439.4)" opacity="0.5" fill="url(#linear-gradient-2)"/>
    <g id="Rectángulo_263739" data-name="Rectángulo 263739" transform="translate(1334.676 1542.4)" fill="none" stroke="#173d7a" stroke-width="1" stroke-dasharray="3">
      <rect width="85.368" height="41.566" rx="10" stroke="none"/>
      <rect x="0.5" y="0.5" width="84.368" height="40.566" rx="9.5" fill="none"/>
    </g>
    <g id="Rectángulo_263742" data-name="Rectángulo 263742" transform="translate(1102.676 1573)" fill="none" stroke="#173d7a" stroke-width="1" stroke-dasharray="3">
      <rect width="130.332" height="41.566" rx="10" stroke="none"/>
      <rect x="0.5" y="0.5" width="129.332" height="40.566" rx="9.5" fill="none"/>
    </g>
    <rect id="Rectángulo_263731" data-name="Rectángulo 263731" width="157.693" height="41.566" rx="10" transform="translate(572.308 1431.478)" opacity="0.5" fill="url(#linear-gradient-2)"/>
    <rect id="Rectángulo_263740" data-name="Rectángulo 263740" width="171.692" height="67.56" rx="10" transform="translate(848.676 1417)" opacity="0.5" fill="url(#linear-gradient-2)"/>
    <rect id="Rectángulo_263741" data-name="Rectángulo 263741" width="196.477" height="67.56" rx="10" transform="translate(1081.676 1430)" opacity="0.5" fill="url(#linear-gradient-2)"/>
    <path id="Trazado_467063" data-name="Trazado 467063" d="M584.279-10096.862l123.4-136.574" transform="translate(-253.138 11593.619)" fill="none" stroke="#4480a2" stroke-linecap="round" stroke-width="2"/>
    <path id="Trazado_467068" data-name="Trazado 467068" d="M655.641-10181.277l70.157-47.612" transform="translate(208.823 11714.46)" fill="none" stroke="#4480a2" stroke-linecap="round" stroke-width="2"/>
    <path id="Trazado_467072" data-name="Trazado 467072" d="M684.551-10142.087l16.261-74.218" transform="translate(480.349 11714.46)" fill="none" stroke="#4480a2" stroke-linecap="round" stroke-width="2"/>
    <path id="Trazado_467073" data-name="Trazado 467073" d="M737.033-10160.43,804-10213.605" transform="translate(447.446 11589.439)" fill="none" stroke="#4480a2" stroke-linecap="round" stroke-width="2"/>
    <path id="Trazado_467065" data-name="Trazado 467065" d="M641.781-10074.691l4.377-191.761" transform="translate(-191.177 11626.516)" fill="none" stroke="#4480a2" stroke-linecap="round" stroke-width="2"/>
    <path id="Trazado_467069" data-name="Trazado 467069" d="M689.362-10196.316l-29.728-62.458" transform="translate(699.717 11740.691)" fill="none" stroke="#4480a2" stroke-linecap="round" stroke-width="2"/>
    <path id="Trazado_467066" data-name="Trazado 467066" d="M690.762-10145.181l-88.739-127.158" transform="translate(-146.959 11632.521)" fill="none" stroke="#4480a2" stroke-linecap="round" stroke-width="2"/>
    <path id="Trazado_467070" data-name="Trazado 467070" d="M824.972-10194.274,718.4-10260.267" transform="translate(533.431 11635.764)" fill="none" stroke="#4480a2" stroke-linecap="round" stroke-width="2"/>
    <path id="Trazado_467074" data-name="Trazado 467074" d="M591.539-10215.993l315.229-44.273" transform="translate(345.138 11635.764)" fill="none" stroke="#4480a2" stroke-linecap="round" stroke-width="2"/>
    <path id="Trazado_467067" data-name="Trazado 467067" d="M736.674-10200.547l-194.77-70.507" transform="translate(-86.959 11631.117)" fill="none" stroke="#4480a2" stroke-linecap="round" stroke-width="2"/>
    <path id="Trazado_467064" data-name="Trazado 467064" d="M538.092-10116.334l190.556-85.2" transform="translate(-273.972 11561.589)" fill="none" stroke="#4480a2" stroke-linecap="round" stroke-width="2"/>
    <text id="MAGERIT" transform="translate(201.031 1453.261)" fill="#12263f" font-size="16" font-family="Roboto-Regular, Roboto"><tspan x="20.926" y="17">MAGERIT</tspan></text>
    <text id="OCTAVE" transform="translate(296.676 1508.827)" fill="#12263f" font-size="16" font-family="Roboto-Regular, Roboto"><tspan x="2.926" y="17">OCTAVE</tspan></text>
    <text id="CORAS" transform="translate(418.676 1561.261)" fill="#12263f" font-size="16" font-family="Roboto-Regular, Roboto"><tspan x="3.325" y="17">CORAS</tspan></text>
    <text id="MEHARI" transform="translate(490 1496.261)" fill="#12263f" font-size="16" font-family="Roboto-Regular, Roboto"><tspan x="25.375" y="17">MEHARI</tspan></text>
    <text id="NIST" transform="translate(1341.676 1447.617)" fill="#12263f" font-size="16" font-family="Roboto-Regular, Roboto"><tspan x="3.102" y="17">NIST</tspan></text>
    <text id="Tiers" transform="translate(1357.676 1550.617)" fill="#12263f" font-size="16" font-family="Roboto-Regular, Roboto"><tspan x="2.715" y="17">Tiers</tspan></text>
    <text id="_13_dominios_" data-name="13 dominios
" transform="translate(1116.676 1582)" fill="#12263f" font-size="16" font-family="Roboto-Regular, Roboto"><tspan x="6.965" y="17">13 dominios</tspan></text>
    <text id="_14_dominios_35_objetivos_de_control_114_controles_" data-name="14 dominios
35 objetivos de control
114 controles
" transform="translate(746.676 1542)" fill="#12263f" font-size="16" font-family="Roboto-Regular, Roboto"><tspan x="64.965" y="17">14 dominios</tspan><tspan x="28.156" y="41">35 objetivos de control</tspan><tspan x="60.27" y="65">114 controles</tspan></text>
    <text id="NIST_SP-830" data-name="NIST SP-830" transform="translate(600 1440.261)" fill="#12263f" font-size="16" font-family="Roboto-Regular, Roboto"><tspan x="10.301" y="17">NIST SP-830</tspan></text>
    <text id="ISO_27002-_27017" data-name="ISO 27002- 27017" transform="translate(871.676 1427)" fill="#12263f" font-size="16" font-family="Roboto-Regular, Roboto"><tspan x="22.93" y="17">ISO 27002- </tspan><tspan x="39.539" y="41">27017</tspan></text>
    <text id="Controles_Cloud_Security_Alliance" data-name="Controles Cloud Security Alliance" transform="translate(1104.676 1440)" fill="#12263f" font-size="16" font-family="Roboto-Regular, Roboto"><tspan x="17.486" y="17">Controles Cloud </tspan><tspan x="15.548" y="41">Security Alliance</tspan></text>
  </g>
</svg>
