<svg id="Grupo_710134" data-name="Grupo 710134" xmlns="http://www.w3.org/2000/svg" xmlns:xlink="http://www.w3.org/1999/xlink" width="53.377" height="53.407" viewBox="0 0 53.377 53.407">
  <defs>
    <clipPath id="clip-path">
      <rect id="Rectángulo_263564" data-name="Rectángulo 263564" width="53.377" height="53.407" fill="#ff2c9c"/>
    </clipPath>
  </defs>
  <g id="Grupo_710128" data-name="Grupo 710128" clip-path="url(#clip-path)">
    <path id="Trazado_466613" data-name="Trazado 466613" d="M34.554,45.646c-1.439,0-2.888-.006-4.337.013-.105,0-.254.166-.306.287a3.461,3.461,0,0,1-6.458.022c-.058-.132-.224-.307-.342-.309-1.432-.021-2.865-.014-4.326-.014A9.425,9.425,0,0,1,13.862,52.3a9.143,9.143,0,0,1-6.78.785,9.471,9.471,0,1,1,11.867-9.194c.148.01.3.029.455.029,1.166,0,2.332-.012,3.5.01a.543.543,0,0,0,.611-.429,3.156,3.156,0,0,1,1.882-1.882.579.579,0,0,0,.433-.663q-.018-6.081-.007-12.163c0-.986.249-1.234,1.241-1.234H45.247c.985,0,1.235-.252,1.236-1.241s.008-1.973,0-2.96a.852.852,0,0,0-.915-.961c-3.121-.008-6.242,0-9.362,0a.651.651,0,0,0-.13.032c-.044.137-.09.289-.14.439a4.248,4.248,0,0,1-4.013,2.959c-6.69.014-13.38.028-20.07-.005a6.875,6.875,0,0,1-.871-13.668c.67-.1,1.355-.088,2.091-.132a6.951,6.951,0,0,1,5.864-5.138c0-1.5-.022-2.945.006-4.392A2.55,2.55,0,0,1,21.529.007c2.565-.013,5.13,0,7.695,0H45.594V1.725H21.949c-1.067,0-1.3.228-1.3,1.286,0,.951-.005,1.9,0,2.852.005.706.315,1.026,1.016,1.026q11.891,0,23.783,0c.706,0,1.022-.316,1.027-1.015.008-1.074,0-2.147,0-3.255h1.7c0,1.265.048,2.517-.025,3.763a5.519,5.519,0,0,1-.544,1.461,3.086,3.086,0,0,1,.569,2.463h-1.7c0-.232.006-.474,0-.715a.878.878,0,0,0-.959-.976c-.323-.009-.646,0-.968,0H24.463a13.287,13.287,0,0,1,1.26,1.733,1.423,1.423,0,0,0,1.4.9,4.73,4.73,0,0,1,3.743,2.132.874.874,0,0,0,.831.415c4.466-.014,8.932-.009,13.4-.009,1.184,0,1.365-.178,1.387-1.359,0-.1.011-.208.017-.329a1.943,1.943,0,0,1,.23-.031c.465,0,.93,0,1.427,0a2.986,2.986,0,0,1-.491,2.419,11.134,11.134,0,0,1,0,7.207,3.121,3.121,0,0,1,.54,2.161c-.029.842-.006,1.686-.007,2.529a2.612,2.612,0,0,1-2.885,2.905H27.541v.535c0,3.714,0,7.427-.008,11.14a.579.579,0,0,0,.434.662,3.366,3.366,0,0,1,1.92,1.925c.065.149.233.358.357.36,1.376.026,2.754.016,4.162.016a9.469,9.469,0,0,1,3.568-7.38,9.278,9.278,0,0,1,6.452-2.081,9.469,9.469,0,1,1-9.873,11.186M24.5,18.86c-.078-.19-.135-.339-.2-.484a4.877,4.877,0,0,0-5.077-2.851,4.737,4.737,0,0,0-4.143,3.868c-.177.908-.47,1.095-1.391.887a4.851,4.851,0,0,0-5.311,2.288,4.943,4.943,0,0,0,3.647,1.543q9.873.015,19.745,0a2.482,2.482,0,0,0,2.437-1.542,2.407,2.407,0,0,0-.472-2.791,2.44,2.44,0,0,0-2.8-.649.893.893,0,0,1-1.17-1.3,3.222,3.222,0,0,0-.378-3.587A3.265,3.265,0,0,0,25.993,13c-.751.143-1.032-.035-1.284-.775a5.175,5.175,0,0,0-10.058.812c-.155.916-.446,1.1-1.371.89a5.163,5.163,0,0,0-6.129,3.374,4.812,4.812,0,0,0,.176,3.647A6.956,6.956,0,0,1,10.117,18.9a6.674,6.674,0,0,1,3.355-.409,6.568,6.568,0,0,1,7-4.676c2.767.3,5.175,2.289,5.623,4.637l-1.6.411M16.046,47.9a7.646,7.646,0,0,0-1.348-9.69,7.758,7.758,0,0,0-10.312-.151,7.645,7.645,0,0,0-1.5,9.849,7.05,7.05,0,0,1,3.951-4.33C5.649,41.716,5.787,39.949,7.2,38.7a3.467,3.467,0,0,1,4.451-.065c1.454,1.2,1.622,2.987.446,4.947A7.03,7.03,0,0,1,16.046,47.9M37.3,47.883c1.236-2.565,1.415-2.759,3.949-4.325-1.158-1.905-1.008-3.66.42-4.884a3.466,3.466,0,0,1,4.492.031c1.4,1.231,1.542,3,.363,4.878A7.03,7.03,0,0,1,50.484,47.9a7.629,7.629,0,0,0-1.261-9.606,7.749,7.749,0,0,0-10.349-.269A7.644,7.644,0,0,0,37.3,47.883M31.811,17.195A4.415,4.415,0,0,1,36.1,20.669c3.187,0,6.342.005,9.5-.005a.842.842,0,0,0,.886-.934c.013-1,.005-2.009,0-3.013,0-.954-.258-1.212-1.209-1.212H31.811ZM9.033,51.672A8.133,8.133,0,0,0,14.277,50a.785.785,0,0,0,.337-.774,5.178,5.178,0,0,0-10.307-.032.811.811,0,0,0,.355.816,7.638,7.638,0,0,0,4.37,1.661m34.438,0A8.376,8.376,0,0,0,48.31,50.31a1.335,1.335,0,0,0,.675-1.59,5.2,5.2,0,0,0-5.472-4.166,5.131,5.131,0,0,0-4.751,4.722.923.923,0,0,0,.291.667,7.358,7.358,0,0,0,4.417,1.728M26.635,46.5a1.72,1.72,0,1,0-1.675-1.751A1.734,1.734,0,0,0,26.635,46.5M11.178,41.357a1.719,1.719,0,1,0-1.724,1.7,1.729,1.729,0,0,0,1.724-1.7m32.717,1.7a1.72,1.72,0,1,0-1.715-1.711A1.728,1.728,0,0,0,43.9,43.059" transform="translate(0 0)" fill="#ff2c9c"/>
    <rect id="Rectángulo_263551" data-name="Rectángulo 263551" width="3.377" height="1.657" transform="translate(22.399 3.476)" fill="#ff2c9c"/>
    <rect id="Rectángulo_263552" data-name="Rectángulo 263552" width="3.357" height="1.675" transform="translate(41.358 3.484)" fill="#ff2c9c"/>
    <rect id="Rectángulo_263553" data-name="Rectángulo 263553" width="3.377" height="1.656" transform="translate(41.341 10.365)" fill="#ff2c9c"/>
    <rect id="Rectángulo_263554" data-name="Rectángulo 263554" width="3.396" height="1.637" transform="translate(41.329 24.156)" fill="#ff2c9c"/>
    <rect id="Rectángulo_263555" data-name="Rectángulo 263555" width="1.661" height="1.671" transform="translate(13.79 26.72)" fill="#ff2c9c"/>
    <rect id="Rectángulo_263556" data-name="Rectángulo 263556" width="1.655" height="1.654" transform="translate(17.252 26.738)" fill="#ff2c9c"/>
    <rect id="Rectángulo_263557" data-name="Rectángulo 263557" width="1.674" height="1.649" transform="translate(20.68 26.741)" fill="#ff2c9c"/>
    <rect id="Rectángulo_263558" data-name="Rectángulo 263558" width="1.646" height="1.675" transform="translate(13.797 30.154)" fill="#ff2c9c"/>
    <rect id="Rectángulo_263559" data-name="Rectángulo 263559" width="1.649" height="1.659" transform="translate(17.249 30.18)" fill="#ff2c9c"/>
    <rect id="Rectángulo_263560" data-name="Rectángulo 263560" width="1.636" height="1.675" transform="translate(20.697 30.156)" fill="#ff2c9c"/>
    <rect id="Rectángulo_263561" data-name="Rectángulo 263561" width="1.674" height="1.637" transform="translate(17.22 33.63)" fill="#ff2c9c"/>
    <rect id="Rectángulo_263562" data-name="Rectángulo 263562" width="1.674" height="1.637" transform="translate(20.688 33.634)" fill="#ff2c9c"/>
    <rect id="Rectángulo_263563" data-name="Rectángulo 263563" width="3.379" height="1.668" transform="translate(41.354 17.258)" fill="#ff2c9c"/>
  </g>
</svg>
