<svg id="Grupo_710129" data-name="Grupo 710129" xmlns="http://www.w3.org/2000/svg" xmlns:xlink="http://www.w3.org/1999/xlink" width="54.897" height="55.027" viewBox="0 0 54.897 55.027">
  <defs>
    <clipPath id="clip-path">
      <rect id="Rectángulo_263550" data-name="Rectángulo 263550" width="54.897" height="55.027" fill="#ff2c9c"/>
    </clipPath>
  </defs>
  <g id="Grupo_710126" data-name="Grupo 710126" clip-path="url(#clip-path)">
    <path id="Trazado_466609" data-name="Trazado 466609" d="M21.771,148.894a8.072,8.072,0,0,1,.184-11.516,7.991,7.991,0,0,1,10.9-.077,8.072,8.072,0,0,1,.293,11.572c.626.095,1.241.149,1.837.285a7.943,7.943,0,0,1,6.181,7.682c.022,3.246.005,6.493.006,9.74v.7H53.305a4.672,4.672,0,0,1,.571.012,1.14,1.14,0,0,1,.011,2.264,4.861,4.861,0,0,1-.628.014H1.627A4.7,4.7,0,0,1,1,169.552a1.14,1.14,0,0,1,.024-2.264,4.807,4.807,0,0,1,.571-.012H13.721v-.645q0-4.7,0-9.4a7.975,7.975,0,0,1,7.829-8.3,1.944,1.944,0,0,0,.22-.046M18.3,167.248v-.6c0-1.623,0-3.246,0-4.869,0-.841.434-1.361,1.126-1.371.71-.011,1.156.523,1.16,1.4s0,1.719,0,2.578v2.863H34.309v-.6q0-2.406,0-4.812c0-.889.423-1.416,1.13-1.425s1.153.525,1.156,1.4c0,.936,0,1.871,0,2.807v2.628h2.288v-.545q0-4.755,0-9.51a5.7,5.7,0,0,0-5.933-5.95q-5.489-.007-10.977,0a5.7,5.7,0,0,0-5.963,5.978q0,4.726,0,9.452v.585Zm14.867-24.031a5.717,5.717,0,1,0-5.711,5.721,5.739,5.739,0,0,0,5.711-5.721" transform="translate(0 -114.543)" fill="#ff2c9c"/>
    <path id="Trazado_466610" data-name="Trazado 466610" d="M240.022,12.714q0-5.555,0-11.109c0-1.128.375-1.5,1.518-1.5H256.8c1.162,0,1.522.367,1.522,1.551q0,11.052,0,22.1c0,1.205-.356,1.556-1.575,1.556H241.6c-1.239,0-1.579-.347-1.579-1.61q0-5.5,0-10.995m15.972-5.686H242.34V18.417h13.654Zm.016-4.589H242.337v2.22H256.01ZM242.337,22.987h13.653V20.763H242.337Z" transform="translate(-203.426 -0.09)" fill="#ff2c9c"/>
    <path id="Trazado_466611" data-name="Trazado 466611" d="M13.695,19.5c-2.63,0-5.26.023-7.89-.006A5.8,5.8,0,0,1,.04,13.449,5.619,5.619,0,0,1,2.807,8.712a.677.677,0,0,0,.366-.771A7.413,7.413,0,0,1,11.426.073a7.768,7.768,0,0,1,3.56,1.44.853.853,0,0,0,.56.162A7.388,7.388,0,0,1,24.094,8.04a1.082,1.082,0,0,0,.427.658,5.845,5.845,0,0,1-3.108,10.8c-2.573.017-5.146,0-7.718,0m-.066-2.292c2.61,0,5.22.013,7.83,0a3.53,3.53,0,0,0,1.372-6.778,1.441,1.441,0,0,1-.982-1.487A5.057,5.057,0,0,0,15.6,4.028,1.734,1.734,0,0,1,13.886,3.6a4.842,4.842,0,0,0-5.275-.9A5.066,5.066,0,0,0,5.584,8.626c.2.9-.006,1.35-.773,1.655a3.548,3.548,0,0,0,1.331,6.926q3.743,0,7.487,0" transform="translate(-0.03 0)" fill="#ff2c9c"/>
    <path id="Trazado_466612" data-name="Trazado 466612" d="M190.963,77.409c-.722,0-1.444.008-2.166,0a1.149,1.149,0,1,1,0-2.286q2.166-.014,4.332,0a1.149,1.149,0,1,1,0,2.287c-.722.01-1.444,0-2.166,0" transform="translate(-158.943 -63.641)" fill="#ff2c9c"/>
    <rect id="Rectángulo_263539" data-name="Rectángulo 263539" width="2.208" height="2.241" transform="translate(5.749 21.802)" fill="#ff2c9c"/>
    <rect id="Rectángulo_263540" data-name="Rectángulo 263540" width="2.208" height="2.241" transform="translate(5.75 26.405)" fill="#ff2c9c"/>
    <rect id="Rectángulo_263541" data-name="Rectángulo 263541" width="2.227" height="2.222" transform="translate(46.925 27.551)" fill="#ff2c9c"/>
    <rect id="Rectángulo_263542" data-name="Rectángulo 263542" width="2.205" height="2.24" transform="translate(5.761 30.98)" fill="#ff2c9c"/>
    <rect id="Rectángulo_263543" data-name="Rectángulo 263543" width="2.217" height="2.222" transform="translate(46.935 32.145)" fill="#ff2c9c"/>
    <rect id="Rectángulo_263544" data-name="Rectángulo 263544" width="2.212" height="2.241" transform="translate(5.747 35.57)" fill="#ff2c9c"/>
    <rect id="Rectángulo_263545" data-name="Rectángulo 263545" width="2.227" height="2.222" transform="translate(46.925 36.719)" fill="#ff2c9c"/>
    <rect id="Rectángulo_263546" data-name="Rectángulo 263546" width="2.196" height="2.241" transform="translate(5.762 40.139)" fill="#ff2c9c"/>
    <rect id="Rectángulo_263547" data-name="Rectángulo 263547" width="2.217" height="2.226" transform="translate(46.918 41.301)" fill="#ff2c9c"/>
    <rect id="Rectángulo_263548" data-name="Rectángulo 263548" width="2.219" height="2.221" transform="translate(5.754 44.738)" fill="#ff2c9c"/>
    <rect id="Rectángulo_263549" data-name="Rectángulo 263549" width="2.205" height="2.24" transform="translate(46.926 45.868)" fill="#ff2c9c"/>
  </g>
</svg>
