<svg xmlns="http://www.w3.org/2000/svg" width="126" height="130.332" viewBox="0 0 126 130.332">
  <g id="Grupo_712074" data-name="Grupo 712074" transform="translate(-632.006 -10204.5)">
    <text id="_1._Áreas_seguras_" data-name="1. Áreas seguras

" transform="translate(632.006 10307.832)" fill="#12263f" font-size="16" font-family="Roboto-Black, Roboto" font-weight="800"><tspan x="0" y="17">1. Áreas seguras</tspan></text>
    <g id="_5tlvLI" data-name="5tlvLI" transform="translate(47.514 10052.377)">
      <g id="Grupo_152067" data-name="Grupo 152067" transform="translate(606.492 152.123)">
        <path id="Trazado_194684" data-name="Trazado 194684" d="M615.471,205.76c2.7-.885,3.728.966,4.58,3.008a1.987,1.987,0,0,0,2.27,1.368c1.345-.107,2.7-.025,4.174-.025v-8.791c-1.918-.139-3.84-.148-5.718-.436a16.531,16.531,0,0,1-14.257-17.016c.359-7.3,6.38-13.764,14.093-15.052,1.47-.246,2.975-.284,4.638-.434a13.826,13.826,0,0,1,4.374-12.109,15.083,15.083,0,0,1,8.662-4.02,15.422,15.422,0,0,1,16.825,10.293c3.919-1.3,7.744-1.15,11.188,1.37,3.517,2.572,4.794,6.11,4.018,10.539.947-.154,1.754-.3,2.565-.415a14.834,14.834,0,0,1,15.3,8c3.732,7.944-1.422,17.3-10.407,18.856a22.384,22.384,0,0,1-3.218.272c-1.681.044-3.364.012-5.16.012V210.1c1.733,0,3.456.021,5.177-.022a1.323,1.323,0,0,0,.768-.487,3.875,3.875,0,0,0,.49-.85c.982-1.9,1.774-4.071,4.6-2.92.808-2.114,2.026-3.428,4.164-3.6a4.412,4.412,0,0,1,4.7,3.409,4.464,4.464,0,0,1-8.257,3.173c-.328-.595-.447-1.236-1.443-1.222s-1.24.644-1.609,1.284c-2.238,3.878-.941,3.079-5.454,3.17-1.021.021-2.044,0-3.162,0v4.118h3.153c2.3,0,4.6-.021,6.9.013a1.364,1.364,0,0,0,1.5-.888,4.358,4.358,0,0,1,5.128-2.465,4.471,4.471,0,0,1-.028,8.66,4.5,4.5,0,0,1-5.159-2.464c-.189-.354-.575-.854-.878-.859-3.506-.06-7.014-.039-10.615-.039v4.152c1.843,0,3.616.056,5.382-.021a2,2,0,0,1,2.215,1.3,9.224,9.224,0,0,0,1.242,2.2,2.448,2.448,0,0,0,1.513.854c.366.031.929-.47,1.155-.873a4.58,4.58,0,0,1,5.058-2.444,4.481,4.481,0,0,1,.063,8.7,4.332,4.332,0,0,1-5.094-2.516,1.26,1.26,0,0,0-1.514-.869,2.264,2.264,0,0,1-2.8-1.692,3.61,3.61,0,0,0-4.56-2.719,16.16,16.16,0,0,1-2.675.023c-.029.539-.071.987-.074,1.435-.009,1.924.031,3.848-.02,5.771a3.432,3.432,0,0,1-3.52,3.611q-17.806.042-35.611-.006c-2.142-.006-3.484-1.509-3.515-3.759-.032-2.287-.007-4.575-.007-7.045-1.87,0-3.591-.028-5.308.028a1.326,1.326,0,0,0-.834.594,10.394,10.394,0,0,0-1.023,1.842c-.584,1.4-1.444,2.2-3.108,1.964a1.757,1.757,0,0,0-1.3.857,4.523,4.523,0,0,1-5.157,2.469,4.361,4.361,0,0,1-3.389-4.292,4.435,4.435,0,0,1,3.459-4.393,4.581,4.581,0,0,1,5.053,2.447c.229.4.8.895,1.165.86.537-.05,1.36-.436,1.493-.858.987-3.134,3.165-3.943,6.159-3.489a18.668,18.668,0,0,0,2.706.02v-4.159H623.2c-2.252,0-4.5.021-6.756-.013a1.355,1.355,0,0,0-1.482.911,4.32,4.32,0,0,1-5.119,2.474,4.476,4.476,0,0,1,0-8.664,4.533,4.533,0,0,1,5.163,2.46c.192.352.594.834.907.839,3.505.06,7.012.038,10.606.038v-4.108c-1.729,0-3.447-.073-5.154.024a2.258,2.258,0,0,1-2.544-1.478,8.824,8.824,0,0,0-1.241-2.2,2.207,2.207,0,0,0-1.453-.7,1.529,1.529,0,0,0-1.078.761,4.571,4.571,0,0,1-5.263,2.522,4.467,4.467,0,1,1,5.287-6.008C615.178,205.184,615.285,205.391,615.471,205.76ZM631.9,195.675c0-.835-.013-1.527,0-2.219.087-4.028-.18-8.1.347-12.074a15.915,15.915,0,0,1,31.449.036c.512,3.972.224,8.048.293,12.077.012.686,0,1.373,0,2.188,2.8-.2,4.892.484,5.381,3.663a65.921,65.921,0,0,0,8.164-.437c8.556-1.5,12.661-10.77,7.941-17.633a13.24,13.24,0,0,0-15.82-4.415,6.615,6.615,0,0,1-1.934.143,6.915,6.915,0,0,1,.222-1.8,7.748,7.748,0,0,0-.366-7.04,9.393,9.393,0,0,0-11.927-3.638c-1.778.773-1.9.716-2.4-1.121-1.8-6.594-8.868-10.562-16.013-9-6.639,1.453-11.413,7.712-9.833,14.546.317,1.372-.035,1.625-1.411,1.623a28.706,28.706,0,0,0-5.452.26c-8.255,1.593-13.533,9.283-11.783,16.981,1.7,7.481,9.66,12.542,17.8,11.258C627.039,196.144,629.136,195.471,631.9,195.675ZM648,233.11q8.44,0,16.879,0c1.993,0,2.452-.43,2.453-2.357q.011-15.4,0-30.8c0-1.818-.518-2.326-2.356-2.327q-16.949-.01-33.9,0c-2.059,0-2.519.453-2.519,2.448q-.006,15.332,0,30.663c0,1.932.461,2.379,2.423,2.38Q639.493,233.117,648,233.11Zm14.041-37.527c0-3.831.009-7.572,0-11.313-.022-7.508-5.5-13.72-12.62-14.321-7.634-.645-14.224,4.222-15.247,11.872-.591,4.427-.224,8.982-.281,13.48,0,.078.089.157.159.273h5.392c0-.6,0-1.108,0-1.613,0-3.284-.018-6.568.013-9.852a8.484,8.484,0,1,1,16.966-.091c.069,3.329.017,6.661.02,9.992,0,.5,0,1,0,1.573Zm-7.6.015c0-4.214.146-8.25-.045-12.272a6.37,6.37,0,0,0-6.684-5.9,6.5,6.5,0,0,0-6.307,6.33c-.065,2.11-.019,4.223-.021,6.334,0,1.814,0,3.629,0,5.51Zm-40.99,32.094a2.51,2.51,0,1,0-2.521,2.476A2.547,2.547,0,0,0,613.456,227.693Zm71.455,2.473a2.515,2.515,0,1,0-2.471-2.517A2.526,2.526,0,0,0,684.911,230.167ZM610.9,214.649a2.5,2.5,0,0,0-2.466,2.515,2.512,2.512,0,1,0,5.021-.089A2.505,2.505,0,0,0,610.9,214.649Zm76.55,2.6a2.48,2.48,0,0,0-2.365-2.6,2.516,2.516,0,0,0-2.645,2.477,2.506,2.506,0,0,0,5.011.124ZM610.9,204.136a2.522,2.522,0,0,0-2.459,2.529,2.5,2.5,0,1,0,5.008-.083A2.535,2.535,0,0,0,610.9,204.136Zm76.551,2.513a2.522,2.522,0,0,0-2.472-2.513,2.564,2.564,0,0,0-2.546,2.459,2.518,2.518,0,0,0,2.562,2.564A2.474,2.474,0,0,0,687.448,206.649Z" transform="translate(-606.492 -152.123)" fill="#12263f"/>
        <path id="Trazado_194685" data-name="Trazado 194685" d="M619.8,266.044l.9-.994c.347.4.983.789,1,1.2.2,5.33,4.808,9.729,10.494,10.276a3.92,3.92,0,0,1,1.245.132,4.8,4.8,0,0,1,1.028.906c-.374.328-.75.934-1.123.931a16.052,16.052,0,0,1-3.468-.407C624.3,276.811,619.875,271.707,619.8,266.044Z" transform="translate(-616.056 -233.255)" fill="#12263f"/>
        <path id="Trazado_194686" data-name="Trazado 194686" d="M847.152,243.007c5.51.257,9.722,3.807,10.477,8.405a3.466,3.466,0,0,1,.052,1.521,1.4,1.4,0,0,1-.939.8c-.252.041-.6-.435-.88-.712-.077-.077-.032-.27-.052-.408a8.358,8.358,0,0,0-7.712-7.594c-.186-.023-.371-.049-.557-.068-.689-.071-1.641-.022-1.483-.992C846.134,243.489,846.981,243.145,847.152,243.007Z" transform="translate(-778.594 -217.418)" fill="#12263f"/>
        <path id="Trazado_194687" data-name="Trazado 194687" d="M724.567,165.479c5.22.139,9.536,3.3,10.854,7.565.1.312.3.676.212.94a6.775,6.775,0,0,1-.735,1.3c-.374-.28-.986-.493-1.085-.849-1.285-4.613-4.531-6.606-9.062-7.04-.439-.042-.824-.637-1.235-.974Z" transform="translate(-690.566 -161.718)" fill="#12263f"/>
        <path id="Trazado_194688" data-name="Trazado 194688" d="M721.953,389.107c-3.373,0-6.746-.03-10.119.018-1.083.016-1.718-.362-1.833-1.445a38.937,38.937,0,0,1-.532-5.963,6.117,6.117,0,0,1,4.721-5.834,27.612,27.612,0,0,1,15.523.021,6.137,6.137,0,0,1,4.667,5.883,38.5,38.5,0,0,1-.564,5.964c-.114,1.027-.726,1.382-1.744,1.371C728.7,389.082,725.326,389.106,721.953,389.107Zm-.073-1.946c3,0,6,.023,9-.026.415-.007,1.119-.292,1.194-.578,1.291-4.971.357-8.684-5.012-9.309a44.423,44.423,0,0,0-9.246-.16c-5.636.531-7.451,3.312-6.274,8.87.184.871.513,1.251,1.476,1.23C715.972,387.125,718.927,387.165,721.88,387.161Z" transform="translate(-680.465 -312.089)" fill="#12263f"/>
        <path id="Trazado_194689" data-name="Trazado 194689" d="M745.01,333.454a5.614,5.614,0,1,1-5.508-5.616A5.6,5.6,0,0,1,745.01,333.454Zm-5.66,3.65a3.672,3.672,0,0,0,3.711-3.609,3.663,3.663,0,1,0-7.325-.083A3.646,3.646,0,0,0,739.35,337.1Z" transform="translate(-697.942 -278.363)" fill="#12263f"/>
      </g>
    </g>
  </g>
</svg>
