<svg xmlns="http://www.w3.org/2000/svg" xmlns:xlink="http://www.w3.org/1999/xlink" width="202" height="127.332" viewBox="0 0 202 127.332">
  <defs>
    <clipPath id="clip-path">
      <rect id="Rectángulo_263114" data-name="Rectángulo 263114" width="64.1" height="86.226" fill="#12263f"/>
    </clipPath>
  </defs>
  <g id="Grupo_711963" data-name="Grupo 711963" transform="translate(-1072.506 -10167.212)">
    <text id="_2._Seguridad_de_los_equipos_" data-name="2. Seguridad de los equipos
" transform="translate(1072.506 10272.544)" fill="#12263f" font-size="16" font-family="Roboto-Black, Roboto" font-weight="800"><tspan x="0" y="17">2. Seguridad de los equipos</tspan></text>
    <g id="Grupo_709730" data-name="Grupo 709730" transform="translate(1141.139 10167.212)">
      <g id="Grupo_709730-2" data-name="Grupo 709730" clip-path="url(#clip-path)">
        <path id="Trazado_465949" data-name="Trazado 465949" d="M10.469,25.214a21.835,21.835,0,1,1,43.143,0h4.342c3.9,0,6.121,2.207,6.123,6.083q.013,17.892.022,35.784c0,3.748-2.254,6.01-5.99,6.011q-7.242,0-14.484,0H42.537A14.607,14.607,0,0,0,43.9,79.569a1.179,1.179,0,0,0,.889.465c1.513.048,3.029.007,4.543.027a3.08,3.08,0,1,1,.013,6.154q-17.277.026-34.554,0a3.083,3.083,0,1,1,.038-6.157c1.451-.016,2.9-.04,4.354.013a1.074,1.074,0,0,0,1.188-.8,15.374,15.374,0,0,0,1.172-6.183H20.511q-7.29,0-14.579,0A5.511,5.511,0,0,1,0,67.2c-.019-2.4.052-4.795.053-7.192C.064,50.451.138,40.889.021,31.329a5.72,5.72,0,0,1,6.2-6.129c1.407.087,2.824.014,4.251.014m48.16,35.53c0-9.545.005-18.98-.007-28.414,0-1.094-.606-1.649-1.737-1.667-1.2-.019-2.4.053-3.6-.024a1.689,1.689,0,0,0-1.87,1.1A21.531,21.531,0,0,1,28.428,43.294,21.236,21.236,0,0,1,12.436,31.331a1.056,1.056,0,0,0-1.148-.686c-1.166.043-2.335.012-3.5.013-1.9,0-2.337.435-2.337,2.339q0,13.348,0,26.7v1.052ZM11.795,21.756A20.258,20.258,0,1,0,32.1,1.518,20.172,20.172,0,0,0,11.795,21.756M1.667,65.556A16.491,16.491,0,0,0,1.7,68.43c.364,1.985,2,3.1,4.356,3.1,7.57-.006,15.14-.033,22.71-.032q14.62,0,29.24.04a4.169,4.169,0,0,0,3.953-1.921c.759-1.262.578-2.65.54-4.057Zm9.81-36.413a14.473,14.473,0,0,1-.5-1.726c-.09-.556-.34-.713-.88-.7-1.356.034-2.714.01-4.071.011-2.9,0-4.448,1.531-4.449,4.427q-.006,15.9,0,31.81v.991H62.565V62.8q0-11.55,0-23.1c0-2.967.022-5.933-.009-8.9a3.9,3.9,0,0,0-3.785-4.054c-1.639-.065-3.282-.03-4.922,0a.818.818,0,0,0-.633.373c-.236.632-.375,1.3-.57,2.024,1.332,0,2.561,0,3.79,0,2.582,0,3.708,1.113,3.709,3.663q0,14.011,0,28.023c0,1.381-.089,1.473-1.434,1.473H5.411c-1.329,0-1.474-.141-1.475-1.453q0-7.574,0-15.147c0-4.387-.01-8.773,0-13.159a3.1,3.1,0,0,1,3.328-3.4c1.356-.012,2.711,0,4.209,0m11.844,43.98-1.327,6.79H42.1l-1.319-6.79ZM32.113,84.71q8.279,0,16.557,0a7,7,0,0,0,1.038-.041,1.505,1.505,0,0,0,1.316-1.588A1.474,1.474,0,0,0,49.69,81.6a6.976,6.976,0,0,0-1.039-.031q-14.948,0-29.9,0c-1.388,0-2.776-.022-4.163.018a1.5,1.5,0,0,0-1.5,1.509,1.527,1.527,0,0,0,1.424,1.588,8.6,8.6,0,0,0,.945.024H32.113" transform="translate(0 -0.001)" fill="#12263f"/>
        <path id="Trazado_465950" data-name="Trazado 465950" d="M111.168,196.973a4.015,4.015,0,0,1,4.005-4.045,4.011,4.011,0,0,1-.035,8.022,3.989,3.989,0,0,1-3.97-3.977m4.02,2.452a2.516,2.516,0,0,0,2.461-2.491,2.542,2.542,0,0,0-2.572-2.484,2.488,2.488,0,0,0,.111,4.975" transform="translate(-83.101 -144.219)" fill="#12263f"/>
        <path id="Trazado_465951" data-name="Trazado 465951" d="M162.214,196.948a4,4,0,1,1,3.943,4,4.008,4.008,0,0,1-3.943-4m6.475.042a2.535,2.535,0,0,0-2.419-2.538,2.489,2.489,0,0,0-.092,4.977,2.515,2.515,0,0,0,2.512-2.439" transform="translate(-121.26 -144.22)" fill="#12263f"/>
        <path id="Trazado_465952" data-name="Trazado 465952" d="M60.112,196.947a4.022,4.022,0,0,1,4.036-4.018,4.011,4.011,0,1,1-.087,8.022,4,4,0,0,1-3.949-4m4,2.481a2.524,2.524,0,0,0,2.488-2.468,2.551,2.551,0,0,0-2.551-2.51,2.49,2.49,0,0,0-2.417,2.525,2.463,2.463,0,0,0,2.48,2.453" transform="translate(-44.935 -144.219)" fill="#12263f"/>
        <path id="Trazado_465953" data-name="Trazado 465953" d="M78.473,34.55a10.563,10.563,0,0,1,10.3-11.277C93.59,23.2,99.47,26.909,99.395,34.518c2.01.847,2.357,1.365,2.355,3.564,0,2.366.071,4.737-.039,7.1-.246,5.269-3.685,9.214-8.916,9.747a33.087,33.087,0,0,1-9.122-.283,9.628,9.628,0,0,1-7.58-9.425c-.044-2.461-.016-4.922-.015-7.384,0-1.959.487-2.632,2.4-3.285m10.466,1.593v-.009q-2.459,0-4.918,0-2.506,0-5.012.009c-1.054,0-1.412.347-1.415,1.416-.007,2.554-.034,5.108.014,7.66a8.315,8.315,0,0,0,7.077,8.134,39.9,39.9,0,0,0,7.733.135,8.347,8.347,0,0,0,7.747-7.923c.141-2.7.073-5.42.061-8.131,0-.975-.409-1.291-1.451-1.291H88.938M82.55,34.563H95.227a6.247,6.247,0,0,0-2.7-6.1,6,6,0,0,0-6.7-.325c-2.444,1.367-3.434,3.574-3.272,6.428m-1.575-.007c-.118-5.807,4.044-8.644,7.641-8.75a7.684,7.684,0,0,1,5.111,1.648,8.075,8.075,0,0,1,3.071,7.1h.892c.68-3.45-1.729-7.518-5.323-9.048a8.85,8.85,0,0,0-10.687,3.018,8.487,8.487,0,0,0-1.588,6.035Z" transform="translate(-56.863 -17.396)" fill="#12263f"/>
        <path id="Trazado_465954" data-name="Trazado 465954" d="M108.744,268.454c1.671,0,3.343.008,5.014,0,.564,0,1.077.116,1.061.772s-.539.751-1.1.75q-5.108-.011-10.217,0c-.537,0-1.083-.049-1.1-.732-.018-.754.565-.787,1.134-.785,1.734,0,3.469,0,5.2,0" transform="translate(-76.552 -200.674)" fill="#12263f"/>
        <path id="Trazado_465955" data-name="Trazado 465955" d="M98.576,81.1c2.744,0,5.488,0,8.232,0,1.1,0,1.276.176,1.28,1.252.006,1.861.011,3.721,0,5.582a6.728,6.728,0,0,1-6.457,7.027,44.707,44.707,0,0,1-6.426-.029A6.7,6.7,0,0,1,89,88.345c-.073-2.048-.011-4.1-.025-6.149-.006-.821.415-1.1,1.184-1.1,2.807.014,5.614.006,8.421.006m-8.087,1.565c0,1.836-.015,3.569,0,5.3a5.331,5.331,0,0,0,5.3,5.522c1.827.074,3.662.067,5.49,0a5.108,5.108,0,0,0,5.174-4.376,58.15,58.15,0,0,0,.048-6.45Z" transform="translate(-66.5 -60.621)" fill="#12263f"/>
        <path id="Trazado_465956" data-name="Trazado 465956" d="M117,102.2a3.3,3.3,0,1,1,3.393-3.188A3.26,3.26,0,0,1,117,102.2m1.876-3.287a1.772,1.772,0,0,0-1.8-1.787,1.824,1.824,0,0,0-1.775,1.833,1.789,1.789,0,0,0,1.771,1.725,1.752,1.752,0,0,0,1.8-1.771" transform="translate(-85.053 -71.469)" fill="#12263f"/>
      </g>
    </g>
  </g>
</svg>
