<svg id="Grupo_173380" data-name="Grupo 173380" xmlns="http://www.w3.org/2000/svg" width="64.689" height="59.188" viewBox="0 0 64.689 59.188">
  <path id="Trazado_237558" data-name="Trazado 237558" d="M149.3,91.043c.278-.785.318-1.627.6-2.414a11.923,11.923,0,0,1,9.74-8.21c.367-.064.522-.162.5-.59a20.182,20.182,0,0,1,39.2-7.545,16.592,16.592,0,0,1,.638,2.238.524.524,0,0,0,.548.473A14.733,14.733,0,0,1,213.48,85.908a14.906,14.906,0,0,1-7.879,17.139,16.694,16.694,0,0,1-6.461,1.5c-.681-.021-1.205-.241-1.291-1.018l0-.707c.248-.86.664-1.177,1.671-1.193a11.909,11.909,0,0,0,10.958-15.738,11.708,11.708,0,0,0-7.965-7.662,21.376,21.376,0,0,0-3.423-.529,1.68,1.68,0,0,1-1.686-1.577,17.831,17.831,0,0,0-1.866-5.346,16.951,16.951,0,0,0-9.8-8.169,16.562,16.562,0,0,0-11.982.411A16.939,16.939,0,0,0,163.129,76.8a13.972,13.972,0,0,0-.031,3.963,4.189,4.189,0,0,1,.023.5c.007,1.255-.534,1.814-1.788,1.851a9.661,9.661,0,0,0-4.8,1.382,9.267,9.267,0,0,0-3.029,12.722,9.12,9.12,0,0,0,7.543,4.4c.084,0,.168.007.252.016,1,.112,1.372.464,1.51,1.433v.2c-.082.75-.2,1.2-1.4,1.27a13.119,13.119,0,0,1-5.172-1.212,12.039,12.039,0,0,1-6.792-9.127c-.024-.134.042-.305-.138-.384Z" transform="translate(-149.305 -58.794)" fill="#ff2c9c"/>
  <g id="Grupo_169537" data-name="Grupo 169537" transform="translate(16.178 29.547)">
    <path id="Trazado_237559" data-name="Trazado 237559" d="M190.422,106.8a14.82,14.82,0,1,0,14.823,14.846A14.835,14.835,0,0,0,190.422,106.8Zm-.011,26.947a12.122,12.122,0,1,1,12.112-12.134A12.045,12.045,0,0,1,190.411,133.752Z" transform="translate(-175.592 -106.805)" fill="#ff2c9c"/>
  </g>
  <g id="Grupo_169538" data-name="Grupo 169538" transform="translate(25.959 36.21)">
    <path id="Trazado_237560" data-name="Trazado 237560" d="M202.01,134.6H191.624v-1.551l5.25-6.261a15.744,15.744,0,0,0,1.9-2.705,4.507,4.507,0,0,0,.5-2.027,2.709,2.709,0,0,0-.678-1.9,2.409,2.409,0,0,0-1.873-.74,2.805,2.805,0,0,0-2.257.907,3.362,3.362,0,0,0-.775,2.263h-2.183l-.023-.068a4.511,4.511,0,0,1,1.367-3.464,5.245,5.245,0,0,1,3.871-1.419,4.868,4.868,0,0,1,3.527,1.241,4.255,4.255,0,0,1,1.287,3.205,5.114,5.114,0,0,1-.73,2.585,28.873,28.873,0,0,1-2.222,3.171l-4.217,4.94.023.057h7.617Z" transform="translate(-191.484 -117.631)" fill="#ff2c9c"/>
  </g>
</svg>
