<svg id="Grupo_173381" data-name="Grupo 173381" xmlns="http://www.w3.org/2000/svg" width="64.689" height="59.188" viewBox="0 0 64.689 59.188">
  <path id="Trazado_237561" data-name="Trazado 237561" d="M318.412,91.043c.278-.785.318-1.627.6-2.414a11.924,11.924,0,0,1,9.741-8.21c.366-.064.522-.162.5-.59a20.182,20.182,0,0,1,39.2-7.545,16.585,16.585,0,0,1,.637,2.238.524.524,0,0,0,.548.473,14.732,14.732,0,0,1,12.943,10.914,14.9,14.9,0,0,1-7.879,17.139,16.691,16.691,0,0,1-6.461,1.5c-.681-.021-1.205-.241-1.291-1.018v-.707c.248-.86.663-1.177,1.671-1.193a11.909,11.909,0,0,0,10.958-15.738,11.707,11.707,0,0,0-7.965-7.662A21.355,21.355,0,0,0,368.2,77.7a1.681,1.681,0,0,1-1.686-1.577,17.847,17.847,0,0,0-1.865-5.346,16.952,16.952,0,0,0-9.8-8.169,16.561,16.561,0,0,0-11.981.411A16.939,16.939,0,0,0,332.236,76.8a14,14,0,0,0-.031,3.963,4.061,4.061,0,0,1,.023.5c.007,1.255-.534,1.814-1.788,1.851a9.661,9.661,0,0,0-4.8,1.382,9.266,9.266,0,0,0-3.029,12.722,9.118,9.118,0,0,0,7.542,4.4c.084,0,.169.007.252.016,1,.112,1.372.464,1.51,1.433v.2c-.082.75-.2,1.2-1.4,1.27a13.12,13.12,0,0,1-5.173-1.212,12.041,12.041,0,0,1-6.792-9.127c-.024-.134.043-.305-.138-.384Z" transform="translate(-318.412 -58.794)" fill="#ff2c9c"/>
  <g id="Grupo_169540" data-name="Grupo 169540" transform="translate(16.178 29.547)">
    <path id="Trazado_237562" data-name="Trazado 237562" d="M359.529,106.8a14.82,14.82,0,1,0,14.824,14.846A14.835,14.835,0,0,0,359.529,106.8Zm-.011,26.947a12.122,12.122,0,1,1,12.113-12.134A12.045,12.045,0,0,1,359.518,133.752Z" transform="translate(-344.699 -106.805)" fill="#ff2c9c"/>
  </g>
  <g id="Grupo_169541" data-name="Grupo 169541" transform="translate(25.753 36.21)">
    <path id="Trazado_237563" data-name="Trazado 237563" d="M365.532,125.086a2.653,2.653,0,0,0,2.142-.752,3.205,3.205,0,0,0,.626-2.108,2.972,2.972,0,0,0-.683-2.04,2.561,2.561,0,0,0-2.028-.775,3.027,3.027,0,0,0-2.166.81,2.676,2.676,0,0,0-.855,2.028h-2.16l-.035-.069a4,4,0,0,1,1.425-3.217,5.453,5.453,0,0,1,3.791-1.332,5.3,5.3,0,0,1,3.653,1.177,4.4,4.4,0,0,1,1.321,3.464,3.9,3.9,0,0,1-.615,2.137,4.141,4.141,0,0,1-1.718,1.5,3.959,3.959,0,0,1,1.924,1.534,4.5,4.5,0,0,1,.66,2.488,4.592,4.592,0,0,1-1.453,3.6,5.435,5.435,0,0,1-3.774,1.3,5.977,5.977,0,0,1-3.762-1.258,3.851,3.851,0,0,1-1.568-3.326l.023-.068h2.16a2.715,2.715,0,0,0,.879,2.051,3.165,3.165,0,0,0,2.269.833,2.815,2.815,0,0,0,2.171-.856,3.156,3.156,0,0,0,.793-2.234,3.344,3.344,0,0,0-.729-2.355,3,3,0,0,0-2.292-.782h-1.861v-1.758Z" transform="translate(-360.257 -117.631)" fill="#ff2c9c"/>
  </g>
</svg>
